<svg width="24" height="24" viewBox="0 0 24 24" fill="none" xmlns="http://www.w3.org/2000/svg">
<path d="M5.04492 3.25C5.47768 3.24995 5.8745 3.24958 6.19727 3.29297C6.55274 3.34076 6.92828 3.45369 7.23731 3.7627C7.54632 4.07171 7.65924 4.44727 7.70703 4.80274C7.74598 5.09244 7.74964 5.44181 7.75 5.82325C7.81254 5.70017 7.86928 5.59521 7.93262 5.49805C8.37986 4.81215 9.10934 4.36083 9.92285 4.26758C10.0797 4.24961 10.2437 4.24994 10.4531 4.25H13.5469C13.7563 4.24994 13.9202 4.24961 14.0771 4.26758C14.8906 4.36082 15.6201 4.81215 16.0674 5.49805C16.1307 5.59521 16.1875 5.70018 16.25 5.82325C16.2504 5.44182 16.254 5.09243 16.293 4.80274C16.3408 4.44727 16.4536 4.07171 16.7627 3.7627C17.0717 3.45369 17.4472 3.34076 17.8027 3.29297C18.1255 3.24958 18.5223 3.24995 18.9551 3.25H19.0449C19.4777 3.24995 19.8745 3.24958 20.1973 3.29297C20.5528 3.34076 20.9283 3.45368 21.2373 3.7627C21.5464 4.07171 21.6592 4.44727 21.707 4.80274C21.7504 5.1255 21.7501 5.52235 21.75 5.95508V7.4502C21.9453 7.66081 22.1165 7.89462 22.2598 8.14649C22.5308 8.62328 22.6446 9.14725 22.6982 9.7461C22.7502 10.3271 22.75 11.047 22.75 11.9395V14.0547C22.75 15.4222 22.7503 16.5246 22.6338 17.3916C22.5128 18.2917 22.2533 19.0494 21.6514 19.6514C21.0494 20.2533 20.2917 20.5128 19.3916 20.6338C18.5246 20.7503 17.4222 20.75 16.0547 20.75H7.94531C6.57782 20.75 5.47534 20.7503 4.6084 20.6338C3.70829 20.5128 2.95055 20.2533 2.34863 19.6514C1.74673 19.0494 1.48723 18.2917 1.36621 17.3916C1.24968 16.5246 1.24998 15.4222 1.25 14.0547V11.9395C1.24999 11.0469 1.24977 10.3271 1.30176 9.7461C1.35537 9.14725 1.46914 8.62327 1.74024 8.14649C1.88347 7.89462 2.05474 7.66081 2.25 7.4502V5.95508C2.24995 5.52234 2.24958 5.1255 2.29297 4.80274C2.34076 4.44727 2.45368 4.07171 2.7627 3.7627C3.07172 3.45369 3.44726 3.34076 3.80274 3.29297C4.1255 3.24958 4.52234 3.24995 4.95508 3.25H5.04492ZM10.4902 5.75C10.2266 5.75001 10.1545 5.75086 10.0938 5.75782C9.72391 5.80018 9.39177 6.00552 9.18848 6.31739C9.15514 6.36857 9.12184 6.43306 9.00391 6.66895C9.00034 6.67607 8.99676 6.68323 8.99316 6.69043C8.94959 6.77776 8.9031 6.871 8.84766 6.95606C8.563 7.39244 8.09871 7.67899 7.58106 7.73829C7.48019 7.74983 7.3769 7.75009 7.2793 7.75H6.97461C6.03872 7.75 5.38615 7.75062 4.87988 7.7959C4.38363 7.84033 4.1005 7.92295 3.8877 8.04395C3.53572 8.24412 3.24411 8.53572 3.04395 8.8877C2.92293 9.10051 2.84033 9.38362 2.7959 9.87989C2.7506 10.3862 2.75 11.0394 2.75 11.9756V14C2.75 15.4354 2.75196 16.437 2.85352 17.1924C2.95218 17.9258 3.13249 18.3141 3.40918 18.5908C3.68594 18.8676 4.07482 19.0478 4.80859 19.1465C5.5639 19.2479 6.56485 19.25 8 19.25H16C17.4354 19.25 18.437 19.248 19.1924 19.1465C19.9258 19.0478 20.3141 18.8676 20.5908 18.5908C20.8676 18.3141 21.0478 17.9258 21.1465 17.1924C21.248 16.437 21.25 15.4354 21.25 14V11.9756C21.25 11.0394 21.2494 10.3862 21.2041 9.87989C21.1596 9.3836 21.077 9.10052 20.9561 8.8877C20.9268 8.83627 20.8954 8.78607 20.8623 8.73731C20.5585 8.68095 20.3191 8.44151 20.2627 8.1377C20.214 8.10465 20.1637 8.0732 20.1123 8.04395C19.8995 7.92296 19.6163 7.84033 19.1201 7.7959C18.6138 7.75062 17.9606 7.75 17.0244 7.75H16.7207C16.6231 7.75009 16.5198 7.74984 16.4189 7.73829C15.9013 7.679 15.437 7.39244 15.1523 6.95606C15.0969 6.87099 15.0504 6.77779 15.0068 6.69043C15.0033 6.68324 14.9997 6.67607 14.9961 6.66895C14.8782 6.43307 14.8449 6.36856 14.8115 6.31739C14.6082 6.00551 14.276 5.80018 13.9063 5.75782C13.8455 5.75086 13.7734 5.75001 13.5098 5.75H10.4902ZM16.5 11.25C16.9142 11.25 17.25 11.5858 17.25 12V12.75H18C18.4142 12.75 18.75 13.0858 18.75 13.5C18.75 13.9142 18.4142 14.25 18 14.25H17.25V15C17.25 15.4142 16.9142 15.75 16.5 15.75C16.0858 15.75 15.75 15.4142 15.75 15V14.25H15C14.5858 14.25 14.25 13.9142 14.25 13.5C14.25 13.0858 14.5858 12.75 15 12.75H15.75V12C15.75 11.5858 16.0858 11.25 16.5 11.25ZM9 12.75C9.41421 12.75 9.75 13.0858 9.75 13.5C9.75 13.9142 9.41421 14.25 9 14.25H6C5.58579 14.25 5.25 13.9142 5.25 13.5C5.25001 13.0858 5.58579 12.75 6 12.75H9ZM5 4.75C4.50755 4.75 4.21364 4.75198 4.00293 4.78028C3.90637 4.79326 3.85772 4.80843 3.83594 4.81739C3.83094 4.81944 3.82712 4.82127 3.8252 4.82227L3.82324 4.82325L3.82227 4.82618C3.82126 4.82812 3.81937 4.83115 3.81738 4.83594C3.80842 4.85772 3.79326 4.90637 3.78027 5.00293C3.75197 5.21364 3.75 5.50756 3.75 6V6.48243C4.05922 6.38744 4.38954 6.33368 4.74609 6.30176C5.16937 6.2639 5.66633 6.25377 6.25 6.25098V6C6.25 5.50756 6.24803 5.21364 6.21973 5.00293C6.20675 4.90637 6.19158 4.85772 6.18262 4.83594C6.18064 4.83115 6.17874 4.82812 6.17774 4.82618L6.17676 4.82325L6.17481 4.82227C6.17289 4.82127 6.16905 4.81944 6.16406 4.81739C6.14228 4.80843 6.09363 4.79326 5.99707 4.78028C5.78636 4.75198 5.49244 4.75 5 4.75ZM19 4.75C18.5075 4.75 18.2136 4.75197 18.0029 4.78028C17.9063 4.79326 17.8576 4.80843 17.8359 4.81739C17.8311 4.81936 17.8281 4.82126 17.8262 4.82227L17.8232 4.82325L17.8223 4.82618C17.8213 4.82812 17.8193 4.83115 17.8174 4.83594C17.8084 4.85772 17.7933 4.90637 17.7803 5.00293C17.752 5.21364 17.75 5.50756 17.75 6V6.25098C18.3337 6.25377 18.8307 6.26389 19.2539 6.30176C19.6105 6.33368 19.9408 6.38744 20.25 6.48243V6C20.25 5.50756 20.248 5.21364 20.2197 5.00293C20.2067 4.90637 20.1916 4.85772 20.1826 4.83594C20.1807 4.83114 20.1788 4.82812 20.1777 4.82618L20.1768 4.82325L20.1738 4.82227C20.1719 4.82126 20.1689 4.81936 20.1641 4.81739C20.1424 4.80843 20.0937 4.79326 19.9971 4.78028C19.7864 4.75197 19.4925 4.75 19 4.75Z" fill="#48465C"/>
</svg>
