<svg width="24" height="24" viewBox="0 0 24 24" fill="none" xmlns="http://www.w3.org/2000/svg">
<path fill-rule="evenodd" clip-rule="evenodd" d="M14 4.99987C14.293 5.03732 14.5743 5.13872 14.8232 5.29772C15.0722 5.45679 15.2833 5.66959 15.4404 5.91979C15.5255 6.05488 15.6019 6.19525 15.6699 6.33971L15.7803 6.55944C15.861 6.68082 15.9674 6.78324 16.0918 6.85924C16.2161 6.93515 16.3553 6.98344 16.5 6.99987H17C18.87 6.99987 19.7905 6.99951 20.4805 7.38951C20.9504 7.65942 21.3405 8.04942 21.6104 8.5194C22.0004 9.2094 22 10.1299 22 11.9999V13.9999C22 16.8298 22.0001 18.24 21.1201 19.12C20.2401 19.9999 18.8299 19.9999 16 19.9999H8C5.17007 19.9999 3.75989 19.9999 2.87988 19.12C1.9999 18.24 2 16.8298 2 13.9999V11.9999C2 10.1299 1.99965 9.2094 2.38965 8.5194C2.66507 8.04674 3.06262 7.65659 3.54004 7.38951C4.23003 6.99958 5.15011 6.99987 7 6.99987H7.5C7.64477 6.97974 7.78358 6.92797 7.90625 6.8485C8.0288 6.76907 8.13247 6.6637 8.20996 6.53991L8.32031 6.32018C8.38835 6.17562 8.46465 6.03446 8.5498 5.89928C8.7101 5.65173 8.92326 5.44252 9.17383 5.28698C9.42451 5.13138 9.70689 5.03364 10 4.99987H14ZM16.5 11.2499C16.3011 11.2499 16.1104 11.3289 15.9697 11.4696C15.8291 11.6102 15.75 11.801 15.75 11.9999V12.7499H15C14.8011 12.7499 14.6104 12.8289 14.4697 12.9696C14.3291 13.1102 14.25 13.301 14.25 13.4999C14.25 13.6987 14.3291 13.8895 14.4697 14.0301C14.6104 14.1708 14.8011 14.2499 15 14.2499H15.75V14.9999C15.75 15.1987 15.8291 15.3895 15.9697 15.5301C16.1104 15.6708 16.3011 15.7499 16.5 15.7499C16.6989 15.7499 16.8896 15.6707 17.0303 15.5301C17.1709 15.3895 17.25 15.1987 17.25 14.9999V14.2499H18C18.1989 14.2499 18.3896 14.1707 18.5303 14.0301C18.6709 13.8895 18.75 13.6987 18.75 13.4999C18.75 13.301 18.6709 13.1102 18.5303 12.9696C18.3896 12.8289 18.1989 12.7499 18 12.7499H17.25V11.9999C17.25 11.801 17.1709 11.6102 17.0303 11.4696C16.8896 11.3289 16.6989 11.2499 16.5 11.2499ZM6 12.7499C5.80109 12.7499 5.61038 12.8289 5.46973 12.9696C5.32912 13.1102 5.25 13.301 5.25 13.4999C5.25004 13.6987 5.32911 13.8895 5.46973 14.0301C5.61037 14.1707 5.80112 14.2499 6 14.2499H9C9.19888 14.2499 9.38963 14.1708 9.53027 14.0301C9.67089 13.8895 9.74996 13.6987 9.75 13.4999C9.75 13.301 9.67088 13.1102 9.53027 12.9696C9.38962 12.8289 9.19891 12.7499 9 12.7499H6ZM5 3.24987C5.38631 3.22791 5.77385 3.22791 6.16016 3.24987C6.53517 3.29518 6.886 3.45972 7.16016 3.71959C7.42003 3.99381 7.58463 4.34452 7.62988 4.71959V4.78991C7.65717 5.08921 7.59034 5.38935 7.43945 5.64928C7.41387 5.73327 7.36764 5.80976 7.30469 5.87096C7.2418 5.93206 7.16464 5.97667 7.08008 5.99987H4.71973C4.11613 6.04925 3.52986 6.22612 3 6.5194C2.72089 6.68098 2.46184 6.87581 2.22949 7.09948V5.99987C2.20753 5.61355 2.20754 5.22602 2.22949 4.83971C2.27475 4.46457 2.44024 4.11395 2.7002 3.83971C2.97441 3.57983 3.32511 3.41523 3.7002 3.36998C4.13044 3.30234 4.56465 3.26212 5 3.24987ZM19 3.24987C19.3863 3.22791 19.7738 3.22791 20.1602 3.24987C20.5352 3.29518 20.886 3.45972 21.1602 3.71959C21.42 3.99381 21.5846 4.34452 21.6299 4.71959C21.6518 5.10595 21.6518 5.49339 21.6299 5.87975V7.09948C21.4413 6.88418 21.2301 6.68961 21 6.5194C20.4722 6.24613 19.893 6.08632 19.2998 6.04967H16.9395C16.849 6.04782 16.7607 6.02173 16.6836 5.97448C16.6062 5.92701 16.5427 5.85924 16.5 5.77916C16.351 5.51828 16.2811 5.21966 16.2998 4.91979V4.79967C16.3451 4.42462 16.5097 4.07388 16.7695 3.79967C17.0437 3.5398 17.3945 3.37526 17.7695 3.32994C18.1558 3.30799 18.5434 3.30799 18.9297 3.32994L19 3.24987Z" fill="#48465C"/>
</svg>
