<svg width="24" height="24" viewBox="0 0 24 24" fill="none" xmlns="http://www.w3.org/2000/svg">
<path d="M14.3983 2.68274C16.3088 0.772362 19.4068 0.772478 21.3173 2.68274C23.2278 4.59322 23.2277 7.69118 21.3173 9.60168L18.9188 12.0001L21.3173 14.3986C23.2278 16.3091 23.2278 19.407 21.3173 21.3175C19.4068 23.228 16.3088 23.228 14.3983 21.3175L11.9999 18.9191L9.60145 21.3175C7.69095 23.2279 4.59299 23.228 2.68251 21.3175C0.772247 19.407 0.772132 16.309 2.68251 14.3986L5.08192 12.0001L2.68251 9.60168C0.772292 7.69116 0.772106 4.59315 2.68251 2.68274C4.59292 0.772338 7.69093 0.772523 9.60145 2.68274L11.9999 5.08215L14.3983 2.68274ZM3.74403 15.4601C2.41935 16.7848 2.41933 18.9323 3.74403 20.257C5.06876 21.5814 7.21627 21.5815 8.54091 20.257L10.9393 17.8585L6.14247 13.0607L3.74403 15.4601ZM8.54091 3.74426C7.2162 2.41955 5.06874 2.41955 3.74403 3.74426C2.41932 5.06897 2.41932 7.21643 3.74403 8.54114L15.4599 20.257C16.7846 21.5814 18.9321 21.5816 20.2567 20.257C21.5813 18.9323 21.5812 16.7848 20.2567 15.4601L8.54091 3.74426ZM15.6561 15.6564C15.9636 15.3489 16.462 15.3489 16.7694 15.6564C17.077 15.9638 17.0769 16.4621 16.7694 16.7697C16.4619 17.0773 15.9636 17.0773 15.6561 16.7697C15.3486 16.4621 15.3486 15.9639 15.6561 15.6564ZM12.871 14.7277C13.1785 14.4202 13.6776 14.4203 13.9852 14.7277C14.2927 15.0352 14.2927 15.5343 13.9852 15.8419C13.6776 16.1494 13.1786 16.1494 12.871 15.8419C12.5636 15.5343 12.5635 15.0351 12.871 14.7277ZM14.7274 12.8712C15.0349 12.5638 15.5341 12.5639 15.8417 12.8712C16.1492 13.1788 16.1492 13.6779 15.8417 13.9855C15.5341 14.293 15.0349 14.293 14.7274 13.9855C14.42 13.6779 14.4199 13.1788 14.7274 12.8712ZM11.9433 11.9435C12.2509 11.6361 12.75 11.636 13.0575 11.9435C13.3651 12.251 13.365 12.7502 13.0575 13.0577C12.75 13.3653 12.2509 13.3653 11.9433 13.0577C11.6358 12.7502 11.6358 12.2511 11.9433 11.9435ZM9.15907 11.0157C9.46656 10.7082 9.96478 10.7083 10.2724 11.0157C10.5799 11.3232 10.5799 11.8215 10.2724 12.129C9.96479 12.4366 9.46662 12.4366 9.15907 12.129C8.85169 11.8215 8.85158 11.3232 9.15907 11.0157ZM20.2567 3.74426C18.932 2.41956 16.7846 2.41958 15.4599 3.74426L13.0604 6.1427L17.8583 10.9396L20.2567 8.54114C21.5813 7.21651 21.5812 5.06899 20.2567 3.74426ZM11.0155 9.1593C11.323 8.85181 11.8213 8.85192 12.1288 9.1593C12.4364 9.46685 12.4364 9.96502 12.1288 10.2726C11.8213 10.5801 11.323 10.5801 11.0155 10.2726C10.7081 9.96501 10.708 9.46679 11.0155 9.1593ZM8.23036 8.23059C8.53785 7.9231 9.03705 7.92321 9.34462 8.23059C9.65217 8.53814 9.65217 9.0373 9.34462 9.34485C9.03707 9.6524 8.53791 9.6524 8.23036 9.34485C7.92298 9.03729 7.92287 8.53809 8.23036 8.23059Z" fill="#48465C"/>
</svg>
