<svg width="24" height="24" viewBox="0 0 24 24" fill="none" xmlns="http://www.w3.org/2000/svg">
<path fill-rule="evenodd" clip-rule="evenodd" d="M10.9393 18.9188L9.07111 20.7869C7.45358 22.4043 4.83128 22.4042 3.21369 20.7869C1.59609 19.1693 1.59609 16.5461 3.21369 14.9285L5.08185 13.0604L10.9393 18.9188ZM3.21369 3.21369C4.8313 1.59609 7.4535 1.59609 9.07111 3.21369L20.7869 14.9285C22.4045 16.5461 22.4045 19.1693 20.7869 20.7869C19.1693 22.4045 16.5461 22.4045 14.9285 20.7869L3.21369 9.07111C1.59609 7.4535 1.59609 4.8313 3.21369 3.21369ZM16.7694 15.6561C16.4618 15.3485 15.9636 15.3485 15.6561 15.6561C15.3485 15.9636 15.3485 16.4618 15.6561 16.7694C15.9636 17.077 16.4619 17.077 16.7694 16.7694C17.077 16.4619 17.077 15.9636 16.7694 15.6561ZM13.9852 14.7274C13.6777 14.4202 13.1794 14.4203 12.8719 14.7274C12.5644 15.0349 12.5644 15.534 12.8719 15.8416C13.1795 16.1488 13.6776 16.1489 13.9852 15.8416C14.2927 15.534 14.2927 15.0349 13.9852 14.7274ZM15.8416 12.8719C15.534 12.5644 15.0349 12.5644 14.7274 12.8719C14.4203 13.1794 14.4202 13.6777 14.7274 13.9852C15.0349 14.2927 15.534 14.2927 15.8416 13.9852C16.1489 13.6776 16.1488 13.1795 15.8416 12.8719ZM13.0574 11.9432C12.7499 11.6357 12.2508 11.6357 11.9432 11.9432C11.6357 12.2508 11.6357 12.7499 11.9432 13.0574C12.2508 13.365 12.75 13.365 13.0574 13.0574C13.365 12.75 13.365 12.2508 13.0574 11.9432ZM10.2733 11.0154C9.9657 10.7078 9.46655 10.7078 9.159 11.0154C8.8516 11.3229 8.85165 11.8212 9.159 12.1287C9.46655 12.4363 9.9657 12.4363 10.2733 12.1287C10.5803 11.8213 10.5803 11.3228 10.2733 11.0154ZM14.9295 3.21369C16.5471 1.5961 19.1693 1.59609 20.7869 3.21369C22.4044 4.83131 22.4045 7.45355 20.7869 9.07111L18.9188 10.9393L13.0613 5.08185L14.9295 3.21369ZM12.1287 9.159C11.8212 8.85165 11.3229 8.8516 11.0154 9.159C10.7078 9.46655 10.7078 9.9657 11.0154 10.2733C11.3228 10.5803 11.8213 10.5803 12.1287 10.2733C12.4363 9.9657 12.4363 9.46655 12.1287 9.159ZM9.34455 8.23127C9.037 7.92372 8.53882 7.92372 8.23127 8.23127C7.92372 8.53882 7.92372 9.037 8.23127 9.34455C8.53882 9.65201 9.03703 9.65207 9.34455 9.34455C9.65207 9.03703 9.65201 8.53882 9.34455 8.23127Z" fill="#48465C"/>
</svg>
