<svg width="24" height="24" viewBox="0 0 24 24" fill="none" xmlns="http://www.w3.org/2000/svg">
<path fill-rule="evenodd" clip-rule="evenodd" d="M20.9092 13.3321C22.5125 15.4519 22.3486 18.4835 20.416 20.4161C18.4834 22.3488 15.4518 22.5127 13.332 20.9093L20.9092 13.3321ZM19.8847 12.2345L12.2344 19.8849L4.11522 11.7657L11.7656 4.11534L19.8847 12.2345ZM12.707 14.1212C12.3164 13.7309 11.6835 13.7308 11.293 14.1212C10.9025 14.5116 10.9027 15.1447 11.293 15.5353C11.6836 15.9258 12.3164 15.9258 12.707 15.5353C13.0975 15.1448 13.0975 14.5117 12.707 14.1212ZM9.87889 11.2931C9.48843 10.9026 8.85537 10.9027 8.46483 11.2931C8.07431 11.6836 8.07431 12.3166 8.46483 12.7071C8.85537 13.0975 9.48842 13.0976 9.87889 12.7071C10.2692 12.3167 10.2692 11.6835 9.87889 11.2931ZM15.5351 11.2931C15.1446 10.9027 14.5115 10.9026 14.1211 11.2931C13.7306 11.6835 13.7306 12.3167 14.1211 12.7071C14.5115 13.0976 15.1446 13.0975 15.5351 12.7071C15.9256 12.3166 15.9256 11.6836 15.5351 11.2931ZM3.58494 3.58507C5.51758 1.65242 8.54811 1.48759 10.668 3.09092L3.0908 10.6681C1.48746 8.54823 1.6523 5.5177 3.58494 3.58507ZM12.707 8.46495C12.3164 8.07443 11.6836 8.07443 11.293 8.46495C10.9026 8.85549 10.9025 9.48854 11.293 9.87901C11.6835 10.2694 12.3164 10.2693 12.707 9.87901C13.0975 9.48848 13.0975 8.85548 12.707 8.46495Z" fill="#48465C"/>
</svg>
