<svg width="24" height="24" viewBox="0 0 24 24" fill="none" xmlns="http://www.w3.org/2000/svg">
<path d="M20.9093 13.3321C22.5127 15.4519 22.3479 18.4835 20.4152 20.4161C18.4826 22.3484 15.4518 22.5126 13.3322 20.9093L20.9093 13.3321ZM19.8849 12.2345L12.2345 19.8849L4.11441 11.7657L11.7658 4.11435L19.8849 12.2345ZM12.7072 14.1212C12.3166 13.7307 11.6837 13.7307 11.2931 14.1212C10.9026 14.5117 10.9027 15.1447 11.2931 15.5352C11.6837 15.9257 12.3166 15.9257 12.7072 15.5352C13.0976 15.1447 13.0977 14.5117 12.7072 14.1212ZM9.87906 11.2931C9.48854 10.9026 8.85455 10.9026 8.46402 11.2931C8.07388 11.6835 8.0738 12.3167 8.46402 12.7071C8.85455 13.0976 9.48854 13.0976 9.87906 12.7071C10.2694 12.3167 10.2693 11.6835 9.87906 11.2931ZM15.5353 11.2931C15.1448 10.9026 14.5117 10.9026 14.1212 11.2931C13.7307 11.6836 13.7307 12.3167 14.1212 12.7071C14.5117 13.0976 15.1448 13.0975 15.5353 12.7071C15.9258 12.3166 15.9258 11.6836 15.5353 11.2931ZM3.58414 3.58407C5.51681 1.65139 8.54827 1.48747 10.6681 3.09091L3.09097 10.6681C1.48753 8.54821 1.65146 5.51674 3.58414 3.58407ZM12.7072 8.46493C12.3166 8.07441 11.6837 8.07441 11.2931 8.46493C10.9028 8.85548 10.9027 9.48853 11.2931 9.879C11.6837 10.2693 12.3166 10.2693 12.7072 9.879C13.0976 9.48852 13.0975 8.85548 12.7072 8.46493Z" fill="#48465C"/>
</svg>
