<svg width="24" height="24" viewBox="0 0 24 24" fill="none" xmlns="http://www.w3.org/2000/svg">
<path d="M3.21349 3.21361C4.83105 1.59606 7.45329 1.59616 9.07091 3.21361L20.7867 14.9294C22.4043 16.547 22.4043 19.1693 20.7867 20.7869C19.1691 22.4045 16.5469 22.4045 14.9293 20.7869L3.21349 9.07103C1.59604 7.45341 1.59594 4.83117 3.21349 3.21361ZM10.9391 18.9187L9.07091 20.7869C7.45329 22.4043 4.83106 22.4044 3.21349 20.7869C1.59597 19.1693 1.59604 16.547 3.21349 14.9294L5.08165 13.0613L10.9391 18.9187ZM16.7701 15.656C16.4626 15.3484 15.9634 15.3484 15.6559 15.656C15.3483 15.9635 15.3483 16.4628 15.6559 16.7703C15.9634 17.0777 16.4627 17.0778 16.7701 16.7703C17.0777 16.4628 17.0776 15.9635 16.7701 15.656ZM13.985 14.7283C13.6774 14.4208 13.1793 14.4207 12.8717 14.7283C12.5643 15.0357 12.5643 15.534 12.8717 15.8415C13.1793 16.149 13.6774 16.1489 13.985 15.8415C14.2925 15.5339 14.2925 15.0358 13.985 14.7283ZM15.8414 12.8718C15.5338 12.5644 15.0356 12.5644 14.7281 12.8718C14.4206 13.1794 14.4207 13.6775 14.7281 13.9851C15.0356 14.2926 15.5338 14.2926 15.8414 13.9851C16.1488 13.6775 16.1489 13.1794 15.8414 12.8718ZM13.0572 11.9441C12.7497 11.6366 12.2516 11.6366 11.944 11.9441C11.6365 12.2517 11.6365 12.7499 11.944 13.0574C12.2516 13.3647 12.7498 13.3649 13.0572 13.0574C13.3648 12.7499 13.3646 12.2517 13.0572 11.9441ZM10.2731 11.0154C9.9655 10.7078 9.46635 10.7078 9.1588 11.0154C8.85135 11.3229 8.85128 11.8222 9.1588 12.1296C9.46631 12.4372 9.96549 12.4371 10.2731 12.1296C10.5806 11.8221 10.5806 11.3229 10.2731 11.0154ZM14.9293 3.21361C16.5469 1.59608 19.1691 1.59617 20.7867 3.21361C22.4043 4.83122 22.4043 7.45342 20.7867 9.07103L18.9186 10.9392L13.0611 5.08178L14.9293 3.21361ZM12.1295 9.15892C11.822 8.85141 11.3228 8.85147 11.0152 9.15892C10.7077 9.46647 10.7077 9.96562 11.0152 10.2732C11.3227 10.5807 11.822 10.5807 12.1295 10.2732C12.437 9.96562 12.4371 9.46643 12.1295 9.15892ZM9.34435 8.23119C9.03678 7.92386 8.53854 7.92371 8.23107 8.23119C7.92359 8.53867 7.92374 9.0369 8.23107 9.34447C8.53862 9.65202 9.0368 9.65202 9.34435 9.34447C9.6519 9.03692 9.6519 8.53874 9.34435 8.23119Z" fill="#48465C"/>
</svg>
