<svg width="24" height="24" viewBox="0 0 24 24" fill="none" xmlns="http://www.w3.org/2000/svg">
<path d="M3.05441 3.05463C5.45992 0.649109 9.35981 0.649109 11.7653 3.05463L20.946 12.2353C23.3514 14.6408 23.3515 18.5407 20.946 20.9462C18.5404 23.3517 14.6406 23.3516 12.2351 20.9462L3.05441 11.7656C0.648887 9.36004 0.648887 5.46014 3.05441 3.05463ZM13.8679 20.373C15.6891 21.6869 18.2463 21.5249 19.8855 19.8857C21.5247 18.2465 21.6867 15.6893 20.3728 13.8681L13.8679 20.373ZM4.64523 11.2353L12.7653 19.3554L19.3552 12.7656L11.2351 4.64545L4.64523 11.2353ZM11.2927 14.121C11.6833 13.7305 12.3171 13.7304 12.7077 14.121C13.0982 14.5115 13.0982 15.1456 12.7077 15.5361C12.3172 15.9265 11.6833 15.9265 11.2927 15.5361C10.9022 15.1456 10.9022 14.5115 11.2927 14.121ZM8.46456 11.2929C8.85506 10.9027 9.48817 10.9026 9.87863 11.2929C10.2691 11.6833 10.269 12.3165 9.87863 12.707C9.48811 13.0975 8.85509 13.0975 8.46456 12.707C8.07418 12.3165 8.07409 11.6834 8.46456 11.2929ZM14.1208 11.2929C14.5113 10.9024 15.1454 10.9024 15.5359 11.2929C15.9261 11.6833 15.9259 12.3165 15.5359 12.707C15.1454 13.0975 14.5113 13.0975 14.1208 12.707C13.7306 12.3165 13.7304 11.6833 14.1208 11.2929ZM11.2927 8.46478C11.6833 8.07427 12.3171 8.07427 12.7077 8.46478C13.098 8.85517 13.0978 9.4883 12.7077 9.87885C12.3171 10.2694 11.6833 10.2694 11.2927 9.87885C10.9026 9.48828 10.9023 8.85518 11.2927 8.46478ZM10.1316 3.62689C8.31039 2.31328 5.75402 2.4761 4.11495 4.11517C2.47588 5.75424 2.31306 8.31061 3.62667 10.1318L10.1316 3.62689Z" fill="#48465C"/>
</svg>
