<svg width="24" height="24" viewBox="0 0 24 24" fill="none" xmlns="http://www.w3.org/2000/svg">
<path fill-rule="evenodd" clip-rule="evenodd" d="M12 3.25001C17.3848 3.25001 21.75 7.61523 21.75 13C21.75 18.3848 17.3848 22.75 12 22.75C6.61523 22.75 2.25002 18.3848 2.25 13C2.25 7.61523 6.61522 3.25001 12 3.25001ZM12 4.75001C7.44365 4.75001 3.75 8.44366 3.75 13C3.75002 17.5563 7.44366 21.25 12 21.25C16.5563 21.25 20.25 17.5563 20.25 13C20.25 8.44366 16.5563 4.75001 12 4.75001ZM15 9.25001C15.3033 9.25001 15.5773 9.43264 15.6934 9.7129C15.8094 9.99312 15.7447 10.3158 15.5303 10.5303L10.8105 15.25H15C15.4142 15.25 15.75 15.5858 15.75 16C15.75 16.4142 15.4142 16.75 15 16.75H9C8.69665 16.75 8.42273 16.5674 8.30664 16.2871C8.19057 16.0069 8.25524 15.6842 8.46973 15.4697L13.1895 10.75H9C8.5858 10.75 8.25002 10.4142 8.25 10C8.25 9.5858 8.58579 9.25001 9 9.25001H15ZM7.10254 1.36427C7.45377 1.14475 7.9162 1.25135 8.13574 1.60255C8.35527 1.95379 8.24867 2.41621 7.89746 2.63575L3.89746 5.13575C3.54624 5.35526 3.08382 5.24863 2.86426 4.89747C2.64475 4.54625 2.75137 4.08382 3.10254 3.86427L7.10254 1.36427ZM15.8643 1.60255C16.0838 1.25134 16.5462 1.14475 16.8975 1.36427L20.8975 3.86427C21.2487 4.08382 21.3552 4.54626 21.1357 4.89747C20.9162 5.24863 20.4538 5.35526 20.1025 5.13575L16.1025 2.63575C15.7513 2.4162 15.6448 1.95378 15.8643 1.60255Z" fill="#48465C"/>
</svg>
