<svg width="24" height="24" viewBox="0 0 24 24" fill="none" xmlns="http://www.w3.org/2000/svg">
<path fill-rule="evenodd" clip-rule="evenodd" d="M12.0002 4.65071C16.8364 4.65077 20.7571 8.53471 20.7571 13.3255C20.7569 18.1162 16.8363 22.0002 12.0002 22.0003C7.16417 22.0003 3.24357 18.1163 3.2434 13.3255C3.2434 8.53467 7.16407 4.65071 12.0002 4.65071ZM12.0002 8.74739C11.5972 8.74739 11.2707 9.0708 11.2707 9.47004V13.3255C11.2708 13.5171 11.3471 13.7008 11.4836 13.8363L13.9163 16.2464C14.2012 16.5286 14.6635 16.5285 14.9485 16.2464C15.2334 15.9641 15.2334 15.5063 14.9485 15.2239L12.7297 13.0257V9.47004C12.7297 9.07084 12.4032 8.74745 12.0002 8.74739ZM7.23462 2.10969C7.57638 1.89809 8.02687 2.0016 8.24047 2.34016C8.45389 2.67868 8.34974 3.12471 8.00805 3.33625L4.11645 5.74543C3.7747 5.95698 3.32417 5.85448 3.11059 5.51594C2.89707 5.17745 3.00143 4.73149 3.34301 4.51985L7.23462 2.10969ZM15.759 2.34016C15.9726 2.0017 16.4231 1.89831 16.7649 2.10969L20.6565 4.51985C20.9983 4.73145 21.1025 5.17739 20.8889 5.51594C20.6753 5.85433 20.2248 5.95699 19.8831 5.74543L15.9915 3.33625C15.6498 3.12476 15.5458 2.67866 15.759 2.34016Z" fill="#48465C"/>
</svg>
