<svg width="24" height="24" viewBox="0 0 24 24" fill="none" xmlns="http://www.w3.org/2000/svg">
<path fill-rule="evenodd" clip-rule="evenodd" d="M12.0001 4.00001C16.9706 4.00008 21.0001 8.02949 21.0001 13C21 17.9705 16.9705 21.9999 12.0001 22C7.02959 22 3.0002 17.9705 3.00013 13C3.00013 8.02945 7.02955 4.00001 12.0001 4.00001ZM9.00013 9.25001C8.58591 9.25001 8.25013 9.5858 8.25013 10C8.2502 10.4141 8.58595 10.75 9.00013 10.75H13.1896L8.46985 15.4697C8.25535 15.6842 8.19068 16.0069 8.30677 16.2871C8.42287 16.5674 8.69682 16.75 9.00013 16.75H15.0001C15.4142 16.7499 15.75 16.4141 15.7501 16C15.7501 15.5859 15.4143 15.2501 15.0001 15.25H10.8107L15.5304 10.5303C15.7449 10.3158 15.8086 9.99315 15.6925 9.7129C15.5764 9.43274 15.3033 9.25006 15.0001 9.25001H9.00013ZM7.10266 1.36427C7.45391 1.14475 7.91633 1.25134 8.13587 1.60255C8.35538 1.95378 8.24877 2.4162 7.89759 2.63576L3.89759 5.13576C3.54637 5.35526 3.08395 5.24861 2.86438 4.89747C2.64487 4.54624 2.75148 4.08382 3.10267 3.86427L7.10266 1.36427ZM15.8644 1.60255C16.0839 1.25135 16.5463 1.14475 16.8976 1.36427L20.8976 3.86427C21.2487 4.08383 21.3553 4.54627 21.1359 4.89747C20.9162 5.24864 20.4538 5.35526 20.1027 5.13576L16.1027 2.63576C15.7514 2.41621 15.6448 1.95378 15.8644 1.60255Z" fill="#48465C"/>
</svg>
