<svg width="24" height="24" viewBox="0 0 24 24" fill="none" xmlns="http://www.w3.org/2000/svg">
<path d="M12 4.00001C16.9706 4.00002 21 8.02946 21 13C20.9999 17.9705 16.9705 22 12 22C7.02949 22 3.00008 17.9705 3 13C3 8.02945 7.02944 4.00001 12 4.00001ZM9 12.25C8.58579 12.25 8.25 12.5858 8.25 13C8.25008 13.4141 8.58584 13.75 9 13.75H15C15.4141 13.75 15.7499 13.4141 15.75 13C15.75 12.5858 15.4142 12.25 15 12.25H9ZM7.10254 1.36427C7.45378 1.14475 7.9162 1.25134 8.13575 1.60255C8.35527 1.95378 8.24865 2.4162 7.89747 2.63575L3.89747 5.13575C3.54625 5.35526 3.08383 5.24861 2.86426 4.89747C2.64475 4.54624 2.75135 4.08382 3.10254 3.86427L7.10254 1.36427ZM15.8643 1.60255C16.0838 1.25136 16.5462 1.14476 16.8975 1.36427L20.8975 3.86427C21.2487 4.08383 21.3552 4.54627 21.1357 4.89747C20.9162 5.24864 20.4538 5.35526 20.1025 5.13575L16.1025 2.63575C15.7513 2.41621 15.6448 1.95379 15.8643 1.60255Z" fill="#48465C"/>
</svg>
