<svg width="24" height="24" viewBox="0 0 24 24" fill="none" xmlns="http://www.w3.org/2000/svg">
<path d="M12.0004 4.65109C16.8363 4.65124 20.7571 8.53431 20.7572 13.3249C20.7572 18.1157 16.8364 21.9996 12.0004 21.9997C7.16421 21.9997 3.24354 18.1158 3.24354 13.3249C3.24371 8.53422 7.16431 4.65109 12.0004 4.65109ZM12.0004 8.74679C11.5975 8.74679 11.2701 9.0704 11.2699 9.46945V13.3249C11.2699 13.5167 11.347 13.701 11.4838 13.8366L13.9164 16.2458C14.2014 16.5281 14.6636 16.5281 14.9486 16.2458C15.2335 15.9635 15.2336 15.5056 14.9486 15.2234L12.7299 13.0261V9.46945C12.7296 9.07049 12.4031 8.74695 12.0004 8.74679ZM7.23475 2.11007C7.57646 1.89851 8.02698 2.00113 8.24061 2.33957C8.4542 2.67812 8.34995 3.12407 8.00819 3.33566L4.11659 5.74582C3.77484 5.95733 3.3243 5.85387 3.11073 5.51535C2.89747 5.17684 3.00153 4.73077 3.34315 4.51925L7.23475 2.11007ZM15.7592 2.33957C15.9728 2.00105 16.4232 1.89848 16.765 2.11007L20.6566 4.51925C20.9983 4.73079 21.1024 5.17683 20.8891 5.51535C20.6755 5.85391 20.225 5.95742 19.8832 5.74582L15.9916 3.33566C15.6499 3.12404 15.5456 2.67808 15.7592 2.33957Z" fill="#48465C"/>
</svg>
