<svg width="24" height="24" viewBox="0 0 24 24" fill="none" xmlns="http://www.w3.org/2000/svg">
<path d="M12 3.25001C17.3848 3.25001 21.75 7.61523 21.75 13C21.75 18.3848 17.3848 22.75 12 22.75C6.61523 22.75 2.25002 18.3848 2.25 13C2.25 7.61523 6.61522 3.25001 12 3.25001ZM12 4.75001C7.44365 4.75001 3.75 8.44366 3.75 13C3.75002 17.5563 7.44366 21.25 12 21.25C16.5563 21.25 20.25 17.5563 20.25 13C20.25 8.44366 16.5563 4.75001 12 4.75001ZM10.4756 8.25392C10.7504 8.23352 11.0059 8.29213 11.2285 8.37208C11.6293 8.51605 12.0876 8.79494 12.5723 9.08985C12.5919 9.10176 12.6121 9.11403 12.6318 9.12599C12.919 9.30057 13.2022 9.48221 13.457 9.66114C13.7472 9.86488 14.0564 10.1049 14.3613 10.3535C14.3767 10.3661 14.3929 10.3791 14.4082 10.3916C14.9058 10.7976 15.3534 11.1624 15.666 11.5264C16.0205 11.9393 16.25 12.4034 16.25 13C16.25 13.5966 16.0205 14.0608 15.666 14.4736C15.3534 14.8376 14.9059 15.2024 14.4082 15.6084L14.3613 15.6465C14.0564 15.8951 13.7471 16.1351 13.457 16.3389C13.2022 16.5177 12.919 16.6995 12.6318 16.874C12.6121 16.886 12.5919 16.8983 12.5723 16.9102C12.0876 17.2052 11.6293 17.484 11.2285 17.6279C11.0059 17.7078 10.7504 17.7665 10.4756 17.7461C10.1866 17.7246 9.92766 17.6195 9.70215 17.4502C9.24309 17.1056 9.05905 16.6065 8.96289 16.1104C8.8713 15.6376 8.83602 15.0288 8.79492 14.3174L8.79199 14.2656C8.76677 13.8294 8.75 13.3949 8.75 13C8.75 12.6051 8.76677 12.1706 8.79199 11.7344L8.79492 11.6826C8.83603 10.9711 8.87129 10.3624 8.96289 9.88966C9.05905 9.39345 9.24309 8.89443 9.70215 8.54981C9.92766 8.38052 10.1866 8.2754 10.4756 8.25392ZM10.6006 9.75099C10.576 9.76979 10.5011 9.83655 10.4355 10.1748C10.3654 10.5366 10.3341 11.0436 10.2891 11.8213C10.2649 12.24 10.25 12.6436 10.25 13C10.25 13.3564 10.2649 13.7601 10.2891 14.1787C10.3341 14.9564 10.3654 15.4634 10.4355 15.8252C10.5011 16.1634 10.576 16.2302 10.6006 16.249C10.6194 16.2466 10.6576 16.2388 10.7217 16.2158C10.9611 16.1298 11.2867 15.9368 11.8525 15.5928C12.1216 15.4292 12.3752 15.2655 12.5947 15.1113C12.8453 14.9354 13.1247 14.7196 13.4131 14.4844C13.9718 14.0287 14.3131 13.7467 14.5283 13.4961C14.7109 13.2832 14.75 13.1531 14.75 13C14.75 12.8469 14.7109 12.7168 14.5283 12.5039C14.3131 12.2533 13.9718 11.9713 13.4131 11.5156C13.1247 11.2804 12.8453 11.0646 12.5947 10.8887C12.3752 10.7345 12.1216 10.5709 11.8525 10.4072C11.2867 10.0632 10.9611 9.87018 10.7217 9.78419C10.6576 9.76119 10.6194 9.75342 10.6006 9.75099ZM7.10254 1.36427C7.45377 1.14475 7.9162 1.25135 8.13574 1.60255C8.35527 1.95379 8.24867 2.41621 7.89746 2.63575L3.89746 5.13575C3.54624 5.35526 3.08382 5.24863 2.86426 4.89747C2.64475 4.54625 2.75137 4.08382 3.10254 3.86427L7.10254 1.36427ZM15.8643 1.60255C16.0838 1.25134 16.5462 1.14475 16.8975 1.36427L20.8975 3.86427C21.2487 4.08382 21.3552 4.54626 21.1357 4.89747C20.9162 5.24863 20.4538 5.35526 20.1025 5.13575L16.1025 2.63575C15.7513 2.4162 15.6448 1.95378 15.8643 1.60255Z" fill="#48465C"/>
</svg>
