<svg width="24" height="24" viewBox="0 0 24 24" fill="none" xmlns="http://www.w3.org/2000/svg">
<path fill-rule="evenodd" clip-rule="evenodd" d="M12 4.00002C16.9705 4.00007 21 8.02949 21 13C20.9999 17.9705 16.9704 22 12 22C7.02949 22 3.0001 17.9706 3.00002 13C3.00002 8.02946 7.02944 4.00002 12 4.00002ZM12 9.25002C11.5858 9.25002 11.25 9.58581 11.25 10V12.25H9.00002C8.5858 12.25 8.25002 12.5858 8.25002 13C8.2501 13.4142 8.58586 13.75 9.00002 13.75H11.25V16C11.2501 16.4142 11.5859 16.75 12 16.75C12.4141 16.75 12.7499 16.4141 12.75 16V13.75H15C15.4141 13.75 15.7499 13.4141 15.75 13C15.75 12.5859 15.4142 12.2501 15 12.25H12.75V10C12.75 9.58584 12.4142 9.25007 12 9.25002ZM7.10256 1.36428C7.45382 1.14475 7.91623 1.25132 8.13576 1.60256C8.35526 1.95377 8.24862 2.4162 7.89748 2.63577L3.89748 5.13577C3.54628 5.35526 3.08385 5.2486 2.86428 4.89748C2.64475 4.54623 2.75132 4.08381 3.10256 3.86428L7.10256 1.36428ZM15.8643 1.60256C16.0838 1.2514 16.5462 1.14477 16.8975 1.36428L20.8975 3.86428C21.2485 4.08386 21.3552 4.54629 21.1358 4.89748C20.9161 5.24868 20.4537 5.35528 20.1026 5.13577L16.1026 2.63577C15.7513 2.41624 15.6447 1.95381 15.8643 1.60256Z" fill="#48465C"/>
</svg>
