<svg width="24" height="24" viewBox="0 0 24 24" fill="none" xmlns="http://www.w3.org/2000/svg">
<path fill-rule="evenodd" clip-rule="evenodd" d="M12 3.25001C17.3848 3.25001 21.75 7.61523 21.75 13C21.75 18.3848 17.3848 22.75 12 22.75C6.61523 22.75 2.25002 18.3848 2.25 13C2.25 7.61523 6.61522 3.25001 12 3.25001ZM12 4.75001C7.44365 4.75001 3.75 8.44366 3.75 13C3.75002 17.5563 7.44366 21.25 12 21.25C16.5563 21.25 20.25 17.5563 20.25 13C20.25 8.44366 16.5563 4.75001 12 4.75001ZM9.52148 8.25001C9.73576 8.25 9.93331 8.24947 10.0986 8.26075C10.2762 8.27289 10.4716 8.30066 10.6699 8.38282C11.0987 8.56045 11.4396 8.90133 11.6172 9.33009C11.6993 9.52845 11.7262 9.72385 11.7383 9.90138C11.7496 10.0667 11.75 10.2643 11.75 10.4785V15.5215C11.75 15.7357 11.7496 15.9333 11.7383 16.0986C11.7262 16.2762 11.6993 16.4716 11.6172 16.6699C11.4396 17.0987 11.0987 17.4396 10.6699 17.6172C10.4716 17.6993 10.2762 17.7262 10.0986 17.7383C9.93331 17.7496 9.73576 17.75 9.52148 17.75H9.47852C9.26424 17.75 9.0667 17.7496 8.90137 17.7383C8.72385 17.7262 8.52842 17.6993 8.33008 17.6172C7.90133 17.4396 7.56044 17.0987 7.38281 16.6699C7.30067 16.4716 7.27387 16.2762 7.26172 16.0986C7.25044 15.9333 7.24999 15.7357 7.25 15.5215V10.4785C7.24999 10.2643 7.25044 10.0667 7.26172 9.90138C7.27386 9.72385 7.30066 9.52844 7.38281 9.33009C7.56043 8.90133 7.90131 8.56045 8.33008 8.38282C8.52844 8.30066 8.72383 8.27289 8.90137 8.26075C9.0667 8.24947 9.26424 8.25 9.47852 8.25001H9.52148ZM14.5586 8.23927C14.7729 8.23926 14.9703 8.23873 15.1357 8.25001C15.3132 8.26214 15.5087 8.28991 15.707 8.37208C16.1358 8.5497 16.4767 8.89057 16.6543 9.31935C16.7365 9.5177 16.7633 9.7131 16.7754 9.89063C16.7867 10.0559 16.7871 10.2536 16.7871 10.4678V15.5108C16.7871 15.7248 16.7867 15.9217 16.7754 16.0869C16.7633 16.2646 16.7366 16.4607 16.6543 16.6592C16.4767 17.0878 16.1356 17.4279 15.707 17.6055C15.5087 17.6876 15.3132 17.7154 15.1357 17.7275C14.9703 17.7388 14.7729 17.7393 14.5586 17.7393H14.5156C14.3013 17.7393 14.1039 17.7388 13.9385 17.7275C13.761 17.7154 13.5656 17.6876 13.3672 17.6055C12.9386 17.4279 12.5975 17.0878 12.4199 16.6592C12.3376 16.4607 12.31 16.2646 12.2979 16.0869C12.2866 15.9217 12.287 15.7248 12.2871 15.5108V10.4678C12.287 10.2536 12.2866 10.0559 12.2979 9.89063C12.31 9.71307 12.3377 9.51773 12.4199 9.31935C12.5975 8.89058 12.9384 8.5497 13.3672 8.37208C13.5656 8.2899 13.761 8.26214 13.9385 8.25001C14.1039 8.23873 14.3013 8.23926 14.5156 8.23927H14.5586ZM9.00391 9.75782C8.93708 9.76237 8.90873 9.76866 8.90137 9.77052C8.84256 9.7958 8.79578 9.84256 8.77051 9.90138C8.76863 9.90879 8.76236 9.93722 8.75781 10.0039C8.75045 10.1119 8.75 10.2568 8.75 10.5V15.5C8.75 15.7432 8.75044 15.8881 8.75781 15.9961C8.76237 16.0629 8.76865 16.0912 8.77051 16.0986C8.79579 16.1574 8.84256 16.2042 8.90137 16.2295C8.90874 16.2314 8.93712 16.2377 9.00391 16.2422C9.11191 16.2496 9.25678 16.25 9.5 16.25C9.74322 16.25 9.88809 16.2496 9.99609 16.2422C10.0628 16.2377 10.0912 16.2314 10.0986 16.2295C10.1574 16.2042 10.2042 16.1574 10.2295 16.0986C10.2314 16.0912 10.2377 16.0629 10.2422 15.9961C10.2496 15.8881 10.25 15.7432 10.25 15.5V10.5C10.25 10.2568 10.2496 10.1119 10.2422 10.0039C10.2377 9.9372 10.2314 9.90879 10.2295 9.90138C10.2042 9.84256 10.1574 9.7958 10.0986 9.77052C10.0912 9.76866 10.0629 9.76238 9.99609 9.75782C9.88809 9.75045 9.74323 9.75001 9.5 9.75001C9.25677 9.75001 9.11191 9.75045 9.00391 9.75782ZM14.041 9.74708C13.9741 9.75164 13.9458 9.75791 13.9385 9.75978C13.8796 9.78505 13.8328 9.83183 13.8076 9.89063C13.8057 9.89821 13.7995 9.92676 13.7949 9.99317C13.7876 10.1012 13.7871 10.2462 13.7871 10.4893V15.4893C13.7871 15.7324 13.7876 15.8774 13.7949 15.9854C13.7995 16.0521 13.8057 16.0805 13.8076 16.0879C13.8328 16.1466 13.8796 16.1935 13.9385 16.2188C13.9458 16.2207 13.9742 16.227 14.041 16.2315C14.149 16.2389 14.2938 16.2393 14.5371 16.2393C14.7803 16.2393 14.9252 16.2389 15.0332 16.2315C15.0998 16.227 15.1282 16.2207 15.1357 16.2188C15.1945 16.1935 15.2413 16.1466 15.2666 16.0879C15.2684 16.0805 15.2747 16.0521 15.2793 15.9854C15.2867 15.8774 15.2871 15.7324 15.2871 15.4893V10.4893C15.2871 10.2462 15.2867 10.1012 15.2793 9.99317C15.2747 9.92675 15.2684 9.89819 15.2666 9.89063C15.2413 9.83185 15.1946 9.78506 15.1357 9.75978C15.1284 9.75791 15.1 9.75164 15.0332 9.74708C14.9252 9.73971 14.7803 9.73927 14.5371 9.73927C14.2938 9.73927 14.149 9.73971 14.041 9.74708ZM7.10254 1.36427C7.45377 1.14475 7.9162 1.25135 8.13574 1.60255C8.35527 1.95379 8.24867 2.41621 7.89746 2.63575L3.89746 5.13575C3.54624 5.35526 3.08382 5.24863 2.86426 4.89747C2.64475 4.54625 2.75137 4.08382 3.10254 3.86427L7.10254 1.36427ZM15.8643 1.60255C16.0838 1.25134 16.5462 1.14475 16.8975 1.36427L20.8975 3.86427C21.2487 4.08382 21.3552 4.54626 21.1357 4.89747C20.9162 5.24863 20.4538 5.35526 20.1025 5.13575L16.1025 2.63575C15.7513 2.4162 15.6448 1.95378 15.8643 1.60255Z" fill="#48465C"/>
</svg>
