<svg width="24" height="24" viewBox="0 0 24 24" fill="none" xmlns="http://www.w3.org/2000/svg">
<path fill-rule="evenodd" clip-rule="evenodd" d="M12 4.00002C16.9705 4.00007 21 8.02949 21 13C20.9999 17.9705 16.9704 22 12 22C7.02949 22 3.0001 17.9706 3.00002 13C3.00002 8.02946 7.02944 4.00002 12 4.00002ZM9.50002 9.00002C9.03408 9.00002 8.80098 9.00008 8.61721 9.0762C8.37224 9.17769 8.17768 9.37223 8.07619 9.61721C8.00007 9.80098 8.00002 10.0341 8.00002 10.5V15.5C8.00002 15.9658 8.00008 16.1991 8.07619 16.3828C8.17772 16.6277 8.37227 16.8224 8.61721 16.9239C8.80098 17 9.03408 17 9.50002 17C9.96589 17 10.199 16.9999 10.3828 16.9239C10.6277 16.8224 10.8223 16.6277 10.9239 16.3828C10.9999 16.1991 11 15.9658 11 15.5V10.5C11 10.0341 10.9999 9.80098 10.9239 9.61721C10.8224 9.37226 10.6277 9.17771 10.3828 9.0762C10.199 9.00008 9.96589 9.00002 9.50002 9.00002ZM14.5 9.00002C14.034 9.00002 13.801 9.00008 13.6172 9.0762C13.3723 9.17769 13.1777 9.37223 13.0762 9.61721C13.0001 9.80098 13 10.0341 13 10.5V15.5C13 15.9658 13.0001 16.1991 13.0762 16.3828C13.1777 16.6277 13.3723 16.8224 13.6172 16.9239C13.801 17 14.034 17 14.5 17C14.9659 17 15.199 16.9999 15.3828 16.9239C15.6277 16.8224 15.8223 16.6277 15.9239 16.3828C15.9999 16.1991 16 15.9658 16 15.5V10.5C16 10.0341 15.9999 9.80098 15.9239 9.61721C15.8224 9.37226 15.6277 9.17771 15.3828 9.0762C15.199 9.00008 14.9659 9.00002 14.5 9.00002ZM7.10256 1.36428C7.45382 1.14475 7.91623 1.25132 8.13576 1.60256C8.35526 1.95377 8.24862 2.4162 7.89748 2.63577L3.89748 5.13577C3.54628 5.35526 3.08385 5.2486 2.86428 4.89748C2.64475 4.54623 2.75132 4.08381 3.10256 3.86428L7.10256 1.36428ZM15.8643 1.60256C16.0838 1.2514 16.5462 1.14477 16.8975 1.36428L20.8975 3.86428C21.2485 4.08386 21.3552 4.54629 21.1358 4.89748C20.9161 5.24868 20.4537 5.35528 20.1026 5.13577L16.1026 2.63577C15.7513 2.41624 15.6447 1.95381 15.8643 1.60256Z" fill="#48465C"/>
</svg>
