<svg width="24" height="24" viewBox="0 0 24 24" fill="none" xmlns="http://www.w3.org/2000/svg">
<path d="M12 4.00002C16.9705 4.00007 21 8.02949 21 13C20.9999 17.9705 16.9704 22 12 22C7.02946 22 3.00007 17.9706 2.99999 13C2.99999 8.02946 7.02941 4.00002 12 4.00002ZM12.2422 9.76662C11.1698 9.11451 10.6332 8.78847 10.1523 9.14944C9.67145 9.51042 9.62743 10.2662 9.54003 11.7774C9.51531 12.2049 9.49999 12.6243 9.49999 13C9.5 13.3756 9.51533 13.7944 9.54003 14.2217C9.62744 15.7331 9.67141 16.4896 10.1523 16.8506C10.6332 17.2114 11.1699 16.8854 12.2422 16.2334C12.5203 16.0642 12.7891 15.8912 13.0264 15.7246C13.2966 15.5348 13.5912 15.3074 13.8877 15.0655C14.9625 14.1886 15.4999 13.7498 15.5 13C15.5 12.2501 14.9625 11.8115 13.8877 10.9346C13.591 10.6925 13.2967 10.4643 13.0264 10.2744C12.7891 10.1079 12.5203 9.93576 12.2422 9.76662ZM7.10253 1.36428C7.45379 1.14475 7.9162 1.25132 8.13573 1.60256C8.35523 1.95377 8.24859 2.4162 7.89745 2.63577L3.89745 5.13577C3.54625 5.35526 3.08382 5.2486 2.86425 4.89748C2.64472 4.54623 2.75129 4.08382 3.10253 3.86428L7.10253 1.36428ZM15.8642 1.60256C16.0838 1.2514 16.5462 1.14477 16.8975 1.36428L20.8975 3.86428C21.2485 4.08386 21.3552 4.5463 21.1357 4.89748C20.9161 5.24868 20.4537 5.35528 20.1025 5.13577L16.1025 2.63577C15.7512 2.41624 15.6446 1.95381 15.8642 1.60256Z" fill="#48465C"/>
</svg>
