<svg width="24" height="24" viewBox="0 0 24 24" fill="none" xmlns="http://www.w3.org/2000/svg">
<path d="M12 4.00001C16.9704 4.00008 21 8.02949 21 13C20.9999 17.9705 16.9704 21.9999 12 22C7.02947 22 3.00008 17.9705 3 13C3 8.02945 7.02942 4.00001 12 4.00001ZM9 9.25001C8.58578 9.25001 8.25 9.5858 8.25 10C8.25008 10.4141 8.58583 10.75 9 10.75H13.1895L8.46973 15.4697C8.25523 15.6842 8.19055 16.0069 8.30664 16.2871C8.42275 16.5674 8.69669 16.75 9 16.75H15C15.4141 16.7499 15.7499 16.4141 15.75 16C15.75 15.5859 15.4141 15.2501 15 15.25H10.8106L15.5303 10.5303C15.7448 10.3158 15.8085 9.99315 15.6924 9.7129C15.5763 9.43274 15.3032 9.25006 15 9.25001H9ZM7.10254 1.36427C7.45379 1.14475 7.9162 1.25134 8.13575 1.60255C8.35526 1.95378 8.24865 2.4162 7.89746 2.63576L3.89746 5.13576C3.54625 5.35526 3.08383 5.24861 2.86426 4.89747C2.64475 4.54624 2.75136 4.08382 3.10254 3.86427L7.10254 1.36427ZM15.8643 1.60255C16.0838 1.25135 16.5462 1.14475 16.8975 1.36427L20.8975 3.86427C21.2486 4.08383 21.3552 4.54627 21.1357 4.89747C20.9161 5.24864 20.4537 5.35526 20.1025 5.13576L16.1025 2.63576C15.7513 2.41621 15.6447 1.95378 15.8643 1.60255Z" fill="#48465C"/>
</svg>
