<svg width="24" height="24" viewBox="0 0 24 24" fill="none" xmlns="http://www.w3.org/2000/svg">
<path d="M13.2511 3.25C14.3388 3.24998 15.2276 3.25004 15.9289 3.33984C16.659 3.43336 17.2995 3.63537 17.8146 4.12598C18.335 4.62155 18.5538 5.24653 18.6544 5.95898C18.7497 6.63391 18.7501 7.48636 18.7501 8.5166V9.57324C19.1508 9.36361 19.6075 9.25 20.0734 9.25C21.7812 9.25028 23.2438 10.8074 22.6027 12.5264L21.4826 15.5273C21.4748 15.5481 21.4676 15.5687 21.4601 15.5889C21.2873 16.0522 21.1681 16.3696 21.007 16.6475C20.5095 17.5058 19.6992 18.1448 18.7501 18.4814V20C18.7501 20.4141 18.4142 20.7498 18.0001 20.75C17.5859 20.75 17.2501 20.4142 17.2501 20V18.7461C17.0625 18.7505 16.8488 18.75 16.5939 18.75H6.88002C6.82437 18.75 6.78825 18.7495 6.75502 18.749H6.75014V20C6.75014 20.4141 6.41421 20.7498 6.00014 20.75C5.58593 20.75 5.25014 20.4142 5.25014 20V18.667C5.25014 18.6055 5.2577 18.5454 5.27163 18.4883C4.13042 18.0898 3.18447 17.2572 2.7433 16.1338C2.73162 16.104 2.72056 16.0717 2.70327 16.0254L1.3976 12.5264C0.756262 10.8072 2.21879 9.25 3.9269 9.25C4.39276 9.25003 4.84948 9.36361 5.25014 9.57324V8.5166C5.25011 7.48639 5.24964 6.6339 5.34487 5.95898C5.44545 5.2465 5.66533 4.62156 6.18569 4.12598C6.70085 3.63549 7.3413 3.43333 8.07143 3.33984C8.77262 3.25009 9.66077 3.24998 10.7482 3.25H13.2511ZM20.0734 10.75C19.5276 10.75 19.105 11.0543 18.9581 11.416L18.7501 11.9287V12H18.7208L17.9572 13.8818C17.9449 13.9122 17.9324 13.943 17.9201 13.9736C17.766 14.3567 17.6057 14.7542 17.2892 15.04C17.1223 15.1907 16.9303 15.3104 16.7238 15.3955C16.344 15.552 15.9133 15.5507 15.4523 15.5498H8.31362C8.07473 15.5501 7.85446 15.5508 7.6476 15.5088C7.17262 15.4123 6.73648 15.1485 6.44838 14.748C6.32164 14.5719 6.23858 14.3672 6.15932 14.1709C6.15273 14.1546 6.14635 14.1383 6.13979 14.1221L5.27846 12H5.25014V11.9287L5.04213 11.416C4.89534 11.0544 4.47257 10.7501 3.9269 10.75C3.00673 10.75 2.61327 11.4933 2.80288 12.002L4.10561 15.4951C4.12598 15.5498 4.13344 15.5688 4.13979 15.585C4.51092 16.53 5.53905 17.2326 6.77553 17.25H16.5333C17.1733 17.25 17.4188 17.2485 17.631 17.2188C18.5511 17.0893 19.3129 16.5807 19.7101 15.8955C19.7995 15.7411 19.8727 15.5511 20.0773 15.0029L21.1964 12.002C21.3861 11.4933 20.9933 10.7502 20.0734 10.75ZM10.7999 4.75C9.64854 4.75 8.85665 4.75102 8.26186 4.82715C7.68502 4.90101 7.4076 5.03409 7.21987 5.21289C7.03743 5.38674 6.90535 5.63598 6.83022 6.16797C6.75147 6.7258 6.75014 7.47164 6.75014 8.57129V11.6357L7.52944 13.5576C7.58172 13.6864 7.61246 13.761 7.63784 13.8164C7.6555 13.8548 7.66428 13.8692 7.66616 13.8721C7.71627 13.9418 7.81148 14.0107 7.94643 14.0381C7.98528 14.046 8.04122 14.0498 8.36733 14.0498H15.3468C15.9836 14.0498 16.0853 14.0365 16.1525 14.0088C16.2057 13.9869 16.2499 13.9579 16.2843 13.9268C16.2865 13.9249 16.3083 13.9055 16.3527 13.8184C16.4062 13.7135 16.4659 13.569 16.5675 13.3184L17.2501 11.6357V8.57129C17.2501 7.47164 17.2478 6.7258 17.1691 6.16797C17.0939 5.63584 16.962 5.38675 16.7794 5.21289C16.5918 5.03414 16.315 4.90102 15.7384 4.82715C15.1436 4.75099 14.351 4.75 13.1994 4.75H10.7999Z" fill="#48465C"/>
</svg>
