<svg width="24" height="24" viewBox="0 0 24 24" fill="none" xmlns="http://www.w3.org/2000/svg">
<path d="M20.0732 10C21.3874 10.0001 22.315 11.1508 21.8994 12.2646L20.7802 15.2646C20.5851 15.7876 20.4872 16.0492 20.3584 16.2715C20.0004 16.889 19.4327 17.3779 18.75 17.6758V20C18.75 20.4143 18.4142 20.75 18 20.75C17.5858 20.75 17.25 20.4143 17.25 20V17.9951C17.0633 17.9997 16.8351 18 16.5332 18H6.76558C6.76048 17.9999 6.75506 17.9991 6.74996 17.999V20C6.74996 20.4143 6.41417 20.75 5.99996 20.75C5.58577 20.75 5.24996 20.4143 5.24996 20V17.6758C4.4212 17.314 3.76112 16.6711 3.44234 15.8594C3.43305 15.8357 3.42286 15.8093 3.40328 15.7568L2.10055 12.2646C1.68497 11.1508 2.6126 10.0001 3.92672 10C4.73703 10 5.46106 10.4532 5.73726 11.1338L6.83492 13.8398C6.93486 14.0861 6.98516 14.2098 7.05758 14.3105C7.22665 14.5454 7.49214 14.7115 7.79683 14.7734C7.92738 14.7999 8.07423 14.7998 8.36715 14.7998H15.3466C15.9157 14.7998 16.2005 14.8002 16.4384 14.7021C16.5684 14.6486 16.6865 14.5743 16.7871 14.4834C16.9713 14.3169 17.0687 14.0775 17.2627 13.5996L18.2627 11.1338C18.5389 10.4532 19.2629 10 20.0732 10ZM13.2353 3.5C14.3364 3.49999 15.212 3.50014 15.8974 3.58789C16.6019 3.67815 17.1811 3.86907 17.6416 4.30762C18.1055 4.74952 18.3109 5.31084 18.4072 5.99316C18.5 6.65055 18.5 7.48856 18.5 8.5332V9.41309L18.29 9.5625C17.8745 9.85765 17.5387 10.2607 17.3369 10.7578L16.3359 13.2236C16.2929 13.3296 16.2579 13.4164 16.2265 13.4912L16.0996 13.792L15.7119 13.7988H15.7099C15.608 13.8002 15.4909 13.7998 15.3466 13.7998H7.8984L6.66402 10.7578C6.4623 10.2608 6.12637 9.85768 5.7109 9.5625L5.49996 9.41309V8.5332C5.49995 7.48857 5.49993 6.65054 5.59273 5.99316C5.68909 5.31084 5.89436 4.74952 6.35836 4.30762C6.81899 3.86894 7.39878 3.67813 8.10348 3.58789C8.78873 3.50019 9.66374 3.49999 10.7646 3.5H13.2353Z" fill="#48465C"/>
</svg>
