<svg width="24" height="24" viewBox="0 0 24 24" fill="none" xmlns="http://www.w3.org/2000/svg">
<path fill-rule="evenodd" clip-rule="evenodd" d="M11.4697 3.96973C11.7626 3.67684 12.2373 3.67684 12.5302 3.96973L17.5302 8.96973C17.823 9.26262 17.8231 9.73744 17.5302 10.0303C17.2373 10.3232 16.7626 10.3231 16.4697 10.0303L12.7499 6.31055V14.5C12.75 15.2132 12.97 16.2998 13.6083 17.1865C14.2192 18.035 15.2443 18.75 16.9999 18.75C17.4141 18.75 17.7499 19.0858 17.7499 19.5C17.7499 19.9142 17.4141 20.25 16.9999 20.25C14.7558 20.25 13.2807 19.2981 12.3915 18.0635C11.5301 16.867 11.25 15.4534 11.2499 14.5V6.31055L7.53021 10.0303C7.23735 10.3231 6.76256 10.3231 6.46967 10.0303C6.17678 9.73742 6.17678 9.26262 6.46967 8.96973L11.4697 3.96973Z" fill="#48465C"/>
</svg>
