<svg width="24" height="24" viewBox="0 0 24 24" fill="none" xmlns="http://www.w3.org/2000/svg">
<path d="M12.0002 3.25C12.1991 3.25003 12.3898 3.3291 12.5305 3.46973L18.5305 9.46973C18.745 9.68423 18.8087 10.0069 18.6926 10.2871C18.5764 10.5672 18.3035 10.75 18.0002 10.75H12.7502V20C12.7502 20.4142 12.4144 20.7499 12.0002 20.75C11.586 20.75 11.2502 20.4142 11.2502 20V10.75H6.00021C5.69687 10.75 5.42294 10.5674 5.30685 10.2871C5.19079 10.0069 5.25544 9.68422 5.46993 9.46973L11.4699 3.46973C11.6105 3.3291 11.8013 3.25 12.0002 3.25Z" fill="#48465C"/>
</svg>
