<svg width="24" height="24" viewBox="0 0 24 24" fill="none" xmlns="http://www.w3.org/2000/svg">
<path fill-rule="evenodd" clip-rule="evenodd" d="M11.9996 3.25C12.4138 3.25 12.7496 3.58579 12.7496 4V13.25H17.9996C18.303 13.25 18.5768 13.4326 18.6929 13.7129C18.809 13.9931 18.7443 14.3158 18.5298 14.5303L12.5298 20.5303C12.3892 20.6708 12.1984 20.75 11.9996 20.75C11.8008 20.7499 11.6098 20.6709 11.4693 20.5303L5.4693 14.5303C5.25492 14.3158 5.19114 13.993 5.30719 13.7129C5.42328 13.4328 5.69643 13.2501 5.99957 13.25H11.2496V4C11.2496 3.5859 11.5855 3.25017 11.9996 3.25Z" fill="#48465C"/>
</svg>
