<svg width="24" height="24" viewBox="0 0 24 24" fill="none" xmlns="http://www.w3.org/2000/svg">
<path d="M11.4697 3.96973C11.7626 3.67684 12.2374 3.67684 12.5303 3.96973L17.5303 8.96973C17.8231 9.26262 17.8232 9.73744 17.5303 10.0303C17.2374 10.3232 16.7626 10.3231 16.4697 10.0303L12.75 6.31055V14.5C12.75 15.2132 12.9701 16.2998 13.6084 17.1865C14.2193 18.035 15.2444 18.75 17 18.75C17.4142 18.75 17.75 19.0858 17.75 19.5C17.75 19.9142 17.4142 20.25 17 20.25C14.7558 20.25 13.2807 19.2981 12.3916 18.0635C11.5301 16.867 11.25 15.4534 11.25 14.5V6.31055L7.53028 10.0303C7.23741 10.3231 6.76262 10.3231 6.46973 10.0303C6.17684 9.73742 6.17684 9.26262 6.46973 8.96973L11.4697 3.96973Z" fill="#48465C"/>
</svg>
