<svg width="24" height="24" viewBox="0 0 24 24" fill="none" xmlns="http://www.w3.org/2000/svg">
<path d="M12.0002 3.25C12.4144 3.25006 12.7502 3.58583 12.7502 4V13.25H18.0002C18.3035 13.25 18.5764 13.4328 18.6926 13.7129C18.8087 13.9931 18.745 14.3158 18.5305 14.5303L12.5305 20.5303C12.3898 20.6709 12.1991 20.75 12.0002 20.75C11.8013 20.75 11.6105 20.6709 11.4699 20.5303L5.46993 14.5303C5.25544 14.3158 5.19079 13.9931 5.30685 13.7129C5.42294 13.4326 5.69687 13.25 6.00021 13.25H11.2502V4C11.2502 3.58579 11.586 3.25 12.0002 3.25Z" fill="#48465C"/>
</svg>
