<svg width="24" height="24" viewBox="0 0 24 24" fill="none" xmlns="http://www.w3.org/2000/svg">
<path d="M9.46973 5.46993C9.68422 5.25544 10.0069 5.19079 10.2871 5.30685C10.5674 5.42294 10.75 5.69687 10.75 6.00021V11.2502H20C20.4142 11.2502 20.75 11.586 20.75 12.0002C20.7499 12.4144 20.4142 12.7502 20 12.7502H10.75V18.0002C10.75 18.3035 10.5672 18.5764 10.2871 18.6926C10.0069 18.8087 9.68423 18.745 9.46973 18.5305L3.46973 12.5305C3.3291 12.3898 3.25003 12.1991 3.25 12.0002C3.25 11.8013 3.3291 11.6105 3.46973 11.4699L9.46973 5.46993Z" fill="#48465C"/>
</svg>
