<svg width="24" height="24" viewBox="0 0 24 24" fill="none" xmlns="http://www.w3.org/2000/svg">
<path fill-rule="evenodd" clip-rule="evenodd" d="M8.96967 6.46973C9.26256 6.17684 9.73735 6.17684 10.0302 6.46973C10.323 6.76262 10.3231 7.23741 10.0302 7.53028L6.31049 11.25H14.4999C15.4533 11.25 16.8669 11.5301 18.0634 12.3916C19.298 13.2807 20.2499 14.7558 20.2499 17C20.2499 17.4142 19.9141 17.75 19.4999 17.75C19.0858 17.75 18.75 17.4142 18.7499 17C18.7499 15.2444 18.035 14.2193 17.1865 13.6084C16.2997 12.9701 15.2132 12.75 14.4999 12.75H6.31049L10.0302 16.4697C10.3231 16.7626 10.3231 17.2374 10.0302 17.5303C9.73738 17.8231 9.26256 17.8231 8.96967 17.5303L3.96967 12.5303C3.67678 12.2374 3.67678 11.7626 3.96967 11.4697L8.96967 6.46973Z" fill="#48465C"/>
</svg>
