<svg width="24" height="24" viewBox="0 0 24 24" fill="none" xmlns="http://www.w3.org/2000/svg">
<path d="M13.7129 5.30685C13.9931 5.19079 14.3158 5.25544 14.5303 5.46993L20.5303 11.4699C20.6709 11.6105 20.75 11.8013 20.75 12.0002C20.75 12.1991 20.6709 12.3898 20.5303 12.5305L14.5303 18.5305C14.3158 18.745 13.9931 18.8087 13.7129 18.6926C13.4328 18.5764 13.25 18.3035 13.25 18.0002V12.7502H4C3.58583 12.7502 3.25006 12.4144 3.25 12.0002C3.25 11.586 3.58579 11.2502 4 11.2502H13.25V6.00021C13.25 5.69687 13.4326 5.42294 13.7129 5.30685Z" fill="#48465C"/>
</svg>
