<svg width="24" height="24" viewBox="0 0 24 24" fill="none" xmlns="http://www.w3.org/2000/svg">
<path fill-rule="evenodd" clip-rule="evenodd" d="M4.04684 13.4609C4.86925 14.6643 5.8599 15.8618 6.99899 17.0009C8.13808 18.1401 9.33567 19.1297 10.539 19.9521C9.16173 20.6531 7.85702 21.0745 6.72555 21.205C5.29856 21.3696 4.24441 21.0667 3.58883 20.4111C2.93325 19.7555 2.63029 18.7014 2.79489 17.2744C2.92541 16.143 3.34589 14.8383 4.04684 13.4609ZM19.9531 13.4609C20.6541 14.8383 21.0755 16.1429 21.206 17.2744C21.3706 18.7013 21.0676 19.7555 20.4121 20.4111C19.7565 21.0667 18.7023 21.3706 17.2754 21.206C16.1438 21.0755 14.8393 20.6541 13.4619 19.9531C14.6654 19.1306 15.8627 18.1401 17.0019 17.0009C18.141 15.8618 19.1307 14.6643 19.9531 13.4609ZM12 4.87985C13.3251 5.71677 14.668 6.7852 15.9414 8.05856C17.2147 9.3319 18.2831 10.6749 19.1201 12C18.2832 13.3249 17.2146 14.6672 15.9414 15.9404C14.6679 17.2139 13.325 18.2822 12 19.1191C10.6749 18.2822 9.33284 17.2136 8.05954 15.9404C6.78628 14.6671 5.71771 13.3249 4.88082 12C5.71775 10.6748 6.78614 9.33197 8.05954 8.05856C9.3328 6.7853 10.675 5.71675 12 4.87985ZM12 9.49997C10.6193 9.5 9.50001 10.6193 9.49997 12C9.49997 13.3806 10.6193 14.4999 12 14.5C13.3807 14.5 14.5 13.3807 14.5 12C14.4999 10.6193 13.3806 9.49997 12 9.49997ZM3.58883 3.58786C4.24444 2.9323 5.29856 2.62831 6.72555 2.79294C7.85704 2.92349 9.16164 3.34488 10.539 4.04587C9.33564 4.86826 8.13805 5.85895 6.99899 6.99802C5.85983 8.13719 4.86927 9.33463 4.04684 10.5381C3.34582 9.1607 2.92446 7.85611 2.79391 6.72458C2.62929 5.29756 2.93323 4.24346 3.58883 3.58786ZM17.2754 2.79294C18.7024 2.62831 19.7565 2.93226 20.4121 3.58786C21.0676 4.24348 21.3716 5.29754 21.207 6.72458C21.0764 7.85615 20.6542 9.16058 19.9531 10.5381C19.1307 9.33462 18.1411 8.13712 17.0019 6.99802C15.8628 5.85888 14.6653 4.86829 13.4619 4.04587C14.8393 3.34482 16.1438 2.9235 17.2754 2.79294Z" fill="#48465C"/>
</svg>
