<svg width="24" height="24" viewBox="0 0 24 24" fill="none" xmlns="http://www.w3.org/2000/svg">
<path fill-rule="evenodd" clip-rule="evenodd" d="M17.103 1.30304C18.7932 1.10802 20.3782 1.43186 21.4731 2.52668C22.5679 3.62151 22.8917 5.20643 22.6967 6.89679C22.5144 8.47651 21.874 10.2351 20.8686 12.0003C21.8738 13.7653 22.5135 15.5232 22.6957 17.1028C22.8907 18.7931 22.5669 20.3771 21.4721 21.472C20.3773 22.5668 18.7933 22.8906 17.103 22.6956C15.5234 22.5134 13.7654 21.8736 12.0004 20.8685C10.2353 21.8737 8.47654 22.5134 6.89691 22.6956C5.20668 22.8906 3.62253 22.5668 2.52777 21.472C1.43302 20.3772 1.10919 18.7931 1.30414 17.1028C1.48634 15.5234 2.12613 13.7653 3.13128 12.0003C2.12592 10.2351 1.4864 8.47649 1.30414 6.89679C1.10912 5.20647 1.43297 3.62248 2.52777 2.52765C3.62258 1.43284 5.2066 1.10902 6.89691 1.30402C8.47658 1.48626 10.2353 2.12585 12.0004 3.13117C13.7654 2.12592 15.5234 1.48531 17.103 1.30304ZM4.0473 13.4612C3.34635 14.8386 2.92489 16.1433 2.79437 17.2747C2.62978 18.7016 2.93278 19.7558 3.58832 20.4114C4.24389 21.067 5.2981 21.37 6.72503 21.2054C7.8565 21.0748 9.16123 20.6535 10.5385 19.9525C9.33516 19.1301 8.13759 18.1405 6.99847 17.0013C5.85938 15.8622 4.8697 14.6646 4.0473 13.4612ZM19.9536 13.4612C19.1312 14.6645 18.1404 15.8622 17.0014 17.0013C15.8623 18.1404 14.6648 19.131 13.4614 19.9534C14.8388 20.6544 16.1433 21.0759 17.2748 21.2064C18.7018 21.371 19.756 21.067 20.4116 20.4114C21.0671 19.7559 21.3711 18.7017 21.2065 17.2747C21.076 16.1432 20.6546 14.8386 19.9536 13.4612ZM12.0004 4.88019C10.6754 5.71709 9.33231 6.78561 8.05902 8.0589C6.78568 9.33228 5.7172 10.6752 4.88031 12.0003C5.71721 13.3253 6.78574 14.6674 8.05902 15.9407C9.33238 17.214 10.6753 18.2825 12.0004 19.1194C13.3255 18.2826 14.6676 17.2141 15.9409 15.9407C17.2141 14.6675 18.2827 13.3252 19.1196 12.0003C18.2827 10.6751 17.2143 9.33229 15.9409 8.0589C14.6675 6.78562 13.3255 5.71709 12.0004 4.88019ZM12.0004 8.74933C13.795 8.74954 15.2502 10.2047 15.2504 11.9993C15.2504 13.7941 13.7952 15.2491 12.0004 15.2493C10.2055 15.2493 8.75043 13.7942 8.75043 11.9993C8.75063 10.2046 10.2057 8.74933 12.0004 8.74933ZM12.0004 10.2493C11.0341 10.2493 10.2506 11.033 10.2504 11.9993C10.2504 12.9658 11.0339 13.7493 12.0004 13.7493C12.9668 13.7491 13.7504 12.9657 13.7504 11.9993C13.7502 11.0331 12.9666 10.2495 12.0004 10.2493ZM6.72503 2.79328C5.29805 2.62867 4.2439 2.93261 3.58832 3.5882C2.93274 4.2438 2.62877 5.29793 2.79339 6.72492C2.92394 7.85645 3.34627 9.16103 4.0473 10.5384C4.8697 9.335 5.85937 8.13748 6.99847 6.99836C8.13753 5.85929 9.33514 4.86861 10.5385 4.04621C9.16111 3.3452 7.85655 2.92382 6.72503 2.79328ZM20.4125 3.5882C19.7569 2.93258 18.7019 2.62862 17.2748 2.79328C16.1433 2.92385 14.8387 3.34516 13.4614 4.04621C14.6648 4.86864 15.8622 5.85922 17.0014 6.99836C18.1405 8.13753 19.1312 9.3349 19.9536 10.5384C20.6546 9.16094 21.0759 7.85647 21.2065 6.72492C21.3711 5.29819 21.0678 4.24385 20.4125 3.5882Z" fill="#48465C"/>
</svg>
