<svg width="24" height="24" viewBox="0 0 24 24" fill="none" xmlns="http://www.w3.org/2000/svg">
<path d="M17.1028 1.30298C18.7931 1.10795 20.378 1.43184 21.4729 2.52661C22.5677 3.62143 22.8915 5.20638 22.6966 6.89673C22.5143 8.47645 21.8738 10.235 20.8684 12.0002C21.8736 13.7652 22.5134 15.5232 22.6956 17.1028C22.8906 18.7931 22.5668 20.378 21.472 21.4729C20.3772 22.5673 18.7929 22.8905 17.1028 22.6956C15.5232 22.5134 13.7652 21.8736 12.0003 20.8684C10.2352 21.8736 8.4764 22.5134 6.89677 22.6956C5.20655 22.8905 3.62237 22.5667 2.52762 21.4719C1.43291 20.3771 1.10903 18.793 1.30399 17.1028C1.4862 15.5233 2.12597 13.7652 3.13114 12.0002C2.12578 10.235 1.48625 8.47643 1.30399 6.89673C1.109 5.20643 1.43284 3.6224 2.52762 2.52759C3.62243 1.43278 5.20647 1.10896 6.89677 1.30395C8.47644 1.48619 10.2352 2.12578 12.0003 3.1311C13.7652 2.12586 15.5232 1.48525 17.1028 1.30298ZM4.04716 13.4612C3.34621 14.8386 2.92475 16.1433 2.79423 17.2747C2.62963 18.7016 2.93267 19.7558 3.58817 20.4114C4.24372 21.0669 5.29803 21.3708 6.72489 21.2063C7.85636 21.0757 9.16109 20.6544 10.5384 19.9534C9.33501 19.131 8.13745 18.1404 6.99833 17.0012C5.85926 15.8621 4.86955 14.6646 4.04716 13.4612ZM19.9534 13.4612C19.131 14.6645 18.1403 15.8621 17.0013 17.0012C15.8621 18.1403 14.6646 19.1309 13.4612 19.9534C14.8386 20.6544 16.1432 21.0758 17.2747 21.2063C18.7017 21.3709 19.7558 21.067 20.4114 20.4114C21.067 19.7558 21.3709 18.7017 21.2063 17.2747C21.0758 16.1432 20.6544 14.8386 19.9534 13.4612ZM12.0003 4.88013C10.6753 5.71703 9.33216 6.78555 8.05887 8.05884C6.78553 9.33222 5.71706 10.6751 4.88016 12.0002C5.71705 13.3252 6.7856 14.6673 8.05887 15.9407C9.33223 17.214 10.6752 18.2825 12.0003 19.1194C13.3254 18.2825 14.6674 17.214 15.9407 15.9407C17.214 14.6674 18.2825 13.3252 19.1194 12.0002C18.2825 10.675 17.2141 9.33223 15.9407 8.05884C14.6674 6.78555 13.3253 5.71702 12.0003 4.88013ZM12.0003 8.74927C13.7949 8.74945 15.25 10.2047 15.2503 11.9993C15.2503 13.7941 13.795 15.2491 12.0003 15.2493C10.2054 15.2493 8.75028 13.7942 8.75028 11.9993C8.75053 10.2046 10.2055 8.74927 12.0003 8.74927ZM12.0003 10.2493C11.0339 10.2493 10.2505 11.033 10.2503 11.9993C10.2503 12.9658 11.0338 13.7493 12.0003 13.7493C12.9666 13.7491 13.7503 12.9657 13.7503 11.9993C13.75 11.0331 12.9665 10.2494 12.0003 10.2493ZM6.72489 2.79321C5.29793 2.62862 4.24375 2.93256 3.58817 3.58813C2.93259 4.24374 2.62959 5.29783 2.79423 6.72485C2.92478 7.85638 3.34613 9.16096 4.04716 10.5383C4.86956 9.33494 5.85923 8.13741 6.99833 6.99829C8.13739 5.85922 9.335 4.86854 10.5384 4.04614C9.16097 3.34514 7.85641 2.92375 6.72489 2.79321ZM20.4124 3.58813C19.7568 2.93251 18.7018 2.62855 17.2747 2.79321C16.1431 2.92379 14.8386 3.34511 13.4612 4.04614C14.6646 4.86856 15.8621 5.85918 17.0013 6.99829C18.1404 8.13746 19.131 9.33483 19.9534 10.5383C20.6545 9.16087 21.0757 7.8564 21.2063 6.72485C21.371 5.29809 21.0677 4.24378 20.4124 3.58813Z" fill="#48465C"/>
</svg>
