<svg width="24" height="24" viewBox="0 0 24 24" fill="none" xmlns="http://www.w3.org/2000/svg">
<path d="M4.04681 13.4609C4.86922 14.6643 5.85987 15.8618 6.99896 17.0009C8.13805 18.1401 9.33564 19.1297 10.539 19.9521C9.1617 20.6531 7.85699 21.0745 6.72552 21.205C5.29853 21.3696 4.24438 21.0667 3.5888 20.4111C2.93322 19.7555 2.63026 18.7014 2.79486 17.2744C2.92538 16.143 3.34586 14.8383 4.04681 13.4609ZM19.9531 13.4609C20.654 14.8383 21.0755 16.1429 21.206 17.2744C21.3706 18.7013 21.0676 19.7555 20.412 20.4111C19.7565 21.0667 18.7022 21.3706 17.2753 21.206C16.1437 21.0755 14.8392 20.6541 13.4618 19.9531C14.6653 19.1306 15.8627 18.1401 17.0019 17.0009C18.141 15.8618 19.1307 14.6643 19.9531 13.4609ZM11.9999 4.87985C13.325 5.71677 14.6679 6.7852 15.9413 8.05856C17.2147 9.33191 18.2831 10.6749 19.1201 12C18.2832 13.3249 17.2146 14.6672 15.9413 15.9404C14.6679 17.2139 13.325 18.2822 11.9999 19.1191C10.6749 18.2822 9.33281 17.2136 8.05951 15.9404C6.78625 14.6671 5.71768 13.3249 4.88079 12C5.71772 10.6748 6.78611 9.33197 8.05951 8.05856C9.33277 6.7853 10.675 5.71675 11.9999 4.87985ZM11.9999 9.49997C10.6193 9.5 9.49998 10.6193 9.49993 12C9.49993 13.3806 10.6193 14.4999 11.9999 14.5C13.3806 14.5 14.4999 13.3807 14.4999 12C14.4999 10.6193 13.3806 9.49997 11.9999 9.49997ZM3.5888 3.58786C4.24441 2.9323 5.29853 2.62831 6.72552 2.79294C7.85701 2.92349 9.16161 3.34488 10.539 4.04587C9.33561 4.86826 8.13802 5.85895 6.99896 6.99802C5.8598 8.13719 4.86923 9.33463 4.04681 10.5381C3.34579 9.1607 2.92443 7.85611 2.79388 6.72458C2.62926 5.29756 2.9332 4.24346 3.5888 3.58786ZM17.2753 2.79294C18.7024 2.62831 19.7565 2.93226 20.412 3.58786C21.0676 4.24348 21.3716 5.29754 21.207 6.72458C21.0764 7.85615 20.6542 9.16058 19.9531 10.5381C19.1307 9.33462 18.141 8.13712 17.0019 6.99802C15.8628 5.85888 14.6652 4.86829 13.4618 4.04587C14.8392 3.34482 16.1437 2.9235 17.2753 2.79294Z" fill="#48465C"/>
</svg>
