<svg width="24" height="24" viewBox="0 0 24 24" fill="none" xmlns="http://www.w3.org/2000/svg">
<path fill-rule="evenodd" clip-rule="evenodd" d="M12.0004 2.25C14.0713 2.2502 15.7504 3.92905 15.7504 6V7.01367C17.0474 7.04998 17.8378 7.18371 18.4427 7.67969C19.2722 8.35966 19.5025 9.51444 19.9642 11.8232L20.5648 14.8232C21.2289 18.1436 21.5607 19.8042 20.6605 20.9023C19.7603 22.0001 18.0669 22 14.681 22H9.31871C5.93273 22 4.23943 22.0002 3.33922 20.9023C2.43905 19.8042 2.77084 18.1436 3.43492 14.8232L4.03551 11.8232C4.49726 9.5145 4.72766 8.35967 5.55699 7.67969C6.16208 7.18364 6.95296 7.04996 8.25035 7.01367V6C8.25035 3.92893 9.92928 2.25 12.0004 2.25ZM15.0795 15.293C14.689 15.1549 14.2605 15.3595 14.1224 15.75C13.8132 16.6249 12.9789 17.25 12.0004 17.25C11.0219 17.25 10.1875 16.6249 9.87828 15.75C9.74024 15.3595 9.31174 15.1549 8.92125 15.293C8.53071 15.431 8.32619 15.8595 8.46422 16.25C8.97871 17.7054 10.3664 18.75 12.0004 18.75C13.6342 18.75 15.022 17.7054 15.5365 16.25C15.6745 15.8595 15.47 15.431 15.0795 15.293ZM12.0004 3.75C10.7578 3.75 9.75035 4.75736 9.75035 6V7H14.2504V6C14.2504 4.75748 13.2428 3.7502 12.0004 3.75Z" fill="#48465C"/>
</svg>
