<svg width="24" height="24" viewBox="0 0 24 24" fill="none" xmlns="http://www.w3.org/2000/svg">
<path fill-rule="evenodd" clip-rule="evenodd" d="M11.9999 1.25C14.071 1.25 15.7499 2.92893 15.7499 5V5.32812C15.8926 5.3404 16.0307 5.35463 16.164 5.37109C17.1739 5.49589 18.0065 5.75778 18.7138 6.34473C19.4211 6.93173 19.8318 7.70221 20.1406 8.67188C20.4397 9.61153 20.6663 10.8194 20.9511 12.3379L20.9716 12.4482C21.3734 14.591 21.6909 16.28 21.749 17.6113C21.8084 18.9757 21.6053 20.1058 20.8359 21.0332C20.0662 21.9606 18.9925 22.3686 17.6406 22.5615C16.3213 22.7497 14.6028 22.75 12.4228 22.75H11.5771C9.39726 22.75 7.6794 22.7497 6.36028 22.5615C5.00812 22.3686 3.93475 21.9607 3.16497 21.0332C2.39523 20.1057 2.19136 18.9759 2.25091 17.6113C2.30901 16.28 2.62646 14.591 3.02825 12.4482L3.04876 12.3379C3.33345 10.8194 3.56011 9.61152 3.85931 8.67188C4.16809 7.70221 4.57878 6.93173 5.28606 6.34473C5.99331 5.75776 6.826 5.49589 7.83587 5.37109C7.96913 5.35464 8.10722 5.3404 8.24993 5.32812V5C8.24993 2.92895 9.92888 1.25003 11.9999 1.25ZM11.6396 6.75C10.0331 6.75 8.89652 6.75117 8.02044 6.85938C7.16491 6.96507 6.64768 7.16407 6.24407 7.49902C5.84047 7.83399 5.54958 8.30554 5.28802 9.12695C5.02021 9.96811 4.80969 11.085 4.5136 12.6641C4.0979 14.8812 3.80283 16.4649 3.74993 17.6768C3.69796 18.868 3.88944 19.5572 4.31927 20.0752C4.74911 20.5931 5.39179 20.9087 6.5722 21.0771C7.77306 21.2485 9.38406 21.25 11.6396 21.25H12.3603C14.6161 21.25 16.2277 21.2485 17.4286 21.0771C18.6088 20.9087 19.2517 20.593 19.6816 20.0752C20.1111 19.5573 20.3019 18.8676 20.2499 17.6768C20.197 16.4649 19.9019 14.8812 19.4863 12.6641C19.1902 11.0849 18.9796 9.96811 18.7118 9.12695C18.4502 8.30554 18.1594 7.83399 17.7558 7.49902C17.3523 7.16416 16.8356 6.96508 15.9804 6.85938C15.1042 6.75111 13.9671 6.75 12.3603 6.75H11.6396ZM13.4697 11.4697C13.7626 11.1769 14.2373 11.1769 14.5302 11.4697C14.8231 11.7626 14.8231 12.2375 14.5302 12.5303L13.0605 14L14.5302 15.4697C14.8231 15.7625 14.8231 16.2374 14.5302 16.5303C14.2373 16.8231 13.7626 16.8231 13.4697 16.5303L11.9999 15.0605L10.5302 16.5303C10.2373 16.8231 9.76255 16.8232 9.46966 16.5303C9.17678 16.2374 9.17678 15.7626 9.46966 15.4697L10.9394 14L9.46966 12.5303C9.17676 12.2374 9.17676 11.7626 9.46966 11.4697C9.76254 11.1768 10.2373 11.1769 10.5302 11.4697L11.9999 12.9395L13.4697 11.4697ZM11.9999 2.75C10.7574 2.75003 9.74993 3.75738 9.74993 5V5.25977C10.307 5.24988 10.9181 5.24999 11.5888 5.25H12.4111C13.0818 5.24999 13.6929 5.24988 14.2499 5.25977V5C14.2499 3.75736 13.2425 2.75 11.9999 2.75Z" fill="#48465C"/>
</svg>
