<svg width="24" height="24" viewBox="0 0 24 24" fill="none" xmlns="http://www.w3.org/2000/svg">
<path fill-rule="evenodd" clip-rule="evenodd" d="M11.9999 1.25C14.071 1.25003 15.7499 2.92895 15.7499 5V5.30664C15.8848 5.31648 16.0149 5.32826 16.1405 5.3418C17.0189 5.43648 17.7538 5.63495 18.4061 6.08203C18.6305 6.23578 18.8413 6.40882 19.036 6.59863C19.6022 7.15054 19.9409 7.83217 20.2059 8.6748C20.4633 9.49294 20.6712 10.5332 20.9325 11.8398L20.952 11.9355C21.3286 13.8184 21.6256 15.3026 21.7108 16.4844C21.7979 17.6918 21.6753 18.7075 21.1034 19.5879C20.9125 19.8816 20.6899 20.1537 20.4393 20.3984C19.6883 21.1319 18.7157 21.4502 17.5145 21.6016C16.3389 21.7497 14.8255 21.75 12.9052 21.75H11.0946C9.17436 21.75 7.66089 21.7497 6.48524 21.6016C5.28411 21.4502 4.31154 21.1319 3.56044 20.3984C3.30985 20.1537 3.08722 19.8815 2.89638 19.5879C2.3244 18.7075 2.20191 17.6918 2.28895 16.4844C2.37419 15.3024 2.67109 13.8177 3.04774 11.9346L3.06727 11.8398C3.32861 10.5331 3.53651 9.49294 3.79384 8.6748C4.0589 7.83215 4.39752 7.15055 4.96376 6.59863C5.15853 6.4088 5.3693 6.2358 5.59364 6.08203C6.24593 5.63495 6.98091 5.43648 7.85927 5.3418C7.98488 5.32827 8.11505 5.31648 8.24989 5.30664V5C8.24989 2.92893 9.92883 1.25 11.9999 1.25ZM11.1483 6.75C9.76249 6.75 8.78249 6.75076 8.01942 6.83301C7.27278 6.91349 6.81116 7.06583 6.4413 7.31934C6.28791 7.4245 6.14383 7.54304 6.01063 7.67285C5.68964 7.98576 5.44978 8.40797 5.2245 9.12402C4.99423 9.85608 4.80095 10.817 4.52919 12.1758C4.13966 14.1234 3.8627 15.5152 3.78505 16.5918C3.70846 17.6537 3.83856 18.2847 4.15419 18.7705C4.28476 18.9715 4.43683 19.1577 4.60829 19.3252C5.02273 19.7299 5.61647 19.9801 6.67274 20.1133C7.74362 20.2483 9.16216 20.25 11.1483 20.25H12.8515C14.8377 20.25 16.2562 20.2483 17.327 20.1133C18.3833 19.9801 18.977 19.7299 19.3915 19.3252C19.5629 19.1577 19.715 18.9715 19.8456 18.7705C20.1612 18.2847 20.2904 17.6537 20.2138 16.5918C20.1361 15.5152 19.8601 14.1234 19.4706 12.1758C19.1988 10.8171 19.0056 9.85608 18.7753 9.12402C18.5501 8.408 18.3102 7.98576 17.9891 7.67285C17.856 7.54306 17.7119 7.42449 17.5585 7.31934C17.1886 7.06584 16.7269 6.91349 15.9804 6.83301C15.2173 6.75076 14.2373 6.75 12.8515 6.75H11.1483ZM14.122 14.75C14.2599 14.3595 14.6885 14.155 15.079 14.293C15.4696 14.431 15.6741 14.8595 15.536 15.25C15.0216 16.7054 13.6337 17.75 11.9999 17.75C10.3661 17.7499 8.97822 16.7054 8.46376 15.25C8.32573 14.8595 8.53028 14.431 8.92079 14.293C9.31128 14.1549 9.73975 14.3595 9.87782 14.75C10.1871 15.6249 11.0215 16.2499 11.9999 16.25C12.9784 16.25 13.8127 15.6249 14.122 14.75ZM11.9999 2.75C10.7573 2.75 9.74989 3.75736 9.74989 5V5.25488C10.1674 5.2504 10.6184 5.25 11.1054 5.25H12.8944C13.3814 5.25 13.8324 5.2504 14.2499 5.25488V5C14.2499 3.75738 13.2425 2.75003 11.9999 2.75Z" fill="#48465C"/>
</svg>
