<svg width="24" height="24" viewBox="0 0 24 24" fill="none" xmlns="http://www.w3.org/2000/svg">
<path d="M12.0004 2.25C14.0714 2.25008 15.7504 3.92898 15.7504 6V7.01367C17.0475 7.04997 17.8378 7.18376 18.4428 7.67969C19.2723 8.35967 19.5035 9.51434 19.9652 11.8232L20.5648 14.8232C21.2289 18.1436 21.5607 19.8042 20.6605 20.9023C19.7603 22 18.0668 22 14.6811 22H9.31875C5.9328 22 4.23942 22.0003 3.33926 20.9023C2.43909 19.8042 2.77185 18.1436 3.43594 14.8232L4.03555 11.8232C4.49732 9.51438 4.72858 8.35966 5.55801 7.67969C6.16305 7.18387 6.95325 7.04995 8.25039 7.01367V6C8.25039 3.92893 9.92932 2.25 12.0004 2.25ZM15.0795 15.293C14.6891 15.1551 14.2605 15.3595 14.1225 15.75C13.8133 16.6249 12.9789 17.25 12.0004 17.25C11.022 17.2499 10.1875 16.6248 9.87832 15.75C9.74024 15.3595 9.31178 15.1549 8.92129 15.293C8.53082 15.431 8.32624 15.8595 8.46426 16.25C8.9787 17.7054 10.3665 18.7499 12.0004 18.75C13.6343 18.75 15.0231 17.7055 15.5375 16.25C15.6755 15.8595 15.47 15.431 15.0795 15.293ZM12.0004 3.75C10.7578 3.75 9.75039 4.75736 9.75039 6V7H14.2504V6C14.2504 4.75741 13.2429 3.75008 12.0004 3.75Z" fill="#48465C"/>
</svg>
