<svg width="24" height="24" viewBox="0 0 24 24" fill="none" xmlns="http://www.w3.org/2000/svg">
<path d="M11.9996 1.25C14.0707 1.25 15.7496 2.92893 15.7496 5V6.01465C17.0368 6.05328 17.8251 6.19234 18.4264 6.69141C19.2594 7.3829 19.4786 8.55377 19.9176 10.8945L20.6676 14.8945C21.2847 18.186 21.5936 19.8319 20.6939 20.916C19.7942 22.0001 18.1192 22 14.7701 22H9.2291C5.8804 22 4.20595 22 3.30625 20.916C2.40655 19.8319 2.71545 18.1861 3.33262 14.8945L4.08262 10.8945C4.52153 8.55362 4.74065 7.38289 5.57383 6.69141C6.1751 6.19241 6.96266 6.05331 8.24961 6.01465V5C8.24961 2.92905 9.9287 1.25019 11.9996 1.25ZM15.4684 10.9141C15.1451 10.6556 14.6735 10.7082 14.4147 11.0312L10.9371 15.377L9.52988 13.9697C9.23698 13.677 8.76218 13.6769 8.46934 13.9697C8.17666 14.2626 8.17669 14.7374 8.46934 15.0303L10.4693 17.0303C10.6201 17.1811 10.8286 17.2608 11.0416 17.249C11.2545 17.2372 11.4524 17.1352 11.5855 16.9688L15.5855 11.9688C15.8443 11.6454 15.7919 11.1728 15.4684 10.9141ZM11.9996 2.75C10.7572 2.75019 9.74961 3.75748 9.74961 5V6H14.2496V5C14.2496 3.75736 13.2422 2.75 11.9996 2.75Z" fill="#48465C"/>
</svg>
