<svg width="24" height="24" viewBox="0 0 24 24" fill="none" xmlns="http://www.w3.org/2000/svg">
<path fill-rule="evenodd" clip-rule="evenodd" d="M11.9996 1.25C14.0707 1.25 15.7496 2.92893 15.7496 5V6.01465C17.0368 6.05328 17.825 6.19234 18.4263 6.69141C19.2594 7.3829 19.4786 8.55377 19.9175 10.8945L20.6675 14.8945C21.2847 18.186 21.5935 19.8319 20.6939 20.916C19.7942 22.0001 18.1192 22 14.7701 22H9.22907C5.88037 22 4.20592 22 3.30622 20.916C2.40652 19.8319 2.71542 18.1861 3.33259 14.8945L4.08259 10.8945C4.5215 8.55362 4.74062 7.38289 5.5738 6.69141C6.17507 6.19241 6.96263 6.05331 8.24958 6.01465V5C8.24958 2.92905 9.92867 1.25019 11.9996 1.25ZM14.9996 13.1963C14.9993 11.5234 13.3494 10.899 11.9996 12.1914C10.6497 10.8992 8.99985 11.5234 8.99958 13.1963C8.99958 14.1807 10.1646 15.2209 11.0426 15.8652C11.4622 16.1731 11.6723 16.327 11.9996 16.3271C12.3271 16.3271 12.537 16.1732 12.9566 15.8652C13.8346 15.221 14.9996 14.1808 14.9996 13.1963ZM11.9996 2.75C10.7571 2.75019 9.74958 3.75748 9.74958 5V6H14.2496V5C14.2496 3.75736 13.2422 2.75 11.9996 2.75Z" fill="#48465C"/>
</svg>
