<svg width="24" height="24" viewBox="0 0 24 24" fill="none" xmlns="http://www.w3.org/2000/svg">
<path d="M11.9996 1.25C14.0707 1.25 15.7496 2.92893 15.7496 5V6.01465C17.0368 6.05328 17.8251 6.19234 18.4264 6.69141C19.2594 7.3829 19.4786 8.55377 19.9176 10.8945L20.6676 14.8945C21.2847 18.186 21.5936 19.8319 20.6939 20.916C19.7942 22.0001 18.1192 22 14.7701 22H9.2291C5.8804 22 4.20595 22 3.30625 20.916C2.40655 19.8319 2.71545 18.1861 3.33262 14.8945L4.08262 10.8945C4.52153 8.55362 4.74065 7.38289 5.57383 6.69141C6.1751 6.19241 6.96266 6.05331 8.24961 6.01465V5C8.24961 2.92905 9.9287 1.25019 11.9996 1.25ZM15.5299 10.4697C15.237 10.177 14.7621 10.1769 14.4693 10.4697L11.9996 12.9395L9.52988 10.4697C9.23698 10.177 8.76218 10.1769 8.46934 10.4697C8.17664 10.7626 8.17664 11.2374 8.46934 11.5303L10.9391 14L8.46934 16.4697C8.17666 16.7626 8.17666 17.2374 8.46934 17.5303C8.76216 17.8231 9.23698 17.823 9.52988 17.5303L11.9996 15.0605L14.4693 17.5303C14.7622 17.8231 15.237 17.823 15.5299 17.5303C15.8228 17.2374 15.8228 16.7626 15.5299 16.4697L13.0611 14L15.5299 11.5303C15.8228 11.2374 15.8228 10.7626 15.5299 10.4697ZM11.9996 2.75C10.7572 2.75019 9.74961 3.75748 9.74961 5V6H14.2496V5C14.2496 3.75736 13.2422 2.75 11.9996 2.75Z" fill="#48465C"/>
</svg>
