<svg width="24" height="24" viewBox="0 0 24 24" fill="none" xmlns="http://www.w3.org/2000/svg">
<path fill-rule="evenodd" clip-rule="evenodd" d="M11.9996 1.25C14.0707 1.25 15.7496 2.92893 15.7496 5V6.01465C17.0368 6.05328 17.825 6.19234 18.4263 6.69141C19.2594 7.3829 19.4786 8.55377 19.9175 10.8945L20.6675 14.8945C21.2847 18.186 21.5935 19.8319 20.6939 20.916C19.7942 22.0001 18.1192 22 14.7701 22H9.22907C5.88037 22 4.20592 22 3.30622 20.916C2.40652 19.8319 2.71542 18.1861 3.33259 14.8945L4.08259 10.8945C4.5215 8.55362 4.74062 7.38289 5.5738 6.69141C6.17507 6.19241 6.96263 6.05331 8.24958 6.01465V5C8.24958 2.92905 9.92867 1.25019 11.9996 1.25ZM15.5299 10.4697C15.2369 10.177 14.7621 10.1769 14.4693 10.4697L11.9996 12.9395L9.52985 10.4697C9.23695 10.177 8.76215 10.1769 8.46931 10.4697C8.17661 10.7626 8.17661 11.2374 8.46931 11.5303L10.939 14L8.46931 16.4697C8.17663 16.7626 8.17663 17.2374 8.46931 17.5303C8.76213 17.8231 9.23695 17.823 9.52985 17.5303L11.9996 15.0605L14.4693 17.5303C14.7622 17.8231 15.2369 17.823 15.5299 17.5303C15.8228 17.2374 15.8228 16.7626 15.5299 16.4697L13.0611 14L15.5299 11.5303C15.8228 11.2374 15.8228 10.7626 15.5299 10.4697ZM11.9996 2.75C10.7571 2.75019 9.74958 3.75748 9.74958 5V6H14.2496V5C14.2496 3.75736 13.2422 2.75 11.9996 2.75Z" fill="#48465C"/>
</svg>
