<svg width="24" height="24" viewBox="0 0 24 24" fill="none" xmlns="http://www.w3.org/2000/svg">
<path d="M12.0004 2.25C14.0714 2.25008 15.7504 3.92898 15.7504 6V7.01367C17.0475 7.04997 17.8378 7.18376 18.4428 7.67969C19.2723 8.35967 19.5035 9.51434 19.9652 11.8232L20.5648 14.8232C21.2289 18.1436 21.5607 19.8042 20.6605 20.9023C19.7603 22 18.0668 22 14.6811 22H9.31875C5.9328 22 4.23942 22.0003 3.33926 20.9023C2.43909 19.8042 2.77185 18.1436 3.43594 14.8232L4.03555 11.8232C4.49732 9.51438 4.72858 8.35966 5.55801 7.67969C6.16305 7.18387 6.95325 7.04995 8.25039 7.01367V6C8.25039 3.92893 9.92932 2.25 12.0004 2.25ZM9.00039 9C8.4481 9 8.00039 9.44772 8.00039 10C8.00039 10.5523 8.4481 11 9.00039 11C9.55259 10.9999 10.0004 10.5522 10.0004 10C10.0004 9.44778 9.55259 9.00009 9.00039 9ZM15.0004 9C14.4481 9 14.0004 9.44772 14.0004 10C14.0004 10.5523 14.4481 11 15.0004 11C15.5526 10.9999 16.0004 10.5522 16.0004 10C16.0004 9.44777 15.5526 9.00008 15.0004 9ZM12.0004 3.75C10.7578 3.75 9.75039 4.75736 9.75039 6V7H14.2504V6C14.2504 4.75741 13.2429 3.75008 12.0004 3.75Z" fill="#48465C"/>
</svg>
