<svg width="24" height="24" viewBox="0 0 24 24" fill="none" xmlns="http://www.w3.org/2000/svg">
<path fill-rule="evenodd" clip-rule="evenodd" d="M11.9997 1.25C14.0708 1.25 15.7497 2.92893 15.7497 5V6.01465C17.0369 6.05328 17.8252 6.19234 18.4265 6.69141C19.2595 7.3829 19.4787 8.55377 19.9177 10.8945L20.6677 14.8945C21.2848 18.186 21.5936 19.8319 20.694 20.916C19.7943 22.0001 18.1193 22 14.7702 22H9.2292C5.8805 22 4.20604 22 3.30634 20.916C2.40664 19.8319 2.71554 18.1861 3.33271 14.8945L4.08271 10.8945C4.52162 8.55362 4.74074 7.38289 5.57392 6.69141C6.17519 6.19241 6.96275 6.05331 8.2497 6.01465V5C8.2497 2.92905 9.92879 1.25019 11.9997 1.25ZM15.4685 10.9141C15.1452 10.6556 14.6735 10.7082 14.4147 11.0312L10.9372 15.377L9.52998 13.9697C9.23707 13.677 8.76227 13.6769 8.46943 13.9697C8.17675 14.2626 8.17679 14.7374 8.46943 15.0303L10.4694 17.0303C10.6202 17.1811 10.8287 17.2608 11.0417 17.249C11.2546 17.2372 11.4525 17.1352 11.5856 16.9688L15.5856 11.9688C15.8444 11.6454 15.792 11.1728 15.4685 10.9141ZM11.9997 2.75C10.7573 2.75019 9.7497 3.75748 9.7497 5V6H14.2497V5C14.2497 3.75736 13.2423 2.75 11.9997 2.75Z" fill="#48465C"/>
</svg>
