<svg width="24" height="24" viewBox="0 0 24 24" fill="none" xmlns="http://www.w3.org/2000/svg">
<path d="M4.87529 2.22265C6.28779 1.40714 7.86318 1.12039 9.36748 1.30273C11.5512 1.56744 13.5916 2.82098 14.7776 4.87499C15.2341 5.66556 15.5249 6.50805 15.6604 7.36034C15.7567 7.3493 15.8532 7.33924 15.9485 7.33007C17.1715 7.21244 18.3427 7.23991 19.305 7.31347C21.1297 7.45299 22.5471 8.86961 22.6868 10.6943C22.7604 11.6567 22.7879 12.8286 22.6702 14.0518C22.4691 16.1427 21.8339 18.4945 20.1644 20.1641C18.4948 21.8336 16.143 22.4687 14.052 22.6699C12.8288 22.7876 11.657 22.7601 10.6946 22.6865C8.86984 22.5469 7.4533 21.1295 7.31376 19.3047C7.24021 18.3424 7.21272 17.1711 7.33037 15.9482C7.33959 15.8524 7.34955 15.756 7.36064 15.6592C5.28003 15.3267 3.35868 14.0929 2.22197 12.124C0.220642 8.65716 1.40865 4.22443 4.87529 2.22265ZM8.75029 17.7539C8.75233 18.2643 8.77513 18.7489 8.80888 19.1904C8.89196 20.277 9.72232 21.1081 10.8089 21.1914C11.2505 21.2252 11.7359 21.248 12.2464 21.25L8.75029 17.7539ZM15.7435 8.86132C13.9168 9.08212 12.1292 9.66412 10.8968 10.8965C9.66428 12.1289 9.08239 13.9173 8.86162 15.7441L14.2561 21.1387C16.0828 20.9179 17.8704 20.3357 19.1028 19.1035C20.3353 17.871 20.9182 16.0827 21.139 14.2559L15.7435 8.86132ZM16.97 11.9697C17.2629 11.6769 17.7377 11.6769 18.0306 11.9697C18.3233 12.2626 18.3233 12.7374 18.0306 13.0303L17.5608 13.5L18.0306 13.9697C18.3233 14.2626 18.3233 14.7374 18.0306 15.0303C17.7377 15.3231 17.2629 15.323 16.97 15.0303L16.5003 14.5605L16.0608 15L16.5306 15.4697C16.8233 15.7626 16.8233 16.2374 16.5306 16.5303C16.2377 16.8231 15.7629 16.823 15.47 16.5303L15.0003 16.0605L14.5608 16.5L15.0306 16.9697C15.3233 17.2626 15.3233 17.7374 15.0306 18.0303C14.7377 18.3231 14.2629 18.323 13.97 18.0303L13.5003 17.5605L13.0306 18.0303C12.7377 18.3231 12.2629 18.323 11.97 18.0303C11.6771 17.7374 11.6771 17.2626 11.97 16.9697L12.4397 16.5L11.97 16.0303C11.6771 15.7374 11.6771 15.2626 11.97 14.9697C12.2629 14.6769 12.7377 14.6769 13.0306 14.9697L13.5003 15.4394L13.9397 15L13.47 14.5303C13.1771 14.2374 13.1771 13.7626 13.47 13.4697C13.7629 13.1769 14.2377 13.1769 14.5306 13.4697L15.0003 13.9394L15.4397 13.5L14.97 13.0303C14.6771 12.7374 14.6771 12.2626 14.97 11.9697C15.2629 11.6769 15.7377 11.6769 16.0306 11.9697L16.5003 12.4394L16.97 11.9697ZM3.00029 6.82519C2.5531 8.29482 2.69311 9.93874 3.52177 11.374C4.31109 12.7412 5.57659 13.6622 6.98955 14.0469C6.97392 13.9069 6.95385 13.7529 6.92705 13.5869C6.78534 12.709 6.46791 11.492 5.76494 10.1592C5.06243 8.8272 4.26134 7.92319 3.6458 7.35742C3.39279 7.12488 3.17082 6.94964 3.00029 6.82519ZM8.48466 2.74999C7.5128 2.75156 6.52826 3.00015 5.62529 3.52148C4.7859 4.00617 4.11501 4.67102 3.6331 5.43847C3.67013 5.46302 3.71089 5.49035 3.75419 5.5205C3.98392 5.68043 4.29939 5.92016 4.66142 6.25292C5.38622 6.91912 6.29949 7.95627 7.09209 9.45898C7.64146 10.5006 7.98324 11.4835 8.1956 12.3242C8.57977 11.4177 9.11014 10.562 9.83623 9.83593C10.1426 9.52951 10.4721 9.25801 10.8186 9.01757C10.509 8.58527 10.2007 8.09394 9.90849 7.54003C9.1165 6.03833 8.75488 4.66003 8.59209 3.65136C8.53613 3.30456 8.5033 3.00084 8.48466 2.74999ZM21.2503 12.2461C21.2482 11.7356 21.2245 11.2511 21.1907 10.8096C21.1076 9.72281 20.2774 8.89168 19.1907 8.80859C18.7492 8.77484 18.2646 8.75204 17.7542 8.74999L21.2503 12.2461ZM10.0735 3.41308C10.2153 4.29096 10.5327 5.50808 11.2356 6.84081C11.5256 7.39054 11.8318 7.8674 12.1351 8.27734C12.7964 7.97956 13.489 7.76282 14.181 7.60742C14.0745 6.92874 13.8437 6.25697 13.4788 5.62499C12.6894 4.25783 11.4231 3.33771 10.0101 2.95312C10.0258 3.09298 10.0467 3.24703 10.0735 3.41308Z" fill="#48465C"/>
</svg>
