<svg width="24" height="24" viewBox="0 0 24 24" fill="none" xmlns="http://www.w3.org/2000/svg">
<path d="M12.9839 21.9873C12.1781 22.0163 11.4161 21.9893 10.7525 21.9385C9.29665 21.8272 8.17237 20.7029 8.06106 19.2471C8.01033 18.5835 7.98329 17.8214 8.01223 17.0156L12.9839 21.9873ZM21.8023 14.9209C21.5212 16.6452 20.8935 18.3737 19.6333 19.6338C18.3728 20.8943 16.6441 21.5217 14.9195 21.8027L8.19778 15.0811C8.47875 13.3564 9.1063 11.6277 10.3667 10.3672C11.627 9.10694 13.3553 8.47928 15.0796 8.19824L21.8023 14.9209ZM18.0308 11.9697C17.7379 11.6768 17.2622 11.6768 16.9693 11.9697L16.4995 12.4395L16.0308 11.9697C15.7379 11.6768 15.2622 11.6768 14.9693 11.9697C14.6764 12.2625 14.6764 12.7384 14.9693 13.0312L15.439 13.5L14.9995 13.9395L14.5308 13.4697C14.2379 13.1768 13.7622 13.1768 13.4693 13.4697C13.1764 13.7625 13.1764 14.2384 13.4693 14.5312L13.939 15L13.4995 15.4395L13.0308 14.9697C12.7379 14.6768 12.2622 14.6768 11.9693 14.9697C11.6764 15.2625 11.6764 15.7384 11.9693 16.0312L12.439 16.5L11.9693 16.9697C11.6764 17.2625 11.6764 17.7384 11.9693 18.0312C12.2622 18.3241 12.7379 18.3241 13.0308 18.0312L13.4995 17.5615L13.9693 18.0312C14.2622 18.3241 14.7379 18.3241 15.0308 18.0312C15.3237 17.7384 15.3237 17.2625 15.0308 16.9697L14.5611 16.5L14.9995 16.0615L15.4693 16.5312C15.7622 16.8241 16.2379 16.8241 16.5308 16.5312C16.8237 16.2384 16.8237 15.7625 16.5308 15.4697L16.0611 15L16.4995 14.5615L16.9693 15.0312C17.2622 15.3241 17.7379 15.3241 18.0308 15.0312C18.3237 14.7384 18.3237 14.2625 18.0308 13.9697L17.5611 13.5L18.0308 13.0312C18.3237 12.7384 18.3237 12.2625 18.0308 11.9697ZM2.50051 7.16504L2.5093 7.16895C2.51852 7.1733 2.5344 7.18188 2.55715 7.19336C2.60324 7.21662 2.6762 7.25449 2.77102 7.30957C2.96093 7.4199 3.23976 7.59776 3.5718 7.85645C4.23541 8.3735 5.11399 9.21561 5.93215 10.498C6.51182 11.4067 6.89375 12.2739 7.14504 13.0127C7.06182 13.2776 6.99284 13.4929 6.92434 13.8076C6.83083 14.2372 6.77004 14.9229 6.77004 14.9229L6.75051 14.917C5.35781 14.5184 4.08628 13.6492 3.18997 12.3555C2.07278 10.7428 1.7678 8.80113 2.18899 7.02832L2.50051 7.16504ZM17.0152 8.01172C17.8213 7.98272 18.5837 8.01077 19.2476 8.06152C20.7034 8.17283 21.8277 9.29615 21.939 10.752C21.9898 11.4158 22.0168 12.1782 21.9878 12.9844L17.0152 8.01172ZM7.90481 2.12598C7.91108 2.20893 7.9223 2.32582 7.94094 2.47266C7.97823 2.76636 8.04653 3.18074 8.17239 3.68262C8.42413 4.68632 8.90602 6.04604 9.82864 7.49219C10.0292 7.80648 10.2341 8.09788 10.439 8.36816C10.0409 8.64029 9.66051 8.95137 9.30618 9.30566C8.7666 9.84524 8.32752 10.4448 7.97219 11.0762C7.75544 10.6254 7.49792 10.1555 7.19192 9.67578C6.26867 8.22868 5.26636 7.26215 4.48489 6.65332C4.09437 6.34907 3.7593 6.13345 3.51614 5.99219C3.39453 5.92155 3.29526 5.86987 3.22415 5.83398C3.18876 5.81613 3.16039 5.80197 3.13918 5.79199L3.11282 5.7793L3.10403 5.77539L3.1011 5.77441L3.09915 5.77344L2.70559 5.60059C3.17177 4.66585 3.86665 3.83102 4.77297 3.18848C5.73175 2.50883 6.80938 2.12816 7.89797 2.02734C7.89922 2.05137 7.90167 2.08448 7.90481 2.12598ZM9.40579 2.06543C11.1292 2.31214 12.7524 3.254 13.8316 4.81152C14.251 5.41696 14.5555 6.06928 14.7505 6.74121L14.7554 6.75684C14.7483 6.75788 14.1717 6.84207 13.8072 6.9248C12.9856 7.11125 12.433 7.31587 11.7652 7.62207C11.5391 7.33595 11.3122 7.01919 11.0894 6.66992C10.2706 5.38651 9.84659 4.18603 9.62747 3.3125C9.51797 2.87594 9.45964 2.5218 9.42922 2.28223C9.41798 2.19374 9.41069 2.12093 9.40579 2.06543Z" fill="#48465C"/>
</svg>
