<svg width="24" height="24" viewBox="0 0 24 24" fill="none" xmlns="http://www.w3.org/2000/svg">
<path d="M14.1672 18.2151C14.4992 19.2773 13.8107 20.3462 12.7502 20.5618V22.0002C12.7502 22.4144 12.4144 22.7502 12.0002 22.7502C11.586 22.7502 11.2502 22.4144 11.2502 22.0002V20.5618C10.1896 20.3463 9.50111 19.2773 9.83323 18.2151L9.84006 18.1936C10.5044 18.3873 11.2047 18.4943 11.9319 18.5002C12.7027 18.5064 13.4494 18.3979 14.1594 18.1917C14.1621 18.1995 14.1648 18.2074 14.1672 18.2151ZM11.9397 2.00025C16.0816 2.03377 19.4667 5.41886 19.5002 9.5608C19.5335 13.7026 16.0815 17.5335 11.9397 17.5002C7.79772 17.4668 4.53375 13.5816 4.50022 9.4397C4.4668 5.2977 7.79765 1.96683 11.9397 2.00025ZM12.5061 5.25025C12.0919 5.24691 11.7536 5.58019 11.7502 5.99439C11.7471 6.4084 12.0803 6.7469 12.4944 6.75025C13.7283 6.76045 14.7403 7.77216 14.7502 9.00611C14.7536 9.42029 15.0919 9.75358 15.5061 9.75025C15.9201 9.7469 16.2533 9.4084 16.2502 8.99439C16.2336 6.94132 14.5591 5.26682 12.5061 5.25025Z" fill="#48465C"/>
</svg>
