<svg width="24" height="24" viewBox="0 0 24 24" fill="none" xmlns="http://www.w3.org/2000/svg">
<path d="M12.006 1.25004C16.5791 1.28813 20.274 5.13514 20.3107 9.79789C20.3412 13.7057 17.6847 17.4315 14.0656 18.4668C14.1073 18.5525 14.1425 18.636 14.1672 18.7149C14.4991 19.777 13.8107 20.8461 12.7502 21.0616V22.5C12.7501 22.9142 12.4143 23.25 12.0002 23.25C11.586 23.25 11.2502 22.9142 11.2502 22.5V21.0616C10.1896 20.8461 9.50121 19.7771 9.83317 18.7149C9.86064 18.627 9.90143 18.5337 9.94938 18.4375C6.35722 17.3476 3.84125 13.567 3.81071 9.68559C3.77419 5.01437 7.42238 1.21202 12.006 1.25004ZM11.466 18.7871C11.3876 18.9279 11.3366 19.0191 11.3009 19.0879C11.2748 19.1383 11.2656 19.1608 11.2638 19.1651C11.2138 19.3325 11.3137 19.5445 11.55 19.5918C11.55 19.5918 11.5733 19.5956 11.6466 19.5977C11.7274 19.6 11.8351 19.5996 12.0002 19.5996L12.3537 19.5977C12.4215 19.5958 12.4461 19.5923 12.4494 19.5918C12.6863 19.5446 12.7869 19.3327 12.7365 19.1651L12.6994 19.0879L12.5343 18.7871C12.5249 18.7702 12.5159 18.7526 12.508 18.7354C12.3381 18.746 12.1668 18.7514 11.9943 18.75C11.8266 18.7486 11.6599 18.7412 11.4953 18.7286C11.4865 18.7483 11.4767 18.7678 11.466 18.7871ZM11.9943 2.75004C8.29401 2.71922 5.28038 5.7941 5.31071 9.67387C5.34197 13.6417 8.36874 17.2195 12.006 17.25C15.6604 17.2804 18.8414 13.7382 18.8107 9.80961C18.7801 5.92185 15.7047 2.78122 11.9943 2.75004ZM12.506 5.25004C14.559 5.2666 16.2336 6.94111 16.2502 8.99418C16.2533 9.40823 15.9201 9.74669 15.506 9.75004C15.0919 9.75332 14.7536 9.42006 14.7502 9.0059C14.7402 7.77194 13.7283 6.7602 12.4943 6.75004C12.0802 6.74669 11.747 6.40823 11.7502 5.99418C11.7536 5.58001 12.0919 5.24674 12.506 5.25004Z" fill="#48465C"/>
</svg>
