<svg width="24" height="24" viewBox="0 0 24 24" fill="none" xmlns="http://www.w3.org/2000/svg">
<path d="M9.12744 2.24441C11.0285 1.91853 12.9715 1.91853 14.8726 2.24441L15.2456 2.30886C17.3482 2.6693 18.7979 4.61603 18.5405 6.73367L18.5239 6.87234C18.4629 7.37428 18.0365 7.75222 17.5308 7.75222H15.7671L18.7339 21.595C18.8205 21.9998 18.5624 22.3987 18.1577 22.4856C17.7528 22.5724 17.3541 22.3142 17.2671 21.9095L16.3227 17.5022H7.67822L6.73388 21.9095C6.647 22.3142 6.24809 22.5722 5.84326 22.4856C5.43828 22.3988 5.18037 22 5.26709 21.595L8.23291 7.75222H6.46923C5.96366 7.75216 5.53804 7.37424 5.47705 6.87234L5.45947 6.73367C5.20213 4.61614 6.65202 2.66946 8.75439 2.30886L9.12744 2.24441ZM9.75048 7.75222C9.75042 7.80397 9.74515 7.85683 9.73388 7.90945L7.99951 16.0022H16.0015L14.2671 7.90945C14.2558 7.85683 14.2506 7.80397 14.2505 7.75222H9.75048Z" fill="#48465C"/>
</svg>
