<svg width="24" height="24" viewBox="0 0 24 24" fill="none" xmlns="http://www.w3.org/2000/svg">
<path d="M8.81561 1.51578C10.9232 1.16207 13.0771 1.16205 15.1848 1.51578L15.5822 1.58218C18.2051 2.02249 20.0384 4.40959 19.7131 7.03042L19.6945 7.17496C19.5813 8.08627 18.7976 8.75014 17.8928 8.75015H15.9279L17.5988 16.548C17.6937 16.6736 17.7502 16.8306 17.7502 17.0002C17.7502 17.0575 17.7437 17.1135 17.7316 17.1671L18.7336 21.8429C18.8203 22.2478 18.5623 22.6466 18.1574 22.7335C17.7525 22.8202 17.3537 22.5623 17.2668 22.1574L16.3224 17.7502H7.67792L6.73358 22.1574C6.64674 22.5623 6.24786 22.8201 5.84296 22.7335C5.43794 22.6467 5.17999 22.2479 5.26678 21.8429L6.26874 17.1671C6.25654 17.1135 6.25019 17.0575 6.25018 17.0002C6.25018 16.8306 6.30665 16.6736 6.40155 16.548L8.07245 8.75015H6.1076C5.20276 8.75015 4.41799 8.08628 4.30487 7.17496L4.28729 7.03042C3.96196 4.40953 5.79513 2.02241 8.41815 1.58218L8.81561 1.51578ZM7.99921 16.2502H16.0012L14.3937 8.75015H9.60663L7.99921 16.2502ZM14.9357 2.99429C12.9926 2.66822 11.0067 2.66817 9.06366 2.99429L8.6662 3.06167C6.80902 3.37338 5.5527 5.04802 5.77557 6.84488L5.79413 6.99039C5.811 7.1262 5.93502 7.25015 6.1076 7.25015H17.8928C18.0653 7.25014 18.1893 7.1262 18.2062 6.99039L18.2238 6.84488C18.4467 5.04814 17.1911 3.37358 15.3342 3.06167L14.9357 2.99429Z" fill="#48465C"/>
</svg>
