<svg width="24" height="24" viewBox="0 0 24 24" fill="none" xmlns="http://www.w3.org/2000/svg">
<path d="M6.62487 2.69003C8.71995 1.48044 11.0551 1.05536 13.286 1.32577C16.5257 1.71849 19.5507 3.57838 21.3094 6.6246C23.0681 9.67072 23.1663 13.2202 21.8866 16.2223C21.0053 18.2893 19.4699 20.0996 17.3749 21.3092C12.2333 24.2776 5.65888 22.5161 2.6903 17.3746C-0.278219 12.233 1.48329 5.65858 6.62487 2.69003ZM14.8436 14.5504C14.435 14.7544 14.0315 14.978 13.6366 15.2183C11.2251 16.6858 9.29557 18.6879 8.48131 20.5543C10.8837 21.5405 13.675 21.5088 16.1434 20.2691C16.1157 20.0983 16.079 19.8787 16.0331 19.6197C15.9154 18.9571 15.7382 18.0377 15.4989 17.0123C15.3144 16.2219 15.0958 15.3801 14.8436 14.5504ZM12.2694 9.31893C11.9236 9.56603 11.5685 9.80234 11.2059 10.025C8.63643 11.6025 5.54789 12.6219 2.7528 12.2838C2.79699 13.7631 3.19731 15.2532 3.98913 16.6246C4.7835 18.0004 5.87832 19.0952 7.14245 19.8736C8.1433 17.6465 10.3326 15.4723 12.8573 13.9361C13.3433 13.6404 13.8479 13.3651 14.3651 13.1148C14.063 12.2923 13.7251 11.5219 13.3514 10.8746C13.0533 10.3583 12.6826 9.83491 12.2694 9.31893ZM21.1698 13.2183C19.6339 13.0102 17.9155 13.2987 16.2264 13.942C16.5172 14.8797 16.7608 15.8188 16.9598 16.6715C17.2065 17.7288 17.3894 18.675 17.5106 19.357C17.5144 19.3786 17.5177 19.4004 17.5214 19.4215C18.8706 18.4205 19.8803 17.1036 20.5067 15.6344C20.8357 14.8626 21.0588 14.0492 21.1698 13.2183ZM16.8583 4.12557C16.1802 5.63443 14.9567 7.11896 13.453 8.39706C13.904 8.96153 14.3141 9.54235 14.6503 10.1246C15.0598 10.8341 15.4233 11.6575 15.744 12.5211C17.5561 11.838 19.4615 11.4994 21.2469 11.7154C21.2029 10.2359 20.8024 8.74607 20.0106 7.3746C19.2163 5.99895 18.1223 4.904 16.8583 4.12557ZM6.92174 4.26718C4.60319 5.78692 3.17504 8.19824 2.82995 10.7808C5.18698 11.1006 7.97278 10.2496 10.4208 8.74667C10.7159 8.56549 11.0038 8.37614 11.2831 8.18026C10.6288 7.47583 9.93018 6.80722 9.27038 6.21542C8.54154 5.56173 7.8738 5.01422 7.38854 4.63046C7.20413 4.48462 7.04612 4.36209 6.92174 4.26718ZM13.1053 2.81503C11.5314 2.62426 9.89862 2.83538 8.36705 3.49178C8.86628 3.88785 9.53901 4.44144 10.2723 5.09921C10.9742 5.72864 11.7441 6.46536 12.4745 7.26034C13.8777 6.06884 14.9612 4.72494 15.5194 3.44491C14.7473 3.12792 13.9346 2.91556 13.1053 2.81503Z" fill="#48465C"/>
</svg>
