<svg width="24" height="24" viewBox="0 0 24 24" fill="none" xmlns="http://www.w3.org/2000/svg">
<path fill-rule="evenodd" clip-rule="evenodd" d="M6.62541 2.69045C8.72028 1.48104 11.0549 1.05591 13.2856 1.32619C16.5253 1.71889 19.5512 3.57878 21.31 6.62502C23.0685 9.67118 23.1659 13.2207 21.8862 16.2227C21.0049 18.2896 19.4703 20.1 17.3754 21.3096C12.2338 24.2781 5.65839 22.5167 2.68986 17.375C-0.278647 12.2334 1.48377 5.65897 6.62541 2.69045ZM14.8442 14.5508C14.4356 14.7548 14.032 14.9785 13.6371 15.2188C11.2254 16.6863 9.29511 18.6881 8.48088 20.5547C10.8834 21.541 13.6754 21.5094 16.144 20.2696C16.1163 20.0987 16.0796 19.8791 16.0336 19.6201C15.9159 18.9575 15.7377 18.0382 15.4985 17.0127C15.314 16.2223 15.0963 15.3805 14.8442 14.5508ZM12.2699 9.31936C11.924 9.56653 11.5682 9.8027 11.2055 10.0254C8.63589 11.603 5.54751 12.6225 2.75236 12.2842C2.79655 13.7635 3.19785 15.2536 3.98967 16.625C4.78402 18.0008 5.87796 19.0957 7.14201 19.874C8.14285 17.647 10.3322 15.4727 12.8569 13.9365C13.3428 13.6408 13.8475 13.3655 14.3647 13.1153C14.0626 12.2927 13.7247 11.5223 13.351 10.875C13.0529 10.3588 12.6831 9.83528 12.2699 9.31936ZM21.1694 13.2188C19.6335 13.0107 17.915 13.2991 16.226 13.9424C16.5168 14.8801 16.7604 15.8193 16.9594 16.6719C17.206 17.7292 17.389 18.6755 17.5102 19.3574C17.514 19.3791 17.5182 19.4008 17.5219 19.4219C18.871 18.421 19.8799 17.1039 20.5063 15.6348C20.8352 14.863 21.0583 14.0496 21.1694 13.2188ZM16.8588 4.126C16.1807 5.63492 14.9564 7.11935 13.4526 8.39748C13.9035 8.96189 14.3137 9.54285 14.6498 10.125C15.0594 10.8345 15.4238 11.6579 15.7445 12.5215C17.5568 11.8384 19.4619 11.4998 21.2475 11.7158C21.2034 10.2364 20.8029 8.74645 20.0112 7.37502C19.2169 5.99943 18.1227 4.90442 16.8588 4.126ZM6.92228 4.2676C4.60374 5.78734 3.17559 8.19868 2.83049 10.7813C5.18744 11.1009 7.97345 10.2499 10.4213 8.74709C10.7162 8.566 11.0035 8.37646 11.2826 8.18069C10.6284 7.47632 9.93066 6.80759 9.27092 6.21584C8.54192 5.56199 7.87343 5.01469 7.3881 4.63088C7.20378 4.48511 7.04662 4.36248 6.92228 4.2676ZM13.1059 2.81545C11.5319 2.62466 9.89828 2.83571 8.36662 3.49221C8.86587 3.88829 9.53945 4.44177 10.2729 5.09963C10.9747 5.72905 11.7447 6.46582 12.475 7.26076C13.8783 6.06922 14.9617 4.7254 15.5199 3.44533C14.7479 3.12839 13.9351 2.916 13.1059 2.81545Z" fill="#48465C"/>
</svg>
