<svg width="24" height="24" viewBox="0 0 24 24" fill="none" xmlns="http://www.w3.org/2000/svg">
<path d="M14.8438 14.5503C15.0958 15.3801 15.3145 16.2227 15.499 17.0132C15.7382 18.0382 15.9155 18.9571 16.0332 19.6196C16.092 19.9507 16.136 20.2181 16.165 20.4009C16.1794 20.4921 16.1902 20.5627 16.1973 20.6098L16.2051 20.6626L16.207 20.6753V20.6792L16.2598 21.0473C13.6549 22.2774 10.7411 22.2858 8.2207 21.2593L8.28906 21.0532C8.9527 19.0515 11.0086 16.8174 13.6367 15.2182C14.0315 14.9779 14.4351 14.7543 14.8438 14.5503ZM12.2695 9.31981C12.6825 9.83556 13.0526 10.3584 13.3506 10.8745C13.7243 11.5218 14.0631 12.2921 14.3652 13.1147C13.848 13.3651 13.3435 13.6412 12.8574 13.937C10.0656 15.6358 7.68332 18.1135 6.86523 20.5815V20.5825C5.44924 19.7371 4.22297 18.5292 3.33984 16.9995C2.45739 15.4711 2.02376 13.8064 1.99902 12.1587L2.14355 12.187C5.09254 12.7678 8.44742 11.7179 11.2051 10.0249C11.5677 9.80223 11.9236 9.56692 12.2695 9.31981ZM16.2266 13.9419C18.1139 13.2231 20.038 12.9466 21.7031 13.312L21.9072 13.3569C21.7854 14.2411 21.5465 15.1067 21.1963 15.9282C20.4719 17.6273 19.2734 19.1391 17.6592 20.2446L17.6465 20.1655C17.6163 19.9744 17.5704 19.6988 17.5098 19.3579C17.3887 18.6758 17.2058 17.7289 16.959 16.6714C16.7601 15.8187 16.5173 14.8795 16.2266 13.9419ZM17.1348 3.41746C18.5504 4.26282 19.7773 5.47013 20.6602 6.9995C21.5429 8.52849 21.9755 10.194 22 11.8423C20.0044 11.4109 17.8137 11.7409 15.7441 12.521C15.4234 11.6576 15.0589 10.8348 14.6494 10.1255C14.3134 9.54339 13.9039 8.96228 13.4531 8.39793C15.1817 6.9287 16.54 5.18605 17.125 3.44774L17.1348 3.41746ZM6.60938 4.03367L6.61133 4.03465L6.62109 4.04149L6.66016 4.07078C6.695 4.09658 6.74715 4.13518 6.81445 4.18602C6.94948 4.28801 7.1462 4.4386 7.38867 4.63035C7.87394 5.01413 8.54169 5.56164 9.27051 6.21532C9.93022 6.80703 10.6281 7.47585 11.2822 8.18016C11.0032 8.37594 10.7158 8.56547 10.4209 8.74657C7.83434 10.3347 4.87021 11.1952 2.43359 10.7153L2.09082 10.6479C2.46012 7.95471 3.91953 5.43762 6.28125 3.79539L6.60938 4.03367ZM7.69629 2.97313C9.45869 2.13059 11.3643 1.84887 13.1953 2.07078C14.0826 2.17834 14.9529 2.40451 15.7803 2.74168L15.7031 2.9702C15.2259 4.38804 14.0527 5.9203 12.4746 7.26024C11.7443 6.46527 10.9742 5.72852 10.2725 5.0991C9.5153 4.41998 8.82205 3.8529 8.31836 3.45457C8.06651 3.2554 7.86171 3.09772 7.71875 2.98973L7.69629 2.97313Z" fill="#48465C"/>
</svg>
