<svg width="24" height="24" viewBox="0 0 24 24" fill="none" xmlns="http://www.w3.org/2000/svg">
<path fill-rule="evenodd" clip-rule="evenodd" d="M15.6485 20.2422C14.8074 21.3112 13.4858 22 12.0001 22C10.5144 22 9.1927 21.3113 8.35162 20.2422C10.7734 20.5704 13.2267 20.5703 15.6485 20.2422ZM12.0001 2C15.7275 2 18.7491 5.13401 18.7491 9V9.7041C18.7491 10.5491 18.9905 11.3751 19.4424 12.0781L20.5499 13.8008C21.5615 15.3745 20.7887 17.514 19.0294 18.0117C14.4273 19.3134 9.57293 19.3134 4.97076 18.0117C3.21145 17.514 2.43871 15.3745 3.45025 13.8008L4.55767 12.0781C5.00959 11.3751 5.25103 10.5491 5.25103 9.7041V9C5.25103 5.13403 8.27264 2.00003 12.0001 2ZM10.0713 8.25C9.67219 8.25026 9.34869 8.58594 9.34869 9C9.34869 9.41405 9.67219 9.74974 10.0713 9.75H12.1827L9.5606 12.4697C9.3538 12.6842 9.29146 13.0069 9.40337 13.2871C9.51523 13.5673 9.77905 13.7498 10.0713 13.75H13.9288C14.328 13.7498 14.6514 13.4141 14.6514 13C14.6514 12.5859 14.328 12.2502 13.9288 12.25H11.8174L14.4395 9.53027C14.6463 9.31577 14.7086 8.99314 14.5967 8.71289C14.4849 8.43275 14.2211 8.25015 13.9288 8.25H10.0713Z" fill="#48465C"/>
</svg>
