<svg width="24" height="24" viewBox="0 0 24 24" fill="none" xmlns="http://www.w3.org/2000/svg">
<path fill-rule="evenodd" clip-rule="evenodd" d="M15.6485 20.2422C14.8074 21.3113 13.4858 22 12.0001 22C10.5144 22 9.1927 21.3113 8.35162 20.2422C10.7734 20.5704 13.2267 20.5704 15.6485 20.2422ZM12.0001 2C15.7275 2 18.7491 5.13401 18.7491 9V9.7041C18.7491 10.5491 18.9905 11.3751 19.4424 12.0781L20.5499 13.8008C21.5615 15.3745 20.7887 17.514 19.0294 18.0117C14.4273 19.3134 9.57293 19.3134 4.97076 18.0117C3.21145 17.514 2.43871 15.3745 3.45025 13.8008L4.55767 12.0781C5.00959 11.3751 5.25103 10.5491 5.25103 9.7041V9C5.25103 5.13403 8.27264 2.00003 12.0001 2Z" fill="#48465C"/>
</svg>
