<svg width="24" height="24" viewBox="0 0 24 24" fill="none" xmlns="http://www.w3.org/2000/svg">
<path fill-rule="evenodd" clip-rule="evenodd" d="M12.0001 1.25C16.2802 1.25005 19.7501 4.71982 19.7501 9V9.7041C19.7501 10.401 19.9564 11.0823 20.3428 11.6621L21.4913 13.3848C22.8244 15.3844 21.8069 18.103 19.4884 18.7354C18.7328 18.9414 17.9705 19.1152 17.2042 19.2578L17.2022 19.2637C16.4331 21.3153 14.3778 22.7499 12.0001 22.75C9.62229 22.75 7.56707 21.3153 6.79793 19.2637L6.79598 19.2578C6.02962 19.1152 5.26735 18.9414 4.5118 18.7354C2.19321 18.1031 1.17578 15.3845 2.50887 13.3848L3.6573 11.6621C4.04381 11.0823 4.25008 10.4009 4.25008 9.7041V9C4.25008 4.71979 7.71984 1.25 12.0001 1.25ZM15.3761 19.5371C13.1332 19.8051 10.866 19.8051 8.62312 19.5371C9.33407 20.5587 10.5711 21.25 12.0001 21.25C13.4289 21.2499 14.6651 20.5584 15.3761 19.5371ZM12.0001 2.75C8.54827 2.75 5.75008 5.54822 5.75008 9V9.7041C5.75008 10.6971 5.45611 11.6679 4.90535 12.4941L3.75691 14.2168C2.99174 15.3645 3.5755 16.9251 4.90633 17.2881C9.55059 18.5547 14.4495 18.5547 19.0938 17.2881C20.4245 16.925 21.0083 15.3644 20.2432 14.2168L19.0948 12.4941C18.5439 11.6679 18.2501 10.6972 18.2501 9.7041V9C18.2501 5.54825 15.4517 2.75005 12.0001 2.75Z" fill="#48465C"/>
</svg>
