<svg width="24" height="24" viewBox="0 0 24 24" fill="none" xmlns="http://www.w3.org/2000/svg">
<path d="M12 1.25C16.2802 1.25005 19.75 4.71982 19.75 9V9.7041C19.75 10.401 19.9563 11.0823 20.3428 11.6621L21.4912 13.3848C22.8243 15.3844 21.8068 18.103 19.4883 18.7354C18.7327 18.9414 17.9705 19.1152 17.2041 19.2578L17.2021 19.2637C16.4331 21.3153 14.3778 22.7499 12 22.75C9.62221 22.75 7.567 21.3153 6.79785 19.2637L6.7959 19.2578C6.02955 19.1152 5.26727 18.9414 4.51172 18.7354C2.19313 18.1031 1.1757 15.3845 2.50879 13.3848L3.65723 11.6621C4.04374 11.0823 4.25 10.4009 4.25 9.7041V9C4.25 4.71979 7.71976 1.25 12 1.25ZM15.376 19.5371C13.1331 19.8051 10.8659 19.8051 8.62305 19.5371C9.334 20.5587 10.571 21.25 12 21.25C13.4288 21.2499 14.665 20.5584 15.376 19.5371ZM12 2.75C8.54819 2.75 5.75 5.54822 5.75 9V9.7041C5.75 10.6971 5.45604 11.6679 4.90527 12.4941L3.75684 14.2168C2.99167 15.3645 3.57542 16.9251 4.90625 17.2881C9.55051 18.5547 14.4495 18.5547 19.0938 17.2881C20.4244 16.925 21.0082 15.3644 20.2432 14.2168L19.0947 12.4941C18.5439 11.6679 18.25 10.6972 18.25 9.7041V9C18.25 5.54825 15.4517 2.75005 12 2.75Z" fill="#48465C"/>
</svg>
