<svg width="24" height="24" viewBox="0 0 24 24" fill="none" xmlns="http://www.w3.org/2000/svg">
<path fill-rule="evenodd" clip-rule="evenodd" d="M17.7061 1.25001C17.9773 1.24998 18.1648 1.24949 18.3301 1.26466C20.1682 1.43339 21.5812 2.95248 21.7363 4.81055C21.7503 4.97904 21.75 5.17088 21.75 5.45899V20.2598C21.75 21.0314 21.2678 21.615 20.6563 21.8291C20.0397 22.0447 19.2902 21.8813 18.832 21.2402C18.8155 21.2172 18.8002 21.206 18.7891 21.2002C18.7768 21.194 18.7632 21.1914 18.75 21.1914C18.737 21.1914 18.724 21.1942 18.7119 21.2002C18.7007 21.206 18.6846 21.2171 18.668 21.2402L18.2354 21.8457C17.3738 23.051 15.6263 23.051 14.7647 21.8457C14.5013 21.4777 13.9987 21.4777 13.7354 21.8457C12.8738 23.051 11.1263 23.051 10.2647 21.8457C10.0013 21.4777 9.49871 21.4777 9.23536 21.8457C8.37373 23.051 6.62629 23.051 5.76465 21.8457L5.33204 21.2402C5.31543 21.2171 5.29928 21.206 5.28809 21.2002C5.276 21.1942 5.26301 21.1914 5.25 21.1914C5.23701 21.1914 5.22401 21.1942 5.21192 21.2002C5.20073 21.206 5.18458 21.2171 5.16797 21.2402C4.70971 21.8813 3.96035 22.0447 3.34375 21.8291C2.73215 21.615 2.25 21.0314 2.25 20.2598V5.45899C2.24998 5.17088 2.24963 4.97905 2.26368 4.81055C2.41878 2.95247 3.83186 1.43339 5.66993 1.26466C5.83529 1.24949 6.02272 1.24998 6.29395 1.25001H17.7061ZM6.33301 2.75001C6.0071 2.75001 5.89427 2.75076 5.80664 2.7588C4.74437 2.85654 3.8576 3.75062 3.75879 4.93555C3.75062 5.03348 3.75 5.15736 3.75 5.49708V20.2598C3.75 20.3208 3.7663 20.3526 3.77832 20.3691C3.79292 20.3891 3.81466 20.4045 3.83887 20.4131C3.86325 20.4216 3.88249 20.4199 3.89258 20.417C3.8982 20.4153 3.91855 20.4083 3.94727 20.3682C4.59256 19.4655 5.90745 19.4655 6.55274 20.3682L6.98536 20.9736C7.24872 21.342 7.75128 21.342 8.01465 20.9736C8.87628 19.7682 10.6238 19.7682 11.4854 20.9736C11.7488 21.342 12.2513 21.3419 12.5147 20.9736C13.3763 19.7682 15.1238 19.7682 15.9854 20.9736C16.2488 21.342 16.7513 21.3419 17.0147 20.9736L17.4473 20.3682C18.0925 19.4655 19.4074 19.4655 20.0527 20.3682C20.0817 20.4088 20.1021 20.4154 20.1074 20.417C20.1175 20.42 20.1367 20.4216 20.1611 20.4131C20.1853 20.4045 20.2071 20.3891 20.2217 20.3691C20.2337 20.3526 20.25 20.3208 20.25 20.2598V5.49708C20.25 5.15736 20.2493 5.03348 20.2412 4.93555C20.1424 3.75062 19.2557 2.85654 18.1934 2.7588C18.1058 2.75076 17.9929 2.75001 17.667 2.75001H6.33301ZM16.5 14.75C16.9142 14.75 17.25 15.0858 17.25 15.5C17.25 15.9142 16.9142 16.25 16.5 16.25H7.5C7.0858 16.25 6.75 15.9142 6.75 15.5C6.75001 15.0858 7.0858 14.75 7.5 14.75H16.5ZM13.4697 7.46973C13.7626 7.17686 14.2374 7.1769 14.5303 7.46973C14.8231 7.76263 14.8231 8.23739 14.5303 8.53028L13.0606 10L14.5303 11.4697C14.8232 11.7626 14.8232 12.2374 14.5303 12.5303C14.2374 12.8232 13.7626 12.8232 13.4697 12.5303L12 11.0606L10.5303 12.5303C10.2374 12.8231 9.76261 12.8232 9.46973 12.5303C9.17686 12.2374 9.17685 11.7626 9.46973 11.4697L10.9395 10L9.46973 8.53028C9.17687 8.23738 9.17685 7.76262 9.46973 7.46973C9.7626 7.17685 10.2374 7.17688 10.5303 7.46973L12 8.93946L13.4697 7.46973Z" fill="#48465C"/>
</svg>
