<svg width="24" height="24" viewBox="0 0 24 24" fill="none" xmlns="http://www.w3.org/2000/svg">
<path d="M17.7061 1.25001C17.9773 1.24998 18.1648 1.24949 18.3301 1.26466C20.1682 1.43339 21.5812 2.95248 21.7363 4.81055C21.7503 4.97904 21.75 5.17088 21.75 5.45899V20.2598C21.75 21.0314 21.2678 21.615 20.6562 21.8291C20.0396 22.0447 19.2902 21.8813 18.832 21.2402C18.8155 21.2172 18.8002 21.206 18.7891 21.2002C18.7768 21.194 18.7632 21.1914 18.75 21.1914C18.737 21.1914 18.724 21.1942 18.7119 21.2002C18.7007 21.206 18.6846 21.2171 18.668 21.2402L18.2353 21.8457C17.3737 23.051 15.6262 23.051 14.7646 21.8457C14.5013 21.4777 13.9987 21.4777 13.7353 21.8457C12.8737 23.051 11.1262 23.051 10.2646 21.8457C10.0013 21.4777 9.4987 21.4777 9.23535 21.8457C8.37372 23.051 6.62628 23.051 5.76464 21.8457L5.33203 21.2402C5.31542 21.2171 5.29927 21.206 5.28808 21.2002C5.27599 21.1942 5.263 21.1914 5.25 21.1914C5.237 21.1914 5.22401 21.1942 5.21191 21.2002C5.20072 21.206 5.18458 21.2171 5.16797 21.2402C4.70971 21.8813 3.96035 22.0447 3.34375 21.8291C2.73214 21.615 2.25 21.0314 2.25 20.2598V5.45899C2.24998 5.17088 2.24962 4.97905 2.26367 4.81055C2.41877 2.95247 3.83185 1.43339 5.66992 1.26466C5.83528 1.24949 6.02271 1.24998 6.29394 1.25001H17.7061ZM6.333 2.75001C6.00709 2.75001 5.89427 2.75076 5.80664 2.7588C4.74436 2.85654 3.8576 3.75062 3.75879 4.93555C3.75062 5.03348 3.75 5.15736 3.75 5.49708V20.2598C3.75 20.3208 3.7663 20.3526 3.77832 20.3691C3.79292 20.3891 3.81465 20.4045 3.83886 20.4131C3.86324 20.4216 3.88248 20.4199 3.89257 20.417C3.8982 20.4153 3.91854 20.4083 3.94726 20.3682C4.59255 19.4655 5.90744 19.4655 6.55273 20.3682L6.98535 20.9736C7.24871 21.342 7.75128 21.342 8.01464 20.9736C8.87627 19.7682 10.6237 19.7682 11.4853 20.9736C11.7487 21.342 12.2512 21.3419 12.5146 20.9736C13.3762 19.7682 15.1237 19.7682 15.9853 20.9736C16.2487 21.342 16.7512 21.3419 17.0146 20.9736L17.4473 20.3682C18.0924 19.4655 19.4074 19.4655 20.0527 20.3682C20.0817 20.4088 20.1021 20.4154 20.1074 20.417C20.1175 20.42 20.1367 20.4216 20.1611 20.4131C20.1853 20.4045 20.2071 20.3891 20.2217 20.3691C20.2337 20.3526 20.25 20.3208 20.25 20.2598V5.49708C20.25 5.15736 20.2493 5.03348 20.2412 4.93555C20.1424 3.75062 19.2557 2.85654 18.1934 2.7588C18.1058 2.75076 17.9929 2.75001 17.667 2.75001H6.333ZM16.5 14.75C16.9142 14.75 17.25 15.0858 17.25 15.5C17.25 15.9142 16.9142 16.25 16.5 16.25H7.5C7.08579 16.25 6.75 15.9142 6.75 15.5C6.75 15.0858 7.08579 14.75 7.5 14.75H16.5ZM13.4697 7.46973C13.7626 7.17686 14.2374 7.1769 14.5303 7.46973C14.8231 7.76263 14.8231 8.23739 14.5303 8.53028L13.0605 10L14.5303 11.4697C14.8232 11.7626 14.8232 12.2374 14.5303 12.5303C14.2374 12.8232 13.7626 12.8232 13.4697 12.5303L12 11.0606L10.5303 12.5303C10.2374 12.8231 9.7626 12.8232 9.46972 12.5303C9.17685 12.2374 9.17684 11.7626 9.46972 11.4697L10.9394 10L9.46972 8.53028C9.17686 8.23738 9.17684 7.76262 9.46972 7.46973C9.7626 7.17685 10.2374 7.17688 10.5303 7.46973L12 8.93946L13.4697 7.46973Z" fill="#48465C"/>
</svg>
