<svg width="24" height="24" viewBox="0 0 24 24" fill="none" xmlns="http://www.w3.org/2000/svg">
<path d="M16.9014 1.25004C17.9179 1.2496 18.6178 1.24917 19.207 1.45414C20.3198 1.84136 21.1842 2.73712 21.5547 3.86528C21.7508 4.46239 21.7504 5.17261 21.75 6.2266V20.3741C21.75 21.8393 20.0231 22.7117 18.8857 21.6709C18.8062 21.5983 18.6937 21.5983 18.6143 21.6709L18.1318 22.1133C17.2037 22.9625 15.7973 22.9624 14.8691 22.1133C14.5142 21.7885 13.9868 21.7886 13.6318 22.1133C12.7037 22.9625 11.2973 22.9624 10.3691 22.1133C10.0142 21.7885 9.48682 21.7886 9.13183 22.1133C8.20374 22.9625 6.79732 22.9624 5.86914 22.1133L5.38574 21.6709C5.30626 21.5983 5.19372 21.5983 5.11426 21.6709C3.97683 22.7116 2.25 21.8392 2.25 20.3741V6.2266C2.24962 5.17262 2.24926 4.46239 2.44531 3.86528C2.81583 2.73709 3.68011 1.84137 4.79297 1.45414C5.38224 1.24911 6.08202 1.2496 7.09863 1.25004H16.9014ZM7.24512 2.75004C6.02421 2.75004 5.60358 2.76072 5.28613 2.87113C4.62675 3.10057 4.09968 3.63781 3.87109 4.33403C3.7601 4.67232 3.75 5.11835 3.75 6.37016V20.3741C3.75 20.4928 3.80982 20.5657 3.88476 20.6006C3.92377 20.6186 3.9623 20.6234 3.99414 20.6192C4.02224 20.6154 4.0589 20.6035 4.10156 20.5645C4.75424 19.9672 5.74576 19.9672 6.39844 20.5645L6.88183 21.0069C7.23682 21.3313 7.76428 21.3316 8.11914 21.0069C9.04733 20.1575 10.4537 20.1575 11.3818 21.0069C11.7368 21.3313 12.2643 21.3316 12.6191 21.0069C13.5473 20.1575 14.9536 20.1575 15.8818 21.0069C16.2368 21.3313 16.7643 21.3316 17.1191 21.0069L17.6016 20.5645C18.2543 19.9672 19.2457 19.9672 19.8984 20.5645C19.9412 20.6035 19.9778 20.6154 20.0059 20.6192C20.0377 20.6234 20.0761 20.6187 20.1152 20.6006C20.1903 20.5658 20.25 20.493 20.25 20.3741V6.37016C20.25 5.11863 20.2408 4.67229 20.1299 4.33403C19.9013 3.63781 19.3733 3.10057 18.7139 2.87113C18.3965 2.76077 17.9756 2.75004 16.7549 2.75004H7.24512ZM7.5 13.75C7.91416 13.75 8.24992 14.0859 8.25 14.5C8.25 14.9142 7.91421 15.25 7.5 15.25H7C6.58583 15.25 6.25 14.9142 6.25 14.5C6.25008 14.0859 6.58587 13.7501 7 13.75H7.5ZM17 13.75C17.4142 13.75 17.7499 14.0859 17.75 14.5C17.75 14.9142 17.4142 15.25 17 15.25H10.5C10.0858 15.25 9.75 14.9142 9.75 14.5C9.75008 14.0859 10.0859 13.7501 10.5 13.75H17ZM7.5 10.25C7.91416 10.25 8.24992 10.5859 8.25 11C8.25 11.4142 7.91421 11.75 7.5 11.75H7C6.58583 11.75 6.25 11.4142 6.25 11C6.25008 10.5859 6.58587 10.2501 7 10.25H7.5ZM17 10.25C17.4142 10.25 17.7499 10.5859 17.75 11C17.75 11.4142 17.4142 11.75 17 11.75H10.5C10.0858 11.75 9.75 11.4142 9.75 11C9.75008 10.5859 10.0859 10.2501 10.5 10.25H17ZM7.5 6.75004C7.91417 6.75004 8.24993 7.08589 8.25 7.50004C8.25 7.91426 7.91421 8.25004 7.5 8.25004H7C6.58583 8.24998 6.25 7.91423 6.25 7.50004C6.25006 7.08592 6.58587 6.7501 7 6.75004H7.5ZM17 6.75004C17.4142 6.75004 17.7499 7.08589 17.75 7.50004C17.75 7.91426 17.4142 8.25004 17 8.25004H10.5C10.0858 8.24998 9.75 7.91423 9.75 7.50004C9.75006 7.08592 10.0859 6.7501 10.5 6.75004H17Z" fill="#48465C"/>
</svg>
