<svg width="24" height="24" viewBox="0 0 24 24" fill="none" xmlns="http://www.w3.org/2000/svg">
<path fill-rule="evenodd" clip-rule="evenodd" d="M16.9014 1.25004C17.918 1.2496 18.6178 1.24917 19.2071 1.45414C20.3198 1.84136 21.1843 2.73712 21.5547 3.86528C21.7508 4.46239 21.7504 5.17261 21.75 6.2266V20.3741C21.75 21.8393 20.0232 22.7117 18.8858 21.6709C18.8063 21.5983 18.6938 21.5983 18.6143 21.6709L18.1319 22.1133C17.2038 22.9625 15.7974 22.9624 14.8692 22.1133C14.5142 21.7885 13.9869 21.7886 13.6319 22.1133C12.7038 22.9625 11.2974 22.9624 10.3692 22.1133C10.0142 21.7885 9.48686 21.7886 9.13187 22.1133C8.20377 22.9625 6.79736 22.9624 5.86917 22.1133L5.38578 21.6709C5.3063 21.5983 5.19376 21.5983 5.11429 21.6709C3.97686 22.7116 2.25003 21.8392 2.25003 20.3741V6.2266C2.24965 5.17262 2.2493 4.46239 2.44535 3.86528C2.81586 2.73709 3.68014 1.84137 4.793 1.45414C5.38228 1.24911 6.08205 1.2496 7.09867 1.25004H16.9014ZM7.24515 2.75004C6.02425 2.75004 5.60362 2.76072 5.28617 2.87113C4.62679 3.10057 4.09972 3.63781 3.87113 4.33403C3.76013 4.67232 3.75003 5.11835 3.75003 6.37016V20.3741C3.75003 20.4928 3.80985 20.5657 3.8848 20.6006C3.9238 20.6187 3.96234 20.6234 3.99417 20.6192C4.02227 20.6154 4.05893 20.6035 4.1016 20.5645C4.75428 19.9672 5.74579 19.9672 6.39847 20.5645L6.88187 21.0069C7.23686 21.3313 7.76432 21.3316 8.11917 21.0069C9.04736 20.1575 10.4537 20.1575 11.3819 21.0069C11.7369 21.3313 12.2643 21.3316 12.6192 21.0069C13.5474 20.1575 14.9537 20.1575 15.8819 21.0069C16.2369 21.3313 16.7643 21.3316 17.1192 21.0069L17.6016 20.5645C18.2543 19.9672 19.2458 19.9672 19.8985 20.5645C19.9412 20.6035 19.9778 20.6154 20.0059 20.6192C20.0378 20.6234 20.0762 20.6187 20.1153 20.6006C20.1903 20.5658 20.25 20.493 20.25 20.3741V6.37016C20.25 5.11863 20.2409 4.67229 20.1299 4.33403C19.9013 3.63781 19.3733 3.10057 18.7139 2.87113C18.3965 2.76077 17.9756 2.75004 16.7549 2.75004H7.24515ZM7.50003 13.75C7.9142 13.75 8.24996 14.0859 8.25003 14.5C8.25003 14.9142 7.91424 15.25 7.50003 15.25H7.00003C6.58586 15.25 6.25003 14.9142 6.25003 14.5C6.25011 14.0859 6.58591 13.7501 7.00003 13.75H7.50003ZM17 13.75C17.4142 13.75 17.75 14.0859 17.75 14.5C17.75 14.9142 17.4142 15.25 17 15.25H10.5C10.0859 15.25 9.75003 14.9142 9.75003 14.5C9.75011 14.0859 10.0859 13.7501 10.5 13.75H17ZM7.50003 10.25C7.9142 10.25 8.24996 10.5859 8.25003 11C8.25003 11.4142 7.91424 11.75 7.50003 11.75H7.00003C6.58586 11.75 6.25003 11.4142 6.25003 11C6.25011 10.5859 6.58591 10.2501 7.00003 10.25H7.50003ZM17 10.25C17.4142 10.25 17.75 10.5859 17.75 11C17.75 11.4142 17.4142 11.75 17 11.75H10.5C10.0859 11.75 9.75003 11.4142 9.75003 11C9.75011 10.5859 10.0859 10.2501 10.5 10.25H17ZM7.50003 6.75004C7.9142 6.75004 8.24997 7.08589 8.25003 7.50004C8.25003 7.91426 7.91424 8.25004 7.50003 8.25004H7.00003C6.58586 8.24998 6.25003 7.91423 6.25003 7.50004C6.2501 7.08592 6.5859 6.7501 7.00003 6.75004H7.50003ZM17 6.75004C17.4142 6.75004 17.75 7.08589 17.75 7.50004C17.75 7.91426 17.4142 8.25004 17 8.25004H10.5C10.0859 8.24998 9.75003 7.91423 9.75003 7.50004C9.7501 7.08592 10.0859 6.7501 10.5 6.75004H17Z" fill="#48465C"/>
</svg>
