<svg width="24" height="24" viewBox="0 0 24 24" fill="none" xmlns="http://www.w3.org/2000/svg">
<path d="M16.9014 1.25004C17.9179 1.2496 18.6178 1.24917 19.207 1.45414C20.3199 1.84136 21.1842 2.73712 21.5547 3.86528C21.7508 4.46239 21.7504 5.17261 21.75 6.2266V20.3741C21.75 21.8393 20.0231 22.7117 18.8857 21.6709C18.8062 21.5983 18.6937 21.5983 18.6143 21.6709L18.1318 22.1133C17.2037 22.9625 15.7973 22.9624 14.8691 22.1133C14.5142 21.7885 13.9868 21.7886 13.6318 22.1133C12.7037 22.9625 11.2973 22.9624 10.3691 22.1133C10.0142 21.7885 9.48683 21.7886 9.13184 22.1133C8.20374 22.9625 6.79734 22.9624 5.86914 22.1133L5.38575 21.6709C5.30627 21.5983 5.19372 21.5983 5.11426 21.6709C3.97683 22.7116 2.25 21.8392 2.25 20.3741V6.2266C2.24962 5.17262 2.24926 4.46239 2.44532 3.86528C2.81583 2.73709 3.68011 1.84137 4.79297 1.45414C5.38225 1.24911 6.08201 1.2496 7.09864 1.25004H16.9014ZM7.24512 2.75004C6.02422 2.75004 5.60359 2.76072 5.28614 2.87113C4.62676 3.10057 4.09969 3.63781 3.8711 4.33403C3.76009 4.67232 3.75 5.11835 3.75 6.37016V20.3741C3.75 20.4928 3.80982 20.5657 3.88477 20.6006C3.92377 20.6187 3.96231 20.6234 3.99414 20.6192C4.02224 20.6154 4.05889 20.6035 4.10157 20.5645C4.75425 19.9672 5.74577 19.9672 6.39844 20.5645L6.88184 21.0069C7.23683 21.3313 7.76429 21.3316 8.11914 21.0069C9.04733 20.1575 10.4537 20.1575 11.3818 21.0069C11.7368 21.3313 12.2643 21.3316 12.6191 21.0069C13.5473 20.1575 14.9537 20.1575 15.8818 21.0069C16.2368 21.3313 16.7643 21.3316 17.1191 21.0069L17.6016 20.5645C18.2543 19.9672 19.2457 19.9672 19.8984 20.5645C19.9412 20.6035 19.9778 20.6154 20.0059 20.6192C20.0377 20.6234 20.0761 20.6187 20.1152 20.6006C20.1903 20.5658 20.25 20.493 20.25 20.3741V6.37016C20.25 5.11864 20.2408 4.67229 20.1299 4.33403C19.9013 3.63781 19.3733 3.10057 18.7139 2.87113C18.3965 2.76077 17.9756 2.75004 16.7549 2.75004H7.24512ZM16.5 14.75C16.9142 14.75 17.2499 15.0859 17.25 15.5C17.25 15.9142 16.9142 16.25 16.5 16.25H7.5C7.08583 16.25 6.75 15.9142 6.75 15.5C6.75008 15.0859 7.08588 14.7501 7.5 14.75H16.5ZM13.9404 7.50102C14.2162 7.19204 14.691 7.1646 15 7.44047C15.3089 7.71635 15.3353 8.19111 15.0596 8.50004L11.4883 12.5C11.346 12.6594 11.1423 12.75 10.9287 12.75C10.7151 12.75 10.5114 12.6593 10.3691 12.5L8.94043 10.8995C8.66478 10.5904 8.69209 10.1167 9.00098 9.84086C9.30992 9.56517 9.78369 9.59163 10.0596 9.90043L10.9287 10.8741L13.9404 7.50102Z" fill="#48465C"/>
</svg>
