<svg width="24" height="24" viewBox="0 0 24 24" fill="none" xmlns="http://www.w3.org/2000/svg">
<path d="M8.2629 1.41886C8.89808 1.09389 9.53371 1.29316 10.0539 1.55851C10.5648 1.8191 11.181 2.25633 11.9104 2.77433L13.7424 4.07609C14.2827 4.4597 14.7547 4.79515 15.0842 5.11027C15.4349 5.44567 15.7501 5.8743 15.7502 6.4589C15.7502 7.04375 15.435 7.47303 15.0842 7.80851C14.7547 8.12362 14.2827 8.45909 13.7424 8.84269L9.29512 12.0009L13.7424 15.1591C14.2826 15.5426 14.7547 15.8771 15.0842 16.1923C15.435 16.5277 15.7502 16.9571 15.7502 17.5419C15.7501 18.1267 15.435 18.5561 15.0842 18.8915C14.7547 19.2065 14.2825 19.5412 13.7424 19.9247L11.9104 21.2265C11.181 21.7445 10.5648 22.1817 10.0539 22.4423C9.53371 22.7076 8.89808 22.9078 8.2629 22.5829C7.62604 22.257 7.41964 21.6236 7.33419 21.0468C7.25044 20.4814 7.25016 19.7283 7.2502 18.8378V13.4413L3.42989 16.1152C3.0906 16.3523 2.62342 16.2697 2.38594 15.9306C2.1484 15.5912 2.23117 15.1232 2.57051 14.8857L6.69258 12.0009L2.57051 9.11515C2.23117 8.87761 2.1484 8.40957 2.38594 8.07023C2.62343 7.73123 3.09066 7.64856 3.42989 7.88566L7.2502 10.5605V5.16398C7.25016 4.2733 7.25043 3.51949 7.33419 2.95402C7.41965 2.37734 7.62636 1.74476 8.2629 1.41886ZM8.7502 18.7763C8.7502 19.745 8.75211 20.385 8.81758 20.8271C8.84927 21.041 8.8896 21.1538 8.91915 21.2099C8.93161 21.2334 8.94006 21.2435 8.94063 21.2441C8.94077 21.2443 8.94216 21.2448 8.94649 21.247C8.95098 21.2493 8.95333 21.2499 8.95333 21.2499C8.95592 21.2503 8.96887 21.2518 8.9963 21.248C9.06102 21.2391 9.17822 21.2054 9.37227 21.1064C9.77296 20.9019 10.2983 20.5306 11.091 19.9677L12.8293 18.7343C13.4277 18.3094 13.8068 18.0372 14.0471 17.8075C14.1608 17.6987 14.2122 17.6274 14.2346 17.5868C14.2502 17.5584 14.2503 17.5485 14.2502 17.5429V17.5409C14.2503 17.5354 14.2505 17.525 14.2346 17.496C14.2121 17.4554 14.1606 17.3848 14.0471 17.2763C13.8068 17.0465 13.4278 16.7745 12.8293 16.3495L8.7502 13.453V18.7763ZM18.5412 4.40714C18.8415 4.17426 19.2754 4.20218 19.5432 4.48332L19.5461 4.48625L19.549 4.49015L19.5588 4.49992C19.5656 4.50732 19.574 4.51678 19.5842 4.52824C19.6052 4.55197 19.6336 4.58466 19.6672 4.62589C19.7346 4.70837 19.8248 4.82669 19.9309 4.98136C20.143 5.29079 20.4167 5.74694 20.6867 6.36125C21.2279 7.59247 21.7502 9.44546 21.7502 12.0009C21.7502 14.556 21.2279 16.4084 20.6867 17.6396C20.4167 18.2539 20.143 18.711 19.9309 19.0204C19.825 19.1748 19.7345 19.2925 19.6672 19.3749C19.6336 19.4161 19.6052 19.4489 19.5842 19.4726C19.5738 19.4843 19.5656 19.4944 19.5588 19.5019L19.5441 19.5165C19.5416 19.5144 19.5061 19.4829 19.0246 19.0243L19.5432 19.5175C19.2575 19.8175 18.7825 19.8295 18.4826 19.5439C18.184 19.2594 18.1715 18.7873 18.4533 18.4872L18.4602 18.4794C18.4685 18.4699 18.4841 18.4523 18.5051 18.4267C18.5472 18.3752 18.613 18.2906 18.6945 18.1718C18.8573 17.9344 19.0837 17.5591 19.3137 17.0361C19.7724 15.9923 20.2502 14.3451 20.2502 12.0009C20.2502 9.65629 19.7725 8.00854 19.3137 6.96476C19.0837 6.44158 18.8573 6.06646 18.6945 5.82902C18.6131 5.71027 18.5472 5.62564 18.5051 5.57414C18.4842 5.54859 18.4685 5.53178 18.4602 5.52238L18.4533 5.51457L18.4553 5.51554L18.4563 5.51652L18.5412 4.40714ZM16.7209 7.30461C17.0734 7.16267 17.4835 7.30775 17.6643 7.65129V7.65226L17.6662 7.65519L17.6691 7.66203L17.6799 7.68254C17.689 7.70037 17.7016 7.726 17.717 7.75773C17.748 7.82111 17.7913 7.91125 17.842 8.02531C17.9434 8.25342 18.0767 8.57864 18.2102 8.97257C18.4749 9.75383 18.7502 10.8397 18.7502 12.0009C18.7501 13.162 18.4749 14.248 18.2102 15.0292C18.0767 15.4229 17.9434 15.7475 17.842 15.9755C17.7912 16.0897 17.748 16.1806 17.717 16.2441L17.6662 16.3456L17.6643 16.3486V16.3495C17.4713 16.716 17.0171 16.8569 16.6506 16.664C16.2846 16.4711 16.144 16.0186 16.3361 15.6523L16.3713 14.8857L16.343 15.6396C16.3486 15.6286 16.3574 15.6102 16.3693 15.5859C16.393 15.5372 16.428 15.4627 16.4709 15.3661C16.557 15.1723 16.6737 14.8904 16.7902 14.5468C17.0253 13.8532 17.2501 12.9392 17.2502 12.0009C17.2502 11.0622 17.0254 10.1477 16.7902 9.45402C16.7399 9.30557 16.6877 9.16905 16.6399 9.04582L16.7209 7.30461ZM16.591 8.92179C16.607 8.96139 16.6232 9.00281 16.6399 9.04582L16.3713 14.8857L16.591 8.92179ZM8.94649 2.75382C8.94246 2.75589 8.94088 2.75647 8.94063 2.75675C8.94063 2.75675 8.93199 2.76667 8.91915 2.79093C8.88961 2.847 8.84927 2.96001 8.81758 3.17375C8.7521 3.61584 8.7502 4.25664 8.7502 5.2255V10.5478L12.8293 7.65129C13.4278 7.22629 13.8068 6.95431 14.0471 6.72453C14.1607 6.61583 14.2122 6.54542 14.2346 6.5048C14.2505 6.47583 14.2503 6.46542 14.2502 6.45988V6.45793C14.2503 6.45233 14.2501 6.44225 14.2346 6.41398C14.2122 6.37338 14.1608 6.30299 14.0471 6.19425C13.8068 5.96447 13.4279 5.69252 12.8293 5.2675L11.091 4.03312C10.2983 3.47023 9.77297 3.09884 9.37227 2.89445C9.17822 2.79547 9.06102 2.76177 8.9963 2.75285C8.96903 2.74912 8.95602 2.75051 8.95333 2.75089C8.95333 2.75089 8.95094 2.75155 8.94649 2.75382ZM16.591 8.92179C16.5468 8.81227 16.5068 8.7155 16.4709 8.63468C16.4279 8.53806 16.393 8.46362 16.3693 8.41496L16.3371 8.3505L16.3361 8.34953C16.1436 7.98311 16.2843 7.52974 16.6506 7.33683L16.591 8.92179Z" fill="#48465C"/>
</svg>
