<svg width="24" height="24" viewBox="0 0 24 24" fill="none" xmlns="http://www.w3.org/2000/svg">
<path fill-rule="evenodd" clip-rule="evenodd" d="M8.26276 1.41832C8.89794 1.09335 9.53357 1.29359 10.0538 1.55894C10.5646 1.81955 11.1809 2.25683 11.9102 2.77476L13.7423 4.07652C14.2825 4.46006 14.7546 4.79465 15.084 5.10972C15.4348 5.4452 15.7501 5.87449 15.7501 6.45933C15.7501 7.04418 15.4348 7.47346 15.084 7.80894C14.7546 8.12402 14.2825 8.4586 13.7423 8.84215L9.29498 12.0003L13.7423 15.1586C14.2826 15.5422 14.7545 15.8775 15.084 16.1927C15.4347 16.528 15.7499 16.9568 15.7501 17.5414C15.7501 18.1262 15.4348 18.5555 15.084 18.891C14.7545 19.2061 14.2826 19.5416 13.7423 19.9252L11.9102 21.2269C11.1808 21.7449 10.5646 22.1821 10.0538 22.4427C9.53357 22.708 8.89794 22.9073 8.26276 22.5824C7.62619 22.2565 7.41952 21.6239 7.33405 21.0472C7.25029 20.4817 7.25002 19.728 7.25006 18.8373V13.4408L3.42975 16.1146C3.09052 16.352 2.62342 16.27 2.38581 15.931C2.14832 15.5917 2.23026 15.1236 2.5694 14.8861L6.69245 12.0003L2.5694 9.11461C2.23048 8.87696 2.14838 8.40983 2.38581 8.07066C2.6233 7.73142 3.09044 7.64877 3.42975 7.88609L7.25006 10.5599V5.16343C7.25002 4.27285 7.25029 3.51987 7.33405 2.95445C7.41949 2.37759 7.62586 1.74423 8.26276 1.41832ZM8.75006 18.7757C8.75006 19.7446 8.75197 20.3854 8.81745 20.8275C8.8491 21.041 8.88949 21.1532 8.91901 21.2093C8.93061 21.2313 8.93879 21.2416 8.94049 21.2435C8.94049 21.2435 8.94143 21.2449 8.94635 21.2474C8.95074 21.2496 8.95319 21.2503 8.95319 21.2503C8.95602 21.2507 8.96909 21.2522 8.99616 21.2484C9.06088 21.2395 9.17808 21.2058 9.37213 21.1068C9.77282 20.9024 10.2982 20.5311 11.0909 19.9681L12.8292 18.7337C13.4277 18.3087 13.8067 18.0367 14.0469 17.807C14.1606 17.6982 14.212 17.6279 14.2344 17.5873C14.2503 17.5584 14.2502 17.5479 14.2501 17.5423V17.5404C14.2501 17.5348 14.2499 17.5246 14.2344 17.4964C14.212 17.4558 14.1606 17.3854 14.0469 17.2767C13.8067 17.0469 13.4277 16.775 12.8292 16.35L8.75006 13.4535V18.7757ZM18.5411 4.40758C18.8414 4.17458 19.2752 4.20256 19.543 4.48375L19.5587 4.49937C19.5655 4.50687 19.5737 4.51695 19.584 4.52867C19.605 4.5524 19.6335 4.58509 19.6671 4.62633C19.7344 4.70873 19.8248 4.82647 19.9307 4.98082C20.1428 5.29025 20.4166 5.74736 20.6866 6.36168C21.2277 7.59285 21.75 9.44527 21.7501 12.0003C21.7501 14.5557 21.2278 16.4088 20.6866 17.64C20.4166 18.2543 20.1428 18.7105 19.9307 19.0199C19.8246 19.1746 19.7344 19.2929 19.6671 19.3753C19.6335 19.4165 19.605 19.4483 19.584 19.472C19.5737 19.4838 19.5655 19.4939 19.5587 19.5013L19.5489 19.5111L19.546 19.515L19.544 19.517C19.5434 19.5165 19.5252 19.5017 19.0245 19.0248L19.543 19.5179C19.2573 19.8179 18.7824 19.8289 18.4825 19.5433C18.1841 19.2588 18.1713 18.7867 18.4532 18.4867L18.46 18.4789C18.4684 18.4694 18.484 18.4518 18.5049 18.4261C18.5471 18.3746 18.613 18.2898 18.6944 18.1712C18.8572 17.9338 19.0837 17.5592 19.3135 17.0365C19.7723 15.9927 20.2501 14.3448 20.2501 12.0003C20.25 9.65613 19.7723 8.00895 19.3135 6.96519C19.0836 6.44218 18.8572 6.0669 18.6944 5.82945C18.6129 5.71068 18.547 5.62608 18.5049 5.57457C18.484 5.54883 18.4684 5.53125 18.46 5.52183L18.4551 5.51597L18.4561 5.51695L18.5411 4.40758ZM16.7208 7.30504C17.0732 7.16306 17.4833 7.30816 17.6641 7.65172V7.65269L17.6661 7.65465L17.669 7.66148L17.7169 7.75718C17.7479 7.8206 17.7911 7.91151 17.8419 8.02574C17.9432 8.25378 18.0766 8.57834 18.21 8.97203C18.4748 9.75324 18.75 10.8392 18.7501 12.0003C18.7501 13.1615 18.4748 14.2474 18.21 15.0287C18.0765 15.4226 17.9433 15.7478 17.8419 15.9759C17.7911 16.0899 17.7478 16.1801 17.7169 16.2435C17.7015 16.2752 17.6889 16.3009 17.6798 16.3187L17.669 16.3392L17.6661 16.3461L17.6641 16.348V16.35C17.4711 16.7163 17.0169 16.8573 16.6505 16.6644C16.2844 16.4716 16.144 16.019 16.336 15.6527L16.3712 14.8861L16.3428 15.639C16.3484 15.628 16.3574 15.6103 16.3692 15.5863C16.3929 15.5376 16.4278 15.4631 16.4708 15.3666C16.5569 15.1728 16.6736 14.8908 16.7901 14.5472C17.0253 13.8536 17.2501 12.9389 17.2501 12.0003C17.25 11.0616 17.0253 10.1472 16.7901 9.45347C16.7398 9.30524 16.6875 9.16934 16.6397 9.04625L16.7208 7.30504ZM16.5909 8.92222C16.6069 8.96182 16.623 9.00324 16.6397 9.04625L16.3712 14.8861L16.5909 8.92222ZM8.94635 2.75426C8.94146 2.75676 8.94049 2.75719 8.94049 2.75719C8.93952 2.75822 8.93118 2.76831 8.91901 2.79136C8.88946 2.84746 8.84914 2.96022 8.81745 3.17418C8.75197 3.61624 8.75006 4.25621 8.75006 5.22496V10.5482L12.8292 7.65172C13.4277 7.22675 13.8066 6.95472 14.0469 6.72496C14.1606 6.61622 14.212 6.54487 14.2344 6.50426C14.2501 6.47564 14.2502 6.46582 14.2501 6.46031V6.45836C14.2502 6.45285 14.2501 6.44304 14.2344 6.41441C14.212 6.37381 14.1606 6.30245 14.0469 6.19371C13.8066 5.96395 13.4277 5.69191 12.8292 5.26695L11.0909 4.03258C10.2984 3.46987 9.77276 3.09927 9.37213 2.89488C9.17808 2.7959 9.06088 2.7622 8.99616 2.75328C8.96886 2.74954 8.95591 2.75094 8.95319 2.75133C8.95319 2.75133 8.95084 2.75196 8.94635 2.75426ZM16.5909 8.92222C16.5466 8.81264 16.5067 8.71598 16.4708 8.63511C16.4279 8.53861 16.3929 8.46408 16.3692 8.41539C16.3573 8.39107 16.3484 8.37271 16.3428 8.36168L16.337 8.35093L16.336 8.34996C16.1434 7.98356 16.2842 7.53022 16.6505 7.33726L16.5909 8.92222Z" fill="#48465C"/>
</svg>
