<svg width="24" height="24" viewBox="0 0 24 24" fill="none" xmlns="http://www.w3.org/2000/svg">
<path d="M11.263 1.41832C11.8982 1.09335 12.5338 1.29359 13.054 1.55894C13.5648 1.81955 14.1811 2.25683 14.9104 2.77476L16.7425 4.07652C17.2827 4.46007 17.7548 4.79465 18.0843 5.10972C18.4351 5.4452 18.7503 5.87449 18.7503 6.45933C18.7503 7.04418 18.4351 7.47346 18.0843 7.80894C17.7548 8.12402 17.2827 8.4586 16.7425 8.84215L12.2952 12.0003L16.7425 15.1586C17.2828 15.5422 17.7548 15.8775 18.0843 16.1927C18.435 16.528 18.7501 16.9568 18.7503 17.5414C18.7503 18.1262 18.435 18.5555 18.0843 18.891C17.7548 19.2061 17.2828 19.5416 16.7425 19.9252L14.9104 21.2269C14.1811 21.7449 13.5649 22.1821 13.054 22.4427C12.5338 22.708 11.8982 22.9073 11.263 22.5824C10.6265 22.2565 10.4197 21.6239 10.3343 21.0472C10.2505 20.4817 10.2503 19.728 10.2503 18.8373V13.4408L6.42998 16.1146C6.09075 16.352 5.62364 16.27 5.38603 15.931C5.14855 15.5917 5.23049 15.1236 5.56963 14.8861L9.69267 12.0003L5.56963 9.11461C5.23071 8.87696 5.14861 8.40983 5.38603 8.07066C5.62352 7.73142 6.09067 7.64877 6.42998 7.88609L10.2503 10.5599V5.16344C10.2503 4.27285 10.2505 3.51987 10.3343 2.95445C10.4197 2.37757 10.6261 1.74423 11.263 1.41832ZM11.7503 18.7757C11.7503 19.7446 11.7522 20.3854 11.8177 20.8275C11.8493 21.0411 11.8898 21.1532 11.9192 21.2093C11.9313 21.2321 11.9389 21.2416 11.9407 21.2435C11.9409 21.2438 11.9416 21.2449 11.9466 21.2474C11.951 21.2497 11.9524 21.2503 11.9534 21.2503C11.9562 21.2507 11.9693 21.2522 11.9964 21.2484C12.0612 21.2395 12.1784 21.2058 12.3724 21.1068C12.7731 20.9024 13.2984 20.531 14.0911 19.9681L15.8294 18.7337C16.428 18.3087 16.8069 18.0367 17.0472 17.807C17.1609 17.6982 17.2123 17.6279 17.2347 17.5873C17.2505 17.5584 17.2504 17.5479 17.2503 17.5423V17.5404C17.2504 17.5348 17.2501 17.5246 17.2347 17.4964C17.2123 17.4558 17.1609 17.3854 17.0472 17.2767C16.8069 17.0469 16.4279 16.775 15.8294 16.35L11.7503 13.4535V18.7757ZM11.9466 2.75426C11.9416 2.75675 11.9409 2.75698 11.9407 2.75719C11.9394 2.75853 11.9318 2.76769 11.9192 2.79136C11.8897 2.84746 11.8494 2.96022 11.8177 3.17418C11.7522 3.61624 11.7503 4.25621 11.7503 5.22496V10.5482L15.8294 7.65172C16.4279 7.22675 16.8069 6.95472 17.0472 6.72496C17.1609 6.61622 17.2123 6.54487 17.2347 6.50426C17.2503 6.47564 17.2504 6.46582 17.2503 6.46031V6.45836C17.2504 6.45285 17.2503 6.44304 17.2347 6.41441C17.2123 6.37381 17.1609 6.30245 17.0472 6.19371C16.8069 5.96395 16.4279 5.69191 15.8294 5.26695L14.0911 4.03258C13.2987 3.46989 12.7731 3.09927 12.3724 2.89488C12.1784 2.7959 12.0612 2.7622 11.9964 2.75328C11.969 2.74951 11.956 2.75095 11.9534 2.75133C11.9524 2.75146 11.951 2.75196 11.9466 2.75426Z" fill="#48465C"/>
</svg>
