<svg width="24" height="24" viewBox="0 0 24 24" fill="none" xmlns="http://www.w3.org/2000/svg">
<path d="M11.2629 1.4183C11.8981 1.09337 12.5337 1.29358 13.0539 1.55893C13.5647 1.81952 14.1802 2.25691 14.9094 2.77475L16.7424 4.0765C17.2826 4.46006 17.7547 4.79463 18.0842 5.10971C18.435 5.44519 18.7502 5.87447 18.7502 6.45932C18.7502 7.04417 18.435 7.47345 18.0842 7.80893C17.7547 8.12401 17.2826 8.45856 16.7424 8.84213L12.301 11.9964L12.3078 12.0013L12.302 12.0052L16.7424 15.1585C17.2827 15.5421 17.7547 15.8775 18.0842 16.1927C18.4348 16.528 18.75 16.9569 18.7502 17.5413C18.7502 18.1262 18.4349 18.5555 18.0842 18.891C17.7547 19.2061 17.2827 19.5415 16.7424 19.9251L14.9094 21.2269C14.1802 21.7448 13.5646 22.1821 13.0539 22.4427C12.5337 22.708 11.898 22.9073 11.2629 22.5824C10.6262 22.2565 10.4186 21.6239 10.3332 21.0472C10.2494 20.4817 10.2502 19.7279 10.2502 18.8372V13.4417L6.42989 16.1156C6.09059 16.3529 5.62346 16.2703 5.38594 15.931C5.14851 15.5918 5.23058 15.1248 5.56953 14.8871L9.69258 12.0013L5.56953 9.11557C5.23037 8.87798 5.14845 8.40992 5.38594 8.07064C5.62356 7.73163 6.09067 7.6496 6.42989 7.88705L10.2502 10.5609V5.16342C10.2502 4.27289 10.2494 3.51985 10.3332 2.95443C10.4186 2.37753 10.626 1.7442 11.2629 1.4183Z" fill="#48465C"/>
</svg>
