<svg width="24" height="24" viewBox="0 0 24 24" fill="none" xmlns="http://www.w3.org/2000/svg">
<path d="M8.55062 2.15672C9.13686 1.85459 9.72287 2.04078 10.203 2.28758C10.6746 2.52997 11.2435 2.93654 11.9168 3.41844L13.6082 4.62937C14.1068 4.98605 14.5423 5.29731 14.8465 5.59031C15.1702 5.90237 15.4618 6.30215 15.4618 6.84617C15.4616 7.39001 15.1702 7.78906 14.8465 8.10105C14.5423 8.3941 14.1068 8.70624 13.6082 9.06297L9.50863 11.9966L9.51449 12.0005L9.5096 12.0044L13.6082 14.938C14.1068 15.2948 14.5423 15.6068 14.8465 15.8999C15.1702 16.212 15.4618 16.6108 15.4618 17.1548C15.4617 17.6987 15.1702 18.0977 14.8465 18.4096C14.5423 18.7028 14.1068 19.0147 13.6082 19.3716L11.9168 20.5825C11.2436 21.0644 10.6745 21.471 10.203 21.7134C9.72284 21.9601 9.13685 22.1455 8.55062 21.8432C7.96263 21.54 7.77109 20.9511 7.69222 20.4145C7.61495 19.8886 7.61503 19.1882 7.61507 18.3598V13.3403L4.08968 15.8276C3.77649 16.0486 3.34412 15.9723 3.12484 15.6567C2.90557 15.3411 2.98251 14.906 3.29574 14.685L7.10042 12.0005L3.29574 9.31687C2.98261 9.096 2.90583 8.66081 3.12484 8.3452C3.3441 8.02955 3.77645 7.95237 4.08968 8.17332L7.61507 10.6606V5.64109C7.61503 4.8126 7.6149 4.11143 7.69222 3.58543C7.7711 3.04884 7.96267 2.45985 8.55062 2.15672ZM17.9842 4.98387C18.2611 4.71838 18.6991 4.7294 18.9627 5.00828L18.9774 5.02293C18.9837 5.02991 18.9912 5.03934 19.0008 5.05027C19.0201 5.07234 19.0459 5.10276 19.077 5.14109C19.1391 5.21781 19.2232 5.32729 19.3211 5.47117C19.5169 5.759 19.7691 6.18392 20.0184 6.75535C20.5179 7.90058 20.9998 9.6237 20.9998 12.0005C20.9998 14.3775 20.518 16.1013 20.0184 17.2466C19.7692 17.8177 19.5169 18.2419 19.3211 18.5298C19.2233 18.6735 19.1391 18.7832 19.077 18.8598C19.0459 18.8981 19.0201 18.9286 19.0008 18.9507C18.9912 18.9616 18.9837 18.971 18.9774 18.978L18.9686 18.9868L18.9657 18.9907L18.9637 18.9917C18.9611 18.9895 18.9271 18.9587 18.4852 18.5346L18.9627 18.9927C18.699 19.2716 18.2611 19.2828 17.9842 19.0171C17.7086 18.7525 17.6968 18.3139 17.9569 18.0346L17.9637 18.0268C17.9714 18.018 17.9855 18.0018 18.0047 17.978C18.0435 17.9301 18.1035 17.8512 18.1785 17.7407C18.3288 17.5198 18.5386 17.1715 18.7508 16.685C19.1743 15.7141 19.6151 14.1814 19.6151 12.0005C19.615 9.81989 19.1743 8.28777 18.7508 7.31687C18.5386 6.83023 18.3288 6.48109 18.1785 6.26023C18.1035 6.14991 18.0435 6.0708 18.0047 6.02293C17.9854 5.99909 17.9714 5.98284 17.9637 5.9741L17.9569 5.96727C17.6966 5.68808 17.7085 5.24848 17.9842 4.98387ZM16.3055 7.65574C16.6475 7.48343 17.0642 7.62362 17.2352 7.96824V7.96922L17.2391 7.97703L17.2489 7.99754C17.257 8.01444 17.2689 8.0385 17.283 8.06883C17.311 8.1294 17.35 8.21591 17.3963 8.32469C17.4889 8.54249 17.6116 8.85174 17.7342 9.22215C17.9764 9.95454 18.2312 10.9649 18.2313 12.0005C18.2313 13.0362 17.9764 14.0474 17.7342 14.7798C17.6117 15.1499 17.4889 15.4585 17.3963 15.6762C17.3499 15.7853 17.311 15.8725 17.283 15.9331C17.2689 15.9634 17.257 15.9875 17.2489 16.0044L17.2352 16.0317V16.0337C17.0641 16.3781 16.6474 16.5176 16.3055 16.3452C15.9641 16.1729 15.8258 15.7549 15.9959 15.4106L15.9969 15.4077L16.0028 15.396C16.0082 15.3848 16.0171 15.3671 16.0282 15.3432C16.0505 15.2949 16.0829 15.2215 16.1229 15.1274C16.2034 14.9382 16.3124 14.6655 16.4207 14.3384C16.6399 13.6756 16.8465 12.8252 16.8465 12.0005C16.8465 11.1761 16.6399 10.3263 16.4207 9.66355C16.3124 9.33632 16.2034 9.06364 16.1229 8.87449C16.0829 8.78034 16.0505 8.70701 16.0282 8.65867C16.017 8.63449 16.0082 8.61621 16.0028 8.60496L15.9969 8.59324L15.9959 8.59227C15.8252 8.24774 15.9637 7.82806 16.3055 7.65574Z" fill="#48465C"/>
</svg>
