<svg width="24" height="24" viewBox="0 0 24 24" fill="none" xmlns="http://www.w3.org/2000/svg">
<path fill-rule="evenodd" clip-rule="evenodd" d="M19.3096 1.70582C19.4721 1.32489 19.913 1.14788 20.2939 1.31031C20.6748 1.47282 20.8519 1.91274 20.6895 2.29371V2.29566L20.6855 2.30445L20.6699 2.34058C20.6562 2.37352 20.6357 2.42369 20.6094 2.48902C20.5567 2.6197 20.481 2.81263 20.3896 3.0564C20.2067 3.54461 19.9621 4.23596 19.7178 5.04566C19.2252 6.67868 18.75 8.73898 18.75 10.5711C18.75 11.6299 19.1085 12.5382 19.6562 13.5271C19.8447 13.8672 20.0653 14.2311 20.2998 14.617C20.8138 15.4624 21.3926 16.4152 21.8359 17.4617C22.3691 18.7203 22.75 20.1842 22.75 21.9998C22.75 22.4139 22.4142 22.7498 22 22.7498C21.5858 22.7498 21.25 22.4139 21.25 21.9998C21.25 20.5092 20.9597 19.3037 20.541 18.2556C15.147 18.4026 13.0819 21.127 12.7119 22.2371C12.6098 22.5432 12.3228 22.7498 12 22.7498C11.6772 22.7498 11.3902 22.5432 11.2881 22.2371C10.9181 21.127 8.85299 18.4026 3.45898 18.2556C3.04023 19.3037 2.75 20.5092 2.75 21.9998C2.74996 22.4139 2.41418 22.7498 2 22.7498C1.58582 22.7498 1.25004 22.4139 1.25 21.9998C1.25 20.1842 1.63088 18.7203 2.16406 17.4617C2.6074 16.4152 3.18627 15.4624 3.7002 14.617C3.93472 14.2311 4.15536 13.8672 4.34375 13.5271C4.89152 12.5383 5.25 11.6299 5.25 10.5711C5.24999 8.73898 4.77484 6.67868 4.28223 5.04566C4.03796 4.23595 3.79334 3.54461 3.61035 3.0564C3.51896 2.81262 3.44326 2.6197 3.39062 2.48902C3.36432 2.42369 3.34376 2.37352 3.33008 2.34058L3.31445 2.30445L3.31055 2.29566V2.29371C3.14821 1.91278 3.32514 1.4728 3.70605 1.31031C4.08702 1.14786 4.52695 1.32486 4.68945 1.70582L4.69043 1.70679L4.69238 1.7107L4.69727 1.72242L4.71484 1.76539C4.73045 1.80299 4.75291 1.85811 4.78125 1.92847C4.83799 2.06935 4.91858 2.27375 5.01465 2.53004C5.20663 3.0422 5.46214 3.76562 5.71777 4.61304C6.22511 6.29493 6.74999 8.52026 6.75 10.5711C6.75 11.1717 6.66255 11.7272 6.5166 12.2498H17.4834C17.3375 11.7272 17.25 11.1717 17.25 10.5711C17.25 8.52026 17.7749 6.29492 18.2822 4.61304C18.5378 3.76562 18.7934 3.0422 18.9854 2.53004C19.0815 2.27375 19.1619 2.06935 19.2188 1.92847C19.247 1.8581 19.2695 1.80299 19.2852 1.76539L19.3027 1.72242L19.3076 1.7107L19.3096 1.70679V1.70582Z" fill="#48465C"/>
</svg>
