<svg width="24" height="24" viewBox="0 0 24 24" fill="none" xmlns="http://www.w3.org/2000/svg">
<path d="M19.3096 1.70631C19.4721 1.32538 19.913 1.14837 20.2939 1.3108C20.6748 1.47331 20.8519 1.91323 20.6895 2.2942V2.29615L20.6855 2.30494L20.6699 2.34107C20.6562 2.37401 20.6357 2.42418 20.6094 2.48951C20.5567 2.62019 20.481 2.81312 20.3896 3.05689C20.2067 3.54509 19.9621 4.23645 19.7178 5.04615C19.2252 6.67917 18.75 8.73947 18.75 10.5715C18.75 11.6304 19.1085 12.5387 19.6562 13.5276C19.8447 13.8677 20.0653 14.2316 20.2998 14.6174C20.8138 15.4628 21.3926 16.4157 21.8359 17.4622C22.3691 18.7208 22.75 20.1847 22.75 22.0003C22.75 22.4144 22.4142 22.7503 22 22.7503C21.5858 22.7503 21.25 22.4144 21.25 22.0003C21.25 20.5097 20.9597 19.3042 20.541 18.2561C15.147 18.4031 13.0819 21.1275 12.7119 22.2376C12.6098 22.5437 12.3228 22.7503 12 22.7503C11.6772 22.7503 11.3902 22.5437 11.2881 22.2376C10.9181 21.1275 8.85299 18.4031 3.45898 18.2561C3.04023 19.3042 2.75 20.5097 2.75 22.0003C2.74996 22.4144 2.41418 22.7503 2 22.7503C1.58582 22.7503 1.25004 22.4144 1.25 22.0003C1.25 20.1847 1.63088 18.7208 2.16406 17.4622C2.6074 16.4157 3.18627 15.4628 3.7002 14.6174C3.93472 14.2316 4.15536 13.8677 4.34375 13.5276C4.89152 12.5387 5.25 11.6304 5.25 10.5715C5.24999 8.73947 4.77484 6.67917 4.28223 5.04615C4.03796 4.23644 3.79334 3.5451 3.61035 3.05689C3.51896 2.81311 3.44326 2.62019 3.39062 2.48951C3.36431 2.42418 3.34376 2.37401 3.33008 2.34107L3.31445 2.30494L3.31055 2.29615V2.2942C3.14821 1.91326 3.32514 1.47329 3.70605 1.3108C4.08702 1.14835 4.52695 1.32535 4.68945 1.70631L4.69043 1.70728L4.69238 1.71119L4.69727 1.72291L4.71484 1.76588C4.73045 1.80348 4.75291 1.85859 4.78125 1.92896C4.83799 2.06984 4.91858 2.27424 5.01465 2.53053C5.20663 3.04269 5.46214 3.76611 5.71777 4.61353C6.22511 6.29542 6.74999 8.52075 6.75 10.5715C6.75 11.1721 6.66255 11.7277 6.5166 12.2503H17.4834C17.3375 11.7277 17.25 11.1721 17.25 10.5715C17.25 8.52075 17.7749 6.29541 18.2822 4.61353C18.5378 3.7661 18.7934 3.04269 18.9854 2.53053C19.0815 2.27424 19.1619 2.06984 19.2188 1.92896C19.247 1.85859 19.2695 1.80348 19.2852 1.76588L19.3027 1.72291L19.3076 1.71119L19.3096 1.70728V1.70631Z" fill="#48465C"/>
</svg>
