<svg width="24" height="24" viewBox="0 0 24 24" fill="none" xmlns="http://www.w3.org/2000/svg">
<path d="M8.73145 5.7713C10.7107 3.09336 11.7007 1.75412 12.624 2.03693C13.5473 2.31989 13.5479 3.96238 13.5479 7.24689V7.55646C13.5479 8.7408 13.5475 9.33333 13.9258 9.7049L13.9463 9.72443C14.333 10.0881 14.9497 10.0887 16.1826 10.0887C18.4012 10.0887 19.5109 10.0887 19.8858 10.7615C19.8918 10.7724 19.8975 10.7836 19.9033 10.7947C20.2573 11.4781 19.6149 12.3476 18.3301 14.0858L15.2686 18.2283C13.2893 20.9062 12.2993 22.2455 11.376 21.9627C10.4527 21.6797 10.4522 20.0374 10.4522 16.7527V16.4432C10.4522 15.2587 10.4526 14.6663 10.0742 14.2947L10.0537 14.2752C9.66701 13.9117 9.05021 13.9119 7.81739 13.9119C5.59901 13.9119 4.48932 13.9118 4.11427 13.2391C4.10807 13.228 4.10253 13.2163 4.09669 13.2049C3.74274 12.5216 4.3852 11.6521 5.66993 9.91388L8.73145 5.7713Z" fill="#48465C"/>
</svg>
