<svg width="24" height="24" viewBox="0 0 24 24" fill="none" xmlns="http://www.w3.org/2000/svg">
<path d="M10.5333 2.27393C11.138 1.64552 11.9163 1.03556 12.8439 1.31982C13.788 1.6092 14.0602 2.56547 14.1749 3.4165C14.2971 4.32318 14.2971 5.59478 14.297 7.18213V7.55615C14.297 8.17021 14.2994 8.55409 14.338 8.8335C14.3706 9.06955 14.4184 9.13536 14.4454 9.16357C14.4822 9.19615 14.5686 9.25279 14.84 9.29053C15.1401 9.33224 15.5519 9.33838 16.1818 9.33838H16.2423C17.3005 9.33835 18.1755 9.33779 18.8292 9.4292C19.4777 9.51987 20.1568 9.73159 20.5275 10.3735L20.5294 10.3755L20.5333 10.3823L20.5372 10.3901L20.5421 10.3979L20.546 10.4058L20.5509 10.4146L20.5548 10.4214L20.5587 10.4302L20.5626 10.437L20.5636 10.4399C20.8973 11.1095 20.6881 11.791 20.3888 12.3716C20.0829 12.9649 19.5643 13.6777 18.9337 14.5308L15.8341 18.7241C14.876 20.0205 14.1111 21.0566 13.4669 21.7261C12.8622 22.3544 12.0839 22.9634 11.1564 22.6792C10.2122 22.3898 9.93902 21.4346 9.82434 20.5835C9.70217 19.6768 9.70223 18.4045 9.70227 16.8169V16.4429C9.70228 15.8359 9.69576 15.4465 9.65344 15.1655C9.61646 14.9202 9.5642 14.8472 9.5343 14.8159C9.50053 14.7861 9.42161 14.7343 9.15832 14.7007C8.86021 14.6627 8.45407 14.6616 7.8175 14.6616C6.72644 14.6616 5.82672 14.6552 5.15246 14.5522C4.4981 14.4523 3.82172 14.2287 3.45422 13.5923L3.45227 13.5903L3.44836 13.5835L3.44446 13.5757L3.43957 13.5679L3.43567 13.5601L3.43079 13.5513L3.42688 13.5444L3.42297 13.5356L3.42004 13.5288L3.41809 13.5259C3.0814 12.8502 3.30277 12.1725 3.60657 11.6021C3.90975 11.0329 4.41823 10.3446 5.02844 9.51904L8.16614 5.2749C9.12413 3.97872 9.88915 2.94334 10.5333 2.27393ZM12.4025 2.75342C12.3917 2.74968 12.354 2.73776 12.2413 2.79443C12.0993 2.86596 11.8969 3.02045 11.6144 3.31397C11.0464 3.90416 10.3388 4.85927 9.33508 6.21729L6.27258 10.3599C5.61489 11.2497 5.1753 11.849 4.93079 12.3081C4.81186 12.5314 4.76675 12.672 4.75403 12.7573C4.74619 12.8099 4.7507 12.8338 4.75696 12.8491C4.78115 12.8847 4.88667 12.9937 5.37903 13.0688C5.91688 13.151 6.69015 13.1616 7.8175 13.1616H7.8634C8.44044 13.1616 8.94344 13.1618 9.34778 13.2134C9.78092 13.2686 10.2112 13.394 10.5675 13.729L10.5734 13.7339L10.5792 13.7397C10.9292 14.0832 11.0716 14.5099 11.1368 14.9429C11.1991 15.3567 11.2023 15.8655 11.2023 16.4429V16.7524C11.2022 18.4193 11.2037 19.5892 11.3107 20.3833C11.364 20.7786 11.4364 21.0106 11.505 21.1401C11.5562 21.2366 11.5855 21.2438 11.5939 21.2456H11.5968C11.6073 21.2492 11.6445 21.2626 11.7579 21.2056C11.8999 21.1341 12.1032 20.9797 12.3859 20.686C12.9538 20.0958 13.6614 19.1408 14.6652 17.7827L17.7277 13.6392C18.3814 12.7547 18.8169 12.1473 19.0558 11.6841C19.2603 11.2872 19.2383 11.1525 19.2247 11.1167C19.2022 11.0839 19.1011 10.9826 18.6212 10.9155C18.0841 10.8404 17.3154 10.8384 16.1818 10.8384C15.5793 10.8384 15.0567 10.8346 14.6339 10.7759C14.197 10.7151 13.7653 10.5836 13.4122 10.2515L13.4064 10.2456L13.4005 10.2407C13.0473 9.89406 12.9111 9.4684 12.8517 9.03857C12.7973 8.64426 12.797 8.1558 12.797 7.60498V7.24658C12.797 5.58 12.7956 4.41072 12.6886 3.6167C12.6354 3.22153 12.5638 2.98943 12.4952 2.85986C12.4437 2.76279 12.4137 2.75619 12.4054 2.7544H12.4044L12.4025 2.75342Z" fill="#48465C"/>
</svg>
