<svg width="24" height="24" viewBox="0 0 24 24" fill="none" xmlns="http://www.w3.org/2000/svg">
<path d="M9.48217 12.354C9.4823 12.5949 9.59822 12.8215 9.7937 12.9624C9.98926 13.1033 10.2408 13.1411 10.4695 13.0649L11.6033 12.687V13.061C11.6034 13.2797 11.699 13.4879 11.865 13.6303C12.0309 13.7728 12.2513 13.8353 12.4675 13.8022L13.9949 13.5668L10.9314 16.6313C10.538 17.0248 10.5622 17.6741 10.7107 18.2104C10.9909 19.2235 10.6061 20.519 9.86303 21.2622C8.87936 22.2458 7.28428 22.2457 6.30053 21.2622C5.3168 20.2785 5.31681 18.6834 6.30053 17.6997C5.31684 18.6833 3.72177 18.6833 2.73803 17.6997C1.75431 16.716 1.75431 15.121 2.73803 14.1372C3.48129 13.3941 4.77666 13.0092 5.78979 13.2895C6.32608 13.438 6.97542 13.4622 7.36889 13.0688L9.48217 10.9555V12.354ZM14.1374 2.73774C15.1213 1.75411 16.7163 1.75406 17.6999 2.73774C18.6836 3.72144 18.6836 5.31652 17.6999 6.30024C18.6837 5.3166 20.2788 5.31655 21.2624 6.30024C22.246 7.28395 22.246 8.87904 21.2624 9.86274C20.5193 10.6059 19.2238 10.9905 18.2107 10.7104C17.6746 10.5619 17.0251 10.538 16.6316 10.9311L15.7888 11.7739L13.1033 12.187V11.6469C13.1033 11.406 12.9881 11.1794 12.7927 11.0385C12.5972 10.8976 12.3456 10.8588 12.1169 10.935L10.9822 11.3129V9.45552L13.0691 7.3686C13.4622 6.97507 13.4382 6.32566 13.2898 5.7895C13.0096 4.77629 13.3943 3.48092 14.1374 2.73774Z" fill="#48465C"/>
</svg>
