<svg width="24" height="24" viewBox="0 0 24 24" fill="none" xmlns="http://www.w3.org/2000/svg">
<path d="M13.6077 2.20725C14.8843 0.931026 16.9541 0.93081 18.2307 2.20725C18.9473 2.92395 19.2611 3.89137 19.1731 4.82736C20.1089 4.73937 21.0756 5.05333 21.7922 5.76975C23.0689 7.04637 23.0689 9.11617 21.7922 10.3928C20.8736 11.3113 19.3048 11.7916 18.011 11.4338C17.8 11.3754 17.5962 11.351 17.4329 11.3654C17.2735 11.3795 17.1985 11.425 17.1614 11.4621L11.4622 17.1613C11.425 17.1985 11.3795 17.2735 11.3655 17.4328C11.3511 17.5961 11.3754 17.8 11.4338 18.011C11.7917 19.3048 11.3113 20.8736 10.3928 21.7922C9.1162 23.0689 7.0464 23.0689 5.76978 21.7922C5.05336 21.0755 4.7394 20.1089 4.82739 19.1731C3.8914 19.2611 2.92398 18.9473 2.20728 18.2307C0.930841 16.9541 0.931056 14.8842 2.20728 13.6076C3.12592 12.689 4.69555 12.2088 5.9895 12.5666C6.20046 12.625 6.40438 12.6494 6.56763 12.635C6.72696 12.6209 6.80193 12.5755 6.83911 12.5383L12.5383 6.83908C12.5755 6.8019 12.621 6.72693 12.635 6.5676C12.6494 6.40435 12.6251 6.20043 12.5667 5.98947C12.2088 4.69552 12.6891 3.12588 13.6077 2.20725ZM7.89966 13.5988C7.54354 13.955 7.09682 14.094 6.69946 14.1291C6.30568 14.1639 5.91541 14.1029 5.59009 14.0129C4.85771 13.8102 3.83653 14.1006 3.2688 14.6682C2.57797 15.359 2.57797 16.4793 3.2688 17.1701C3.95955 17.8604 5.07907 17.8604 5.76978 17.1701C6.06267 16.8772 6.53743 16.8772 6.83032 17.1701C7.12319 17.463 7.12321 17.9378 6.83032 18.2307C6.13998 18.9214 6.14003 20.0408 6.83032 20.7317C7.52115 21.4225 8.64145 21.4225 9.33228 20.7317C9.89989 20.1639 10.1902 19.1428 9.98755 18.4104C9.89754 18.0851 9.83562 17.6948 9.87036 17.301C9.90547 16.9036 10.0454 16.4569 10.4016 16.1008L12.761 13.7414L12.509 13.7942C12.288 13.8409 12.0577 13.7859 11.8821 13.6438C11.7063 13.5014 11.6038 13.287 11.6038 13.0608V12.6867L10.47 13.0656C10.2413 13.1418 9.98976 13.1031 9.79419 12.9621C9.59862 12.8212 9.48268 12.5948 9.48267 12.3537V12.0158L7.89966 13.5988ZM17.1702 3.26877C16.4794 2.57794 15.359 2.57794 14.6682 3.26877C14.1006 3.8365 13.8103 4.85768 14.0129 5.59006C14.1029 5.91538 14.1639 6.30565 14.1292 6.69943C14.0941 7.09679 13.955 7.5435 13.5989 7.89963L10.9827 10.5158V11.3127L12.1165 10.9348C12.3451 10.8585 12.5967 10.8974 12.7922 11.0383C12.9878 11.1792 13.1038 11.4056 13.1038 11.6467V12.135L14.7063 11.7951L16.1008 10.4016C16.4569 10.0454 16.9036 9.90544 17.301 9.87033C17.6949 9.83559 18.085 9.89751 18.4104 9.98752C19.1429 10.1902 20.164 9.89986 20.7317 9.33225C21.4225 8.64142 21.4225 7.52112 20.7317 6.83029C20.0409 6.14 18.9214 6.13995 18.2307 6.83029C17.9378 7.12318 17.4631 7.12316 17.1702 6.83029C16.8773 6.5374 16.8773 6.06264 17.1702 5.76975C17.8604 5.07904 17.8604 3.95952 17.1702 3.26877Z" fill="#48465C"/>
</svg>
