<svg width="24" height="24" viewBox="0 0 24 24" fill="none" xmlns="http://www.w3.org/2000/svg">
<path d="M14.1371 2.73764C15.1208 1.75402 16.7159 1.75422 17.6996 2.73764C18.6833 3.72137 18.6833 5.31642 17.6996 6.30014C18.6832 5.31648 20.2784 5.31662 21.2621 6.30014C22.2458 7.28387 22.2458 8.87891 21.2621 9.86264C20.5189 10.6058 19.2235 10.9906 18.2104 10.7103C17.6742 10.5619 17.0247 10.5377 16.6313 10.931L10.9311 16.6312C10.5378 17.0247 10.5619 17.6741 10.7104 18.2103C10.9906 19.2234 10.6059 20.5188 9.8627 21.262C8.87897 22.2457 7.28393 22.2457 6.3002 21.262C5.31667 20.2783 5.31654 18.6832 6.3002 17.6995C5.31648 18.6832 3.72143 18.6832 2.7377 17.6995C1.75429 16.7158 1.75408 15.1207 2.7377 14.137C3.48082 13.394 4.77632 13.0093 5.78945 13.2894C6.32578 13.4379 6.97604 13.4622 7.36953 13.0687L13.0688 7.36947C13.4623 6.97598 13.438 6.32572 13.2895 5.78939C13.0094 4.77626 13.3941 3.48077 14.1371 2.73764Z" fill="#48465C"/>
</svg>
