<svg width="24" height="24" viewBox="0 0 24 24" fill="none" xmlns="http://www.w3.org/2000/svg">
<path d="M8.64822 11.7895C8.7179 11.7199 8.83596 11.7429 8.87478 11.8335C9.5088 13.3126 10.6876 14.4915 12.1668 15.1254C12.2574 15.1642 12.2803 15.2823 12.2107 15.352L10.9314 16.6313C10.5379 17.0248 10.5622 17.6741 10.7107 18.2104C10.991 19.2235 10.6061 20.5189 9.86306 21.2622C8.87936 22.2458 7.2843 22.2458 6.30056 21.2622C5.31683 20.2785 5.31684 18.6834 6.30056 17.6997C5.31684 18.6834 3.72179 18.6834 2.73806 17.6997C1.75435 16.716 1.75434 15.121 2.73806 14.1372C3.48133 13.3942 4.77673 13.0092 5.78982 13.2895C6.32613 13.438 6.97545 13.4623 7.36892 13.0688L8.64822 11.7895ZM14.9998 18.2504C15.414 18.2504 15.7498 18.5862 15.7498 19.0004V20.0004C15.7496 20.4145 15.4138 20.7504 14.9998 20.7504C14.5858 20.7503 14.25 20.4144 14.2498 20.0004V19.0004C14.2498 18.5863 14.5857 18.2506 14.9998 18.2504ZM17.1267 17.1264C17.4196 16.8336 17.8944 16.8337 18.1873 17.1264L19.6013 18.5405C19.8942 18.8334 19.8942 19.3081 19.6013 19.601C19.3084 19.8939 18.8337 19.8939 18.5408 19.601L17.1267 18.187C16.834 17.8941 16.834 17.4193 17.1267 17.1264ZM19.9998 14.2504C20.414 14.2504 20.7498 14.5862 20.7498 15.0004C20.7496 15.4145 20.4138 15.7504 19.9998 15.7504H18.9998C18.5858 15.7503 18.25 15.4144 18.2498 15.0004C18.2498 14.5863 18.5857 14.2506 18.9998 14.2504H19.9998ZM14.1375 2.73775C15.1213 1.75411 16.7163 1.75406 17.7 2.73775C18.6836 3.72146 18.6836 5.31654 17.7 6.30025C18.6837 5.3166 20.2788 5.31656 21.2625 6.30025C22.246 7.28397 22.2461 8.87907 21.2625 9.86275C20.5194 10.6059 19.2239 10.9905 18.2107 10.7104C17.6744 10.5619 17.0241 10.5376 16.6306 10.9311L15.3513 12.2104C15.2817 12.28 15.1636 12.2579 15.1248 12.1674C14.4908 10.688 13.3122 9.50849 11.8328 8.87447C11.7426 8.83561 11.7198 8.71855 11.7888 8.64888L13.0691 7.36861C13.4622 6.97508 13.4383 6.32567 13.2898 5.78951C13.0096 4.77629 13.3943 3.48095 14.1375 2.73775ZM4.99978 8.25045C5.41399 8.25045 5.74978 8.58624 5.74978 9.00045C5.74956 9.41447 5.41385 9.75045 4.99978 9.75045H3.99978C3.58581 9.75033 3.25 9.41439 3.24978 9.00045C3.24978 8.58631 3.58567 8.25057 3.99978 8.25045H4.99978ZM4.39919 4.39888C4.6921 4.10622 5.16692 4.10606 5.45974 4.39888L6.8738 5.81295C7.16662 6.10576 7.16647 6.58059 6.8738 6.87349C6.58091 7.16639 6.10615 7.16639 5.81326 6.87349L4.39919 5.45943C4.10629 5.16653 4.10629 4.69177 4.39919 4.39888ZM8.99978 3.25045C9.41399 3.25045 9.74978 3.58624 9.74978 4.00045V5.00045C9.74956 5.41447 9.41385 5.75045 8.99978 5.75045C8.58581 5.75033 8.25 5.41439 8.24978 5.00045V4.00045C8.24978 3.58631 8.58567 3.25057 8.99978 3.25045Z" fill="#48465C"/>
</svg>
