<svg width="24" height="24" viewBox="0 0 24 24" fill="none" xmlns="http://www.w3.org/2000/svg">
<path d="M8.11815 11.2587C8.56296 10.8139 9.31649 10.9591 9.56444 11.5371C10.1226 12.8395 11.1605 13.8774 12.4629 14.4355C13.041 14.6834 13.186 15.4369 12.7412 15.8818L11.4619 17.1611C11.4247 17.1982 11.3793 17.2733 11.3652 17.4326C11.3508 17.5959 11.3752 17.7997 11.4336 18.0107C11.7915 19.3046 11.3121 20.8743 10.3935 21.7929C9.11707 23.0695 7.04715 23.0692 5.77049 21.7929C5.0538 21.0762 4.73913 20.1088 4.82714 19.1728C3.89127 19.2608 2.92467 18.9468 2.20799 18.2304C0.93138 16.9537 0.931381 14.884 2.20799 13.6074C3.12675 12.6887 4.6962 12.2083 5.99022 12.5663C6.20111 12.6247 6.40417 12.6491 6.56737 12.6347C6.72685 12.6207 6.80165 12.5752 6.83885 12.538L8.11815 11.2587ZM7.90331 13.5956L7.8994 13.5986L7.87694 13.621C7.52459 13.9608 7.08823 14.0955 6.69921 14.1298C6.30533 14.1646 5.91519 14.1026 5.58983 14.0126C4.85741 13.8099 3.83625 14.1002 3.26854 14.6679C2.57771 15.3587 2.57771 16.4791 3.26854 17.1699C3.95941 17.8604 5.07977 17.8606 5.77049 17.1699C5.84372 17.0967 5.92826 17.0414 6.01854 17.0048L6.0244 17.0019C6.29392 16.8954 6.61309 16.9519 6.83104 17.1699C7.12355 17.4628 7.12375 17.9376 6.83104 18.2304C6.14021 18.9212 6.14021 20.0415 6.83104 20.7324C7.52176 21.4226 8.64129 21.4226 9.33202 20.7324C9.89971 20.1647 10.1909 19.1426 9.98827 18.4101C9.89824 18.0848 9.83633 17.6946 9.87108 17.3007C9.90621 16.9033 10.0452 16.4566 10.4014 16.1005L11.0849 15.4169C10.0512 14.8104 9.18946 13.9487 8.58299 12.915L7.90331 13.5956ZM15 18.2499C15.4141 18.2499 15.7499 18.5858 15.75 18.9999V19.9999C15.75 20.4141 15.4142 20.7499 15 20.7499C14.5859 20.7498 14.25 20.4141 14.25 19.9999V18.9999C14.2501 18.5859 14.5859 18.2501 15 18.2499ZM17.1269 17.1269C17.4198 16.834 17.8946 16.834 18.1875 17.1269L19.6015 18.541C19.8944 18.8339 19.8944 19.3086 19.6015 19.6015C19.3086 19.8942 18.8338 19.8943 18.541 19.6015L17.1269 18.1874C16.8341 17.8946 16.8343 17.4198 17.1269 17.1269ZM20 14.2499C20.4141 14.2499 20.7499 14.5858 20.75 14.9999C20.75 15.4141 20.4142 15.7499 20 15.7499H19C18.5859 15.7498 18.25 15.4141 18.25 14.9999C18.2501 14.5859 18.5859 14.2501 19 14.2499H20ZM13.6074 2.20795C14.884 0.931335 16.9538 0.931335 18.2305 2.20795C18.9469 2.92462 19.2608 3.89122 19.1728 4.82709C20.1088 4.73908 21.0763 5.05376 21.793 5.77045C23.0692 7.04711 23.0695 9.11702 21.793 10.3935C20.8743 11.3121 19.3046 11.7914 18.0107 11.4335C17.7997 11.3751 17.5959 11.3508 17.4326 11.3652C17.2733 11.3792 17.1983 11.4247 17.1611 11.4619L15.8818 12.7412C15.4369 13.186 14.6834 13.041 14.4355 12.4628C13.8774 11.1604 12.8395 10.1225 11.5371 9.56439C10.9591 9.31644 10.814 8.56291 11.2588 8.11811L12.5381 6.83881C12.5753 6.80161 12.6207 6.72681 12.6348 6.56732C12.6491 6.40413 12.6248 6.20106 12.5664 5.99018C12.2083 4.69615 12.6887 3.1267 13.6074 2.20795ZM17.1699 3.2685C16.4791 2.57767 15.3588 2.57767 14.668 3.2685C14.1003 3.83621 13.81 4.85737 14.0127 5.58979C14.1027 5.91515 14.1647 6.30528 14.1299 6.69916C14.0948 7.0966 13.9549 7.54314 13.5986 7.89936L12.915 8.58295C13.9487 9.18942 14.8105 10.0512 15.417 11.0849L16.1006 10.4013C16.4566 10.0452 16.9034 9.90617 17.3008 9.87104C17.6946 9.83629 18.0848 9.89819 18.4101 9.98822C19.1426 10.1909 20.1647 9.89966 20.7324 9.33197C21.4226 8.64124 21.4226 7.52171 20.7324 6.831C20.0415 6.14017 18.9213 6.14017 18.2305 6.831C17.9377 7.12371 17.4628 7.12351 17.1699 6.831C16.877 6.53812 16.877 6.06334 17.1699 5.77045C17.8606 5.07972 17.8604 3.95936 17.1699 3.2685ZM4.99999 8.24994C5.41413 8.24994 5.74988 8.58582 5.74999 8.99994C5.74999 9.41415 5.4142 9.74994 4.99999 9.74994H3.99999C3.58587 9.74983 3.24999 9.41408 3.24999 8.99994C3.2501 8.58589 3.58594 8.25005 3.99999 8.24994H4.99999ZM4.3994 4.39936C4.69229 4.10646 5.16706 4.10646 5.45995 4.39936L6.87401 5.81342C7.16677 6.10632 7.16686 6.58112 6.87401 6.87397C6.58117 7.16681 6.10636 7.16672 5.81346 6.87397L4.3994 5.4599C4.1065 5.16701 4.1065 4.69225 4.3994 4.39936ZM8.99999 3.24994C9.41413 3.24994 9.74988 3.58582 9.74999 3.99994V4.99994C9.74999 5.41415 9.4142 5.74994 8.99999 5.74994C8.58587 5.74983 8.24999 5.41408 8.24999 4.99994V3.99994C8.2501 3.58589 8.58594 3.25005 8.99999 3.24994Z" fill="#48465C"/>
</svg>
