<svg width="24" height="24" viewBox="0 0 24 24" fill="none" xmlns="http://www.w3.org/2000/svg">
<path fill-rule="evenodd" clip-rule="evenodd" d="M14.1374 2.73779C15.1212 1.75407 16.7162 1.75407 17.6999 2.73779C18.6835 3.72153 18.6836 5.31663 17.6999 6.30029C18.6836 5.31657 20.2787 5.31657 21.2624 6.30029C22.2459 7.28404 22.2461 8.87915 21.2624 9.86279C20.5193 10.6059 19.2238 10.9905 18.2107 10.7104C17.6745 10.562 17.0251 10.5379 16.6316 10.9311L10.9314 16.6313C10.5381 17.0249 10.5622 17.6742 10.7107 18.2104C10.9908 19.2235 10.6061 20.5191 9.86303 21.2622C8.8794 22.2458 7.28429 22.2456 6.30053 21.2622C5.3168 20.2785 5.31681 18.6834 6.30053 17.6997C5.31687 18.6833 3.72178 18.6832 2.73803 17.6997C1.75431 16.716 1.75431 15.121 2.73803 14.1372C3.48127 13.3941 4.7766 13.0093 5.78979 13.2895C6.32601 13.438 6.97542 13.4621 7.36889 13.0688L13.0691 7.36865C13.4623 6.97517 13.4382 6.32576 13.2898 5.78955C13.0095 4.77635 13.3943 3.48104 14.1374 2.73779Z" fill="#48465C"/>
</svg>
