<svg width="24" height="24" viewBox="0 0 24 24" fill="none" xmlns="http://www.w3.org/2000/svg">
<path fill-rule="evenodd" clip-rule="evenodd" d="M8.64819 11.7895C8.7178 11.72 8.8358 11.7422 8.87475 11.8325C9.5087 13.3118 10.6876 14.4905 12.1667 15.1245C12.2573 15.1633 12.2801 15.2814 12.2107 15.3511L10.9314 16.6313C10.538 17.0249 10.5622 17.6742 10.7107 18.2104C10.9908 19.2235 10.6061 20.519 9.86303 21.2622C8.87938 22.2458 7.28428 22.2457 6.30053 21.2622C5.3168 20.2785 5.31681 18.6834 6.30053 17.6997C5.31685 18.6834 3.72177 18.6833 2.73803 17.6997C1.75431 16.716 1.75431 15.121 2.73803 14.1372C3.48128 13.3941 4.77662 13.0093 5.78979 13.2895C6.32604 13.438 6.97542 13.4622 7.36889 13.0688L8.64819 11.7895ZM14.9998 18.2495C15.4139 18.2495 15.7496 18.5854 15.7498 18.9995V19.9995C15.7498 20.4137 15.414 20.7495 14.9998 20.7495C14.5857 20.7494 14.2498 20.4136 14.2498 19.9995V18.9995C14.2499 18.5855 14.5858 18.2497 14.9998 18.2495ZM17.1267 17.1265C17.4196 16.8336 17.8943 16.8336 18.1873 17.1265L19.6023 18.5405C19.8948 18.8334 19.8948 19.3083 19.6023 19.6011C19.3094 19.894 18.8337 19.894 18.5408 19.6011L17.1267 18.187C16.8339 17.8942 16.8341 17.4194 17.1267 17.1265ZM19.9998 14.2495C20.4139 14.2495 20.7496 14.5854 20.7498 14.9995C20.7498 15.4137 20.414 15.7495 19.9998 15.7495H18.9998C18.5857 15.7494 18.2498 15.4136 18.2498 14.9995C18.2499 14.5855 18.5858 14.2497 18.9998 14.2495H19.9998ZM14.1374 2.73779C15.1212 1.75407 16.7162 1.75407 17.6999 2.73779C18.6835 3.72153 18.6836 5.31663 17.6999 6.30029C18.6836 5.31657 20.2787 5.31657 21.2624 6.30029C22.2459 7.28404 22.2461 8.87916 21.2624 9.86279C20.5193 10.6059 19.2238 10.9905 18.2107 10.7104C17.6745 10.562 17.0251 10.5379 16.6316 10.9311L15.3513 12.2104C15.2816 12.2799 15.1635 12.2571 15.1248 12.1665C14.4907 10.6873 13.312 9.50846 11.8328 8.87451C11.7424 8.83562 11.7194 8.71759 11.7888 8.64795L13.0691 7.36865C13.4623 6.97517 13.4382 6.32576 13.2898 5.78955C13.0095 4.77635 13.3943 3.48104 14.1374 2.73779ZM4.99975 8.24951C5.41387 8.24951 5.74961 8.58542 5.74975 8.99951C5.74975 9.41372 5.41396 9.74951 4.99975 9.74951H3.99975C3.58567 9.74936 3.24975 9.41363 3.24975 8.99951C3.2499 8.58551 3.58575 8.24965 3.99975 8.24951H4.99975ZM4.39917 4.39892C4.69206 4.10608 5.16683 4.10604 5.45971 4.39892L6.87378 5.81299C7.16653 6.10587 7.16657 6.58068 6.87378 6.87353C6.58093 7.16639 6.10613 7.1663 5.81323 6.87353L4.39917 5.45947C4.10627 5.16657 4.10627 4.69181 4.39917 4.39892ZM8.99975 3.24951C9.41387 3.24951 9.74961 3.58542 9.74975 3.99951V4.99951C9.74975 5.41372 9.41396 5.74951 8.99975 5.74951C8.58567 5.74936 8.24975 5.41363 8.24975 4.99951V3.99951C8.2499 3.58551 8.58575 3.24965 8.99975 3.24951Z" fill="#48465C"/>
</svg>
