<svg width="24" height="24" viewBox="0 0 24 24" fill="none" xmlns="http://www.w3.org/2000/svg">
<path fill-rule="evenodd" clip-rule="evenodd" d="M13.6071 2.20795C14.8837 0.931335 16.9535 0.931335 18.2302 2.20795C18.9466 2.92463 19.2615 3.89119 19.1735 4.82709C20.1094 4.73921 21.0761 5.05386 21.7927 5.77045C23.069 7.0471 23.0692 9.117 21.7927 10.3935C20.874 11.3121 19.3043 11.7915 18.0104 11.4335C17.7996 11.3752 17.5965 11.3508 17.4333 11.3652C17.2737 11.3792 17.198 11.4247 17.1608 11.4619L11.4616 17.1611C11.4244 17.1983 11.3789 17.2739 11.3649 17.4335C11.3506 17.5968 11.3749 17.7998 11.4333 18.0107C11.7913 19.3046 11.3118 20.8743 10.3933 21.7929C9.11675 23.0695 7.04685 23.0692 5.77021 21.7929C5.05362 21.0763 4.73897 20.1096 4.82685 19.1738C3.89095 19.2618 2.92438 18.9469 2.20771 18.2304C0.93109 16.9537 0.931091 14.884 2.20771 13.6074C3.12647 12.6887 4.69594 12.2092 5.98993 12.5673C6.20074 12.6256 6.40394 12.6501 6.56708 12.6357C6.72635 12.6217 6.8013 12.5762 6.83856 12.539L12.5388 6.83881C12.5759 6.80154 12.6214 6.72659 12.6354 6.56732C12.6498 6.40418 12.6254 6.20099 12.5671 5.99018C12.209 4.69619 12.6885 3.12672 13.6071 2.20795ZM7.89911 13.5996C7.54293 13.9556 7.09627 14.0948 6.69892 14.1298C6.30503 14.1646 5.91491 14.1026 5.58954 14.0126C4.85716 13.81 3.83598 14.1003 3.26825 14.6679C2.57742 15.3587 2.57742 16.4791 3.26825 17.1699C3.95911 17.8604 5.07945 17.8606 5.77021 17.1699C6.0631 16.8771 6.5379 16.877 6.83075 17.1699C7.12332 17.4627 7.12341 17.9376 6.83075 18.2304C6.13992 18.9212 6.13992 20.0415 6.83075 20.7324C7.52149 21.4227 8.64098 21.4227 9.33173 20.7324C9.89942 20.1647 10.1907 19.1426 9.98798 18.4101C9.89799 18.0849 9.83611 17.6954 9.87079 17.3017C9.90585 16.9042 10.0448 16.4567 10.4011 16.1005L12.7604 13.7412L12.5095 13.7949C12.2882 13.8418 12.0572 13.7859 11.8815 13.6435C11.7057 13.5011 11.6032 13.2867 11.6032 13.0605V12.6874L10.4694 13.0654C10.2408 13.1415 9.98918 13.1028 9.79364 12.9619C9.59818 12.8209 9.48212 12.5945 9.48212 12.3535V12.0156L7.89911 13.5996ZM17.1696 3.2685C16.4788 2.57767 15.3585 2.57767 14.6677 3.2685C14.1001 3.83622 13.8097 4.8574 14.0124 5.58979C14.1024 5.91516 14.1644 6.30527 14.1296 6.69916C14.0946 7.09651 13.9554 7.54318 13.5993 7.89936L10.9821 10.5156V11.3134L12.1169 10.9355C12.3455 10.8593 12.5971 10.8971 12.7927 11.038C12.9881 11.1789 13.1032 11.4055 13.1032 11.6464V12.1347L14.7058 11.7958L16.1003 10.4013C16.4565 10.045 16.904 9.9061 17.3015 9.87104C17.6952 9.83636 18.0846 9.89824 18.4099 9.98822C19.1424 10.1909 20.1644 9.89966 20.7321 9.33197C21.4224 8.64122 21.4225 7.52173 20.7321 6.831C20.0412 6.14017 18.921 6.14017 18.2302 6.831C17.9373 7.12366 17.4625 7.12356 17.1696 6.831C16.8768 6.53815 16.8768 6.06335 17.1696 5.77045C17.8603 5.07969 17.8602 3.95935 17.1696 3.2685Z" fill="#48465C"/>
</svg>
