<svg width="24" height="24" viewBox="0 0 24 24" fill="none" xmlns="http://www.w3.org/2000/svg">
<path d="M19.6992 14.312C20.0787 14.1461 20.5215 14.3193 20.6875 14.6988C20.8534 15.0782 20.6802 15.5209 20.3007 15.687L4.30074 22.687C3.92126 22.853 3.47848 22.6797 3.31246 22.3003C3.14647 21.9208 3.31972 21.478 3.69918 21.312L19.6992 14.312ZM13.8125 19.2925C13.9785 18.9131 14.4213 18.7397 14.8007 18.9058L20.3007 21.312C20.6802 21.478 20.8534 21.9209 20.6875 22.3003C20.5215 22.6797 20.0787 22.853 19.6992 22.687L14.1992 20.2808C13.8197 20.1148 13.6465 19.672 13.8125 19.2925ZM3.31246 14.6988C3.47849 14.3193 3.92127 14.146 4.30074 14.312L9.30074 16.4995C9.68017 16.6655 9.85341 17.1084 9.68746 17.4878C9.52144 17.8672 9.07866 18.0405 8.69918 17.8745L3.69918 15.687C3.3197 15.5209 3.14643 15.0783 3.31246 14.6988ZM12.6689 1.51028C13.3164 1.1412 14.1518 1.14048 14.8505 1.66458C16.698 3.05036 18.75 5.44486 18.75 8.80716C18.7499 11.5391 17.5549 13.313 16.0283 14.3765C14.5411 15.4125 12.7813 15.7495 11.5996 15.7495C10.5299 15.7495 8.95596 15.4016 7.63277 14.3482C6.27652 13.2683 5.24999 11.4983 5.24996 8.80716C5.24996 6.38368 6.65572 4.82608 7.84371 4.02981C8.76475 3.41251 10.1355 3.81391 10.3154 5.06985C10.3813 5.52926 10.6178 5.85668 10.7871 5.96731C10.8068 5.98019 10.8225 5.9882 10.833 5.9927C10.8522 5.97683 10.8843 5.94289 10.9267 5.87649C11.4093 5.11969 11.6025 4.0387 11.6025 3.38821C11.6026 2.56891 12.0355 1.87134 12.6689 1.51028ZM13.9511 2.8638C13.752 2.71442 13.5631 2.72639 13.4111 2.81302C13.2453 2.90766 13.1026 3.10867 13.1025 3.38821C13.1025 4.22317 12.8752 5.61226 12.1923 6.68313C11.9454 7.07031 11.595 7.36938 11.1445 7.46634C10.6972 7.56245 10.2845 7.42989 9.96773 7.22317C9.35876 6.82564 8.94248 6.0667 8.83004 5.28177C8.82796 5.26753 8.82484 5.25922 8.8232 5.2554C8.82157 5.25164 8.82054 5.24988 8.82027 5.24954C8.81973 5.2489 8.81776 5.24618 8.81148 5.24368C8.79824 5.23851 8.74937 5.22767 8.67867 5.27493C7.76146 5.88971 6.74996 7.03607 6.74996 8.80716C6.74999 11.0699 7.5903 12.3965 8.56734 13.1743C9.57715 13.9782 10.8026 14.2495 11.5996 14.2495C12.551 14.2495 13.9914 13.9675 15.1709 13.146C16.3109 12.3518 17.2499 11.0291 17.25 8.80716C17.25 6.10657 15.604 4.10361 13.9511 2.8638ZM14.2812 9.78372C14.4004 9.38712 14.8192 9.16179 15.2158 9.28079C15.6124 9.3999 15.8377 9.81865 15.7187 10.2154C15.4498 11.1117 14.3342 12.7495 12 12.7495C11.5858 12.7495 11.25 12.4138 11.25 11.9995C11.25 11.5853 11.5858 11.2495 12 11.2495C13.5055 11.2495 14.1501 10.2207 14.2812 9.78372Z" fill="#48465C"/>
</svg>
