<svg width="24" height="24" viewBox="0 0 24 24" fill="none" xmlns="http://www.w3.org/2000/svg">
<path fill-rule="evenodd" clip-rule="evenodd" d="M19.6995 14.3134C20.0789 14.1474 20.5207 14.32 20.6868 14.6991C20.8528 15.0786 20.6805 15.5214 20.3011 15.6874L4.30107 22.6874C3.92159 22.8534 3.47882 22.6802 3.31279 22.3007C3.14686 21.9213 3.32018 21.4794 3.69951 21.3134L19.6995 14.3134ZM13.8128 19.2929C13.9788 18.9135 14.4216 18.7412 14.8011 18.9071L20.3011 21.3134C20.6803 21.4795 20.8528 21.9213 20.6868 22.3007C20.5208 22.6801 20.0789 22.8534 19.6995 22.6874L14.1995 20.2812C13.82 20.1151 13.6467 19.6724 13.8128 19.2929ZM3.31279 14.6991C3.47889 14.3198 3.92166 14.1473 4.30107 14.3134L9.30107 16.5009C9.68028 16.667 9.85278 17.1088 9.68681 17.4882C9.52073 17.8676 9.07893 18.0408 8.69951 17.8749L3.69951 15.6874C3.32002 15.5214 3.14677 15.0786 3.31279 14.6991ZM12.3528 3.38859C12.353 2.28946 13.5029 1.5912 14.4007 2.26457C16.151 3.57737 18.0003 5.77609 18.0003 8.80754C18.0002 13.7614 13.7332 14.9999 11.5999 14.9999C9.73323 14.9999 6.00039 13.7614 6.00029 8.80754C6.00029 6.71026 7.20843 5.35778 8.26103 4.65226C8.79626 4.29371 9.48287 4.55189 9.57256 5.1757C9.75086 6.42042 10.878 7.34949 11.5599 6.28019C12.1427 5.36635 12.3528 4.13132 12.3528 3.38859ZM15.2151 9.28117C14.8186 9.16245 14.4007 9.38763 14.2815 9.7841C14.1504 10.2211 13.5057 11.2498 12.0003 11.2499C11.5861 11.2499 11.2503 11.5857 11.2503 11.9999C11.2503 12.4141 11.5861 12.7499 12.0003 12.7499C14.3341 12.7498 15.449 11.1122 15.7181 10.2157C15.8371 9.81901 15.6119 9.40019 15.2151 9.28117Z" fill="#48465C"/>
</svg>
