<svg width="24" height="24" viewBox="0 0 24 24" fill="none" xmlns="http://www.w3.org/2000/svg">
<path d="M19.6999 14.3125C20.0792 14.1468 20.5212 14.32 20.6872 14.6992C20.8532 15.0787 20.68 15.5215 20.3005 15.6875L4.30046 22.6875C3.9211 22.8532 3.47919 22.6801 3.31316 22.3008C3.14714 21.9213 3.32039 21.4795 3.69988 21.3135L19.6999 14.3125ZM13.8132 19.293C13.9792 18.9137 14.4211 18.7405 14.8005 18.9062L20.3005 21.3135C20.68 21.4795 20.8532 21.9213 20.6872 22.3008C20.5212 22.6801 20.0793 22.8532 19.6999 22.6875L14.1999 20.2812C13.8204 20.1151 13.6471 19.6725 13.8132 19.293ZM3.31316 14.6992C3.47923 14.32 3.92116 14.1467 4.30046 14.3125L9.30046 16.501C9.67995 16.667 9.8532 17.1088 9.68718 17.4883C9.52119 17.8676 9.07923 18.0406 8.69988 17.875L3.69988 15.6875C3.32039 15.5215 3.14714 15.0787 3.31316 14.6992ZM12.3532 3.38866C12.3533 2.28944 13.5032 1.59115 14.401 2.26463C16.1513 3.57745 17.9997 5.77629 17.9997 8.8076C17.9995 13.7611 13.7336 14.9998 11.6003 15C9.73363 15 5.99982 13.7614 5.99968 8.8076C5.99968 6.71045 7.20787 5.35788 8.26042 4.65233C8.79572 4.29353 9.48331 4.55177 9.57292 5.17576C9.75121 6.42037 10.8773 7.34908 11.5593 6.28026C12.1421 5.36642 12.3532 4.13139 12.3532 3.38866ZM15.2155 9.28123C14.8189 9.16224 14.4011 9.38759 14.2819 9.78416C14.1508 10.2212 13.5053 11.25 11.9997 11.25C11.5856 11.2501 11.2497 11.5859 11.2497 12C11.2497 12.4141 11.5856 12.7499 11.9997 12.75C14.3338 12.75 15.4493 11.1123 15.7184 10.2158C15.8374 9.81908 15.6123 9.40026 15.2155 9.28123Z" fill="#48465C"/>
</svg>
