<svg width="24" height="24" viewBox="0 0 24 24" fill="none" xmlns="http://www.w3.org/2000/svg">
<path d="M14.0552 1.25C15.4226 1.24998 16.5252 1.24966 17.3921 1.36621C18.2921 1.48725 19.0499 1.74678 19.6519 2.34863C20.2536 2.95051 20.5123 3.70842 20.6333 4.6084C20.7498 5.47535 20.7495 6.57779 20.7495 7.94531V16.0547C20.7495 17.4222 20.7498 18.5246 20.6333 19.3916C20.5123 20.2916 20.2536 21.0494 19.6519 21.6514C19.0499 22.2532 18.2921 22.5128 17.3921 22.6338C16.5252 22.7503 15.4226 22.75 14.0552 22.75H9.94484C8.57735 22.75 7.47484 22.7503 6.60792 22.6338C5.70791 22.5128 4.95003 22.2532 4.34816 21.6514C3.74641 21.0494 3.48771 20.2916 3.36671 19.3916C3.32802 19.1037 3.30194 18.79 3.28468 18.4492C3.24564 18.3259 3.23834 18.191 3.26905 18.0566C3.25028 17.4648 3.24951 16.7988 3.24952 16.0547V7.94531C3.2495 6.57778 3.25017 5.47535 3.36671 4.6084C3.48771 3.70839 3.74639 2.95052 4.34816 2.34863C4.95003 1.74676 5.70791 1.48724 6.60792 1.36621C7.47484 1.24966 8.57735 1.24998 9.94484 1.25H14.0552ZM7.89796 16.75C6.9197 16.75 6.57703 16.7568 6.31495 16.8271C5.59591 17.02 5.02275 17.5542 4.77687 18.249C4.79207 18.6028 4.81568 18.9145 4.85304 19.1924C4.95168 19.9257 5.13212 20.3141 5.4087 20.5908C5.68547 20.8676 6.07435 21.0478 6.80812 21.1465C7.56339 21.248 8.56434 21.25 9.99952 21.25H13.9995C15.4349 21.25 16.4365 21.248 17.1919 21.1465C17.9256 21.0478 18.3145 20.8676 18.5913 20.5908C18.7875 20.3946 18.9351 20.1419 19.0396 19.75H7.99952C7.5855 19.7498 7.24952 19.4141 7.24952 19C7.24952 18.5859 7.5855 18.2502 7.99952 18.25H19.2232C19.2417 17.819 19.2478 17.3246 19.2495 16.75H7.89796ZM9.99952 2.75C8.56434 2.75 7.56339 2.75197 6.80812 2.85352C6.07435 2.95217 5.68547 3.13242 5.4087 3.40918C5.13206 3.68593 4.95166 4.07501 4.85304 4.80859C4.75155 5.56389 4.74952 6.56488 4.74952 8V15.9258C5.10176 15.6797 5.49928 15.4926 5.92726 15.3779C6.40587 15.2497 6.96392 15.2497 7.78175 15.25H19.2495V8C19.2495 6.56489 19.2484 5.56389 19.147 4.80859C19.0483 4.07507 18.868 3.68592 18.5913 3.40918C18.3145 3.13243 17.9256 2.95217 17.1919 2.85352C16.4365 2.75196 15.4349 2.75 13.9995 2.75H9.99952ZM12.9995 9.75C13.4137 9.75 13.7495 10.0858 13.7495 10.5C13.7495 10.9142 13.4137 11.25 12.9995 11.25H7.99952C7.5855 11.2498 7.24952 10.9141 7.24952 10.5C7.24952 10.0859 7.5855 9.75022 7.99952 9.75H12.9995ZM15.9995 6.25C16.4137 6.25 16.7495 6.58579 16.7495 7C16.7495 7.41421 16.4137 7.75 15.9995 7.75H7.99952C7.5855 7.74978 7.24952 7.41407 7.24952 7C7.24952 6.58593 7.5855 6.25022 7.99952 6.25H15.9995Z" fill="#48465C"/>
</svg>
