<svg width="24" height="24" viewBox="0 0 24 24" fill="none" xmlns="http://www.w3.org/2000/svg">
<path fill-rule="evenodd" clip-rule="evenodd" d="M16.8585 1.00271C17.062 1.01491 17.2275 1.08239 17.3467 1.14138C17.4525 1.19375 17.5695 1.2646 17.6778 1.32986L18.4766 1.81033L18.4932 1.82107C18.5943 1.88194 18.7051 1.94816 18.796 2.01345C18.8993 2.08764 19.0291 2.19571 19.1329 2.35818C19.2713 2.57513 19.3397 2.8296 19.3282 3.08669C19.3195 3.2793 19.2605 3.43759 19.2081 3.55349C19.1619 3.65551 19.0993 3.76859 19.0421 3.87185L18.6876 4.51345L18.9493 7.78103C18.9563 7.8688 18.9606 7.92225 18.9639 7.97341C18.9722 8.10487 18.9756 8.23612 18.9757 8.36697C19.013 8.51093 19.0062 8.65778 18.962 8.7908C18.8563 10.3556 18.1635 11.8317 17.0059 12.8865C16.9684 12.9206 16.9289 12.9557 16.8643 13.0125L16.8594 13.0174C16.7902 13.0783 16.7594 13.1046 16.7305 13.1306C15.6634 14.0919 14.9041 15.3779 14.5616 16.8152C14.5523 16.8542 14.5433 16.8953 14.5225 16.9871L14.2686 18.1082C14.1091 18.8123 13.9807 19.378 13.8477 19.823C13.7126 20.2752 13.5536 20.6718 13.2999 21.0066C12.6189 21.9054 11.5375 22.3957 10.42 22.2908C10.0013 22.2515 9.60643 22.0953 9.1944 21.8855C8.78963 21.6794 8.30437 21.3864 7.70319 21.0242L6.9903 20.5945C6.38882 20.2322 5.90259 19.9401 5.52936 19.6775C5.14839 19.4095 4.82692 19.1338 4.59089 18.784C3.96139 17.8509 3.82645 16.6566 4.22761 15.6033C4.37787 15.2091 4.62761 14.8661 4.93757 14.5154C5.24135 14.1717 5.64741 13.7717 6.15144 13.2761L6.95612 12.4861C7.02194 12.4214 7.0507 12.3927 7.07819 12.365C8.09368 11.3433 8.78461 10.0149 9.05085 8.55935C9.05807 8.51985 9.06519 8.47839 9.08112 8.38552L9.0821 8.37869C9.09702 8.2917 9.10579 8.23871 9.1153 8.18826C9.46018 6.35921 10.6059 4.79074 12.2315 3.95584C12.2762 3.93285 12.3233 3.90928 12.3995 3.87185L15.2276 2.4822L15.5499 1.89919C15.611 1.78866 15.6768 1.66923 15.7423 1.57107C15.8161 1.46035 15.9255 1.31911 16.0958 1.20681C16.3212 1.05813 16.5889 0.986632 16.8585 1.00271ZM13.6329 9.22146C13.0378 8.74539 12.2198 8.65821 11.5382 8.9988L10.3516 9.59255C9.95268 11.0419 9.19333 12.3645 8.14167 13.4226C8.10752 13.457 8.07261 13.4917 8.01179 13.5515L7.2237 14.3269C6.69517 14.8466 6.32639 15.209 6.06159 15.5086C5.79918 15.8055 5.68524 15.9898 5.62897 16.1375C5.40045 16.7375 5.47917 17.4191 5.83405 17.9451C5.92076 18.0736 6.07114 18.2249 6.39265 18.451C6.71715 18.6793 7.15675 18.9446 7.78815 19.325L8.45222 19.7254C9.08364 20.1057 9.52371 20.3697 9.87507 20.5486C10.2247 20.7266 10.4207 20.7844 10.5606 20.7976C11.1463 20.8525 11.7282 20.5979 12.1046 20.1013C12.1977 19.9784 12.294 19.7823 12.4102 19.3933C12.527 19.0026 12.6446 18.4868 12.8116 17.7498L13.0606 16.6511C13.08 16.5653 13.0911 16.5157 13.1026 16.4676C13.5139 14.7413 14.4284 13.1857 15.7266 12.0164C15.7626 11.9839 15.7996 11.9515 15.8633 11.8953L15.8682 11.8914C15.94 11.8282 15.9695 11.8024 15.9962 11.7781C16.6181 11.2114 17.0648 10.4752 17.296 9.66287L16.8829 9.80056C15.7714 10.1711 14.5478 9.9532 13.6329 9.22146ZM13.0684 5.21462C12.9834 5.25641 12.9486 5.27361 12.9171 5.28982C11.9498 5.78648 11.1984 6.64381 10.8067 7.68728L10.8673 7.65798C12.0723 7.05559 13.5174 7.20812 14.5694 8.04959C15.087 8.46368 15.7793 8.58727 16.4083 8.37771L17.4639 8.02615C17.4616 7.99615 17.4583 7.95692 17.4532 7.89334L17.2051 4.79177L15.7325 3.90505L13.0684 5.21462ZM16.7755 2.78201L17.6417 3.30447L17.7208 3.16287C17.729 3.14817 17.736 3.134 17.7432 3.12087C17.7304 3.11306 17.7167 3.10423 17.7022 3.09548L16.9219 2.62576C16.9062 2.61633 16.891 2.60682 16.877 2.59841L16.7755 2.78201Z" fill="#48465C"/>
</svg>
