<svg width="24" height="24" viewBox="0 0 24 24" fill="none" xmlns="http://www.w3.org/2000/svg">
<path d="M16.8594 1.00274C17.0627 1.015 17.2275 1.08246 17.3467 1.14141C17.4525 1.19377 17.5695 1.26464 17.6777 1.32989L18.4766 1.81035L18.4932 1.8211C18.5943 1.88198 18.705 1.94818 18.7959 2.01348C18.8992 2.08764 19.029 2.19487 19.1328 2.35723C19.2715 2.57432 19.3397 2.8294 19.3281 3.08672C19.3194 3.27944 19.2605 3.4376 19.208 3.55352C19.1618 3.65554 19.0992 3.76862 19.042 3.87188L18.6875 4.51348L18.9492 7.78008C18.9562 7.86814 18.9606 7.92218 18.9639 7.97344C18.9722 8.10486 18.9765 8.23619 18.9766 8.367C19.0138 8.51078 19.006 8.65697 18.9619 8.78985C18.8563 10.3548 18.1637 11.8316 17.0059 12.8865C16.9684 12.9206 16.9288 12.9557 16.8643 13.0125L16.8594 13.0174C16.7902 13.0783 16.7594 13.1047 16.7305 13.1307C15.6634 14.0919 14.904 15.3779 14.5615 16.8152C14.5522 16.8542 14.5433 16.8953 14.5225 16.9871L14.2686 18.1082C14.1091 18.8123 13.9806 19.3781 13.8477 19.8231C13.7126 20.2751 13.5535 20.6719 13.2998 21.0066C12.6188 21.9053 11.5374 22.3957 10.4199 22.2908C10.0013 22.2515 9.60632 22.0953 9.19434 21.8856C8.78958 21.6795 8.30428 21.3864 7.70313 21.0242L6.99024 20.5945C6.38892 20.2323 5.90347 19.9401 5.53028 19.6775C5.14916 19.4095 4.82692 19.1339 4.59083 18.784C3.96133 17.8509 3.82639 16.6566 4.22755 15.6033C4.37777 15.2091 4.62756 14.8661 4.93751 14.5154C5.24128 14.1717 5.64737 13.7717 6.15137 13.2762L6.95606 12.4852C7.02165 12.4206 7.0507 12.3926 7.07813 12.365C8.09358 11.3433 8.78453 10.0149 9.05079 8.55938C9.05801 8.51988 9.06513 8.47842 9.08106 8.38555L9.08204 8.37871C9.09696 8.29172 9.10573 8.23873 9.11524 8.18828C9.46006 6.35924 10.6058 4.79082 12.2315 3.95586C12.2761 3.93289 12.3233 3.90926 12.3994 3.87188L15.2275 2.48223L15.5498 1.89922C15.611 1.78866 15.6767 1.6693 15.7422 1.5711C15.816 1.46038 15.9254 1.31916 16.0957 1.20684C16.3213 1.05802 16.5896 0.986554 16.8594 1.00274ZM13.6328 9.22149C13.0377 8.74537 12.2198 8.65813 11.5381 8.99883L10.3516 9.5916C9.95264 11.0411 9.19433 12.3645 8.14259 13.4227C8.1083 13.4571 8.07284 13.4914 8.01173 13.5516L7.22364 14.327C6.69508 14.8467 6.32632 15.209 6.06153 15.5086C5.79905 15.8056 5.68516 15.9898 5.62891 16.1375C5.40043 16.7375 5.47913 17.4191 5.83399 17.9451C5.92069 18.0736 6.07113 18.2249 6.39259 18.451C6.71708 18.6793 7.1567 18.9446 7.78809 19.325L8.45313 19.7244C9.08442 20.1047 9.52369 20.3698 9.87501 20.5486C10.2246 20.7266 10.4207 20.7835 10.5606 20.7967C11.1463 20.8517 11.7281 20.5972 12.1045 20.1004C12.1975 19.9775 12.2941 19.782 12.4102 19.3934C12.527 19.0027 12.6445 18.4868 12.8115 17.7498L13.0606 16.6502C13.0799 16.5646 13.0911 16.5156 13.1025 16.4676C13.5138 14.7413 14.4284 13.1857 15.7266 12.0164C15.7626 11.9839 15.8004 11.9516 15.8643 11.8953L15.8682 11.8914C15.94 11.8282 15.9694 11.8024 15.9961 11.7781C16.6181 11.2114 17.0647 10.4753 17.2959 9.66289L16.8828 9.80059C15.7714 10.1711 14.5478 9.95324 13.6328 9.22149ZM13.0684 5.21465C12.9833 5.25648 12.9486 5.27362 12.917 5.28985C11.9498 5.7865 11.1993 6.64392 10.8076 7.68731L10.8672 7.65703C12.0722 7.05476 13.5174 7.20821 14.5693 8.04961C15.0868 8.46366 15.7793 8.58721 16.4082 8.37774L17.4639 8.02618C17.4616 7.99611 17.4582 7.95623 17.4531 7.89239L17.2051 4.7918L15.7334 3.90508L13.0684 5.21465ZM16.8525 2.64336L16.7754 2.78203L17.6426 3.3045L17.7207 3.16289C17.729 3.14801 17.7368 3.1332 17.7441 3.11993C17.7312 3.1121 17.7167 3.10428 17.7022 3.09551L16.9219 2.62481C16.9062 2.6154 16.8909 2.60683 16.877 2.59844C16.8692 2.61253 16.8613 2.62759 16.8525 2.64336Z" fill="#48465C"/>
</svg>
