<svg width="24" height="24" viewBox="0 0 24 24" fill="none" xmlns="http://www.w3.org/2000/svg">
<path d="M17.1093 1.44829C17.3127 1.46056 17.4774 1.52801 17.5966 1.58697C17.7023 1.63927 17.8195 1.70927 17.9277 1.77447L18.7431 2.26568C18.8442 2.32656 18.9549 2.39375 19.0458 2.45904C19.1492 2.53321 19.279 2.64038 19.3828 2.80279C19.5215 3.01995 19.5897 3.27485 19.5781 3.53228C19.5694 3.72507 19.5105 3.88314 19.458 3.99907C19.4118 4.10104 19.3491 4.21325 19.2919 4.31646L18.9374 4.95904L19.1992 8.22564C19.2062 8.31352 19.2105 8.36684 19.2138 8.41802C19.332 10.2775 18.6136 12.095 17.2558 13.3321C17.2184 13.3661 17.1796 13.4014 17.1152 13.4581L17.1093 13.4629C17.0402 13.5237 17.0093 13.5501 16.9804 13.5762C15.9134 14.5374 15.1539 15.8234 14.8115 17.2608C14.8022 17.2997 14.7932 17.3401 14.7724 17.4317L14.5185 18.5528C14.359 19.2568 14.2306 19.8226 14.0976 20.2676C13.9625 20.7198 13.8035 21.1174 13.5498 21.4522C12.8687 22.3508 11.7872 22.8403 10.6699 22.7354C10.2513 22.6959 9.85622 22.5399 9.44428 22.3301C9.0396 22.1239 8.55403 21.8318 7.95307 21.4698L7.24018 21.0401C6.63889 20.6779 6.1534 20.3855 5.78022 20.1231C5.39916 19.855 5.07685 19.5793 4.84077 19.2295C4.21127 18.2964 4.07633 17.1022 4.47749 16.0489C4.62773 15.6544 4.87737 15.3109 5.18745 14.96C5.49117 14.6165 5.89746 14.2171 6.40131 13.7217L7.206 12.9307C7.27188 12.866 7.30055 12.8373 7.32807 12.8096C8.34356 11.7878 9.03454 10.4595 9.30073 9.00396C9.30793 8.96456 9.31512 8.92368 9.331 8.83111L9.33198 8.82329C9.34683 8.7367 9.3557 8.68413 9.36518 8.63384C9.71003 6.80457 10.8565 5.23532 12.4824 4.40044C12.5269 4.37757 12.5736 4.35464 12.6494 4.31743L15.4775 2.92779L15.7998 2.34478C15.8609 2.23426 15.9267 2.11485 15.9921 2.01665C16.0659 1.90596 16.1755 1.7647 16.3456 1.65239C16.5712 1.50357 16.8395 1.43211 17.1093 1.44829ZM13.3183 5.66021C13.2332 5.70205 13.1985 5.71916 13.1669 5.7354C12.1998 6.2321 11.4492 7.08942 11.0576 8.13286L11.1171 8.10259C12.3221 7.50024 13.7673 7.65367 14.8193 8.49517C15.3369 8.90922 16.0293 9.03277 16.6581 8.82329L17.7138 8.47173C17.7116 8.44164 17.7082 8.40188 17.7031 8.33794L17.455 5.23736L15.9833 4.35064L13.3183 5.66021Z" fill="#48465C"/>
</svg>
