<svg width="24" height="24" viewBox="0 0 24 24" fill="none" xmlns="http://www.w3.org/2000/svg">
<path fill-rule="evenodd" clip-rule="evenodd" d="M19.9761 2.88391C20.269 2.59114 20.7438 2.59106 21.0367 2.88391C21.3293 3.17679 21.3293 3.65165 21.0367 3.94446L19.4039 5.57727C20.6347 7.27243 20.6064 9.59762 19.3189 11.2638L19.3228 11.296V11.3009L19.3238 11.3087L19.3267 11.3361C19.3291 11.3588 19.3328 11.3909 19.3365 11.4318C19.3438 11.5138 19.3527 11.6317 19.3609 11.7804C19.3772 12.0778 19.3898 12.5015 19.3755 13.0167C19.3471 14.0444 19.2113 15.4513 18.7808 16.9572C18.4898 17.9748 18.0368 18.9818 17.5718 19.8624C16.4107 22.0614 13.7391 22.7179 11.6959 21.6749L11.6714 21.6622L10.5513 20.9816C7.44158 19.0898 4.83088 16.4791 2.93902 13.3693L2.25738 12.2491L2.24468 12.2238C1.20172 10.1805 1.85829 7.50896 4.05718 6.34778C4.93786 5.88278 5.94556 5.42978 6.96343 5.1388C8.46926 4.70835 9.87618 4.57351 10.9039 4.54505C11.4186 4.5308 11.8418 4.54242 12.1392 4.55872C12.288 4.56687 12.4057 4.5768 12.4878 4.58411C12.5286 4.58774 12.5608 4.59051 12.5835 4.5929L12.6109 4.59583L12.6197 4.5968H12.6216L12.6226 4.59778L12.6558 4.60169C14.322 3.31404 16.6481 3.28568 18.3433 4.51673L19.9761 2.88391ZM10.9449 6.04407C10.0048 6.07012 8.72901 6.19426 7.37554 6.58118C6.49167 6.83386 5.58431 7.23733 4.75738 7.67395C3.35096 8.41671 2.88506 10.149 3.5689 11.5187L4.22027 12.589C5.98737 15.4938 8.42583 17.9322 11.3306 19.6993L12.4019 20.3517C13.7717 21.0353 15.503 20.5687 16.2457 19.1622C16.6822 18.3354 17.0867 17.4288 17.3394 16.545C17.7263 15.1914 17.8495 13.9148 17.8755 12.9747C17.8885 12.5061 17.8772 12.1242 17.8628 11.8624C17.8601 11.8111 17.8569 11.7646 17.8541 11.7228L12.1978 6.06555C12.156 6.06267 12.1086 6.05959 12.0572 6.05677C11.7954 6.04242 11.4135 6.03109 10.9449 6.04407ZM17.8541 6.06555C16.7675 4.97913 15.103 4.82282 13.8501 5.5968L18.3238 10.0704C19.0978 8.81748 18.9408 7.15221 17.8541 6.06555Z" fill="#48465C"/>
</svg>
