<svg width="24" height="24" viewBox="0 0 24 24" fill="none" xmlns="http://www.w3.org/2000/svg">
<path d="M12.7072 5.48927L18.5109 11.292L20.0626 12.8447C20.0204 13.8747 19.872 15.2245 19.4611 16.6621C19.1625 17.7062 18.6978 18.7391 18.2208 19.6426C17.0297 21.8984 14.2895 22.5727 12.1935 21.5029L12.1681 21.4893L11.0187 20.79C7.82836 18.8493 5.14988 16.1717 3.20911 12.9815L2.50989 11.832L2.49719 11.8067C1.42728 9.71064 2.10082 6.96953 4.35657 5.77833C5.26001 5.30131 6.29382 4.83661 7.33801 4.5381C8.77554 4.12718 10.1254 3.97869 11.1554 3.93653L12.7072 5.48927ZM20.6866 2.2256C20.987 1.92513 21.474 1.92513 21.7745 2.2256C22.0748 2.52607 22.0749 3.01305 21.7745 3.31349L20.0997 4.98829C21.3342 6.68823 21.3342 9.00617 20.0997 10.7061L13.2941 3.9004C14.994 2.66595 17.3118 2.66591 19.0118 3.9004L20.6866 2.2256Z" fill="#48465C"/>
</svg>
