<svg width="24" height="24" viewBox="0 0 24 24" fill="none" xmlns="http://www.w3.org/2000/svg">
<path d="M19.976 2.88397C20.2689 2.59108 20.7437 2.59108 21.0366 2.88397C21.3293 3.17689 21.3294 3.65169 21.0366 3.94452L19.4038 5.57733C20.6347 7.27257 20.6065 9.59764 19.3188 11.2639L19.3227 11.2961L19.3237 11.301L19.3247 11.3088L19.3276 11.3361C19.33 11.3589 19.3327 11.391 19.3364 11.4318C19.3437 11.5139 19.3526 11.6317 19.3608 11.7805C19.3771 12.0779 19.3897 12.5016 19.3754 13.0168C19.347 14.0445 19.2122 15.4514 18.7817 16.9572C18.4907 17.9749 18.0377 18.9819 17.5727 19.8625C16.4116 22.0616 13.74 22.7179 11.6967 21.675L11.6713 21.6623L10.5512 20.9816C7.44133 19.0897 4.83082 16.4783 2.93893 13.3683L2.25728 12.2482L2.24459 12.2238C1.20161 10.1805 1.85897 7.50895 4.05807 6.34784C4.93869 5.88289 5.94556 5.42981 6.96334 5.13886C8.46928 4.70835 9.87602 4.57357 10.9038 4.54511C11.4189 4.53084 11.8426 4.54247 12.1401 4.55878C12.2885 4.56691 12.4057 4.57687 12.4878 4.58417C12.5288 4.58782 12.5616 4.59057 12.5844 4.59296L12.6196 4.59686H12.6235L12.6567 4.60175C14.3229 3.3141 16.648 3.28574 18.3432 4.51679L19.976 2.88397ZM10.9448 6.04413C10.0047 6.0702 8.7288 6.19435 7.37545 6.58124C6.49173 6.8339 5.58506 7.23747 4.75826 7.67401C3.35175 8.41663 2.88518 10.148 3.56881 11.5178L4.22018 12.5891C5.98725 15.4938 8.42581 17.9322 11.3305 19.6994L12.4018 20.3508C13.7716 21.0346 15.5028 20.5687 16.2456 19.1623C16.6822 18.3354 17.0866 17.4279 17.3393 16.5441C17.7261 15.1907 17.8504 13.9148 17.8764 12.9748C17.8894 12.5061 17.8772 12.1243 17.8628 11.8625C17.86 11.8112 17.8578 11.7646 17.8549 11.7228L12.1977 6.06561C12.156 6.06274 12.1093 6.05964 12.0581 6.05683C11.7963 6.04248 11.4136 6.03115 10.9448 6.04413ZM17.8549 6.06561C16.7683 4.97897 15.103 4.82277 13.8501 5.59686L18.3237 10.0705C19.0976 8.81761 18.9415 7.15228 17.8549 6.06561Z" fill="#48465C"/>
</svg>
