<svg width="24" height="24" viewBox="0 0 24 24" fill="none" xmlns="http://www.w3.org/2000/svg">
<path d="M20.2217 7.30374C20.6061 7.15004 21.0424 7.33647 21.1963 7.72074C21.3502 8.10532 21.1629 8.54246 20.7783 8.69632L18.2959 9.68949C18.7399 10.3269 19 11.1019 19 11.9375V13.25H22C22.4142 13.25 22.75 13.5858 22.75 14C22.75 14.4142 22.4142 14.75 22 14.75H19V15C19 16.1807 18.7076 17.2929 18.1914 18.2686L20.7783 19.3037C21.1628 19.4576 21.3499 19.8938 21.1963 20.2784C21.0425 20.6628 20.6062 20.8501 20.2217 20.6963L17.3291 19.5391C16.1977 20.8661 14.5789 21.7651 12.75 21.96V15C12.75 14.5857 12.4142 14.25 12 14.25C11.5858 14.25 11.25 14.5857 11.25 15V21.96C9.4211 21.7651 7.80239 20.8661 6.6709 19.5391L3.77832 20.6963C3.39378 20.8501 2.95755 20.6628 2.80371 20.2784C2.65011 19.8938 2.83723 19.4576 3.22168 19.3037L5.80859 18.2686C5.29243 17.2929 5.00001 16.1807 5 15V14.75H2C1.58581 14.75 1.25002 14.4142 1.25 14C1.25 13.5858 1.58579 13.25 2 13.25H5V11.9375C5 11.1019 5.26014 10.3269 5.7041 9.68949L3.22168 8.69632C2.83711 8.54246 2.64985 8.10532 2.80371 7.72074C2.9577 7.33648 3.39391 7.15003 3.77832 7.30374L6.91504 8.55863C7.50614 8.2041 8.19807 8.00003 8.9375 8.00003H15.0625C15.8019 8.00003 16.4939 8.2041 17.085 8.55863L20.2217 7.30374ZM16.584 1.37601C16.9286 1.14627 17.3943 1.23946 17.624 1.58402C17.8538 1.92866 17.7607 2.39428 17.416 2.62406L15.0566 4.1973C15.7521 4.84109 16.2433 5.70187 16.4238 6.67191C15.9888 6.55979 15.5326 6.50003 15.0625 6.50003H8.9375C8.46743 6.50005 8.01122 6.55975 7.57617 6.67191C7.75663 5.70193 8.24809 4.84109 8.94336 4.1973L6.58398 2.62406C6.23943 2.39426 6.14624 1.92863 6.37598 1.58402C6.60573 1.23945 7.07139 1.14635 7.41602 1.37601L10.3311 3.31937C10.847 3.11322 11.4105 3.00006 12 3.00003C12.5896 3.00003 13.1529 3.11325 13.6689 3.31937L16.584 1.37601Z" fill="#48465C"/>
</svg>
