<svg width="24" height="24" viewBox="0 0 24 24" fill="none" xmlns="http://www.w3.org/2000/svg">
<path d="M16.6143 1.35676C16.9694 1.14382 17.4305 1.25946 17.6436 1.61457C17.8563 1.96969 17.7408 2.42986 17.3857 2.64289L15.623 3.70051C16.6253 4.65662 17.25 6.00579 17.25 7.50031V7.79035C17.5065 7.92595 17.7491 8.08493 17.9746 8.26398C18.0434 8.19656 18.1266 8.14182 18.2217 8.10383L20.2217 7.30402C20.6061 7.15024 21.0423 7.33666 21.1963 7.72101C21.3501 8.1056 21.1629 8.54276 20.7783 8.6966L19.0078 9.40461C19.4778 10.135 19.75 11.0048 19.75 11.9378V13.2503H22C22.4142 13.2503 22.75 13.5861 22.75 14.0003C22.7499 14.4144 22.4141 14.7503 22 14.7503H19.75V15.0003C19.75 16.2792 19.4403 17.4859 18.8916 18.5491L20.7783 19.304C21.1629 19.4578 21.35 19.8941 21.1963 20.2786C21.0424 20.6631 20.6061 20.8503 20.2217 20.6966L18.2217 19.8968C18.168 19.8753 18.1178 19.8483 18.0723 19.8167C16.6526 21.6041 14.4599 22.7503 12 22.7503C9.54001 22.7503 7.34746 21.6042 5.92773 19.8167C5.88214 19.8483 5.832 19.8753 5.77832 19.8968L3.77832 20.6966C3.39378 20.8503 2.95753 20.6631 2.80371 20.2786C2.65003 19.8941 2.83716 19.4578 3.22168 19.304L5.1084 18.5491C4.55973 17.4859 4.25004 16.2792 4.25 15.0003V14.7503H2C1.58586 14.7503 1.25012 14.4144 1.25 14.0003C1.25 13.5861 1.58579 13.2503 2 13.2503H4.25V11.9378C4.25 11.0048 4.52229 10.135 4.99219 9.40461L3.22168 8.6966C2.83709 8.54276 2.64988 8.1056 2.80371 7.72101C2.95766 7.33666 3.39386 7.15025 3.77832 7.30402L5.77832 8.10383C5.8733 8.14182 5.95667 8.19655 6.02539 8.26398C6.25095 8.08494 6.49348 7.92594 6.75 7.79035V7.50031C6.75 6.00579 7.37468 4.65662 8.37695 3.70051L6.61426 2.64289C6.25926 2.42985 6.1437 1.96968 6.35645 1.61457C6.56952 1.25945 7.03059 1.1438 7.38574 1.35676L9.73145 2.76398C10.4181 2.4345 11.1875 2.25031 12 2.25031C12.8125 2.25031 13.5819 2.4345 14.2686 2.76398L16.6143 1.35676ZM8.9375 8.75031C7.17709 8.75031 5.75 10.1774 5.75 11.9378V15.0003C5.75011 18.1982 8.15191 20.8349 11.25 21.2054V15.0003C11.25 14.5861 11.5858 14.2503 12 14.2503C12.4142 14.2503 12.75 14.5861 12.75 15.0003V21.2054C15.8481 20.8349 18.2499 18.1982 18.25 15.0003V11.9378C18.25 10.1774 16.8229 8.75031 15.0625 8.75031H8.9375ZM12 3.75031C9.99635 3.75031 8.3593 5.3215 8.25488 7.29914C8.47759 7.26667 8.70578 7.25031 8.9375 7.25031H15.0625C15.2942 7.25031 15.5224 7.26667 15.7451 7.29914C15.6407 5.3215 14.0036 3.75031 12 3.75031Z" fill="#48465C"/>
</svg>
