<svg width="24" height="24" viewBox="0 0 24 24" fill="none" xmlns="http://www.w3.org/2000/svg">
<path d="M5.53798 4.93773C6.93093 3.54478 9.15355 3.73191 10.038 5.31664L10.6864 6.47973C11.272 7.52916 11.0375 8.90595 10.1151 9.82836C10.1151 9.82836 8.99568 10.9471 11.0243 12.9758C13.0297 14.9812 14.1464 13.9108 14.1718 13.886C15.0943 12.9635 16.4719 12.728 17.5214 13.3137L18.6835 13.9631C20.2683 14.8475 20.4553 17.0691 19.0624 18.4621C18.2255 19.299 17.2006 19.9504 16.0673 19.9934C14.1592 20.0658 10.9185 19.5829 7.66787 16.3323C4.41735 13.0817 3.9344 9.84097 4.00673 7.93285C4.04987 6.79958 4.70112 5.7746 5.53798 4.93773ZM18.4696 4.46996C18.7625 4.17709 19.2373 4.17713 19.5302 4.46996C19.8231 4.76285 19.8231 5.23761 19.5302 5.53051L16.8104 8.25023H17.9999C18.4141 8.25023 18.7499 8.58602 18.7499 9.00023C18.7499 9.41445 18.4141 9.75023 17.9999 9.75023H14.9999C14.5857 9.75017 14.2499 9.41441 14.2499 9.00023V6.00023C14.2499 5.58606 14.5857 5.25029 14.9999 5.25023C15.4141 5.25023 15.7499 5.58602 15.7499 6.00023V7.18969L18.4696 4.46996Z" fill="#48465C"/>
</svg>
