<svg width="24" height="24" viewBox="0 0 24 24" fill="none" xmlns="http://www.w3.org/2000/svg">
<path fill-rule="evenodd" clip-rule="evenodd" d="M5.53743 4.93655C6.93025 3.54375 9.15283 3.73116 10.0374 5.31546L10.6868 6.47854C11.2725 7.52798 11.037 8.90471 10.1146 9.82718C10.1146 9.82718 8.99602 10.9468 11.0247 12.9756C13.0533 15.0039 14.1722 13.8848 14.1722 13.8848C15.0947 12.9624 16.4714 12.7278 17.5208 13.3135L18.6839 13.9619C20.2687 14.8463 20.4557 17.0689 19.0628 18.4619C18.2258 19.2989 17.2002 19.9503 16.0667 19.9932C14.1586 20.0655 10.9178 19.5825 7.66732 16.3321C4.41694 13.0815 3.93385 9.84073 4.00618 7.93264C4.04922 6.79923 4.70047 5.7735 5.53743 4.93655Z" fill="#48465C"/>
</svg>
