<svg width="24" height="24" viewBox="0 0 24 24" fill="none" xmlns="http://www.w3.org/2000/svg">
<path fill-rule="evenodd" clip-rule="evenodd" d="M5.53743 4.9375C6.93038 3.54455 9.153 3.73167 10.0374 5.3164L10.6868 6.47949C11.2723 7.52892 11.037 8.90577 10.1146 9.82812C10.0958 9.84715 9.01343 10.9642 11.0247 12.9756C13.036 14.9868 14.1533 13.9044 14.1722 13.8857C15.0947 12.9633 16.4713 12.7278 17.5208 13.3135L18.6839 13.9619C20.2687 14.8463 20.4556 17.0689 19.0628 18.4619C18.2258 19.2989 17.2002 19.9503 16.0667 19.9932C14.1586 20.0655 10.9178 19.5825 7.66732 16.332C4.41706 13.0815 3.93385 9.84068 4.00618 7.93261C4.0493 6.79946 4.7007 5.77432 5.53743 4.9375ZM14.1214 1.25976C14.147 1.26467 14.2284 1.27959 14.2708 1.28906C14.3562 1.30807 14.4751 1.33766 14.6234 1.38086C14.9202 1.4673 15.3348 1.60977 15.8324 1.83789C16.8286 2.29465 18.1548 3.09395 19.5306 4.46972C20.906 5.84525 21.7048 7.17083 22.1615 8.16699C22.3896 8.66443 22.5321 9.07921 22.6185 9.37597C22.6617 9.52438 22.6913 9.64417 22.7103 9.72949C22.7197 9.77186 22.727 9.80585 22.7318 9.83105L22.7376 9.8623C22.8037 10.2711 22.5284 10.674 22.1195 10.7402C21.7119 10.8061 21.3279 10.5299 21.2601 10.123C21.258 10.112 21.2525 10.0823 21.2464 10.0547C21.234 9.99931 21.2127 9.91169 21.179 9.79589C21.1113 9.56356 20.9934 9.21767 20.7982 8.79199C20.4083 7.9417 19.7068 6.76797 18.4691 5.53027C17.2313 4.29249 16.0576 3.59099 15.2074 3.20117C14.7817 3.00601 14.4358 2.88896 14.2034 2.82128C14.0874 2.78748 13.9414 2.75353 13.8861 2.74121C13.4792 2.67326 13.1932 2.28747 13.2591 1.87988C13.3253 1.47099 13.7125 1.19357 14.1214 1.25976ZM13.4857 5.3291C13.5995 4.93093 14.0152 4.70068 14.4134 4.81445H14.4144L14.4163 4.81543L14.4193 4.8164L14.4271 4.81836L14.4466 4.82421C14.4616 4.82903 14.4809 4.83578 14.5033 4.84375C14.5481 4.85966 14.6074 4.88198 14.68 4.91308C14.8257 4.97552 15.0253 5.07208 15.2699 5.21679C15.7592 5.50647 16.4274 5.98764 17.2122 6.77246C17.9972 7.55744 18.4782 8.22635 18.7679 8.71582C18.9125 8.9602 19.0091 9.15905 19.0716 9.30468C19.1027 9.37726 19.1251 9.43658 19.1409 9.48144C19.1489 9.50389 19.1556 9.523 19.1605 9.53808L19.1663 9.55761L19.1693 9.56542L19.1702 9.56933V9.57031C19.1702 9.57031 19.1707 9.57228 18.4495 9.77832L19.1712 9.57226C19.2847 9.9704 19.0537 10.3853 18.6556 10.499C18.2607 10.6118 17.8497 10.3861 17.7318 9.99414L17.7279 9.98339C17.7226 9.96836 17.7112 9.9387 17.6927 9.8955C17.6557 9.80916 17.5884 9.66802 17.4769 9.47949C17.2539 9.10275 16.8517 8.53294 16.1517 7.833C15.4518 7.13311 14.8819 6.73077 14.5052 6.50781C14.3167 6.39628 14.1756 6.32897 14.0892 6.29199C14.0461 6.27352 14.0163 6.26216 14.0013 6.25683L13.9906 6.2539C13.5986 6.136 13.3729 5.72397 13.4857 5.3291Z" fill="#48465C"/>
</svg>
