<svg width="24" height="24" viewBox="0 0 24 24" fill="none" xmlns="http://www.w3.org/2000/svg">
<path d="M3.00782 6.40723C4.68777 4.72728 7.52241 4.85452 8.69239 6.9502L9.3418 8.11328C10.1057 9.4821 9.78042 11.2098 8.66212 12.3418C8.6471 12.3624 8.56842 12.4772 8.5586 12.6777C8.5461 12.9341 8.63654 13.5271 9.5547 14.4453C10.4727 15.3633 11.0657 15.4548 11.3223 15.4424C11.5233 15.4326 11.6388 15.3528 11.6592 15.3379C12.7912 14.22 14.5181 13.8944 15.8867 14.6582L17.0498 15.3076C19.1455 16.4774 19.2733 19.3122 17.5938 20.9922C16.6951 21.8909 15.4998 22.6899 14.0957 22.7432C12.0148 22.8221 8.55948 22.2841 5.1377 18.8623C1.71597 15.4405 1.17796 11.9852 1.25684 9.9043C1.31019 8.5003 2.10928 7.3058 3.00782 6.40723ZM7.38282 7.68164C6.78379 6.60831 5.17419 6.36195 4.06837 7.46777C3.29308 8.24309 2.78858 9.09918 2.75587 9.96191C2.69017 11.6973 3.11924 14.7227 6.19825 17.8018C9.27761 20.8811 12.3037 21.3099 14.0391 21.2441C14.9017 21.2113 15.7571 20.7068 16.5322 19.9316C17.638 18.8257 17.3917 17.2162 16.3184 16.6172L15.1553 15.9678C14.4319 15.5644 13.4163 15.7029 12.7031 16.416C12.6331 16.4861 12.1866 16.9019 11.3955 16.9404C10.5852 16.9798 9.60399 16.6158 8.49415 15.5059C7.38411 14.3958 7.02 13.4147 7.05958 12.6045C7.09834 11.813 7.51533 11.3676 7.58497 11.2979C8.29819 10.5846 8.43578 9.56812 8.03223 8.84473L7.38282 7.68164ZM17 1.25C20.1756 1.25 22.75 3.82436 22.75 7C22.75 10.1756 20.1756 12.75 17 12.75C16.0816 12.75 15.2113 12.5339 14.4395 12.1494C14.4225 12.141 14.4088 12.1378 14.4004 12.1367C14.3964 12.1362 14.3936 12.1357 14.3926 12.1357L13.2803 12.4336C12.2398 12.7117 11.2882 11.7601 11.5664 10.7197L11.8643 9.60742C11.8643 9.60649 11.8637 9.60431 11.8633 9.60059C11.8622 9.59219 11.8592 9.57784 11.8506 9.56055C11.4661 8.78861 11.25 7.91844 11.25 7C11.25 3.82443 13.8244 1.25012 17 1.25ZM17 2.75C14.6529 2.75012 12.75 4.65286 12.75 7C12.75 7.68116 12.9101 8.32276 13.1934 8.8916C13.3524 9.21082 13.4184 9.60225 13.3135 9.99414L13.0606 10.9404L14.0059 10.6865C14.3977 10.5817 14.7892 10.6477 15.1084 10.8066C15.6772 11.09 16.3189 11.25 17 11.25C19.3472 11.25 21.25 9.34721 21.25 7C21.25 4.65279 19.3472 2.75 17 2.75Z" fill="#48465C"/>
</svg>
