<svg width="24" height="24" viewBox="0 0 24 24" fill="none" xmlns="http://www.w3.org/2000/svg">
<path d="M5.00782 4.40723C6.68777 2.72728 9.52242 2.85452 10.6924 4.9502L11.3418 6.11328C12.1057 7.4821 11.7804 9.2098 10.6621 10.3418C10.6471 10.3624 10.5675 10.4772 10.5576 10.6777C10.5452 10.9341 10.6366 11.5271 11.5547 12.4453C12.4729 13.3634 13.0659 13.4548 13.3223 13.4424C13.523 13.4326 13.6376 13.353 13.6582 13.3379C14.7902 12.2196 16.5179 11.8943 17.8867 12.6582L19.0498 13.3076C21.1456 14.4774 21.2734 17.3122 19.5938 18.9922C18.6951 19.8908 17.4998 20.6899 16.0957 20.7432C14.0148 20.8221 10.5595 20.2841 7.1377 16.8623C3.71597 13.4405 3.17796 9.98521 3.25685 7.9043C3.31018 6.5003 4.10928 5.3058 5.00782 4.40723ZM9.38282 5.68164C8.78379 4.6083 7.17419 4.36195 6.06837 5.46777C5.29308 6.24309 4.78858 7.09918 4.75587 7.96191C4.69017 9.69731 5.11924 12.7227 8.19825 15.8018C11.2776 18.8811 14.3038 19.3099 16.0391 19.2441C16.9017 19.2113 17.7571 18.7068 18.5322 17.9316C19.6381 16.8257 19.3918 15.2162 18.3184 14.6172L17.1553 13.9678C16.4319 13.5644 15.4154 13.7029 14.7022 14.416C14.6312 14.4869 14.1857 14.9019 13.3955 14.9404C12.5853 14.9798 11.6039 14.6158 10.4941 13.5059C9.3841 12.3958 9.02 11.4147 9.05958 10.6045C9.09834 9.81302 9.51526 9.36756 9.58497 9.29785C10.2982 8.58462 10.4358 7.56812 10.0322 6.84473L9.38282 5.68164ZM15 3.25C15.4142 3.25 15.75 3.58579 15.75 4V5C15.75 5.96401 15.7515 6.61169 15.8164 7.09473C15.8785 7.55601 15.986 7.75348 16.1162 7.88379C16.2465 8.01408 16.444 8.12155 16.9053 8.18359C17.2727 8.23299 17.7356 8.24575 18.3604 8.24902L17.5313 7.58594C17.2079 7.32715 17.1563 6.85465 17.415 6.53125C17.6738 6.20815 18.1455 6.15551 18.4688 6.41406L20.9688 8.41406C21.1467 8.55639 21.25 8.77216 21.25 9C21.25 9.22784 21.1467 9.44361 20.9688 9.58594L18.4688 11.5859C18.1455 11.8445 17.6738 11.7919 17.415 11.4688C17.1563 11.1454 17.2079 10.6729 17.5313 10.4141L18.3633 9.74902C17.7199 9.74589 17.1667 9.73182 16.7061 9.66992C16.0783 9.58551 15.5111 9.39981 15.0557 8.94434C14.6004 8.48899 14.4145 7.92248 14.3301 7.29492C14.2501 6.70014 14.25 5.95024 14.25 5.05176V4C14.25 3.58586 14.5859 3.25012 15 3.25Z" fill="#48465C"/>
</svg>
