<svg width="24" height="24" viewBox="0 0 24 24" fill="none" xmlns="http://www.w3.org/2000/svg">
<path fill-rule="evenodd" clip-rule="evenodd" d="M5.53743 4.9375C6.93038 3.54455 9.153 3.73168 10.0374 5.31641L10.6868 6.47949C11.2723 7.52892 11.037 8.90577 10.1146 9.82812C10.0959 9.84707 9.01336 10.9641 11.0247 12.9756C13.0361 14.9868 14.1533 13.9043 14.1722 13.8857C15.0947 12.9633 16.4713 12.7278 17.5208 13.3135L18.6839 13.9619C20.2687 14.8463 20.4556 17.0689 19.0628 18.4619C18.2258 19.2989 17.2002 19.9503 16.0667 19.9932C14.1586 20.0655 10.9178 19.5825 7.66732 16.332C4.41706 13.0815 3.93385 9.84068 4.00618 7.93262C4.0493 6.79946 4.7007 5.77432 5.53743 4.9375ZM15.0003 3.25C15.4145 3.25009 15.7503 3.58584 15.7503 4V5C15.7503 5.96401 15.7518 6.61169 15.8167 7.09473C15.8788 7.5561 15.9862 7.75349 16.1165 7.88379C16.2469 8.01407 16.4443 8.12156 16.9056 8.18359C17.2721 8.23285 17.7336 8.24181 18.3558 8.24512L17.5316 7.58594C17.2081 7.32718 17.1556 6.8547 17.4144 6.53125C17.6732 6.20787 18.1457 6.15533 18.4691 6.41406L20.9691 8.41406C21.1469 8.55639 21.2503 8.7722 21.2503 9C21.2503 9.2278 21.1469 9.44361 20.9691 9.58594L18.4691 11.5859C18.1457 11.8447 17.6732 11.7921 17.4144 11.4688C17.1556 11.1453 17.2081 10.6728 17.5316 10.4141L18.3626 9.74902C17.7195 9.74589 17.1659 9.73182 16.7054 9.66992C16.0778 9.58549 15.5113 9.39963 15.056 8.94434C14.6006 8.48899 14.4148 7.92252 14.3304 7.29492C14.2489 6.6887 14.2503 5.92161 14.2503 5V4C14.2503 3.58579 14.5861 3.25 15.0003 3.25Z" fill="#48465C"/>
</svg>
