<svg width="24" height="24" viewBox="0 0 24 24" fill="none" xmlns="http://www.w3.org/2000/svg">
<path d="M5.00782 4.4062C6.68788 2.72629 9.52258 2.85414 10.6924 4.95014L11.3418 6.11323C12.1055 7.48192 11.7802 9.20883 10.6621 10.3408C10.6472 10.3612 10.5676 10.4761 10.5576 10.6767C10.5451 10.933 10.6365 11.526 11.5547 12.4443C12.4729 13.3625 13.0659 13.4538 13.3223 13.4414C13.5222 13.4316 13.6369 13.3533 13.6582 13.3378C14.7902 12.2195 16.5179 11.8943 17.8867 12.6582L19.0498 13.3066C21.1459 14.4764 21.2737 17.3121 19.5938 18.9921C18.6951 19.8908 17.4998 20.6889 16.0957 20.7421C14.0148 20.821 10.5595 20.2839 7.1377 16.8623C3.71601 13.4406 3.17799 9.9852 3.25684 7.90425C3.31007 6.50005 4.10916 5.30486 5.00782 4.4062ZM9.38282 5.68061C8.78366 4.60762 7.17406 4.36118 6.06836 5.46675C5.29301 6.2421 4.78857 7.09812 4.75586 7.96089C4.69007 9.69623 5.11888 12.7223 8.19825 15.8017C11.2775 18.8809 14.3038 19.3089 16.0391 19.2431C16.9016 19.2103 17.7571 18.7066 18.5322 17.9316C19.6381 16.8257 19.3917 15.2162 18.3184 14.6171L17.1553 13.9677C16.432 13.5642 15.4163 13.7019 14.7031 14.415C14.633 14.485 14.1868 14.9008 13.3955 14.9394C12.5853 14.9788 11.6039 14.6146 10.4941 13.5048C9.38416 12.3948 9.01991 11.4137 9.05957 10.6035C9.0984 9.81206 9.51533 9.36648 9.58496 9.29682C10.2981 8.58352 10.4359 7.56702 10.0322 6.8437L9.38282 5.68061ZM14.1211 1.25971C14.1463 1.26455 14.2277 1.27951 14.2705 1.28901C14.3557 1.308 14.4748 1.33764 14.623 1.38081C14.9198 1.46723 15.3346 1.6098 15.832 1.83784C16.8283 2.2946 18.1545 3.09388 19.5303 4.46968C20.9059 5.84536 21.7053 7.17071 22.1621 8.16694C22.3902 8.66445 22.5326 9.07916 22.6191 9.37593C22.6623 9.52413 22.6919 9.64317 22.7109 9.72846C22.7204 9.771 22.7266 9.80572 22.7314 9.831L22.7373 9.86225C22.8035 10.2711 22.529 10.6739 22.1201 10.7402C21.7123 10.8062 21.3286 10.5299 21.2607 10.123C21.2586 10.112 21.2523 10.0823 21.2461 10.0546C21.2338 9.99924 21.2125 9.91164 21.1787 9.79585C21.1111 9.56352 20.9939 9.21762 20.7988 8.79194C20.4089 7.94167 19.7074 6.76797 18.4697 5.53022C17.2318 4.29236 16.0573 3.59095 15.207 3.20112C14.7816 3.00609 14.4363 2.8889 14.2041 2.82124C14.088 2.78745 13.9423 2.75352 13.8867 2.74116C13.4798 2.67333 13.1938 2.28753 13.2598 1.87983C13.326 1.47104 13.7123 1.19371 14.1211 1.25971ZM13.4863 5.32905C13.6002 4.93095 14.0149 4.70069 14.4131 4.8144H14.415L14.416 4.81538L14.4277 4.81831L14.4473 4.82417C14.4623 4.82898 14.4815 4.83575 14.5039 4.8437C14.5488 4.85963 14.6081 4.88194 14.6807 4.91304C14.8262 4.97546 15.0251 5.07211 15.2695 5.21675C15.759 5.50638 16.4272 5.98766 17.2119 6.77241C17.9969 7.55739 18.4789 8.2263 18.7686 8.71577C18.9131 8.96 19.0089 9.15905 19.0713 9.30464C19.1024 9.37731 19.1257 9.43651 19.1416 9.48139C19.1496 9.50384 19.1563 9.52296 19.1611 9.53804L19.167 9.55757L19.1699 9.56929L19.1709 9.57026C19.1709 9.57026 19.1711 9.5723 18.4502 9.77827L19.1709 9.57221C19.2845 9.97027 19.0542 10.385 18.6563 10.499C18.2614 10.6118 17.8493 10.3862 17.7314 9.99409L17.7275 9.98335C17.7222 9.9683 17.7118 9.93853 17.6934 9.89546C17.6564 9.80914 17.5891 9.66795 17.4775 9.47944C17.2545 9.1027 16.8513 8.53292 16.1514 7.83296C15.4516 7.13331 14.8826 6.7307 14.5059 6.50776C14.3174 6.3962 14.1762 6.32895 14.0898 6.29194C14.0466 6.27343 14.017 6.26212 14.002 6.25679L13.9912 6.25386C13.5991 6.13598 13.3735 5.72394 13.4863 5.32905Z" fill="#48465C"/>
</svg>
