<svg width="24" height="24" viewBox="0 0 24 24" fill="none" xmlns="http://www.w3.org/2000/svg">
<path d="M5.53826 4.93657C6.93124 3.54411 9.15295 3.73189 10.0373 5.31645L10.6867 6.47856C11.2724 7.52802 11.0369 8.90472 10.1144 9.82719C10.1144 9.82719 8.99587 10.9468 11.0246 12.9756C13.0532 15.004 14.172 13.8848 14.172 13.8848C15.0945 12.9624 16.4712 12.7279 17.5207 13.3135L18.6838 13.962C20.2686 14.8464 20.4556 17.069 19.0627 18.462C18.2257 19.2989 17.2001 19.9503 16.0666 19.9932C14.1585 20.0655 10.9185 19.5823 7.66814 16.3321C4.41757 13.0815 3.93467 9.84079 4.00701 7.93266C4.05006 6.79927 4.70131 5.77351 5.53826 4.93657ZM19.0002 4.25005C19.4143 4.25014 19.7502 4.58589 19.7502 5.00005V8.00005C19.75 8.41409 19.4142 8.74995 19.0002 8.75005C18.586 8.75005 18.2503 8.41414 18.2502 8.00005V6.81059L15.5304 9.53032C15.2376 9.8231 14.7628 9.82299 14.4699 9.53032C14.177 9.23744 14.177 8.76267 14.4699 8.46977L17.1896 5.75005H16.0002C15.586 5.75005 15.2503 5.41414 15.2502 5.00005C15.2502 4.58583 15.586 4.25005 16.0002 4.25005H19.0002Z" fill="#48465C"/>
</svg>
