<svg width="24" height="24" viewBox="0 0 24 24" fill="none" xmlns="http://www.w3.org/2000/svg">
<path d="M5.53823 4.9375C6.93118 3.54464 9.15284 3.73171 10.0373 5.31641L10.6867 6.47949C11.2721 7.52893 11.0368 8.90575 10.1144 9.82812C10.0937 9.84924 9.01518 10.9661 11.0246 12.9756C13.0339 14.9849 14.151 13.9064 14.172 13.8857C15.0945 12.9633 16.4712 12.7279 17.5207 13.3135L18.6837 13.9619C20.2685 14.8463 20.4555 17.0689 19.0626 18.4619C18.2256 19.2989 17.2 19.9503 16.0665 19.9932C14.1584 20.0655 10.9185 19.5824 7.66811 16.332C4.41754 13.0814 3.93464 9.84075 4.00698 7.93262C4.05012 6.79932 4.70134 5.77438 5.53823 4.9375ZM15.0001 3.25C15.4143 3.25002 15.7501 3.5858 15.7501 4V5C15.7501 5.96401 15.7516 6.61169 15.8165 7.09473C15.8786 7.55611 15.986 7.75349 16.1164 7.88379C16.2467 8.01409 16.4441 8.12155 16.9054 8.18359C17.2719 8.23286 17.7333 8.24181 18.3556 8.24512L17.5314 7.58594C17.2079 7.32718 17.1554 6.8547 17.4142 6.53125C17.673 6.20782 18.1455 6.15531 18.4689 6.41406L20.9689 8.41406C21.1468 8.55639 21.2501 8.77217 21.2501 9C21.2501 9.22783 21.1468 9.44361 20.9689 9.58594L18.4689 11.5859C18.1455 11.8447 17.673 11.7922 17.4142 11.4688C17.1554 11.1453 17.2079 10.6728 17.5314 10.4141L18.3624 9.74902C17.7192 9.74589 17.1657 9.73183 16.7052 9.66992C16.0776 9.58549 15.5112 9.39967 15.0558 8.94434C14.6004 8.48898 14.4147 7.92253 14.3302 7.29492C14.2487 6.6887 14.2501 5.92161 14.2501 5V4C14.2501 3.58579 14.5859 3.25 15.0001 3.25Z" fill="#48465C"/>
</svg>
