<svg width="24" height="24" viewBox="0 0 24 24" fill="none" xmlns="http://www.w3.org/2000/svg">
<path d="M5.00781 4.40721C6.68789 2.72724 9.52259 2.85509 10.6924 4.95116L11.3418 6.11425C12.1055 7.48295 11.7802 9.20991 10.6621 10.3418C10.6472 10.3622 10.5676 10.4771 10.5576 10.6777C10.5451 10.934 10.6365 11.527 11.5547 12.4453C12.4729 13.3634 13.0659 13.4549 13.3223 13.4424C13.522 13.4326 13.6368 13.3545 13.6582 13.3389C14.7902 12.2206 16.5179 11.8953 17.8867 12.6592L19.0498 13.3076C21.1458 14.4775 21.2737 17.3131 19.5937 18.9932C18.6951 19.8917 17.4998 20.6898 16.0957 20.7432C14.0148 20.822 10.5594 20.2849 7.1377 16.8633C3.71605 13.4416 3.178 9.98622 3.25684 7.90526C3.31007 6.50106 4.10915 5.30587 5.00781 4.40721ZM9.38281 5.68163C8.78367 4.60858 7.17408 4.36214 6.06836 5.46776C5.29301 6.2431 4.78857 7.09912 4.75586 7.9619C4.69008 9.69725 5.11891 12.7234 8.19824 15.8027C11.2775 18.8819 14.3038 19.3099 16.0391 19.2441C16.9016 19.2113 17.7571 18.7077 18.5322 17.9326C19.6381 16.8268 19.3917 15.2172 18.3184 14.6182L17.1553 13.9687C16.4319 13.5651 15.4155 13.7028 14.7021 14.416C14.6319 14.4862 14.1865 14.9018 13.3955 14.9404C12.5853 14.9799 11.6039 14.6156 10.4941 13.5058C9.38415 12.3958 9.0199 11.4147 9.05957 10.6045C9.09836 9.81304 9.51531 9.36749 9.58496 9.29784C10.2981 8.58453 10.4359 7.56807 10.0322 6.84471L9.38281 5.68163ZM18.4697 4.46971C18.7625 4.17699 19.2374 4.17713 19.5303 4.46971C19.8231 4.76257 19.8231 5.23735 19.5303 5.53026L16.8105 8.24999H18C18.4141 8.24999 18.7498 8.58595 18.75 8.99999C18.75 9.4142 18.4142 9.74999 18 9.74999H15C14.5859 9.74987 14.25 9.41413 14.25 8.99999V5.99999C14.2502 5.58602 14.586 5.25011 15 5.24999C15.4141 5.24999 15.7498 5.58595 15.75 5.99999V7.18944L18.4697 4.46971Z" fill="#48465C"/>
</svg>
