<svg width="24" height="24" viewBox="0 0 24 24" fill="none" xmlns="http://www.w3.org/2000/svg">
<path d="M5.53823 4.93657C6.93121 3.54411 9.15292 3.73189 10.0373 5.31645L10.6867 6.47856C11.2724 7.52802 11.0368 8.90472 10.1144 9.82719C10.1144 9.82719 8.99584 10.9468 11.0246 12.9756C13.0531 15.004 14.172 13.8848 14.172 13.8848C15.0945 12.9624 16.4712 12.7279 17.5207 13.3135L18.6837 13.962C20.2685 14.8464 20.4555 17.069 19.0626 18.462C18.2257 19.2989 17.2 19.9503 16.0665 19.9932C14.1584 20.0655 10.9185 19.5823 7.66811 16.3321C4.41754 13.0815 3.93464 9.84079 4.00698 7.93266C4.05003 6.79927 4.70128 5.77351 5.53823 4.93657Z" fill="#48465C"/>
</svg>
