<svg width="24" height="24" viewBox="0 0 24 24" fill="none" xmlns="http://www.w3.org/2000/svg">
<path fill-rule="evenodd" clip-rule="evenodd" d="M3.53743 6.9375C4.93038 5.54455 7.15301 5.73168 8.03743 7.31641L8.68685 8.47949C9.27227 9.52892 9.03694 10.9057 8.11458 11.8281C8.09576 11.8472 7.01351 12.9643 9.02474 14.9756C11.0361 16.9868 12.1533 15.9043 12.1722 15.8857C13.0947 14.9633 14.4713 14.7278 15.5208 15.3135L16.6839 15.9619C18.2687 16.8463 18.4556 19.0689 17.0628 20.4619C16.2258 21.2989 15.2002 21.9503 14.0667 21.9932C12.1586 22.0655 8.91778 21.5825 5.66732 18.332C2.41706 15.0815 1.93385 11.8407 2.00618 9.93262C2.0493 8.79946 2.7007 7.77432 3.53743 6.9375ZM17.0003 2C19.7616 2.00015 22.0003 4.23867 22.0003 7C22.0003 9.76133 19.7616 11.9998 17.0003 12C16.2005 12 15.4442 11.8124 14.7738 11.4785C14.5956 11.3897 14.3918 11.3597 14.1995 11.4111L13.0863 11.709C12.6032 11.8379 12.1611 11.3962 12.2904 10.9131L12.5882 9.80078C12.6396 9.6086 12.6105 9.40465 12.5218 9.22656C12.1879 8.55614 12.0003 7.79984 12.0003 7C12.0003 4.23858 14.2389 2 17.0003 2Z" fill="#48465C"/>
</svg>
