<svg width="24" height="24" viewBox="0 0 24 24" fill="none" xmlns="http://www.w3.org/2000/svg">
<path d="M3.53823 6.9375C4.93118 5.54464 7.15285 5.73171 8.03725 7.31641L8.68667 8.47949C9.27213 9.52893 9.03677 10.9057 8.1144 11.8281C8.09351 11.8494 7.01531 12.9663 9.02456 14.9756C11.0339 16.9849 12.151 15.9064 12.172 15.8857C13.0945 14.9633 14.4712 14.7279 15.5207 15.3135L16.6837 15.9619C18.2685 16.8463 18.4555 19.0689 17.0626 20.4619C16.2256 21.2989 15.2 21.9503 14.0665 21.9932C12.1584 22.0655 8.91848 21.5824 5.66811 18.332C2.41754 15.0814 1.93464 11.8407 2.00698 9.93262C2.05012 8.79932 2.70134 7.77438 3.53823 6.9375ZM17.0001 2C19.7615 2.00009 22.0001 4.23863 22.0001 7C22.0001 9.76137 19.7615 11.9999 17.0001 12C16.2003 12 15.444 11.8124 14.7736 11.4785C14.5954 11.3897 14.3916 11.3597 14.1994 11.4111L13.0871 11.709C12.6039 11.8383 12.1619 11.3963 12.2912 10.9131L12.589 9.80078C12.6404 9.60859 12.6103 9.40467 12.5216 9.22656C12.1877 8.55614 12.0001 7.79984 12.0001 7C12.0001 4.23858 14.2387 2 17.0001 2Z" fill="#48465C"/>
</svg>
