<svg width="24" height="24" viewBox="0 0 24 24" fill="none" xmlns="http://www.w3.org/2000/svg">
<path d="M5.53823 4.93696C6.93107 3.54459 9.15274 3.73172 10.0373 5.31587L10.6867 6.47895C11.2724 7.52842 11.0369 8.90512 10.1144 9.82759C10.1144 9.82759 8.99584 10.9472 11.0246 12.976C13.0531 15.0044 14.172 13.8852 14.172 13.8852C15.0945 12.9627 16.4712 12.7282 17.5207 13.3139L18.6837 13.9624C20.2685 14.8468 20.4555 17.0694 19.0626 18.4624C18.2257 19.2993 17.2 19.9507 16.0665 19.9936C14.1585 20.0659 10.9184 19.5827 7.66811 16.3325C4.41754 13.0819 3.93464 9.84118 4.00698 7.93305C4.05001 6.79963 4.70126 5.77392 5.53823 4.93696ZM19.4699 3.47016C19.7628 3.17726 20.2375 3.17726 20.5304 3.47016C20.8231 3.76307 20.8232 4.2379 20.5304 4.53071L19.0607 6.00044L20.5304 7.47016C20.823 7.76309 20.8232 8.23791 20.5304 8.53071C20.2376 8.82346 19.7627 8.82334 19.4699 8.53071L18.0001 7.06098L16.5304 8.53071C16.2377 8.82347 15.7628 8.82334 15.4699 8.53071C15.177 8.23785 15.1771 7.76306 15.4699 7.47016L16.9396 6.00044L15.4699 4.53071C15.177 4.23785 15.1771 3.76306 15.4699 3.47016C15.7628 3.17727 16.2375 3.17727 16.5304 3.47016L18.0001 4.93989L19.4699 3.47016Z" fill="#48465C"/>
</svg>
