<svg width="24" height="24" viewBox="0 0 24 24" fill="none" xmlns="http://www.w3.org/2000/svg">
<path fill-rule="evenodd" clip-rule="evenodd" d="M5.53743 4.93739C6.93038 3.54444 9.153 3.73156 10.0374 5.31629L10.6868 6.47938C11.2722 7.52881 11.037 8.90567 10.1146 9.82801C10.0949 9.848 9.01431 10.965 11.0247 12.9755C13.0533 15.0039 14.1722 13.8847 14.1722 13.8847C15.0947 12.9623 16.4714 12.7277 17.5208 13.3134L18.6839 13.9618C20.2687 14.8462 20.4556 17.0688 19.0628 18.4618C18.2258 19.2988 17.2002 19.9502 16.0667 19.9931C14.1586 20.0654 10.9178 19.5824 7.66732 16.3319C4.41703 13.0814 3.93385 9.84057 4.00618 7.93251C4.04929 6.79934 4.7007 5.77422 5.53743 4.93739ZM19.47 3.46961C19.763 3.17684 20.2377 3.17675 20.5306 3.46961C20.8233 3.76247 20.8233 4.23731 20.5306 4.53016L19.0609 5.99989L20.5306 7.46961C20.8232 7.76249 20.8233 8.23733 20.5306 8.53016C20.2378 8.823 19.7629 8.82288 19.47 8.53016L18.0003 7.06043L16.5306 8.53016C16.2379 8.823 15.763 8.82288 15.47 8.53016C15.1771 8.23727 15.1771 7.7625 15.47 7.46961L16.9398 5.99989L15.47 4.53016C15.1771 4.23727 15.1771 3.7625 15.47 3.46961C15.763 3.17684 16.2377 3.17676 16.5306 3.46961L18.0003 4.93934L19.47 3.46961Z" fill="#48465C"/>
</svg>
