<svg width="24" height="24" viewBox="0 0 24 24" fill="none" xmlns="http://www.w3.org/2000/svg">
<path d="M5.53823 4.9375C6.93118 3.54459 9.15283 3.73169 10.0373 5.3164L10.6867 6.47949C11.2721 7.52892 11.0368 8.90577 10.1144 9.82812C10.0921 9.85081 9.01664 10.9676 11.0246 12.9756C13.0532 15.0041 14.172 13.8848 14.172 13.8848C15.0945 12.9624 16.4712 12.7279 17.5207 13.3135L18.6837 13.9619C20.2685 14.8463 20.4555 17.0689 19.0626 18.4619C18.2256 19.2989 17.2 19.9503 16.0665 19.9932C14.1584 20.0655 10.9185 19.5823 7.66811 16.332C4.41754 13.0814 3.93464 9.84074 4.00698 7.93261C4.05009 6.79928 4.70132 5.7744 5.53823 4.9375ZM14.1212 1.25976C14.1467 1.26465 14.2282 1.27958 14.2707 1.28906C14.356 1.30807 14.4749 1.33765 14.6232 1.38086C14.92 1.46729 15.3346 1.60976 15.8322 1.83789C16.8285 2.29465 18.1546 3.09392 19.5304 4.46972C20.9059 5.84526 21.7046 7.17083 22.1613 8.16699C22.3894 8.66446 22.5319 9.07921 22.6183 9.37597C22.6614 9.52415 22.6911 9.64322 22.7101 9.72851C22.7196 9.77114 22.7268 9.80575 22.7316 9.83105L22.7374 9.8623C22.8035 10.2712 22.5282 10.674 22.1193 10.7402C21.7117 10.806 21.3277 10.5298 21.2599 10.123C21.2578 10.112 21.2523 10.0824 21.2462 10.0547C21.2338 9.99932 21.2125 9.9117 21.1789 9.79589C21.1112 9.56356 20.9932 9.21767 20.798 8.79199C20.4082 7.94179 19.7074 6.76785 18.4699 5.53027C17.2321 4.29241 16.0575 3.591 15.2072 3.20117C14.7818 3.00617 14.4366 2.88899 14.2042 2.82128C14.0881 2.78745 13.9413 2.75354 13.8859 2.74121C13.4791 2.67321 13.194 2.28745 13.2599 1.87988C13.3261 1.47099 13.7123 1.19357 14.1212 1.25976ZM13.4855 5.3291C13.5993 4.93086 14.015 4.70066 14.4132 4.81445H14.4142L14.4162 4.81543L14.4191 4.8164L14.4269 4.81836L14.4464 4.82421C14.4614 4.82903 14.4807 4.83578 14.5031 4.84375C14.5479 4.85966 14.6072 4.88198 14.6798 4.91308C14.8255 4.97552 15.0251 5.07208 15.2697 5.21679C15.759 5.50646 16.4272 5.98762 17.2121 6.77246C17.9968 7.55721 18.478 8.22541 18.7677 8.71484C18.9124 8.95935 19.0089 9.15899 19.0714 9.30468C19.1026 9.37743 19.1259 9.43655 19.1417 9.48144C19.1497 9.50389 19.1554 9.523 19.1603 9.53808L19.1662 9.55761L19.1691 9.56543L19.1701 9.56933V9.57031C19.1687 9.57083 19.138 9.58157 18.4494 9.77832L19.171 9.57226C19.2845 9.97039 19.0535 10.3853 18.6554 10.499C18.2606 10.6117 17.8495 10.3861 17.7316 9.99414L17.7277 9.98339C17.7224 9.96836 17.711 9.9387 17.6925 9.8955C17.6555 9.80916 17.5883 9.66804 17.4767 9.47949C17.2537 9.10275 16.8515 8.53295 16.1515 7.833C15.4517 7.13312 14.8817 6.73077 14.505 6.50781C14.3166 6.39629 14.1754 6.32897 14.089 6.29199C14.0459 6.27354 14.0161 6.26215 14.0011 6.25683L13.9904 6.2539C13.5985 6.13596 13.3727 5.72394 13.4855 5.3291Z" fill="#48465C"/>
</svg>
