<svg width="24" height="24" viewBox="0 0 24 24" fill="none" xmlns="http://www.w3.org/2000/svg">
<path d="M7.50002 17.2502C8.74254 17.2503 9.75002 18.2576 9.75002 19.5002C9.74987 20.7425 8.74245 21.75 7.50002 21.7502C6.25747 21.7502 5.25017 20.7426 5.25002 19.5002C5.25002 18.2576 6.25738 17.2502 7.50002 17.2502ZM16.5 17.2502C17.7426 17.2503 18.75 18.2575 18.75 19.5002C18.7499 20.7425 17.7425 21.75 16.5 21.7502C15.2575 21.7502 14.2502 20.7426 14.25 19.5002C14.25 18.2575 15.2574 17.2502 16.5 17.2502ZM7.50002 18.7502C7.08581 18.7502 6.75002 19.086 6.75002 19.5002C6.75017 19.9142 7.0859 20.2502 7.50002 20.2502C7.91403 20.25 8.24987 19.9141 8.25002 19.5002C8.25002 19.086 7.91412 18.7503 7.50002 18.7502ZM16.5 18.7502C16.0858 18.7502 15.75 19.086 15.75 19.5002C15.7502 19.9142 16.0859 20.2502 16.5 20.2502C16.914 20.25 17.2499 19.9141 17.25 19.5002C17.25 19.086 16.9141 18.7503 16.5 18.7502ZM1.29201 2.75113C1.42941 2.36039 1.85829 2.15476 2.24904 2.29215L2.54982 2.39859C3.16635 2.61533 3.69047 2.79893 4.10256 3.00113C4.54312 3.2173 4.92093 3.48382 5.2051 3.89957C5.48708 4.31222 5.60352 4.76549 5.65725 5.26187C5.66108 5.29734 5.66472 5.3336 5.66799 5.37027H17.1201C17.9385 5.37026 18.773 5.36969 19.46 5.44644C19.8097 5.48554 20.1564 5.54873 20.4629 5.6564C20.7633 5.76197 21.0941 5.93411 21.3291 6.23941C21.7109 6.7358 21.7774 7.31434 21.7412 7.90054C21.7067 8.45865 21.568 9.15286 21.4033 9.97769L21.3936 10.0295L21.3926 10.0343L20.8838 12.5031C20.7341 13.2295 20.6078 13.8413 20.4453 14.3234C20.2729 14.8349 20.0339 15.2844 19.6074 15.632C19.1809 15.9796 18.692 16.1231 18.1563 16.1886C17.6514 16.2504 17.0275 16.2502 16.2862 16.2502H10.8799C9.53427 16.2502 8.44414 16.2498 7.58596 16.1281C6.69008 16.0011 5.93748 15.7287 5.34377 15.1027C4.79754 14.5266 4.50475 13.914 4.35842 13.0597C4.22145 12.2596 4.20803 11.2121 4.20803 9.75992V7.03824C4.20803 6.29841 4.20718 5.80318 4.16604 5.42301C4.12672 5.05981 4.05703 4.87831 3.96682 4.74625C3.87876 4.61738 3.74465 4.49659 3.44143 4.34781C3.11862 4.18946 2.68006 4.03361 2.01272 3.79898L1.751 3.70718C1.36045 3.56967 1.15466 3.14178 1.29201 2.75113ZM5.70803 9.75992C5.70803 11.2487 5.72581 12.1578 5.83693 12.8068C5.93883 13.4017 6.11153 13.7328 6.43166 14.0705C6.70421 14.3579 7.08208 14.5423 7.79689 14.6437C8.53756 14.7487 9.52075 14.7502 10.9375 14.7502H16.2403C17.0396 14.7502 17.5714 14.7487 17.9746 14.6994C18.3571 14.6525 18.535 14.5709 18.6602 14.4689C18.7853 14.3669 18.9005 14.2089 19.0235 13.8439C19.1531 13.4591 19.2625 12.939 19.4238 12.1564L19.9219 9.73648L19.9229 9.73355C20.1005 8.84378 20.2169 8.25128 20.2442 7.80777C20.2701 7.3869 20.2039 7.23979 20.1426 7.15836C20.1364 7.15309 20.0929 7.11607 19.9658 7.07144C19.8105 7.01685 19.5894 6.97069 19.294 6.93765C18.6992 6.87116 17.9452 6.87027 17.0889 6.87027H5.70803V9.75992ZM13 8.25015C13.4141 8.25029 13.75 8.58603 13.75 9.00015V10.2502H15C15.4141 10.2503 15.75 10.586 15.75 11.0002C15.7499 11.4141 15.414 11.75 15 11.7502H13.75V13.0002C13.7499 13.4141 13.414 13.75 13 13.7502C12.5859 13.7502 12.2502 13.4142 12.25 13.0002V11.7502H11C10.5859 11.7502 10.2502 11.4142 10.25 11.0002C10.25 10.586 10.5858 10.2502 11 10.2502H12.25V9.00015C12.25 8.58594 12.5858 8.25015 13 8.25015Z" fill="#48465C"/>
</svg>
