<svg width="24" height="24" viewBox="0 0 24 24" fill="none" xmlns="http://www.w3.org/2000/svg">
<path d="M7.50028 18.0006C8.32857 18.0007 9.00028 18.6722 9.00028 19.5006C9.00019 20.3288 8.32851 21.0004 7.50028 21.0006C6.67191 21.0006 6.00038 20.3289 6.00028 19.5006C6.00028 18.6721 6.67185 18.0006 7.50028 18.0006ZM16.5003 18.0006C17.3286 18.0007 18.0003 18.6723 18.0003 19.5006C18.0002 20.3289 17.3285 21.0004 16.5003 21.0006C15.6719 21.0006 15.0004 20.329 15.0003 19.5006C15.0003 18.6722 15.6719 18.0006 16.5003 18.0006ZM2.08427 2.75156C2.22164 2.36088 2.64963 2.15533 3.04032 2.29257L3.34208 2.39902C3.95834 2.61565 4.48185 2.79944 4.89384 3.00156C5.33436 3.21771 5.71222 3.48429 5.99637 3.89999C6.27835 4.31263 6.39479 4.76592 6.44852 5.2623C6.47255 5.4844 6.48578 5.7304 6.49247 6.00058H17.1302C18.8152 6.00058 20.3327 6.00065 20.7766 6.57773C21.2202 7.15481 21.0465 8.0246 20.6995 9.76327L20.1995 12.1881C19.8844 13.7168 19.7267 14.4817 19.1751 14.9312C18.6235 15.3805 17.8429 15.3805 16.2825 15.3805H10.9788C8.19014 15.3805 6.79535 15.3803 5.92899 14.4664C5.06283 13.5527 4.9993 12.5815 4.9993 9.64023V7.03867C4.9993 6.29878 4.99845 5.80362 4.95731 5.42343C4.91799 5.06012 4.84834 4.87875 4.75809 4.74667C4.67005 4.61784 4.53677 4.49698 4.23368 4.34824C3.91084 4.18983 3.47159 4.03412 2.80399 3.79941L2.54325 3.70761C2.15248 3.57023 1.94688 3.14232 2.08427 2.75156ZM10.2395 8.87558C10.1704 8.46719 9.7827 8.19214 9.3743 8.26132C8.96622 8.33072 8.69098 8.71739 8.76005 9.12558L9.28837 12.2437C9.35764 12.652 9.74531 12.9272 10.1536 12.858C10.5619 12.7887 10.8371 12.4011 10.7679 11.9928L10.2395 8.87558ZM15.6536 8.26132C15.2452 8.19214 14.8576 8.46719 14.7884 8.87558L14.261 11.9928C14.1918 12.4012 14.467 12.7888 14.8753 12.858C15.2834 12.9269 15.6703 12.6518 15.7395 12.2437L16.2679 9.12558C16.337 8.71723 16.0619 8.33054 15.6536 8.26132Z" fill="#48465C"/>
</svg>
