<svg width="24" height="24" viewBox="0 0 24 24" fill="none" xmlns="http://www.w3.org/2000/svg">
<path d="M13.9994 2.25C14.6978 2.25 15.3007 2.65933 15.5814 3.25098C16.265 3.25595 16.7982 3.2868 17.2738 3.47266C17.8418 3.69474 18.3359 4.07281 18.6996 4.5625C19.0664 5.05657 19.2389 5.68996 19.4759 6.56152L19.5218 6.73145L20.0345 9.69434C20.2201 9.82229 20.3817 9.97383 20.5218 10.1533C21.4227 11.307 20.994 13.0234 20.1361 16.4551C19.5904 18.6378 19.317 19.7289 18.5033 20.3643C17.6895 20.9996 16.5646 21 14.3148 21H9.68493C7.43507 21 6.30926 20.9997 5.49548 20.3643C4.68203 19.7288 4.40922 18.6374 3.86364 16.4551C3.00571 13.0233 2.57708 11.307 3.4779 10.1533C3.61795 9.97401 3.77887 9.82221 3.96423 9.69434L4.47692 6.73145L4.5238 6.56152C4.76087 5.68987 4.93324 5.05659 5.30017 4.5625C5.66388 4.0728 6.15779 3.69471 6.72595 3.47266C7.20137 3.2869 7.73406 3.25595 8.41735 3.25098C8.69803 2.65939 9.30108 2.25009 9.99939 2.25H13.9994ZM7.99939 12.25C7.58539 12.2503 7.24939 12.586 7.24939 13V17C7.24939 17.414 7.58539 17.7497 7.99939 17.75C8.4136 17.75 8.74939 17.4142 8.74939 17V13C8.74939 12.5858 8.4136 12.25 7.99939 12.25ZM11.9994 12.25C11.5854 12.2503 11.2494 12.586 11.2494 13V17C11.2494 17.414 11.5854 17.7497 11.9994 17.75C12.4136 17.75 12.7494 17.4142 12.7494 17V13C12.7494 12.5858 12.4136 12.25 11.9994 12.25ZM15.9994 12.25C15.5854 12.2503 15.2494 12.586 15.2494 13V17C15.2494 17.414 15.5854 17.7497 15.9994 17.75C16.4136 17.75 16.7494 17.4142 16.7494 17V13C16.7494 12.5858 16.4136 12.25 15.9994 12.25ZM15.5804 4.75195C15.2991 5.34201 14.6966 5.75 13.9994 5.75H9.99939C9.30224 5.74991 8.70059 5.34195 8.41931 4.75195C7.75748 4.75864 7.49165 4.78421 7.27185 4.87012C6.9659 4.98969 6.70011 5.19333 6.50427 5.45703C6.33011 5.6916 6.22648 6.01807 5.94274 7.05762L5.58142 9.14551C6.57958 8.99974 7.90991 9 9.68493 9H14.3148C16.0895 9 17.4193 8.99983 18.4174 9.14551L18.056 7.05762C17.7724 6.01852 17.6695 5.69158 17.4955 5.45703C17.2997 5.19331 17.0329 4.98969 16.7269 4.87012C16.5072 4.78433 16.2417 4.75864 15.5804 4.75195Z" fill="#48465C"/>
</svg>
