<svg width="24" height="24" viewBox="0 0 24 24" fill="none" xmlns="http://www.w3.org/2000/svg">
<path fill-rule="evenodd" clip-rule="evenodd" d="M7.50028 18.0006C8.32855 18.0008 9.00028 18.6723 9.00028 19.5006C9.00009 20.3288 8.32844 21.0004 7.50028 21.0006C6.67196 21.0006 6.00047 20.3289 6.00028 19.5006C6.00028 18.6722 6.67185 18.0006 7.50028 18.0006ZM16.5003 18.0006C17.3285 18.0008 18.0003 18.6723 18.0003 19.5006C18.0001 20.3287 17.3284 21.0004 16.5003 21.0006C15.672 21.0006 15.0005 20.3288 15.0003 19.5006C15.0003 18.6722 15.6719 18.0006 16.5003 18.0006ZM2.08426 2.75155C2.22169 2.36094 2.64965 2.15532 3.04032 2.29256L3.34207 2.39901C3.95832 2.61565 4.48186 2.79944 4.89383 3.00155C5.33434 3.2177 5.71222 3.48432 5.99637 3.89998C6.27835 4.31263 6.39479 4.76591 6.44852 5.26229C6.47255 5.48442 6.48578 5.73035 6.49246 6.00057H17.1302C18.815 6.00057 20.3316 6.00075 20.7757 6.57772C21.2197 7.1548 21.0466 8.02421 20.6995 9.76327L20.1995 12.1881C19.8844 13.7169 19.7268 14.4817 19.1751 14.9312C18.6235 15.3805 17.8429 15.3805 16.2825 15.3805H10.9788C8.19011 15.3805 6.79535 15.3802 5.92899 14.4664C5.06286 13.5527 4.9993 12.5814 4.9993 9.64022V7.03866C4.9993 6.29879 4.99847 5.80361 4.95731 5.42342C4.91798 5.06008 4.84835 4.87874 4.75809 4.74666C4.67005 4.61783 4.53676 4.49696 4.23368 4.34823C3.91084 4.18982 3.4716 4.03412 2.80399 3.7994L2.54325 3.7076C2.15248 3.57021 1.94688 3.14231 2.08426 2.75155ZM15.5169 8.4576C15.2171 8.17207 14.743 8.18339 14.4573 8.48299L12.1429 10.9127L11.5432 10.2828C11.2575 9.98298 10.7826 9.97183 10.4827 10.2574C10.1828 10.5431 10.1716 11.018 10.4573 11.318L11.5999 12.5181C11.7414 12.6666 11.9377 12.7506 12.1429 12.7506C12.3479 12.7506 12.5442 12.6666 12.6858 12.5181L15.5432 9.51815C15.8289 9.2182 15.8169 8.74327 15.5169 8.4576Z" fill="#48465C"/>
</svg>
