<svg width="24" height="24" viewBox="0 0 24 24" fill="none" xmlns="http://www.w3.org/2000/svg">
<path fill-rule="evenodd" clip-rule="evenodd" d="M7.50037 17.2502C8.74301 17.2502 9.75037 18.2576 9.75037 19.5002C9.75022 20.7426 8.74292 21.7501 7.50037 21.7502C6.25782 21.7502 5.25051 20.7426 5.25037 19.5002C5.25037 18.2576 6.25773 17.2502 7.50037 17.2502ZM16.5004 17.2502C17.7428 17.2503 18.7504 18.2576 18.7504 19.5002C18.7502 20.7426 17.7428 21.75 16.5004 21.7502C15.2579 21.7502 14.2505 20.7427 14.2504 19.5002C14.2504 18.2576 15.2578 17.2502 16.5004 17.2502ZM7.50037 18.7502C7.08616 18.7502 6.75037 19.086 6.75037 19.5002C6.75051 19.9142 7.08625 20.2502 7.50037 20.2502C7.91449 20.2501 8.25022 19.9142 8.25037 19.5002C8.25037 19.086 7.91458 18.7502 7.50037 18.7502ZM16.5004 18.7502C16.0862 18.7502 15.7504 19.086 15.7504 19.5002C15.7505 19.9142 16.0863 20.2502 16.5004 20.2502C16.9144 20.25 17.2502 19.9141 17.2504 19.5002C17.2504 19.086 16.9144 18.7503 16.5004 18.7502ZM1.29236 2.75113C1.42977 2.36039 1.85864 2.15476 2.24939 2.29215L2.55017 2.39859C3.1667 2.61533 3.69081 2.79893 4.1029 3.00113C4.54346 3.21731 4.92128 3.48382 5.20544 3.89957C5.48742 4.31222 5.60386 4.76549 5.65759 5.26187C5.66142 5.29734 5.66505 5.3336 5.66833 5.37027H17.1205C17.9389 5.37026 18.7733 5.36969 19.4603 5.44644C19.81 5.48554 20.1568 5.54873 20.4633 5.6564C20.7637 5.76197 21.0945 5.93412 21.3295 6.23941C21.7113 6.7358 21.7777 7.31434 21.7416 7.90054C21.7071 8.45865 21.5684 9.15286 21.4037 9.97769L21.3939 10.0295L21.3929 10.0343L20.8842 12.5031C20.7345 13.2295 20.6081 13.8413 20.4457 14.3234C20.2733 14.8349 20.0343 15.2844 19.6078 15.632C19.1813 15.9796 18.6923 16.1231 18.1566 16.1886C17.6517 16.2504 17.0279 16.2502 16.2865 16.2502H10.8802C9.53461 16.2502 8.44448 16.2498 7.5863 16.1281C6.69043 16.0011 5.93783 15.7287 5.34412 15.1027C4.79788 14.5266 4.50508 13.914 4.35876 13.0597C4.22178 12.2596 4.20837 11.2121 4.20837 9.75992V7.03824C4.20837 6.29841 4.20753 5.80318 4.16638 5.42301C4.12706 5.0598 4.05738 4.87831 3.96716 4.74625C3.8791 4.61738 3.745 4.49659 3.44177 4.34781C3.11898 4.18946 2.6804 4.03361 2.01306 3.79898L1.75134 3.70718C1.36079 3.56967 1.15501 3.14178 1.29236 2.75113ZM5.70837 9.75992C5.70837 11.2487 5.72615 12.1578 5.83728 12.8068C5.93916 13.4017 6.11187 13.7328 6.43201 14.0705C6.70455 14.3579 7.08243 14.5423 7.79724 14.6437C8.53791 14.7487 9.52108 14.7502 10.9379 14.7502H16.2406C17.0399 14.7502 17.5718 14.7487 17.975 14.6994C18.3575 14.6525 18.5354 14.5709 18.6605 14.4689C18.7857 14.3669 18.9008 14.2089 19.0238 13.8439C19.1535 13.4591 19.2628 12.939 19.4242 12.1564L19.9222 9.73648L19.9232 9.73355C20.1008 8.84378 20.2171 8.25128 20.2445 7.80777C20.2704 7.38688 20.2043 7.23979 20.1429 7.15836C20.1367 7.15309 20.0931 7.11607 19.9662 7.07144C19.8108 7.01685 19.5898 6.97069 19.2943 6.93765C18.6995 6.87117 17.9456 6.87027 17.0892 6.87027H5.70837V9.75992ZM14.4574 8.48258C14.7431 8.18273 15.2181 8.17155 15.5179 8.45718C15.8175 8.74286 15.8288 9.21693 15.5433 9.51676L12.6859 12.5168C12.5443 12.6654 12.3481 12.7502 12.1429 12.7502C11.9378 12.7501 11.7414 12.6654 11.6 12.5168L10.4574 11.3175C10.1718 11.0177 10.1831 10.5427 10.4828 10.257C10.7826 9.9714 11.2576 9.98261 11.5433 10.2824L12.1429 10.9123L14.4574 8.48258Z" fill="#48465C"/>
</svg>
