<svg width="24" height="24" viewBox="0 0 24 24" fill="none" xmlns="http://www.w3.org/2000/svg">
<path fill-rule="evenodd" clip-rule="evenodd" d="M7.5004 17.25C8.74288 17.2502 9.7504 18.2575 9.7504 19.5C9.75026 20.7424 8.7428 21.7498 7.5004 21.75C6.25784 21.75 5.25053 20.7425 5.2504 19.5C5.2504 18.2574 6.25776 17.25 7.5004 17.25ZM16.5004 17.25C17.7428 17.2502 18.7504 18.2574 18.7504 19.5C18.7503 20.7424 17.7428 21.7498 16.5004 21.75C15.2578 21.75 14.2505 20.7425 14.2504 19.5C14.2504 18.2573 15.2577 17.25 16.5004 17.25ZM7.5004 18.75C7.08619 18.75 6.7504 19.0858 6.7504 19.5C6.75053 19.9141 7.08627 20.25 7.5004 20.25C7.91437 20.2498 8.25026 19.914 8.2504 19.5C8.2504 19.0859 7.91445 18.7502 7.5004 18.75ZM16.5004 18.75C16.0862 18.75 15.7504 19.0858 15.7504 19.5C15.7505 19.9141 16.0863 20.25 16.5004 20.25C16.9144 20.2498 17.2503 19.914 17.2504 19.5C17.2504 19.0859 16.9144 18.7502 16.5004 18.75ZM1.29239 2.75098C1.42979 2.36047 1.85785 2.15493 2.24844 2.292L2.5502 2.39845C3.16645 2.61508 3.68996 2.79889 4.10196 3.00098C4.54257 3.21718 4.9213 3.4836 5.20548 3.89942C5.48746 4.31207 5.60389 4.76535 5.65762 5.26173C5.66146 5.29719 5.66509 5.33346 5.66837 5.37013H17.1195C17.9381 5.37012 18.7733 5.36951 19.4604 5.4463C19.8101 5.4854 20.1569 5.54857 20.4633 5.65626C20.7636 5.7618 21.0937 5.93425 21.3285 6.23927C21.7104 6.73566 21.7778 7.3142 21.7416 7.9004C21.7072 8.45851 21.5684 9.15269 21.4037 9.97755L21.393 10.0293L21.392 10.0342L20.8832 12.5029C20.7335 13.2293 20.6081 13.8412 20.4457 14.3232C20.2733 14.8347 20.0342 15.2843 19.6078 15.6318C19.1813 15.9794 18.6923 16.123 18.1566 16.1885C17.6517 16.2503 17.0272 16.25 16.2856 16.25H10.8803C9.53461 16.25 8.44457 16.2496 7.58634 16.1279C6.69016 16.0009 5.937 15.7289 5.34317 15.1025C4.79694 14.5264 4.50513 13.9139 4.3588 13.0596C4.22182 12.2594 4.20841 11.212 4.20841 9.75977V7.03809C4.20841 6.29828 4.20658 5.80303 4.16544 5.42286C4.1261 5.0596 4.05647 4.87816 3.96622 4.7461C3.87816 4.6173 3.74488 4.49637 3.4418 4.34766C3.11896 4.18926 2.6797 4.03452 2.01212 3.79981L1.75137 3.70704C1.36064 3.56963 1.155 3.14173 1.29239 2.75098ZM5.70841 9.75977C5.70841 11.2486 5.72618 12.1577 5.83731 12.8066C5.93921 13.4015 6.11188 13.7326 6.43204 14.0703C6.70457 14.3577 7.08255 14.5422 7.79727 14.6436C8.5379 14.7485 9.5213 14.75 10.9379 14.75H16.2406C17.0395 14.75 17.5709 14.7485 17.974 14.6992C18.3567 14.6523 18.5344 14.5707 18.6596 14.4688C18.7848 14.3668 18.9007 14.2091 19.0238 13.8438C19.1535 13.4589 19.262 12.9387 19.4233 12.1563L19.9223 9.73634V9.73341C20.0999 8.84358 20.2171 8.25115 20.2445 7.80762C20.2704 7.38701 20.2043 7.23967 20.143 7.15821C20.1368 7.15295 20.0929 7.11588 19.9662 7.0713C19.8108 7.01669 19.589 6.97055 19.2934 6.93751C18.6987 6.87107 17.9453 6.87013 17.0893 6.87012H5.70841V9.75977ZM13.9701 8.96973C14.263 8.67689 14.7378 8.67686 15.0307 8.96973C15.3232 9.26264 15.3234 9.73752 15.0307 10.0303L14.0609 11L15.0307 11.9697C15.3232 12.2626 15.3234 12.7375 15.0307 13.0303C14.7379 13.3231 14.263 13.3229 13.9701 13.0303L13.0004 12.0606L12.0307 13.0303C11.7379 13.3231 11.263 13.3229 10.9701 13.0303C10.6772 12.7374 10.6772 12.2626 10.9701 11.9697L11.9389 11L10.9701 10.0303C10.6772 9.73742 10.6772 9.26263 10.9701 8.96973C11.263 8.67689 11.7378 8.67686 12.0307 8.96973L13.0004 9.93946L13.9701 8.96973Z" fill="#48465C"/>
</svg>
