<svg width="24" height="24" viewBox="0 0 24 24" fill="none" xmlns="http://www.w3.org/2000/svg">
<path fill-rule="evenodd" clip-rule="evenodd" d="M7.50028 18.0006C8.32855 18.0008 9.00028 18.6723 9.00028 19.5006C9.00009 20.3288 8.32844 21.0004 7.50028 21.0006C6.67196 21.0006 6.00047 20.3289 6.00028 19.5006C6.00028 18.6722 6.67185 18.0006 7.50028 18.0006ZM16.5003 18.0006C17.3285 18.0008 18.0003 18.6723 18.0003 19.5006C18.0001 20.3287 17.3284 21.0004 16.5003 21.0006C15.672 21.0006 15.0005 20.3288 15.0003 19.5006C15.0003 18.6722 15.6719 18.0006 16.5003 18.0006ZM2.08426 2.75155C2.22169 2.36094 2.64965 2.15532 3.04032 2.29256L3.34207 2.39901C3.95832 2.61565 4.48186 2.79944 4.89383 3.00155C5.33434 3.2177 5.71222 3.48432 5.99637 3.89998C6.27835 4.31263 6.39479 4.76591 6.44852 5.26229C6.47255 5.48442 6.48578 5.73035 6.49246 6.00057H17.1302C18.815 6.00057 20.3316 6.00075 20.7757 6.57772C21.2197 7.1548 21.0466 8.02421 20.6995 9.76327L20.1995 12.1881C19.8844 13.7169 19.7268 14.4817 19.1751 14.9312C18.6235 15.3805 17.8429 15.3805 16.2825 15.3805H10.9788C8.19011 15.3805 6.79535 15.3802 5.92899 14.4664C5.06286 13.5527 4.9993 12.5814 4.9993 9.64022V7.03866C4.9993 6.29879 4.99847 5.80361 4.95731 5.42342C4.91798 5.06008 4.84835 4.87874 4.75809 4.74666C4.67005 4.61783 4.53676 4.49696 4.23368 4.34823C3.91084 4.18982 3.4716 4.03412 2.80399 3.7994L2.54325 3.7076C2.15248 3.57021 1.94688 3.14231 2.08426 2.75155ZM13.0003 8.25057C12.5861 8.25057 12.2503 8.58636 12.2503 9.00057V10.2506H11.0003C10.5861 10.2506 10.2503 10.5864 10.2503 11.0006C10.2504 11.4148 10.5861 11.7506 11.0003 11.7506H12.2503V13.0006C12.2504 13.4148 12.5861 13.7506 13.0003 13.7506C13.4143 13.7504 13.7502 13.4147 13.7503 13.0006V11.7506H15.0003C15.4143 11.7504 15.7502 11.4147 15.7503 11.0006C15.7503 10.5865 15.4143 10.2507 15.0003 10.2506H13.7503V9.00057C13.7503 8.58647 13.4143 8.25075 13.0003 8.25057Z" fill="#48465C"/>
</svg>
