<svg width="24" height="24" viewBox="0 0 24 24" fill="none" xmlns="http://www.w3.org/2000/svg">
<path d="M7.50028 17.2502C8.74279 17.2503 9.75028 18.2576 9.75028 19.5002C9.7501 20.7425 8.74268 21.75 7.50028 21.7502C6.25774 21.7502 5.25045 20.7426 5.25028 19.5002C5.25028 18.2576 6.25764 17.2502 7.50028 17.2502ZM16.5003 17.2502C17.7429 17.2503 18.7503 18.2575 18.7503 19.5002C18.7501 20.7425 17.7427 21.75 16.5003 21.7502C15.2578 21.7502 14.2505 20.7426 14.2503 19.5002C14.2503 18.2575 15.2577 17.2502 16.5003 17.2502ZM7.50028 18.7502C7.08607 18.7502 6.75028 19.086 6.75028 19.5002C6.75045 19.9142 7.08617 20.2502 7.50028 20.2502C7.91426 20.25 8.2501 19.9141 8.25028 19.5002C8.25028 19.086 7.91437 18.7503 7.50028 18.7502ZM16.5003 18.7502C16.0861 18.7502 15.7503 19.086 15.7503 19.5002C15.7505 19.9142 16.0862 20.2502 16.5003 20.2502C16.9142 20.25 17.2501 19.9141 17.2503 19.5002C17.2503 19.086 16.9144 18.7503 16.5003 18.7502ZM1.29227 2.75113C1.42965 2.36037 1.85853 2.15476 2.2493 2.29215L2.55008 2.3986C3.16661 2.61534 3.69073 2.79893 4.10282 3.00113C4.54337 3.21731 4.92119 3.48382 5.20535 3.89957C5.48733 4.31222 5.60377 4.7655 5.6575 5.26188C5.66133 5.29733 5.66497 5.33362 5.66825 5.37027H17.1204C17.9388 5.37026 18.7732 5.36969 19.4602 5.44645C19.8098 5.48553 20.1568 5.54781 20.4632 5.65543C20.7636 5.761 21.0944 5.93409 21.3294 6.23942C21.7112 6.73581 21.7777 7.31435 21.7415 7.90055C21.707 8.45864 21.5683 9.15288 21.4036 9.9777L21.3938 10.0295L21.3929 10.0343L20.8841 12.5031C20.7344 13.2295 20.6081 13.8413 20.4456 14.3234C20.2732 14.8349 20.0342 15.2844 19.6077 15.632C19.1812 15.9796 18.6922 16.1231 18.1565 16.1886C17.6517 16.2504 17.0278 16.2502 16.2864 16.2502H10.8802C9.53452 16.2502 8.4444 16.2498 7.58621 16.1281C6.69034 16.0011 5.93774 15.7287 5.34403 15.1027C4.7978 14.5266 4.50501 13.914 4.35868 13.0597C4.2217 12.2596 4.20828 11.2122 4.20828 9.75992V7.03824C4.20828 6.29839 4.20744 5.80319 4.16629 5.42301C4.12698 5.05982 4.05728 4.87832 3.96707 4.74625C3.87901 4.61738 3.7449 4.49659 3.44168 4.34781C3.11888 4.18946 2.68032 4.03361 2.01297 3.79899L1.75125 3.70719C1.36069 3.56969 1.15491 3.1418 1.29227 2.75113ZM5.70828 9.75992C5.70828 11.2488 5.72606 12.1578 5.83719 12.8068C5.93909 13.4017 6.11176 13.7328 6.43192 14.0705C6.70447 14.3579 7.08234 14.5423 7.79715 14.6437C8.53782 14.7487 9.52102 14.7502 10.9378 14.7502H16.2405C17.0398 14.7502 17.5717 14.7487 17.9749 14.6994C18.3574 14.6525 18.5353 14.5709 18.6604 14.4689C18.7856 14.3669 18.9007 14.2089 19.0237 13.8439C19.1534 13.4591 19.2628 12.939 19.4241 12.1564L19.9222 9.73551L19.9231 9.73356C20.1008 8.84376 20.2171 8.25129 20.2444 7.80777C20.2704 7.38681 20.2041 7.23881 20.1429 7.15738C20.1366 7.15211 20.0931 7.11607 19.9661 7.07145C19.8108 7.01686 19.5896 6.97069 19.2942 6.93766C18.6994 6.87117 17.9454 6.87027 17.0891 6.87027H5.70828V9.75992ZM9.37528 8.2609C9.78354 8.19193 10.1704 8.46688 10.2395 8.87516L10.7679 11.9923C10.8371 12.4007 10.562 12.7884 10.1536 12.8576C9.74527 12.9267 9.35763 12.6516 9.28836 12.2433L8.76102 9.12516C8.69183 8.71676 8.96689 8.33009 9.37528 8.2609ZM14.7893 8.87516C14.8585 8.46677 15.2452 8.19172 15.6536 8.2609C16.0619 8.33013 16.337 8.71682 16.2679 9.12516L15.7395 12.2433C15.6702 12.6514 15.2834 12.9265 14.8753 12.8576C14.4669 12.7884 14.1918 12.4007 14.261 11.9923L14.7893 8.87516Z" fill="#48465C"/>
</svg>
