<svg width="24" height="24" viewBox="0 0 24 24" fill="none" xmlns="http://www.w3.org/2000/svg">
<path d="M7.50027 17.2502C8.74291 17.2502 9.75027 18.2576 9.75027 19.5002C9.75009 20.7426 8.7428 21.7501 7.50027 21.7502C6.25774 21.7502 5.25044 20.7426 5.25027 19.5002C5.25027 18.2576 6.25763 17.2502 7.50027 17.2502ZM16.5003 17.2502C17.7427 17.2503 18.7503 18.2576 18.7503 19.5002C18.7501 20.7426 17.7426 21.75 16.5003 21.7502C15.2578 21.7502 14.2504 20.7427 14.2503 19.5002C14.2503 18.2576 15.2577 17.2502 16.5003 17.2502ZM7.50027 18.7502C7.08606 18.7502 6.75027 19.086 6.75027 19.5002C6.75044 19.9142 7.08617 20.2502 7.50027 20.2502C7.91437 20.2501 8.25009 19.9142 8.25027 19.5002C8.25027 19.086 7.91448 18.7502 7.50027 18.7502ZM16.5003 18.7502C16.0861 18.7502 15.7503 19.086 15.7503 19.5002C15.7504 19.9142 16.0862 20.2502 16.5003 20.2502C16.9142 20.25 17.2501 19.9141 17.2503 19.5002C17.2503 19.086 16.9143 18.7503 16.5003 18.7502ZM1.29226 2.75113C1.42966 2.36037 1.85854 2.15476 2.24929 2.29215L2.55007 2.3986C3.1666 2.61534 3.69072 2.79893 4.10281 3.00113C4.54337 3.21731 4.92119 3.48381 5.20535 3.89957C5.48733 4.31222 5.60377 4.7655 5.6575 5.26188C5.66132 5.29733 5.66496 5.33362 5.66824 5.37027H17.1204C17.9388 5.37026 18.7732 5.36969 19.4602 5.44645C19.8098 5.48553 20.1567 5.54782 20.4632 5.65543C20.7636 5.761 21.0944 5.9341 21.3294 6.23942C21.7112 6.73581 21.7776 7.31435 21.7415 7.90055C21.707 8.45864 21.5683 9.15289 21.4036 9.9777L21.3938 10.0295L21.3928 10.0343L20.8841 12.5031C20.7344 13.2295 20.608 13.8413 20.4456 14.3234C20.2732 14.8348 20.0342 15.2844 19.6077 15.632C19.1812 15.9796 18.6922 16.1231 18.1565 16.1886C17.6516 16.2504 17.0278 16.2502 16.2864 16.2502H10.8802C9.53451 16.2502 8.44438 16.2498 7.58621 16.1281C6.69033 16.0011 5.93773 15.7287 5.34402 15.1027C4.79778 14.5266 4.50499 13.914 4.35867 13.0597C4.22168 12.2596 4.20828 11.2122 4.20828 9.75992V7.03824C4.20828 6.29839 4.20743 5.80319 4.16628 5.42301C4.12697 5.05981 4.05727 4.87832 3.96707 4.74625C3.87901 4.61738 3.74491 4.49659 3.44168 4.34781C3.11888 4.18946 2.68031 4.03362 2.01296 3.79899L1.75125 3.70719C1.36067 3.56968 1.15491 3.14179 1.29226 2.75113ZM5.70828 9.75992C5.70828 11.2488 5.72605 12.1578 5.83718 12.8068C5.93907 13.4017 6.11175 13.7328 6.43191 14.0705C6.70445 14.3579 7.08233 14.5423 7.79714 14.6437C8.53781 14.7487 9.521 14.7502 10.9378 14.7502H16.2405C17.0398 14.7502 17.5717 14.7487 17.9749 14.6994C18.3574 14.6525 18.5353 14.5709 18.6604 14.4689C18.7856 14.3669 18.9007 14.2089 19.0237 13.8439C19.1534 13.4591 19.2627 12.939 19.4241 12.1564L19.9221 9.73551L19.9231 9.73356C20.1007 8.84376 20.217 8.25129 20.2444 7.80777C20.2703 7.38691 20.2042 7.2398 20.1428 7.15836C20.1366 7.15309 20.093 7.11607 19.9661 7.07145C19.8107 7.01686 19.5897 6.97069 19.2942 6.93766C18.6994 6.87117 17.9455 6.87027 17.0891 6.87027H5.70828V9.75992ZM14.4573 8.48258C14.743 8.18272 15.218 8.17155 15.5178 8.45719C15.8174 8.74287 15.8287 9.21695 15.5432 9.51676L12.6858 12.5168C12.5442 12.6654 12.348 12.7502 12.1428 12.7502C11.9377 12.7501 11.7413 12.6654 11.5999 12.5168L10.4573 11.3166C10.1719 11.0168 10.1831 10.5427 10.4827 10.257C10.7825 9.97139 11.2575 9.98259 11.5432 10.2824L12.1428 10.9123L14.4573 8.48258Z" fill="#48465C"/>
</svg>
