<svg width="24" height="24" viewBox="0 0 24 24" fill="none" xmlns="http://www.w3.org/2000/svg">
<path d="M7.49954 18.0006C8.32797 18.0006 8.99954 18.6722 8.99954 19.5006C8.99933 20.3289 8.32784 21.0006 7.49954 21.0006C6.67145 21.0004 5.99975 20.3288 5.99954 19.5006C5.99954 18.6724 6.67132 18.0009 7.49954 18.0006ZM16.4995 18.0006C17.3279 18.0006 17.9995 18.6722 17.9995 19.5006C17.9993 20.3288 17.3278 21.0006 16.4995 21.0006C15.6715 21.0004 14.9998 20.3287 14.9995 19.5006C14.9995 18.6724 15.6714 18.0009 16.4995 18.0006ZM2.0845 2.7516C2.22195 2.36095 2.64985 2.15526 3.04055 2.29261L3.34231 2.39906C3.95856 2.61571 4.48211 2.79948 4.89407 3.0016C5.33462 3.21777 5.71245 3.48431 5.99661 3.90004C6.27859 4.31269 6.39503 4.76596 6.44876 5.26234C6.47278 5.48446 6.48602 5.73042 6.4927 6.00062H17.1304C18.8154 6.00062 20.332 6.00069 20.7759 6.57777C21.2199 7.15485 21.0468 8.02426 20.6997 9.76332L20.1997 12.1881C19.8847 13.7169 19.727 14.4817 19.1753 14.9313C18.6236 15.3807 17.8426 15.3805 16.2818 15.3805H10.979C8.19023 15.3805 6.79561 15.3802 5.92923 14.4664C5.063 13.5527 4.99954 12.5816 4.99954 9.64027V7.03871C4.99954 6.29884 4.9987 5.80366 4.95755 5.42347C4.91823 5.06022 4.84855 4.87879 4.75833 4.74672C4.67027 4.61785 4.53617 4.49706 4.23294 4.34828C3.91014 4.18994 3.47154 4.03407 2.80423 3.79945L2.54251 3.70765C2.15206 3.57007 1.94718 3.14219 2.0845 2.7516ZM12.9995 8.25062C12.5856 8.25087 12.2495 8.58657 12.2495 9.00062V10.2506H10.9995C10.5856 10.2509 10.2495 10.5866 10.2495 11.0006C10.2496 11.4147 10.5856 11.7504 10.9995 11.7506H12.2495V13.0006C12.2496 13.4147 12.5856 13.7504 12.9995 13.7506C13.4137 13.7506 13.7494 13.4148 13.7495 13.0006V11.7506H14.9995C15.4137 11.7506 15.7494 11.4148 15.7495 11.0006C15.7495 10.5864 15.4137 10.2506 14.9995 10.2506H13.7495V9.00062C13.7495 8.58641 13.4137 8.25062 12.9995 8.25062Z" fill="#48465C"/>
</svg>
