<svg width="24" height="24" viewBox="0 0 24 24" fill="none" xmlns="http://www.w3.org/2000/svg">
<path d="M7.50041 17.2505C8.74286 17.2508 9.75041 18.2581 9.75041 19.5005C9.75023 20.7428 8.74275 21.7503 7.50041 21.7505C6.25788 21.7505 5.25059 20.743 5.25041 19.5005C5.25041 18.2579 6.25777 17.2505 7.50041 17.2505ZM16.5004 17.2505C17.7428 17.2508 18.7504 18.258 18.7504 19.5005C18.7502 20.7428 17.7427 21.7503 16.5004 21.7505C15.2578 21.7505 14.2506 20.743 14.2504 19.5005C14.2504 18.2578 15.2577 17.2505 16.5004 17.2505ZM7.50041 18.7505C7.0862 18.7505 6.75041 19.0863 6.75041 19.5005C6.75059 19.9146 7.08631 20.2505 7.50041 20.2505C7.91432 20.2503 8.25023 19.9144 8.25041 19.5005C8.25041 19.0865 7.91443 18.7508 7.50041 18.7505ZM16.5004 18.7505C16.0862 18.7505 15.7504 19.0863 15.7504 19.5005C15.7506 19.9146 16.0863 20.2505 16.5004 20.2505C16.9143 20.2503 17.2502 19.9144 17.2504 19.5005C17.2504 19.0865 16.9144 18.7508 16.5004 18.7505ZM1.2924 2.7515C1.42979 2.36093 1.85782 2.15538 2.24846 2.29252L2.55021 2.39897C3.16646 2.61561 3.68998 2.79941 4.10197 3.0015C4.5426 3.21771 4.92131 3.48408 5.20549 3.89994C5.48746 4.31259 5.60293 4.76587 5.65666 5.26225C5.6605 5.29772 5.66413 5.33397 5.6674 5.37065H17.1196C17.9381 5.37064 18.7733 5.37002 19.4604 5.44682C19.8101 5.48592 20.1569 5.54811 20.4633 5.6558C20.7637 5.76135 21.0937 5.93464 21.3285 6.23979C21.7104 6.73618 21.7778 7.31472 21.7416 7.90092C21.7072 8.45902 21.5684 9.15324 21.4037 9.97807L21.393 10.0298L21.392 10.0347L20.8832 12.5035C20.7335 13.2299 20.6081 13.8417 20.4457 14.3238C20.2733 14.8352 20.0342 15.2848 19.6078 15.6324C19.1813 15.98 18.6923 16.1235 18.1567 16.189C17.6517 16.2508 17.0273 16.2505 16.2856 16.2505H10.8803C9.53462 16.2505 8.44458 16.2502 7.58635 16.1285C6.69017 16.0015 5.93702 15.7294 5.34318 15.1031C4.79695 14.527 4.50514 13.9144 4.35881 13.0601C4.22182 12.2599 4.20842 11.2126 4.20842 9.76029V7.03861C4.20842 6.29876 4.2066 5.80356 4.16545 5.42338C4.12612 5.06007 4.05649 4.87869 3.96623 4.74662C3.87817 4.6178 3.74492 4.49691 3.44182 4.34818C3.11897 4.18977 2.67974 4.03408 2.01213 3.79936L1.75139 3.70756C1.36063 3.57017 1.15501 3.14226 1.2924 2.7515ZM5.70842 9.76029C5.70842 11.2492 5.72618 12.1582 5.83732 12.8072C5.93922 13.4021 6.11189 13.7331 6.43205 14.0708C6.70458 14.3581 7.08263 14.5427 7.79728 14.6441C8.53791 14.749 9.52136 14.7505 10.9379 14.7505H16.2406C17.0395 14.7505 17.5709 14.749 17.974 14.6997C18.3567 14.6529 18.5344 14.5713 18.6596 14.4693C18.7848 14.3673 18.9007 14.2096 19.0238 13.8443C19.1535 13.4595 19.262 12.9392 19.4233 12.1568L19.9223 9.73588V9.73393C20.0999 8.84406 20.2172 8.25168 20.2446 7.80815C20.2705 7.38761 20.2043 7.24021 20.143 7.15873C20.1368 7.15347 20.0929 7.11639 19.9662 7.07182C19.8108 7.01721 19.589 6.97107 19.2934 6.93803C18.6986 6.87157 17.9446 6.87065 17.0883 6.87065H5.70842V9.76029ZM13.9701 8.97025C14.263 8.6774 14.7378 8.67738 15.0307 8.97025C15.3232 9.26317 15.3234 9.73807 15.0307 10.0308L14.061 11.0005L15.0307 11.9703C15.3232 12.2632 15.3234 12.738 15.0307 13.0308C14.7379 13.3236 14.2631 13.3233 13.9701 13.0308L13.0004 12.0611L12.0307 13.0308C11.7379 13.3236 11.2631 13.3233 10.9701 13.0308C10.6772 12.7379 10.6772 12.2632 10.9701 11.9703L11.9389 11.0005L10.9701 10.0308C10.6772 9.73794 10.6772 9.26315 10.9701 8.97025C11.263 8.6774 11.7378 8.67738 12.0307 8.97025L13.0004 9.93998L13.9701 8.97025Z" fill="#48465C"/>
</svg>
