<svg width="24" height="24" viewBox="0 0 24 24" fill="none" xmlns="http://www.w3.org/2000/svg">
<path fill-rule="evenodd" clip-rule="evenodd" d="M14 2.25C14.6983 2.25016 15.3014 2.65944 15.5821 3.25098C16.2653 3.25596 16.7981 3.28686 17.2735 3.47266C17.8417 3.69473 18.3356 4.07275 18.6993 4.5625C19.0663 5.05659 19.2385 5.68987 19.4756 6.56152L20.1036 8.86426C20.491 9.06269 20.8305 9.33013 21.1133 9.69238C21.7352 10.4889 21.8451 11.4381 21.7344 12.5264C21.6271 13.5824 21.2941 14.9125 20.878 16.5771L20.8516 16.6826C20.5886 17.7351 20.3753 18.5898 20.1211 19.2568C19.8562 19.9523 19.5196 20.523 18.9649 20.9561C18.4104 21.3889 17.7759 21.5766 17.0372 21.665C16.3284 21.7497 15.4466 21.75 14.3614 21.75H9.63774C8.55257 21.75 7.67078 21.7497 6.96196 21.665C6.22324 21.5766 5.5887 21.3889 5.03423 20.9561C4.47961 20.523 4.14295 19.9523 3.87798 19.2568C3.62392 18.5898 3.41061 17.7351 3.14751 16.6826L3.12114 16.5771C2.70496 14.9125 2.3721 13.5824 2.2647 12.5264C2.15406 11.4381 2.26401 10.4889 2.88579 9.69238C3.16865 9.33012 3.50808 9.06268 3.89556 8.86426L4.52349 6.56152C4.76055 5.68992 4.93297 5.05658 5.29985 4.5625C5.66354 4.07278 6.1575 3.69473 6.72563 3.47266C7.20118 3.2868 7.73448 3.25595 8.41802 3.25098C8.69872 2.65933 9.30167 2.25 10 2.25H14ZM9.68462 9.75C7.89228 9.75 6.6299 9.7521 5.69927 9.88672C4.78826 10.0185 4.34722 10.2582 4.06841 10.6152C3.78961 10.9724 3.66385 11.4583 3.75688 12.374C3.85199 13.3095 4.15616 14.5346 4.59087 16.2734C4.86809 17.3823 5.06187 18.1492 5.28032 18.7227C5.49159 19.2772 5.69799 19.571 5.95708 19.7734C6.21625 19.9757 6.55131 20.1053 7.14067 20.1758C7.75005 20.2487 8.54151 20.25 9.68462 20.25H14.3145C15.4575 20.25 16.2491 20.2486 16.8584 20.1758C17.4477 20.1053 17.7829 19.9757 18.042 19.7734C18.3012 19.571 18.5085 19.2773 18.7198 18.7227C18.9382 18.1492 19.1311 17.3821 19.4083 16.2734C19.843 14.5346 20.1471 13.3095 20.2422 12.374C20.3353 11.4583 20.2096 10.9724 19.9307 10.6152C19.6519 10.2582 19.2109 10.0185 18.2999 9.88672C17.3693 9.7521 16.1069 9.75 14.3145 9.75H9.68462ZM8.00005 12.25C8.41414 12.2502 8.75005 12.5859 8.75005 13V17C8.75005 17.4141 8.41414 17.7498 8.00005 17.75C7.58584 17.75 7.25005 17.4142 7.25005 17V13C7.25005 12.5858 7.58584 12.25 8.00005 12.25ZM12 12.25C12.4141 12.2502 12.75 12.5859 12.75 13V17C12.75 17.4141 12.4141 17.7498 12 17.75C11.5858 17.75 11.25 17.4142 11.25 17V13C11.25 12.5858 11.5858 12.25 12 12.25ZM16 12.25C16.4141 12.2502 16.75 12.5859 16.75 13V17C16.75 17.4141 16.4141 17.7498 16 17.75C15.5858 17.75 15.25 17.4142 15.25 17V13C15.25 12.5858 15.5858 12.25 16 12.25ZM15.5801 4.75195C15.2989 5.3419 14.6972 5.74984 14 5.75H10C9.30284 5.75 8.7003 5.34201 8.41899 4.75195C7.75725 4.75865 7.49132 4.78421 7.27153 4.87012C6.96573 4.9897 6.69973 5.19342 6.50395 5.45703C6.32798 5.69414 6.2244 6.02546 5.93364 7.0918L5.58013 8.38867C6.61789 8.24996 7.95761 8.24998 9.62212 8.25H14.377C16.0415 8.24998 17.3812 8.24996 18.419 8.38867L18.0655 7.0918C17.7747 6.02534 17.6712 5.69415 17.4952 5.45703C17.2993 5.19335 17.0334 4.98969 16.7276 4.87012C16.5078 4.78421 16.2419 4.75864 15.5801 4.75195ZM10 3.75C9.862 3.75 9.75005 3.86193 9.75005 4C9.75005 4.13807 9.862 4.25 10 4.25H14C14.138 4.24978 14.25 4.13793 14.25 4C14.25 3.86207 14.138 3.75022 14 3.75H10Z" fill="#48465C"/>
</svg>
