<svg width="24" height="24" viewBox="0 0 24 24" fill="none" xmlns="http://www.w3.org/2000/svg">
<path d="M14.0001 2.25C14.6983 2.25016 15.3015 2.65944 15.5821 3.25098C16.2654 3.25596 16.7982 3.28686 17.2735 3.47266C17.8417 3.69473 18.3356 4.07275 18.6993 4.5625C19.0663 5.05659 19.2386 5.68987 19.4757 6.56152L20.1036 8.86426C20.491 9.06269 20.8306 9.33013 21.1134 9.69238C21.7352 10.4889 21.8452 11.4381 21.7345 12.5264C21.6271 13.5824 21.2942 14.9125 20.878 16.5771L20.8517 16.6826C20.5886 17.7351 20.3753 18.5898 20.1212 19.2568C19.8563 19.9523 19.5196 20.523 18.9649 20.9561C18.4105 21.3889 17.776 21.5766 17.0372 21.665C16.3284 21.7497 15.4466 21.75 14.3614 21.75H9.63779C8.55262 21.75 7.67083 21.7497 6.96201 21.665C6.22328 21.5766 5.58874 21.3889 5.03427 20.9561C4.47965 20.523 4.14299 19.9523 3.87802 19.2568C3.62396 18.5898 3.41065 17.7351 3.14756 16.6826L3.12119 16.5771C2.705 14.9125 2.37214 13.5824 2.26474 12.5264C2.15411 11.4381 2.26406 10.4889 2.88584 9.69238C3.16869 9.33012 3.50813 9.06268 3.8956 8.86426L4.52353 6.56152C4.7606 5.68992 4.93301 5.05658 5.2999 4.5625C5.66359 4.07278 6.15754 3.69473 6.72568 3.47266C7.20123 3.2868 7.73452 3.25595 8.41806 3.25098C8.69876 2.65933 9.30171 2.25 10.0001 2.25H14.0001ZM9.68466 9.75C7.89232 9.75 6.62994 9.7521 5.69931 9.88672C4.7883 10.0185 4.34727 10.2582 4.06845 10.6152C3.78965 10.9724 3.66389 11.4583 3.75693 12.374C3.85204 13.3095 4.1562 14.5346 4.59091 16.2734C4.86813 17.3823 5.06191 18.1492 5.28037 18.7227C5.49164 19.2772 5.69804 19.571 5.95713 19.7734C6.2163 19.9757 6.55136 20.1053 7.14072 20.1758C7.75009 20.2487 8.54156 20.25 9.68466 20.25H14.3145C15.4576 20.25 16.2491 20.2486 16.8585 20.1758C17.4478 20.1053 17.783 19.9757 18.0421 19.7734C18.3012 19.571 18.5085 19.2773 18.7198 18.7227C18.9382 18.1492 19.1311 17.3821 19.4083 16.2734C19.843 14.5346 20.1472 13.3095 20.2423 12.374C20.3353 11.4583 20.2096 10.9724 19.9308 10.6152C19.652 10.2582 19.211 10.0185 18.2999 9.88672C17.3693 9.7521 16.1069 9.75 14.3145 9.75H9.68466ZM8.00009 12.25C8.41418 12.2502 8.75009 12.5859 8.75009 13V17C8.75009 17.4141 8.41418 17.7498 8.00009 17.75C7.58588 17.75 7.25009 17.4142 7.25009 17V13C7.25009 12.5858 7.58588 12.25 8.00009 12.25ZM12.0001 12.25C12.4142 12.2502 12.7501 12.5859 12.7501 13V17C12.7501 17.4141 12.4142 17.7498 12.0001 17.75C11.5859 17.75 11.2501 17.4142 11.2501 17V13C11.2501 12.5858 11.5859 12.25 12.0001 12.25ZM16.0001 12.25C16.4142 12.2502 16.7501 12.5859 16.7501 13V17C16.7501 17.4141 16.4142 17.7498 16.0001 17.75C15.5859 17.75 15.2501 17.4142 15.2501 17V13C15.2501 12.5858 15.5859 12.25 16.0001 12.25ZM15.5802 4.75195C15.2989 5.3419 14.6972 5.74984 14.0001 5.75H10.0001C9.30288 5.75 8.70035 5.34201 8.41904 4.75195C7.75729 4.75865 7.49136 4.78421 7.27158 4.87012C6.96578 4.9897 6.69978 5.19342 6.504 5.45703C6.32803 5.69414 6.22444 6.02546 5.93369 7.0918L5.58017 8.38867C6.61793 8.24996 7.95766 8.24998 9.62216 8.25H14.377C16.0415 8.24998 17.3813 8.24996 18.419 8.38867L18.0655 7.0918C17.7747 6.02534 17.6712 5.69415 17.4952 5.45703C17.2993 5.19335 17.0335 4.98969 16.7276 4.87012C16.5078 4.78421 16.242 4.75864 15.5802 4.75195ZM10.0001 3.75C9.86204 3.75 9.75009 3.86193 9.75009 4C9.75009 4.13807 9.86204 4.25 10.0001 4.25H14.0001C14.138 4.24978 14.2501 4.13793 14.2501 4C14.2501 3.86207 14.138 3.75022 14.0001 3.75H10.0001Z" fill="#48465C"/>
</svg>
