<svg width="24" height="24" viewBox="0 0 24 24" fill="none" xmlns="http://www.w3.org/2000/svg">
<path fill-rule="evenodd" clip-rule="evenodd" d="M7.50028 18.0006C8.32855 18.0007 9.00028 18.6722 9.00028 19.5006C9.00024 20.3288 8.32853 21.0004 7.50028 21.0006C6.67188 21.0006 6.00032 20.3289 6.00028 19.5006C6.00028 18.6721 6.67185 18.0006 7.50028 18.0006ZM16.5003 18.0006C17.3285 18.0007 18.0003 18.6723 18.0003 19.5006C18.0002 20.3289 17.3285 21.0004 16.5003 21.0006C15.6719 21.0006 15.0003 20.329 15.0003 19.5006C15.0003 18.6722 15.6719 18.0006 16.5003 18.0006ZM2.08427 2.75154C2.22168 2.36094 2.64966 2.15533 3.04032 2.29256L3.34208 2.39901C3.95833 2.61564 4.48186 2.79943 4.89384 3.00154C5.33434 3.21769 5.71222 3.48431 5.99637 3.89998C6.27835 4.31262 6.39479 4.76591 6.44852 5.26229C6.47255 5.48442 6.48578 5.73034 6.49247 6.00057H17.1302C18.8152 6.00057 20.3327 6.00064 20.7766 6.57772C21.2202 7.1548 21.0465 8.02455 20.6995 9.76326L20.1995 12.1881C19.8844 13.7168 19.7268 14.4817 19.1751 14.9312C18.6235 15.3806 17.843 15.3805 16.2825 15.3805H10.9788C8.19011 15.3805 6.79535 15.3802 5.92899 14.4664C5.06286 13.5527 4.9993 12.5814 4.9993 9.64022V7.03865C4.9993 6.29878 4.99846 5.8036 4.95731 5.42342C4.91798 5.06008 4.84835 4.87874 4.75809 4.74666C4.67005 4.61783 4.53676 4.49697 4.23368 4.34822C3.91084 4.18981 3.47159 4.03411 2.80399 3.7994L2.54325 3.7076C2.15248 3.57022 1.94688 3.1423 2.08427 2.75154ZM10.2395 8.87557C10.1704 8.46718 9.7827 8.19213 9.3743 8.26131C8.96622 8.33068 8.69103 8.71739 8.76005 9.12557L9.28837 12.2437C9.35759 12.6521 9.74528 12.9272 10.1536 12.858C10.5619 12.7887 10.837 12.4011 10.7679 11.9928L10.2395 8.87557ZM15.6536 8.26131C15.2452 8.19213 14.8576 8.46718 14.7884 8.87557L14.261 11.9928C14.1918 12.401 14.4662 12.7886 14.8743 12.858C15.2827 12.9272 15.6703 12.6521 15.7395 12.2437L16.2679 9.12557C16.3369 8.71726 16.0619 8.33053 15.6536 8.26131Z" fill="#48465C"/>
</svg>
