<svg width="24" height="24" viewBox="0 0 24 24" fill="none" xmlns="http://www.w3.org/2000/svg">
<path d="M15.4945 12C17.1417 12 17.9651 12.0002 18.4769 12.5859C18.7623 12.9126 18.8888 13.3505 18.9447 14.001C19.022 14.9016 19.0604 15.3519 18.764 15.6758C18.556 15.9027 18.2521 15.9709 17.7503 15.9912V21C17.7503 21.4141 17.4143 21.7498 17.0003 21.75C16.5862 21.75 16.2504 21.4143 16.2503 21V16H7.75035V21C7.7503 21.4141 7.41434 21.7498 7.00035 21.75C6.58617 21.75 6.2504 21.4143 6.25035 21V15.9912C5.74831 15.9709 5.44376 15.9028 5.2357 15.6758C4.93932 15.3519 4.97775 14.9015 5.05504 14.001C5.11086 13.3505 5.23738 12.9126 5.52281 12.5859C6.03455 12.0002 6.85803 12 8.50523 12H15.4945ZM12.0003 3C13.8693 3 14.8042 3.00045 15.5003 3.40234C15.9562 3.66564 16.3348 4.04411 16.598 4.5C16.9999 5.19615 17.0003 6.13077 17.0003 8V11.0273C16.57 11.0003 16.0858 11 15.5648 11H8.43492C7.91427 11 7.43053 11.0004 7.00035 11.0273V8C7.00035 6.13082 6.99983 5.19614 7.40172 4.5C7.66503 4.04394 8.04429 3.66565 8.50035 3.40234C9.19649 3.0005 10.1313 3 12.0003 3Z" fill="#48465C"/>
</svg>
