<svg width="24" height="24" viewBox="0 0 24 24" fill="none" xmlns="http://www.w3.org/2000/svg">
<path d="M7.65332 4.0038C7.9658 4.00015 8.12279 3.99821 8.24609 4.07411C8.36942 4.15014 8.44036 4.29572 8.58203 4.58583C9.24605 5.94557 11.0199 9.32586 13 10.9999C14.7522 12.4812 17.8633 13.6398 19.2715 14.1151C19.6337 14.2373 19.8156 14.298 19.9102 14.4413C20.0048 14.5846 19.9906 14.7616 19.9629 15.1151C19.9178 15.6911 19.8326 16.131 19.6709 16.5214C19.2138 17.624 18.3367 18.5001 17.2334 18.9569C16.6387 19.203 15.9294 19.2725 14.7988 19.2919C14.033 19.3051 13.6499 19.3114 13.3457 19.4882C13.0416 19.6649 12.8522 19.9848 12.4736 20.6239L11.9854 21.4491C11.5502 22.1833 10.4637 22.1832 10.0283 21.4491L9.54004 20.6239C9.16136 19.9847 8.97113 19.665 8.66699 19.4882C8.36295 19.3117 7.98009 19.3051 7.21484 19.2919C6.08433 19.2725 5.37495 19.2029 4.78027 18.9569C3.67683 18.5001 2.79983 17.6241 2.34277 16.5214C2.00001 15.6944 2 14.6456 2 12.5487V11.6493C2 8.70303 2.00045 7.22952 2.66406 6.14735C3.03536 5.54198 3.54458 5.03301 4.15039 4.662C5.01702 4.13129 5.84574 4.02494 7.65332 4.0038ZM12.5908 1.21083C12.8996 0.926978 13.3972 0.930235 13.7021 1.21766C14.0067 1.5051 14.0038 1.96804 13.6953 2.25184L12.6934 3.17274C13.5649 3.18095 14.4037 3.20125 15.1602 3.24891C15.8107 3.28992 16.4204 3.35272 16.9512 3.45106C17.4711 3.54739 17.9722 3.68778 18.3701 3.912C19.1098 4.32886 19.7331 4.90101 20.1875 5.5829C20.6247 6.23895 20.8168 6.98069 20.9092 7.87489C20.9997 8.74974 21 9.84312 21 11.2294V11.2684C20.9999 11.6724 20.6477 11.9999 20.2139 11.9999C19.7801 11.9997 19.4288 11.6722 19.4287 11.2684C19.4287 9.83526 19.4281 8.8121 19.3457 8.01552C19.2645 7.23016 19.1091 6.74072 18.8516 6.35438C18.5287 5.86982 18.0855 5.46097 17.5566 5.16298C17.3879 5.06787 17.0941 4.96893 16.6445 4.88563C16.2056 4.80435 15.6699 4.7477 15.0537 4.70888C14.3419 4.66402 13.548 4.64475 12.7061 4.63661L13.6953 5.54579C14.0038 5.8296 14.0067 6.29255 13.7021 6.57997C13.3972 6.86739 12.8996 6.87063 12.5908 6.58681L10.2334 4.41884C10.0841 4.28142 10 4.09377 10 3.89833C10.0001 3.70306 10.0842 3.5161 10.2334 3.3788L12.5908 1.21083Z" fill="#48465C"/>
</svg>
