<svg width="24" height="24" viewBox="0 0 24 24" fill="none" xmlns="http://www.w3.org/2000/svg">
<path d="M9.29785 3.47338C9.71193 3.47219 10.0484 3.80637 10.0498 4.22045C10.0511 4.63452 9.71675 4.97188 9.30273 4.97338C6.99782 4.98044 6.29494 5.05967 5.53711 5.5183C5.03226 5.82386 4.60906 6.24311 4.30078 6.73998C4.05508 7.13603 3.90661 7.63715 3.8291 8.44213C3.75047 9.25888 3.75 10.3085 3.75 11.7781V12.6667C3.75 13.7124 3.75041 14.4587 3.79102 15.0466C3.83117 15.6277 3.908 15.9987 4.03418 16.2996C4.41317 17.2032 5.14136 17.924 6.06152 18.3005C6.51243 18.485 7.09358 18.5567 8.22363 18.5759H8.25391C8.6103 18.582 8.92737 18.588 9.19141 18.6169C9.47644 18.6481 9.76099 18.7118 10.0361 18.8699C10.3091 19.0267 10.5055 19.2355 10.6738 19.4636C10.8281 19.6727 10.9857 19.9364 11.1611 20.2292L11.665 21.0701C11.7326 21.1828 11.8541 21.2497 12 21.2497C12.1458 21.2497 12.2674 21.1828 12.335 21.0701L12.8389 20.2292C13.0143 19.9364 13.172 19.6727 13.3262 19.4636C13.4945 19.2356 13.6908 19.0267 13.9639 18.8699C14.239 18.7118 14.5236 18.6481 14.8086 18.6169C15.0727 18.588 15.3897 18.582 15.7461 18.5759H15.7764C16.9065 18.5567 17.4876 18.485 17.9385 18.3005C18.8587 17.924 19.5869 17.2032 19.9658 16.2996C20.1349 15.8963 20.2117 15.3804 20.2373 14.4246C20.2484 14.0105 20.5928 13.684 21.0068 13.6951C21.4209 13.7062 21.7474 14.0506 21.7363 14.4646C21.71 15.4456 21.6328 16.202 21.3486 16.8796C20.8142 18.1539 19.7907 19.1636 18.5059 19.6892C17.7682 19.9909 16.9312 20.0567 15.8018 20.0759C15.4056 20.0826 15.1587 20.0868 14.9717 20.1072C14.7985 20.1261 14.7397 20.1533 14.7109 20.1697C14.6804 20.1874 14.6299 20.2233 14.5332 20.3542C14.4269 20.4982 14.3059 20.6992 14.1094 21.0271L13.6211 21.8415C12.8949 23.0526 11.105 23.0526 10.3789 21.8415L9.89063 21.0271C9.69412 20.6992 9.57309 20.4982 9.4668 20.3542C9.37014 20.2233 9.31971 20.1874 9.28906 20.1697C9.26036 20.1533 9.20153 20.1262 9.02832 20.1072C8.84133 20.0868 8.59443 20.0826 8.19824 20.0759C7.06876 20.0567 6.23173 19.9909 5.49414 19.6892C4.2093 19.1636 3.1858 18.1539 2.65137 16.8796C2.43503 16.3638 2.34043 15.8086 2.29492 15.1501C2.25031 14.5043 2.25 13.7059 2.25 12.6941V11.738C2.24999 10.3167 2.24959 9.19557 2.33594 8.29858C2.4242 7.38187 2.60817 6.62155 3.02539 5.94897C3.45921 5.24979 4.05458 4.66249 4.76074 4.2351C5.93034 3.52732 7.06206 3.48023 9.29785 3.47338ZM13.7227 1.46654C14.0172 1.17561 14.4921 1.17811 14.7832 1.4724C15.0743 1.76711 15.072 2.24286 14.7773 2.53393L13.8203 3.47826C14.6524 3.48667 15.4535 3.50653 16.1758 3.55541C16.7966 3.59745 17.378 3.66165 17.8848 3.76244C18.381 3.86118 18.8594 4.00528 19.2393 4.2351C19.9454 4.66249 20.5408 5.24979 20.9746 5.94897C21.3918 6.62155 21.5758 7.38187 21.6641 8.29858C21.7504 9.19557 21.75 10.3167 21.75 11.738V11.7781C21.7498 12.1921 21.4141 12.5281 21 12.5281C20.5859 12.5281 20.2502 12.1921 20.25 11.7781C20.25 10.3085 20.2495 9.25888 20.1709 8.44213C20.0933 7.63714 19.9449 7.13603 19.6992 6.73998C19.3909 6.24311 18.9677 5.82386 18.4629 5.5183C18.3018 5.42079 18.021 5.31952 17.5918 5.23412C17.173 5.15083 16.6621 5.09227 16.0742 5.05248C15.3947 5.00649 14.6367 4.9866 13.833 4.97826L14.7773 5.91088C15.0718 6.20197 15.0742 6.67681 14.7832 6.97143C14.4921 7.2659 14.0173 7.26926 13.7227 6.97826L11.4727 4.75561C11.3302 4.61479 11.2501 4.42272 11.25 4.2224C11.25 4.02191 11.33 3.82913 11.4727 3.68822L13.7227 1.46654Z" fill="#48465C"/>
</svg>
