<svg width="24" height="24" viewBox="0 0 24 24" fill="none" xmlns="http://www.w3.org/2000/svg">
<path fill-rule="evenodd" clip-rule="evenodd" d="M9.29785 3.47298C9.71199 3.47179 10.0485 3.80686 10.0498 4.22103C10.051 4.63503 9.7167 4.97148 9.30273 4.97298C6.9977 4.98004 6.29498 5.06019 5.53711 5.51888C5.0324 5.82436 4.60904 6.24289 4.30078 6.73958C4.05502 7.13568 3.90661 7.63752 3.8291 8.44271C3.75048 9.2594 3.75 10.3082 3.75 11.7777V12.6663C3.75 13.7121 3.75041 14.4592 3.79102 15.0472C3.83117 15.6281 3.90802 15.9993 4.03418 16.3001C4.41321 17.2037 5.1414 17.9246 6.06152 18.3011C6.51243 18.4856 7.09358 18.5563 8.22363 18.5755L8.25391 18.5765C8.6103 18.5826 8.92737 18.5876 9.19141 18.6165C9.47644 18.6477 9.76099 18.7114 10.0361 18.8695C10.3093 19.0264 10.5054 19.236 10.6738 19.4642C10.8281 19.6733 10.9856 19.9369 11.1611 20.2298L11.665 21.0706C11.7326 21.1833 11.8541 21.2503 12 21.2503C12.1458 21.2503 12.2674 21.1833 12.335 21.0706L12.8389 20.2298C13.0144 19.9369 13.172 19.6733 13.3262 19.4642C13.4946 19.236 13.6906 19.0264 13.9639 18.8695C14.239 18.7114 14.5236 18.6477 14.8086 18.6165C15.0727 18.5876 15.3897 18.5826 15.7461 18.5765L15.7764 18.5755C16.9065 18.5563 17.4876 18.4856 17.9385 18.3011C18.8586 17.9246 19.5868 17.2037 19.9658 16.3001C20.1349 15.8968 20.2117 15.3802 20.2373 14.4242C20.2486 14.0103 20.593 13.6836 21.0068 13.6947C21.4209 13.7058 21.7474 14.0512 21.7363 14.4652C21.71 15.446 21.6328 16.2026 21.3486 16.8802C20.8142 18.1543 19.7906 19.1642 18.5059 19.6898C17.7683 19.9914 16.9312 20.0563 15.8018 20.0755C15.4056 20.0822 15.1587 20.0874 14.9717 20.1077C14.7983 20.1267 14.7396 20.1539 14.7109 20.1702C14.6803 20.1879 14.6299 20.2237 14.5332 20.3548C14.4269 20.4988 14.3059 20.6998 14.1094 21.0277L13.6211 21.8411C12.895 23.0527 11.1049 23.0527 10.3789 21.8411L9.89063 21.0277C9.69412 20.6998 9.5731 20.4988 9.4668 20.3548C9.37012 20.2238 9.31973 20.188 9.28906 20.1702C9.26039 20.1539 9.20163 20.1267 9.02832 20.1077C8.84133 20.0874 8.59443 20.0822 8.19824 20.0755C7.06882 20.0563 6.2317 19.9915 5.49414 19.6898C4.2094 19.1642 3.18583 18.1543 2.65137 16.8802C2.43507 16.3644 2.34043 15.809 2.29492 15.1507C2.25031 14.5049 2.25 13.7065 2.25 12.6947V11.7386C2.24999 10.3173 2.24961 9.19613 2.33594 8.29915C2.42418 7.38253 2.60827 6.62208 3.02539 5.94954C3.45921 5.25036 4.05458 4.66306 4.76074 4.23567C5.93039 3.52782 7.06196 3.47983 9.29785 3.47298ZM13.7227 1.46614C14.0173 1.17515 14.4921 1.17852 14.7832 1.47298C15.0742 1.7676 15.0718 2.24243 14.7773 2.53353L13.8203 3.47786C14.6524 3.48627 15.4535 3.50711 16.1758 3.55599C16.7966 3.59802 17.378 3.66222 17.8848 3.76302C18.3811 3.86177 18.8594 4.0058 19.2393 4.23567C19.9454 4.66306 20.5408 5.25036 20.9746 5.94954C21.3917 6.62208 21.5758 7.38252 21.6641 8.29915C21.7503 9.19613 21.75 10.3173 21.75 11.7386V11.7777C21.75 12.1919 21.4142 12.5277 21 12.5277C20.5858 12.5277 20.25 12.1919 20.25 11.7777C20.25 10.3082 20.2495 9.2594 20.1709 8.44271C20.0933 7.63752 19.9449 7.13568 19.6992 6.73958C19.3909 6.24289 18.9675 5.82436 18.4629 5.51888C18.3018 5.42135 18.0211 5.31914 17.5918 5.23372C17.173 5.15044 16.662 5.09187 16.0742 5.05208C15.3947 5.00609 14.6367 4.98718 13.833 4.97884L14.7773 5.91048C15.072 6.20155 15.0743 6.6773 14.7832 6.972C14.4921 7.26631 14.0172 7.2688 13.7227 6.97786L11.4727 4.75618C11.33 4.61528 11.25 4.42251 11.25 4.222C11.2501 4.0217 11.3302 3.82961 11.4727 3.6888L13.7227 1.46614Z" fill="#48465C"/>
</svg>
