<svg width="24" height="24" viewBox="0 0 24 24" fill="none" xmlns="http://www.w3.org/2000/svg">
<path d="M10.8304 2.26513C11.5702 1.91168 12.4304 1.91156 13.1702 2.26513C13.49 2.41804 13.7958 2.67939 14.4075 3.20068C14.6509 3.40812 14.7727 3.51198 14.9026 3.59912C15.2007 3.79891 15.5359 3.93684 15.888 4.00634C16.0416 4.03666 16.201 4.05024 16.5198 4.07568C17.3211 4.13963 17.7217 4.17151 18.056 4.28955C18.8291 4.56264 19.4371 5.17069 19.7103 5.94384C19.8283 6.27811 19.8611 6.6787 19.9251 7.47998C19.9505 7.79871 19.9632 7.95832 19.9935 8.11181C20.063 8.46388 20.2019 8.79906 20.4017 9.09716C20.4887 9.22707 20.592 9.34913 20.7991 9.59228C21.3206 10.2042 21.5818 10.5107 21.7347 10.8306C22.0881 11.5704 22.0882 12.4306 21.7347 13.1704C21.5818 13.4902 21.3204 13.796 20.7991 14.4077C20.5919 14.6508 20.4887 14.773 20.4017 14.9028C20.2019 15.2009 20.063 15.5361 19.9935 15.8882C19.9632 16.0417 19.9505 16.2012 19.9251 16.52C19.8611 17.3214 19.8282 17.7219 19.7103 18.0561C19.4372 18.8293 18.8292 19.4373 18.056 19.7104C17.7217 19.8284 17.3212 19.8613 16.5198 19.9253C16.201 19.9507 16.0416 19.9634 15.888 19.9936C15.5359 20.0631 15.2007 20.2021 14.9026 20.4019C14.7728 20.4889 14.6507 20.5921 14.4075 20.7993C13.7959 21.3206 13.49 21.5819 13.1702 21.7349C12.4304 22.0884 11.5702 22.0883 10.8304 21.7349C10.5105 21.582 10.204 21.3208 9.5921 20.7993C9.34894 20.5921 9.22688 20.4889 9.09698 20.4019C8.79888 20.2021 8.4637 20.0631 8.11163 19.9936C7.95813 19.9634 7.79853 19.9507 7.47979 19.9253C6.67852 19.8613 6.27793 19.8284 5.94366 19.7104C5.17051 19.4373 4.56245 18.8293 4.28936 18.0561C4.17133 17.7219 4.13944 17.3213 4.0755 16.52C4.05005 16.2012 4.03648 16.0417 4.00616 15.8882C3.93665 15.5361 3.79872 15.2009 3.59893 14.9028C3.5118 14.7729 3.40791 14.6511 3.2005 14.4077C2.67921 13.796 2.41786 13.4902 2.26495 13.1704C1.91138 12.4306 1.9115 11.5704 2.26495 10.8306C2.41783 10.5107 2.67906 10.2042 3.2005 9.59228C3.40788 9.34894 3.51181 9.22716 3.59893 9.09716C3.79869 8.79909 3.93666 8.46383 4.00616 8.11181C4.03645 7.95831 4.05006 7.79874 4.0755 7.47998C4.13945 6.67874 4.17129 6.2781 4.28936 5.94384C4.56247 5.17067 5.17048 4.56265 5.94366 4.28955C6.27792 4.17148 6.67856 4.13963 7.47979 4.07568C7.79856 4.05024 7.95812 4.03664 8.11163 4.00634C8.46365 3.93684 8.79891 3.79887 9.09698 3.59912C9.22698 3.51199 9.34876 3.40805 9.5921 3.20068C10.204 2.67924 10.5105 2.41801 10.8304 2.26513ZM16.3733 8.7124C16.0555 8.39457 15.5398 8.39457 15.222 8.7124L10.3724 13.562L8.77765 11.9673C8.45986 11.6496 7.9441 11.6496 7.62628 11.9673C7.30847 12.2851 7.30852 12.8007 7.62628 13.1186L9.7962 15.2886C10.114 15.6064 10.6297 15.6064 10.9476 15.2886L16.3733 9.86279C16.6909 9.54495 16.691 9.03018 16.3733 8.7124Z" fill="#48465C"/>
</svg>
