<svg width="24" height="24" viewBox="0 0 24 24" fill="none" xmlns="http://www.w3.org/2000/svg">
<path d="M17.8795 7.25C18.0782 7.25 18.2692 7.32936 18.4098 7.46973C18.5503 7.61035 18.6295 7.80125 18.6295 8C18.6295 8.19869 18.5502 8.38969 18.4098 8.53027L10.4098 16.5303C10.2692 16.6705 10.0781 16.749 9.87953 16.749C9.68111 16.7489 9.49072 16.6704 9.35024 16.5303L5.35024 12.5303C5.21776 12.3881 5.14564 12.1992 5.14907 12.0049C5.1526 11.8107 5.23148 11.6256 5.36879 11.4883C5.50617 11.351 5.6912 11.272 5.88539 11.2686C6.07963 11.2651 6.26765 11.3373 6.40981 11.4697L9.86977 14.9395L17.3502 7.46973C17.4907 7.32949 17.681 7.25012 17.8795 7.25Z" fill="#48465C"/>
</svg>
