<svg width="24" height="24" viewBox="0 0 24 24" fill="none" xmlns="http://www.w3.org/2000/svg">
<path d="M6.98836 16.4519C7.29117 16.1694 7.76534 16.1862 8.04793 16.489C8.33052 16.7917 8.31453 17.2659 8.01179 17.5485L3.72566 21.5485C3.57359 21.6904 3.36965 21.7632 3.16218 21.7487C2.95461 21.7342 2.76185 21.6341 2.63093 21.4724L1.41707 19.9724C1.15645 19.6505 1.20644 19.1783 1.52839 18.9177C1.85028 18.6571 2.32245 18.7063 2.58308 19.028L3.29109 19.903L6.98836 16.4519ZM22.0001 18.2507C22.4142 18.2507 22.7501 18.5865 22.7501 19.0007C22.7499 19.4147 22.4141 19.7506 22.0001 19.7507H12.0001C11.586 19.7507 11.2503 19.4147 11.2501 19.0007C11.2501 18.5865 11.5859 18.2507 12.0001 18.2507H22.0001ZM6.98836 9.45186C7.29117 9.16939 7.76534 9.18621 8.04793 9.48897C8.3305 9.79177 8.31453 10.2659 8.01179 10.5485L3.72566 14.5485C3.57359 14.6904 3.36965 14.7632 3.16218 14.7487C2.95461 14.7342 2.76185 14.6341 2.63093 14.4724L1.41707 12.9724C1.15645 12.6505 1.20644 12.1783 1.52839 11.9177C1.85028 11.6571 2.32245 11.7063 2.58308 12.028L3.29109 12.903L6.98836 9.45186ZM22.0001 11.2507C22.4142 11.2507 22.7501 11.5865 22.7501 12.0007C22.7499 12.4147 22.4141 12.7506 22.0001 12.7507H12.0001C11.586 12.7507 11.2503 12.4147 11.2501 12.0007C11.2501 11.5865 11.5859 11.2507 12.0001 11.2507H22.0001ZM6.98836 2.45186C7.29117 2.16939 7.76534 2.18621 8.04793 2.48897C8.33051 2.79177 8.31453 3.26592 8.01179 3.54854L3.72566 7.54854C3.57359 7.6904 3.36964 7.76319 3.16218 7.74874C2.95461 7.73426 2.76185 7.6341 2.63093 7.47237L1.41707 5.97237C1.15645 5.65043 1.20644 5.1783 1.52839 4.91768C1.85028 4.65715 2.32245 4.70627 2.58308 5.02804L3.29109 5.90304L6.98836 2.45186ZM22.0001 4.25069C22.4142 4.25075 22.7501 4.58652 22.7501 5.00069C22.7499 5.41472 22.4141 5.75064 22.0001 5.75069H12.0001C11.586 5.75069 11.2503 5.41475 11.2501 5.00069C11.2501 4.58648 11.5859 4.25069 12.0001 4.25069H22.0001Z" fill="#48465C"/>
</svg>
