<svg width="24" height="24" viewBox="0 0 24 24" fill="none" xmlns="http://www.w3.org/2000/svg">
<path fill-rule="evenodd" clip-rule="evenodd" d="M6.98826 16.4519C7.29108 16.1694 7.76525 16.1862 8.04783 16.489C8.33043 16.7917 8.31444 17.2659 8.0117 17.5485L3.72557 21.5485C3.5735 21.6904 3.36955 21.7632 3.16209 21.7487C2.95452 21.7342 2.76176 21.6341 2.63084 21.4724L1.41698 19.9724C1.15636 19.6505 1.20635 19.1783 1.5283 18.9177C1.85018 18.6571 2.32236 18.7063 2.58299 19.028L3.291 19.903L6.98826 16.4519ZM22 18.2507C22.4141 18.2507 22.75 18.5865 22.75 19.0007C22.7498 19.4147 22.414 19.7506 22 19.7507H12C11.5859 19.7507 11.2502 19.4147 11.25 19.0007C11.25 18.5865 11.5858 18.2507 12 18.2507H22ZM6.98826 9.45186C7.29108 9.16939 7.76525 9.18621 8.04783 9.48897C8.33041 9.79177 8.31444 10.2659 8.0117 10.5485L3.72557 14.5485C3.5735 14.6904 3.36955 14.7632 3.16209 14.7487C2.95452 14.7342 2.76176 14.6341 2.63084 14.4724L1.41698 12.9724C1.15636 12.6505 1.20635 12.1783 1.5283 11.9177C1.85018 11.6571 2.32236 11.7063 2.58299 12.028L3.291 12.903L6.98826 9.45186ZM22 11.2507C22.4141 11.2507 22.75 11.5865 22.75 12.0007C22.7498 12.4147 22.414 12.7506 22 12.7507H12C11.5859 12.7507 11.2502 12.4147 11.25 12.0007C11.25 11.5865 11.5858 11.2507 12 11.2507H22ZM6.98826 2.45186C7.29108 2.16939 7.76525 2.18621 8.04783 2.48897C8.33041 2.79177 8.31444 3.26592 8.0117 3.54854L3.72557 7.54854C3.5735 7.6904 3.36955 7.76319 3.16209 7.74874C2.95452 7.73426 2.76176 7.6341 2.63084 7.47237L1.41698 5.97237C1.15636 5.65043 1.20635 5.1783 1.5283 4.91768C1.85019 4.65715 2.32235 4.70627 2.58299 5.02804L3.291 5.90304L6.98826 2.45186ZM22 4.25069C22.4141 4.25075 22.75 4.58652 22.75 5.00069C22.7498 5.41472 22.414 5.75064 22 5.75069H12C11.5859 5.75069 11.2502 5.41475 11.25 5.00069C11.25 4.58648 11.5858 4.25069 12 4.25069H22Z" fill="#48465C"/>
</svg>
