<svg width="24" height="24" viewBox="0 0 24 24" fill="none" xmlns="http://www.w3.org/2000/svg">
<path fill-rule="evenodd" clip-rule="evenodd" d="M10.5934 2.31924C11.4827 1.89419 12.5166 1.89429 13.4059 2.31924C13.7923 2.50392 14.1471 2.80539 14.6374 3.22354C14.6627 3.24523 14.6883 3.26763 14.7145 3.28995C14.9524 3.49275 15.0273 3.55551 15.1032 3.60635C15.2961 3.73565 15.5131 3.82501 15.7409 3.87003C15.8305 3.88772 15.9281 3.89689 16.2399 3.92178C16.2741 3.92451 16.3083 3.92696 16.3415 3.9296C16.9836 3.98055 17.4475 4.01745 17.8512 4.16006C18.7808 4.48839 19.5122 5.21985 19.8405 6.14932C19.983 6.55306 20.02 7.01693 20.071 7.65909C20.0737 7.69243 20.076 7.72633 20.0788 7.76065C20.1036 8.07199 20.1129 8.1692 20.1305 8.2587C20.1754 8.48652 20.265 8.70347 20.3942 8.89639C20.4451 8.97226 20.5077 9.04796 20.7106 9.28604C20.7328 9.31209 20.7545 9.33789 20.776 9.36319C21.1942 9.85338 21.4966 10.2073 21.6813 10.5937C22.1063 11.4829 22.1062 12.5169 21.6813 13.4062C21.4966 13.7926 21.1942 14.1473 20.776 14.6376C20.7545 14.6628 20.7328 14.6886 20.7106 14.7148C20.5079 14.9525 20.4451 15.0276 20.3942 15.1034C20.265 15.2963 20.1754 15.5133 20.1305 15.7411C20.1128 15.8307 20.1037 15.9283 20.0788 16.2401C20.076 16.2743 20.0736 16.3085 20.071 16.3417C20.02 16.9838 19.9831 17.4477 19.8405 17.8515C19.5122 18.7811 18.7808 19.5124 17.8512 19.8407C17.4475 19.9833 16.9836 20.0202 16.3415 20.0712C16.3083 20.0739 16.2741 20.0762 16.2399 20.079C15.9281 20.1039 15.8305 20.1131 15.7409 20.1308C15.5131 20.1757 15.2961 20.2652 15.1032 20.3944C15.0274 20.4453 14.9522 20.5082 14.7145 20.7108C14.6884 20.733 14.6626 20.7547 14.6374 20.7763C14.1471 21.1945 13.7923 21.4968 13.4059 21.6815C12.5166 22.1064 11.4827 22.1066 10.5934 21.6815C10.2071 21.4968 9.85315 21.1944 9.36295 20.7763C9.33765 20.7547 9.31184 20.733 9.2858 20.7108C9.04771 20.5079 8.97202 20.4453 8.89615 20.3944C8.70323 20.2652 8.48627 20.1757 8.25845 20.1308C8.16895 20.1131 8.07175 20.1039 7.76041 20.079C7.72609 20.0762 7.69219 20.0739 7.65884 20.0712C7.01669 20.0202 6.55282 19.9832 6.14908 19.8407C5.21961 19.5124 4.48815 18.781 4.15982 17.8515C4.01721 17.4477 3.98031 16.9838 3.92935 16.3417C3.92672 16.3085 3.92427 16.2743 3.92154 16.2401C3.89665 15.9283 3.88747 15.8307 3.86978 15.7411C3.82477 15.5133 3.7354 15.2964 3.60611 15.1034C3.55527 15.0276 3.49251 14.9527 3.2897 14.7148C3.26739 14.6886 3.24498 14.663 3.2233 14.6376C2.80514 14.1474 2.50368 13.7925 2.319 13.4062C1.89404 12.5168 1.89394 11.483 2.319 10.5937C2.50366 10.2074 2.80531 9.85323 3.2233 9.36319C3.24494 9.33782 3.26743 9.31217 3.2897 9.28604C3.49259 9.04795 3.55526 8.97226 3.60611 8.89639C3.73531 8.70352 3.82481 8.48645 3.86978 8.2587C3.88741 8.16921 3.89669 8.07195 3.92154 7.76065C3.92428 7.72633 3.92671 7.69244 3.92935 7.65909C3.98031 7.0169 4.01725 6.55308 4.15982 6.14932C4.48813 5.21982 5.21958 4.48837 6.14908 4.16006C6.55283 4.0175 7.01666 3.98055 7.65884 3.9296C7.69219 3.92696 7.72609 3.92452 7.76041 3.92178C8.0717 3.89693 8.16896 3.88766 8.25845 3.87003C8.48621 3.82505 8.70327 3.73556 8.89615 3.60635C8.97202 3.5555 9.04771 3.49284 9.2858 3.28995C9.31192 3.26767 9.33756 3.24519 9.36295 3.22354C9.85299 2.80555 10.2072 2.50391 10.5934 2.31924ZM12.7575 3.67667C12.2787 3.44782 11.7217 3.4479 11.2428 3.67667C11.0577 3.76516 10.862 3.9236 10.2614 4.43545C10.2516 4.44379 10.2426 4.45273 10.2331 4.46085C10.036 4.62876 9.89188 4.75118 9.73502 4.85635C9.37665 5.09654 8.97368 5.26303 8.55045 5.34659C8.36508 5.38319 8.17667 5.3983 7.91861 5.41885C7.90617 5.41984 7.89329 5.42076 7.88052 5.42178C7.09394 5.48456 6.84355 5.51067 6.65005 5.57901C6.14955 5.75579 5.75555 6.1498 5.57877 6.6503C5.51043 6.84379 5.48431 7.09419 5.42154 7.88077C5.42052 7.89354 5.4196 7.90641 5.41861 7.91885C5.39806 8.17692 5.38294 8.36532 5.34634 8.55069C5.26278 8.97393 5.09629 9.3769 4.85611 9.73526C4.75093 9.89212 4.62852 10.0363 4.4606 10.2333C4.45249 10.2428 4.44354 10.2518 4.43521 10.2616C3.92336 10.8622 3.76491 11.058 3.67642 11.2431C3.44766 11.7219 3.44758 12.2789 3.67642 12.7577C3.7649 12.9428 3.92351 13.1378 4.43521 13.7382C4.44362 13.7481 4.45241 13.7579 4.4606 13.7675C4.62856 13.9646 4.75091 14.1086 4.85611 14.2655C5.0963 14.6239 5.26278 15.0269 5.34634 15.4501C5.38291 15.6354 5.39806 15.8239 5.41861 16.0819C5.4196 16.0945 5.42051 16.1072 5.42154 16.12C5.48432 16.9066 5.51042 17.157 5.57877 17.3505C5.75557 17.8508 6.14972 18.244 6.65005 18.4208C6.84355 18.4892 7.09388 18.5153 7.88052 18.578L7.91861 18.581C8.17668 18.6015 8.3651 18.6167 8.55045 18.6532C8.9737 18.7368 9.37665 18.9042 9.73502 19.1444C9.89182 19.2496 10.0361 19.3721 10.2331 19.5399L10.2614 19.5644C10.862 20.0763 11.0577 20.2347 11.2428 20.3232C11.7217 20.552 12.2786 20.552 12.7575 20.3232C12.9425 20.2346 13.1376 20.0761 13.7379 19.5644L13.7672 19.5399C13.9642 19.372 14.1084 19.2496 14.2653 19.1444C14.6237 18.9042 15.0267 18.7368 15.4499 18.6532C15.6351 18.6167 15.8237 18.6014 16.0817 18.581L16.1198 18.578C16.9064 18.5153 17.1567 18.4892 17.3502 18.4208C17.8504 18.244 18.2437 17.8506 18.4206 17.3505C18.489 17.157 18.5151 16.9066 18.5778 16.12L18.5807 16.0819C18.6012 15.8239 18.6164 15.6354 18.653 15.4501C18.7366 15.0269 18.904 14.6239 19.1442 14.2655C19.2494 14.1086 19.3718 13.9645 19.5397 13.7675L19.5641 13.7382C20.0758 13.1378 20.2344 12.9428 20.3229 12.7577C20.5518 12.2788 20.5518 11.722 20.3229 11.2431C20.2344 11.058 20.076 10.8622 19.5641 10.2616L19.5397 10.2323C19.372 10.0356 19.2493 9.89199 19.1442 9.73526C18.904 9.37689 18.7366 8.97394 18.653 8.55069C18.6164 8.36534 18.6012 8.17692 18.5807 7.91885L18.5778 7.88077C18.5151 7.09413 18.489 6.8438 18.4206 6.6503C18.2438 6.14997 17.8506 5.75582 17.3502 5.57901C17.1567 5.51066 16.9064 5.48456 16.1198 5.42178C16.107 5.42076 16.0942 5.41985 16.0817 5.41885C15.8236 5.3983 15.6352 5.38316 15.4499 5.34659C15.0267 5.26303 14.6237 5.09654 14.2653 4.85635C14.1084 4.75116 13.9643 4.62882 13.7672 4.46085C13.7576 4.45267 13.7478 4.44385 13.7379 4.43545C13.1375 3.92375 12.9426 3.76515 12.7575 3.67667ZM14.9801 8.95889C15.274 8.66532 15.7508 8.66518 16.0446 8.95889C16.3385 9.25269 16.3382 9.72939 16.0446 10.0233L11.027 15.0409C10.733 15.3348 10.2564 15.3348 9.96255 15.0409L7.95572 13.0341C7.66181 12.7402 7.66181 12.2635 7.95572 11.9696C8.24965 11.6759 8.72631 11.6758 9.02017 11.9696L10.4948 13.4442L14.9801 8.95889Z" fill="#48465C"/>
</svg>
