<svg width="24" height="24" viewBox="0 0 24 24" fill="none" xmlns="http://www.w3.org/2000/svg">
<path d="M17.8795 7.25C18.0782 7.25 18.2692 7.32936 18.4098 7.46973C18.5502 7.61035 18.6295 7.80125 18.6295 8C18.6295 8.19869 18.5502 8.38969 18.4098 8.53027L10.4098 16.5303C10.2692 16.6705 10.0781 16.749 9.87951 16.749C9.68109 16.7489 9.4907 16.6704 9.35021 16.5303L5.35021 12.5303C5.21773 12.3881 5.14561 12.1992 5.14904 12.0049C5.15258 11.8107 5.23146 11.6256 5.36877 11.4883C5.50615 11.351 5.69118 11.272 5.88537 11.2686C6.07961 11.2651 6.26763 11.3373 6.40978 11.4697L9.86975 14.9395L17.3502 7.46973C17.4907 7.32949 17.681 7.25012 17.8795 7.25Z" fill="#48465C"/>
</svg>
