<svg width="24" height="24" viewBox="0 0 24 24" fill="none" xmlns="http://www.w3.org/2000/svg">
<path d="M6.98837 16.4519C7.29119 16.1694 7.76535 16.1862 8.04794 16.489C8.33054 16.7917 8.31455 17.2659 8.01181 17.5485L3.72568 21.5485C3.5736 21.6904 3.36966 21.7632 3.1622 21.7487C2.95463 21.7342 2.76187 21.6341 2.63095 21.4724L1.41708 19.9724C1.15646 19.6505 1.20646 19.1783 1.52841 18.9177C1.85029 18.6571 2.32247 18.7063 2.5831 19.028L3.29111 19.903L6.98837 16.4519ZM22.0001 18.2507C22.4142 18.2507 22.7501 18.5865 22.7501 19.0007C22.7499 19.4147 22.4141 19.7506 22.0001 19.7507H12.0001C11.586 19.7507 11.2503 19.4147 11.2501 19.0007C11.2501 18.5865 11.5859 18.2507 12.0001 18.2507H22.0001ZM6.98837 9.45186C7.29119 9.16939 7.76536 9.18621 8.04794 9.48897C8.33052 9.79177 8.31454 10.2659 8.01181 10.5485L3.72568 14.5485C3.5736 14.6904 3.36966 14.7632 3.1622 14.7487C2.95463 14.7342 2.76187 14.6341 2.63095 14.4724L1.41708 12.9724C1.15646 12.6505 1.20646 12.1783 1.52841 11.9177C1.85029 11.6571 2.32247 11.7063 2.5831 12.028L3.29111 12.903L6.98837 9.45186ZM22.0001 11.2507C22.4142 11.2507 22.7501 11.5865 22.7501 12.0007C22.7499 12.4147 22.4141 12.7506 22.0001 12.7507H12.0001C11.586 12.7507 11.2503 12.4147 11.2501 12.0007C11.2501 11.5865 11.5859 11.2507 12.0001 11.2507H22.0001ZM6.98837 2.45186C7.29119 2.16939 7.76536 2.18621 8.04794 2.48897C8.33052 2.79177 8.31455 3.26592 8.01181 3.54854L3.72568 7.54854C3.5736 7.6904 3.36966 7.76319 3.1622 7.74874C2.95463 7.73426 2.76187 7.6341 2.63095 7.47237L1.41708 5.97237C1.15646 5.65043 1.20646 5.1783 1.52841 4.91768C1.85029 4.65715 2.32246 4.70627 2.5831 5.02804L3.29111 5.90304L6.98837 2.45186ZM22.0001 4.25069C22.4142 4.25075 22.7501 4.58652 22.7501 5.00069C22.7499 5.41472 22.4141 5.75064 22.0001 5.75069H12.0001C11.586 5.75069 11.2503 5.41475 11.2501 5.00069C11.2501 4.58648 11.5859 4.25069 12.0001 4.25069H22.0001Z" fill="#48465C"/>
</svg>
