<svg width="24" height="24" viewBox="0 0 24 24" fill="none" xmlns="http://www.w3.org/2000/svg">
<path fill-rule="evenodd" clip-rule="evenodd" d="M15.7958 1.96168C17.3092 1.86252 18.7334 2.68441 19.4042 4.04469C19.5681 4.3771 19.6764 4.78069 19.8348 5.37281C19.8422 5.40027 19.8497 5.42851 19.8573 5.4568C19.8614 5.47222 19.8658 5.48813 19.87 5.50367C19.9172 5.6792 19.9659 5.86192 19.9774 6.03688C20.0237 6.74317 19.6406 7.4084 19.0057 7.72145C18.8484 7.79904 18.6648 7.84748 18.4891 7.8943C18.4737 7.8984 18.4585 7.90291 18.4432 7.90699L9.69713 10.2498H16.0516C16.9501 10.2498 17.7 10.2498 18.2948 10.3298C18.9224 10.4143 19.4889 10.6001 19.9442 11.0554C20.3997 11.5109 20.5854 12.078 20.6698 12.7058C20.7498 13.3005 20.7499 14.0497 20.7499 14.948V16.0545C20.7499 17.4219 20.7501 18.5244 20.6337 19.3914C20.5127 20.2915 20.2532 21.0492 19.6512 21.6511C19.0493 22.253 18.2916 22.5126 17.3915 22.6336C16.5245 22.7501 15.4219 22.7499 14.0546 22.7498H9.94518C8.57759 22.7499 7.47523 22.7502 6.60826 22.6336C5.70815 22.5126 4.95042 22.253 4.3485 21.6511C3.7467 21.0493 3.48708 20.2914 3.36607 19.3914C3.24957 18.5244 3.24984 17.4218 3.24986 16.0545V11.0925C3.02413 10.2501 2.8422 9.56685 2.744 8.99977C2.64016 8.39993 2.61587 7.85775 2.75963 7.32106C2.93 6.68522 3.26487 6.10487 3.73033 5.63942C4.12317 5.24671 4.60443 4.99682 5.17565 4.78688C5.7301 4.58312 6.43502 4.39493 7.30846 4.1609L8.08873 3.95191C8.17622 3.90848 8.2737 3.88108 8.37486 3.87477L14.3456 2.27516C14.3529 2.27321 14.3608 2.27124 14.368 2.2693C14.4555 2.22592 14.5521 2.19941 14.6532 2.19313C15.1272 2.06714 15.4744 1.98274 15.7958 1.96168ZM4.74986 15.9998C4.74986 17.4353 4.75182 18.4368 4.85338 19.1922C4.95202 19.9256 5.13242 20.3139 5.40904 20.5906C5.6858 20.8674 6.07468 21.0485 6.80846 21.1472C7.56374 21.2487 8.56476 21.2498 9.99986 21.2498H13.9999C15.4353 21.2498 16.4368 21.2487 17.1922 21.1472C17.9259 21.0485 18.3139 20.8673 18.5907 20.5906C18.8674 20.3139 19.0486 19.9258 19.1473 19.1922C19.2488 18.4368 19.2499 17.4353 19.2499 15.9998V14.9998C19.2499 14.0358 19.2484 13.3881 19.1835 12.905C19.1214 12.4438 19.0139 12.2463 18.8837 12.116C18.7534 11.9857 18.5559 11.8781 18.0946 11.8162C17.6116 11.7512 16.9638 11.7498 15.9999 11.7498H4.74986V15.9998ZM7.54381 5.65016C6.72684 5.86937 6.14273 6.02989 5.69322 6.19508C5.22021 6.36894 4.96632 6.52464 4.79088 6.69996C4.51164 6.9792 4.3101 7.3273 4.20787 7.70875C4.14365 7.94844 4.13649 8.24694 4.22252 8.74391C4.28509 9.10519 4.38941 9.53332 4.53307 10.0808L7.09752 9.39332L7.54381 5.65016ZM9.10436 5.23219L8.65807 8.97535L13.3758 7.71168L13.8231 3.96852L9.10436 5.23219ZM15.8934 3.45777C15.7708 3.46585 15.6309 3.4919 15.3827 3.55348L14.9364 7.29274L18.0546 6.45777C18.1717 6.42639 18.2418 6.40724 18.2938 6.39137C18.3257 6.38162 18.3398 6.37629 18.3436 6.37477C18.4325 6.33005 18.4869 6.23681 18.4813 6.13746C18.4808 6.13384 18.4784 6.11826 18.4706 6.08473C18.4584 6.03181 18.4394 5.96226 18.4081 5.84547C18.2184 5.13751 18.1483 4.88982 18.0585 4.70777C17.6559 3.89179 16.8014 3.39826 15.8934 3.45777Z" fill="#48465C"/>
</svg>
