<svg width="24" height="24" viewBox="0 0 24 24" fill="none" xmlns="http://www.w3.org/2000/svg">
<path d="M15.7954 1.9607C17.3089 1.8615 18.733 2.68438 19.4038 4.04469C19.5678 4.37712 19.676 4.78065 19.8345 5.37281C19.8419 5.4003 19.8493 5.42847 19.8569 5.4568C19.861 5.47222 19.8654 5.48813 19.8696 5.50367C19.9169 5.67922 19.9665 5.8619 19.978 6.03687C20.0243 6.74313 19.6402 7.40743 19.0054 7.72047C18.8481 7.79805 18.6654 7.84749 18.4897 7.8943C18.4741 7.89845 18.4583 7.90188 18.4429 7.90601L9.69776 10.2498H16.0522C16.9506 10.2498 17.6997 10.2499 18.2944 10.3298C18.9222 10.4142 19.4894 10.5999 19.9448 11.0554C20.4 11.5108 20.586 12.0773 20.6704 12.7048C20.7504 13.2995 20.7505 14.0496 20.7505 14.948V16.0545C20.7505 17.422 20.7498 18.5244 20.6333 19.3914C20.5123 20.2914 20.2537 21.0493 19.6519 21.6511C19.05 22.253 18.2921 22.5125 17.3921 22.6336C16.5251 22.7501 15.4227 22.7499 14.0552 22.7498H9.94483C8.5774 22.7499 7.47481 22.7501 6.60791 22.6336C5.70795 22.5125 4.94999 22.253 4.34815 21.6511C3.74641 21.0493 3.4877 20.2913 3.3667 19.3914C3.25016 18.5244 3.25047 17.422 3.25049 16.0545V11.0925C3.02466 10.2498 2.84282 9.56603 2.74463 8.99879C2.64084 8.39915 2.61562 7.85759 2.75928 7.32105C2.92965 6.68521 3.26452 6.10487 3.72998 5.63941C4.12292 5.24649 4.60483 4.99689 5.17627 4.78687C5.73061 4.58318 6.43496 4.39485 7.30811 4.1609L8.08936 3.95094C8.17675 3.90761 8.27349 3.88107 8.37451 3.87476L14.3462 2.27515C14.3534 2.27323 14.3606 2.27121 14.3677 2.2693C14.4553 2.22581 14.5525 2.19842 14.6538 2.19215C15.1274 2.06626 15.4742 1.98178 15.7954 1.9607ZM4.75049 15.9998C4.75049 17.4349 4.75153 18.4359 4.85303 19.1912C4.95165 19.9248 5.13207 20.3139 5.40869 20.5906C5.68544 20.8674 6.0744 21.0475 6.80811 21.1462C7.56346 21.2477 8.56507 21.2498 10.0005 21.2498H14.0005C15.4356 21.2498 16.4366 21.2477 17.1919 21.1462C17.9257 21.0475 18.3145 20.8674 18.5913 20.5906C18.868 20.3139 19.0483 19.9248 19.147 19.1912C19.2484 18.4359 19.2505 17.435 19.2505 15.9998V14.9998C19.2505 14.0358 19.248 13.3881 19.1831 12.905C19.121 12.444 19.0145 12.2463 18.8843 12.116C18.754 11.9856 18.5557 11.8782 18.0942 11.8162C17.6114 11.7512 16.964 11.7498 16.0005 11.7498H4.75049V15.9998ZM7.54444 5.65015C6.72751 5.86936 6.14337 6.02991 5.69385 6.19508C5.22047 6.36906 4.966 6.5245 4.79053 6.69996C4.51128 6.97921 4.31073 7.32729 4.2085 7.70875C4.14429 7.94839 4.1362 8.24614 4.22217 8.74293C4.28473 9.10432 4.389 9.53307 4.53272 10.0808L7.09815 9.39332L7.54444 5.65015ZM9.10498 5.23219L8.65869 8.97535L13.3765 7.7107L13.8228 3.96754L9.10498 5.23219ZM15.894 3.45777C15.7713 3.46582 15.6308 3.49184 15.3823 3.55348L14.937 7.29273L18.0552 6.45777C18.172 6.42646 18.2415 6.40722 18.2935 6.39137C18.3264 6.38133 18.3408 6.37613 18.3442 6.37476C18.4331 6.32995 18.4868 6.23592 18.481 6.13648C18.4804 6.13224 18.4778 6.11712 18.4702 6.08473C18.458 6.03184 18.44 5.96213 18.4087 5.84547C18.219 5.13759 18.1489 4.88982 18.0591 4.70777C17.6566 3.89167 16.802 3.39838 15.894 3.45777Z" fill="#48465C"/>
</svg>
