<svg width="24" height="24" viewBox="0 0 24 24" fill="none" xmlns="http://www.w3.org/2000/svg">
<path d="M15.7955 1.96119C17.3089 1.862 18.7331 2.68414 19.4039 4.0442C19.5679 4.3767 19.6761 4.78093 19.8346 5.3733C19.842 5.40083 19.8495 5.42894 19.8571 5.45729C19.8611 5.47255 19.8656 5.4878 19.8698 5.50319C19.9171 5.67884 19.9667 5.86229 19.9782 6.03737C20.0243 6.74352 19.6403 7.40796 19.0055 7.72096C18.8483 7.7985 18.6655 7.84703 18.4899 7.89381C18.4743 7.89796 18.4584 7.90238 18.443 7.90651L9.69692 10.2503H16.0524C16.9507 10.2503 17.6998 10.2503 18.2946 10.3303C18.9223 10.4147 19.4896 10.5995 19.945 11.0549C20.4004 11.5104 20.5861 12.0776 20.6705 12.7053C20.7505 13.2999 20.7497 14.0493 20.7497 14.9475V16.0549C20.7497 17.4225 20.7499 18.5249 20.6334 19.3919C20.5124 20.2918 20.2538 21.0498 19.652 21.6516C19.0502 22.2534 18.2922 22.512 17.3922 22.6331C16.5253 22.7497 15.4228 22.7504 14.0553 22.7503H9.94496C8.57748 22.7504 7.47497 22.7497 6.60805 22.6331C5.70807 22.5121 4.95014 22.2535 4.34828 21.6516C3.74645 21.0498 3.48786 20.2919 3.36684 19.3919C3.25028 18.5249 3.24963 17.4225 3.24965 16.0549V11.093C3.02382 10.2502 2.84198 9.56653 2.74379 8.99928C2.63995 8.39942 2.61561 7.85729 2.75942 7.32057C2.9298 6.68483 3.26473 6.10531 3.73012 5.63991C4.12306 5.24697 4.60495 4.99739 5.17641 4.78737C5.73081 4.58365 6.43497 4.3944 7.30824 4.16041L8.08949 3.95143C8.17689 3.9081 8.27363 3.88156 8.37465 3.87526L14.3463 2.27467C14.3535 2.27277 14.3608 2.2707 14.3678 2.26881C14.4552 2.22546 14.5519 2.19895 14.653 2.19264C15.1269 2.06667 15.4742 1.98227 15.7955 1.96119ZM4.74965 16.0003C4.74965 17.4355 4.75164 18.4364 4.85317 19.1917C4.95181 19.9254 5.1321 20.3144 5.40883 20.5911C5.68559 20.8679 6.07446 21.048 6.80824 21.1467C7.56352 21.2482 8.56448 21.2503 9.99965 21.2503H13.9997C15.4351 21.2503 16.4366 21.2482 17.192 21.1467C17.9258 21.048 18.3147 20.8679 18.5914 20.5911C18.8682 20.3144 19.0484 19.9254 19.1471 19.1917C19.2486 18.4364 19.2497 17.4355 19.2497 16.0003V15.0003C19.2497 14.0364 19.2481 13.3886 19.1832 12.9055C19.1212 12.4446 19.0145 12.2468 18.8844 12.1165C18.7541 11.9861 18.5559 11.8787 18.0944 11.8167C17.6114 11.7517 16.9635 11.7503 15.9997 11.7503H4.74965V16.0003ZM10.8678 13.9563C11.3636 13.6064 11.882 13.7726 12.1969 13.928C12.4921 14.0736 12.8371 14.3209 13.1989 14.5803C13.2144 14.5915 13.2302 14.6024 13.2457 14.6135C13.2597 14.6235 13.2737 14.6338 13.2877 14.6438C13.6486 14.9025 13.9874 15.1455 14.2282 15.3821C14.4982 15.6475 14.7497 16.0057 14.7497 16.5003C14.7495 16.9946 14.4981 17.3521 14.2282 17.6174C13.9875 17.854 13.6485 18.0971 13.2877 18.3557L13.2457 18.386C13.2302 18.3971 13.2144 18.4082 13.1989 18.4192C12.8372 18.6787 12.492 18.9259 12.1969 19.0715C11.8819 19.2269 11.3637 19.3932 10.8678 19.0432C10.4372 18.7393 10.3338 18.2482 10.2926 17.9046C10.2496 17.5466 10.2497 17.079 10.2497 16.5462V16.4534C10.2497 15.9205 10.2496 15.453 10.2926 15.095C10.3338 14.7514 10.4373 14.2602 10.8678 13.9563ZM11.7692 15.4124C11.7509 15.662 11.7497 16.0055 11.7497 16.5003C11.7497 16.9952 11.751 17.3385 11.7692 17.5881C11.9179 17.4911 12.1102 17.3547 12.3717 17.1672C12.7895 16.8677 13.0293 16.6927 13.1764 16.5481C13.1955 16.5294 13.2106 16.5134 13.2223 16.5003C13.2106 16.4871 13.1956 16.4712 13.1764 16.4524C13.0293 16.3078 12.7894 16.1327 12.3717 15.8333C12.1103 15.6458 11.9178 15.5093 11.7692 15.4124ZM7.54457 5.65065C6.72746 5.8699 6.14257 6.03036 5.69301 6.19557C5.21994 6.36948 4.96607 6.52505 4.79067 6.70045C4.51141 6.97972 4.31085 7.32776 4.20864 7.70924C4.14445 7.94891 4.1363 8.24655 4.22231 8.74342C4.28487 9.10481 4.38913 9.53356 4.53285 10.0813L7.09731 9.39381L7.54457 5.65065ZM9.10512 5.23268L8.65785 8.97584L13.3766 7.71119L13.8229 3.96803L9.10512 5.23268ZM15.8942 3.45827C15.7715 3.46632 15.631 3.49233 15.3825 3.55397L14.9372 7.29323L18.0553 6.45729C18.172 6.42602 18.2417 6.4077 18.2936 6.39186C18.3265 6.38182 18.341 6.37663 18.3444 6.37526C18.4333 6.33045 18.4869 6.23642 18.4811 6.13698C18.4806 6.13313 18.4781 6.11832 18.4704 6.08522C18.4582 6.03224 18.4402 5.9621 18.4088 5.84498C18.2193 5.13757 18.1489 4.89027 18.0592 4.70827C17.6568 3.89219 16.8021 3.39892 15.8942 3.45827Z" fill="#48465C"/>
</svg>
