<svg width="24" height="24" viewBox="0 0 24 24" fill="none" xmlns="http://www.w3.org/2000/svg">
<path d="M15.9998 11.0001C17.8854 11.0001 18.8281 11.0002 19.4139 11.586C19.9997 12.1718 19.9998 13.1145 19.9998 15.0001V16.0001C19.9998 18.8284 19.9996 20.2425 19.1209 21.1212C18.2422 21.9997 16.828 22.0001 13.9998 22.0001H9.9998C7.17152 22.0001 5.75737 21.9999 4.87871 21.1212C4.00005 20.2425 3.9998 18.8284 3.9998 16.0001V11.0001H15.9998ZM12.8084 15.2237C12.0033 14.6466 11.6009 14.3578 11.3006 14.5694C11.0004 14.7813 10.9998 15.3544 10.9998 16.5001C10.9998 17.6457 11.0004 18.2189 11.3006 18.4308C11.6008 18.6422 12.0035 18.3535 12.8084 17.7765C13.6027 17.2071 13.9997 16.9222 13.9998 16.5001C13.9998 16.0779 13.6027 15.7932 12.8084 15.2237ZM7.03984 9.88194C7.02759 9.98475 7.03624 10.0852 7.06328 10.1788L4.00176 10.9991C3.51804 9.19384 3.27527 8.29113 3.4832 7.51475C3.6195 7.00609 3.88818 6.54239 4.26055 6.17002C4.82896 5.60168 5.73148 5.35985 7.53691 4.87608L7.63945 4.84776L7.03984 9.88194ZM13.3182 8.2003C13.306 8.30298 13.3145 8.40369 13.3416 8.49717L8.5623 9.77744L9.1668 4.71299C9.17786 4.6203 9.17137 4.52902 9.15019 4.44346L13.9187 3.16612L13.3182 8.2003ZM15.8445 2.70909C17.0553 2.62976 18.1945 3.28791 18.7312 4.37608C18.8619 4.64108 18.9522 4.97824 19.1326 5.65147C19.1926 5.87562 19.2229 5.98782 19.2293 6.08604C19.2557 6.48955 19.0363 6.86905 18.6736 7.04795C18.5854 7.0915 18.4731 7.12164 18.2488 7.18174L14.8416 8.09483L15.4451 3.03037C15.4557 2.94178 15.4505 2.85477 15.4314 2.77256C15.5907 2.73832 15.7213 2.71717 15.8445 2.70909Z" fill="#48465C"/>
</svg>
