<svg width="24" height="24" viewBox="0 0 24 24" fill="none" xmlns="http://www.w3.org/2000/svg">
<path d="M12 2C13.3132 2.00001 14.6139 2.2582 15.8272 2.76074C17.0404 3.26329 18.1428 4.00016 19.0713 4.92871C19.9998 5.85718 20.7358 6.95978 21.2383 8.17285C21.7408 9.38611 22 10.6868 22 12C22 13.9778 21.4133 15.9112 20.3145 17.5557C19.2157 19.2001 17.6543 20.4824 15.8272 21.2393C13.9999 21.9961 11.9886 22.1935 10.0488 21.8076C8.10914 21.4217 6.32718 20.4697 4.92872 19.0713C3.53027 17.6728 2.57829 15.8909 2.19239 13.9512C1.80654 12.0114 2.00388 10.0001 2.76075 8.17285C3.51763 6.34566 4.79992 4.78433 6.44435 3.68555C8.08884 2.58673 10.0222 2 12 2ZM12.0303 7.25C11.8314 7.25 11.6406 7.32917 11.5 7.46973C11.3594 7.61038 11.2803 7.80109 11.2803 8V11.9697C11.2805 12.1686 11.3593 12.3595 11.5 12.5L14 15C14.1375 15.123 14.3155 15.1914 14.5 15.1914C14.6845 15.1914 14.8625 15.123 15 15C15.123 14.8625 15.1914 14.6845 15.1914 14.5C15.1914 14.3155 15.123 14.1375 15 14L12.7803 11.6904V8C12.7803 7.80116 12.7011 7.61036 12.5606 7.46973C12.42 7.32915 12.2291 7.25008 12.0303 7.25Z" fill="#48465C"/>
</svg>
