<svg width="24" height="24" viewBox="0 0 24 24" fill="none" xmlns="http://www.w3.org/2000/svg">
<path fill-rule="evenodd" clip-rule="evenodd" d="M11.9999 2C13.3132 2.00001 14.6139 2.2582 15.8271 2.76074C17.0403 3.26329 18.1427 4.00016 19.0712 4.92871C19.9997 5.85718 20.7357 6.95978 21.2382 8.17285C21.7408 9.38611 22 10.6868 22 12C22 13.9778 21.4132 15.9112 20.3144 17.5557C19.2156 19.2001 17.6543 20.4824 15.8271 21.2393C13.9998 21.9961 11.9886 22.1935 10.0488 21.8076C8.10908 21.4217 6.32712 20.4697 4.92866 19.0713C3.53021 17.6728 2.57822 15.8909 2.19233 13.9512C1.80648 12.0114 2.00382 10.0001 2.76069 8.17285C3.51757 6.34566 4.79986 4.78433 6.44429 3.68555C8.08878 2.58673 10.0221 2 11.9999 2ZM12.0302 7.25C11.8314 7.25 11.6406 7.32917 11.4999 7.46973C11.3593 7.61038 11.2802 7.80109 11.2802 8V11.9697C11.2804 12.1686 11.3593 12.3595 11.4999 12.5L13.9999 15C14.1375 15.123 14.3155 15.1914 14.4999 15.1914C14.6844 15.1914 14.8625 15.123 14.9999 15C15.1229 14.8625 15.1914 14.6845 15.1914 14.5C15.1914 14.3155 15.1229 14.1375 14.9999 14L12.7802 11.6904V8C12.7802 7.80116 12.701 7.61036 12.5605 7.46973C12.4199 7.32915 12.229 7.25008 12.0302 7.25Z" fill="#48465C"/>
</svg>
