<svg width="24" height="24" viewBox="0 0 24 24" fill="none" xmlns="http://www.w3.org/2000/svg">
<path d="M13.2627 4.80593C13.37 4.40616 13.7808 4.16864 14.1807 4.27566C14.5808 4.38287 14.8181 4.79451 14.7109 5.19461L10.7373 20.0247C10.6298 20.4243 10.2191 20.6618 9.81934 20.555C9.41924 20.4478 9.18186 20.0361 9.28906 19.636L13.2627 4.80593ZM6.49805 7.27273C6.80593 6.99563 7.28053 7.02052 7.55762 7.3284C7.83443 7.63621 7.80953 8.10993 7.50195 8.38699L5.80566 9.91433C5.0178 10.6234 4.48668 11.104 4.14258 11.513C3.81258 11.9053 3.74035 12.1341 3.74023 12.3294C3.74023 12.5248 3.81233 12.7542 4.14258 13.1468C4.48668 13.5557 5.01782 14.0363 5.80566 14.7454L7.50195 16.2727C7.8095 16.5498 7.83447 17.0235 7.55762 17.3313C7.28053 17.6392 6.80593 17.6641 6.49805 17.387L4.76074 15.8235C4.02443 15.1608 3.41354 14.6111 2.99414 14.1126C2.55315 13.5883 2.23926 13.0246 2.23926 12.3294C2.23939 11.6343 2.55327 11.0712 2.99414 10.5471C3.41353 10.0486 4.02445 9.49882 4.76074 8.83621L6.49805 7.27273ZM16.4424 7.3284C16.7195 7.02052 17.1941 6.99563 17.502 7.27273L19.2393 8.83621C19.9756 9.49883 20.5865 10.0486 21.0059 10.5471C21.4467 11.0712 21.7606 11.6343 21.7607 12.3294C21.7607 13.0247 21.4468 13.5883 21.0059 14.1126C20.5865 14.6112 19.9756 15.1608 19.2393 15.8235L17.502 17.387C17.1941 17.6641 16.7195 17.6392 16.4424 17.3313C16.1656 17.0235 16.1905 16.5498 16.498 16.2727L18.1943 14.7454C18.9822 14.0363 19.5143 13.5558 19.8584 13.1468C20.1884 12.7544 20.2607 12.5247 20.2607 12.3294C20.2606 12.1341 20.1881 11.905 19.8584 11.513C19.5143 11.104 18.9822 10.6235 18.1943 9.91433L16.498 8.38699C16.1905 8.10993 16.1656 7.63619 16.4424 7.3284Z" fill="#48465C"/>
</svg>
