<svg width="24" height="24" viewBox="0 0 24 24" fill="none" xmlns="http://www.w3.org/2000/svg">
<path d="M13.2627 4.8065C13.3699 4.40641 13.7806 4.16905 14.1807 4.27622C14.5807 4.38342 14.8181 4.79412 14.7109 5.19419L10.7373 20.0243C10.6299 20.4241 10.2192 20.6615 9.81934 20.5545C9.41924 20.4473 9.18186 20.0357 9.28906 19.6356L13.2627 4.8065ZM6.49805 7.27232C6.80593 6.99522 7.28053 7.0201 7.55762 7.32798C7.83464 7.63587 7.80981 8.11047 7.50195 8.38755L5.80566 9.91392C5.0179 10.6229 4.48668 11.1036 4.14258 11.5126C3.81233 11.9052 3.74023 12.1345 3.74023 12.3299C3.7403 12.5253 3.81247 12.7549 4.14258 13.1473C4.48669 13.5562 5.01809 14.0362 5.80566 14.745L7.50195 16.2723C7.80957 16.5493 7.83437 17.0231 7.55762 17.3309C7.28055 17.6388 6.80593 17.6646 6.49805 17.3876L4.76074 15.8231C4.02449 15.1605 3.41352 14.6106 2.99414 14.1122C2.55328 13.588 2.24031 13.025 2.24023 12.3299C2.24023 11.6346 2.55311 11.0709 2.99414 10.5467C3.41355 10.0481 4.02441 9.49844 4.76074 8.83579L6.49805 7.27232ZM16.4424 7.32798C16.7195 7.0201 17.1941 6.99522 17.502 7.27232L19.2393 8.83579C19.9756 9.49842 20.5865 10.0481 21.0059 10.5467C21.4469 11.0709 21.7607 11.6346 21.7607 12.3299C21.7607 13.025 21.4467 13.588 21.0059 14.1122C20.5865 14.6107 19.9756 15.1605 19.2393 15.8231L17.502 17.3876C17.1941 17.6646 16.7195 17.6388 16.4424 17.3309C16.1657 17.0231 16.1905 16.5493 16.498 16.2723L18.1943 14.745C18.9822 14.0359 19.5143 13.5563 19.8584 13.1473C20.1886 12.7549 20.2607 12.5253 20.2607 12.3299C20.2607 12.1346 20.1885 11.905 19.8584 11.5126C19.5143 11.1036 18.9822 10.623 18.1943 9.91392L16.498 8.38755C16.1902 8.11048 16.1654 7.63587 16.4424 7.32798Z" fill="#48465C"/>
</svg>
