<svg width="24" height="24" viewBox="0 0 24 24" fill="none" xmlns="http://www.w3.org/2000/svg">
<path fill-rule="evenodd" clip-rule="evenodd" d="M16.3221 1.62187C18.1496 1.13742 19.6775 1.04302 20.867 1.85137C21.3712 2.19401 21.8066 2.6284 22.1492 3.13262C22.9577 4.32224 22.8633 5.85089 22.3787 7.67851C21.8904 9.52038 20.9333 11.9143 19.6932 15.0145L19.6707 15.0682C19.6537 15.1108 19.6375 15.1535 19.6209 15.1951C19.133 16.4157 18.8188 17.1997 18.2713 17.824C18.1321 17.9827 17.9827 18.1321 17.824 18.2713C17.1997 18.8188 16.4157 19.133 15.1951 19.6209C15.1535 19.6375 15.1108 19.6537 15.0682 19.6707L15.0145 19.6932C11.9143 20.9333 9.52039 21.8904 7.67851 22.3787C5.85089 22.8633 4.32224 22.9577 3.13262 22.1492C2.6284 21.8066 2.19401 21.3712 1.85137 20.867C1.04302 19.6775 1.13742 18.1496 1.62187 16.3221C2.11017 14.4802 3.06733 12.0864 4.30742 8.98613L4.3289 8.93144C4.34592 8.8889 4.36308 8.847 4.37969 8.80547C4.86749 7.58509 5.18106 6.8008 5.72832 6.17656C5.86756 6.01778 6.01778 5.86756 6.17656 5.72832C6.8008 5.18106 7.58509 4.8675 8.80547 4.37969C8.847 4.36309 8.88889 4.34592 8.93144 4.3289L8.98613 4.30742C12.0864 3.06733 14.4802 2.11017 16.3221 1.62187ZM20.0242 3.0916C19.4168 2.67891 18.4735 2.60247 16.7059 3.07109C14.9631 3.53311 12.6546 4.45529 9.48906 5.72148C8.09816 6.27784 7.57217 6.49905 7.16484 6.85625C7.05535 6.95226 6.95226 7.05536 6.85625 7.16484C6.49905 7.57217 6.27784 8.09815 5.72148 9.48906C4.45529 12.6546 3.53311 14.9631 3.07109 16.7059C2.60247 18.4735 2.67891 19.4168 3.0916 20.0242C3.328 20.3721 3.62849 20.6726 3.97637 20.909C4.58376 21.3214 5.52744 21.3971 7.29472 20.9285C9.03746 20.4665 11.3461 19.5443 14.5115 18.2781C15.9023 17.7219 16.4275 17.5005 16.8348 17.1434C16.9442 17.0474 17.0474 16.9442 17.1434 16.8348C17.5005 16.4275 17.7219 15.9023 18.2781 14.5115C19.5443 11.3461 20.4665 9.03746 20.9285 7.29472C21.3971 5.52744 21.3214 4.58376 20.909 3.97637C20.6726 3.62849 20.3721 3.328 20.0242 3.0916ZM11.9998 8.2498C14.0708 8.2498 15.7496 9.92887 15.7498 11.9998C15.7498 14.0709 14.0709 15.7498 11.9998 15.7498C9.92887 15.7496 8.2498 14.0708 8.2498 11.9998C8.24997 9.92897 9.92897 8.24997 11.9998 8.2498ZM11.9998 9.7498C10.7574 9.74997 9.74997 10.7574 9.7498 11.9998C9.7498 13.2423 10.7572 14.2496 11.9998 14.2498C13.2424 14.2498 14.2498 13.2424 14.2498 11.9998C14.2496 10.7572 13.2423 9.7498 11.9998 9.7498Z" fill="#48465C"/>
</svg>
