<svg width="24" height="24" viewBox="0 0 24 24" fill="none" xmlns="http://www.w3.org/2000/svg">
<path fill-rule="evenodd" clip-rule="evenodd" d="M9.20979 5.02546C15.5021 2.50852 18.6491 1.25059 20.4461 2.47175C20.872 2.76123 21.2397 3.12885 21.5291 3.55476C22.7499 5.35186 21.4912 8.49823 18.9744 14.7901C18.4376 16.1322 18.1695 16.8038 17.7078 17.3301C17.5903 17.4643 17.464 17.5905 17.3299 17.7081C16.8035 18.1698 16.132 18.4378 14.7899 18.9747C8.49799 21.4914 5.35162 22.7501 3.55451 21.5294C3.1286 21.24 2.76099 20.8722 2.47151 20.4464C1.25035 18.6494 2.50828 15.5024 5.02522 9.21003C5.56202 7.86804 5.83114 7.19741 6.2928 6.67097C6.4104 6.53686 6.53662 6.41065 6.67073 6.29304C7.19717 5.83139 7.86779 5.56226 9.20979 5.02546ZM11.9998 8.25007C9.92885 8.25014 8.24989 9.9291 8.24983 12.0001C8.24983 14.0711 9.92881 15.75 11.9998 15.7501C14.0709 15.7501 15.7498 14.0712 15.7498 12.0001C15.7498 9.92906 14.0709 8.25007 11.9998 8.25007ZM11.9998 9.75007C13.2424 9.75007 14.2498 10.7575 14.2498 12.0001C14.2498 13.2427 13.2424 14.2501 11.9998 14.2501C10.7573 14.25 9.74983 13.2426 9.74983 12.0001C9.74989 10.7576 10.7573 9.75014 11.9998 9.75007Z" fill="#48465C"/>
</svg>
