<svg width="24" height="24" viewBox="0 0 24 24" fill="none" xmlns="http://www.w3.org/2000/svg">
<path d="M16.322 1.62188C18.1495 1.13743 19.6774 1.04301 20.8669 1.85137C21.3712 2.19402 21.8065 2.6284 22.1491 3.13262C22.9576 4.32225 22.8632 5.85089 22.3786 7.67852C21.8903 9.52039 20.9332 11.9143 19.6931 15.0145L19.6706 15.0682C19.6536 15.1108 19.6374 15.1535 19.6208 15.1951C19.1329 16.4157 18.8187 17.1997 18.2712 17.824C18.1321 17.9827 17.9827 18.1322 17.8239 18.2713C17.1996 18.8188 16.4156 19.133 15.195 19.6209C15.1534 19.6375 15.1107 19.6537 15.0681 19.6707L15.0144 19.6932C11.9142 20.9333 9.5203 21.8904 7.67842 22.3787C5.85079 22.8633 4.32216 22.9577 3.13252 22.1492C2.6283 21.8066 2.19392 21.3713 1.85127 20.867C1.04291 19.6775 1.13733 18.1496 1.62178 16.3221C2.11008 14.4802 3.06724 12.0864 4.30733 8.98614L4.32881 8.93145C4.34583 8.8889 4.36299 8.84701 4.37959 8.80547C4.8675 7.58484 5.18076 6.79989 5.72823 6.17559C5.86738 6.01692 6.01682 5.86748 6.17549 5.72833C6.79979 5.18086 7.58474 4.86761 8.80537 4.37969C8.84691 4.36309 8.8888 4.34593 8.93135 4.32891L8.98604 4.30743C12.0863 3.06734 14.4801 2.11018 16.322 1.62188ZM20.0241 3.09161C19.4167 2.6789 18.4734 2.60247 16.7058 3.0711C14.963 3.53311 12.6545 4.4553 9.48897 5.72149C8.09807 6.27785 7.57208 6.49905 7.16475 6.85625C7.05526 6.95227 6.95217 7.05537 6.85616 7.16485C6.49896 7.57218 6.27775 8.09816 5.72139 9.48907C4.4552 12.6546 3.53301 14.9631 3.071 16.7059C2.60237 18.4735 2.6788 19.4168 3.09151 20.0242C3.32791 20.3721 3.62839 20.6726 3.97627 20.909C4.58362 21.3214 5.52666 21.397 7.29366 20.9285C9.03645 20.4665 11.3457 19.5444 14.5114 18.2781C15.9022 17.7219 16.4274 17.5005 16.8347 17.1434C16.9441 17.0474 17.0473 16.9442 17.1433 16.8348C17.5005 16.4275 17.7218 15.9023 18.278 14.5115C19.5443 11.3458 20.4664 9.03654 20.9284 7.29375C21.3969 5.52676 21.3213 4.58372 20.9089 3.97637C20.6725 3.62849 20.372 3.32801 20.0241 3.09161ZM11.9997 8.24981C14.0707 8.24981 15.7496 9.92886 15.7497 11.9998C15.7497 14.0709 14.0708 15.7498 11.9997 15.7498C9.92876 15.7497 8.24971 14.0708 8.24971 11.9998C8.24987 9.92896 9.92886 8.24997 11.9997 8.24981ZM11.9997 9.74981C10.7572 9.74997 9.74987 10.7573 9.74971 11.9998C9.74971 13.2423 10.7571 14.2497 11.9997 14.2498C13.2423 14.2498 14.2497 13.2424 14.2497 11.9998C14.2496 10.7572 13.2422 9.74981 11.9997 9.74981Z" fill="#48465C"/>
</svg>
