<svg width="24" height="24" viewBox="0 0 24 24" fill="none" xmlns="http://www.w3.org/2000/svg">
<path d="M9.21007 5.0255C15.5018 2.50879 18.6483 1.25023 20.4454 2.47081C20.8715 2.76034 21.2399 3.12872 21.5294 3.5548C22.75 5.35192 21.4914 8.49841 18.9747 14.7901C18.438 16.1319 18.1696 16.8029 17.7081 17.3292C17.5905 17.4634 17.4634 17.5905 17.3292 17.7081C16.8029 18.1696 16.1319 18.438 14.7901 18.9747C8.49841 21.4914 5.35192 22.75 3.5548 21.5294C3.12872 21.2399 2.76035 20.8715 2.47081 20.4454C1.25023 18.6483 2.50879 15.5018 5.0255 9.21007C5.56217 7.8684 5.83067 7.19739 6.2921 6.67101C6.40974 6.53686 6.53686 6.40974 6.67101 6.2921C7.19739 5.83067 7.8684 5.56217 9.21007 5.0255ZM12.0001 8.25011C9.92905 8.25012 8.25012 9.92905 8.25011 12.0001C8.25011 14.0712 9.92905 15.7501 12.0001 15.7501C14.0712 15.7501 15.7501 14.0712 15.7501 12.0001C15.7501 9.92905 14.0712 8.25011 12.0001 8.25011ZM12.0001 9.75011C13.2427 9.75011 14.2501 10.7575 14.2501 12.0001C14.2501 13.2427 13.2427 14.2501 12.0001 14.2501C10.7575 14.2501 9.75011 13.2427 9.75011 12.0001C9.75012 10.7575 10.7575 9.75012 12.0001 9.75011Z" fill="#48465C"/>
</svg>
