<svg width="24" height="24" viewBox="0 0 24 24" fill="none" xmlns="http://www.w3.org/2000/svg">
<path d="M7.58494 6.3029C8.36006 6.11999 9.033 6.43594 9.63866 6.88493C10.225 7.31962 10.9001 7.99402 11.7187 8.81266L15.1865 12.2804C16.0052 13.0991 16.6795 13.7741 17.1142 14.3605C17.5632 14.9662 17.88 15.6392 17.6972 16.4142C17.5142 17.1895 16.9294 17.6504 16.2568 17.9914C15.6058 18.3214 14.7008 18.6233 13.6025 18.9894L8.41209 20.7189C7.08223 21.1622 6.00281 21.5223 5.166 21.6711C4.32172 21.8213 3.46509 21.8061 2.82908 21.1701C2.19312 20.5341 2.17795 19.6774 2.32811 18.8332C2.47696 17.9964 2.83693 16.917 3.28026 15.5871L5.00975 10.3966C5.37582 9.2983 5.67779 8.39338 6.0078 7.74235C6.34877 7.06973 6.80964 6.48593 7.58494 6.3029ZM6.95408 9.35368C6.79577 9.78404 6.62201 10.304 6.41307 10.9308L4.72362 15.9992C4.25467 17.406 3.93192 18.3806 3.80467 19.0959C3.67657 19.8163 3.79587 20.0158 3.88963 20.1095C3.98339 20.2033 4.18285 20.3226 4.9033 20.1945C5.49369 20.0895 6.26094 19.8517 7.30174 19.508C7.28388 19.4285 7.25949 19.318 7.23045 19.1838C7.16766 18.8934 7.08282 18.4876 6.99412 18.0246C6.81825 17.1064 6.62069 15.9308 6.55858 14.9836C6.45594 13.4182 6.65498 11.4591 6.8701 9.92594C6.89782 9.72847 6.92614 9.53719 6.95408 9.35368ZM8.65721 8.25309C8.57222 8.72469 8.4617 9.38466 8.35643 10.1349C8.14382 11.6502 7.9636 13.4821 8.05565 14.8859C8.11141 15.7358 8.29305 16.8354 8.46678 17.7423C8.55281 18.1914 8.63536 18.5857 8.69627 18.8673C8.70925 18.9274 8.72157 18.9822 8.73241 19.0314L11.3672 18.1535C11.2979 17.948 11.2146 17.6832 11.1318 17.3752C10.9328 16.6354 10.7276 15.6179 10.7275 14.5558C10.7275 13.4406 10.932 12.4227 11.1328 11.6906C11.2338 11.3227 11.335 11.0219 11.4121 10.8107C11.43 10.7616 11.4468 10.7173 11.4619 10.6779L10.7021 9.91813C9.82812 9.04415 9.23213 8.45042 8.74608 8.09C8.72868 8.07711 8.71102 8.06488 8.69432 8.0529C8.68283 8.11506 8.67003 8.18197 8.65721 8.25309ZM12.5791 12.0881C12.4009 12.7375 12.2275 13.6159 12.2275 14.5558C12.2276 15.1743 12.3119 15.7904 12.4248 16.3341C12.473 16.5661 12.5262 16.7853 12.5801 16.9855C12.6544 17.262 12.7291 17.4983 12.79 17.6789L13.0683 17.5861C14.2411 17.1952 15.0393 16.9271 15.5791 16.6535C16.1088 16.3849 16.2064 16.2005 16.2373 16.0695C16.2681 15.9386 16.2624 15.7306 15.9092 15.2541C15.5488 14.768 14.9551 14.1712 14.081 13.297L12.6445 11.8605C12.623 11.9323 12.6009 12.0085 12.5791 12.0881ZM19.0586 15.3136C19.2681 15.1044 19.6069 15.1044 19.8164 15.3136C20.0259 15.5231 20.0259 15.8629 19.8164 16.0724C19.607 16.2814 19.268 16.2814 19.0586 16.0724C18.8492 15.8629 18.8492 15.5231 19.0586 15.3136ZM19.3359 12.6076C20.0687 11.9578 21.1124 11.7933 22.0097 12.1857L22.3008 12.3127C22.6803 12.4786 22.8532 12.9205 22.6875 13.3C22.5215 13.6795 22.0797 13.8526 21.7002 13.6867L21.4082 13.5597C21.0466 13.4018 20.6263 13.4679 20.331 13.7297C19.5217 14.4473 18.3439 14.5664 17.4072 14.0256L17.1943 13.9025C16.8358 13.6953 16.7129 13.2367 16.9199 12.8781C17.127 12.5197 17.5857 12.3968 17.9443 12.6037L18.1572 12.7267C18.5347 12.9447 19.0097 12.8969 19.3359 12.6076ZM17.1572 10.1574C17.3667 9.9479 17.7065 9.9479 17.916 10.1574C18.1252 10.3668 18.1253 10.7068 17.916 10.9162C17.7066 11.1255 17.3667 11.1254 17.1572 10.9162C16.9477 10.7068 16.9477 10.3668 17.1572 10.1574ZM19.0078 7.36051C19.4749 6.89346 20.1043 6.72089 20.6582 6.97672C21.0782 7.17083 21.3512 7.56389 21.4541 8.04606C21.9364 8.14899 22.3293 8.42276 22.5234 8.84293C22.7789 9.39669 22.6066 10.0254 22.1396 10.4923C21.8689 10.7632 21.5057 10.886 21.1826 10.9435C20.8521 11.0023 20.5024 11.0031 20.1963 10.9836C19.887 10.9638 19.6024 10.9218 19.3974 10.8849C19.2946 10.8665 19.2098 10.849 19.1504 10.8361L19.1045 10.8254L19.081 10.8205L19.0605 10.8156L19.0547 10.8146L19.0527 10.8136C19.0529 10.8125 19.0576 10.7901 19.1719 10.3283L19.0517 10.8136C18.8719 10.769 18.7312 10.6282 18.6865 10.4484V10.4455L18.6846 10.4396L18.6797 10.4201C18.6758 10.4034 18.6705 10.3795 18.664 10.3498C18.6511 10.2902 18.6337 10.2057 18.6152 10.1027C18.5784 9.89779 18.5364 9.61398 18.5166 9.30485C18.497 8.99876 18.4979 8.64908 18.5566 8.31852C18.6141 7.99525 18.7369 7.63139 19.0078 7.36051ZM16.8066 5.31071C16.8878 4.90454 17.2832 4.64061 17.6894 4.72184C18.0955 4.80317 18.3586 5.19855 18.2773 5.60465L18.1338 6.32438C17.9356 7.31519 17.2213 8.12399 16.2627 8.44352C15.8149 8.59289 15.4812 8.97086 15.3887 9.43375L15.2451 10.1535C15.1639 10.5597 14.7685 10.8226 14.3623 10.7414C13.9563 10.6601 13.6932 10.2656 13.7744 9.85954L13.918 9.13981C14.1161 8.14899 14.8304 7.34019 15.789 7.02067C16.2367 6.87131 16.5704 6.49324 16.6631 6.03043L16.8066 5.31071ZM20.2383 7.88493C20.1495 7.844 19.9574 7.82502 19.7148 8.06754C19.6505 8.13179 19.5819 8.26369 19.541 8.49332C19.5016 8.71539 19.4978 8.97719 19.5146 9.2404C19.5306 9.49074 19.5643 9.72643 19.5957 9.90446C19.7737 9.93585 20.0094 9.96948 20.2597 9.98551C20.5229 10.0023 20.7847 9.99858 21.0068 9.95915C21.2364 9.91831 21.3684 9.84958 21.4326 9.78532C21.6753 9.54262 21.6562 9.35057 21.6152 9.26188C21.5707 9.16551 21.4114 8.99917 21.0019 9.00016C20.8688 9.00052 20.7406 8.94777 20.6465 8.85368C20.5525 8.75968 20.4998 8.63206 20.5 8.49918C20.5011 8.08937 20.3347 7.92945 20.2383 7.88493ZM12.1572 7.15739C12.3667 6.94792 12.7065 6.94792 12.916 7.15739C13.1252 7.36687 13.1253 7.70677 12.916 7.91618C12.7066 8.12552 12.3667 8.1254 12.1572 7.91618C11.9477 7.70671 11.9477 7.36686 12.1572 7.15739ZM9.15526 2.38786C9.37136 2.03465 9.83319 1.92381 10.1865 2.13981C10.5395 2.35592 10.6505 2.81683 10.4346 3.17008C10.2778 3.42654 10.3177 3.75735 10.5303 3.96989L10.6279 4.06754C11.2166 4.65619 11.4333 5.52164 11.1924 6.31852C11.0723 6.7147 10.6541 6.93922 10.2578 6.8195C9.86127 6.69965 9.63697 6.28045 9.75682 5.88395C9.83763 5.61641 9.76499 5.32572 9.56737 5.12809L9.46971 5.03043C8.76719 4.32791 8.63705 3.23552 9.15526 2.38786ZM13.1601 2.05778C13.4249 1.91865 13.6768 1.99191 13.8262 2.0568C13.9586 2.11433 14.1075 2.20857 14.2461 2.29606L14.3486 2.36051L14.4746 2.32536C14.6381 2.27882 14.8098 2.22915 14.9531 2.21012C15.1048 2.19 15.3817 2.18079 15.6015 2.40055C15.8212 2.62031 15.8111 2.89733 15.791 3.04899C15.7719 3.19222 15.7233 3.3641 15.6767 3.5275L15.6406 3.65348L15.706 3.75602C15.7935 3.89448 15.8877 4.04365 15.9453 4.17594C16.0101 4.32537 16.0834 4.57738 15.9443 4.84196C15.8079 5.10154 15.5638 5.1874 15.4082 5.22282C15.2667 5.255 15.0892 5.26833 14.9209 5.28141L14.793 5.29118L14.7832 5.29215L14.6904 5.40348C14.5809 5.53672 14.4675 5.67551 14.3603 5.7736C14.2468 5.87748 14.0333 6.03771 13.7363 5.99723C13.4289 5.95514 13.2686 5.73204 13.1914 5.59293C13.1217 5.46705 13.0608 5.30094 13.0039 5.14665L12.9639 5.03825L12.8545 4.99821C12.7 4.94122 12.534 4.87956 12.4082 4.80973C12.2691 4.7325 12.0469 4.57288 12.0049 4.26579C11.9643 3.96869 12.1246 3.75535 12.2285 3.64176C12.3267 3.53456 12.4644 3.42031 12.5976 3.31071L12.7099 3.21891V3.20817L12.7207 3.08122C12.7338 2.91288 12.7471 2.73547 12.7793 2.59391C12.8146 2.43835 12.9004 2.1943 13.1601 2.05778ZM6.92772 3.94059C7.13721 3.73136 7.47711 3.73121 7.68651 3.94059C7.8959 4.14998 7.89575 4.48989 7.68651 4.69938C7.47704 4.90885 7.13719 4.90885 6.92772 4.69938C6.71825 4.48991 6.71825 4.15006 6.92772 3.94059ZM13.707 3.28629L13.706 3.30778C13.7007 3.38706 13.6897 3.54722 13.6133 3.69254C13.538 3.83588 13.4134 3.93587 13.3506 3.98649L13.334 4.00016L13.2431 4.07536L13.3203 4.10368L13.3398 4.11051C13.4116 4.13592 13.5695 4.19259 13.6894 4.31266C13.8094 4.43267 13.8653 4.59051 13.8906 4.66227L13.8984 4.6818L13.9267 4.75895L14.001 4.66813L14.0156 4.65055C14.0664 4.58758 14.1665 4.46404 14.3096 4.38883C14.4549 4.31246 14.6151 4.30138 14.6943 4.29606L14.7158 4.29411L14.8564 4.28336L14.793 4.18278L14.7812 4.1652C14.7394 4.10082 14.6498 3.96226 14.6269 3.79508C14.6045 3.63132 14.6514 3.47399 14.6738 3.3986L14.6797 3.37809L14.7021 3.29997L14.624 3.32243L14.6035 3.32829C14.5281 3.3507 14.3707 3.39759 14.207 3.37516C14.0395 3.35223 13.9012 3.26162 13.8369 3.21989L13.8193 3.20915L13.7187 3.14567L13.707 3.28629Z" fill="#48465C"/>
</svg>
