<svg width="24" height="24" viewBox="0 0 24 24" fill="none" xmlns="http://www.w3.org/2000/svg">
<path d="M7.31925 7.2582C7.31204 7.29406 7.30108 7.34625 7.288 7.41347C7.26173 7.54846 7.22537 7.74452 7.18155 7.98769C7.09397 8.47366 6.97858 9.15253 6.87003 9.92617C6.65489 11.4593 6.45587 13.4184 6.5585 14.9838C6.62062 15.9311 6.81817 17.1066 6.99405 18.0248C7.08274 18.4878 7.16759 18.8936 7.23038 19.184C7.26179 19.3292 7.28742 19.4462 7.30557 19.5268L7.32706 19.6205L7.47159 20.2416C5.21003 20.9872 4.01844 21.2991 3.35929 20.64C2.62958 19.9101 3.08987 18.5274 4.01163 15.7621L5.70108 10.6937C6.3331 8.79769 6.70457 7.68367 7.32413 7.23183L7.31925 7.2582ZM8.8505 7.25918C9.46322 7.61854 10.1888 8.3445 11.2323 9.38808L11.7353 9.89101L11.5224 10.5307L11.5136 10.559C11.5075 10.5776 11.4981 10.6047 11.4872 10.6391C11.4653 10.7078 11.4351 10.8072 11.3983 10.9301C11.3248 11.1758 11.227 11.5195 11.1288 11.9125C10.9367 12.6817 10.7274 13.7043 10.7274 14.5561C10.7275 15.4077 10.9368 16.4296 11.1288 17.1986C11.227 17.5918 11.3247 17.9363 11.3983 18.182C11.435 18.3046 11.4654 18.4033 11.4872 18.4721C11.4981 18.5063 11.5075 18.5335 11.5136 18.5521L11.6161 18.8617L8.90128 19.766L8.79386 19.307L8.78897 19.2846L8.76944 19.1977C8.75213 19.1209 8.72661 19.0081 8.6962 18.8676C8.6353 18.586 8.55272 18.1916 8.46671 17.7426C8.29298 16.8357 8.11134 15.736 8.05557 14.8861C7.96352 13.4823 8.14276 11.6496 8.35538 10.1342C8.46065 9.38409 8.57216 8.72483 8.65714 8.25332C8.69957 8.01781 8.73558 7.82943 8.76065 7.70058C8.77318 7.63616 8.7833 7.58622 8.78995 7.55312L8.79776 7.51601L8.79874 7.50722L8.79972 7.50429L8.8505 7.25918ZM14.6112 12.767C16.3239 14.4798 17.1806 15.3363 16.9667 16.2426C16.7528 17.1488 15.6037 17.5322 13.3056 18.2982L13.039 18.3871L12.9462 18.1098L12.9452 18.1059L12.9394 18.0883C12.9344 18.0728 12.9266 18.0495 12.9169 18.0189C12.8973 17.9571 12.8691 17.8658 12.8349 17.7514C12.7663 17.5223 12.6753 17.2012 12.5839 16.8353C12.3969 16.0867 12.2265 15.2139 12.2265 14.5561C12.2265 13.8981 12.3969 13.0246 12.5839 12.2758C12.6753 11.91 12.7663 11.5889 12.8349 11.3598C12.8691 11.2454 12.8973 11.154 12.9169 11.0922L12.9218 11.0775L14.6112 12.767ZM19.0575 15.3139C19.2669 15.1044 19.6069 15.1044 19.8163 15.3139C20.0258 15.5234 20.0258 15.8632 19.8163 16.0727C19.6069 16.2819 19.2669 16.282 19.0575 16.0727C18.8482 15.8632 18.8483 15.5234 19.0575 15.3139ZM19.3358 12.6078C20.0686 11.9581 21.1123 11.7936 22.0097 12.1859L22.3007 12.3129C22.6802 12.4788 22.8534 12.9216 22.6874 13.3012C22.5214 13.6804 22.0795 13.8527 21.7001 13.6869L21.4081 13.56C21.0466 13.402 20.6263 13.4682 20.331 13.7299C19.5217 14.4475 18.3438 14.5666 17.4071 14.0258L17.1942 13.9037C16.8355 13.6966 16.7127 13.237 16.9198 12.8783C17.127 12.52 17.5857 12.397 17.9442 12.6039L18.1571 12.7269C18.5346 12.9448 19.0096 12.8971 19.3358 12.6078ZM17.1571 10.1576C17.3666 9.94815 17.7064 9.94812 17.9159 10.1576C18.1252 10.367 18.1253 10.707 17.9159 10.9164C17.7065 11.1258 17.3666 11.1257 17.1571 10.9164C16.9476 10.7069 16.9476 10.367 17.1571 10.1576ZM19.0077 7.36074C19.4748 6.89365 20.1042 6.72111 20.6581 6.97695C21.0783 7.171 21.3511 7.56408 21.454 8.04628C21.9363 8.14921 22.3292 8.42298 22.5233 8.84316C22.7791 9.39699 22.6066 10.0255 22.1396 10.4926C21.8687 10.7634 21.5058 10.8862 21.1825 10.9437C20.8519 11.0025 20.5024 11.0034 20.1962 10.9838C19.8871 10.964 19.6033 10.9219 19.3983 10.8852C19.2955 10.8667 19.2109 10.8493 19.1513 10.8363C19.1216 10.8299 19.0976 10.8246 19.081 10.8207L19.0536 10.8139H19.0526C18.8728 10.7694 18.7253 10.6003 18.6806 10.4203C18.6767 10.4036 18.6705 10.3798 18.664 10.35C18.6511 10.2904 18.6336 10.2059 18.6151 10.1029C18.5783 9.89793 18.5363 9.61424 18.5165 9.30507C18.4969 8.99896 18.4978 8.64932 18.5566 8.31875C18.6141 7.99548 18.7368 7.63162 19.0077 7.36074ZM16.8066 5.30996C16.888 4.904 17.2833 4.64085 17.6894 4.72207C18.0952 4.80349 18.3584 5.19885 18.2773 5.60488L18.1337 6.3246C17.9356 7.31537 17.2212 8.12423 16.2626 8.44375C15.8148 8.59309 15.4812 8.97104 15.3886 9.43398L15.245 10.1537C15.1638 10.5598 14.7683 10.8227 14.3622 10.7416C13.9562 10.6603 13.6924 10.2657 13.7733 9.85976L13.9179 9.13906C14.1162 8.14847 14.8296 7.33944 15.788 7.01992C16.2357 6.87067 16.5693 6.49342 16.662 6.03066L16.8066 5.30996ZM12.1571 7.15761C12.3666 6.94817 12.7064 6.94816 12.9159 7.15761C13.1251 7.3671 13.1253 7.70699 12.9159 7.9164C12.7065 8.1258 12.3667 8.12567 12.1571 7.9164C11.9476 7.70693 11.9476 7.36708 12.1571 7.15761ZM9.15518 2.38808C9.37133 2.03496 9.83313 1.92406 10.1864 2.14003C10.5395 2.3562 10.6504 2.81802 10.4345 3.17128C10.278 3.42767 10.3178 3.7577 10.5302 3.97011L10.6278 4.06777C11.2165 4.65643 11.4331 5.52187 11.1923 6.31875C11.0723 6.71493 10.654 6.93934 10.2577 6.81972C9.86126 6.69987 9.6369 6.28067 9.75675 5.88418C9.8375 5.61667 9.76489 5.32592 9.56729 5.12832L9.46866 5.03066C8.76644 4.32813 8.63706 3.23561 9.15518 2.38808ZM13.1601 2.058C13.4247 1.91891 13.6767 1.99215 13.8261 2.05703C13.9585 2.11454 14.1075 2.20881 14.246 2.29628L14.3485 2.36074L14.4745 2.32558C14.6381 2.27907 14.8098 2.23037 14.953 2.21132C15.1047 2.1912 15.3817 2.18103 15.6015 2.40078C15.8212 2.62055 15.811 2.89753 15.7909 3.04921C15.7718 3.19246 15.7232 3.36431 15.6767 3.52773L15.6415 3.65371L15.706 3.75625C15.7934 3.89473 15.8877 4.04384 15.9452 4.17617C16.0101 4.32558 16.0833 4.57755 15.9442 4.84218C15.8078 5.10182 15.5637 5.18764 15.4081 5.22304C15.2666 5.25522 15.0891 5.26856 14.9208 5.28164L14.7939 5.2914L14.7831 5.29238L14.6913 5.40468C14.5818 5.53792 14.4675 5.67573 14.3603 5.77382C14.2467 5.87772 14.0333 6.03799 13.7362 5.99746C13.4292 5.95542 13.2696 5.73328 13.1923 5.59414C13.1225 5.46828 13.0608 5.30225 13.0038 5.14785L12.9638 5.03847L12.8544 4.99843C12.7001 4.94149 12.5349 4.87972 12.4091 4.80996C12.27 4.73282 12.0469 4.57341 12.0048 4.26601C11.9643 3.96897 12.1245 3.75556 12.2284 3.64199C12.3265 3.53478 12.4643 3.42055 12.5976 3.31093L12.7099 3.21914L12.7108 3.20839L12.7206 3.08144C12.7337 2.9131 12.747 2.73569 12.7792 2.59414C12.8145 2.43858 12.9004 2.19451 13.1601 2.058ZM6.92765 3.94082C7.13713 3.73163 7.47705 3.73147 7.68643 3.94082C7.89581 4.15018 7.89563 4.49011 7.68643 4.6996C7.47696 4.90907 7.13712 4.90907 6.92765 4.6996C6.71821 4.49013 6.71819 4.15026 6.92765 3.94082Z" fill="#48465C"/>
</svg>
