<svg width="24" height="24" viewBox="0 0 24 24" fill="none" xmlns="http://www.w3.org/2000/svg">
<path d="M10.5176 2.64148C11.3729 1.78617 12.76 1.78617 13.6153 2.64148L19.3565 8.38269C17.7508 8.59978 16.4762 9.86154 16.2393 11.4608L14.9199 10.1405L13.5957 11.4647C13.4828 11.5777 13.4621 11.7534 13.5459 11.8895L14.1914 12.9393C14.9288 14.1376 13.4991 15.4879 12.3447 14.6835L7.72658 11.4657L12.6709 18.5595C13.4813 19.7221 12.1075 21.156 10.9111 20.3964L4.79494 16.5126L5.44435 17.8837C5.77787 18.5878 5.63389 19.4255 5.08205 19.9774L2.53029 22.5302C2.23747 22.8229 1.76261 22.8228 1.46974 22.5302C1.17688 22.2373 1.17695 21.7625 1.46974 21.4696L4.0215 18.9169C4.12408 18.8143 4.15146 18.6586 4.08888 18.5262L3.13967 16.5223C2.58281 15.3467 3.90971 14.1739 5.00783 14.871L10.8643 18.5897L5.84767 11.3934C5.01944 10.2051 6.46598 8.75857 7.65431 9.5868L12.4043 12.8973L12.2686 12.6757C11.8208 11.9481 11.931 11.0083 12.5352 10.4042L13.8594 9.07996L10.5176 5.73816C9.66271 4.8829 9.66264 3.4967 10.5176 2.64148ZM19.8496 9.84949C21.026 9.84949 21.9823 10.7946 22 11.9667C21.9917 12.516 21.7776 13.0631 21.3584 13.4823C20.6728 14.1677 19.6453 14.3041 18.8242 13.8905C18.1545 13.5263 17.7002 12.8159 17.7002 11.9999C17.7002 10.8126 18.6624 9.84975 19.8496 9.84949Z" fill="#48465C"/>
</svg>
