<svg width="24" height="24" viewBox="0 0 24 24" fill="none" xmlns="http://www.w3.org/2000/svg">
<path fill-rule="evenodd" clip-rule="evenodd" d="M9.98722 2.1114C11.1354 0.963194 12.9972 0.963194 14.1454 2.1114L21.8886 9.85456C22.4689 10.4348 22.7561 11.1976 22.7499 11.9581C22.7501 11.972 22.7499 11.9861 22.7499 12.0001C22.7499 13.6015 21.4519 14.9002 19.8505 14.9005C19.3559 14.9005 18.8897 14.7761 18.4823 14.5577C18.2113 14.4206 17.9568 14.2392 17.7304 14.0128L14.3896 10.671L13.5956 11.4649C13.4827 11.5779 13.462 11.7536 13.5458 11.8897L14.1913 12.9395C14.9287 14.1378 13.499 15.4882 12.3446 14.6837L7.72648 11.4659L12.6708 18.5596C13.4812 19.7223 12.1075 21.1563 10.9111 20.3966L4.79484 16.5128L5.44426 17.8839C5.77769 18.5878 5.63441 19.4257 5.08293 19.9776L2.53019 22.5303C2.23734 22.8231 1.76252 22.8231 1.46965 22.5303C1.17677 22.2375 1.1768 21.7627 1.46965 21.4698L4.0214 18.9171C4.12402 18.8145 4.15145 18.6588 4.08879 18.5264L3.13957 16.5225C2.58273 15.3469 3.90963 14.1742 5.00773 14.8712L10.8642 18.5899L5.84758 11.3936C5.01937 10.2054 6.4659 8.7589 7.65422 9.58698L12.4042 12.8975L12.2685 12.6758C11.8207 11.9482 11.9309 11.0085 12.5351 10.4044L13.329 9.61042L9.98722 6.26862C8.83933 5.12046 8.8393 3.25954 9.98722 2.1114ZM19.8505 10.5997C19.0773 10.5997 18.4501 11.2269 18.4501 12.0001C18.4501 12.5275 18.7418 12.987 19.1728 13.2257C19.7107 13.4908 20.3802 13.3998 20.828 12.9522C21.1017 12.6785 21.2426 12.3216 21.2499 11.963C21.23 11.2072 20.611 10.5999 19.8505 10.5997ZM13.0849 3.17194C12.5225 2.60953 11.6102 2.60953 11.0478 3.17194C10.4857 3.73429 10.4857 4.64571 11.0478 5.20808L14.9198 9.08015L17.0566 11.2178C17.3323 10.2317 18.1164 9.457 19.1083 9.19538L13.0849 3.17194Z" fill="#48465C"/>
</svg>
