<svg width="24" height="24" viewBox="0 0 24 24" fill="none" xmlns="http://www.w3.org/2000/svg">
<path d="M9.98729 2.1114C11.1355 0.963194 12.9973 0.963194 14.1455 2.1114L21.8887 9.85456C22.4689 10.4348 22.7562 11.1976 22.75 11.9581C22.7502 11.972 22.75 11.9861 22.75 12.0001C22.7499 13.6015 21.4519 14.9002 19.8506 14.9005C19.356 14.9005 18.8898 14.7761 18.4824 14.5577C18.2114 14.4206 17.9568 14.2392 17.7304 14.0128L14.3896 10.671L13.5957 11.4649C13.4828 11.5779 13.4621 11.7536 13.5459 11.8897L14.1914 12.9395C14.9288 14.1378 13.4991 15.4882 12.3447 14.6837L7.72654 11.4659L12.6709 18.5596C13.4813 19.7223 12.1075 21.1563 10.9111 20.3966L4.7949 16.5128L5.44432 17.8839C5.77775 18.5878 5.63448 19.4257 5.08299 19.9776L2.53025 22.5303C2.2374 22.8231 1.76258 22.8231 1.46971 22.5303C1.17683 22.2375 1.17686 21.7627 1.46971 21.4698L4.02147 18.9171C4.12408 18.8145 4.15151 18.6588 4.08885 18.5264L3.13963 16.5225C2.58279 15.3469 3.90969 14.1742 5.00779 14.8712L10.8642 18.5899L5.84764 11.3936C5.01943 10.2054 6.46597 8.7589 7.65428 9.58698L12.4043 12.8975L12.2685 12.6758C11.8207 11.9482 11.9309 11.0085 12.5351 10.4044L13.3291 9.61042L9.98729 6.26862C8.8394 5.12046 8.83936 3.25954 9.98729 2.1114ZM19.8506 10.5997C19.0774 10.5997 18.4502 11.2269 18.4502 12.0001C18.4502 12.5275 18.7419 12.987 19.1728 13.2257C19.7107 13.4908 20.3803 13.3998 20.8281 12.9522C21.1018 12.6785 21.2427 12.3216 21.25 11.963C21.2301 11.2072 20.6111 10.5999 19.8506 10.5997ZM13.0849 3.17194C12.5225 2.60953 11.6102 2.60953 11.0478 3.17194C10.4857 3.73429 10.4858 4.64571 11.0478 5.20808L14.9199 9.08015L17.0566 11.2178C17.3324 10.2317 18.1165 9.457 19.1084 9.19538L13.0849 3.17194Z" fill="#48465C"/>
</svg>
