<svg width="24" height="24" viewBox="0 0 24 24" fill="none" xmlns="http://www.w3.org/2000/svg">
<path d="M5.21777 4.05296C6.38117 3.47168 7.74984 4.31778 7.75 5.61839V10.2502H8C8.4141 10.2502 8.74983 10.5862 8.75 11.0002V17.0002C8.75 19.0713 7.07107 20.7502 5 20.7502C2.92893 20.7502 1.25 19.0713 1.25 17.0002V11.0002C1.25017 10.5862 1.5859 10.2502 2 10.2502H2.25V6.61839C2.25008 5.95563 2.62496 5.34937 3.21777 5.05296L5.21777 4.05296ZM16.5 4.25023C19.9517 4.25023 22.7498 7.04865 22.75 10.5002C22.75 13.6982 20.3482 16.3358 17.25 16.7063V19.2502H19.5C19.9141 19.2502 20.2498 19.5862 20.25 20.0002C20.25 20.4144 19.9142 20.7502 19.5 20.7502H13.5C13.0858 20.7502 12.75 20.4144 12.75 20.0002C12.7502 19.5862 13.0859 19.2502 13.5 19.2502H15.75V16.7063C12.6518 16.3358 10.25 13.6982 10.25 10.5002C10.2502 7.04865 13.0483 4.25023 16.5 4.25023ZM2.75 11.7502V17.0002C2.75 18.2429 3.75736 19.2502 5 19.2502C6.24264 19.2502 7.25 18.2429 7.25 17.0002V11.7502H2.75ZM16.5 5.75023C13.8767 5.75023 11.7502 7.87707 11.75 10.5002C11.75 13.1236 13.8766 15.2502 16.5 15.2502C19.1234 15.2502 21.25 13.1236 21.25 10.5002C21.2498 7.87707 19.1233 5.75023 16.5 5.75023ZM6.25 5.61839C6.24984 5.43285 6.05472 5.31215 5.88867 5.39476L3.88867 6.39476C3.80404 6.43708 3.75008 6.52379 3.75 6.61839V10.2502H6.25V5.61839Z" fill="#48465C"/>
</svg>
