<svg width="24" height="24" viewBox="0 0 24 24" fill="none" xmlns="http://www.w3.org/2000/svg">
<path d="M17.25 19.5009H19.5C19.9142 19.5009 20.25 19.8367 20.25 20.2509C20.2499 20.665 19.9141 21.0009 19.5 21.0009H13.5C13.0859 21.0009 12.7501 20.665 12.75 20.2509C12.75 19.8367 13.0858 19.5009 13.5 19.5009H15.75V17.7109C15.9964 17.7371 16.2466 17.7509 16.5 17.7509C16.7534 17.7509 17.0036 17.7371 17.25 17.7109V19.5009ZM7.5 11.9999C7.77604 11.9999 7.99983 12.224 8 12.4999V17.9999C8 19.6568 6.65685 20.9999 5 20.9999C3.34315 20.9999 2 19.6568 2 17.9999V12.4999C2.00017 12.224 2.22396 11.9999 2.5 11.9999H7.5ZM16.5 4.99992C19.5375 4.99992 21.9998 7.46249 22 10.4999C22 13.5375 19.5376 15.9999 16.5 15.9999C13.4624 15.9999 11 13.5375 11 10.4999C11.0002 7.46249 13.4625 4.99992 16.5 4.99992ZM5.55273 5.10636C6.21763 4.77391 7 5.25751 7 6.00089V10.5009H3V7.00089C3 6.62218 3.21403 6.27578 3.55273 6.10636L5.55273 5.10636Z" fill="#48465C"/>
</svg>
