<svg width="24" height="24" viewBox="0 0 24 24" fill="none" xmlns="http://www.w3.org/2000/svg">
<path d="M12.0002 1.25C12.7064 1.2501 13.1546 1.74953 13.4563 2.19727C13.7625 2.65177 14.0824 3.30667 14.4612 4.08301L16.7239 8.71973C16.9428 9.16853 17.084 9.45532 17.2063 9.6543C17.291 9.7923 17.337 9.83724 17.3479 9.84668C17.3791 9.8612 17.4089 9.86518 17.4358 9.86328C17.4533 9.85349 17.5021 9.8224 17.591 9.74023C17.7531 9.59036 17.9548 9.36215 18.2746 8.99805L18.3039 8.96484C18.8766 8.31293 19.3444 7.78011 19.7297 7.41992C19.9272 7.23538 20.1346 7.06531 20.3528 6.94336C20.5747 6.8193 20.8541 6.71914 21.1721 6.74707C21.6449 6.7887 22.0644 7.02836 22.3586 7.38379C22.7136 7.81267 22.7542 8.4123 22.7502 8.93066C22.7459 9.49071 22.676 10.2346 22.5891 11.1582L22.3508 13.6797C22.1658 15.6453 22.0216 17.1849 21.7707 18.3809C21.5151 19.5992 21.1306 20.5636 20.3967 21.3145C19.6517 22.0766 18.7359 22.4253 17.6047 22.5908C16.5164 22.7499 15.1412 22.75 13.4192 22.75H10.5803C8.85853 22.75 7.48397 22.7499 6.39573 22.5908C5.26437 22.4253 4.3488 22.0766 3.60374 21.3145C2.86975 20.5636 2.4854 19.5993 2.22972 18.3809C1.97875 17.1849 1.83364 15.6453 1.64866 13.6797L1.41136 11.1582C1.32443 10.2346 1.25457 9.49072 1.25022 8.93066C1.24621 8.41236 1.28598 7.81267 1.64085 7.38379C1.93516 7.0282 2.35529 6.78863 2.82835 6.74707C3.14624 6.71915 3.42481 6.81935 3.64671 6.94336C3.86496 7.06536 4.07317 7.23523 4.27073 7.41992C4.65604 7.78012 5.12383 8.31287 5.69651 8.96484L5.72581 8.99805C6.04568 9.36219 6.24737 9.59039 6.4094 9.74023C6.49875 9.82284 6.54734 9.85366 6.56468 9.86328C6.5914 9.86516 6.62051 9.86105 6.65159 9.84668C6.66245 9.83725 6.70932 9.79241 6.79417 9.6543C6.91639 9.45535 7.05669 9.16834 7.27561 8.71973L9.53929 4.08301C9.91806 3.30677 10.237 2.65175 10.5432 2.19727C10.8449 1.74945 11.2939 1.25 12.0002 1.25ZM12.0002 2.77246C11.9594 2.80885 11.8891 2.88408 11.7873 3.03516C11.5469 3.39196 11.2723 3.95029 10.8606 4.79395L8.60862 9.41016C8.41 9.81722 8.23662 10.1707 8.07151 10.4395C7.90242 10.7146 7.67956 11.0078 7.33226 11.1826C7.01891 11.3404 6.66604 11.3989 6.31663 11.3438C5.92334 11.2816 5.62451 11.0578 5.39085 10.8418C5.16439 10.6324 4.91077 10.3439 4.62327 10.0166L4.59886 9.98828C3.99003 9.29518 3.57082 8.81898 3.24632 8.51562C3.08598 8.36575 2.98015 8.28925 2.91526 8.25293L2.91429 8.25195C2.88052 8.26427 2.84167 8.28931 2.80296 8.33398C2.80287 8.33478 2.80201 8.33666 2.80101 8.33984C2.79165 8.36968 2.74709 8.5115 2.75022 8.91895C2.75401 9.4062 2.81705 10.0847 2.90843 11.0557L3.13792 13.4912C3.32841 15.5152 3.46604 16.9702 3.69749 18.0732C3.9262 19.163 4.22768 19.8068 4.67601 20.2656C5.11352 20.7132 5.67597 20.9694 6.61253 21.1064C7.5798 21.2478 8.84491 21.25 10.6399 21.25H13.3596C15.1545 21.25 16.4197 21.2478 17.3869 21.1064C18.3236 20.9694 18.886 20.7132 19.3235 20.2656C19.7719 19.8068 20.0732 19.1632 20.302 18.0732C20.5335 16.9702 20.672 15.5152 20.8625 13.4912L21.091 11.0557C21.1824 10.0847 21.2464 9.40621 21.2502 8.91895C21.2533 8.51197 21.2089 8.36991 21.1994 8.33984C21.1985 8.33669 21.1976 8.33481 21.1975 8.33398C21.1589 8.2894 21.1198 8.26429 21.0862 8.25195L21.0852 8.25293C21.0203 8.28918 20.9146 8.36569 20.7541 8.51562C20.4296 8.81898 20.0105 9.29518 19.4016 9.98828L19.3772 10.0166C19.0896 10.344 18.8351 10.6324 18.6086 10.8418C18.3751 11.0577 18.077 11.2816 17.6838 11.3438C17.3343 11.3989 16.9807 11.3404 16.6672 11.1826C16.3202 11.0078 16.097 10.7145 15.928 10.4395C15.7629 10.1708 15.5904 9.81712 15.3918 9.41016L13.1389 4.79395C12.7272 3.95039 12.4534 3.39196 12.2131 3.03516C12.1115 2.88436 12.0412 2.80894 12.0002 2.77246ZM12.0002 10.75C12.5018 10.7501 12.8145 11.075 12.9866 11.2998C13.151 11.5144 13.3159 11.8117 13.4856 12.1162L13.6076 12.334C13.6304 12.3749 13.6486 12.407 13.6643 12.4346C13.6916 12.4409 13.7233 12.4481 13.7629 12.457L14.0002 12.5107C14.328 12.5847 14.6544 12.6583 14.9045 12.7568C15.1806 12.8656 15.5552 13.0781 15.6994 13.542C15.841 13.9976 15.6622 14.3838 15.5061 14.6318C15.3615 14.8614 15.1411 15.118 14.9162 15.3809L14.7561 15.5684C14.7216 15.6087 14.695 15.6397 14.6731 15.666C14.6761 15.7023 14.6804 15.7444 14.6858 15.8008L14.7102 16.0508C14.7444 16.4027 14.777 16.7427 14.7649 17.0146C14.7522 17.2999 14.684 17.7315 14.2971 18.0254C13.8978 18.3285 13.4568 18.2627 13.177 18.1826C12.9193 18.1087 12.6145 17.9684 12.3078 17.8271L12.0852 17.7246C12.0678 17.7165 12.0518 17.7087 12.0373 17.7021C12.024 17.6961 12.0117 17.6907 12.0002 17.6855C11.9763 17.6963 11.9487 17.7092 11.9153 17.7246L11.6926 17.8271C11.386 17.9684 11.0812 18.1087 10.8235 18.1826C10.5438 18.2627 10.1027 18.3286 9.70335 18.0254C9.31618 17.7315 9.2473 17.2999 9.2346 17.0146C9.22248 16.7427 9.2561 16.4026 9.29026 16.0508L9.3137 15.8008C9.31917 15.7444 9.32341 15.7023 9.3264 15.666C9.3045 15.6397 9.27884 15.6087 9.24436 15.5684L9.08323 15.3809C8.85842 15.1181 8.63888 14.8613 8.49436 14.6318C8.33819 14.3838 8.15938 13.9976 8.30101 13.542C8.44527 13.0781 8.81979 12.8656 9.09593 12.7568C9.34594 12.6584 9.67159 12.5847 9.99925 12.5107L10.2375 12.457C10.2771 12.4481 10.3089 12.441 10.3362 12.4346C10.3519 12.407 10.37 12.3749 10.3928 12.334L10.5139 12.1162C10.6835 11.8117 10.8496 11.5144 11.0139 11.2998C11.1861 11.075 11.4987 10.75 12.0002 10.75ZM11.801 12.8877L11.7024 13.0645L11.6809 13.1045C11.6024 13.2481 11.4719 13.4868 11.2551 13.6514C11.0338 13.8193 10.7672 13.8763 10.6116 13.9102L10.5686 13.9199L10.3772 13.9629C10.2021 14.0025 10.0597 14.0357 9.93772 14.0664C10.017 14.164 10.1203 14.2849 10.2541 14.4414L10.384 14.5938L10.4143 14.6289C10.5222 14.7532 10.696 14.9539 10.7766 15.2129C10.8562 15.4689 10.829 15.733 10.8117 15.8994L10.8069 15.9463L10.7873 16.1484C10.769 16.3367 10.7547 16.4872 10.7453 16.6094C10.8494 16.5635 10.9679 16.5091 11.1086 16.4443L11.2873 16.3623L11.3283 16.3428C11.4719 16.2751 11.7218 16.1572 12.0002 16.1572C12.2788 16.1573 12.5286 16.2751 12.6721 16.3428L12.7121 16.3623L12.8908 16.4443C13.0314 16.509 13.15 16.5635 13.2541 16.6094C13.2446 16.4872 13.2314 16.3366 13.2131 16.1484L13.1926 15.9463L13.1887 15.8994C13.1713 15.733 13.1433 15.4689 13.2229 15.2129C13.3035 14.9537 13.4783 14.7532 13.5862 14.6289L13.6155 14.5938L13.7463 14.4414C13.8802 14.2849 13.9835 14.164 14.0627 14.0664C13.9407 14.0357 13.7974 14.0025 13.6223 13.9629L13.4319 13.9199L13.3879 13.9102C13.2322 13.8763 12.9663 13.819 12.7453 13.6514C12.5284 13.4868 12.3982 13.2481 12.3196 13.1045L12.2971 13.0645L12.1994 12.8877C12.1232 12.7511 12.0584 12.6349 12.0002 12.5342C11.9421 12.6349 11.8772 12.7511 11.801 12.8877Z" fill="#48465C"/>
</svg>
