<svg width="24" height="24" viewBox="0 0 24 24" fill="none" xmlns="http://www.w3.org/2000/svg">
<path d="M12 2C12.6101 2.00013 13.0107 2.82187 13.8125 4.46484L16.0498 9.04883C16.4741 9.91825 16.6867 10.3525 17.0049 10.5127C17.1813 10.6014 17.3756 10.6326 17.5664 10.6025C17.9111 10.548 18.2201 10.1965 18.8379 9.49316C20.0323 8.1334 20.6298 7.4528 21.1055 7.49414C21.3628 7.51674 21.6043 7.64846 21.7813 7.8623C22.1081 8.25781 22.0178 9.21412 21.8379 11.126L21.6084 13.5615C21.2307 17.5741 21.042 19.5803 19.8594 20.79C18.6768 21.9997 16.9042 22 13.3594 22H10.6397C7.09493 22 5.32224 21.9998 4.13966 20.79C2.95725 19.5803 2.76826 17.5739 2.39064 13.5615L2.16212 11.126C1.98216 9.21386 1.89177 8.25772 2.21876 7.8623C2.39569 7.64853 2.63633 7.5168 2.89356 7.49414C3.36925 7.45236 3.96733 8.13299 5.16212 9.49316C5.77988 10.1964 6.08899 10.548 6.4336 10.6025C6.62447 10.6325 6.81889 10.6013 6.99513 10.5127C7.31327 10.3524 7.52595 9.91818 7.95021 9.04883L10.1865 4.46484C10.9884 2.8216 11.3898 2 12 2ZM12 11.5C11.7159 11.5 11.5255 11.8408 11.1455 12.5225L11.0479 12.6992C10.94 12.8928 10.8859 12.9898 10.8018 13.0537C10.7176 13.1176 10.6121 13.141 10.4024 13.1885L10.2119 13.2314C9.47398 13.3983 9.10439 13.4823 9.01661 13.7646C8.9291 14.0468 9.18092 14.3409 9.6836 14.9287L9.81446 15.0811C9.95738 15.2482 10.0284 15.3322 10.0606 15.4355C10.0926 15.5389 10.0821 15.6503 10.0606 15.873L10.041 16.0762C9.96502 16.8606 9.92682 17.2532 10.1563 17.4277C10.3862 17.6022 10.732 17.4441 11.4229 17.126L11.6016 17.043C11.7977 16.9527 11.896 16.9072 12 16.9072C12.104 16.9073 12.2022 16.9526 12.3984 17.043L12.5772 17.126C13.2679 17.444 13.6139 17.6022 13.8438 17.4277C14.073 17.2532 14.0349 16.8604 13.959 16.0762L13.9395 15.873C13.9179 15.6503 13.9074 15.5389 13.9395 15.4355C13.9717 15.3322 14.0427 15.2482 14.1856 15.0811L14.3154 14.9287C14.8184 14.3406 15.0702 14.0469 14.9824 13.7646C14.8946 13.4824 14.526 13.3983 13.7881 13.2314L13.5967 13.1885C13.3873 13.141 13.2824 13.1176 13.1983 13.0537C13.1141 12.9898 13.06 12.8928 12.9522 12.6992L12.8535 12.5225C12.4737 11.8411 12.284 11.5001 12 11.5Z" fill="#48465C"/>
</svg>
