<svg width="24" height="24" viewBox="0 0 24 24" fill="none" xmlns="http://www.w3.org/2000/svg">
<path d="M17.0003 18.5791C16.7615 20.2104 16.6426 21.0269 16.0794 21.5137C15.5161 22.0003 14.6916 22 13.0433 22H10.9573C9.30868 22 8.4835 22.0005 7.92022 21.5137C7.35697 21.0269 7.23815 20.2104 6.99932 18.5791L6.87823 17.75H17.1224L17.0003 18.5791ZM17.3421 16.25H6.6585L6.14581 12.75H17.8538L17.3421 16.25ZM14.8148 2C16.6525 2 17.5714 2.00002 18.2942 2.44434C18.4189 2.52099 18.5375 2.60715 18.6497 2.70117C19.2999 3.2461 19.5915 4.11719 20.1731 5.86035L20.2083 5.96777C20.527 6.92273 20.687 7.40062 20.5189 7.76172C20.4657 7.87565 20.3914 7.97896 20.3001 8.06543C20.0108 8.33945 19.5071 8.33984 18.5003 8.33984L18.0735 11.25H5.92608L5.5003 8.33984C4.49355 8.33984 3.9898 8.33924 3.70049 8.06543C3.6092 7.97894 3.53488 7.87569 3.48174 7.76172C3.31345 7.40059 3.47259 6.92294 3.79131 5.96777L3.82745 5.86035C4.40901 4.11749 4.69988 3.2461 5.34991 2.70117C5.46201 2.60722 5.58079 2.52095 5.70538 2.44434C6.42807 2.00004 7.34731 2 9.18487 2H14.8148Z" fill="#48465C"/>
</svg>
