<svg width="24" height="24" viewBox="0 0 24 24" fill="none" xmlns="http://www.w3.org/2000/svg">
<path d="M14.8538 1.25C15.7396 1.24999 16.4606 1.25022 17.0482 1.30957C17.66 1.3714 18.1937 1.50253 18.6868 1.80566C18.8427 1.90149 18.9919 2.00846 19.1321 2.12598C19.5757 2.49777 19.8692 2.96266 20.1214 3.52344C20.3637 4.06197 20.592 4.74566 20.8724 5.58594L20.8841 5.62305L20.9339 5.77051C21.0818 6.21365 21.2129 6.60846 21.2806 6.93652C21.3521 7.28302 21.3829 7.68369 21.1985 8.0791C21.1056 8.2784 20.9754 8.45809 20.8157 8.60938C20.4989 8.90955 20.1085 9.00799 19.7571 9.0498C19.577 9.07121 19.3726 9.08146 19.1487 9.08594L17.7357 18.7354C17.6222 19.5108 17.5268 20.1615 17.3841 20.6758C17.2327 21.2209 17.0056 21.7043 16.5696 22.0811C16.1336 22.4578 15.623 22.6128 15.0618 22.6836C14.5321 22.7503 13.874 22.75 13.0901 22.75H10.9095C10.1256 22.75 9.46749 22.7503 8.9378 22.6836C8.3766 22.6128 7.86602 22.4579 7.42999 22.0811C6.99393 21.7043 6.76688 21.2209 6.61554 20.6758C6.47278 20.1615 6.37747 19.5106 6.26397 18.7354L4.85089 9.08594C4.62709 9.08146 4.42265 9.07122 4.24249 9.0498C3.89106 9.00799 3.50076 8.90955 3.1839 8.60938C3.02441 8.45818 2.89496 8.27827 2.80206 8.0791C2.6177 7.68371 2.64754 7.28301 2.71905 6.93652C2.7868 6.60845 2.9188 6.21366 3.06671 5.77051C3.07113 5.75728 3.07496 5.7438 3.0794 5.73047L3.12823 5.58691C3.40867 4.74646 3.6369 4.06205 3.87921 3.52344C4.13152 2.96264 4.42484 2.49776 4.86847 2.12598C5.00861 2.00854 5.15704 1.90143 5.3128 1.80566C5.80585 1.50256 6.33972 1.37141 6.95147 1.30957C7.53908 1.25021 8.26078 1.24999 9.14679 1.25H14.8538ZM7.74151 18.4707C7.8637 19.3053 7.94637 19.8619 8.06085 20.2744C8.16974 20.6666 8.28422 20.8354 8.41144 20.9453C8.53862 21.0553 8.72163 21.1444 9.1253 21.1953C9.55011 21.2489 10.1135 21.25 10.9573 21.25H13.0433C13.8869 21.25 14.4496 21.2489 14.8743 21.1953C15.2782 21.1444 15.462 21.0553 15.5892 20.9453C15.7163 20.8354 15.83 20.6662 15.9388 20.2744C16.0533 19.8619 16.1369 19.3053 16.2591 18.4707L16.3646 17.75H7.63604L7.74151 18.4707ZM7.41632 16.25H16.5833L17.096 12.75H6.90362L7.41632 16.25ZM6.6839 11.25H17.3157L17.6321 9.08984H6.36749L6.6839 11.25ZM9.18487 2.75C8.25109 2.75 7.60619 2.75093 7.10284 2.80176C6.6155 2.85099 6.32844 2.94202 6.09894 3.08301C6.00541 3.14051 5.9155 3.20488 5.83136 3.27539C5.62486 3.44848 5.44743 3.69182 5.2464 4.13867C5.03881 4.60007 4.834 5.21178 4.53839 6.09766L4.50226 6.20508C4.33684 6.70079 4.2353 7.0093 4.1878 7.23926C4.16007 7.37353 4.16215 7.43365 4.16436 7.45215C4.17619 7.47558 4.19177 7.49699 4.21026 7.51563C4.22711 7.52356 4.28322 7.54436 4.41925 7.56055C4.65243 7.5883 4.97766 7.58984 5.5003 7.58984H18.5003C19.0226 7.58984 19.3472 7.58828 19.5804 7.56055C19.7163 7.54438 19.7724 7.52359 19.7894 7.51563C19.8078 7.49701 19.8235 7.47557 19.8353 7.45215C19.8375 7.43366 19.8396 7.37354 19.8118 7.23926C19.7643 7.0093 19.6628 6.70077 19.4974 6.20508L19.4612 6.09766C19.1657 5.21182 18.9608 4.60007 18.7532 4.13867C18.5522 3.69181 18.3747 3.44846 18.1683 3.27539C18.0841 3.20492 17.9952 3.14048 17.9017 3.08301C17.6721 2.94187 17.3844 2.85102 16.8968 2.80176C16.3934 2.75095 15.7485 2.75 14.8148 2.75H9.18487Z" fill="#48465C"/>
</svg>
