<svg width="24" height="24" viewBox="0 0 24 24" fill="none" xmlns="http://www.w3.org/2000/svg">
<path d="M16.181 18.7503C16.0372 19.9267 15.8022 20.6672 15.2425 21.1908C14.3776 21.9998 13.0473 22.0003 10.387 22.0003H9.61361C6.95296 22.0003 5.62217 21.9999 4.75716 21.1908C4.19755 20.6672 3.96252 19.9267 3.81869 18.7503H16.181ZM12.724 7.00032C14.7274 7.00032 15.7298 6.99969 16.3226 7.63314C16.4851 7.80677 16.5976 8.00869 16.6732 8.25032H17.0003C19.5262 8.25056 21.7503 10.0624 21.7503 12.5003C21.7501 14.9381 19.5261 16.7501 17.0003 16.7503H16.3499C16.3383 16.9228 16.3271 17.0895 16.3158 17.2503H3.68392C3.66492 16.9829 3.64631 16.699 3.6263 16.3988L3.28451 11.2659C3.15123 9.26675 3.08429 8.26676 3.67708 7.63314C4.26991 6.9997 5.27228 7.00032 7.27572 7.00032H12.724ZM16.8001 9.75032C16.7874 10.1803 16.7543 10.6803 16.7152 11.2659L16.4495 15.2503H17.0003C18.892 15.2501 20.2501 13.9278 20.2503 12.5003C20.2503 11.0726 18.8922 9.75055 17.0003 9.75032H16.8001ZM5.93099 1.5013C6.17151 1.16418 6.63971 1.08609 6.97689 1.3265C7.31402 1.56696 7.39297 2.0352 7.15267 2.37239L6.76595 2.91341C7.39177 3.38768 7.5306 4.27775 7.07162 4.92122L6.66146 5.49642C6.42093 5.83363 5.95179 5.91175 5.61458 5.67122C5.2777 5.43061 5.19937 4.96242 5.43978 4.62532L5.82552 4.08431C5.19988 3.61002 5.06195 2.72087 5.52083 2.07747L5.93099 1.5013ZM9.93099 1.5013C10.1716 1.16418 10.6397 1.08607 10.9769 1.3265C11.3141 1.56696 11.3929 2.0352 11.1527 2.37239L10.766 2.91341C11.3918 3.38768 11.5306 4.27775 11.0716 4.92122L10.6615 5.49642C10.4209 5.83363 9.95179 5.91175 9.61458 5.67122C9.2777 5.43061 9.19937 4.96242 9.43978 4.62532L9.82552 4.08431C9.19988 3.61002 9.06195 2.72087 9.52083 2.07747L9.93099 1.5013ZM13.931 1.5013C14.1716 1.16419 14.6397 1.08607 14.9769 1.3265C15.3141 1.56696 15.3929 2.0352 15.1527 2.37239L14.766 2.91341C15.3918 3.38768 15.5306 4.27775 15.0716 4.92122L14.6615 5.49642C14.4209 5.83363 13.9519 5.91175 13.6146 5.67122C13.2777 5.43062 13.1993 4.96242 13.4398 4.62532L13.8255 4.08431C13.1999 3.61003 13.0619 2.72088 13.5208 2.07747L13.931 1.5013Z" fill="#48465C"/>
</svg>
