<svg width="24" height="24" viewBox="0 0 24 24" fill="none" xmlns="http://www.w3.org/2000/svg">
<path d="M12.7783 6.24942C13.7339 6.24939 14.528 6.25011 15.1543 6.33634C15.8138 6.42719 16.4081 6.62678 16.8701 7.12052C17.1799 7.45172 17.354 7.83367 17.4492 8.24942H18C20.6232 8.2496 22.7499 10.3763 22.75 12.9994C22.75 15.6227 20.6232 17.7492 18 17.7494H17.0302C17.0204 17.8751 17.0105 17.998 17 18.1176V18.7494H16.9355C16.8982 19.069 16.8554 19.3635 16.8017 19.6332C16.6333 20.4785 16.3464 21.1843 15.7549 21.7377C15.1633 22.2912 14.4395 22.5302 13.5849 22.642C12.7629 22.7495 11.7248 22.7494 10.4394 22.7494H9.56052C8.27493 22.7494 7.23608 22.7495 6.41404 22.642C5.55945 22.5302 4.83568 22.2912 4.24412 21.7377C3.65272 21.1844 3.36658 20.4784 3.19822 19.6332C3.03624 18.8201 2.9673 17.7841 2.88181 16.5014L2.5322 11.2621C2.46861 10.3086 2.41557 9.51579 2.45994 8.88517C2.50672 8.22097 2.66685 7.61438 3.12888 7.12052C3.59091 6.62667 4.1851 6.4272 4.8447 6.33634C5.47095 6.25008 6.26513 6.24939 7.22068 6.24942H12.7783ZM4.57419 18.7494C4.60186 18.9634 4.63294 19.1596 4.66892 19.3402C4.80527 20.0247 4.9961 20.3872 5.26951 20.643C5.54284 20.8986 5.91686 21.0642 6.60837 21.1547C7.32177 21.248 8.26242 21.2494 9.61326 21.2494H10.3867C11.7373 21.2494 12.6773 21.248 13.3906 21.1547C14.0826 21.0642 14.4571 20.8988 14.7304 20.643C15.0038 20.3872 15.1938 20.0246 15.3301 19.3402C15.3661 19.1596 15.3972 18.9634 15.4248 18.7494H4.57419ZM7.27537 7.74942C6.25192 7.74942 5.56163 7.75124 5.04978 7.82169C4.55936 7.88924 4.35535 8.00613 4.22459 8.14591C4.09392 8.28564 3.99083 8.4963 3.95603 8.98966C3.91973 9.50512 3.96411 10.1947 4.0322 11.2162L4.37498 16.349C4.3965 16.6719 4.41654 16.9712 4.4365 17.2494H15.5635C15.5834 16.9712 15.6034 16.6719 15.625 16.349L15.9668 11.2162C16.0349 10.1947 16.0792 9.50512 16.0429 8.98966C16.0081 8.49615 15.9052 8.28564 15.7744 8.14591C15.6437 8.00615 15.4404 7.88924 14.9502 7.82169C14.4383 7.75119 13.748 7.74943 12.7246 7.74942H7.27537ZM17.5508 9.74942C17.5384 10.1979 17.5041 10.7026 17.4668 11.2621L17.1347 16.2494H18C19.7947 16.2492 21.25 14.7942 21.25 12.9994C21.2499 11.2047 19.7947 9.7496 18 9.74942H17.5508ZM5.93064 1.50138C6.17112 1.16424 6.63934 1.08626 6.97654 1.32657C7.31369 1.56706 7.39268 2.03527 7.15232 2.37247L6.7656 2.91349C7.39142 3.38776 7.53025 4.27783 7.07126 4.9213L6.66111 5.4965C6.4206 5.83365 5.95242 5.9117 5.61521 5.6713C5.27803 5.43079 5.19901 4.96261 5.43943 4.6254L5.82615 4.08439C5.20037 3.61016 5.06161 2.72101 5.52048 2.07755L5.93064 1.50138ZM9.93064 1.50138C10.1712 1.16416 10.6402 1.08603 10.9775 1.32657C11.3143 1.56713 11.3927 2.03539 11.1523 2.37247L10.7656 2.91349C11.3915 3.38776 11.5303 4.27783 11.0713 4.9213L10.6611 5.4965C10.4205 5.83365 9.95242 5.9117 9.61521 5.6713C9.27803 5.43079 9.19901 4.96261 9.43943 4.6254L9.82615 4.08439C9.20037 3.61016 9.06161 2.72101 9.52048 2.07755L9.93064 1.50138ZM13.9306 1.50138C14.1712 1.16416 14.6402 1.08603 14.9775 1.32657C15.3143 1.56713 15.3927 2.03539 15.1523 2.37247L14.7656 2.91349C15.3915 3.38776 15.5303 4.27783 15.0713 4.9213L14.6611 5.4965C14.4205 5.83366 13.9524 5.91172 13.6152 5.6713C13.278 5.43079 13.199 4.96261 13.4394 4.6254L13.8261 4.08439C13.2003 3.61016 13.0616 2.72101 13.5205 2.07755L13.9306 1.50138Z" fill="#48465C"/>
</svg>
