<svg width="24" height="24" viewBox="0 0 24 24" fill="none" xmlns="http://www.w3.org/2000/svg">
<path d="M12 3C14.3107 3.0001 15.7702 5.58748 18.6885 10.7617L19.0518 11.4062C21.4769 15.7058 22.6895 17.8558 21.5938 19.4277C20.4979 20.9997 17.786 21 12.3633 21H11.6358C6.21332 21 3.50216 20.9997 2.40628 19.4277C1.31051 17.8557 2.52319 15.7059 4.94827 11.4062L5.31155 10.7617C8.22991 5.58738 9.68928 3 12 3ZM12 15C11.4477 15 11 15.4477 11 16C11 16.5523 11.4477 17 12 17C12.5523 16.9999 13 16.5523 13 16C13 15.4477 12.5523 15.0001 12 15ZM12 7.25C11.5858 7.25 11.25 7.58579 11.25 8V13C11.25 13.4142 11.5858 13.75 12 13.75C12.4142 13.7499 12.75 13.4142 12.75 13V8C12.75 7.58583 12.4142 7.25007 12 7.25Z" fill="#48465C"/>
</svg>
