<svg width="24" height="24" viewBox="0 0 24 24" fill="none" xmlns="http://www.w3.org/2000/svg">
<path fill-rule="evenodd" clip-rule="evenodd" d="M2.2774 5.24691C2.38814 4.84778 2.80208 4.61372 3.20122 4.72445L4.90435 5.19711C5.82123 5.4515 6.54673 6.15881 6.79986 7.07504L8.86724 14.5555C9.93175 14.792 10.8648 15.4794 11.3731 16.4666L19.8116 14.2733C20.2124 14.1691 20.6223 14.4097 20.7266 14.8104C20.8308 15.2111 20.5901 15.621 20.1895 15.7254L11.7686 17.9139C11.864 19.6101 10.7243 21.179 9.00103 21.6268C7.03198 22.1382 4.97859 21.0103 4.43853 19.0555C3.89585 17.091 5.10408 15.1025 7.08111 14.5887C7.15588 14.5692 7.23079 14.5516 7.30572 14.5369L5.35454 7.47445C5.2463 7.08266 4.92937 6.76058 4.50396 6.64242L2.79986 6.16976C2.40081 6.05906 2.16685 5.64596 2.2774 5.24691ZM10.1983 17.5584C9.88598 16.4284 8.66972 15.725 7.45806 16.0399C6.25422 16.3528 5.57521 17.5355 5.88482 18.6561C6.19707 19.7861 7.41245 20.4894 8.62408 20.1746C9.82798 19.8618 10.5079 18.6791 10.1983 17.5584ZM16.3292 2.28597C16.9506 2.20835 17.5386 2.23943 18.0909 2.54867C18.6463 2.85975 18.9736 3.34447 19.2188 3.9139C19.4497 4.45032 19.6435 5.15063 19.8741 5.98519L20.4161 7.94906C20.6466 8.78319 20.8404 9.48344 20.917 10.0604C20.9983 10.6722 20.9659 11.2585 20.6397 11.8065C20.3155 12.3509 19.8153 12.6652 19.2374 12.8993C18.6877 13.1217 17.9693 13.3088 17.1065 13.533L15.0879 14.0575C14.2248 14.2818 13.5064 14.468 12.9161 14.5418C12.2945 14.6195 11.7066 14.5883 11.1543 14.2791C10.5988 13.9681 10.2705 13.4835 10.0254 12.9139C9.79455 12.3775 9.60167 11.6772 9.37115 10.8426L8.82818 8.87875C8.59771 8.04464 8.40484 7.34437 8.32818 6.76742C8.24688 6.1555 8.2793 5.56935 8.60552 5.02132C8.92968 4.47704 9.42912 4.16251 10.0069 3.92855C10.5567 3.70598 11.2758 3.51899 12.1387 3.29476L14.1563 2.77035C15.0196 2.54596 15.7387 2.35977 16.3292 2.28597ZM17.3575 3.85726C17.1969 3.76743 16.976 3.7166 16.5147 3.77425C16.033 3.83446 15.4093 3.99482 14.4844 4.23519L12.5645 4.73422C11.6398 4.97453 11.018 5.13796 10.5704 5.31918C10.1404 5.49324 9.98108 5.64196 9.89361 5.7889C9.80826 5.93237 9.75624 6.1316 9.81451 6.57015C9.87589 7.03201 10.0399 7.63157 10.2881 8.53011L10.8028 10.3924C11.051 11.2907 11.2183 11.8899 11.4034 12.3202C11.579 12.7282 11.7294 12.8824 11.8868 12.9705C12.0474 13.0605 12.2688 13.1113 12.7305 13.0536C13.2122 12.9933 13.8351 12.8329 14.7598 12.5926L16.6797 12.0936C17.6049 11.8532 18.2272 11.6899 18.6749 11.5086C19.1045 11.3346 19.2631 11.1858 19.3506 11.0389C19.436 10.8954 19.488 10.6964 19.4297 10.2577C19.3683 9.79575 19.2044 9.19624 18.9561 8.29769L18.4415 6.43539C18.1933 5.53675 18.0261 4.93702 17.8409 4.50668C17.6654 4.09898 17.5148 3.94536 17.3575 3.85726Z" fill="#48465C"/>
</svg>
