<svg width="24" height="24" viewBox="0 0 24 24" fill="none" xmlns="http://www.w3.org/2000/svg">
<path fill-rule="evenodd" clip-rule="evenodd" d="M2.27742 5.24706C2.38816 4.84793 2.80212 4.61386 3.20125 4.7246L4.90437 5.19725C5.82126 5.45164 6.54675 6.15895 6.79988 7.07518L8.95125 14.8613L9.10945 15.4072C9.74259 15.6435 10.2868 16.0867 10.6319 16.6748L10.9415 16.5791L19.8116 14.2734C20.2125 14.1693 20.6224 14.4106 20.7266 14.8115C20.8305 15.2122 20.5893 15.6214 20.1886 15.7256L11.3516 18.0224L11.0225 18.124C11.0157 19.3948 10.1393 20.5556 8.81257 20.9004C7.2221 21.3137 5.58738 20.3981 5.16121 18.8555C4.7351 17.3129 5.67916 15.7277 7.26961 15.3144C7.34834 15.294 7.42714 15.2768 7.50593 15.2627L5.35457 7.4746C5.24633 7.08279 4.9294 6.76072 4.50398 6.64256L2.79988 6.16991C2.40082 6.05918 2.16681 5.64613 2.27742 5.24706ZM14.295 3.50975C16.105 3.03935 17.0107 2.80386 17.7237 3.20311C18.4365 3.60238 18.6792 4.48014 19.1641 6.23534L19.6788 8.09764C20.1638 9.8532 20.4058 10.7313 19.9942 11.4228C19.5825 12.1143 18.6772 12.3499 16.8673 12.8203L14.9473 13.3183C13.1374 13.7887 12.2325 14.0242 11.5196 13.625C10.8067 13.2257 10.5641 12.3481 10.0792 10.5928L9.56453 8.73045C9.07953 6.97491 8.83746 6.09678 9.2491 5.40526C9.66083 4.71411 10.5656 4.47901 12.3751 4.00878L14.295 3.50975Z" fill="#48465C"/>
</svg>
