<svg width="24" height="24" viewBox="0 0 24 24" fill="none" xmlns="http://www.w3.org/2000/svg">
<path d="M2.27736 5.24706C2.3881 4.84793 2.80206 4.61386 3.20119 4.7246L4.90431 5.19725C5.8212 5.45164 6.54669 6.15895 6.79982 7.07518L8.95119 14.8613L9.10939 15.4072C9.74253 15.6435 10.2867 16.0867 10.6318 16.6748L10.9414 16.5791L19.8115 14.2734C20.2124 14.1693 20.6224 14.4106 20.7266 14.8115C20.8304 15.2122 20.5892 15.6214 20.1885 15.7256L11.3516 18.0224L11.0225 18.124C11.0157 19.3948 10.1393 20.5556 8.81251 20.9004C7.22204 21.3137 5.58732 20.3981 5.16115 18.8555C4.73504 17.3129 5.6791 15.7277 7.26954 15.3144C7.34828 15.294 7.42708 15.2768 7.50587 15.2627L5.35451 7.4746C5.24626 7.08279 4.92934 6.76072 4.50392 6.64256L2.79982 6.16991C2.40076 6.05918 2.16675 5.64613 2.27736 5.24706ZM14.2949 3.50975C16.1049 3.03935 17.0106 2.80386 17.7236 3.20311C18.4365 3.60238 18.6792 4.48014 19.1641 6.23534L19.6787 8.09764C20.1637 9.8532 20.4058 10.7313 19.9942 11.4228C19.5824 12.1143 18.6772 12.3499 16.8672 12.8203L14.9473 13.3183C13.1373 13.7887 12.2324 14.0242 11.5195 13.625C10.8066 13.2257 10.5641 12.3481 10.0791 10.5928L9.56447 8.73046C9.07947 6.97491 8.8374 6.09678 9.24904 5.40526C9.66077 4.71411 10.5656 4.47901 12.375 4.00878L14.2949 3.50975Z" fill="#48465C"/>
</svg>
