<svg width="24" height="24" viewBox="0 0 24 24" fill="none" xmlns="http://www.w3.org/2000/svg">
<path d="M2.2773 5.24691C2.38804 4.84778 2.80199 4.61372 3.20113 4.72445L4.90426 5.19711C5.82114 5.4515 6.54664 6.15881 6.79977 7.07504L8.86715 14.5555C9.93166 14.792 10.8647 15.4794 11.373 16.4666L19.8115 14.2733C20.2123 14.1691 20.6222 14.4097 20.7265 14.8104C20.8307 15.2111 20.59 15.621 20.1894 15.7254L11.7685 17.9139C11.8639 19.6101 10.7242 21.179 9.00094 21.6268C7.03189 22.1382 4.9785 21.0103 4.43844 19.0555C3.89575 17.091 5.10399 15.1025 7.08102 14.5887C7.15579 14.5692 7.2307 14.5516 7.30563 14.5369L5.35445 7.47445C5.24621 7.08266 4.92928 6.76058 4.50387 6.64242L2.79977 6.16976C2.40072 6.05906 2.16676 5.64596 2.2773 5.24691ZM10.1982 17.5584C9.88589 16.4284 8.66963 15.725 7.45797 16.0399C6.25413 16.3528 5.57512 17.5355 5.88473 18.6561C6.19698 19.7861 7.41236 20.4894 8.62398 20.1746C9.82788 19.8618 10.5078 18.6791 10.1982 17.5584ZM16.3291 2.28597C16.9505 2.20835 17.5385 2.23943 18.0908 2.54867C18.6462 2.85975 18.9735 3.34447 19.2187 3.9139C19.4496 4.45032 19.6434 5.15063 19.874 5.98519L20.416 7.94906C20.6465 8.78319 20.8404 9.48344 20.917 10.0604C20.9982 10.6722 20.9658 11.2585 20.6396 11.8065C20.3154 12.3509 19.8152 12.6652 19.2373 12.8993C18.6876 13.1217 17.9692 13.3088 17.1064 13.533L15.0879 14.0575C14.2247 14.2818 13.5063 14.468 12.916 14.5418C12.2944 14.6195 11.7065 14.5883 11.1543 14.2791C10.5987 13.9681 10.2704 13.4835 10.0254 12.9139C9.79445 12.3775 9.60158 11.6772 9.37105 10.8426L8.82809 8.87875C8.59762 8.04464 8.40474 7.34437 8.32809 6.76742C8.24679 6.1555 8.27921 5.56935 8.60543 5.02132C8.92959 4.47704 9.42902 4.16251 10.0068 3.92855C10.5566 3.70598 11.2757 3.51899 12.1386 3.29476L14.1562 2.77035C15.0195 2.54596 15.7386 2.35977 16.3291 2.28597ZM17.3574 3.85726C17.1968 3.76743 16.9759 3.7166 16.5146 3.77425C16.0329 3.83446 15.4092 3.99482 14.4843 4.23519L12.5644 4.73422C11.6397 4.97453 11.0179 5.13796 10.5703 5.31918C10.1403 5.49324 9.98099 5.64196 9.89352 5.7889C9.80817 5.93237 9.75615 6.1316 9.81441 6.57015C9.87579 7.03201 10.0398 7.63157 10.288 8.53011L10.8027 10.3924C11.0509 11.2907 11.2182 11.8899 11.4033 12.3202C11.5789 12.7282 11.7293 12.8824 11.8867 12.9705C12.0473 13.0605 12.2687 13.1113 12.7304 13.0536C13.2121 12.9933 13.835 12.8329 14.7597 12.5926L16.6796 12.0936C17.6048 11.8532 18.2271 11.6899 18.6748 11.5086C19.1045 11.3346 19.2631 11.1858 19.3505 11.0389C19.4359 10.8954 19.4879 10.6964 19.4296 10.2577C19.3682 9.79575 19.2043 9.19624 18.956 8.29769L18.4414 6.43539C18.1932 5.53675 18.026 4.93702 17.8408 4.50668C17.6653 4.09898 17.5147 3.94536 17.3574 3.85726Z" fill="#48465C"/>
</svg>
