<svg width="24" height="24" viewBox="0 0 24 24" fill="none" xmlns="http://www.w3.org/2000/svg">
<path d="M13.9697 1.46967C14.2626 1.17678 14.7374 1.17678 15.0303 1.46967C15.3231 1.76256 15.3231 2.23735 15.0303 2.53021C14.6145 2.94602 14.2405 3.38805 13.9102 3.84955L15.1172 5.05658C15.41 5.34948 15.41 5.82427 15.1172 6.11713C14.8244 6.41001 14.3495 6.40997 14.0566 6.11713L13.1084 5.16889C12.8983 5.58288 12.7202 6.00646 12.5742 6.43451L17.4522 11.3124C17.4888 11.3491 17.5214 11.3889 17.5488 11.4306C17.9567 11.2924 18.3605 11.1252 18.7559 10.9287L15.748 7.92084C15.4552 7.62794 15.4552 7.15319 15.748 6.86029C16.0409 6.5674 16.5157 6.5674 16.8086 6.86029L20.084 10.1357C20.5693 9.79399 21.0342 9.40516 21.4697 8.96967C21.7626 8.67678 22.2374 8.67678 22.5303 8.96967C22.8231 9.26256 22.8232 9.73738 22.5303 10.0302C19.9077 12.6529 16.2665 13.8836 12.9736 13.2431C13.7235 16.4177 12.5739 19.9866 10.0303 22.5302C9.73744 22.8231 9.26262 22.823 8.96973 22.5302C8.67684 22.2373 8.67684 21.7626 8.96973 21.4697C9.40647 21.0329 9.79312 20.5648 10.1279 20.0751L8.77442 18.7216C8.48152 18.4287 8.48152 17.954 8.77442 17.6611C9.06731 17.3682 9.54207 17.3682 9.83496 17.6611L10.8975 18.7236C11.0839 18.321 11.2383 17.9102 11.3604 17.496C11.3439 17.4823 11.3279 17.4675 11.3125 17.4521L6.50098 12.6396C6.06131 12.7694 5.6255 12.9362 5.19922 13.1386L8.03028 15.9697C8.32312 16.2625 8.32303 16.7373 8.03028 17.0302C7.73739 17.3231 7.26262 17.3231 6.96973 17.0302L3.85742 13.9179C3.39211 14.242 2.94702 14.6135 2.53028 15.0302C2.23741 15.3231 1.76262 15.323 1.46973 15.0302C1.17684 14.7373 1.17684 14.2626 1.46973 13.9697C4.01332 11.4261 7.58219 10.2764 10.7568 11.0263C10.1163 7.73343 11.347 4.09234 13.9697 1.46967ZM8.29981 12.3173L11.6826 15.7001C11.7433 14.7539 11.6287 13.8214 11.3301 12.954L11.2578 12.7421L11.0459 12.6699C10.1785 12.3712 9.24604 12.2567 8.29981 12.3173ZM12.167 8.14936C12.009 9.31839 12.0944 10.483 12.4385 11.5605C13.5162 11.9048 14.6813 11.99 15.8506 11.832L12.167 8.14936Z" fill="#48465C"/>
</svg>
