<svg width="24" height="24" viewBox="0 0 24 24" fill="none" xmlns="http://www.w3.org/2000/svg">
<path fill-rule="evenodd" clip-rule="evenodd" d="M13.9697 1.46967C14.2626 1.17678 14.7373 1.17678 15.0302 1.46967C15.323 1.76256 15.3231 2.23735 15.0302 2.53021C14.6144 2.94602 14.2404 3.38805 13.9101 3.84955L15.1171 5.05658C15.4099 5.34948 15.41 5.82427 15.1171 6.11713C14.8243 6.41001 14.3495 6.40997 14.0566 6.11713L13.1083 5.16889C12.8982 5.58288 12.7202 6.00646 12.5742 6.43451L17.4521 11.3124C17.4888 11.3491 17.5213 11.3889 17.5488 11.4306C17.9567 11.2924 18.3604 11.1252 18.7558 10.9287L15.748 7.92084C15.4551 7.62794 15.4551 7.15319 15.748 6.86029C16.0409 6.5674 16.5156 6.5674 16.8085 6.86029L20.0839 10.1357C20.5692 9.79399 21.0342 9.40516 21.4697 8.96967C21.7626 8.67678 22.2373 8.67678 22.5302 8.96967C22.823 9.26256 22.8231 9.73738 22.5302 10.0302C19.9076 12.6529 16.2665 13.8836 12.9736 13.2431C13.7235 16.4177 12.5738 19.9866 10.0302 22.5302C9.73738 22.8231 9.26256 22.823 8.96967 22.5302C8.67678 22.2373 8.67678 21.7626 8.96967 21.4697C9.40641 21.0329 9.79305 20.5648 10.1279 20.0751L8.77435 18.7216C8.48145 18.4287 8.48145 17.954 8.77435 17.6611C9.06725 17.3682 9.54201 17.3682 9.8349 17.6611L10.8974 18.7236C11.0839 18.321 11.2382 17.9102 11.3603 17.496C11.3439 17.4823 11.3279 17.4675 11.3124 17.4521L6.50092 12.6396C6.06125 12.7694 5.62544 12.9362 5.19916 13.1386L8.03021 15.9697C8.32306 16.2625 8.32297 16.7373 8.03021 17.0302C7.73732 17.3231 7.26256 17.3231 6.96967 17.0302L3.85736 13.9179C3.39205 14.242 2.94695 14.6135 2.53021 15.0302C2.23735 15.3231 1.76256 15.323 1.46967 15.0302C1.17678 14.7373 1.17678 14.2626 1.46967 13.9697C4.01326 11.4261 7.58213 10.2764 10.7568 11.0263C10.1163 7.73343 11.347 4.09234 13.9697 1.46967ZM8.29975 12.3173L11.6826 15.7001C11.7432 14.7539 11.6287 13.8214 11.33 12.954L11.2578 12.7421L11.0458 12.6699C10.1785 12.3712 9.24598 12.2567 8.29975 12.3173ZM12.1669 8.14935C12.0089 9.31839 12.0943 10.483 12.4384 11.5605C13.5162 11.9048 14.6812 11.99 15.8505 11.832L12.1669 8.14935Z" fill="#48465C"/>
</svg>
