<svg width="24" height="24" viewBox="0 0 24 24" fill="none" xmlns="http://www.w3.org/2000/svg">
<path fill-rule="evenodd" clip-rule="evenodd" d="M12.4306 4.51172C12.7001 4.19744 13.1738 4.16117 13.4882 4.43066C13.8025 4.70026 13.8387 5.17385 13.5692 5.48828L7.9872 12L13.5692 18.5117C13.8387 18.8261 13.8024 19.2997 13.4882 19.5693C13.1737 19.8388 12.7001 19.8026 12.4306 19.4883L6.43056 12.4883C6.18981 12.2074 6.18981 11.7926 6.43056 11.5117L12.4306 4.51172ZM16.4306 4.51172C16.7001 4.19743 17.1738 4.16116 17.4882 4.43066C17.8024 4.70028 17.8386 5.17388 17.5692 5.48828L11.9872 12L17.5692 18.5117C17.8387 18.8261 17.8024 19.2997 17.4882 19.5693C17.1738 19.8388 16.7001 19.8025 16.4306 19.4883L10.4306 12.4883C10.1898 12.2074 10.1898 11.7926 10.4306 11.5117L16.4306 4.51172Z" fill="#48465C"/>
</svg>
