<svg width="24" height="24" viewBox="0 0 24 24" fill="none" xmlns="http://www.w3.org/2000/svg">
<path fill-rule="evenodd" clip-rule="evenodd" d="M18.5117 10.4307C18.8261 10.1611 19.2997 10.1974 19.5693 10.5117C19.8388 10.8262 19.8026 11.2998 19.4883 11.5693L12.4883 17.5693C12.2074 17.8101 11.7926 17.8101 11.5117 17.5693L4.51169 11.5693C4.19733 11.2998 4.16111 10.8262 4.43064 10.5117C4.70023 10.1974 5.17381 10.1611 5.48826 10.4307L12 16.0117L18.5117 10.4307ZM19 6.25C19.3139 6.25002 19.5942 6.44589 19.7031 6.74023C19.8118 7.03445 19.7263 7.36514 19.4883 7.56934L12.4883 13.5693C12.2075 13.8101 11.7925 13.8101 11.5117 13.5693L4.51169 7.56934C4.2736 7.36514 4.18814 7.03445 4.29685 6.74023C4.40574 6.44588 4.68612 6.25 4.99998 6.25H19Z" fill="#48465C"/>
</svg>
