<svg width="24" height="24" viewBox="0 0 24 24" fill="none" xmlns="http://www.w3.org/2000/svg">
<path d="M11.5117 10.4307C11.7926 10.1899 12.2074 10.1899 12.4883 10.4307L19.4883 16.4307C19.8026 16.7002 19.8388 17.1739 19.5693 17.4883C19.2997 17.8026 18.8261 17.8389 18.5117 17.5694L12 11.9873L5.48827 17.5694C5.17384 17.8389 4.70025 17.8026 4.43065 17.4883C4.16113 17.1739 4.19738 16.7002 4.51171 16.4307L11.5117 10.4307ZM11.5117 6.43068C11.7926 6.18993 12.2074 6.18993 12.4883 6.43068L19.4883 12.4307C19.8026 12.7002 19.8388 13.1739 19.5693 13.4883C19.2997 13.8026 18.8261 13.8389 18.5117 13.5694L12 7.98733L5.48827 13.5694C5.17384 13.8389 4.70025 13.8026 4.43065 13.4883C4.16113 13.1739 4.19738 12.7002 4.51171 12.4307L11.5117 6.43068Z" fill="#48465C"/>
</svg>
