<svg width="24" height="24" viewBox="0 0 24 24" fill="none" xmlns="http://www.w3.org/2000/svg">
<path d="M16.4307 4.51167C16.6349 4.27358 16.9655 4.18807 17.2598 4.29683C17.5542 4.40572 17.75 4.6861 17.75 4.99996V19C17.75 19.3138 17.5542 19.5942 17.2598 19.7031C16.9655 19.8118 16.6349 19.7263 16.4307 19.4882L10.4307 12.4882C10.1899 12.2074 10.1899 11.7925 10.4307 11.5117L16.4307 4.51167ZM12.4307 4.51167C12.7002 4.19735 13.1739 4.1611 13.4883 4.43062C13.8026 4.70022 13.8389 5.17381 13.5694 5.48824L7.98733 12L13.5694 18.5117C13.8389 18.8261 13.8026 19.2997 13.4883 19.5693C13.1739 19.8387 12.7002 19.8026 12.4307 19.4882L6.43068 12.4882C6.18993 12.2073 6.18993 11.7926 6.43068 11.5117L12.4307 4.51167Z" fill="#48465C"/>
</svg>
