<svg width="24" height="24" viewBox="0 0 24 24" fill="none" xmlns="http://www.w3.org/2000/svg">
<path d="M18.5117 10.4307C18.8262 10.1611 19.2997 10.1974 19.5693 10.5117C19.8388 10.8262 19.8026 11.2997 19.4883 11.5694L12.4883 17.5694C12.2074 17.8101 11.7926 17.8101 11.5117 17.5694L4.51172 11.5694C4.19738 11.2997 4.16114 10.8262 4.43067 10.5117C4.70026 10.1974 5.17384 10.1611 5.48829 10.4307L12 16.0117L18.5117 10.4307ZM18.5117 6.43069C18.8262 6.16117 19.2997 6.1974 19.5693 6.51175C19.8388 6.82618 19.8026 7.29977 19.4883 7.56936L12.4883 13.5694C12.2074 13.8101 11.7926 13.8101 11.5117 13.5694L4.51172 7.56936C4.19736 7.29977 4.16114 6.82619 4.43067 6.51175C4.70026 6.19741 5.17384 6.16117 5.48829 6.43069L12 12.0117L18.5117 6.43069Z" fill="#48465C"/>
</svg>
