<svg width="24" height="24" viewBox="0 0 24 24" fill="none" xmlns="http://www.w3.org/2000/svg">
<path d="M12.4307 4.51172C12.7002 4.19744 13.1739 4.16117 13.4883 4.43066C13.8026 4.70026 13.8388 5.17385 13.5693 5.48828L7.98731 12L13.5693 18.5117C13.8388 18.8261 13.8025 19.2997 13.4883 19.5693C13.1738 19.8388 12.7002 19.8026 12.4307 19.4883L6.43067 12.4883C6.18992 12.2074 6.18992 11.7926 6.43067 11.5117L12.4307 4.51172ZM16.4307 4.51172C16.7002 4.19743 17.1739 4.16116 17.4883 4.43066C17.8025 4.70028 17.8388 5.17388 17.5693 5.48828L11.9873 12L17.5693 18.5117C17.8388 18.8261 17.8025 19.2997 17.4883 19.5693C17.1739 19.8388 16.7002 19.8025 16.4307 19.4883L10.4307 12.4883C10.1899 12.2074 10.1899 11.7926 10.4307 11.5117L16.4307 4.51172Z" fill="#48465C"/>
</svg>
