<svg width="24" height="24" viewBox="0 0 24 24" fill="none" xmlns="http://www.w3.org/2000/svg">
<path d="M6.51171 4.43067C6.82618 4.16112 7.29976 4.1973 7.56933 4.51172L13.5693 11.5117C13.8101 11.7926 13.8101 12.2074 13.5693 12.4883L7.56933 19.4883C7.29976 19.8027 6.82618 19.8388 6.51171 19.5693C6.19728 19.2997 6.16111 18.8262 6.43065 18.5117L12.0117 12L6.43065 5.48828C6.16109 5.17379 6.19724 4.70024 6.51171 4.43067ZM10.5117 4.43067C10.8261 4.16116 11.2998 4.19742 11.5693 4.51172L17.5693 11.5117C17.8101 11.7926 17.8101 12.2074 17.5693 12.4883L11.5693 19.4883C11.2998 19.8027 10.8262 19.8388 10.5117 19.5693C10.1974 19.2997 10.1611 18.8261 10.4307 18.5117L16.0117 12L10.4307 5.48828C10.1611 5.17382 10.1973 4.70024 10.5117 4.43067Z" fill="#48465C"/>
</svg>
