<svg width="24" height="24" viewBox="0 0 24 24" fill="none" xmlns="http://www.w3.org/2000/svg">
<path fill-rule="evenodd" clip-rule="evenodd" d="M6.74023 4.29691C7.03445 4.18821 7.36514 4.27366 7.56934 4.51176L13.5693 11.5118C13.8101 11.7926 13.8101 12.2075 13.5693 12.4883L7.56934 19.4883C7.36514 19.7264 7.03445 19.8119 6.74023 19.7032C6.44589 19.5943 6.25002 19.3139 6.25 19V5.00004C6.25 4.68618 6.44588 4.4058 6.74023 4.29691ZM10.5117 4.4307C10.8262 4.16117 11.2998 4.19739 11.5693 4.51176L17.5693 11.5118C17.8101 11.7927 17.8101 12.2074 17.5693 12.4883L11.5693 19.4883C11.2998 19.8027 10.8262 19.8388 10.5117 19.5694C10.1974 19.2997 10.1611 18.8262 10.4307 18.5118L16.0117 12L10.4307 5.48832C10.1611 5.17387 10.1974 4.7003 10.5117 4.4307Z" fill="#48465C"/>
</svg>
