<svg width="24" height="24" viewBox="0 0 24 24" fill="none" xmlns="http://www.w3.org/2000/svg">
<path d="M14.4415 2.6749C16.342 0.774471 19.4236 0.774616 21.3243 2.6749C23.225 4.57558 23.225 7.65801 21.3243 9.55869L20.3995 10.4835L20.961 11.045C21.8565 11.9408 21.8567 13.3934 20.961 14.2892C20.0653 15.1849 18.6127 15.1847 17.7169 14.2892L17.1554 13.7276L10.9952 19.8878C10.6048 20.2787 10.2997 20.5837 9.92491 20.7823C9.67659 20.9139 9.40997 21.0073 9.13389 21.0597C8.71726 21.1386 8.28913 21.0917 7.74034 21.0304C7.70941 21.0269 7.67733 21.0231 7.64561 21.0196L7.171 20.9669C6.9838 20.9461 6.93104 20.9409 6.88487 20.9396C6.56181 20.9302 6.24649 21.0409 6.0001 21.2501C5.965 21.2799 5.92769 21.3167 5.79503 21.4493L5.16612 22.0782C4.27036 22.974 2.81778 22.9739 1.92198 22.0782C1.02619 21.1824 1.02623 19.7299 1.92198 18.8341L2.55088 18.2052C2.68396 18.0721 2.72022 18.0343 2.7501 17.9991C2.95927 17.7527 3.07007 17.4375 3.06065 17.1144C3.05929 17.0682 3.05407 17.016 3.03331 16.8292L2.98057 16.3536C2.97706 16.322 2.97328 16.2906 2.96983 16.2599C2.90845 15.711 2.86054 15.2831 2.93956 14.8663C2.99197 14.59 3.08617 14.3229 3.21788 14.0743C3.41652 13.6997 3.72066 13.3952 4.11143 13.005C4.13346 12.983 4.15625 12.9612 4.17881 12.9386L10.2726 6.84483L9.71104 6.2833C8.81523 5.38749 8.81523 3.93497 9.71104 3.03916C10.6069 2.14339 12.0594 2.14336 12.9552 3.03916L13.5167 3.60069L14.4415 2.6749ZM5.23936 13.9991C4.75098 14.4875 4.62273 14.6264 4.54307 14.7765C4.48173 14.8922 4.4376 15.017 4.41319 15.1456C4.3815 15.3127 4.39544 15.5015 4.47178 16.1886L4.52745 16.6896C4.54413 16.8394 4.55632 16.9563 4.55967 17.0714C4.57978 17.7649 4.34273 18.4418 3.89366 18.9708C3.81927 19.0584 3.7364 19.1408 3.62999 19.2472L2.98253 19.8946C2.67254 20.2046 2.67251 20.7077 2.98253 21.0177C3.29254 21.3275 3.7956 21.3276 4.10557 21.0177L4.75206 20.3702C4.8586 20.2636 4.94169 20.181 5.0294 20.1065C5.55841 19.6574 6.23516 19.4194 6.92881 19.4396C7.04398 19.443 7.16063 19.4561 7.31065 19.4728L7.81163 19.5284C8.4982 19.6047 8.68661 19.6176 8.85362 19.586C8.98228 19.5616 9.10704 19.5185 9.22276 19.4571C9.37303 19.3775 9.5123 19.2496 10.0011 18.7608L11.4396 17.3224L10.1163 15.9991C9.82347 15.7063 9.82355 15.2315 10.1163 14.9386C10.4092 14.6457 10.884 14.6457 11.1769 14.9386L12.5001 16.2618L13.4396 15.3224L12.1163 13.9991C11.8235 13.7063 11.8235 13.2315 12.1163 12.9386C12.4092 12.6457 12.884 12.6457 13.1769 12.9386L14.5001 14.2618L16.0948 12.6671L11.3331 7.90537L5.23936 13.9991ZM20.2638 3.73643C18.949 2.42155 16.817 2.42155 15.5021 3.73643L14.047 5.19151C13.9065 5.33209 13.7155 5.41115 13.5167 5.41123C13.3179 5.41123 13.127 5.33207 12.9864 5.19151L11.8946 4.09971C11.5846 3.78969 11.0816 3.78972 10.7716 4.09971C10.4616 4.40973 10.4616 4.91274 10.7716 5.22276L18.7774 13.2286C19.0874 13.5382 19.5896 13.5381 19.8995 13.2286C20.2096 12.9186 20.2096 12.4156 19.8995 12.1056L18.8087 11.0138C18.5158 10.7209 18.5158 10.2461 18.8087 9.95323L20.2638 8.49717C21.5785 7.18232 21.5785 5.05128 20.2638 3.73643Z" fill="#48465C"/>
</svg>
