<svg width="24" height="24" viewBox="0 0 24 24" fill="none" xmlns="http://www.w3.org/2000/svg">
<path fill-rule="evenodd" clip-rule="evenodd" d="M16.0948 13.7276L15.0303 14.792L13.1768 12.9385C12.8839 12.6456 12.409 12.6456 12.1162 12.9385C11.8234 13.2314 11.8234 13.7062 12.1162 13.999L13.9698 15.8526L13.0303 16.792L11.1768 14.9385C10.8839 14.6456 10.409 14.6456 10.1162 14.9385C9.82341 15.2314 9.82334 15.7062 10.1162 15.999L11.9698 17.8526L10.5313 19.291C10.0753 19.747 9.84735 19.9754 9.57425 20.1201C9.39222 20.2165 9.19656 20.2849 8.99417 20.3233C8.6905 20.3809 8.36949 20.3456 7.72855 20.2744L7.25296 20.2207C7.07846 20.2014 6.99105 20.192 6.90726 20.1895C6.39879 20.1747 5.90247 20.3486 5.51468 20.6778C5.45072 20.732 5.38897 20.7947 5.26468 20.919L4.63577 21.5479C4.03288 22.1507 3.05509 22.1507 2.45218 21.5479C1.84927 20.945 1.84928 19.9672 2.45218 19.3643L3.08108 18.7354C3.20537 18.6111 3.268 18.5493 3.3223 18.4854C3.6515 18.0976 3.82539 17.6012 3.81058 17.0928C3.80813 17.0089 3.79779 16.921 3.77835 16.7461L3.72562 16.2715C3.65441 15.6306 3.6192 15.3095 3.67679 15.0059C3.7152 14.8034 3.78346 14.6079 3.87991 14.4258C4.02464 14.1527 4.25303 13.9248 4.70901 13.4688L10.2725 7.90529L16.0948 13.7276ZM14.9717 3.20607C16.5794 1.5983 19.1863 1.5983 20.794 3.20607C22.4016 4.81386 22.4017 7.42061 20.794 9.02834L19.3389 10.4834L20.4307 11.5752C21.0334 12.1781 21.0335 13.156 20.4307 13.7588C19.8279 14.3616 18.85 14.3615 18.2471 13.7588L10.2412 5.75295C9.63828 5.15004 9.63827 4.17226 10.2412 3.56935C10.8441 2.96647 11.8219 2.96644 12.4248 3.56935L13.5166 4.66115L14.9717 3.20607Z" fill="#48465C"/>
</svg>
