<svg width="24" height="24" viewBox="0 0 24 24" fill="none" xmlns="http://www.w3.org/2000/svg">
<path fill-rule="evenodd" clip-rule="evenodd" d="M19.4996 11.4804C19.8511 11.5299 20.1694 11.727 20.3853 12.0283C20.5472 12.2542 20.6285 12.5762 20.7896 13.2207L21.481 15.9873C21.6422 16.6317 21.7228 16.9539 21.6881 17.2363C21.6419 17.6128 21.4585 17.9543 21.1773 18.1855C20.9664 18.3589 20.6647 18.4454 20.0631 18.6181C19.4618 18.7907 19.1606 18.877 18.8971 18.8398C18.5456 18.7902 18.2271 18.5931 18.0113 18.292C17.8494 18.066 17.6824 17.3974 17.5211 16.7529L11.5484 18.4677C11.7096 19.1121 11.8771 19.7801 11.8424 20.0625C11.796 20.439 11.6119 20.7805 11.3307 21.0117C11.1197 21.185 10.8189 21.2717 10.2174 21.4443C9.61599 21.6169 9.3149 21.703 9.05135 21.666C8.69989 21.6164 8.38047 21.4193 8.16463 21.1181C8.00275 20.8921 7.92253 20.5693 7.76131 19.9248L7.06893 17.1582C6.90779 16.514 6.8272 16.1915 6.8619 15.9092C6.90825 15.5328 7.09242 15.1911 7.37362 14.9599C7.58455 14.7867 7.8856 14.7009 8.4869 14.5283C9.08837 14.3557 9.38933 14.2695 9.65292 14.3066C10.0044 14.3561 10.3238 14.5532 10.5396 14.8545C10.7015 15.0807 10.8687 15.7485 11.0299 16.3925L17.0015 14.6787C16.8404 14.0345 16.6741 13.3666 16.7086 13.084C16.7549 12.7075 16.939 12.3659 17.2203 12.1347C17.4313 11.9614 17.7319 11.8748 18.3336 11.7021C18.9352 11.5294 19.2359 11.4432 19.4996 11.4804ZM3.66659 2.22165C3.92333 2.14745 4.23246 2.19038 4.85018 2.27634C5.46783 2.36229 5.7769 2.40488 6.00741 2.54685C6.31478 2.73618 6.53907 3.04932 6.63143 3.41599C6.70053 3.69122 6.6179 4.37671 6.53768 5.03806L12.6685 5.89157C12.7488 5.23006 12.8319 4.54391 12.9644 4.29685C13.1412 3.96762 13.4337 3.72683 13.776 3.6279C14.0325 3.55389 14.3415 3.59671 14.9586 3.68259C15.5762 3.76853 15.8853 3.8121 16.1158 3.95407C16.4232 4.14338 16.6474 4.45561 16.7398 4.82224C16.8091 5.09724 16.7692 5.42817 16.689 6.08981L16.3443 8.92966C16.2641 9.59129 16.224 9.92205 16.0914 10.1689C15.9146 10.4982 15.6231 10.739 15.2808 10.8379C15.0243 10.9119 14.7155 10.869 14.0982 10.7832C13.4809 10.6972 13.1715 10.6545 12.941 10.5127C12.6336 10.3233 12.4084 10.0102 12.316 9.64352C12.2469 9.36825 12.3305 8.68275 12.4107 8.02145L6.27889 7.16794C6.19864 7.82959 6.11555 8.51575 5.98299 8.76267C5.80623 9.09184 5.51474 9.3327 5.17245 9.43161C4.91571 9.5058 4.60656 9.46288 3.98885 9.37692C3.37123 9.29097 3.06213 9.24743 2.83163 9.10544C2.52443 8.9161 2.29993 8.60381 2.2076 8.23727C2.13833 7.96227 2.17814 7.63133 2.25838 6.9697L2.60311 4.12985C2.68332 3.46851 2.72362 3.13748 2.85604 2.8906C3.03274 2.56146 3.32439 2.32062 3.66659 2.22165Z" fill="#48465C"/>
</svg>
