<svg width="24" height="24" viewBox="0 0 24 24" fill="none" xmlns="http://www.w3.org/2000/svg">
<path fill-rule="evenodd" clip-rule="evenodd" d="M11.77 1.3286C12.1612 1.22381 12.5731 1.22379 12.9643 1.3286C13.3143 1.42241 13.5989 1.61013 13.8608 1.8286C14.1091 2.03556 14.3862 2.3138 14.7095 2.6372L15.3032 3.23095C15.5707 2.96451 15.8182 2.72486 16.0483 2.54931C16.3418 2.32542 16.6943 2.13622 17.1392 2.13622C17.584 2.13628 17.9365 2.3254 18.23 2.54931C18.4973 2.75324 18.7875 3.04328 19.1059 3.36181L20.6382 4.89403C20.9568 5.21252 21.2468 5.50273 21.4507 5.77001C21.6747 6.06349 21.8637 6.41594 21.8638 6.86083C21.8638 7.30569 21.6746 7.65818 21.4507 7.95165C21.2752 8.18167 21.0353 8.42843 20.769 8.69579L21.3628 9.29052C21.6862 9.61389 21.9644 9.89094 22.1714 10.1392C22.3898 10.4011 22.5776 10.6856 22.6714 11.0356C22.7762 11.4269 22.7762 11.8388 22.6714 12.23C22.5776 12.5801 22.3898 12.8645 22.1714 13.1265C21.9644 13.3747 21.6863 13.6526 21.3628 13.9761L21.3169 14.022C20.9935 14.3453 20.7155 14.6227 20.4673 14.8296C20.2054 15.0479 19.9216 15.2358 19.5718 15.3296C19.1806 15.4345 18.7686 15.4344 18.3774 15.3296C18.0273 15.2358 17.7429 15.0481 17.4809 14.8296C17.2328 14.6227 16.9548 14.3454 16.6313 14.022L16.0376 13.4272L13.4272 16.0376L14.021 16.6313C14.3445 16.9548 14.6227 17.2328 14.8296 17.4809C15.0481 17.7429 15.2358 18.0273 15.3296 18.3774C15.4344 18.7686 15.4345 19.1805 15.3296 19.5718C15.2358 19.9216 15.048 20.2054 14.8296 20.4673C14.6227 20.7155 14.3453 20.9935 14.022 21.3169L13.9751 21.3628C13.6518 21.6862 13.3746 21.9644 13.1265 22.1714C12.8645 22.3898 12.5801 22.5776 12.23 22.6714C11.8388 22.7762 11.4269 22.7762 11.0356 22.6714C10.6856 22.5776 10.4011 22.3898 10.1392 22.1714C9.89094 21.9644 9.6139 21.6861 9.29052 21.3628L8.69579 20.769C8.42843 21.0353 8.18167 21.2752 7.95165 21.4507C7.65818 21.6746 7.30569 21.8638 6.86083 21.8638C6.41594 21.8637 6.06349 21.6747 5.77001 21.4507C5.50273 21.2468 5.21252 20.9568 4.89403 20.6382L3.36181 19.1059C3.04327 18.7875 2.75324 18.4973 2.54931 18.23C2.3254 17.9365 2.13628 17.584 2.13622 17.1392C2.13622 16.6943 2.32542 16.3418 2.54931 16.0483C2.72486 15.8182 2.96451 15.5707 3.23095 15.3032L2.65966 14.7329L2.6372 14.7095C2.31381 14.3861 2.03555 14.1091 1.8286 13.8608C1.61013 13.5989 1.42241 13.3143 1.3286 12.9643C1.22379 12.5731 1.22381 12.1612 1.3286 11.77C1.4224 11.4199 1.61012 11.1355 1.8286 10.8735C2.03558 10.6253 2.3137 10.3474 2.6372 10.0239L2.6831 9.97802C3.00643 9.65466 3.28455 9.37731 3.53271 9.1704C3.79462 8.95204 4.07836 8.7642 4.42821 8.6704C4.8194 8.56558 5.23136 8.56562 5.62255 8.6704C5.97262 8.76421 6.25699 8.95191 6.51903 9.1704C6.76723 9.37736 7.04525 9.65459 7.36864 9.97802L7.96239 10.5727L10.5727 7.96239L9.97802 7.36864C9.65459 7.04525 9.37736 6.76723 9.1704 6.51903C8.95191 6.25699 8.76421 5.97262 8.6704 5.62255C8.56562 5.23136 8.56559 4.8194 8.6704 4.42821C8.76421 4.07836 8.95204 3.79462 9.1704 3.53271C9.37731 3.28455 9.65466 3.00643 9.97802 2.6831L10.0239 2.6372C10.3474 2.3137 10.6253 2.03558 10.8735 1.8286C11.1355 1.61012 11.4199 1.4224 11.77 1.3286ZM5.23485 10.1186C5.09806 10.0821 4.95369 10.0821 4.81689 10.1186C4.76389 10.1328 4.67447 10.1712 4.49267 10.3227C4.30298 10.481 4.07283 10.7094 3.72021 11.062C3.36749 11.4148 3.13913 11.6447 2.98095 11.8345C2.82982 12.0157 2.79211 12.1047 2.77782 12.1577C2.74116 12.2945 2.74119 12.4388 2.77782 12.5757C2.79202 12.6287 2.82936 12.7181 2.98095 12.8999C3.13915 13.0897 3.36747 13.3196 3.72021 13.6724L7.02392 16.9761C7.31676 17.269 7.31679 17.7437 7.02392 18.0366C6.731 18.3292 6.25617 18.3294 5.96337 18.0366L4.2915 16.3647C4.02621 16.6314 3.85526 16.8096 3.74169 16.9585C3.67985 17.0396 3.65377 17.0881 3.64306 17.1138C3.63548 17.1319 3.63613 17.1379 3.63622 17.1392C3.63614 17.141 3.63616 17.147 3.64306 17.1636C3.65371 17.1891 3.6795 17.2383 3.74169 17.3198C3.87701 17.4972 4.09364 17.7157 4.45458 18.0767L5.92333 19.5454C6.28423 19.9063 6.50282 20.1229 6.68017 20.2583C6.76166 20.3205 6.81089 20.3462 6.83642 20.3569C6.85483 20.3646 6.85974 20.3638 6.86083 20.3638C6.86211 20.3639 6.86804 20.3645 6.88622 20.3569C6.91181 20.3462 6.96038 20.3202 7.0415 20.2583C7.21889 20.1229 7.43824 19.9065 7.79931 19.5454C8.29491 19.0499 9.09765 19.0499 9.59325 19.5454L10.3276 20.2798C10.6803 20.6325 10.9103 20.8608 11.1001 21.019C11.2819 21.1706 11.3713 21.208 11.4243 21.2222C11.5611 21.2588 11.7055 21.2588 11.8423 21.2222C11.8953 21.2079 11.9843 21.1701 12.1655 21.019C12.3553 20.8609 12.5852 20.6325 12.938 20.2798C13.2906 19.9272 13.5189 19.697 13.6772 19.5073C13.8288 19.3255 13.8671 19.2361 13.8813 19.1831C13.9179 19.0463 13.9179 18.902 13.8813 18.7651C13.8671 18.7121 13.8286 18.6235 13.6772 18.4419C13.519 18.2521 13.2907 18.0223 12.938 17.6694L6.33056 11.062C5.97778 10.7093 5.74783 10.481 5.5581 10.3227C5.37654 10.1714 5.28788 10.1329 5.23485 10.1186ZM9.02294 11.6333L12.3667 14.977L14.977 12.3667L11.6333 9.02294L9.02294 11.6333ZM12.5757 2.77782C12.4388 2.74119 12.2945 2.74116 12.1577 2.77782C12.1047 2.79211 12.0157 2.82982 11.8345 2.98095C11.6447 3.13913 11.4148 3.36749 11.062 3.72021C10.7094 4.07283 10.481 4.30298 10.3227 4.49267C10.1712 4.67447 10.1328 4.76389 10.1186 4.81689C10.0821 4.95369 10.0821 5.09805 10.1186 5.23485C10.1329 5.28788 10.1714 5.37654 10.3227 5.5581C10.481 5.74783 10.7093 5.97778 11.062 6.33056L17.6694 12.938C18.0223 13.2907 18.2521 13.519 18.4419 13.6772C18.6235 13.8286 18.7121 13.8671 18.7651 13.8813C18.902 13.9179 19.0463 13.9179 19.1831 13.8813C19.2361 13.8671 19.3255 13.8287 19.5073 13.6772C19.697 13.5189 19.9272 13.2906 20.2798 12.938C20.6325 12.5852 20.8609 12.3553 21.019 12.1655C21.1701 11.9843 21.2079 11.8953 21.2222 11.8423C21.2588 11.7055 21.2588 11.5611 21.2222 11.4243C21.208 11.3713 21.1706 11.2819 21.019 11.1001C20.8608 10.9103 20.6325 10.6803 20.2798 10.3276L19.5454 9.59325C19.0499 9.09765 19.0499 8.29491 19.5454 7.79931C19.9065 7.43824 20.1229 7.21889 20.2583 7.0415C20.3202 6.96038 20.3462 6.91181 20.3569 6.88622C20.3645 6.86804 20.3639 6.86211 20.3638 6.86083C20.3639 6.85902 20.3638 6.85298 20.3569 6.83642C20.3462 6.81089 20.3205 6.76166 20.2583 6.68017C20.1229 6.50282 19.9063 6.28423 19.5454 5.92333L18.0767 4.45458C17.7157 4.09365 17.4972 3.87701 17.3198 3.74169C17.2383 3.6795 17.1891 3.65371 17.1636 3.64306C17.1457 3.63558 17.1404 3.63613 17.1392 3.63622C17.1383 3.63621 17.1332 3.63493 17.1138 3.64306C17.0881 3.65377 17.0396 3.67985 16.9585 3.74169C16.8096 3.85526 16.6314 4.02621 16.3647 4.2915L18.0366 5.96337C18.3294 6.25617 18.3292 6.731 18.0366 7.02392C17.7437 7.31679 17.269 7.31676 16.9761 7.02392L13.6724 3.72021C13.3196 3.36747 13.0897 3.13915 12.8999 2.98095C12.7181 2.82936 12.6287 2.79202 12.5757 2.77782Z" fill="#48465C"/>
</svg>
