<svg width="24" height="24" viewBox="0 0 24 24" fill="none" xmlns="http://www.w3.org/2000/svg">
<path d="M11.9639 2.05258C12.228 1.98182 12.5065 1.98182 12.7705 2.05258C13.1735 2.16068 13.5163 2.50434 14.2022 3.19028L15.3037 4.29086L15.6709 3.92465C16.363 3.23265 16.7088 2.88574 17.1387 2.88559C17.5688 2.88559 17.9152 3.2325 18.6074 3.92465L20.0752 5.39243C20.7673 6.08459 21.1133 6.43113 21.1133 6.86118C21.1131 7.29106 20.7671 7.63699 20.0752 8.32895L19.7041 8.70004L20.0752 9.06332L20.8096 9.7977C21.4956 10.4836 21.8392 10.8264 21.9473 11.2293C22.0181 11.4933 22.0181 11.7719 21.9473 12.036C21.8393 12.4391 21.4958 12.7824 20.8096 13.4686C20.1237 14.1545 19.78 14.4973 19.377 14.6053C19.1131 14.676 18.8352 14.6761 18.5713 14.6053C18.1682 14.4973 17.8247 14.1546 17.1387 13.4686L16.0381 12.367L12.3672 16.0379L13.4678 17.1385C14.1539 17.8246 14.4975 18.168 14.6055 18.5711C14.6763 18.835 14.6762 19.1129 14.6055 19.3768C14.4975 19.7799 14.1539 20.1233 13.4678 20.8094C12.7818 21.4955 12.4392 21.8391 12.0362 21.9471C11.7721 22.0179 11.4935 22.0179 11.2295 21.9471C10.8265 21.839 10.4838 21.4954 9.79787 20.8094L8.69631 19.7079L8.32912 20.075C7.63717 20.7669 7.29123 21.1139 6.86135 21.1141C6.4313 21.1141 6.08476 20.7671 5.3926 20.075L3.92483 18.6073C3.23267 17.9151 2.88577 17.5686 2.88577 17.1385C2.88593 16.7087 3.23283 16.3628 3.92483 15.6707L4.29104 15.3036L3.19045 14.202C2.50451 13.5161 2.16087 13.1733 2.05276 12.7704C1.98201 12.5064 1.98201 12.2278 2.05276 11.9637C2.16078 11.5606 2.50433 11.2173 3.19045 10.5311C3.87614 9.84542 4.21926 9.50249 4.62209 9.39438C4.88614 9.32362 5.16467 9.32362 5.42873 9.39438C5.83178 9.50239 6.17526 9.84502 6.86135 10.5311L7.96194 11.6327L11.6328 7.96176L10.5313 6.86118C9.84519 6.17508 9.50257 5.8316 9.39455 5.42856C9.32379 5.1645 9.32379 4.88597 9.39455 4.62192C9.50268 4.21909 9.8456 3.87596 10.5313 3.19028C11.2175 2.50414 11.5608 2.16058 11.9639 2.05258Z" fill="#48465C"/>
</svg>
