<svg width="24" height="24" viewBox="0 0 24 24" fill="none" xmlns="http://www.w3.org/2000/svg">
<path d="M19.5001 11.4809C19.8514 11.5305 20.1701 11.7276 20.3859 12.0287C20.5477 12.2546 20.6281 12.5769 20.7892 13.2211L21.4816 15.9877C21.6428 16.6321 21.7233 16.9544 21.6886 17.2367C21.6424 17.6133 21.4582 17.9548 21.1769 18.1859C20.966 18.3593 20.6651 18.4459 20.0636 18.6186C19.4622 18.7912 19.1611 18.8774 18.8976 18.8402C18.546 18.7906 18.2267 18.5937 18.0109 18.2924C17.849 18.0664 17.682 17.3978 17.5207 16.7533L11.549 18.4682C11.7101 19.1125 11.8766 19.7806 11.8419 20.0629C11.7956 20.4394 11.6114 20.781 11.3302 21.0121C11.1192 21.1853 10.8183 21.2712 10.2169 21.4438C9.61531 21.6164 9.31455 21.7036 9.05093 21.6664C8.69958 21.6168 8.38101 21.4196 8.16519 21.1186C8.00331 20.8926 7.92211 20.5697 7.76089 19.9252L7.06948 17.1586C6.90832 16.5143 6.82775 16.1919 6.86245 15.9096C6.90881 15.5333 7.09205 15.1915 7.37319 14.9604C7.58416 14.787 7.88577 14.7014 8.48745 14.5287C9.089 14.3561 9.38985 14.2689 9.65347 14.3061C10.0049 14.3556 10.3234 14.5536 10.5392 14.8549C10.7011 15.081 10.8682 15.7487 11.0294 16.393L17.0021 14.6791C16.841 14.035 16.6737 13.3671 16.7082 13.0844C16.7544 12.708 16.9387 12.3664 17.2199 12.1352C17.4308 11.9619 17.7317 11.8752 18.3332 11.7026C18.9349 11.5299 19.2364 11.4437 19.5001 11.4809ZM3.66714 2.22208C3.92378 2.14797 4.23248 2.19087 4.84976 2.27677C5.46712 2.36268 5.7765 2.40547 6.00698 2.54728C6.31435 2.73661 6.53962 3.04975 6.63198 3.41642C6.70101 3.69176 6.61746 4.37724 6.53726 5.03849L12.6691 5.892C12.7494 5.23034 12.8324 4.5442 12.965 4.29728C13.1418 3.96807 13.4333 3.72726 13.7755 3.62833C14.0322 3.55414 14.3414 3.59706 14.9591 3.68302C15.5767 3.76896 15.8859 3.81251 16.1164 3.9545C16.4236 4.14385 16.648 4.45613 16.7404 4.82267C16.8097 5.09766 16.7698 5.42864 16.6896 6.09025L16.3449 8.93009C16.2647 9.59155 16.2245 9.9225 16.0919 10.1693C15.9152 10.4986 15.6236 10.7394 15.2814 10.8383C15.0247 10.9125 14.7155 10.8695 14.0978 10.7836C13.4802 10.6976 13.1711 10.6551 12.9406 10.5131C12.6332 10.3237 12.409 10.0107 12.3166 9.64396C12.2474 9.36879 12.33 8.68328 12.4103 8.02189L6.27944 7.16837C6.1992 7.82995 6.11608 8.51611 5.98354 8.7631C5.80678 9.09233 5.51435 9.33312 5.17202 9.43204C4.91542 9.50605 4.6065 9.46323 3.9894 9.37736C3.37179 9.29141 3.06269 9.24782 2.83218 9.10587C2.52487 8.91658 2.30054 8.60429 2.20815 8.23771C2.13888 7.9627 2.17869 7.63178 2.25894 6.97013L2.60366 4.13028C2.6839 3.46877 2.72409 3.13793 2.85659 2.89103C3.03334 2.5618 3.32482 2.321 3.66714 2.22208Z" fill="#48465C"/>
</svg>
