<svg width="24" height="24" viewBox="0 0 24 24" fill="none" xmlns="http://www.w3.org/2000/svg">
<path d="M11.7696 1.32807C12.1607 1.22328 12.5728 1.22337 12.964 1.32807C13.314 1.42187 13.5985 1.61056 13.8605 1.82905C14.1087 2.03601 14.3867 2.31325 14.7101 2.63666L15.3038 3.23041C15.5711 2.9642 15.818 2.72522 16.048 2.54975C16.3414 2.32586 16.694 2.13577 17.1388 2.13569C17.5837 2.13569 17.9361 2.32581 18.2296 2.54975C18.4969 2.75368 18.7871 3.0437 19.1056 3.36225L20.6378 4.89448C20.9564 5.21296 21.2464 5.50318 21.4503 5.77045C21.6743 6.06395 21.8634 6.41636 21.8634 6.86127C21.8633 7.30604 21.6742 7.65866 21.4503 7.95209C21.2749 8.182 21.0358 8.42901 20.7696 8.69623L21.3634 9.28998C21.6868 9.61338 21.964 9.89137 22.171 10.1396C22.3894 10.4016 22.5772 10.6861 22.671 11.0361C22.7757 11.4273 22.7758 11.8393 22.671 12.2304C22.5772 12.5803 22.3893 12.8641 22.171 13.1259C21.964 13.3741 21.6868 13.6521 21.3634 13.9755L21.3175 14.0214C20.994 14.3449 20.7162 14.6231 20.4679 14.83C20.2059 15.0485 19.9214 15.2362 19.5714 15.33C19.1803 15.4349 18.7682 15.4349 18.3771 15.33C18.0272 15.2363 17.7434 15.0483 17.4815 14.83C17.2334 14.6231 16.9554 14.3449 16.6319 14.0214L16.0382 13.4277L13.4278 16.038L14.0216 16.6318C14.345 16.9552 14.6233 17.2332 14.8302 17.4814C15.0485 17.7432 15.2364 18.0271 15.3302 18.3769C15.4351 18.768 15.435 19.18 15.3302 19.5712C15.2364 19.9212 15.0486 20.2058 14.8302 20.4677C14.6233 20.716 14.3451 20.9938 14.0216 21.3173L13.9757 21.3632C13.6524 21.6867 13.3742 21.9639 13.1261 22.1708C12.8642 22.3891 12.5804 22.577 12.2306 22.6708C11.8395 22.7756 11.4274 22.7756 11.0362 22.6708C10.6862 22.577 10.4018 22.3892 10.1398 22.1708C9.89153 21.9639 9.61355 21.6866 9.29014 21.3632L8.69639 20.7695C8.42917 21.0356 8.18216 21.2747 7.95225 21.4501C7.65882 21.6741 7.3062 21.8631 6.86143 21.8632C6.41652 21.8632 6.06411 21.6741 5.77061 21.4501C5.50334 21.2462 5.21312 20.9562 4.89464 20.6376L3.36241 19.1054C3.04385 18.7869 2.75384 18.4967 2.54991 18.2294C2.32597 17.9359 2.13585 17.5835 2.13585 17.1386C2.13593 16.6939 2.32602 16.3412 2.54991 16.0478C2.72538 15.8179 2.96436 15.5709 3.23057 15.3037L2.66026 14.7324L2.63682 14.7099C2.31341 14.3865 2.03616 14.1086 1.82921 13.8603C1.61072 13.5983 1.42203 13.3138 1.32823 12.9638C1.22353 12.5727 1.22344 12.1605 1.32823 11.7695C1.42204 11.4195 1.61078 11.1359 1.82921 10.874C2.03614 10.6258 2.31341 10.3478 2.63682 10.0244L2.68272 9.97846C3.00619 9.65497 3.28409 9.37685 3.53233 9.16987C3.79433 8.95143 4.07881 8.76365 4.42882 8.66987C4.81996 8.56512 5.23202 8.56507 5.62315 8.66987C5.97295 8.76365 6.25678 8.95156 6.51866 9.16987C6.76689 9.37683 7.04481 9.65498 7.36827 9.97846L7.96202 10.5722L10.5724 7.96186L9.97862 7.36811C9.65514 7.04465 9.37699 6.76672 9.17003 6.5185C8.95172 6.25662 8.76381 5.97279 8.67003 5.62299C8.56523 5.23186 8.56529 4.8198 8.67003 4.42865C8.76382 4.07865 8.95159 3.79417 9.17003 3.53217C9.377 3.28394 9.65513 3.00602 9.97862 2.68256L10.0245 2.63666C10.3479 2.31325 10.626 2.03598 10.8741 1.82905C11.1361 1.61062 11.4197 1.42188 11.7696 1.32807ZM5.23448 10.1191C5.09762 10.0825 4.95336 10.0825 4.81651 10.1191C4.76349 10.1333 4.6746 10.1711 4.49327 10.3222C4.30357 10.4805 4.07348 10.7088 3.72081 11.0615C3.36798 11.4144 3.13878 11.6441 2.98057 11.8339C2.82901 12.0157 2.79165 12.1052 2.77745 12.1581C2.74081 12.295 2.74078 12.4393 2.77745 12.5761C2.79167 12.6291 2.82942 12.718 2.98057 12.8994C3.13878 13.0892 3.368 13.319 3.72081 13.6718L7.02452 16.9755C7.31728 17.2684 7.31718 17.7432 7.02452 18.0361C6.73163 18.329 6.25686 18.3289 5.96397 18.0361L4.2921 16.3642C4.02678 16.6309 3.85589 16.8091 3.74229 16.958C3.68003 17.0395 3.65433 17.0886 3.64366 17.1142C3.63629 17.1318 3.63575 17.1371 3.63585 17.1386C3.63576 17.1399 3.63608 17.1459 3.64366 17.164C3.65441 17.1897 3.6803 17.239 3.74229 17.3203C3.87766 17.4976 4.09436 17.7163 4.45518 18.0771L5.92296 19.5449C6.28382 19.9058 6.50246 20.1223 6.67979 20.2578C6.76118 20.3199 6.81043 20.3456 6.83604 20.3564C6.85563 20.3646 6.86063 20.3632 6.86143 20.3632C6.8632 20.3633 6.86895 20.3635 6.88585 20.3564C6.91141 20.3457 6.96049 20.32 7.0421 20.2578C7.21946 20.1223 7.43796 19.9059 7.79893 19.5449C8.29453 19.0494 9.09825 19.0494 9.59385 19.5449L10.3282 20.2792C10.681 20.632 10.9109 20.8613 11.1007 21.0195C11.2821 21.1707 11.371 21.2084 11.4239 21.2226C11.5608 21.2593 11.705 21.2593 11.8419 21.2226C11.8949 21.2084 11.9843 21.1711 12.1661 21.0195C12.3559 20.8613 12.5848 20.6319 12.9376 20.2792C13.2904 19.9264 13.5195 19.6966 13.6778 19.5068C13.829 19.3255 13.8667 19.2366 13.881 19.1835C13.9175 19.0467 13.9175 18.9024 13.881 18.7656C13.8668 18.7126 13.8293 18.6232 13.6778 18.4414C13.5195 18.2516 13.2904 18.0218 12.9376 17.6689L6.33116 11.0615C5.97842 10.7088 5.74842 10.4805 5.5587 10.3222C5.3769 10.1707 5.28748 10.1333 5.23448 10.1191ZM9.02257 11.6328L12.3673 14.9775L14.9776 12.3671L11.6329 9.0224L9.02257 11.6328ZM12.5763 2.77729C12.4394 2.74062 12.2952 2.74065 12.1583 2.77729C12.1053 2.79149 12.0159 2.82885 11.8341 2.98041C11.6443 3.13862 11.4145 3.36782 11.0616 3.72065C10.709 4.07332 10.4806 4.30341 10.3224 4.49311C10.1713 4.67444 10.1335 4.76333 10.1192 4.81635C10.0827 4.9532 10.0827 5.09745 10.1192 5.23432C10.1334 5.28732 10.1709 5.37674 10.3224 5.55854C10.4807 5.74826 10.7089 5.97826 11.0616 6.331L17.669 12.9374C18.0219 13.2902 18.2517 13.5194 18.4415 13.6777C18.6233 13.8292 18.7127 13.8666 18.7657 13.8808C18.9026 13.9174 19.0469 13.9174 19.1837 13.8808C19.2367 13.8665 19.3257 13.8287 19.5069 13.6777C19.6967 13.5194 19.9266 13.2902 20.2794 12.9374C20.6321 12.5847 20.8615 12.3557 21.0196 12.166C21.1712 11.9842 21.2086 11.8947 21.2228 11.8417C21.2594 11.7049 21.2595 11.5606 21.2228 11.4238C21.2086 11.3708 21.1708 11.2819 21.0196 11.1005C20.8614 10.9107 20.6321 10.6808 20.2794 10.3281L19.545 9.59369C19.0496 9.09809 19.0495 8.29437 19.545 7.79877C19.906 7.4378 20.1225 7.2193 20.2579 7.04194C20.3202 6.96033 20.3458 6.91125 20.3565 6.88569C20.364 6.86793 20.3635 6.8627 20.3634 6.86127C20.3635 6.85999 20.3641 6.85406 20.3565 6.83588C20.3458 6.81027 20.32 6.76102 20.2579 6.67963C20.1225 6.50229 19.9059 6.28366 19.545 5.9228L18.0773 4.45502C17.7164 4.09421 17.4977 3.8775 17.3204 3.74213C17.2392 3.68014 17.1899 3.65425 17.1642 3.6435C17.1478 3.63665 17.1417 3.63563 17.1398 3.63569C17.139 3.63569 17.1339 3.63533 17.1144 3.6435C17.0888 3.65416 17.0397 3.67987 16.9581 3.74213C16.8092 3.85573 16.6311 4.02662 16.3644 4.29194L18.0362 5.96381C18.3291 6.2567 18.3291 6.73147 18.0362 7.02436C17.7433 7.31702 17.2685 7.31712 16.9757 7.02436L13.672 3.72065C13.3192 3.36783 13.0893 3.13862 12.8995 2.98041C12.7182 2.82926 12.6293 2.79151 12.5763 2.77729Z" fill="#48465C"/>
</svg>
