<svg width="24" height="24" viewBox="0 0 24 24" fill="none" xmlns="http://www.w3.org/2000/svg">
<path d="M6.58398 6.25005C6.96464 6.24965 7.29297 6.24979 7.58203 6.3272C8.35849 6.53525 8.9648 7.14157 9.17285 7.91802C9.25031 8.2071 9.2504 8.5354 9.25 8.91607V11.2501H14.75V8.91607C14.7496 8.5354 14.7497 8.2071 14.8271 7.91802C15.0351 7.14157 15.6415 6.53525 16.418 6.3272C16.707 6.24978 17.0353 6.24964 17.416 6.25005H17.584C17.9647 6.24964 18.293 6.24978 18.582 6.3272C19.3585 6.53525 19.9649 7.14157 20.1729 7.91802C20.2503 8.20709 20.2504 8.53541 20.25 8.91607V9.26177C21.6515 9.38809 22.7499 10.5656 22.75 12.0001C22.75 13.4346 21.6516 14.613 20.25 14.7393V15.084C20.2504 15.4648 20.2504 15.7939 20.1729 16.0831C19.9647 16.8592 19.3584 17.4658 18.582 17.6739C18.293 17.7512 17.9646 17.7505 17.584 17.7501H17.416C17.0354 17.7505 16.707 17.7512 16.418 17.6739C15.6416 17.4658 15.0353 16.8592 14.8271 16.0831C14.7496 15.7939 14.7496 15.4648 14.75 15.084V12.7501H9.25V15.084C9.2504 15.4648 9.25033 15.7939 9.17285 16.0831C8.96466 16.8592 8.35831 17.4658 7.58203 17.6739C7.293 17.7512 6.96457 17.7505 6.58398 17.7501H6.41602C6.03543 17.7505 5.707 17.7512 5.41797 17.6739C4.64169 17.4658 4.03534 16.8592 3.82715 16.0831C3.74967 15.7939 3.7496 15.4648 3.75 15.084V14.7393C2.34837 14.613 1.25 13.4346 1.25 12.0001C1.25008 10.5656 2.34843 9.38809 3.75 9.26177V8.91607C3.7496 8.5354 3.74969 8.2071 3.82715 7.91802C4.0352 7.14157 4.64151 6.53525 5.41797 6.3272C5.70703 6.24979 6.03536 6.24965 6.41602 6.25005H6.58398ZM6.5 7.75005C5.98673 7.75005 5.87699 7.75633 5.80566 7.77544C5.54701 7.8448 5.34481 8.04709 5.27539 8.30572C5.25627 8.37705 5.25 8.48692 5.25 9.00005V15.0001C5.25 15.5134 5.25627 15.6231 5.27539 15.6944C5.34473 15.9532 5.54696 16.1552 5.80566 16.2247C5.87699 16.2438 5.98673 16.2501 6.5 16.2501C7.01327 16.2501 7.12301 16.2438 7.19434 16.2247C7.45304 16.1552 7.65527 15.9532 7.72461 15.6944C7.74373 15.6231 7.75 15.5134 7.75 15.0001V9.00005C7.75 8.48693 7.74373 8.37705 7.72461 8.30572C7.65519 8.04709 7.45299 7.8448 7.19434 7.77544C7.12301 7.75633 7.01327 7.75005 6.5 7.75005ZM17.5 7.75005C16.9867 7.75005 16.877 7.75633 16.8057 7.77544C16.547 7.8448 16.3448 8.04709 16.2754 8.30572C16.2562 8.37704 16.25 8.48692 16.25 9.00005V15.0001C16.25 15.5134 16.2562 15.6231 16.2754 15.6944C16.3447 15.9532 16.547 16.1552 16.8057 16.2247C16.877 16.2438 16.9867 16.2501 17.5 16.2501C18.0133 16.2501 18.123 16.2438 18.1943 16.2247C18.453 16.1552 18.6553 15.9532 18.7246 15.6944C18.7438 15.6231 18.75 15.5134 18.75 15.0001V9.00005C18.75 8.48692 18.7438 8.37705 18.7246 8.30572C18.6552 8.04709 18.453 7.8448 18.1943 7.77544C18.123 7.75633 18.0133 7.75005 17.5 7.75005ZM3.75 10.7754C3.17951 10.8913 2.75007 11.3954 2.75 12.0001C2.75 12.6049 3.17944 13.1098 3.75 13.2256V10.7754ZM20.25 13.2256C20.8206 13.1098 21.25 12.6049 21.25 12.0001C21.2499 11.3954 20.8205 10.8913 20.25 10.7754V13.2256Z" fill="#48465C"/>
</svg>
