<svg width="24" height="24" viewBox="0 0 24 24" fill="none" xmlns="http://www.w3.org/2000/svg">
<path d="M19.605 10.737C20.1692 10.8167 20.6663 11.1319 20.9956 11.5915C21.1416 11.7954 21.231 12.0161 21.3022 12.2389C21.3702 12.4515 21.4363 12.713 21.5122 13.0163L22.2143 15.8268C22.2903 16.1302 22.3557 16.3918 22.396 16.612C22.4385 16.8438 22.4636 17.0797 22.4331 17.3278C22.3644 17.8863 22.0902 18.4054 21.6538 18.7643C21.4568 18.9263 21.2407 19.0269 21.0249 19.1061C20.8226 19.1802 20.5749 19.2513 20.2944 19.3317L20.2466 19.3454C19.9662 19.4258 19.7185 19.4975 19.5083 19.5417C19.2851 19.5886 19.0468 19.6185 18.7925 19.5827C18.2282 19.503 17.7312 19.1879 17.4018 18.7282C17.236 18.4966 17.1237 18.1496 17.0474 17.8932C17.0276 17.8265 17.0075 17.757 16.9878 17.6862L12.4477 18.9899C12.4681 19.0791 12.4873 19.1665 12.5044 19.2506C12.5585 19.5161 12.621 19.8725 12.5864 20.154C12.5177 20.7125 12.2437 21.2317 11.8071 21.5905C11.6102 21.7525 11.3949 21.8532 11.1792 21.9323C10.9767 22.0066 10.7284 22.0773 10.4477 22.1579L10.4009 22.1715C10.1204 22.252 9.8719 22.3236 9.66161 22.3678C9.43856 22.4147 9.20089 22.4436 8.94677 22.4079C8.38235 22.3283 7.88453 22.0142 7.55517 21.5544C7.40915 21.3505 7.31977 21.1297 7.24853 20.9069C7.18057 20.6943 7.11543 20.432 7.03954 20.1286L6.33642 17.319C6.26046 17.0154 6.19511 16.7532 6.15478 16.5329C6.11237 16.3012 6.0872 16.0659 6.11767 15.818C6.18634 15.2592 6.46121 14.7394 6.89794 14.3805C7.09486 14.2188 7.31026 14.1188 7.52587 14.0397C7.72834 13.9654 7.97654 13.8947 8.25732 13.8141L8.30419 13.8004C8.58475 13.7199 8.83317 13.6483 9.04345 13.6042C9.26649 13.5573 9.5042 13.5273 9.75829 13.5631C10.3227 13.6427 10.8195 13.9579 11.1489 14.4176C11.3148 14.6493 11.427 14.9961 11.5034 15.2526C11.5233 15.3192 11.5434 15.3887 11.563 15.4596L16.104 14.1559C16.0837 14.0667 16.0645 13.9792 16.0474 13.8952C15.9934 13.6296 15.9297 13.2733 15.9643 12.9919C16.0331 12.4334 16.3072 11.9142 16.7436 11.5553C16.9406 11.3934 17.1568 11.2926 17.3726 11.2135C17.5749 11.1393 17.8226 11.0684 18.103 10.9879L18.1509 10.9743C18.4313 10.8937 18.679 10.8221 18.8892 10.778C19.1124 10.7311 19.3507 10.7011 19.605 10.737ZM19.1977 12.2458C19.0472 12.2774 18.8519 12.3331 18.5405 12.4225C18.2293 12.5118 18.0337 12.5684 17.8882 12.6217C17.7516 12.6719 17.7109 12.7019 17.6968 12.7135C17.5723 12.8158 17.4788 12.977 17.4536 13.1686C17.4536 13.1694 17.4537 13.2001 17.4624 13.2731C17.4723 13.3568 17.4904 13.4644 17.5171 13.5954C17.5707 13.8587 17.6483 14.1699 17.73 14.4967C17.8278 14.8886 17.5976 15.2875 17.2095 15.3991L11.2368 17.1129C11.0413 17.169 10.831 17.1442 10.6548 17.0426C10.4787 16.9411 10.3517 16.772 10.3022 16.5749C10.2205 16.2481 10.1424 15.937 10.0659 15.6803C10.0279 15.5527 9.9936 15.4498 9.96337 15.3727C9.93959 15.3121 9.92577 15.2862 9.92431 15.2829C9.82251 15.145 9.68442 15.0677 9.54833 15.0485C9.53806 15.047 9.4925 15.0422 9.35107 15.0719C9.20054 15.1035 9.00506 15.1593 8.69384 15.2487C8.38288 15.3379 8.1879 15.3946 8.04247 15.4479C7.90472 15.4985 7.86406 15.5282 7.85009 15.5397C7.72429 15.6431 7.63087 15.8065 7.60693 16.0006C7.60272 16.0349 7.60087 16.1023 7.63036 16.2633C7.66099 16.4306 7.71449 16.645 7.79735 16.9762L8.48876 19.7428C8.57173 20.0745 8.62577 20.2889 8.67724 20.4499C8.72704 20.6056 8.75914 20.6593 8.77489 20.6813C8.87714 20.8238 9.0173 20.9029 9.15575 20.9225C9.16511 20.9238 9.20961 20.9292 9.35302 20.8991C9.50354 20.8675 9.69907 20.8125 10.0102 20.7233C10.3214 20.6339 10.5171 20.5775 10.6626 20.5241C10.8003 20.4735 10.8411 20.4438 10.855 20.4323C10.9794 20.33 11.072 20.1687 11.0972 19.9772C11.0972 19.9772 11.098 19.9466 11.0893 19.8727C11.0794 19.7891 11.0612 19.6814 11.0347 19.5504C10.981 19.2871 10.9026 18.9758 10.8208 18.6491C10.7229 18.2571 10.9539 17.8582 11.3423 17.7467L17.314 16.0319C17.5095 15.9758 17.7199 16.0016 17.896 16.1032C18.0721 16.2047 18.1991 16.3738 18.2485 16.571C18.3302 16.8978 18.4085 17.2089 18.4849 17.4655C18.5229 17.5932 18.5572 17.6961 18.5874 17.7731C18.6111 17.8337 18.625 17.8597 18.6265 17.8629C18.7282 18.0009 18.8664 18.0781 19.0024 18.0973C19.0123 18.0987 19.0574 18.1038 19.1997 18.0739C19.3503 18.0423 19.5455 17.9864 19.8569 17.8971C20.1678 17.8079 20.3628 17.7513 20.5083 17.6979C20.6452 17.6476 20.6865 17.6178 20.7007 17.6061C20.8265 17.5028 20.9208 17.3394 20.9448 17.1452C20.949 17.1109 20.9509 17.0434 20.9214 16.8825C20.8908 16.7152 20.8373 16.5001 20.7544 16.1686L20.062 13.403C19.9791 13.0714 19.925 12.8569 19.8735 12.696C19.8237 12.5402 19.7917 12.4865 19.7759 12.4645C19.6736 12.3218 19.5335 12.2418 19.395 12.2223C19.3852 12.2209 19.3403 12.2159 19.1977 12.2458ZM4.17235 1.44107C4.38645 1.45509 4.64133 1.48988 4.92919 1.52994L4.97802 1.53677C5.26598 1.57683 5.52075 1.61287 5.73095 1.65787C5.95495 1.70582 6.18308 1.7747 6.40087 1.90884C6.88318 2.20593 7.22131 2.68685 7.35888 3.23306C7.42799 3.50775 7.40893 3.86908 7.38818 4.13931C7.38182 4.22199 7.37441 4.30826 7.36571 4.39615L12.022 5.04459C12.0334 4.96629 12.0459 4.88965 12.0581 4.81607C12.1023 4.55028 12.1698 4.19234 12.3042 3.94205C12.5713 3.44475 13.0213 3.06578 13.5679 2.90787C13.8142 2.8367 14.0532 2.83245 14.2808 2.84732C14.4948 2.86134 14.7499 2.89711 15.0376 2.93716L15.0864 2.944C15.3745 2.98407 15.6301 3.01911 15.8403 3.06412C16.0642 3.11208 16.2916 3.18201 16.5093 3.31607C16.9916 3.61317 17.3307 4.0931 17.4683 4.63931C17.5292 4.88165 17.5334 5.1189 17.52 5.35416C17.5072 5.57796 17.4748 5.84621 17.437 6.15787L17.0864 9.04263C17.0486 9.35434 17.0162 9.62335 16.9751 9.84341C16.9321 10.0741 16.8707 10.3036 16.7524 10.5241C16.4854 11.0214 16.0362 11.4003 15.4897 11.5583C15.2431 11.6296 15.0036 11.6347 14.7759 11.6198C14.5618 11.6058 14.3069 11.57 14.019 11.5299L13.9702 11.5231C13.6821 11.4831 13.4275 11.447 13.2173 11.402C12.9933 11.354 12.7651 11.2852 12.5474 11.151C12.0653 10.854 11.727 10.3738 11.5893 9.82779C11.5202 9.55301 11.5393 9.19091 11.5601 8.92056C11.5664 8.83783 11.5738 8.75167 11.5825 8.66373L6.92626 8.01529C6.91489 8.09347 6.90332 8.17032 6.8911 8.2438C6.8469 8.50959 6.77841 8.86754 6.64403 9.11783C6.37697 9.61516 5.92687 9.99405 5.38036 10.152C5.13393 10.2231 4.895 10.2274 4.66747 10.2126C4.4534 10.1986 4.19847 10.1627 3.91064 10.1227L3.86181 10.1159C3.57394 10.0758 3.31903 10.0408 3.10888 9.99576C2.88495 9.94782 2.65668 9.87883 2.43896 9.74478C1.95665 9.44768 1.61852 8.96677 1.48095 8.42056C1.41992 8.17823 1.41479 7.94096 1.42821 7.70572C1.44101 7.4819 1.47439 7.21366 1.5122 6.90201L1.86181 4.01724C1.89959 3.70569 1.93209 3.43744 1.97314 3.21744C2.01622 2.98661 2.07734 2.75642 2.19579 2.5358C2.46278 2.03854 2.91214 1.65963 3.45849 1.50162C3.70512 1.43035 3.94467 1.42615 4.17235 1.44107ZM3.87548 2.94205C3.73739 2.98195 3.60354 3.08472 3.51708 3.24576C3.50292 3.27224 3.47773 3.33131 3.44775 3.49185C3.41653 3.65909 3.38943 3.87997 3.34814 4.22037L3.00341 7.06021C2.96213 7.40055 2.93599 7.62128 2.92626 7.79166C2.9169 7.95583 2.92683 8.02171 2.93505 8.05435C2.98215 8.24138 3.09278 8.38585 3.22509 8.46744C3.2378 8.47527 3.28003 8.49847 3.42235 8.52896C3.57267 8.56114 3.77277 8.58997 4.09228 8.63443C4.4119 8.6789 4.61228 8.70546 4.76513 8.71548C4.91048 8.725 4.95425 8.71352 4.96435 8.7106C5.10028 8.67129 5.23231 8.57243 5.31884 8.41568C5.31936 8.4135 5.33018 8.38505 5.34716 8.31802C5.36768 8.23689 5.3887 8.1296 5.41064 7.99771C5.45475 7.73236 5.494 7.41306 5.53466 7.07779C5.55897 6.87819 5.66242 6.69652 5.82177 6.57388C5.98112 6.45127 6.18317 6.39783 6.38232 6.42545L12.5142 7.27896C12.9193 7.33535 13.205 7.7059 13.1558 8.11197C13.1151 8.44737 13.0759 8.76704 13.0552 9.0358C13.0449 9.16929 13.04 9.27859 13.0405 9.36295C13.0409 9.43479 13.0451 9.46548 13.0454 9.46744C13.0934 9.65142 13.2036 9.79308 13.3345 9.87369C13.3472 9.88156 13.3894 9.90474 13.5317 9.93521C13.682 9.96738 13.8823 9.99625 14.2017 10.0407C14.5213 10.0852 14.7217 10.1127 14.8745 10.1227C15.0177 10.132 15.0619 10.1209 15.0727 10.1178C15.2108 10.078 15.3446 9.97597 15.4311 9.81509C15.4452 9.78881 15.4703 9.7295 15.5005 9.56802C15.5317 9.40077 15.5588 9.1799 15.6001 8.83951L15.9448 5.99966C15.9861 5.65937 16.0123 5.43859 16.022 5.26822C16.0313 5.10413 16.0214 5.03815 16.0132 5.00552C15.966 4.81848 15.8555 4.67398 15.7231 4.59244C15.7103 4.5846 15.6684 4.56142 15.5259 4.53091C15.3756 4.49873 15.1755 4.47088 14.8559 4.42642C14.5362 4.38193 14.3359 4.3544 14.1831 4.34439C14.0377 4.33487 13.994 4.34635 13.9839 4.34927C13.8481 4.38857 13.7168 4.48776 13.6304 4.6442C13.6299 4.64636 13.618 4.6748 13.6011 4.74185C13.5805 4.823 13.5596 4.93019 13.5376 5.06216C13.4935 5.32755 13.4543 5.64675 13.4136 5.98209C13.3893 6.18175 13.2859 6.36332 13.1265 6.48599C12.9671 6.60864 12.7651 6.6621 12.5659 6.63443L6.43407 5.78091C6.02901 5.72444 5.7442 5.35394 5.79345 4.94791C5.8341 4.61272 5.87242 4.29368 5.89306 4.02505C5.90334 3.89126 5.90823 3.7814 5.90771 3.69693C5.90726 3.62294 5.90282 3.59244 5.90282 3.59244C5.85476 3.40851 5.74462 3.26678 5.61376 3.18619C5.60077 3.17821 5.55874 3.15494 5.41747 3.12466C5.26711 3.09246 5.06624 3.06369 4.74657 3.0192C4.42732 2.97477 4.22745 2.94719 4.0747 2.93716C3.93056 2.92772 3.88606 2.93901 3.87548 2.94205Z" fill="#48465C"/>
</svg>
