<svg width="24" height="24" viewBox="0 0 24 24" fill="none" xmlns="http://www.w3.org/2000/svg">
<path fill-rule="evenodd" clip-rule="evenodd" d="M19.6042 10.7375C20.1686 10.8171 20.6664 11.1313 20.9958 11.591C21.1419 11.795 21.2311 12.0165 21.3024 12.2394C21.3704 12.4519 21.4356 12.7135 21.5114 13.0168L22.2145 15.8273C22.2905 16.1308 22.3559 16.3922 22.3962 16.6125C22.4386 16.8441 22.4637 17.0794 22.4333 17.3273C22.3646 17.886 22.0897 18.4059 21.653 18.7648C21.4561 18.9267 21.2408 19.0265 21.0251 19.1056C20.8226 19.1798 20.5744 19.2517 20.2936 19.3322L20.2468 19.3459C19.9662 19.4263 19.7178 19.497 19.5075 19.5412C19.2844 19.588 19.0468 19.618 18.7927 19.5822C18.2284 19.5026 17.7314 19.1883 17.402 18.7287C17.2362 18.4971 17.1239 18.1501 17.0475 17.8937C17.0278 17.827 17.0077 17.7575 16.988 17.6867L12.447 18.9894C12.4674 19.0788 12.4865 19.1668 12.5036 19.2511C12.5577 19.5165 12.6211 19.872 12.5866 20.1535C12.5179 20.7121 12.244 21.2321 11.8073 21.591C11.6103 21.753 11.3941 21.8527 11.1784 21.9318C10.976 22.006 10.7285 22.0778 10.4479 22.1584L10.4001 22.172C10.1199 22.2524 9.87194 22.3232 9.6618 22.3673C9.43862 22.4142 9.20026 22.4442 8.94598 22.4084C8.38183 22.3287 7.88465 22.0144 7.55536 21.5548C7.40923 21.3508 7.31999 21.1293 7.24872 20.9064C7.18078 20.6938 7.11463 20.4324 7.03876 20.1291L6.33661 17.3185C6.26066 17.015 6.19431 16.7536 6.15399 16.5334C6.11157 16.3017 6.08745 16.0663 6.11786 15.8185C6.18652 15.2598 6.46055 14.7399 6.89715 14.381C7.09417 14.2191 7.31031 14.1193 7.52606 14.0402C7.72843 13.9659 7.97594 13.8942 8.25653 13.8136L8.30438 13.8C8.58466 13.7194 8.83254 13.6487 9.04266 13.6046C9.26584 13.5577 9.5042 13.5277 9.75848 13.5636C10.3227 13.6432 10.8198 13.9576 11.1491 14.4171C11.315 14.6488 11.4272 14.9956 11.5036 15.2521C11.5235 15.3188 11.5436 15.3882 11.5632 15.4591L16.1032 14.1564C16.0829 14.067 16.0638 13.9789 16.0466 13.8947C15.9926 13.6292 15.9291 13.2736 15.9636 12.9923C16.0323 12.4336 16.3071 11.9137 16.7438 11.5548C16.9407 11.3931 17.1561 11.2931 17.3718 11.214C17.5743 11.1397 17.8224 11.0681 18.1032 10.9875L18.1501 10.9738C18.4307 10.8932 18.679 10.8226 18.8893 10.7785C19.1124 10.7316 19.35 10.7016 19.6042 10.7375ZM19.1979 12.2462C19.0474 12.2778 18.852 12.3336 18.5407 12.423C18.2295 12.5123 18.0339 12.5689 17.8884 12.6222C17.7507 12.6728 17.7099 12.7025 17.696 12.714C17.5716 12.8163 17.479 12.9777 17.4538 13.1691C17.4538 13.173 17.4535 13.2041 17.4616 13.2726C17.4715 13.3563 17.4896 13.4648 17.5163 13.5959C17.5699 13.859 17.6475 14.1696 17.7292 14.4962C17.8273 14.8883 17.5972 15.2881 17.2087 15.3996L11.237 17.1134C11.0415 17.1695 10.8312 17.1437 10.655 17.0421C10.4788 16.9405 10.3518 16.7716 10.3024 16.5744C10.2208 16.2478 10.1426 15.9374 10.0661 15.6808C10.0282 15.5533 9.99377 15.4503 9.96356 15.3732C9.9403 15.3139 9.92649 15.2876 9.9245 15.2834C9.82269 15.1454 9.68466 15.0682 9.54852 15.049C9.53899 15.0476 9.49443 15.0423 9.35126 15.0724C9.2007 15.104 9.00539 15.1598 8.69403 15.2492C8.38307 15.3384 8.1881 15.3951 8.04266 15.4484C7.90485 15.499 7.86423 15.5287 7.85028 15.5402C7.72442 15.6436 7.63003 15.8068 7.60614 16.0011C7.60195 16.0355 7.60021 16.1024 7.62958 16.2628C7.66021 16.4301 7.71362 16.6451 7.79657 16.9767L8.48895 19.7433C8.57187 20.0748 8.62598 20.2894 8.67743 20.4503C8.72715 20.6058 8.75935 20.6588 8.77508 20.6808C8.8774 20.8236 9.01735 20.9034 9.15594 20.923C9.1656 20.9243 9.21033 20.9296 9.35321 20.8996C9.50378 20.868 9.6991 20.8121 10.0104 20.7228C10.3213 20.6335 10.5164 20.5769 10.6618 20.5236C10.7992 20.4731 10.8402 20.4434 10.8542 20.4318C10.9787 20.3295 11.0723 20.1683 11.0974 19.9767C11.0974 19.9731 11.0967 19.9416 11.0886 19.8722C11.0785 19.7886 11.0604 19.6808 11.0339 19.55C10.9802 19.2868 10.9027 18.9761 10.821 18.6496C10.7229 18.2575 10.9531 17.8578 11.3415 17.7462L17.3141 16.0324C17.5096 15.9763 17.7201 16.0021 17.8962 16.1037C18.0722 16.2053 18.1994 16.3743 18.2487 16.5714C18.3304 16.8981 18.4087 17.2085 18.485 17.465C18.5231 17.5927 18.5574 17.6955 18.5876 17.7726C18.6112 17.8329 18.625 17.8589 18.6266 17.8625C18.7283 18.0004 18.8657 18.0775 19.0016 18.0968C19.011 18.0981 19.0564 18.1036 19.1999 18.0734C19.3504 18.0418 19.546 17.9859 19.8571 17.8966C20.168 17.8074 20.3631 17.7508 20.5085 17.6974C20.6463 17.6468 20.687 17.6171 20.7009 17.6056C20.8267 17.5022 20.9201 17.339 20.944 17.1447C20.9482 17.1104 20.95 17.0436 20.9206 16.883C20.89 16.7157 20.8365 16.5006 20.7536 16.1691L20.0622 13.4025C19.9793 13.0709 19.9252 12.8564 19.8737 12.6955C19.824 12.54 19.7919 12.487 19.7761 12.465C19.6738 12.3222 19.5337 12.2424 19.3952 12.2228C19.3858 12.2214 19.3412 12.2162 19.1979 12.2462ZM4.17255 1.44058C4.38663 1.45461 4.64157 1.49037 4.92938 1.53043L4.97821 1.53726C5.26616 1.57732 5.52097 1.61237 5.73114 1.65738C5.95515 1.70534 6.18326 1.77517 6.40106 1.90933C6.88312 2.20641 7.22151 2.68657 7.35907 3.23257C7.42829 3.50738 7.40914 3.86944 7.38837 4.1398C7.38201 4.22251 7.37461 4.30872 7.3659 4.39664L12.0222 5.0441C12.0335 4.96587 12.0451 4.8891 12.0573 4.81558C12.1015 4.54982 12.17 4.19273 12.3044 3.94254C12.5714 3.44529 13.0207 3.06637 13.5671 2.90836C13.8137 2.83708 14.0533 2.8329 14.2809 2.84781C14.495 2.86184 14.75 2.89661 15.0378 2.93668L15.0866 2.94351C15.3746 2.98357 15.6294 3.01962 15.8395 3.06461C16.0635 3.11257 16.2917 3.18147 16.5095 3.31558C16.9918 3.61268 17.3299 4.09359 17.4675 4.6398C17.5284 4.88189 17.5336 5.11865 17.5202 5.35367C17.5074 5.57753 17.474 5.8466 17.4362 6.15836L17.0866 9.04312C17.0488 9.35468 17.0164 9.62294 16.9753 9.84293C16.9323 10.0738 16.871 10.304 16.7526 10.5246C16.4855 11.0219 16.0355 11.4009 15.489 11.5587C15.2426 11.6299 15.0036 11.6342 14.7761 11.6193C14.562 11.6053 14.3071 11.5695 14.0192 11.5294L13.9704 11.5226C13.6825 11.4826 13.4276 11.4475 13.2175 11.4025C12.9936 11.3545 12.7653 11.2856 12.5475 11.1515C12.0652 10.8544 11.7271 10.3735 11.5895 9.8273C11.5204 9.5525 11.5385 9.19042 11.5593 8.92007C11.5656 8.8376 11.574 8.75188 11.5827 8.66422L6.92645 8.01578C6.91505 8.09413 6.90256 8.17066 6.89032 8.24429C6.84614 8.50993 6.77845 8.86709 6.64422 9.11734C6.37717 9.61475 5.92711 9.99453 5.38055 10.1525C5.13398 10.2236 4.89433 10.2279 4.66669 10.213C4.45265 10.199 4.19759 10.1632 3.90985 10.1232L3.86102 10.1164C3.57314 10.0763 3.31822 10.0413 3.10809 9.99625C2.88421 9.9483 2.65683 9.87832 2.43915 9.74429C1.95689 9.44723 1.61776 8.96718 1.48016 8.42105C1.41913 8.17874 1.41498 7.94143 1.4284 7.70621C1.44118 7.48242 1.47361 7.21412 1.51141 6.9025L1.86102 4.01773C1.89882 3.70604 1.93226 3.43701 1.97333 3.21695C2.01637 2.98641 2.0768 2.75664 2.19501 2.53629C2.46206 2.03888 2.91212 1.65907 3.45868 1.50113C3.70532 1.42986 3.94486 1.42566 4.17255 1.44058ZM3.87469 2.94254C3.73682 2.98252 3.60364 3.08451 3.51727 3.24527C3.50315 3.27157 3.4781 3.33072 3.44794 3.49234C3.41673 3.6595 3.38958 3.87976 3.34833 4.21988L3.0036 7.0607C2.96237 7.4006 2.9362 7.62089 2.92645 7.79117C2.91707 7.95548 2.92702 8.02219 2.93524 8.05484C2.9824 8.24163 3.09309 8.38543 3.22528 8.46695C3.238 8.47479 3.28007 8.49894 3.42255 8.52945C3.57288 8.56162 3.77296 8.58948 4.09247 8.63394C4.41222 8.67843 4.61245 8.70596 4.76532 8.71597C4.91055 8.72548 4.95444 8.71401 4.96454 8.71109C5.10043 8.67174 5.23156 8.57191 5.31805 8.41519C5.31902 8.41194 5.33075 8.38405 5.34735 8.31851C5.3679 8.23734 5.38886 8.13026 5.41083 7.9982C5.45496 7.73278 5.49417 7.41369 5.53485 7.07828C5.55908 6.87854 5.66252 6.69708 5.82196 6.57437C5.9814 6.45169 6.18324 6.39822 6.38251 6.42593L12.5143 7.27847C12.9194 7.33498 13.2043 7.70645 13.155 8.11246C13.1143 8.44764 13.0761 8.76669 13.0554 9.03531C13.0451 9.1691 13.0402 9.27896 13.0407 9.36343C13.0411 9.43758 13.0456 9.46793 13.0456 9.46793C13.0936 9.65162 13.203 9.79359 13.3337 9.87418C13.3464 9.88201 13.3887 9.90522 13.5309 9.9357C13.6812 9.96789 13.8815 9.99576 14.2009 10.0402C14.5205 10.0847 14.7208 10.1122 14.8737 10.1222C15.0191 10.1317 15.0628 10.1202 15.0729 10.1173C15.211 10.0774 15.3448 9.97563 15.4313 9.81461C15.4455 9.78817 15.4706 9.72871 15.5007 9.56754C15.5318 9.40034 15.559 9.18014 15.6003 8.84L15.945 6.00015C15.9863 5.65987 16.0125 5.43908 16.0222 5.26871C16.0315 5.10482 16.0216 5.03875 16.0134 5.00601C15.9663 4.81887 15.8547 4.6745 15.7224 4.59293C15.7092 4.58492 15.6672 4.56164 15.5261 4.5314C15.3758 4.49921 15.1749 4.47041 14.8552 4.42593C14.5359 4.38151 14.336 4.35392 14.1833 4.3439C14.0389 4.33445 13.9946 4.34577 13.9841 4.34879C13.8481 4.38809 13.7161 4.48786 13.6296 4.64468C13.629 4.64699 13.6181 4.67472 13.6013 4.74136C13.5807 4.82251 13.5588 4.92963 13.5368 5.06168C13.4927 5.327 13.4544 5.64632 13.4138 5.9816C13.3896 6.18134 13.2861 6.36377 13.1266 6.48648C12.9674 6.60905 12.7652 6.66248 12.5661 6.63492L6.43426 5.7814C6.02918 5.72503 5.74356 5.35439 5.79266 4.94839C5.83334 4.61298 5.87261 4.29333 5.89325 4.02457C5.9035 3.8911 5.9084 3.78178 5.9079 3.69742C5.90747 3.62788 5.90347 3.59641 5.90301 3.59293C5.85496 3.40895 5.74483 3.26631 5.61395 3.1857C5.60092 3.1777 5.55818 3.15448 5.41669 3.12418C5.26637 3.09201 5.06618 3.06414 4.74676 3.01968C4.42709 2.9752 4.22676 2.94766 4.07391 2.93765C3.92883 2.92817 3.8848 2.93962 3.87469 2.94254Z" fill="#48465C"/>
</svg>
