<svg width="24" height="24" viewBox="0 0 24 24" fill="none" xmlns="http://www.w3.org/2000/svg">
<path fill-rule="evenodd" clip-rule="evenodd" d="M9.70703 2.40862C10.4142 1.78167 11.4954 1.97005 13.6572 2.3471L15.9863 2.75335C18.3808 3.17099 19.5781 3.37999 20.2891 4.25823C20.9999 5.13645 21 6.40658 21 8.94671V15.0532C21 17.5934 20.9999 18.8635 20.2891 19.7416C19.5781 20.6199 18.3808 20.8288 15.9863 21.2465L13.6572 21.6528C11.4954 22.0298 10.4142 22.2182 9.70703 21.5912C8.99996 20.9642 9 19.8173 9 17.5239V6.47601C9 4.18255 8.99991 3.0356 9.70703 2.40862ZM7.54688 4.50042C7.49959 5.12356 7.49991 5.84394 7.5 6.62249V17.3764C7.49991 18.1552 7.49957 18.8762 7.54688 19.4994C5.48909 19.4964 4.41616 19.4514 3.73242 18.768C3.00019 18.0357 3 16.8564 3 14.4994V9.49944C3 7.14264 3.00023 5.96406 3.73242 5.23187C4.41616 4.5483 5.48896 4.50342 7.54688 4.50042ZM12 10.1684C11.5858 10.1684 11.25 10.52 11.25 10.9535V13.0463C11.25 13.4798 11.5858 13.8315 12 13.8315C12.4142 13.8315 12.75 13.4798 12.75 13.0463V10.9535C12.75 10.52 12.4142 10.1684 12 10.1684Z" fill="#48465C"/>
</svg>
