<svg width="24" height="24" viewBox="0 0 24 24" fill="none" xmlns="http://www.w3.org/2000/svg">
<path d="M11.1553 1.69628C11.8375 1.7128 12.6917 1.85514 13.7246 2.02733L16.1582 2.43261C17.314 2.62522 18.2509 2.78095 18.9834 2.99901C19.7461 3.22609 20.3762 3.54452 20.8613 4.11718C21.3465 4.68996 21.5567 5.36453 21.6553 6.15429C21.7498 6.91256 21.75 7.86167 21.75 9.03319V14.9668C21.75 16.1383 21.7498 17.0875 21.6553 17.8457C21.5567 18.6355 21.3465 19.31 20.8613 19.8828C20.3762 20.4555 19.7461 20.7739 18.9834 21.001C18.2509 21.2191 17.3139 21.3748 16.1582 21.5674L13.7246 21.9726C12.6916 22.1448 11.8375 22.2872 11.1553 22.3037C10.4397 22.321 9.77617 22.2062 9.22266 21.7373C8.75542 21.3415 8.52363 20.827 8.40234 20.25H7.94629C6.81362 20.25 5.88803 20.2495 5.15723 20.1514C4.39328 20.0487 3.73084 19.8265 3.20215 19.2978C2.67346 18.7691 2.45134 18.1068 2.34863 17.3428C2.25041 16.612 2.24998 15.6864 2.25 14.5537V9.44628C2.24998 8.31361 2.25041 7.38802 2.34863 6.65722C2.45134 5.89327 2.67345 5.23083 3.20215 4.70214C3.73084 4.17344 4.39328 3.95133 5.15723 3.84862C5.88804 3.7504 6.81361 3.74997 7.94629 3.74999H8.40234C8.52362 3.17295 8.75542 2.65849 9.22266 2.26268C9.77616 1.79383 10.4397 1.679 11.1553 1.69628ZM11.1191 3.1953C10.5771 3.1822 10.3462 3.27707 10.1924 3.40722C10.0387 3.53742 9.90728 3.74932 9.83106 4.28612C9.75188 4.8439 9.75 5.60289 9.75 6.72167V17.2783C9.75 18.3971 9.75188 19.1561 9.83106 19.7139C9.90728 20.2507 10.0387 20.4626 10.1924 20.5928C10.3462 20.723 10.5771 20.8178 11.1191 20.8047C11.6823 20.791 12.4309 20.6683 13.5342 20.4844L15.8633 20.0957C17.0792 19.893 17.9225 19.7506 18.5547 19.5625C19.1667 19.3802 19.4911 19.1795 19.7168 18.9131C19.9425 18.6467 20.0879 18.2939 20.167 17.6601C20.2487 17.0056 20.25 16.1499 20.25 14.917V9.083C20.25 7.84999 20.2487 6.99441 20.167 6.33983C20.0879 5.70602 19.9425 5.35335 19.7168 5.0869C19.4911 4.82049 19.1667 4.61973 18.5547 4.43749C17.9225 4.24932 17.0792 4.10694 15.8633 3.90429L13.5342 3.51561C12.4309 3.33174 11.6823 3.20894 11.1191 3.1953ZM8 5.24999C6.80029 5.24999 5.97564 5.25171 5.35645 5.33495C4.75905 5.41531 4.4662 5.55918 4.2627 5.76268C4.05919 5.96619 3.91532 6.25904 3.83496 6.85643C3.75172 7.47562 3.75 8.30029 3.75 9.49999V14.5C3.75 15.6997 3.75172 16.5243 3.83496 17.1435C3.91532 17.741 4.05919 18.0338 4.2627 18.2373C4.4662 18.4409 4.75905 18.5846 5.35645 18.665C5.97564 18.7482 6.80029 18.75 8 18.75H8.26172C8.25026 18.3231 8.24999 17.8509 8.25 17.335V6.66503C8.24999 6.14902 8.25026 5.6769 8.26172 5.24999H8ZM12 10.25C12.4142 10.25 12.75 10.5858 12.75 11V13C12.75 13.4142 12.4142 13.75 12 13.75C11.5858 13.75 11.25 13.4142 11.25 13V11C11.25 10.5858 11.5858 10.25 12 10.25Z" fill="#48465C"/>
</svg>
