<svg width="24" height="24" viewBox="0 0 24 24" fill="none" xmlns="http://www.w3.org/2000/svg">
<path d="M9.70703 2.40894C10.4142 1.78198 11.4953 1.97035 13.6572 2.34741L15.9863 2.75366C18.3808 3.1713 19.5781 3.38027 20.2891 4.25854C20.9998 5.1368 21 6.40686 21 8.94702V15.0525C21 17.5929 21 18.8637 20.2891 19.7419C19.578 20.62 18.3806 20.8292 15.9863 21.2468L13.6572 21.6521C11.4954 22.0292 10.4142 22.2185 9.70703 21.5916C8.99978 20.9646 9 19.817 9 17.5232V6.47632C9 4.18284 9.00009 3.03598 9.70703 2.40894ZM7.54688 4.49976C7.49955 5.12306 7.49991 5.84398 7.5 6.6228V17.3767C7.49991 18.1556 7.49956 18.8765 7.54688 19.4998C5.48881 19.4968 4.41615 19.451 3.73242 18.7673C3.0002 18.035 3 16.8567 3 14.4998V9.49976C3 7.14278 3.00024 5.96441 3.73242 5.23218C4.41615 4.54845 5.48879 4.50276 7.54688 4.49976ZM12 10.1687C11.586 10.1687 11.2503 10.5196 11.25 10.9529V13.0466C11.2501 13.48 11.5859 13.8308 12 13.8308C12.4141 13.8308 12.7499 13.48 12.75 13.0466V10.9529C12.7497 10.5196 12.414 10.1687 12 10.1687Z" fill="#48465C"/>
</svg>
