<svg width="24" height="24" viewBox="0 0 24 24" fill="none" xmlns="http://www.w3.org/2000/svg">
<path d="M2 11.25C2.41421 11.25 2.75 11.5858 2.75 12C2.75003 17.1086 6.89139 21.25 12 21.25C17.1086 21.25 21.25 17.1086 21.25 12H22.75C22.75 17.9371 17.9371 22.75 12 22.75C6.06296 22.75 1.25003 17.9371 1.25 12C1.25 11.5858 1.58579 11.25 2 11.25ZM11.4697 1.46973C11.7626 1.17684 12.2374 1.17684 12.5303 1.46973L18.5303 7.46973C18.8231 7.76262 18.8232 8.2374 18.5303 8.53028C18.2374 8.82314 17.7626 8.82314 17.4697 8.53028L12.75 3.81055V14C12.75 14.4142 12.4142 14.75 12 14.75C11.5858 14.75 11.25 14.4142 11.25 14V3.81055L6.53027 8.53028C6.23739 8.82312 5.76261 8.82312 5.46973 8.53028C5.17685 8.2374 5.17687 7.76262 5.46973 7.46973L11.4697 1.46973Z" fill="#48465C"/>
</svg>
