<svg width="24" height="24" viewBox="0 0 24 24" fill="none" xmlns="http://www.w3.org/2000/svg">
<path fill-rule="evenodd" clip-rule="evenodd" d="M8.125 12.3749C9.06781 12.3749 9.53913 12.375 9.83203 12.6679C10.1249 12.9608 10.125 13.4322 10.125 14.3749C10.125 15.6175 11.1324 16.6249 12.375 16.6249C13.6176 16.6249 14.625 15.6175 14.625 14.3749C14.625 13.4322 14.6251 12.9608 14.918 12.6679C15.2109 12.375 15.6822 12.3749 16.625 12.3749H20.375C20.375 16.7932 16.7933 20.3749 12.375 20.3749C7.95674 20.3749 4.37503 16.7932 4.375 12.3749H8.125ZM11.8447 3.84467C12.1376 3.55178 12.6124 3.55178 12.9053 3.84467L15.9053 6.84467C16.1981 7.13756 16.1982 7.61234 15.9053 7.90521C15.6124 8.19808 15.1376 8.19808 14.8447 7.90521L13.125 6.18549V14.3749C13.125 14.7891 12.7892 15.1249 12.375 15.1249C11.9608 15.1249 11.625 14.7891 11.625 14.3749V6.18549L9.90527 7.90521C9.61239 8.19806 9.13761 8.19806 8.84473 7.90521C8.55185 7.61233 8.55187 7.13756 8.84473 6.84467L11.8447 3.84467Z" fill="#48465C"/>
</svg>
