<svg width="24" height="24" viewBox="0 0 24 24" fill="none" xmlns="http://www.w3.org/2000/svg">
<path d="M1.70515 6.31054C2.08542 6.14793 2.52611 6.32421 2.68952 6.70409L2.6905 6.70604L2.69636 6.71971C2.70225 6.7329 2.71135 6.75462 2.72468 6.78319C2.75134 6.84035 2.79294 6.92696 2.84968 7.03807C2.96337 7.26069 3.13798 7.58066 3.37507 7.95995C3.85067 8.72082 4.57172 9.70756 5.55573 10.6221C6.42163 11.4268 7.48296 12.168 8.75202 12.6562C9.70645 13.0234 10.7856 13.25 12.0001 13.25C13.2418 13.25 14.3422 13.0128 15.3126 12.6308C16.5739 12.1344 17.6274 11.3882 18.4864 10.582C19.4559 9.67198 20.1673 8.6953 20.6358 7.94335C20.8692 7.56872 21.0404 7.25272 21.1524 7.03319C21.2084 6.92348 21.2492 6.83756 21.2755 6.78124C21.2884 6.75333 21.298 6.7327 21.3038 6.71971L21.3106 6.70604V6.70507L22.3643 6.34471C22.6969 6.52896 22.8425 6.93891 22.6895 7.29589L22.6876 7.29979L22.6846 7.30761L22.6739 7.33104C22.6649 7.35109 22.6523 7.37957 22.6358 7.41503C22.6025 7.48638 22.5537 7.58842 22.4893 7.71483C22.3604 7.96747 22.1673 8.32157 21.9083 8.73729C21.4827 9.42023 20.8727 10.2785 20.0626 11.1308L21.0303 12.0986C21.3232 12.3915 21.3231 12.8663 21.0303 13.1592C20.7374 13.4521 20.2626 13.4521 19.9698 13.1592L18.9688 12.1592C18.3093 12.7117 17.5529 13.2301 16.6954 13.6562L17.629 15.0918C17.8545 15.4388 17.7562 15.9031 17.4092 16.1289C17.062 16.3548 16.5972 16.2564 16.3712 15.9092L15.2823 14.2353C14.5029 14.4898 13.6591 14.6626 12.7501 14.7246V16.5C12.7501 16.9142 12.4143 17.25 12.0001 17.25C11.5859 17.25 11.2501 16.9142 11.2501 16.5V14.7246C10.3691 14.6645 9.54933 14.5006 8.79011 14.2588L7.71589 15.9092C7.48999 16.2564 7.02499 16.3548 6.6778 16.1289C6.33099 15.9029 6.23333 15.4388 6.45905 15.0918L7.37116 13.6894C6.50678 13.2672 5.74358 12.7502 5.07819 12.1982L4.11726 13.1592C3.82437 13.4521 3.34961 13.4521 3.05671 13.1592C2.76416 12.8662 2.76393 12.3914 3.05671 12.0986L3.98054 11.1748C3.15612 10.3152 2.53504 9.44668 2.10261 8.75487C1.83977 8.33436 1.64443 7.97562 1.51374 7.71971C1.44845 7.59185 1.399 7.48921 1.3653 7.41698C1.34846 7.38088 1.33534 7.3524 1.32624 7.33202L1.3155 7.30761L1.31257 7.29979L1.31159 7.29784L1.31062 7.29686C1.14745 6.91613 1.32442 6.47371 1.70515 6.31054Z" fill="#48465C"/>
</svg>
