<svg width="24" height="24" viewBox="0 0 24 24" fill="none" xmlns="http://www.w3.org/2000/svg">
<path fill-rule="evenodd" clip-rule="evenodd" d="M21.0812 6.60647C21.2989 6.09917 21.8862 5.8637 22.3937 6.08108C22.9013 6.29864 23.1367 6.88693 22.9191 7.39456L22.9171 7.39944L22.9132 7.40725L22.9015 7.43362C22.892 7.45488 22.8785 7.48397 22.8615 7.52054C22.8271 7.59439 22.777 7.69896 22.7111 7.82815C22.5795 8.08629 22.3835 8.44677 22.1203 8.86917C21.7177 9.51524 21.1515 10.3162 20.4093 11.1241L21.2072 11.9219C21.5976 12.3124 21.5975 12.9455 21.2072 13.336C20.8166 13.7264 20.1837 13.7264 19.7931 13.336L18.9523 12.4961C18.3881 12.9518 17.7567 13.3812 17.0558 13.752L17.838 14.9551C18.1391 15.418 18.008 16.0368 17.5451 16.3379C17.0823 16.6391 16.4636 16.5085 16.1622 16.0459L15.1759 14.5313C14.4971 14.7394 13.7719 14.887 13.0001 14.9561V16.5C13.0001 17.0522 12.5523 17.5 12.0001 17.5C11.4478 17.5 11.0001 17.0522 11.0001 16.5V14.9561C10.2254 14.8869 9.50018 14.7389 8.82338 14.5313L7.83802 16.0459C7.53673 16.5087 6.91703 16.6391 6.45424 16.3379C5.99166 16.0366 5.86112 15.4179 6.16224 14.9551L6.94447 13.752C6.24435 13.3815 5.612 12.9523 5.04701 12.4961L4.20717 13.336C3.81666 13.7264 3.18363 13.7264 2.7931 13.336C2.40257 12.9455 2.40257 12.3124 2.7931 11.9219L3.58998 11.1241C2.74519 10.2045 2.12776 9.2924 1.71888 8.6055C1.50969 8.25406 1.35353 7.95876 1.24818 7.74807C1.19548 7.64268 1.15485 7.55819 1.12709 7.49807C1.11327 7.46816 1.10261 7.44422 1.09486 7.42679L1.08607 7.4053L1.08314 7.39847L1.08119 7.39554V7.39456C0.86392 6.88713 1.09834 6.29873 1.6056 6.08108C2.11323 5.86353 2.70152 6.09884 2.91908 6.60647L2.92299 6.61429C2.92702 6.62335 2.93389 6.63842 2.94349 6.65921C2.96308 6.70162 2.99427 6.76759 3.03724 6.85354C3.12329 7.02564 3.25626 7.27732 3.43763 7.58206C3.80159 8.19351 4.35434 9.00815 5.10756 9.81936C5.28513 10.0106 5.47352 10.2017 5.67201 10.3887C5.68016 10.3961 5.68846 10.4035 5.69642 10.4112C7.18111 11.8015 9.2524 13 12.0001 13C13.2089 13 14.2783 12.7694 15.2208 12.3985C16.4468 11.916 17.4745 11.1888 18.3156 10.3994C19.2649 9.50829 19.9625 8.55048 20.423 7.81155C20.6524 7.44347 20.8206 7.13306 20.9298 6.91897C20.9842 6.81219 21.024 6.7296 21.049 6.67581C21.0616 6.64892 21.0701 6.62901 21.0753 6.61722L21.0812 6.60647Z" fill="#48465C"/>
</svg>
