<svg width="24" height="24" viewBox="0 0 24 24" fill="none" xmlns="http://www.w3.org/2000/svg">
<path d="M15.3027 16.2334C16.3334 15.5465 17.6763 15.5465 18.707 16.2334C19.4935 16.7575 20.5182 16.7574 21.3047 16.2334C21.9216 15.8223 22.7517 16.2809 22.7207 17.0293C22.6426 18.9117 22.3948 20.3303 21.3652 21.3594C20.6166 22.1077 19.6669 22.4391 18.4941 22.5967C17.3547 22.7499 15.8988 22.75 14.0605 22.75H9.94629C8.10814 22.75 6.65219 22.7498 5.5127 22.5967C4.34003 22.4391 3.39014 22.1076 2.6416 21.3594C2.07467 20.7927 1.74381 20.107 1.54883 19.2891C1.54208 19.2608 1.53531 19.232 1.52832 19.2031C1.42756 18.7871 1.31345 18.3159 1.5166 17.7989C1.63178 17.5059 1.81398 17.2948 2.0166 17.1211C2.19265 16.9701 2.41618 16.8211 2.64453 16.669L3.29883 16.2334C4.32954 15.5465 5.67243 15.5465 6.70313 16.2334C7.48958 16.7575 8.51432 16.7574 9.30078 16.2334C10.3315 15.5465 11.6744 15.5465 12.7051 16.2334C13.4915 16.7575 14.5163 16.7574 15.3027 16.2334ZM17.875 17.4815C17.348 17.1303 16.6616 17.1303 16.1348 17.4815C14.8445 18.3413 13.1633 18.3414 11.873 17.4815C11.3462 17.1303 10.6598 17.1303 10.1328 17.4815C8.84253 18.3413 7.16139 18.3414 5.87109 17.4815C5.34416 17.1303 4.65777 17.1303 4.13086 17.4815L3.50488 17.8985C3.23707 18.077 3.09161 18.1754 2.99316 18.2598C2.9505 18.2964 2.93108 18.3185 2.92285 18.3291C2.91656 18.3372 2.91429 18.3421 2.91211 18.3477V18.3487C2.90525 18.3661 2.89924 18.3809 2.90527 18.4444C2.91464 18.5424 2.94377 18.6728 3.00781 18.9414C3.15503 19.5589 3.37681 19.9726 3.70215 20.2979C4.12552 20.7211 4.70551 20.9751 5.71191 21.1104C6.73995 21.2486 8.09549 21.25 10.0029 21.25H14.0039C15.9113 21.25 17.2669 21.2486 18.2949 21.1104C19.3012 20.9751 19.8813 20.721 20.3047 20.2979C20.7778 19.8247 21.0341 19.1628 21.1563 17.9502C20.066 18.2921 18.8571 18.136 17.875 17.4815ZM10.1777 1.25002C11.5628 1.24966 12.4578 1.24962 13.2813 1.56545C14.1048 1.88137 14.7675 2.4772 15.792 3.39944C15.8273 3.43123 15.8633 3.46354 15.8994 3.49612L19.8594 7.05862C19.9016 7.09656 19.9432 7.1349 19.9844 7.1719C21.1681 8.23624 21.9338 8.92442 22.3457 9.84866C22.6652 10.5657 22.7317 11.3208 22.75 12.3135C22.7588 12.7861 22.5228 13.2242 22.1367 13.4815C20.8464 14.3414 19.1653 14.3414 17.875 13.4815C17.348 13.1303 16.6616 13.1303 16.1348 13.4815C14.8445 14.3413 13.1633 14.3414 11.873 13.4815C11.3462 13.1303 10.6598 13.1303 10.1328 13.4815C8.84253 14.3413 7.16139 14.3414 5.87109 13.4815C5.34416 13.1303 4.65778 13.1303 4.13086 13.4815C4.1207 13.4883 4.11071 13.4953 4.10059 13.502C3.99548 13.5722 3.89265 13.641 3.80469 13.6865C2.71441 14.25 1.39659 13.5454 1.26074 12.3252C1.2498 12.2268 1.2499 12.1029 1.25 11.9766V9.94338C1.24998 8.10577 1.25011 6.64994 1.40332 5.51077C1.561 4.33857 1.89325 3.38987 2.6416 2.64162C3.39075 1.89271 4.34365 1.5608 5.52051 1.40334C6.66476 1.25029 8.12831 1.25 9.97656 1.25002H10.1777ZM10.0322 2.75002C8.11506 2.75002 6.75197 2.75144 5.71875 2.88967C4.70663 3.02512 4.12491 3.27954 3.70215 3.70217C3.27885 4.12538 3.02494 4.705 2.88965 5.71096C2.75144 6.73859 2.75 8.09322 2.75 10V11.9395C2.75 12.0245 2.75033 12.0794 2.75098 12.1201C2.7514 12.1471 2.7518 12.1591 2.75195 12.1621C2.77303 12.333 2.9576 12.4327 3.1123 12.3555C3.11468 12.354 3.12559 12.3477 3.14844 12.333C3.18264 12.3111 3.22827 12.2804 3.29883 12.2334C4.32954 11.5465 5.67243 11.5465 6.70313 12.2334C7.48958 12.7575 8.51432 12.7574 9.30078 12.2334C10.3315 11.5465 11.6744 11.5465 12.7051 12.2334C13.4915 12.7575 14.5163 12.7574 15.3027 12.2334C16.3334 11.5465 17.6763 11.5465 18.707 12.2334C19.475 12.7451 20.4704 12.7571 21.249 12.2696C21.2334 11.5538 21.187 11.106 21.082 10.75H17.9463C16.8136 10.75 15.888 10.7497 15.1572 10.6514C14.3932 10.5487 13.7308 10.3265 13.2021 9.79787C12.6735 9.26919 12.4513 8.60671 12.3486 7.8428C12.2504 7.11198 12.25 6.18637 12.25 5.05373V2.83401C11.7897 2.75632 11.1619 2.75002 10.0322 2.75002ZM13.75 5.00002C13.75 6.19973 13.7518 7.02439 13.835 7.64358C13.9154 8.24099 14.0592 8.53382 14.2627 8.73733C14.4663 8.94083 14.7591 9.0847 15.3564 9.16506C15.9756 9.24831 16.8003 9.25002 18 9.25002H20.0254C19.7289 8.96252 19.3488 8.61764 18.8555 8.17385L14.8955 4.61135C14.4078 4.17258 14.0454 3.8492 13.75 3.60647V5.00002Z" fill="#48465C"/>
</svg>
