<svg width="24" height="24" viewBox="0 0 24 24" fill="none" xmlns="http://www.w3.org/2000/svg">
<path fill-rule="evenodd" clip-rule="evenodd" d="M9.25977 3.09912C9.6638 2.08838 10.995 1.46317 12.0273 2.24951C13.7472 3.5596 15.9043 5.48593 17.6396 7.68896C19.3593 9.87226 20.75 12.4353 20.75 15.0005C20.75 17.2936 20.0397 18.9978 19.0117 20.2183C17.9935 21.427 16.6997 22.1194 15.582 22.4673C15.0082 22.6459 14.4826 22.3834 14.2275 21.9556C13.9871 21.5522 13.9857 21.0152 14.2861 20.5835C15.1434 19.3515 16.0498 17.5798 16.0498 16.0005C16.0498 15.217 15.7125 14.2892 15.167 13.3374C14.7569 12.6219 14.2541 11.9358 13.7646 11.3472C13.663 12.75 13.3578 14.5126 12.4121 15.9702C11.9823 16.6325 11.0263 16.7063 10.5176 16.063C10.3589 15.8622 10.202 15.6418 10.0586 15.4399C10.05 15.4279 10.0416 15.4157 10.0332 15.4038C9.9547 15.2934 9.87985 15.1884 9.80762 15.0903C9.12188 15.7733 8.48345 16.5907 8.4834 17.5005C8.4834 18.3043 8.88487 19.4035 9.35938 20.3345C9.6157 20.8378 9.50804 21.3958 9.19922 21.7612C8.87075 22.1498 8.27336 22.3493 7.70605 22.021C5.76195 20.8957 3.25 18.4922 3.25 15.0005C3.25002 14.0537 3.57135 13.0744 4.02051 12.1177C4.47273 11.1545 5.08548 10.1505 5.72949 9.14794C5.95262 8.80059 6.17922 8.45331 6.40527 8.10693C7.50979 6.41442 8.60546 4.73629 9.25977 3.09912ZM10.8984 3.41845C10.7959 3.45394 10.699 3.539 10.6523 3.65576C9.93708 5.44541 8.74043 7.2776 7.63574 8.96826C7.41618 9.30429 7.19995 9.63506 6.99219 9.95849C6.35294 10.9537 5.7853 11.8878 5.37793 12.7554C4.96768 13.6293 4.75002 14.3743 4.75 15.0005C4.75 17.295 6.15627 19.0772 7.63281 20.1792C7.27819 19.3381 6.9834 18.3675 6.9834 17.5005C6.98345 15.77 8.28254 14.4636 9.00879 13.7759C9.4791 13.3306 10.2913 13.2904 10.7646 13.8745C10.9358 14.0858 11.1028 14.3209 11.2549 14.5347L11.2734 14.5601C11.3161 14.62 11.3578 14.6782 11.3984 14.7349C12.0672 13.4605 12.2539 11.9057 12.3008 10.6265C12.3201 10.1004 12.6467 9.68442 13.0742 9.51025C13.5113 9.33243 14.0551 9.41041 14.4287 9.82373C15.0951 10.561 15.8622 11.5358 16.4678 12.5923C17.0652 13.6346 17.5498 14.8336 17.5498 16.0005C17.5498 17.6932 16.7819 19.4106 16.0059 20.689C16.6578 20.3698 17.3158 19.9036 17.8643 19.2524C18.6511 18.3184 19.25 16.9617 19.25 15.0005C19.25 12.9439 18.112 10.7139 16.4609 8.61767C14.8254 6.54124 12.7694 4.70076 11.1182 3.44287C11.0635 3.40133 10.993 3.38572 10.8984 3.41845Z" fill="#48465C"/>
</svg>
