<svg width="24" height="24" viewBox="0 0 24 24" fill="none" xmlns="http://www.w3.org/2000/svg">
<path d="M9.25977 3.09918C9.66376 2.08836 10.9949 1.46313 12.0273 2.24957C13.7472 3.55972 15.9043 5.48596 17.6396 7.68902C19.3593 9.87234 20.75 12.4354 20.75 15.0005C20.7499 17.2936 20.0398 18.9979 19.0117 20.2183C17.9934 21.4271 16.6997 22.1195 15.582 22.4673C15.008 22.646 14.4825 22.3826 14.2275 21.9546C13.9872 21.5513 13.9859 21.0152 14.2861 20.5836C15.1434 19.3517 16.0497 17.5797 16.0498 16.0005C16.0498 15.2171 15.7124 14.2892 15.167 13.3375C14.7568 12.6218 14.2542 11.9349 13.7646 11.3462C13.663 12.7491 13.3579 14.5127 12.4121 15.9703C11.9822 16.6323 11.0262 16.7063 10.5176 16.063C10.3588 15.8622 10.2021 15.641 10.0586 15.439C10.05 15.4271 10.0416 15.4148 10.0332 15.4029C9.95476 15.2926 9.8798 15.1884 9.80762 15.0904C9.12188 15.7734 8.4834 16.5908 8.4834 17.5005C8.48353 18.3043 8.88495 19.4027 9.35938 20.3336C9.61591 20.837 9.50801 21.3948 9.19922 21.7603C8.87082 22.1489 8.27335 22.3492 7.70605 22.0211C5.76203 20.8958 3.25019 18.492 3.25 15.0005C3.25 14.0536 3.5713 13.0736 4.02051 12.1168C4.47267 11.1538 5.08561 10.1503 5.72949 9.14801C5.95259 8.80071 6.17926 8.45332 6.40527 8.10699C7.50976 6.41453 8.60542 4.73631 9.25977 3.09918ZM10.8984 3.41754C10.7959 3.45303 10.699 3.53904 10.6523 3.65582C9.93701 5.44548 8.74042 7.27769 7.63574 8.96832C7.41611 9.30446 7.20001 9.63503 6.99219 9.95855C6.35295 10.9537 5.78529 11.8869 5.37793 12.7545C4.96754 13.6286 4.75 14.3743 4.75 15.0005C4.75016 17.2948 6.15643 19.0763 7.63281 20.1783C7.27827 19.3373 6.98349 18.3674 6.9834 17.5005C6.9834 15.7699 8.28255 14.4627 9.00879 13.775C9.47916 13.3298 10.2914 13.2904 10.7646 13.8746C10.9357 14.0858 11.1029 14.3201 11.2549 14.5337L11.2734 14.5591C11.3161 14.6192 11.3577 14.6781 11.3984 14.7349C12.0672 13.4605 12.2539 11.9058 12.3008 10.6265C12.32 10.1002 12.6465 9.68351 13.0742 9.50934C13.5113 9.33152 14.0551 9.41047 14.4287 9.82379C15.095 10.561 15.8623 11.5351 16.4678 12.5914C17.0653 13.6338 17.5498 14.8335 17.5498 16.0005C17.5497 17.6931 16.7818 19.4107 16.0059 20.689C16.6579 20.3698 17.3158 19.9027 17.8643 19.2515C18.651 18.3176 19.2499 16.9614 19.25 15.0005C19.25 12.9439 18.112 10.713 16.4609 8.61676C14.8255 6.54047 12.7694 4.70076 11.1182 3.44293C11.0635 3.40131 10.9931 3.38484 10.8984 3.41754Z" fill="#48465C"/>
</svg>
