<svg width="24" height="24" viewBox="0 0 24 24" fill="none" xmlns="http://www.w3.org/2000/svg">
<path d="M18.0449 7.25C18.4777 7.24995 18.8745 7.24957 19.1973 7.29297C19.5528 7.34076 19.9283 7.45368 20.2373 7.7627C20.5464 8.07171 20.6592 8.44727 20.707 8.80273C20.7504 9.1255 20.7501 9.52233 20.75 9.95508V10.252C20.7509 10.5776 20.7524 10.9293 20.6172 11.2559C20.4819 11.5825 20.2318 11.83 20.001 12.0596L16.7021 15.3584C16.0808 15.9797 15.9265 16.1529 15.8447 16.3506C15.763 16.5481 15.75 16.7794 15.75 17.6572V22C15.75 22.4142 15.4142 22.75 15 22.75C14.5858 22.75 14.25 22.4142 14.25 22V17.5361C14.2498 17.2523 14.2498 16.9925 14.2637 16.75H9.73633C9.75024 16.9925 9.75028 17.2523 9.75 17.5361V22C9.75 22.4142 9.41421 22.75 9 22.75C8.58578 22.75 8.25 22.4142 8.25 22V17.6572C8.25 16.7794 8.23694 16.5481 8.15527 16.3506C8.07339 16.1529 7.91918 15.9797 7.29785 15.3584L3.99902 12.0596C3.76811 11.83 3.51815 11.5825 3.38281 11.2559C3.24754 10.9293 3.24906 10.5776 3.25 10.252V9.95508C3.24995 9.52233 3.24958 9.1255 3.29297 8.80273C3.34076 8.44726 3.45368 8.07171 3.7627 7.7627C4.07171 7.45368 4.44726 7.34076 4.80273 7.29297C5.1255 7.24957 5.52232 7.24995 5.95508 7.25H18.0449ZM12 18.25C12.4142 18.25 12.75 18.5858 12.75 19V21C12.75 21.4142 12.4142 21.75 12 21.75C11.5859 21.7499 11.25 21.4141 11.25 21V19C11.25 18.5859 11.5859 18.2501 12 18.25ZM8.44434 14.3838C8.75615 14.695 9.02699 14.9653 9.2373 15.25H14.7627C14.973 14.9653 15.2438 14.695 15.5557 14.3838L18.1895 11.75H5.81055L8.44434 14.3838ZM6 8.75C5.50756 8.75 5.21363 8.75197 5.00293 8.78027C4.90637 8.79325 4.85772 8.80842 4.83594 8.81738C4.83095 8.81944 4.82711 8.82126 4.8252 8.82227L4.82324 8.82324L4.82227 8.8252C4.82126 8.82711 4.81943 8.83096 4.81738 8.83594C4.80842 8.85772 4.79325 8.90637 4.78027 9.00293C4.75197 9.21363 4.75 9.50756 4.75 10V10.25H19.25V10C19.25 9.50756 19.248 9.21363 19.2197 9.00293C19.2067 8.90637 19.1916 8.85772 19.1826 8.83594L19.1807 8.83008L19.1777 8.8252L19.1768 8.82324L19.1738 8.82227L19.1699 8.81934L19.1641 8.81738C19.1424 8.80842 19.0937 8.79325 18.9971 8.78027C18.7864 8.75197 18.4925 8.75 18 8.75H6ZM5.46973 2.46973C5.76259 2.17686 6.23738 2.17692 6.53027 2.46973L8.53027 4.46973C8.82316 4.76262 8.82316 5.23738 8.53027 5.53027C8.23738 5.82308 7.76259 5.82314 7.46973 5.53027L5.46973 3.53027C5.17695 3.2374 5.17695 2.7626 5.46973 2.46973ZM12 1.25C12.4142 1.25 12.75 1.58579 12.75 2V5C12.75 5.41421 12.4142 5.75 12 5.75C11.5859 5.74991 11.25 5.41415 11.25 5V2C11.25 1.58585 11.5859 1.25009 12 1.25ZM17.4697 2.46973C17.7626 2.17686 18.2374 2.17689 18.5303 2.46973C18.8232 2.76262 18.8232 3.23738 18.5303 3.53027L16.5303 5.53027C16.2374 5.82311 15.7626 5.82314 15.4697 5.53027C15.1769 5.23741 15.1769 4.7626 15.4697 4.46973L17.4697 2.46973Z" fill="#48465C"/>
</svg>
