<svg width="24" height="24" viewBox="0 0 24 24" fill="none" xmlns="http://www.w3.org/2000/svg">
<path d="M18.0449 1.25C18.4777 1.24995 18.8745 1.24958 19.1973 1.29297C19.5528 1.34077 19.9283 1.45369 20.2373 1.7627C20.5464 2.07171 20.6592 2.44727 20.707 2.80274C20.7504 3.1255 20.7501 3.52234 20.75 3.95508V4.25196C20.7509 4.57754 20.7524 4.92927 20.6172 5.25586C20.4819 5.58247 20.2318 5.82999 20.001 6.05958L16.7021 9.3584C16.0808 9.97974 15.9265 10.1529 15.8447 10.3506C15.763 10.5481 15.75 10.7794 15.75 11.6572V19.0254C15.75 19.4698 15.7503 19.8409 15.7295 20.1455C15.7079 20.4626 15.6613 20.7624 15.541 21.0527C15.2619 21.7264 14.7264 22.2619 14.0527 22.541C13.7624 22.6613 13.4626 22.7079 13.1455 22.7295C12.8409 22.7503 12.4697 22.75 12.0254 22.75H11.9746C11.5302 22.75 11.1592 22.7503 10.8545 22.7295C10.5374 22.7079 10.2376 22.6613 9.94727 22.541C9.27358 22.2619 8.73809 21.7264 8.45898 21.0527C8.33871 20.7624 8.29214 20.4626 8.27051 20.1455C8.24972 19.8409 8.24999 19.4698 8.25 19.0254V11.6572C8.25 10.7794 8.23694 10.5481 8.15527 10.3506C8.07339 10.1529 7.91918 9.97973 7.29785 9.3584L3.99902 6.05958C3.76811 5.82999 3.51815 5.58247 3.38281 5.25586C3.24754 4.92927 3.24906 4.57754 3.25 4.25196V3.95508C3.24995 3.52234 3.24958 3.1255 3.29297 2.80274C3.34076 2.44727 3.45368 2.07171 3.7627 1.7627C4.07171 1.45369 4.44726 1.34076 4.80273 1.29297C5.1255 1.24958 5.52232 1.24995 5.95508 1.25H18.0449ZM9.73633 10.75C9.75024 10.9925 9.75028 11.2523 9.75 11.5361V19C9.75 19.476 9.75071 19.7955 9.76758 20.043C9.78399 20.2836 9.81278 20.4013 9.84473 20.4785C9.97159 20.7847 10.2152 21.0284 10.5215 21.1553C10.5986 21.1872 10.7163 21.216 10.957 21.2324C11.2045 21.2493 11.524 21.25 12 21.25C12.476 21.25 12.7955 21.2493 13.043 21.2324C13.2836 21.216 13.4013 21.1872 13.4785 21.1553C13.7847 21.0284 14.0284 20.7847 14.1553 20.4785C14.1872 20.4013 14.216 20.2836 14.2324 20.043C14.2493 19.7955 14.25 19.476 14.25 19V11.5361C14.2498 11.2523 14.2498 10.9925 14.2637 10.75H9.73633ZM12 12.25C12.4142 12.25 12.75 12.5858 12.75 13V15C12.75 15.4142 12.4142 15.75 12 15.75C11.5859 15.7499 11.25 15.4141 11.25 15V13C11.25 12.5859 11.5859 12.2501 12 12.25ZM8.44434 8.38379C8.75615 8.69501 9.02699 8.96526 9.2373 9.25H14.7627C14.973 8.96525 15.2438 8.69502 15.5557 8.38379L18.1895 5.75H5.81055L8.44434 8.38379ZM6 2.75C5.50756 2.75 5.21363 2.75198 5.00293 2.78028C4.90637 2.79326 4.85772 2.80843 4.83594 2.81739C4.83095 2.81944 4.82711 2.82127 4.8252 2.82227L4.82324 2.82325L4.82227 2.82618C4.82126 2.82812 4.81936 2.83115 4.81738 2.83594C4.80842 2.85772 4.79325 2.90637 4.78027 3.00293C4.75197 3.21364 4.75 3.50756 4.75 4V4.25H19.25V4C19.25 3.50756 19.248 3.21364 19.2197 3.00293C19.2067 2.90637 19.1916 2.85772 19.1826 2.83594C19.1807 2.83114 19.1788 2.82812 19.1777 2.82618L19.1768 2.82325L19.1738 2.82227C19.1719 2.82126 19.1689 2.81936 19.1641 2.81739C19.1424 2.80843 19.0937 2.79326 18.9971 2.78028C18.7864 2.75197 18.4925 2.75 18 2.75H6Z" fill="#48465C"/>
</svg>
