<svg width="24" height="24" viewBox="0 0 24 24" fill="none" xmlns="http://www.w3.org/2000/svg">
<path d="M12 1.25C12.9558 1.25 13.8549 1.50712 14.5371 1.96191C15.0091 2.27654 15.4123 2.71482 15.6133 3.25H16C16.4778 3.25001 16.9367 3.44696 17.249 3.79102C17.5731 4.1484 17.7343 4.6679 17.5625 5.21094C16.9568 7.12503 15.0134 8.46514 12.75 8.70996V21.25H15C15.4142 21.25 15.75 21.5858 15.75 22C15.75 22.4142 15.4142 22.75 15 22.75H9.00001C8.5858 22.75 8.25001 22.4142 8.25001 22C8.25001 21.5858 8.5858 21.25 9.00001 21.25H11.25V17.9365C11.2499 16.8903 10.7705 15.9051 9.95509 15.2666L6.63283 12.8926C5.58944 13.8631 4.10289 14.1559 2.79103 13.6963C2.23728 13.5023 1.92102 13.0432 1.83888 12.5596C1.79837 12.3208 1.81251 12.0752 1.87697 11.8408C1.06726 10.8418 1.02451 9.37798 1.84767 8.32422C2.67199 7.26904 4.09736 6.96696 5.25294 7.52539C5.46342 7.40896 5.69742 7.3383 5.93751 7.32227C6.43093 7.28947 6.94784 7.49711 7.26173 7.99121C7.95718 9.08604 8.06126 10.4813 7.51173 11.6768L10.8516 14.0635L10.8633 14.0732C10.9986 14.1783 11.1277 14.2897 11.25 14.4072V8.70996C8.98661 8.46514 7.04316 7.12503 6.43751 5.21094C6.26572 4.66791 6.42682 4.1484 6.75099 3.79102C7.06326 3.44696 7.52217 3.25 8.00001 3.25H8.38673C8.58772 2.71483 8.99096 2.27654 9.4629 1.96191C10.1451 1.50713 11.0443 1.25 12 1.25ZM5.98048 8.83789C5.95394 8.85233 5.92597 8.87413 5.90236 8.9043L3.37013 12.1465C3.34662 12.1767 3.33146 12.2098 3.32326 12.2412C3.31797 12.2614 3.31637 12.2782 3.31642 12.291C4.21417 12.5918 5.24176 12.3138 5.8633 11.5186C5.8808 11.4962 5.89852 11.4729 5.91505 11.4502C6.48752 10.6611 6.50244 9.61748 6.01369 8.82324C6.00439 8.82613 5.99317 8.831 5.98048 8.83789ZM4.11818 8.75195C3.71244 8.72908 3.30233 8.89984 3.03029 9.24805C2.75813 9.59644 2.68808 10.0404 2.80275 10.4355L4.11818 8.75195ZM8.00001 4.75C7.96547 4.75 7.93451 4.75765 7.90919 4.76855C7.89563 4.77443 7.88476 4.78051 7.87697 4.78613C8.3153 6.11747 9.91513 7.25 12 7.25C14.0849 7.24999 15.6846 6.11746 16.1231 4.78613C16.1152 4.78051 16.1044 4.77442 16.0908 4.76855C16.0656 4.75764 16.0346 4.75 16 4.75H8.00001ZM12 2.75C11.2991 2.75 10.6985 2.94096 10.2949 3.20996C10.2749 3.22331 10.255 3.23656 10.2363 3.25H13.7637C13.745 3.23656 13.7251 3.22331 13.7051 3.20996C13.3015 2.94095 12.701 2.75 12 2.75Z" fill="#48465C"/>
</svg>
