<svg width="24" height="24" viewBox="0 0 24 24" fill="none" xmlns="http://www.w3.org/2000/svg">
<path d="M16.0005 4C16.5526 4.00021 17.0137 4.45793 16.8472 4.98438C16.3586 6.5288 14.7473 7.71504 12.7486 7.95508C12.7495 7.9698 12.7495 7.98506 12.7495 8V17.8965L12.7505 17.9365V19L12.7495 19.0156V21.25H14.9995C15.4138 21.25 15.7495 21.5858 15.7495 22C15.7495 22.4142 15.4138 22.75 14.9995 22.75H8.99953C8.58548 22.7498 8.24953 22.4141 8.24953 22C8.24953 21.5859 8.58548 21.2502 8.99953 21.25H11.2495V17.9033C11.2394 16.8694 10.7616 15.8983 9.95461 15.2666L6.07864 12.4961L6.00832 12.4434C5.17813 13.142 4.04404 13.3414 3.0386 12.9893C2.50529 12.8022 2.42948 12.132 2.77883 11.6846L5.31106 8.44336C5.66065 7.99583 6.32462 7.9129 6.62942 8.39258C7.16411 9.23424 7.26357 10.297 6.88821 11.2285L6.96438 11.2852L10.8521 14.0635L10.8638 14.0732C10.999 14.1782 11.1274 14.2898 11.2495 14.4072V8C11.2495 7.98504 11.2507 7.96982 11.2515 7.95508C9.25297 7.71492 7.64141 6.52868 7.15285 4.98438C6.98633 4.45783 7.44824 4 8.00051 4H16.0005ZM2.43899 8.78613C2.91424 8.17779 3.66079 7.91178 4.36867 8.02539L2.15676 10.8564C1.88209 10.1886 1.96384 9.39439 2.43899 8.78613ZM12.0005 2C13.1107 2.00012 14.0805 2.40229 14.5991 3H9.40188C9.92064 2.40233 10.8903 2 12.0005 2Z" fill="#48465C"/>
</svg>
