<svg width="24" height="24" viewBox="0 0 24 24" fill="none" xmlns="http://www.w3.org/2000/svg">
<path d="M15.9772 11.3975C18.7925 11.3975 20.2009 11.3972 21.0719 12.1328C21.2941 12.3205 21.4865 12.5382 21.6422 12.7783C22.2524 13.7197 22.0003 15.0296 21.4967 17.6475C21.1342 19.5318 20.9529 20.4744 20.3248 21.0996C20.1618 21.2618 19.9789 21.4049 19.7809 21.5274C19.0176 21.9995 18.004 22 15.9772 22H9.02208C6.9952 22 5.98172 21.9996 5.21837 21.5274C5.02054 21.405 4.83823 21.2616 4.6754 21.0996C4.04731 20.4744 3.86507 19.5318 3.50255 17.6475C2.99888 15.0296 2.74783 13.7197 3.35802 12.7783C3.5137 12.5383 3.70522 12.3204 3.92736 12.1328C4.79832 11.397 6.20652 11.3975 9.02208 11.3975H15.9772ZM10.4596 16.458C10.0372 16.4582 9.69494 16.7816 9.69494 17.1807C9.69499 17.5798 10.0373 17.9032 10.4596 17.9033H14.5397C14.962 17.9033 15.3043 17.5799 15.3043 17.1807C15.3043 16.7815 14.962 16.4581 14.5397 16.458H10.4596ZM8.41271 2.00001C8.69595 1.99998 8.88548 2.00027 9.07091 2.01563C9.86718 2.08164 10.6279 2.35867 11.2526 2.81739C11.3981 2.92433 11.534 3.04531 11.733 3.22169L12.2067 3.64161C12.9019 4.25757 13.1501 4.4683 13.4342 4.60841C13.6029 4.69158 13.783 4.75836 13.9703 4.80567C14.2892 4.8862 14.6416 4.89161 15.6236 4.89161H15.9762C17.0092 4.8916 17.8521 4.89134 18.5211 4.96583C19.2156 5.0432 19.8296 5.21033 20.3414 5.61817C20.426 5.68559 20.5071 5.7567 20.5836 5.83204C21.0527 6.29408 21.2485 6.85686 21.3385 7.49122C21.4239 8.09245 21.4244 8.84695 21.4244 9.75587V10.6065C20.945 10.3535 20.4262 10.2075 19.8942 10.1182C19.7425 10.0927 19.5895 10.0711 19.4361 10.0537C18.5318 9.95144 17.3985 9.95211 16.069 9.95216H8.93029C7.60102 9.95211 6.46828 9.95148 5.56408 10.0537C5.41057 10.0711 5.25695 10.0927 5.10509 10.1182C4.57324 10.2075 4.05515 10.3536 3.5758 10.6065V6.21876C3.57563 5.66058 3.57516 5.27325 3.64708 4.93555C3.96324 3.45135 5.26106 2.3298 6.86583 2.06153C7.23296 2.00016 7.65583 1.9999 8.2965 2.00001H8.41271Z" fill="#48465C"/>
</svg>
