<svg width="24" height="24" viewBox="0 0 24 24" fill="none" xmlns="http://www.w3.org/2000/svg">
<path d="M6.98632 1.25001C7.3376 1.24999 7.56415 1.24987 7.78515 1.27052C8.73643 1.35948 9.63944 1.73302 10.375 2.34278C10.546 2.48449 10.7056 2.64507 10.9541 2.89356L11.5303 3.46974C12.3761 4.31545 12.7015 4.6309 13.0771 4.83985C13.295 4.96106 13.5258 5.05762 13.7656 5.12599C14.1789 5.24379 14.6323 5.25001 15.8281 5.25001H16.2529C17.5259 5.24999 18.5524 5.25047 19.3643 5.35255C20.2055 5.45834 20.9206 5.68372 21.5078 6.21192C21.6061 6.30033 21.6996 6.3939 21.7881 6.4922C22.3163 7.07949 22.5426 7.79443 22.6484 8.63575C22.7504 9.44764 22.75 10.4742 22.75 11.7471V14.0566C22.75 15.8943 22.7498 17.3501 22.5967 18.4893C22.4391 19.6616 22.1066 20.6101 21.3584 21.3584C20.6101 22.1066 19.6616 22.4391 18.4893 22.5967C17.3501 22.7498 15.8943 22.75 14.0566 22.75H9.94335C8.10571 22.75 6.6499 22.7498 5.51074 22.5967C4.33845 22.4391 3.3899 22.1066 2.6416 21.3584C1.89332 20.6101 1.56096 19.6616 1.40331 18.4893C1.25016 17.3501 1.24997 15.8943 1.24999 14.0566V6.85938C1.24988 6.06347 1.24948 5.55665 1.33203 5.11915C1.69459 3.1978 3.19778 1.69461 5.11913 1.33204C5.55663 1.24949 6.06346 1.2499 6.85937 1.25001H6.98632ZM6.95019 2.75001C6.03355 2.75001 5.67872 2.75358 5.39745 2.80665C4.08281 3.05472 3.0547 4.08283 2.80663 5.39747C2.75356 5.67874 2.74999 6.03356 2.74999 6.9502V14C2.74999 15.9067 2.75149 17.2614 2.88964 18.2891C3.0249 19.2952 3.27894 19.8747 3.70214 20.2979C4.12535 20.7211 4.70484 20.9751 5.71093 21.1104C6.73858 21.2485 8.09324 21.25 9.99999 21.25H14C15.9067 21.25 17.2614 21.2484 18.2891 21.1104C19.2952 20.9751 19.8746 20.7211 20.2978 20.2979C20.721 19.8747 20.975 19.2952 21.1103 18.2891C21.2484 17.2614 21.25 15.9067 21.25 14V11.7979C21.25 10.4622 21.249 9.5306 21.1602 8.82325C21.0736 8.13461 20.914 7.7633 20.6728 7.49513C20.6198 7.43623 20.5639 7.38014 20.5049 7.32716C20.2368 7.08596 19.8655 6.92741 19.1768 6.84083C18.4694 6.75191 17.538 6.75001 16.2021 6.75001H15.7178C14.67 6.75023 13.994 6.75066 13.3545 6.56837C13.0039 6.46842 12.6662 6.32764 12.3477 6.1504C11.7665 5.82706 11.2886 5.34946 10.5478 4.60841L9.91992 3.98048C9.63665 3.69721 9.52746 3.58964 9.41699 3.49806C8.91373 3.08092 8.29632 2.82455 7.6455 2.76368C7.50277 2.75035 7.35021 2.75001 6.95019 2.75001ZM12 9.25001C12.5017 9.25001 12.8142 9.57499 12.9863 9.79981C13.1506 10.0144 13.3166 10.3117 13.4863 10.6162C13.4939 10.6298 13.5011 10.6436 13.5088 10.6572L13.6074 10.834C13.6302 10.8748 13.6484 10.9071 13.6641 10.9346C13.6913 10.941 13.723 10.9481 13.7627 10.957L13.9541 11C13.9696 11.0036 13.9854 11.0073 14.001 11.0108C14.3286 11.0848 14.6543 11.1583 14.9043 11.2568C15.1804 11.3656 15.5549 11.5781 15.6992 12.042C15.8407 12.4976 15.6619 12.8838 15.5059 13.1318C15.3613 13.3613 15.1418 13.6181 14.917 13.8809C14.9068 13.8926 14.8959 13.9042 14.8857 13.916L14.7559 14.0684C14.7215 14.1088 14.6957 14.1397 14.6738 14.166C14.6768 14.2022 14.6801 14.2444 14.6855 14.3008L14.706 14.5039C14.7075 14.5194 14.7085 14.5354 14.71 14.5508C14.7441 14.9026 14.7777 15.2426 14.7656 15.5147C14.7529 15.7999 14.6839 16.2314 14.2969 16.5254C13.8974 16.8285 13.4565 16.7628 13.1768 16.6826C12.9191 16.6088 12.6143 16.4686 12.3076 16.3272C12.2929 16.3205 12.2783 16.3134 12.2637 16.3066L12.085 16.2246C12.0516 16.2092 12.024 16.1965 12 16.1856C11.9761 16.1965 11.9485 16.2092 11.915 16.2246L11.7363 16.3066C11.7216 16.3134 11.7071 16.3205 11.6924 16.3272C11.3857 16.4686 11.081 16.6088 10.8232 16.6826C10.5435 16.7628 10.1025 16.8286 9.70312 16.5254C9.31603 16.2314 9.24709 15.7999 9.23437 15.5147C9.22225 15.2426 9.25587 14.9026 9.29003 14.5508C9.29153 14.5354 9.29244 14.5194 9.29394 14.5039L9.31445 14.3008C9.3199 14.2445 9.32319 14.2022 9.32617 14.166C9.30428 14.1397 9.27862 14.1088 9.24413 14.0684L9.11425 13.916C9.10417 13.9043 9.09404 13.8925 9.08398 13.8809C8.85911 13.618 8.63869 13.3614 8.49413 13.1318C8.338 12.8838 8.1593 12.4976 8.30078 12.042C8.44503 11.5781 8.81956 11.3656 9.0957 11.2568C9.34567 11.1583 9.67135 11.0848 9.99902 11.0108C10.0147 11.0073 10.0312 11.0036 10.0469 11L10.2373 10.957C10.2769 10.9481 10.3087 10.941 10.3359 10.9346C10.3516 10.9071 10.3698 10.8748 10.3926 10.834L10.4912 10.6572C10.4988 10.6436 10.5061 10.6298 10.5137 10.6162C10.6834 10.3117 10.8494 10.0144 11.0137 9.79981C11.1859 9.575 11.4983 9.25001 12 9.25001ZM11.8008 11.3877L11.7031 11.5645C11.6963 11.5768 11.6886 11.59 11.6807 11.6045C11.6022 11.7481 11.4716 11.9858 11.2549 12.1504C11.0335 12.3185 10.767 12.3764 10.6113 12.4102C10.5958 12.4135 10.5815 12.4169 10.5684 12.4199L10.3769 12.4629C10.202 12.5026 10.0594 12.5348 9.93749 12.5654C10.0168 12.6631 10.12 12.7847 10.2539 12.9414L10.3838 13.0938C10.3929 13.1045 10.4035 13.1158 10.4141 13.1279C10.522 13.2522 10.6968 13.4538 10.7773 13.7129C10.8568 13.9687 10.8288 14.2321 10.8115 14.3984C10.8098 14.4149 10.808 14.4309 10.8066 14.4453L10.7871 14.6484C10.7689 14.8366 10.7545 14.9872 10.7451 15.1094C10.8493 15.0635 10.9686 15.0092 11.1094 14.9443L11.2881 14.8613C11.3003 14.8557 11.3137 14.8496 11.3281 14.8428C11.4716 14.7751 11.7213 14.6572 12 14.6572C12.2786 14.6572 12.5284 14.7751 12.6719 14.8428C12.6863 14.8496 12.6997 14.8557 12.7119 14.8613L12.8906 14.9443C13.0314 15.0092 13.1507 15.0635 13.2549 15.1094C13.2454 14.9872 13.2311 14.8366 13.2129 14.6484L13.1934 14.4453C13.192 14.4309 13.1902 14.4149 13.1885 14.3984C13.1711 14.2321 13.1433 13.9687 13.2227 13.7129C13.3033 13.4538 13.4779 13.2522 13.5859 13.1279C13.5965 13.1157 13.6071 13.1045 13.6162 13.0938L13.7461 12.9414C13.8801 12.7847 13.9832 12.6631 14.0625 12.5654C13.9406 12.5348 13.798 12.5026 13.623 12.4629L13.4316 12.4199C13.4185 12.4169 13.4042 12.4135 13.3887 12.4102C13.233 12.3764 12.9665 12.3185 12.7451 12.1504C12.5284 11.9858 12.3979 11.7481 12.3193 11.6045C12.3115 11.59 12.3037 11.5768 12.2969 11.5645L12.1992 11.3877C12.123 11.251 12.0581 11.1349 12 11.0342C11.9419 11.1349 11.8769 11.251 11.8008 11.3877Z" fill="#48465C"/>
</svg>
