<svg width="24" height="24" viewBox="0 0 24 24" fill="none" xmlns="http://www.w3.org/2000/svg">
<path d="M7.99317 1.25001C8.27059 1.24998 8.45603 1.24972 8.6377 1.26563C9.41849 1.33408 10.1648 1.62267 10.7773 2.09864C10.92 2.20951 11.0531 2.33479 11.2481 2.51759L11.2725 2.54005L11.7129 2.95313C12.3946 3.59229 12.6374 3.81169 12.916 3.95704C13.0813 4.04326 13.258 4.11108 13.4414 4.16017C13.7541 4.24372 14.0996 4.25001 15.0625 4.25001H15.4082C16.4213 4.24999 17.2482 4.24983 17.9043 4.32716C18.5851 4.40743 19.1867 4.58084 19.6885 5.00392C19.7714 5.07386 19.8507 5.14842 19.9258 5.22657C20.3854 5.70591 20.5777 6.28921 20.666 6.94727C20.7497 7.57106 20.75 8.35386 20.75 9.29688V11.3291C20.9638 11.5456 21.151 11.7878 21.3066 12.0508C21.7054 12.7247 21.7872 13.4842 21.7363 14.3506C21.6868 15.1951 21.502 16.2487 21.2705 17.5664L21.2549 17.6524C21.089 18.597 20.9547 19.3615 20.7842 19.9678C20.6076 20.5955 20.374 21.1272 19.9658 21.5723C19.7722 21.7833 19.5547 21.9708 19.3184 22.1309C18.8169 22.4705 18.2612 22.6163 17.625 22.6846C17.0145 22.7501 16.2606 22.75 15.3359 22.75H8.66407C7.73943 22.75 6.98553 22.75 6.375 22.6846C5.73876 22.6163 5.18216 22.4706 4.68067 22.1309C4.44451 21.9708 4.2276 21.7832 4.03418 21.5723C3.62597 21.1271 3.39237 20.5955 3.21582 19.9678C3.04532 19.3614 2.91107 18.5971 2.74512 17.6524L2.7295 17.5664C2.498 16.2488 2.3133 15.1951 2.26368 14.3506C2.21282 13.4842 2.29452 12.7247 2.69336 12.0508C2.84904 11.7878 3.03624 11.5456 3.25 11.3291V5.62696C3.24983 5.04786 3.24981 4.64627 3.32032 4.29591C3.63022 2.75604 4.90224 1.59192 6.47559 1.31349C6.83555 1.24981 7.25074 1.2499 7.87891 1.25001H7.99317ZM8.70508 11.75C7.35184 11.75 6.40644 11.7516 5.69336 11.8399C4.99626 11.9263 4.63658 12.0843 4.38868 12.3135C4.23192 12.4585 4.09529 12.628 3.98438 12.8154C3.80527 13.1183 3.71756 13.5273 3.76075 14.2627C3.80468 15.0103 3.97315 15.9787 4.21485 17.3545C4.38919 18.347 4.51153 19.0364 4.65918 19.5615C4.80312 20.0734 4.95292 20.3551 5.13965 20.5586C5.25491 20.6843 5.38354 20.7956 5.52247 20.8897C5.74405 21.0397 6.03 21.1392 6.53418 21.1934C7.05535 21.2493 7.72879 21.25 8.70508 21.25H15.2949C16.2709 21.25 16.9438 21.2492 17.4648 21.1934C17.9693 21.1392 18.2559 21.0398 18.4775 20.8897C18.6164 20.7956 18.7451 20.6843 18.8604 20.5586C19.047 20.3551 19.1968 20.0734 19.3408 19.5615C19.4885 19.0364 19.6098 18.3469 19.7842 17.3545C20.0258 15.9787 20.1953 15.0103 20.2393 14.2627C20.2824 13.5273 20.1948 13.1183 20.0156 12.8154C19.9047 12.628 19.7681 12.4585 19.6113 12.3135C19.3635 12.0843 19.0037 11.9263 18.3066 11.8399C17.5937 11.7516 16.648 11.75 15.2949 11.75H8.70508ZM14 16.25C14.4141 16.2501 14.75 16.5859 14.75 17C14.75 17.4142 14.4141 17.7499 14 17.75H10C9.58581 17.75 9.25 17.4142 9.25 17C9.25001 16.5858 9.58582 16.25 10 16.25H14ZM7.95997 2.75001C7.22188 2.75001 6.9502 2.75336 6.73731 2.79102C5.72194 2.97062 4.96958 3.70471 4.79102 4.59181C4.754 4.77575 4.75001 5.01408 4.75 5.71192V10.4912C4.99034 10.4288 5.2435 10.3845 5.50879 10.3516C6.32498 10.2505 7.36382 10.25 8.6543 10.25H15.3457C16.6361 10.25 17.6751 10.2505 18.4912 10.3516C18.7564 10.3845 19.0098 10.4288 19.25 10.4912V9.34864C19.25 8.34056 19.2484 7.65888 19.1797 7.14649C19.1141 6.65752 18.9983 6.4268 18.8428 6.26466C18.8047 6.22492 18.7645 6.18651 18.7217 6.1504C18.5391 5.99644 18.2716 5.8814 17.7285 5.81739C17.1706 5.75163 16.4327 5.75001 15.3613 5.75001H14.9629C14.1356 5.75022 13.5812 5.75007 13.0547 5.60938C12.7659 5.53221 12.4865 5.42377 12.2227 5.28614C11.7395 5.03408 11.3421 4.66143 10.7588 4.11427C10.7352 4.09214 10.7107 4.06959 10.6865 4.04688L10.2471 3.63477C10.0183 3.42035 9.93763 3.34533 9.85645 3.28224C9.47786 2.98806 9.00771 2.80369 8.50684 2.75977C8.39854 2.75029 8.28213 2.75001 7.95997 2.75001Z" fill="#48465C"/>
</svg>
