<svg width="24" height="24" viewBox="0 0 24 24" fill="none" xmlns="http://www.w3.org/2000/svg">
<path d="M6.98633 1.25001C7.33761 1.24999 7.56416 1.24987 7.78516 1.27052C8.73644 1.35948 9.63942 1.73302 10.375 2.34278C10.5459 2.4845 10.7056 2.64506 10.9541 2.89356L11.5303 3.46974C12.376 4.31545 12.7016 4.6309 13.0771 4.83985C13.2951 4.96106 13.5259 5.05762 13.7656 5.12599C14.1789 5.24379 14.6324 5.25001 15.8281 5.25001H16.2529C17.5258 5.24999 18.5524 5.25047 19.3643 5.35255C20.2055 5.45834 20.9205 5.68371 21.5078 6.21192C21.6061 6.30033 21.6996 6.3939 21.7881 6.4922C22.3162 7.07946 22.5417 7.79447 22.6475 8.63575C22.7496 9.44764 22.75 10.4742 22.75 11.7471V14.0566C22.75 15.8943 22.7498 17.3501 22.5967 18.4893C22.439 19.6616 22.1067 20.6101 21.3584 21.3584C20.6102 22.1067 19.6615 22.4391 18.4893 22.5967C17.3501 22.7498 15.8943 22.75 14.0566 22.75H9.94336C8.10572 22.75 6.64991 22.7498 5.51074 22.5967C4.33845 22.4391 3.3899 22.1066 2.6416 21.3584C1.89332 20.6101 1.56096 19.6616 1.40332 18.4893C1.25017 17.3501 1.24998 15.8943 1.25 14.0566V6.85938C1.24989 6.06347 1.24948 5.55665 1.33203 5.11915C1.6946 3.1978 3.19779 1.69461 5.11914 1.33204C5.55664 1.24949 6.06346 1.2499 6.85937 1.25001H6.98633ZM6.9502 2.75001C6.03356 2.75001 5.67874 2.75358 5.39746 2.80665C4.08282 3.05471 3.05471 4.08282 2.80664 5.39747C2.75357 5.67874 2.75 6.03356 2.75 6.9502V14C2.75 15.9067 2.75151 17.2614 2.88965 18.2891C3.02492 19.2952 3.27895 19.8747 3.70215 20.2979C4.12536 20.7211 4.70486 20.9751 5.71094 21.1104C6.73859 21.2485 8.09324 21.25 10 21.25H14C15.9067 21.25 17.2615 21.2485 18.2891 21.1104C19.2952 20.9751 19.8747 20.7211 20.2979 20.2979C20.7211 19.8747 20.9752 19.2952 21.1104 18.2891C21.2485 17.2614 21.25 15.9067 21.25 14V11.7979C21.25 10.4622 21.249 9.5306 21.1602 8.82325C21.0736 8.13461 20.9141 7.7633 20.6729 7.49513C20.6198 7.43623 20.5638 7.38014 20.5049 7.32716C20.2367 7.08596 19.8654 6.92741 19.1768 6.84083C18.4694 6.75191 17.5379 6.75001 16.2021 6.75001H15.7178C14.67 6.75023 13.9941 6.75066 13.3545 6.56837C13.0039 6.46842 12.6662 6.32765 12.3477 6.1504C11.7665 5.82706 11.2886 5.34946 10.5479 4.60841L9.91992 3.98048C9.63665 3.69721 9.52746 3.58964 9.41699 3.49806C8.91374 3.08092 8.29633 2.82455 7.64551 2.76368C7.50278 2.75035 7.35022 2.75001 6.9502 2.75001ZM13.4395 11.502C13.7146 11.1925 14.1884 11.1644 14.498 11.4395C14.8075 11.7145 14.8356 12.1885 14.5605 12.4981L11.8936 15.4981C11.7512 15.6581 11.5472 15.75 11.333 15.75C11.1189 15.7499 10.9147 15.6581 10.7725 15.4981L9.43945 13.9981C9.16441 13.6885 9.19242 13.2145 9.50195 12.9395C9.81155 12.6644 10.2855 12.6925 10.5605 13.002L11.333 13.8711L13.4395 11.502Z" fill="#48465C"/>
</svg>
