<svg width="24" height="24" viewBox="0 0 24 24" fill="none" xmlns="http://www.w3.org/2000/svg">
<path d="M6.98632 1.25001C7.3376 1.24999 7.56415 1.24987 7.78515 1.27052C8.73643 1.35948 9.63944 1.73302 10.375 2.34278C10.546 2.48448 10.7056 2.64507 10.9541 2.89356L11.5303 3.46974C12.3761 4.31545 12.7015 4.6309 13.0771 4.83985C13.295 4.96106 13.5258 5.05762 13.7656 5.12599C14.1789 5.24379 14.6323 5.25001 15.8281 5.25001H16.2529C17.5259 5.24999 18.5524 5.25047 19.3643 5.35255C20.2055 5.45834 20.9206 5.68372 21.5078 6.21192C21.6061 6.30033 21.6996 6.39389 21.7881 6.4922C22.3163 7.07949 22.5426 7.79443 22.6484 8.63575C22.7504 9.44764 22.75 10.4742 22.75 11.7471V14.0566C22.75 15.8943 22.7498 17.3501 22.5967 18.4893C22.4391 19.6616 22.1066 20.6101 21.3584 21.3584C20.6101 22.1066 19.6616 22.4391 18.4893 22.5967C17.3501 22.7498 15.8943 22.75 14.0566 22.75H9.94335C8.10571 22.75 6.6499 22.7498 5.51074 22.5967C4.33845 22.4391 3.3899 22.1066 2.6416 21.3584C1.80671 20.5235 1.48981 19.4391 1.35546 18.0733C1.31499 17.6611 1.61614 17.2945 2.02831 17.2539C2.44047 17.2135 2.80711 17.5146 2.84765 17.9268C2.96906 19.1611 3.23072 19.8265 3.70214 20.2979C4.12535 20.7211 4.70484 20.9751 5.71093 21.1104C6.73858 21.2485 8.09324 21.25 9.99999 21.25H14C15.9067 21.25 17.2614 21.2484 18.2891 21.1104C19.2952 20.9751 19.8746 20.7211 20.2978 20.2979C20.721 19.8747 20.975 19.2952 21.1103 18.2891C21.2484 17.2614 21.25 15.9067 21.25 14V11.7979C21.25 10.4622 21.249 9.5306 21.1602 8.82325C21.0736 8.13461 20.914 7.7633 20.6728 7.49513C20.6198 7.43623 20.5639 7.38014 20.5049 7.32716C20.2368 7.08596 19.8655 6.92741 19.1768 6.84083C18.4694 6.75191 17.538 6.75001 16.2021 6.75001H15.7178C14.67 6.75023 13.994 6.75066 13.3545 6.56837C13.0039 6.46842 12.6662 6.32764 12.3477 6.1504C11.7665 5.82706 11.2886 5.34946 10.5478 4.60841L9.91992 3.98048C9.63665 3.69721 9.52746 3.58963 9.41699 3.49806C8.91373 3.08092 8.29632 2.82455 7.6455 2.76368C7.50277 2.75035 7.35021 2.75001 6.95019 2.75001C6.03355 2.75001 5.67872 2.75358 5.39745 2.80665C4.08281 3.05472 3.0547 4.08283 2.80663 5.39747C2.75356 5.67874 2.74999 6.03356 2.74999 6.9502V12C2.74999 12.4142 2.4142 12.75 1.99999 12.75C1.58579 12.75 1.24999 12.4142 1.24999 12V6.85938C1.24988 6.06347 1.24948 5.55665 1.33203 5.11915C1.69459 3.1978 3.19778 1.69461 5.11913 1.33204C5.55663 1.24949 6.06346 1.2499 6.85937 1.25001H6.98632ZM8.26855 11.5586C8.51223 11.2238 8.9815 11.1499 9.3164 11.3936L13.4414 14.3936C13.6354 14.5347 13.75 14.7602 13.75 15C13.75 15.2399 13.6353 15.4652 13.4414 15.6065L9.3164 18.6065C8.9815 18.85 8.51223 18.7762 8.26855 18.4414C8.02498 18.1066 8.09879 17.6372 8.43359 17.3936L10.6934 15.75H1.99999C1.58579 15.75 1.24999 15.4142 1.24999 15C1.25 14.5858 1.58579 14.25 1.99999 14.25H10.6934L8.43359 12.6065C8.09883 12.3627 8.025 11.8935 8.26855 11.5586Z" fill="#48465C"/>
</svg>
