<svg width="24" height="24" viewBox="0 0 24 24" fill="none" xmlns="http://www.w3.org/2000/svg">
<path fill-rule="evenodd" clip-rule="evenodd" d="M15.9777 11.3975C18.7932 11.3975 20.2014 11.397 21.0724 12.1328C21.2945 12.3204 21.4861 12.5383 21.6417 12.7783C22.2519 13.7197 21.9998 15.0288 21.4962 17.6465C21.1336 19.5311 20.9525 20.4743 20.3244 21.0996C20.1615 21.2616 19.9792 21.405 19.7814 21.5274C19.0181 21.9995 18.0045 22 15.9777 22H9.0226C6.99584 22 5.98222 21.9995 5.21889 21.5274C5.02088 21.4049 4.83788 21.2618 4.67494 21.0996C4.0468 20.4743 3.86564 19.5311 3.50307 17.6465C2.99946 15.0289 2.74741 13.7197 3.35756 12.7783C3.51327 12.5382 3.70565 12.3205 3.92787 12.1328C4.79885 11.3972 6.20727 11.3975 9.0226 11.3975H15.9777ZM10.4601 16.458C10.0376 16.458 9.69545 16.7815 9.69545 17.1807C9.69551 17.5799 10.0376 17.9033 10.4601 17.9033H14.5402C14.9623 17.9031 15.3048 17.5798 15.3048 17.1807C15.3048 16.7816 14.9624 16.4583 14.5402 16.458H10.4601ZM8.41323 2.00001C8.69612 1.99998 8.8852 2.00031 9.07045 2.01563C9.86664 2.0816 10.6275 2.35878 11.2521 2.81739C11.3977 2.92433 11.5336 3.04532 11.7326 3.22169L12.2072 3.64161C12.9025 4.25767 13.1505 4.46831 13.4347 4.60841C13.6034 4.69158 13.7835 4.75836 13.9708 4.80567C14.2896 4.8861 14.6418 4.89161 15.6232 4.89161H15.9767C17.0098 4.8916 17.8526 4.89131 18.5216 4.96583C19.216 5.04319 19.8292 5.21046 20.341 5.61817C20.4255 5.68554 20.5067 5.75676 20.5831 5.83204C21.0523 6.29409 21.249 6.85683 21.339 7.49122C21.4244 8.09245 21.424 8.84695 21.424 9.75587V10.6065C20.9446 10.3535 20.4266 10.2075 19.8947 10.1182C19.7429 10.0927 19.5892 10.0711 19.4357 10.0537C18.5315 9.95147 17.3988 9.95211 16.0695 9.95216H8.9308C7.60132 9.95211 6.4679 9.95144 5.56362 10.0537C5.41019 10.0711 5.25739 10.0927 5.10561 10.1182C4.57358 10.2075 4.05483 10.3535 3.57533 10.6065V6.21876C3.57516 5.66058 3.57568 5.27325 3.6476 4.93555C3.96379 3.45137 5.2616 2.32978 6.86635 2.06153C7.2334 2.00022 7.65655 1.9999 8.29701 2.00001H8.41323Z" fill="#48465C"/>
</svg>
