<svg width="24" height="24" viewBox="0 0 24 24" fill="none" xmlns="http://www.w3.org/2000/svg">
<path d="M6.98633 1.25001C7.33761 1.24999 7.56416 1.24987 7.78516 1.27052C8.73644 1.35948 9.63945 1.73302 10.375 2.34278C10.546 2.48449 10.7056 2.64507 10.9541 2.89356L11.5303 3.46974C12.3761 4.31545 12.7016 4.6309 13.0772 4.83985C13.295 4.96106 13.5258 5.05762 13.7656 5.12599C14.1789 5.24379 14.6323 5.25001 15.8281 5.25001H16.2529C17.5259 5.24999 18.5524 5.25047 19.3643 5.35255C20.2055 5.45834 20.9206 5.68372 21.5078 6.21192C21.6061 6.30033 21.6996 6.3939 21.7881 6.4922C22.3163 7.07949 22.5426 7.79443 22.6484 8.63575C22.7504 9.44764 22.75 10.4742 22.75 11.7471V14.0566C22.75 15.8943 22.7498 17.3501 22.5967 18.4893C22.4391 19.6616 22.1066 20.6101 21.3584 21.3584C20.6101 22.1066 19.6616 22.4391 18.4893 22.5967C17.3501 22.7498 15.8943 22.75 14.0566 22.75H9.94336C8.10571 22.75 6.64991 22.7498 5.51074 22.5967C4.33845 22.4391 3.3899 22.1066 2.6416 21.3584C1.89333 20.6101 1.56096 19.6616 1.40332 18.4893C1.25017 17.3501 1.24998 15.8943 1.25 14.0566V6.85938C1.24989 6.06347 1.24948 5.55665 1.33203 5.11915C1.6946 3.1978 3.19779 1.69461 5.11914 1.33204C5.55664 1.24949 6.06347 1.2499 6.85938 1.25001H6.98633ZM6.9502 2.75001C6.03356 2.75001 5.67873 2.75358 5.39746 2.80665C4.08282 3.05472 3.05471 4.08283 2.80664 5.39747C2.75357 5.67874 2.75 6.03356 2.75 6.9502V14C2.75 15.9067 2.7515 17.2614 2.88965 18.2891C3.02491 19.2952 3.27895 19.8747 3.70215 20.2979C4.12536 20.7211 4.70485 20.9751 5.71094 21.1104C6.73859 21.2485 8.09325 21.25 10 21.25H14C15.9067 21.25 17.2614 21.2484 18.2891 21.1104C19.2952 20.9751 19.8747 20.7211 20.2979 20.2979C20.7211 19.8747 20.9751 19.2952 21.1104 18.2891C21.2484 17.2614 21.25 15.9067 21.25 14V11.7979C21.25 10.4622 21.249 9.5306 21.1602 8.82325C21.0736 8.13461 20.9141 7.7633 20.6729 7.49513C20.6199 7.43623 20.5639 7.38014 20.5049 7.32716C20.2368 7.08596 19.8655 6.92741 19.1768 6.84083C18.4694 6.75191 17.538 6.75001 16.2022 6.75001H15.7178C14.67 6.75023 13.994 6.75066 13.3545 6.56837C13.0039 6.46842 12.6662 6.32764 12.3477 6.1504C11.7665 5.82706 11.2886 5.34946 10.5479 4.60841L9.91992 3.98048C9.63665 3.69721 9.52746 3.58964 9.41699 3.49806C8.91374 3.08092 8.29633 2.82455 7.64551 2.76368C7.50278 2.75035 7.35022 2.75001 6.9502 2.75001ZM12.1904 9.25001C13.5442 9.25001 14.7469 10.1028 15.1133 11.3369C16.0655 11.8056 16.75 12.7509 16.75 13.8828C16.7498 15.5192 15.3353 16.75 13.7139 16.75H9.71387C8.40813 16.7498 7.25017 15.7561 7.25 14.4121C7.25 13.2641 8.0952 12.371 9.15528 12.1348C9.15525 12.1292 9.15528 12.1237 9.15528 12.1182C9.15528 10.4815 10.5689 9.25005 12.1904 9.25001ZM12.1904 10.75C11.2874 10.75 10.6553 11.4157 10.6553 12.1182C10.6553 12.1636 10.6572 12.2087 10.6621 12.2529C10.8019 12.3082 10.9356 12.3752 11.0615 12.4531C11.4135 12.6714 11.522 13.1343 11.3037 13.4863C11.0854 13.8382 10.6234 13.9467 10.2715 13.7285C10.1667 13.6635 10.0452 13.615 9.91211 13.5908C9.84888 13.5794 9.7823 13.5733 9.71387 13.5733C9.12659 13.5735 8.75 14.0021 8.75 14.4121C8.75019 14.8219 9.12673 15.2498 9.71387 15.25H13.7139C14.6168 15.25 15.2498 14.5851 15.25 13.8828C15.25 13.3221 14.8581 12.7951 14.2334 12.5947C14.0727 12.5432 13.8976 12.5147 13.7139 12.5147C13.5266 12.5147 13.3488 12.5442 13.1855 12.5977C12.792 12.7265 12.3681 12.5118 12.2393 12.1182C12.1107 11.7248 12.3255 11.3018 12.7188 11.1729C12.8633 11.1255 13.0131 11.0879 13.166 11.0615C12.9072 10.8701 12.5719 10.75 12.1904 10.75Z" fill="#48465C"/>
</svg>
