<svg width="24" height="24" viewBox="0 0 24 24" fill="none" xmlns="http://www.w3.org/2000/svg">
<path d="M13.2939 1.25005C14.3816 1.24953 15.1377 1.24884 15.8291 1.5352C16.5203 1.82155 17.0546 2.35661 17.8232 3.12602L20.874 6.1768C21.6434 6.94548 22.1784 7.47973 22.4648 8.17094C22.7512 8.86224 22.7505 9.61854 22.75 10.7061V13.294C22.7505 14.3816 22.7512 15.1378 22.4648 15.8291C22.1784 16.5204 21.6435 17.0546 20.874 17.8233L17.8232 20.8741C17.0545 21.6435 16.5204 22.1786 15.8291 22.4649C15.1377 22.7513 14.3816 22.7506 13.2939 22.75H10.7061C9.61849 22.7506 8.86219 22.7513 8.1709 22.4649C7.47967 22.1786 6.94545 21.6436 6.17676 20.8741L3.12598 17.8233C2.35656 17.0546 1.8215 16.5204 1.53516 15.8291C1.24879 15.1378 1.24948 14.3816 1.25 13.294V10.7061C1.24948 9.61854 1.24881 8.86224 1.53516 8.17094C1.82155 7.47971 2.35657 6.94548 3.12598 6.1768L6.17676 3.12602C6.94542 2.35662 7.47967 1.82159 8.1709 1.5352C8.86219 1.24886 9.61849 1.24953 10.7061 1.25005H13.2939ZM6.24219 18.8184L7.13672 19.7129C8.04682 20.6231 8.36377 20.9211 8.74512 21.0791C9.1265 21.2371 9.56151 21.25 10.8486 21.25H13.1514C14.4386 21.25 14.8735 21.2371 15.2549 21.0791C15.6363 20.9212 15.9532 20.6231 16.8633 19.7129L19.7129 16.8633C20.6229 15.9532 20.9211 15.6364 21.0791 15.2549C21.2371 14.8736 21.25 14.4387 21.25 13.1514V10.8487C21.25 9.56156 21.2371 9.12655 21.0791 8.74516C20.9211 8.36381 20.6229 8.04686 19.7129 7.13676L18.8184 6.24223L6.24219 18.8184ZM10.8486 2.75005C9.56151 2.75005 9.1265 2.76394 8.74512 2.92192C8.36385 3.07996 8.04678 3.37808 7.13672 4.28813L4.28809 7.13676C3.37802 8.04682 3.07991 8.3639 2.92187 8.74516C2.76389 9.12655 2.75 9.56156 2.75 10.8487V13.1514C2.75 14.4387 2.76388 14.8735 2.92187 15.2549C3.07988 15.6363 3.37787 15.9531 4.28809 16.8633L5.18164 17.7579L17.7578 5.18169L16.8633 4.28813C15.953 3.37792 15.6363 3.07994 15.2549 2.92192C14.8735 2.76393 14.4387 2.75005 13.1514 2.75005H10.8486Z" fill="#48465C"/>
</svg>
