<svg width="24" height="24" viewBox="0 0 24 24" fill="none" xmlns="http://www.w3.org/2000/svg">
<path d="M13.1422 4.61363C13.3215 4.62039 13.5326 4.80775 13.9547 5.18297L18.9332 9.60777C19.8637 10.4348 20.3282 10.8489 20.4997 11.3373C20.6502 11.7662 20.6502 12.2336 20.4997 12.6625C20.3281 13.1506 19.8633 13.5643 18.9332 14.391L13.9547 18.8158C13.5325 19.1911 13.3215 19.3794 13.1422 19.3861C12.9866 19.3919 12.837 19.3245 12.7379 19.2045C12.6238 19.066 12.6237 18.7831 12.6237 18.2181V15.4281C10.1957 15.4281 7.63104 16.208 5.75844 17.5921C4.78355 18.3128 4.29567 18.6737 4.11001 18.6595C3.92909 18.6456 3.81424 18.5747 3.72036 18.4193C3.6241 18.2599 3.70939 17.7616 3.87954 16.766C4.98464 10.3001 9.43456 8.57066 12.6237 8.57066V5.78062C12.6237 5.21593 12.6239 4.93373 12.7379 4.79527C12.837 4.67498 12.9865 4.6078 13.1422 4.61363Z" fill="#48465C"/>
</svg>
