<svg width="24" height="24" viewBox="0 0 24 24" fill="none" xmlns="http://www.w3.org/2000/svg">
<path fill-rule="evenodd" clip-rule="evenodd" d="M13.1421 4.61412C13.3213 4.62082 13.5325 4.80823 13.9546 5.18345L18.9331 9.60826C19.8636 10.4353 20.329 10.8494 20.5005 11.3377C20.651 11.7666 20.651 12.2342 20.5005 12.6629C20.329 13.1512 19.8634 13.5646 18.9331 14.3915L13.9546 18.8163C13.5323 19.1916 13.3214 19.3799 13.1421 19.3866C12.9865 19.3923 12.8369 19.325 12.7378 19.2049C12.6237 19.0664 12.6235 18.7836 12.6235 18.2186V15.4286C10.1955 15.4286 7.6309 16.2084 5.7583 17.5926C4.78341 18.3133 4.29552 18.6742 4.10986 18.66C3.92904 18.6461 3.81406 18.5751 3.72021 18.4198C3.624 18.2603 3.70926 17.762 3.87939 16.7665C4.98447 10.3005 9.4344 8.57115 12.6235 8.57115V5.78111C12.6235 5.21645 12.6238 4.93424 12.7378 4.79576C12.8369 4.67545 12.9863 4.60832 13.1421 4.61412Z" fill="#48465C"/>
</svg>
