<svg width="24" height="24" viewBox="0 0 24 24" fill="none" xmlns="http://www.w3.org/2000/svg">
<path d="M12.9883 3.97355C13.5115 3.73876 13.9785 3.98464 14.2354 4.15421C14.4969 4.32692 14.7997 4.59623 15.124 4.88468C15.1368 4.8961 15.1502 4.90738 15.1631 4.91886L19.1768 8.48722C19.9255 9.15281 20.5464 9.70503 20.9727 10.206C21.4204 10.7323 21.7391 11.2987 21.7393 11.9999C21.7393 12.7013 21.4206 13.2684 20.9727 13.7948C20.5464 14.2958 19.9256 14.8479 19.1768 15.5136L15.1631 19.081C15.1502 19.0925 15.1368 19.1047 15.124 19.1161C14.7997 19.4046 14.4969 19.6738 14.2354 19.8466C13.9785 20.0162 13.5114 20.262 12.9883 20.0273C12.4651 19.7923 12.3388 19.2792 12.2949 18.9745C12.2502 18.6642 12.2499 18.2592 12.25 17.8251V16.205C10.7985 16.305 9.32762 16.6904 8.04102 17.3173C6.52819 18.0544 5.31984 19.0996 4.66406 20.3485C4.50366 20.654 4.15534 20.811 3.82031 20.7284C3.48536 20.6458 3.25 20.3449 3.25 19.9999C3.25008 15.2791 4.63138 12.2051 6.60645 10.3153C8.32803 8.66813 10.4264 7.99196 12.25 7.8505V6.1757C12.2499 5.74175 12.2503 5.33649 12.2949 5.02628C12.3388 4.72161 12.4651 4.20854 12.9883 3.97355ZM13.75 6.22745V8.57218C13.7497 8.98618 13.414 9.32218 13 9.32218C11.3104 9.32218 9.2636 9.84927 7.64355 11.3993C6.34247 12.6442 5.25255 14.6102 4.88379 17.6571C5.60964 16.9815 6.46499 16.4164 7.38379 15.9687C9.09976 15.1326 11.0874 14.6786 13 14.6786C13.4141 14.6786 13.7499 15.0145 13.75 15.4286V17.7734C13.75 17.994 13.7502 18.1743 13.7529 18.3232C13.8659 18.2263 14.001 18.1065 14.166 17.9599L18.1387 14.4296C18.9396 13.7176 19.4799 13.2347 19.8301 12.8232C20.1664 12.428 20.2393 12.1965 20.2393 11.9999C20.2392 11.8033 20.1661 11.5726 19.8301 11.1776C19.4799 10.7661 18.9397 10.2832 18.1387 9.5712L14.166 6.03995C14.0012 5.89346 13.8659 5.77449 13.7529 5.67765C13.7502 5.82646 13.75 6.00696 13.75 6.22745Z" fill="#48465C"/>
</svg>
