<svg width="24" height="24" viewBox="0 0 24 24" fill="none" xmlns="http://www.w3.org/2000/svg">
<path d="M18.1211 2.37806C19.2742 2.15107 20.2976 2.18436 21.1758 2.81947C22.0499 3.4517 22.4144 4.4163 22.584 5.59291C22.7497 6.74244 22.75 8.25936 22.75 10.1691V15.9376C22.75 17.3332 22.7501 18.4552 22.6338 19.337C22.5134 20.2504 22.2557 21.0181 21.6563 21.629C21.055 22.242 20.2963 22.5073 19.3936 22.631C18.5256 22.7499 17.4224 22.7501 16.0557 22.7501H7.94434C6.57757 22.7501 5.47435 22.7499 4.60645 22.631C3.70369 22.5073 2.94505 22.242 2.34375 21.629C1.74442 21.0181 1.48668 20.2504 1.36621 19.337C1.24994 18.4552 1.24998 17.3332 1.25 15.9376V13.0441C1.24999 12.0327 1.2505 11.2118 1.32422 10.547C1.40103 9.85454 1.5633 9.25657 1.9375 8.71888C2.3125 8.18009 2.81483 7.82331 3.43457 7.51869C3.67966 7.39823 3.95381 7.28173 4.25684 7.16224C4.25232 7.12897 4.25 7.09421 4.25 7.0597V7.01966C4.24998 6.40202 4.25003 5.87716 4.29688 5.45326C4.34632 5.00593 4.45599 4.57884 4.73926 4.20228C4.86547 4.03454 5.01247 3.88339 5.17773 3.75404C5.55079 3.46206 5.97612 3.34902 6.41992 3.29799C6.83798 3.24992 7.3542 3.2501 7.95801 3.25013H8.90723C9.32573 3.24973 9.67732 3.24895 9.98535 3.33314C10.6459 3.51378 11.1853 3.96844 11.4873 4.56556L13.8271 3.7306C15.5927 3.10066 16.9992 2.59896 18.1211 2.37806ZM20.2969 4.03529C19.9109 3.75615 19.392 3.65664 18.4111 3.84974C17.4121 4.0464 16.1109 4.50915 14.2695 5.16615L6.26953 8.02064C5.28308 8.37261 4.60257 8.61622 4.0957 8.86537C3.60689 9.10567 3.34715 9.32024 3.16895 9.57631C2.98997 9.83354 2.87594 10.1577 2.81445 10.712C2.75094 11.2846 2.75 12.0222 2.75 13.087V15.8839C2.75 17.3459 2.75172 18.3685 2.85352 19.1408C2.95273 19.8931 3.13471 20.2945 3.41406 20.5792C3.69137 20.8619 4.07885 21.0445 4.80957 21.1447C5.56376 21.248 6.56418 21.2501 8 21.2501H16C17.4358 21.2501 18.4362 21.248 19.1904 21.1447C19.9212 21.0445 20.3086 20.8619 20.5859 20.5792C20.8653 20.2945 21.0473 19.8931 21.1465 19.1408C21.2483 18.3685 21.25 17.3459 21.25 15.8839V10.2326C21.25 8.24538 21.248 6.83759 21.0996 5.80775C20.9532 4.79266 20.6865 4.3173 20.2969 4.03529ZM15.4697 9.46986C15.7626 9.17704 16.2374 9.17704 16.5303 9.46986C16.8232 9.76273 16.8231 10.2375 16.5303 10.5304L15.5117 11.549C15.6029 11.7735 15.6558 12.0113 15.6885 12.254C15.7502 12.7127 15.75 13.2865 15.75 13.9513V14.0499C15.75 14.7146 15.7502 15.2876 15.6885 15.7462C15.6558 15.989 15.6029 16.2268 15.5117 16.4513L16.5303 17.4699C16.8232 17.7627 16.8231 18.2375 16.5303 18.5304C16.2374 18.8233 15.7626 18.8233 15.4697 18.5304L14.4512 17.5119C14.2267 17.603 13.9889 17.6559 13.7461 17.6886C13.2875 17.7503 12.7144 17.7501 12.0498 17.7501H11.9502C11.2856 17.7501 10.7125 17.7503 10.2539 17.6886C10.0111 17.6559 9.77336 17.603 9.54883 17.5119L8.53027 18.5304C8.23738 18.8233 7.76262 18.8233 7.46973 18.5304C7.17689 18.2375 7.17685 17.7627 7.46973 17.4699L8.48828 16.4513C8.39711 16.2268 8.34416 15.989 8.31152 15.7462C8.24985 15.2876 8.24996 14.7147 8.25 14.0499V13.9513C8.24996 13.2865 8.24984 12.7127 8.31152 12.254C8.34418 12.0113 8.39708 11.7735 8.48828 11.549L7.46973 10.5304C7.17689 10.2375 7.17685 9.76273 7.46973 9.46986C7.7626 9.17706 8.2374 9.17706 8.53027 9.46986L9.54883 10.4884C9.77335 10.3972 10.0111 10.3443 10.2539 10.3117C10.7125 10.25 11.2856 10.2501 11.9502 10.2501H12.0498C12.7144 10.2501 13.2875 10.25 13.7461 10.3117C13.9889 10.3443 14.2267 10.3972 14.4512 10.4884L15.4697 9.46986ZM12 11.7501C11.2718 11.7501 10.801 11.7514 10.4541 11.798C10.129 11.8418 10.0269 11.9128 9.96973 11.9699C9.91264 12.027 9.84159 12.1289 9.79785 12.4542C9.75122 12.8011 9.75 13.2719 9.75 14.0001C9.75 14.7282 9.75125 15.1992 9.79785 15.546C9.84158 15.8712 9.91265 15.9733 9.96973 16.0304C10.0269 16.0875 10.1288 16.1585 10.4541 16.2023C10.801 16.2489 11.2718 16.2501 12 16.2501C12.7282 16.2501 13.199 16.2489 13.5459 16.2023C13.8712 16.1585 13.9732 16.0875 14.0303 16.0304C14.0874 15.9733 14.1584 15.8712 14.2021 15.546C14.2487 15.1992 14.25 14.7282 14.25 14.0001C14.25 13.2719 14.2487 12.8011 14.2021 12.4542C14.1583 12.1289 14.0874 12.027 14.0303 11.9699C13.9732 11.9128 13.8711 11.8418 13.5459 11.798C13.199 11.7514 12.7282 11.7501 12 11.7501ZM8 4.75013C7.34251 4.75013 6.91297 4.75118 6.59082 4.78822C6.2851 4.82343 6.17013 4.88279 6.10254 4.93568C6.04103 4.98383 5.98533 5.0401 5.9375 5.10365C5.88265 5.17656 5.82318 5.30079 5.78809 5.6183C5.76031 5.86968 5.7529 6.18362 5.75098 6.61244L10.0449 5.08119C9.92785 4.93566 9.7687 4.82938 9.58984 4.78041C9.50331 4.75675 9.37463 4.75013 8.81836 4.75013H8Z" fill="#48465C"/>
</svg>
