<svg width="24" height="24" viewBox="0 0 24 24" fill="none" xmlns="http://www.w3.org/2000/svg">
<path d="M14.0176 4.45892C17.6536 3.1616 19.4722 2.5134 20.7363 3.42767C22 4.34206 22 6.30567 22 10.2324V15.8837C22 18.7668 21.9997 20.2088 21.1211 21.1044C20.2424 21.9999 18.8281 21.9999 16 21.9999H8C5.17188 21.9999 3.75761 21.9999 2.87891 21.1044C2.00027 20.2088 2 18.7668 2 15.8837V13.0869C2 10.9906 2.00046 9.94236 2.55371 9.1474C3.00036 8.50574 3.71855 8.15573 5 7.6806V7.05951C5 5.75512 5.00004 5.10271 5.33789 4.65326C5.42494 4.53754 5.52718 4.43347 5.64062 4.34467C6.08129 4 6.72091 3.99994 8 3.99994H8.81836C9.32543 3.99994 9.57906 3.99974 9.78711 4.05658C10.3518 4.21093 10.793 4.66124 10.9443 5.23724L11.0166 5.53021L14.0176 4.45892ZM16.5303 9.46967C16.2374 9.17678 15.7626 9.17678 15.4697 9.46967L13.8506 11.0888C13.4187 10.9996 12.8313 10.9999 12 10.9999C11.1564 10.9999 10.5644 10.9995 10.1309 11.0927C10.1025 11.049 10.0686 11.0079 10.0303 10.9697L8.53027 9.46967C8.23738 9.17678 7.76262 9.17678 7.46973 9.46967C7.17687 9.76256 7.17685 10.2373 7.46973 10.5302L8.96973 12.0302C9.00808 12.0686 9.04997 12.1014 9.09375 12.1298C9.00041 12.5634 9 13.156 9 13.9999C9 14.8309 8.99974 15.4177 9.08887 15.8495L7.46973 17.4697C7.17685 17.7626 7.17684 18.2373 7.46973 18.5302C7.76261 18.8231 8.23739 18.8231 8.53027 18.5302L10.1494 16.9111C10.5813 17.0003 11.1687 16.9999 12 16.9999C12.8313 16.9999 13.4187 17.0003 13.8506 16.9111L15.4697 18.5302C15.7626 18.8231 16.2374 18.8231 16.5303 18.5302C16.8232 18.2373 16.8231 17.7626 16.5303 17.4697L14.9111 15.8495C15.0002 15.4177 15 14.8309 15 13.9999C15 13.1686 15.0003 12.5813 14.9111 12.1494L16.5303 10.5302C16.8232 10.2373 16.8231 9.76256 16.5303 9.46967Z" fill="#48465C"/>
</svg>
