<svg width="24" height="24" viewBox="0 0 24 24" fill="none" xmlns="http://www.w3.org/2000/svg">
<path d="M7.71494 3.25C8.74762 3.25 9.75482 3.57051 10.5978 4.16699L11.0997 4.52246C11.3629 4.70867 11.6778 4.80859 12.0001 4.80859C12.3223 4.80857 12.6365 4.70849 12.8995 4.52246L13.4015 4.16699C14.2445 3.57036 15.2526 3.25 16.2853 3.25H16.8976C17.3228 3.25001 17.8366 3.27486 18.3419 3.4541C19.7849 3.96605 20.9262 5.14202 21.6778 7.04492C22.4218 8.92853 22.8042 11.5642 22.7442 15.1152C22.7315 15.8646 22.6378 16.7045 22.3497 17.4609C22.0579 18.2273 21.5475 18.9499 20.6896 19.3604C20.2015 19.5938 19.626 19.7499 18.9737 19.75C18.1869 19.75 17.5392 19.5232 17.0313 19.1904C16.5591 18.8808 16.1459 18.4806 15.7931 18.1387C15.7501 18.097 15.7073 18.0563 15.6661 18.0166C15.2613 17.6269 14.9207 17.3228 14.5431 17.127C14.0659 16.8796 13.5366 16.75 12.9991 16.75H11.0011C10.4634 16.75 9.93338 16.8795 9.45615 17.127C9.07857 17.3229 8.73783 17.627 8.33311 18.0166C8.29201 18.0562 8.25 18.0971 8.20713 18.1387C7.85426 18.4806 7.4412 18.8808 6.96885 19.1904C6.46095 19.5232 5.81339 19.75 5.02647 19.75C4.37416 19.75 3.7988 19.5938 3.31065 19.3604C2.45257 18.9499 1.94244 18.2274 1.65049 17.4609C1.36244 16.7044 1.26864 15.8646 1.25596 15.1152C1.19588 11.5643 1.57839 8.92852 2.32236 7.04492C3.07405 5.14197 4.21524 3.96599 5.6583 3.4541C6.16375 3.27483 6.67741 3.25 7.10264 3.25H7.71494ZM7.10264 4.75C6.71972 4.75 6.41659 4.77638 6.16026 4.86719C5.22087 5.20037 4.35068 5.99129 3.7169 7.5957C3.07536 9.21993 2.69749 11.6334 2.75596 15.0898C2.76717 15.7523 2.85039 16.3987 3.05186 16.9277C3.24953 17.4467 3.54238 17.809 3.95811 18.0078C4.26372 18.1539 4.61904 18.25 5.02647 18.25C5.51159 18.25 5.87482 18.1136 6.14658 17.9355C6.49225 17.709 6.79998 17.4122 7.16904 17.0557C7.20967 17.0164 7.25081 16.9762 7.29307 16.9355C7.69401 16.5496 8.1735 16.102 8.76572 15.7949C9.45632 15.4367 10.2231 15.25 11.0011 15.25H12.9991C13.7769 15.25 14.5439 15.4368 15.2345 15.7949C15.8266 16.102 16.3063 16.5496 16.7071 16.9355C16.7494 16.9762 16.7906 17.0164 16.8312 17.0557C17.2002 17.4122 17.5078 17.709 17.8536 17.9355C18.1254 18.1136 18.4886 18.25 18.9737 18.25C19.3812 18.2499 19.7364 18.1539 20.0421 18.0078C20.4578 17.8091 20.7497 17.4465 20.9474 16.9277C21.1488 16.3987 21.233 15.7523 21.2442 15.0898C21.3026 11.6334 20.9239 9.21992 20.2823 7.5957C19.6485 5.99146 18.7793 5.20034 17.8399 4.86719C17.5836 4.77632 17.2806 4.75001 16.8976 4.75H16.2853C15.563 4.75 14.8583 4.97436 14.2687 5.3916L13.7667 5.74707C13.2503 6.11257 12.6329 6.30857 12.0001 6.30859C11.3675 6.30859 10.75 6.11253 10.2335 5.74707L9.73154 5.3916C9.14189 4.9743 8.43733 4.75 7.71494 4.75H7.10264ZM7.5001 8.25C7.91427 8.25006 8.2501 8.58583 8.2501 9V9.75H9.0001C9.41427 9.75006 9.7501 10.0858 9.7501 10.5C9.7501 10.9142 9.41427 11.2499 9.0001 11.25H8.2501V12C8.2501 12.4142 7.91427 12.7499 7.5001 12.75C7.08589 12.75 6.7501 12.4142 6.7501 12V11.25H6.0001C5.58589 11.25 5.2501 10.9142 5.2501 10.5C5.2501 10.0858 5.58589 9.75 6.0001 9.75H6.7501V9C6.7501 8.58579 7.08589 8.25 7.5001 8.25ZM16.7501 11C17.1643 11.0001 17.5001 11.3358 17.5001 11.75C17.5001 12.1642 17.1643 12.4999 16.7501 12.5C16.3359 12.5 16.0001 12.1642 16.0001 11.75C16.0001 11.3358 16.3359 11 16.7501 11ZM15.2501 9.5C15.6643 9.50006 16.0001 9.83582 16.0001 10.25C16.0001 10.6642 15.6643 10.9999 15.2501 11C14.8359 11 14.5001 10.6642 14.5001 10.25C14.5001 9.83579 14.8359 9.5 15.2501 9.5ZM18.2501 9.5C18.6643 9.50006 19.0001 9.83582 19.0001 10.25C19.0001 10.6642 18.6643 10.9999 18.2501 11C17.8359 11 17.5001 10.6642 17.5001 10.25C17.5001 9.83579 17.8359 9.5 18.2501 9.5ZM16.7501 8C17.1643 8.00006 17.5001 8.33582 17.5001 8.75C17.5001 9.16418 17.1643 9.49994 16.7501 9.5C16.3359 9.5 16.0001 9.16421 16.0001 8.75C16.0001 8.33579 16.3359 8 16.7501 8Z" fill="#48465C"/>
</svg>
