<svg width="24" height="24" viewBox="0 0 24 24" fill="none" xmlns="http://www.w3.org/2000/svg">
<path fill-rule="evenodd" clip-rule="evenodd" d="M7.7149 5C8.59248 5 9.44872 5.27235 10.1651 5.7793L10.667 6.13477C11.0568 6.41054 11.5227 6.55856 12.0001 6.55859C12.4775 6.55859 12.9433 6.41046 13.3331 6.13477L13.835 5.7793C14.5513 5.27233 15.4077 5 16.2852 5H16.8975C17.3016 5 17.7101 5.02514 18.0909 5.16016C20.4736 6.00522 22.1127 9.09501 21.9942 16.1025C21.9703 17.5144 21.6401 19.0754 20.3663 19.6846C19.9693 19.8745 19.5036 20 18.9737 20C18.3377 20 17.8322 19.819 17.4424 19.5635C17.0336 19.2956 16.6743 18.9467 16.3145 18.5986C15.8699 18.1684 15.4248 17.7389 14.8887 17.4609C14.3048 17.1582 13.6567 17 12.9991 17H11.001C10.3434 17 9.69523 17.1582 9.11138 17.4609C8.5754 17.7389 8.13104 18.1686 7.68658 18.5986C7.32679 18.9467 6.96645 19.2956 6.55767 19.5635C6.16797 19.8188 5.66306 19.9999 5.0274 20C4.49755 20 4.0317 19.8744 3.63482 19.6846C2.36089 19.0754 2.02979 17.5144 2.00591 16.1025C1.88737 9.09503 3.52654 6.00522 5.90923 5.16016C6.29011 5.02508 6.69847 5.00001 7.10259 5H7.7149ZM7.50005 9.25C7.08592 9.25009 6.75005 9.58585 6.75005 10V10.75H6.00005C5.58592 10.7501 5.25005 11.0859 5.25005 11.5C5.25005 11.9141 5.58592 12.2499 6.00005 12.25H6.75005V13C6.75005 13.4141 7.08592 13.7499 7.50005 13.75C7.91426 13.75 8.25005 13.4142 8.25005 13V12.25H9.00005C9.41426 12.25 9.75005 11.9142 9.75005 11.5C9.75005 11.0858 9.41426 10.75 9.00005 10.75H8.25005V10C8.25005 9.58579 7.91426 9.25 7.50005 9.25ZM16.7501 12C16.3359 12.0001 16.0001 12.3359 16.0001 12.75C16.0001 13.1641 16.3359 13.4999 16.7501 13.5C17.1643 13.5 17.5001 13.1642 17.5001 12.75C17.5001 12.3358 17.1643 12 16.7501 12ZM15.2501 10.5C14.8359 10.5001 14.5001 10.8359 14.5001 11.25C14.5001 11.6641 14.8359 11.9999 15.2501 12C15.6643 12 16.0001 11.6642 16.0001 11.25C16.0001 10.8358 15.6643 10.5 15.2501 10.5ZM18.2501 10.5C17.8359 10.5001 17.5001 10.8359 17.5001 11.25C17.5001 11.6641 17.8359 11.9999 18.2501 12C18.6643 12 19.0001 11.6642 19.0001 11.25C19.0001 10.8358 18.6643 10.5 18.2501 10.5ZM16.7501 9C16.3359 9.00009 16.0001 9.33585 16.0001 9.75C16.0001 10.1641 16.3359 10.4999 16.7501 10.5C17.1643 10.5 17.5001 10.1642 17.5001 9.75C17.5001 9.33579 17.1643 9 16.7501 9Z" fill="#48465C"/>
</svg>
