<svg width="24" height="24" viewBox="0 0 24 24" fill="none" xmlns="http://www.w3.org/2000/svg">
<path d="M7.71484 5C8.59241 5 9.44866 5.27235 10.165 5.7793L10.667 6.13477C11.0567 6.41054 11.5226 6.55856 12 6.55859C12.4774 6.55859 12.9433 6.41046 13.333 6.13477L13.835 5.7793C14.5513 5.27233 15.4076 5 16.2851 5H16.8975C17.3016 5 17.71 5.02514 18.0908 5.16016C20.4735 6.00522 22.1126 9.09501 21.9941 16.1025C21.9702 17.5144 21.6401 19.0754 20.3662 19.6846C19.9692 19.8745 19.5036 20 18.9736 20C18.3376 20 17.8322 19.819 17.4424 19.5635C17.0336 19.2956 16.6742 18.9467 16.3144 18.5986C15.8698 18.1684 15.4248 17.7389 14.8887 17.4609C14.3047 17.1582 13.6566 17 12.999 17H11.001C10.3434 17 9.69517 17.1582 9.11132 17.4609C8.57534 17.7389 8.13098 18.1686 7.68652 18.5986C7.32673 18.9467 6.96639 19.2956 6.55761 19.5635C6.16791 19.8188 5.663 19.9999 5.02734 20C4.49749 20 4.03164 19.8744 3.63476 19.6846C2.36083 19.0754 2.02973 17.5144 2.00585 16.1025C1.88731 9.09503 3.52648 6.00522 5.90917 5.16016C6.29005 5.02508 6.69841 5.00001 7.10253 5H7.71484ZM7.49999 9.25C7.08586 9.25009 6.74999 9.58585 6.74999 10V10.75H5.99999C5.58586 10.7501 5.24999 11.0859 5.24999 11.5C5.24999 11.9141 5.58586 12.2499 5.99999 12.25H6.74999V13C6.74999 13.4141 7.08586 13.7499 7.49999 13.75C7.9142 13.75 8.24999 13.4142 8.24999 13V12.25H8.99999C9.4142 12.25 9.74999 11.9142 9.74999 11.5C9.74999 11.0858 9.4142 10.75 8.99999 10.75H8.24999V10C8.24999 9.58579 7.9142 9.25 7.49999 9.25ZM16.75 12C16.3359 12.0001 16 12.3359 16 12.75C16 13.1641 16.3359 13.4999 16.75 13.5C17.1642 13.5 17.5 13.1642 17.5 12.75C17.5 12.3358 17.1642 12 16.75 12ZM15.25 10.5C14.8359 10.5001 14.5 10.8359 14.5 11.25C14.5 11.6641 14.8359 11.9999 15.25 12C15.6642 12 16 11.6642 16 11.25C16 10.8358 15.6642 10.5 15.25 10.5ZM18.25 10.5C17.8359 10.5001 17.5 10.8359 17.5 11.25C17.5 11.6641 17.8359 11.9999 18.25 12C18.6642 12 19 11.6642 19 11.25C19 10.8358 18.6642 10.5 18.25 10.5ZM16.75 9C16.3359 9.00009 16 9.33585 16 9.75C16 10.1641 16.3359 10.4999 16.75 10.5C17.1642 10.5 17.5 10.1642 17.5 9.75C17.5 9.33579 17.1642 9 16.75 9Z" fill="#48465C"/>
</svg>
