<svg width="24" height="24" viewBox="0 0 24 24" fill="none" xmlns="http://www.w3.org/2000/svg">
<path d="M17.2881 3.76278C17.4191 3.36983 17.8443 3.15719 18.2373 3.28817L18.792 3.47372C19.3626 3.6639 19.8465 3.8246 20.2305 4.00009C20.6393 4.18694 20.9973 4.4168 21.2822 4.77645C21.567 5.1361 21.7086 5.53691 21.7969 5.97762C21.8798 6.39175 21.926 6.89989 21.9805 7.49911L22.6777 15.169C22.7249 15.4363 22.7495 15.7115 22.75 15.9923C22.7443 18.6108 20.6199 20.7501 18 20.7501C15.6367 20.7501 13.677 19.0239 13.3115 16.7638L13.0918 16.6856C12.3857 16.4339 11.6143 16.4339 10.9082 16.6856L10.6885 16.7638C10.323 19.0239 8.36325 20.7501 6 20.7501C3.38011 20.7501 1.25561 18.6108 1.25 15.9923C1.25046 15.7115 1.27511 15.4363 1.32227 15.169L2.01953 7.49911C2.07398 6.89988 2.12021 6.39175 2.20312 5.97762C2.29138 5.53691 2.43293 5.1361 2.71777 4.77645C3.00261 4.4168 3.36073 4.18694 3.76953 4.00009C4.15356 3.82461 4.63745 3.66389 5.20801 3.47372L5.7627 3.28817C6.15566 3.15719 6.58092 3.36983 6.71191 3.76278C6.84279 4.15562 6.63005 4.57994 6.2373 4.71102L5.71875 4.88387C5.10154 5.08962 4.69482 5.22621 4.39258 5.36434C4.10678 5.49497 3.97871 5.60056 3.89355 5.70809C3.80852 5.81555 3.73547 5.96396 3.67383 6.27157C3.60858 6.5974 3.56866 7.025 3.50977 7.67294L3.14355 11.71L3.09473 12.2413C3.89782 11.6196 4.90583 11.2501 6 11.2501C8.34505 11.2501 10.2937 12.9493 10.6807 15.1837C11.5424 14.9345 12.4576 14.9345 13.3193 15.1837C13.7063 12.9493 15.655 11.2501 18 11.2501C19.0942 11.2501 20.1022 11.6196 20.9053 12.2413L20.4902 7.67294C20.4313 7.02499 20.3915 6.5974 20.3262 6.27157C20.2645 5.96397 20.1915 5.81555 20.1064 5.70809C20.0213 5.60056 19.8932 5.49497 19.6074 5.36434C19.3052 5.2262 18.8985 5.08963 18.2812 4.88387L17.7627 4.71102C17.37 4.57996 17.1572 4.15563 17.2881 3.76278ZM6 12.7501C4.41845 12.7501 3.1005 13.8796 2.80957 15.3761L2.75 16.0323C2.76736 17.8124 4.21588 19.2501 6 19.2501C7.79489 19.2501 9.24993 17.7949 9.25 16.0001C9.25 14.2052 7.79493 12.7501 6 12.7501ZM18 12.7501C16.2051 12.7501 14.75 14.2052 14.75 16.0001C14.7501 17.7949 16.2051 19.2501 18 19.2501C19.7841 19.2501 21.2327 17.8124 21.25 16.0323L21.1904 15.3761C20.8995 13.8796 19.5816 12.7501 18 12.7501Z" fill="#48465C"/>
</svg>
