<svg width="24" height="24" viewBox="0 0 24 24" fill="none" xmlns="http://www.w3.org/2000/svg">
<path d="M18.0039 1.49974C18.2801 1.19119 18.7539 1.16492 19.0625 1.44114C21.3245 3.46578 22.75 6.41073 22.75 9.68724C22.7497 15.4384 18.361 20.1641 12.75 20.699V21.2497H14C14.4142 21.2497 14.75 21.5855 14.75 21.9997C14.75 22.4139 14.4142 22.7497 14 22.7497H9.99998C9.58578 22.7497 9.24998 22.4139 9.24998 21.9997C9.24999 21.5855 9.58578 21.2497 9.99998 21.2497H11.25V20.7409C8.14927 20.6204 5.37559 19.2233 3.44139 17.0622C3.16517 16.7537 3.19144 16.2799 3.49998 16.0036C3.80863 15.7273 4.28232 15.7535 4.55857 16.0622C6.31069 18.0198 8.85532 19.2497 11.6875 19.2497C16.9686 19.2495 21.2497 14.9684 21.25 9.68724C21.25 6.85507 20.0201 4.31045 18.0625 2.55833C17.7538 2.28208 17.7276 1.80839 18.0039 1.49974ZM17.041 5.14329C18.2539 6.40196 18.9999 8.11375 19 9.99974C19 10.5319 18.9406 11.0504 18.8281 11.5486C18.7607 11.7482 18.6767 11.9353 18.5254 12.1316C18.2882 12.4394 17.8126 12.8165 16.6338 12.8288H16.6279L16.5996 12.8298C16.5759 12.8302 16.5433 12.8302 16.5029 12.8318C16.422 12.835 16.3085 12.8419 16.1719 12.8542C15.9007 12.8785 15.5266 12.9275 15.1211 13.0271C14.3629 13.2135 13.25 13.637 12.7041 14.6658C12.2733 15.4774 12.2243 16.3108 12.3213 16.9929C12.2148 16.9978 12.1077 16.9997 12 16.9997C8.134 16.9997 4.99998 13.8657 4.99998 9.99974C5.00002 8.28043 5.61997 6.70551 6.64842 5.48704C6.74954 5.63049 6.85109 5.78455 6.9492 5.947C7.35058 6.61177 7.66193 7.36343 7.72557 8.09739C7.89634 10.0685 9.2076 11.9345 11.4306 11.9597C12.3924 11.9705 13.5568 11.2474 13.5537 9.99192C13.553 9.70453 13.5079 9.42419 13.4424 9.17649C13.4108 9.05733 13.4153 8.95968 13.4609 8.86204C13.6314 8.49759 13.8831 8.25455 14.2265 8.01927C14.3865 7.90969 14.5529 7.81071 14.7451 7.69603L14.8222 7.65013C15.0375 7.52145 15.2833 7.37276 15.5205 7.19603C15.8653 6.9391 16.3108 6.5775 16.5469 6.20579C16.7338 5.91161 16.9068 5.53445 17.041 5.14329ZM17.3965 14.4577C16.519 15.5188 15.3347 16.3167 13.9795 16.7156C13.933 16.3343 13.9629 15.8762 14.1875 15.4529C14.3794 15.0912 14.8656 14.8191 15.5215 14.6579C15.8228 14.5838 16.1094 14.5462 16.3222 14.5271C16.4277 14.5177 16.5128 14.5128 16.5693 14.5105C16.5973 14.5094 16.6182 14.5087 16.6308 14.5085H16.6513C16.9157 14.5058 17.164 14.4883 17.3965 14.4577ZM12 2.99974C13.32 2.99974 14.5547 3.3656 15.6084 4.00071C15.5932 4.08966 15.5717 4.19037 15.542 4.30247C15.4364 4.70158 15.2702 5.08305 15.1289 5.3054C15.08 5.38222 14.8796 5.57791 14.5166 5.84837C14.3546 5.96907 14.1741 6.07971 13.9599 6.20774L13.8857 6.25267C13.6984 6.36431 13.4839 6.49193 13.2773 6.63353C12.7894 6.9678 12.2812 7.41961 11.9394 8.15013C11.6923 8.67849 11.7091 9.1934 11.8183 9.60618C11.854 9.74078 11.8737 9.87673 11.874 9.99583C11.8741 10.0329 11.8591 10.0927 11.7763 10.1618C11.6874 10.2361 11.5618 10.2812 11.4492 10.28C10.3724 10.2676 9.52279 9.37555 9.39939 7.95286C9.3057 6.8714 8.86446 5.86848 8.38768 5.07884C8.22622 4.81144 8.0561 4.56204 7.88768 4.3347C9.04219 3.49525 10.4633 2.99974 12 2.99974Z" fill="#48465C"/>
</svg>
