<svg width="24" height="24" viewBox="0 0 24 24" fill="none" xmlns="http://www.w3.org/2000/svg">
<path fill-rule="evenodd" clip-rule="evenodd" d="M18.0032 1.50028C18.2794 1.19167 18.7542 1.16454 19.0628 1.44071C21.3248 3.46531 22.7502 6.41033 22.7503 9.68681C22.7503 15.4381 18.3614 20.1645 12.7503 20.6995V21.2503H14.0003C14.4144 21.2504 14.7503 21.5862 14.7503 22.0003C14.7501 22.4143 14.4143 22.7501 14.0003 22.7503H10.0003C9.58616 22.7503 9.25043 22.4144 9.25028 22.0003C9.25028 21.5861 9.58607 21.2503 10.0003 21.2503H11.2503V20.7415C8.14951 20.621 5.37492 19.2239 3.44071 17.0628C3.16454 16.7542 3.19167 16.2794 3.50028 16.0032C3.80886 15.7274 4.28272 15.7535 4.55888 16.0618C6.31095 18.0194 8.85472 19.2502 11.6868 19.2503C16.9683 19.2503 21.2503 14.9683 21.2503 9.68681C21.2502 6.85472 20.0194 4.31095 18.0618 2.55888C17.7535 2.28272 17.7274 1.80886 18.0032 1.50028ZM12.0003 2.25028C16.2804 2.25042 19.7503 5.72017 19.7503 10.0003C19.7501 14.2803 16.2803 17.7501 12.0003 17.7503C7.72017 17.7503 4.25042 14.2804 4.25028 10.0003C4.25028 5.72008 7.72008 2.25028 12.0003 2.25028ZM16.5013 5.66337C16.3788 6.02036 16.2226 6.35639 16.0599 6.61259C15.849 6.94447 15.4508 7.26698 15.1429 7.49638C14.9311 7.6541 14.7119 7.78679 14.5198 7.90165C14.4966 7.91552 14.4739 7.92932 14.4515 7.94266C14.2799 8.04501 14.1313 8.13396 13.9886 8.23173C13.6819 8.44186 13.4562 8.65912 13.304 8.98466C13.2634 9.0717 13.2593 9.15871 13.2874 9.26493C13.3459 9.48617 13.3864 9.73675 13.387 9.99345C13.3896 11.1143 12.3501 11.76 11.4915 11.7503C9.50684 11.7278 8.33651 10.0617 8.18388 8.30204C8.11151 7.46671 7.6815 6.62289 7.22196 5.97098C6.30365 7.05893 5.75028 8.46512 5.75028 10.0003C5.75042 13.452 8.5486 16.2503 12.0003 16.2503C12.0965 16.2503 12.1923 16.2477 12.2874 16.2434C12.2007 15.6345 12.2436 14.8901 12.6282 14.1653C13.1156 13.247 14.1096 12.8688 14.7864 12.7024C15.1485 12.6135 15.4828 12.5698 15.7249 12.5481C15.8467 12.5372 15.9476 12.5314 16.0198 12.5286C16.056 12.5271 16.0855 12.527 16.1067 12.5266L16.1321 12.5257H16.138C16.8874 12.5178 17.3086 12.3427 17.5559 12.1643C17.8042 11.9852 17.9516 11.7496 18.0579 11.4847C18.0672 11.4616 18.0769 11.4389 18.0882 11.4173C18.1938 10.962 18.2503 10.4877 18.2503 10.0003C18.2503 8.31632 17.5842 6.78722 16.5013 5.66337ZM16.8186 13.9808C16.6102 14.0081 16.3887 14.0233 16.1536 14.0257H16.135C16.1236 14.026 16.1045 14.0266 16.0794 14.0276C16.029 14.0296 15.9528 14.0338 15.8587 14.0423C15.6687 14.0593 15.4126 14.0933 15.1438 14.1595C14.5586 14.3033 14.1248 14.5458 13.9534 14.8684C13.7528 15.2465 13.7255 15.6559 13.7669 15.9964C14.9772 15.6404 16.035 14.9282 16.8186 13.9808ZM12.0003 3.75028C10.6283 3.75028 9.35924 4.19217 8.32841 4.94169C8.9181 5.73763 9.56793 6.90145 9.67802 8.17216C9.78809 9.44252 10.5467 10.2392 11.5081 10.2503C11.6085 10.2514 11.7207 10.211 11.8001 10.1448C11.8737 10.0833 11.887 10.0305 11.887 9.99735C11.8867 9.89091 11.8701 9.76905 11.8382 9.64872C11.7406 9.28015 11.7249 8.82073 11.9456 8.34891C12.2507 7.69658 12.7043 7.29292 13.1399 6.99442C13.3246 6.86786 13.5165 6.75335 13.6839 6.6536C13.7064 6.6402 13.7288 6.62742 13.7503 6.61454C13.9414 6.50029 14.1018 6.40095 14.2464 6.29325C14.5708 6.05152 14.7498 5.87636 14.7933 5.8079C14.9621 5.5421 15.1511 5.05965 15.222 4.64286C14.2813 4.07585 13.1787 3.75033 12.0003 3.75028Z" fill="#48465C"/>
</svg>
