<svg width="24" height="24" viewBox="0 0 24 24" fill="none" xmlns="http://www.w3.org/2000/svg">
<path d="M18.0039 1.49974C18.2801 1.19119 18.7539 1.16492 19.0625 1.44114C21.3245 3.46578 22.75 6.41073 22.75 9.68724C22.7497 15.4384 18.361 20.1641 12.75 20.699V21.2497H14C14.4142 21.2497 14.75 21.5855 14.75 21.9997C14.75 22.4139 14.4142 22.7497 14 22.7497H9.99997C9.58577 22.7497 9.24997 22.4139 9.24997 21.9997C9.24998 21.5855 9.58578 21.2497 9.99997 21.2497H11.25V20.7409C8.14926 20.6204 5.37558 19.2233 3.44138 17.0622C3.16516 16.7537 3.19143 16.2799 3.49997 16.0036C3.80862 15.7273 4.28232 15.7535 4.55857 16.0622C6.31069 18.0198 8.85531 19.2497 11.6875 19.2497C16.9686 19.2495 21.2497 14.9684 21.25 9.68724C21.25 6.85507 20.0201 4.31045 18.0625 2.55833C17.7538 2.28208 17.7276 1.80839 18.0039 1.49974ZM12 2.24974C16.2802 2.24974 19.75 5.71954 19.75 9.99974C19.75 14.2799 16.2802 17.7497 12 17.7497C7.71978 17.7497 4.24997 14.2799 4.24997 9.99974C4.24998 5.71955 7.71979 2.24975 12 2.24974ZM16.5009 5.6638C16.3785 6.02065 16.2222 6.35592 16.0595 6.61204C15.8486 6.94392 15.4505 7.26643 15.1426 7.49583C14.9308 7.65355 14.7116 7.78722 14.5195 7.90208C14.4963 7.91595 14.4736 7.92974 14.4511 7.9431C14.2796 8.04545 14.131 8.13341 13.9883 8.23118C13.6816 8.44129 13.4569 8.65863 13.3047 8.98411C13.2639 9.07126 13.26 9.15805 13.2881 9.26438C13.3466 9.48562 13.3871 9.73621 13.3877 9.9929C13.3905 11.1139 12.3499 11.7594 11.4912 11.7497C9.50659 11.7271 8.33609 10.0612 8.18357 8.30149C8.1112 7.46614 7.6812 6.62235 7.22165 5.97044C6.30335 7.05839 5.74998 8.46458 5.74997 9.99974C5.74997 13.4515 8.54821 16.2497 12 16.2497C12.0962 16.2497 12.1919 16.2472 12.2871 16.2429C12.2005 15.634 12.2444 14.8904 12.6289 14.1658C13.1162 13.2473 14.1092 12.8693 14.7861 12.7029C15.1484 12.6139 15.4834 12.5693 15.7256 12.5476C15.8473 12.5366 15.9484 12.5318 16.0205 12.529C16.0564 12.5275 16.0853 12.5265 16.1064 12.5261H16.1377C16.8873 12.5183 17.3092 12.3432 17.5566 12.1648C17.8048 11.9857 17.9513 11.7498 18.0576 11.4851C18.0669 11.4619 18.0776 11.4395 18.0888 11.4177C18.1945 10.9623 18.25 10.4873 18.25 9.99974C18.25 8.31582 17.5838 6.78764 16.5009 5.6638ZM16.8183 13.9802C16.6099 14.0076 16.3884 14.0227 16.1533 14.0251L16.1455 14.0261H16.1347C16.1233 14.0264 16.1042 14.0261 16.0791 14.0271C16.0287 14.0291 15.9532 14.0333 15.8593 14.0417C15.6694 14.0587 15.4134 14.0928 15.1445 14.1589C14.5589 14.3028 14.1244 14.546 13.9531 14.8689C13.7526 15.247 13.7252 15.6564 13.7666 15.9968C14.9769 15.6408 16.0347 14.9277 16.8183 13.9802ZM12 3.74974C10.628 3.74974 9.35892 4.19163 8.3281 4.94114C8.91777 5.73705 9.56855 6.90096 9.67868 8.17161C9.78876 9.44218 10.5472 10.2388 11.5088 10.2497C11.6093 10.2508 11.7214 10.2106 11.8008 10.1443C11.8744 10.0826 11.8877 10.0299 11.8877 9.99681C11.8874 9.89049 11.8697 9.76934 11.8379 9.64915C11.7403 9.28055 11.7246 8.82026 11.9453 8.34837C12.2505 7.69596 12.7049 7.29238 13.1406 6.99388C13.3251 6.86751 13.5164 6.75367 13.6836 6.65403C13.7061 6.64062 13.7284 6.62688 13.75 6.61399C13.9412 6.49968 14.1024 6.40048 14.247 6.29271C14.5712 6.05116 14.7504 5.87679 14.7939 5.80833C14.9628 5.54261 15.1507 5.0601 15.2217 4.64329C14.2809 4.0762 13.1786 3.74974 12 3.74974Z" fill="#48465C"/>
</svg>
