<svg width="24" height="24" viewBox="0 0 24 24" fill="none" xmlns="http://www.w3.org/2000/svg">
<path fill-rule="evenodd" clip-rule="evenodd" d="M18.0032 1.50028C18.2794 1.19167 18.7542 1.16454 19.0628 1.44071C21.3248 3.46531 22.7502 6.41033 22.7503 9.68681C22.7503 15.4381 18.3614 20.1645 12.7503 20.6995V21.2503H14.0003C14.4144 21.2504 14.7503 21.5862 14.7503 22.0003C14.7501 22.4143 14.4143 22.7501 14.0003 22.7503H10.0003C9.58616 22.7503 9.25043 22.4144 9.25028 22.0003C9.25028 21.5861 9.58607 21.2503 10.0003 21.2503H11.2503V20.7415C8.14951 20.621 5.37492 19.2239 3.44071 17.0628C3.16454 16.7542 3.19167 16.2794 3.50028 16.0032C3.80886 15.7274 4.28272 15.7535 4.55888 16.0618C6.31095 18.0194 8.85472 19.2502 11.6868 19.2503C16.9683 19.2503 21.2503 14.9683 21.2503 9.68681C21.2502 6.85472 20.0194 4.31095 18.0618 2.55888C17.7535 2.28272 17.7274 1.80886 18.0032 1.50028ZM17.0413 5.14384C18.2541 6.40253 19.0003 8.11432 19.0003 10.0003C19.0003 10.5325 18.941 11.0509 18.8284 11.5491C18.761 11.7487 18.677 11.9358 18.5257 12.1321C18.2884 12.4399 17.8128 12.8171 16.6341 12.8294H16.5999C16.5762 12.8298 16.5427 12.8307 16.5022 12.8323C16.4214 12.8355 16.3085 12.8415 16.1722 12.8538C15.9009 12.8781 15.5262 12.9279 15.1204 13.0276C14.3623 13.214 13.2503 13.6371 12.7044 14.6653C12.2737 15.4769 12.2246 16.3104 12.3216 16.9925C12.2151 16.9974 12.108 17.0003 12.0003 17.0003C8.13433 17.0003 5.00035 13.8662 5.00028 10.0003C5.00028 8.28091 5.62024 6.7061 6.64872 5.48759C6.74988 5.63109 6.85136 5.78502 6.9495 5.94755C7.35092 6.61239 7.66228 7.36391 7.72587 8.09794C7.89665 10.069 9.20792 11.935 11.4309 11.9602C12.3927 11.9709 13.5571 11.2478 13.554 9.99247C13.5533 9.70501 13.5083 9.4248 13.4427 9.17704C13.4111 9.05776 13.4155 8.9603 13.4612 8.86259C13.6317 8.49807 13.8834 8.25512 14.2268 8.01981C14.3868 7.91024 14.5532 7.81126 14.7454 7.69657L14.8225 7.65067C15.0378 7.52203 15.2827 7.37227 15.5198 7.19559C15.8646 6.93866 16.3111 6.57805 16.5472 6.20634C16.7341 5.91219 16.9071 5.53497 17.0413 5.14384ZM17.3968 14.4583C16.5192 15.5195 15.3342 16.3173 13.9788 16.7161C13.9323 16.3348 13.9632 15.8768 14.1878 15.4534C14.3797 15.0917 14.8659 14.8197 15.5218 14.6585C15.823 14.5844 16.1098 14.5457 16.3225 14.5266C16.4276 14.5173 16.5122 14.5133 16.5686 14.511C16.5968 14.5099 16.6184 14.5093 16.6311 14.5091H16.6516C16.9161 14.5064 17.1642 14.4889 17.3968 14.4583ZM12.0003 3.00028C13.3202 3.00033 14.555 3.36521 15.6087 4.00028C15.5935 4.0894 15.5721 4.19064 15.5423 4.30302C15.4367 4.70188 15.2704 5.08256 15.1292 5.30497C15.0805 5.38163 14.8802 5.57822 14.5169 5.84891C14.3549 5.96961 14.1744 6.08026 13.9602 6.20829L13.886 6.25223C13.6985 6.36397 13.4834 6.49233 13.2766 6.63407C12.7888 6.96838 12.2804 7.42014 11.9388 8.15067C11.6916 8.67915 11.7094 9.19391 11.8186 9.60673C11.8543 9.74144 11.874 9.8772 11.8743 9.99638C11.8744 10.0335 11.8594 10.0933 11.7766 10.1624C11.6877 10.2367 11.5621 10.2808 11.4495 10.2796C10.3725 10.2674 9.52298 9.37545 9.3997 7.95243C9.30594 6.87104 8.86377 5.86897 8.387 5.07938C8.22551 4.81192 8.05644 4.56165 7.88798 4.33427C9.04245 3.49493 10.4637 3.00028 12.0003 3.00028Z" fill="#48465C"/>
</svg>
