<svg width="24" height="24" viewBox="0 0 24 24" fill="none" xmlns="http://www.w3.org/2000/svg">
<path fill-rule="evenodd" clip-rule="evenodd" d="M8.68359 14.4483C10.5493 14.0868 12.547 14.168 14.1631 15.1319C14.3902 15.2673 14.6034 15.4361 14.7891 15.6446C15.1648 16.0667 15.3589 16.5913 15.3682 17.1173C15.5593 16.9939 15.7507 16.857 15.9453 16.71L17.7529 15.3448C18.6575 14.6618 19.9724 14.6618 20.877 15.3448C21.7125 15.976 22.0454 17.1084 21.4473 18.0675C21.022 18.7492 20.3812 19.6922 19.7295 20.296C19.0706 20.9062 18.1332 21.4194 17.4238 21.7618C16.5623 22.1776 15.6314 22.4084 14.7266 22.5548C12.8775 22.854 10.9533 22.8073 9.125 22.4307C8.19063 22.2382 7.21934 22.1388 6.25977 22.1388H4C3.58586 22.1387 3.25007 21.8029 3.25 21.3888C3.25 20.9746 3.58582 20.6388 4 20.6388H6.25977C7.32188 20.6388 8.39455 20.7492 9.42773 20.962C11.0798 21.3024 12.8203 21.3431 14.4873 21.0733C15.3161 20.9391 16.0901 20.7401 16.7715 20.4112C17.4547 20.0814 18.2228 19.6473 18.71 19.1964C19.2024 18.7402 19.7542 17.9485 20.1748 17.2745C20.3017 17.071 20.2839 16.7772 19.9727 16.5421C19.603 16.2629 19.0268 16.263 18.6572 16.5421L16.8496 17.9073C16.1282 18.4522 15.24 19.0353 14.1387 19.211C14.0277 19.2287 13.912 19.2446 13.792 19.2589C13.7347 19.2693 13.6749 19.2761 13.6133 19.2784C13.051 19.3343 12.3999 19.3473 11.6816 19.2794C11.2692 19.2405 10.9659 18.8744 11.0049 18.462C11.0439 18.0498 11.41 17.7473 11.8223 17.7862C12.4497 17.8454 13.0126 17.8323 13.4902 17.7833C13.4999 17.7823 13.5099 17.7814 13.5195 17.7804C13.5394 17.7688 13.5696 17.7476 13.6094 17.713C13.9288 17.4341 13.9581 16.9666 13.6689 16.6417C13.5956 16.5594 13.5044 16.4856 13.3945 16.42C12.2135 15.7158 10.6364 15.5981 8.96973 15.921C7.3122 16.2421 5.66465 16.9816 4.43359 17.8546C4.09575 18.0941 3.62829 18.0146 3.38867 17.6768C3.14906 17.3389 3.22854 16.8706 3.56641 16.6309C4.96465 15.6395 6.80854 14.8116 8.68359 14.4483ZM8.26562 2.26571C9.62005 0.911329 11.8164 0.91153 13.1709 2.26571L15.7344 4.82919C17.0887 6.18371 17.0888 8.37997 15.7344 9.73446C14.3799 11.0889 12.1836 11.0888 10.8291 9.73446L8.26562 7.17098C6.91142 5.81643 6.9112 3.62013 8.26562 2.26571ZM14.2129 5.42977C13.951 5.89199 13.5655 6.4385 13.002 7.00204C12.4385 7.56554 11.8918 7.95114 11.4297 8.21298L11.8896 8.67391C12.6584 9.44255 13.9052 9.44263 14.6738 8.67391C15.4425 7.90522 15.4425 6.65847 14.6738 5.88973L14.2129 5.42977ZM12.1104 3.32723C11.3417 2.55848 10.0949 2.55848 9.32617 3.32723C8.55798 4.0959 8.5579 5.34182 9.32617 6.11044L10.3145 7.09872C10.3484 7.08353 10.3839 7.06671 10.4209 7.04891C10.807 6.86283 11.3545 6.52835 11.9414 5.94149C12.5281 5.35468 12.8626 4.80715 13.0488 4.42098C13.0666 4.38406 13.0835 4.34846 13.0986 4.31454L12.1104 3.32723Z" fill="#48465C"/>
</svg>
