<svg width="24" height="24" viewBox="0 0 24 24" fill="none" xmlns="http://www.w3.org/2000/svg">
<path fill-rule="evenodd" clip-rule="evenodd" d="M4.41367 17.859C4.77141 17.6505 5.23036 17.7719 5.43906 18.1295C6.26591 19.5475 7.53061 20.6192 9.08945 21.3151C9.4677 21.4839 9.63717 21.928 9.46836 22.3063C9.29948 22.6843 8.8563 22.8539 8.47812 22.6852C6.66674 21.8767 5.14709 20.6051 4.14414 18.8854C3.93548 18.5276 4.05585 18.0677 4.41367 17.859ZM9.71836 3.08165C10.3521 2.7195 10.976 2.94211 11.19 3.30919L14.6109 9.17443C14.8615 9.60401 14.7482 10.1458 14.4186 10.5182C13.2397 11.8502 12.871 13.7352 13.7838 15.3004C13.9924 15.6582 14.4523 15.7786 14.8102 15.5699C15.1675 15.3612 15.2883 14.9023 15.0797 14.5445C14.4044 13.3865 14.8771 11.6819 16.4195 10.8004C16.5932 10.7011 16.7203 10.5366 16.7721 10.3434C16.8238 10.1503 16.7956 9.9448 16.6949 9.77208L15.0113 6.88439C14.8009 6.52373 14.9124 5.88781 15.5436 5.52696C16.1773 5.16481 16.8011 5.38742 17.0152 5.7545L19.5406 10.0856C21.1458 12.8382 19.9499 16.6792 16.5855 18.6022C13.2187 20.5264 9.24835 19.6314 7.63926 16.8727L3.85019 10.3756C3.63997 10.0149 3.75135 9.37899 4.38242 9.01818C5.0161 8.65603 5.64005 8.87863 5.8541 9.24571L7.53769 12.1334C7.74642 12.4911 8.20633 12.6116 8.56406 12.4029C8.92158 12.1943 9.0421 11.7352 8.83359 11.3776L5.04551 4.88048C4.83518 4.5198 4.9464 3.88388 5.57773 3.52306C6.21117 3.16125 6.8343 3.38371 7.04844 3.7506L10.4166 9.52501C10.6253 9.88281 11.0842 10.0042 11.442 9.79552C11.7997 9.58693 11.9209 9.1279 11.7125 8.77013L9.18613 4.43907C8.97583 4.07847 9.08734 3.44252 9.71836 3.08165ZM14.6197 1.46446C16.5577 0.913017 18.5742 1.43999 19.9771 2.87267C20.2669 3.16859 20.2622 3.64341 19.9664 3.93321C19.6704 4.22299 19.1957 4.21835 18.9059 3.92247C17.892 2.88707 16.4462 2.5052 15.0309 2.90782C14.6325 3.02118 14.2175 2.78962 14.1041 2.39122C13.991 1.99292 14.2215 1.57784 14.6197 1.46446Z" fill="#48465C"/>
</svg>
