<svg width="24" height="24" viewBox="0 0 24 24" fill="none" xmlns="http://www.w3.org/2000/svg">
<path d="M8.68362 14.4482C10.5494 14.0867 12.5469 14.1678 14.1631 15.1318C14.3901 15.2672 14.6025 15.4361 14.7881 15.6445C15.164 16.0667 15.3589 16.5912 15.3682 17.1172C15.5593 16.9939 15.7508 16.8569 15.9453 16.71L17.752 15.3447C18.6564 14.6615 19.9713 14.6617 20.876 15.3447C21.7118 15.9759 22.0454 17.1082 21.4473 18.0674C21.0219 18.7491 20.3813 19.6921 19.7295 20.2959C19.0705 20.9062 18.1323 21.4193 17.4229 21.7617C16.5615 22.1774 15.6313 22.4073 14.7266 22.5537C12.8774 22.853 10.9534 22.8072 9.12503 22.4307C8.19063 22.2381 7.2194 22.1387 6.25979 22.1387H4.00003C3.58591 22.1387 3.25017 21.8027 3.25003 21.3887C3.25003 20.9745 3.58582 20.6387 4.00003 20.6387H6.25979C7.3219 20.6387 8.39457 20.7491 9.42776 20.9619C11.0797 21.3023 12.8204 21.343 14.4873 21.0732C15.3161 20.939 16.0902 20.74 16.7715 20.4111C17.4549 20.0812 18.2229 19.6464 18.71 19.1953C19.2025 18.7391 19.7543 17.9475 20.1748 17.2734C20.3014 17.07 20.2835 16.7769 19.9727 16.542C19.603 16.2628 19.0259 16.2628 18.6563 16.542L16.8496 17.9072C16.1283 18.4521 15.2401 19.0352 14.1387 19.2109C14.0277 19.2286 13.912 19.2445 13.792 19.2588C13.7349 19.2692 13.6748 19.276 13.6133 19.2783C13.051 19.3342 12.3991 19.3472 11.6807 19.2793C11.2685 19.2402 10.966 18.8742 11.0049 18.4619C11.0439 18.0496 11.41 17.7471 11.8223 17.7861C12.4496 17.8453 13.0127 17.8322 13.4903 17.7832C13.4997 17.7822 13.5092 17.7812 13.5186 17.7803C13.5384 17.7687 13.5695 17.7477 13.6094 17.7129C13.9289 17.434 13.9572 16.9665 13.668 16.6416C13.5947 16.5594 13.5044 16.4855 13.3946 16.4199C12.2134 15.7155 10.6357 15.5979 8.96878 15.9209C7.31137 16.242 5.66459 16.9816 4.43362 17.8545C4.09575 18.0941 3.62733 18.0146 3.38772 17.6768C3.14828 17.3389 3.22862 16.8705 3.56643 16.6309C4.96471 15.6394 6.80853 14.8115 8.68362 14.4482ZM4.00003 6.25C4.45428 6.25008 4.72782 6.54686 4.85647 6.71484C4.97737 6.87284 5.09608 7.08547 5.20511 7.28125C5.21161 7.29293 5.21821 7.30487 5.22464 7.31641L5.27249 7.40332L5.35745 7.42285C5.37032 7.42576 5.38344 7.42869 5.39651 7.43164C5.60729 7.4792 5.84207 7.53247 6.02737 7.60547C6.23837 7.68862 6.5745 7.87025 6.70413 8.28711C6.83109 8.69555 6.66675 9.03335 6.54886 9.2207C6.44242 9.38978 6.28446 9.57403 6.13968 9.74316C6.13116 9.75311 6.12269 9.7636 6.11428 9.77344L6.04104 9.8584L6.05276 9.97852C6.05402 9.99146 6.05539 10.0045 6.05667 10.0176C6.07873 10.2442 6.1017 10.4878 6.0928 10.6875C6.08332 10.9001 6.03142 11.2851 5.68264 11.5498C5.32174 11.8237 4.92851 11.7562 4.71585 11.6953C4.52481 11.6405 4.3047 11.5392 4.10745 11.4482C4.09532 11.4427 4.08326 11.4372 4.07132 11.4316L4.00003 11.3984L3.92874 11.4316C3.91665 11.4372 3.90391 11.4426 3.89163 11.4482C3.69447 11.5392 3.47513 11.6405 3.28421 11.6953C3.07167 11.7562 2.67844 11.8237 2.31741 11.5498C1.96859 11.285 1.91576 10.9001 1.90628 10.6875C1.89738 10.4878 1.92133 10.2442 1.94339 10.0176C1.94465 10.0045 1.94604 9.99146 1.94729 9.97852L1.95901 9.8584L1.88577 9.77344C1.87731 9.76354 1.86895 9.75317 1.86038 9.74316C1.71556 9.57398 1.55767 9.38984 1.4512 9.2207C1.33331 9.03341 1.16806 8.69559 1.29495 8.28711C1.42451 7.87046 1.76069 7.68867 1.97171 7.60547C2.15708 7.53241 2.39265 7.47923 2.60354 7.43164C2.61654 7.42871 2.62981 7.42575 2.64261 7.42285L2.72659 7.40332L2.77542 7.31641C2.78184 7.30489 2.78846 7.29289 2.79495 7.28125C2.90399 7.08544 3.02267 6.87282 3.14358 6.71484C3.27225 6.54683 3.54568 6.25 4.00003 6.25ZM20 6.25C20.4543 6.25008 20.7278 6.54686 20.8565 6.71484C20.9773 6.87284 21.0961 7.08546 21.2051 7.28125C21.2116 7.29293 21.2181 7.30487 21.2246 7.31641L21.2725 7.40332L21.3574 7.42285C21.3703 7.42576 21.3835 7.42869 21.3965 7.43164C21.6073 7.4792 21.8421 7.53248 22.0274 7.60547C22.2384 7.68862 22.5745 7.87025 22.7041 8.28711C22.8311 8.69556 22.6667 9.03336 22.5489 9.2207C22.4424 9.38979 22.2844 9.57402 22.1397 9.74316C22.1311 9.75311 22.1227 9.7636 22.1143 9.77344L22.041 9.8584L22.0528 9.97852C22.0541 9.99148 22.0555 10.0046 22.0567 10.0176C22.0788 10.2443 22.1017 10.4878 22.0928 10.6875C22.0833 10.9001 22.0314 11.2851 21.6826 11.5498C21.3218 11.8237 20.9285 11.7562 20.7158 11.6953C20.5248 11.6405 20.3046 11.5391 20.1074 11.4482C20.0953 11.4426 20.0833 11.4372 20.0713 11.4316L20 11.3984L19.9287 11.4316C19.9168 11.4372 19.9047 11.4427 19.8926 11.4482C19.6953 11.5392 19.4752 11.6405 19.2842 11.6953C19.0716 11.7562 18.6784 11.8237 18.3174 11.5498C17.9686 11.285 17.9158 10.9001 17.9063 10.6875C17.8974 10.4878 17.9213 10.2442 17.9434 10.0176C17.9447 10.0045 17.946 9.99145 17.9473 9.97852L17.959 9.8584L17.8858 9.77344C17.8773 9.76354 17.869 9.75317 17.8604 9.74316C17.7156 9.57397 17.5578 9.38985 17.4512 9.2207C17.3333 9.03342 17.168 8.69561 17.2949 8.28711C17.4245 7.87046 17.7607 7.68868 17.9717 7.60547C18.1571 7.53241 18.3926 7.47923 18.6035 7.43164C18.6166 7.42871 18.6298 7.42575 18.6426 7.42285L18.7266 7.40332L18.7754 7.31641C18.7819 7.3049 18.7885 7.29289 18.7949 7.28125C18.904 7.08544 19.0227 6.87281 19.1436 6.71484C19.2723 6.54683 19.5456 6.25 20 6.25ZM12 1.25C12.5489 1.25008 12.9015 1.60317 13.1172 1.88477C13.3248 2.15595 13.5374 2.53735 13.7686 2.95215C13.7771 2.96736 13.7855 2.98275 13.794 2.99805L13.9248 3.2334C13.9616 3.29937 13.9904 3.3508 14.0157 3.39453C14.0324 3.42371 14.046 3.44585 14.0567 3.46289C14.0734 3.46752 14.095 3.47289 14.1221 3.47949C14.169 3.49091 14.2235 3.50338 14.2949 3.51953L14.5498 3.57715C14.5672 3.58106 14.5845 3.58498 14.6016 3.58887C15.0484 3.68986 15.4654 3.78414 15.7803 3.9082C16.1215 4.04267 16.5344 4.28518 16.6934 4.7959C16.8497 5.29852 16.6574 5.73312 16.4629 6.04199C16.2802 6.33219 15.9977 6.66236 15.6914 7.02051L15.4844 7.2627C15.4359 7.31946 15.3981 7.36297 15.3662 7.40137C15.3401 7.43296 15.3216 7.45642 15.3086 7.47363C15.3103 7.52932 15.3175 7.60783 15.3321 7.75879L15.3633 8.08008C15.4098 8.55932 15.4528 8.9973 15.4375 9.3418C15.4215 9.6997 15.3365 10.179 14.9112 10.502C14.4736 10.8339 13.9845 10.7693 13.6377 10.6699C13.3131 10.5769 12.9231 10.3968 12.5049 10.2041C12.4887 10.1966 12.4724 10.1891 12.4561 10.1816L12.2178 10.0723C12.1509 10.0414 12.0993 10.0177 12.0547 9.99805C12.0329 9.98842 12.0149 9.98073 12 9.97461C11.9852 9.98073 11.9672 9.98841 11.9453 9.99805C11.9007 10.0177 11.8493 10.0414 11.7823 10.0723L11.544 10.1816C11.5277 10.1891 11.5114 10.1966 11.4951 10.2041C11.077 10.3968 10.6869 10.5769 10.3623 10.6699C10.0156 10.7693 9.52647 10.8337 9.08889 10.502C8.66354 10.179 8.5785 9.6997 8.56253 9.3418C8.54718 8.9973 8.58927 8.55931 8.63577 8.08008C8.6374 8.06323 8.63901 8.04625 8.64065 8.0293L8.66702 7.75879C8.68164 7.60784 8.68875 7.52931 8.69046 7.47363C8.67752 7.45642 8.65997 7.43293 8.63382 7.40137C8.602 7.36296 8.56419 7.31946 8.51565 7.2627L8.34182 7.05957C8.33071 7.04657 8.31968 7.03344 8.30862 7.02051C8.00227 6.66237 7.71983 6.33218 7.53714 6.04199C7.34272 5.73311 7.15034 5.29862 7.30667 4.7959C7.46562 4.28538 7.87764 4.04268 8.21878 3.9082C8.53376 3.78407 8.95156 3.68991 9.39846 3.58887C9.41564 3.58499 9.43296 3.58106 9.45022 3.57715L9.70511 3.51953C9.7765 3.50338 9.83105 3.49091 9.87796 3.47949C9.90524 3.47284 9.92657 3.46753 9.94339 3.46289C9.95408 3.44581 9.9675 3.42378 9.9844 3.39453C10.0097 3.35078 10.0384 3.29942 10.0752 3.2334L10.2061 2.99805C10.2146 2.98278 10.223 2.96732 10.2315 2.95215C10.4626 2.53735 10.6752 2.15593 10.8828 1.88477C11.0984 1.60314 11.451 1.25 12 1.25ZM4.00003 8.20117C3.94786 8.29748 3.83659 8.49442 3.65432 8.63281C3.45873 8.78129 3.22401 8.83092 3.126 8.85156C3.11624 8.85361 3.10746 8.85587 3.10061 8.85742L3.08011 8.86133L3.11233 8.90039C3.11734 8.90624 3.124 8.91305 3.13089 8.9209C3.19952 8.9991 3.35217 9.17348 3.42288 9.40039C3.49263 9.62468 3.46756 9.85501 3.45608 9.95996C3.45492 9.97058 3.45393 9.98036 3.45315 9.98828L3.45218 9.99902C3.54648 9.95389 3.76056 9.85449 4.00003 9.85449C4.23943 9.85454 4.4536 9.9539 4.54788 9.99902L4.54593 9.98828C4.54516 9.98035 4.54416 9.9706 4.543 9.95996C4.53152 9.85501 4.50645 9.62468 4.5762 9.40039C4.64694 9.17322 4.80059 8.99904 4.86917 8.9209C4.87594 8.91319 4.88179 8.90618 4.88675 8.90039L4.91995 8.86133L4.89944 8.85742C4.89259 8.85587 4.88382 8.85361 4.87405 8.85156C4.77628 8.83097 4.54151 8.78136 4.34573 8.63281C4.16343 8.49442 4.05219 8.29749 4.00003 8.20117ZM20 8.20117C19.9478 8.29747 19.8366 8.49442 19.6543 8.63281C19.4587 8.78129 19.224 8.83092 19.126 8.85156C19.1162 8.85361 19.1074 8.85587 19.1006 8.85742L19.0801 8.86133L19.1123 8.90039C19.1173 8.90624 19.124 8.91305 19.1309 8.9209C19.1995 8.9991 19.3522 9.17346 19.4229 9.40039C19.4927 9.62468 19.4676 9.85501 19.4561 9.95996C19.4549 9.97057 19.4539 9.98036 19.4532 9.98828L19.4522 9.99902C19.5465 9.95389 19.7605 9.85449 20 9.85449C20.2395 9.85454 20.4536 9.9539 20.5479 9.99902L20.5459 9.98828C20.5451 9.98035 20.5442 9.9706 20.543 9.95996C20.5315 9.855 20.5064 9.62468 20.5762 9.40039C20.6469 9.1732 20.8007 8.99903 20.8692 8.9209C20.8759 8.91318 20.8818 8.90618 20.8867 8.90039L20.9199 8.86133L20.8994 8.85742C20.8926 8.85587 20.8839 8.85362 20.8741 8.85156C20.7763 8.83098 20.5415 8.78136 20.3457 8.63281C20.1634 8.49442 20.0522 8.29748 20 8.20117ZM12 2.90039C11.8811 3.07686 11.7347 3.33725 11.5166 3.72852L11.3848 3.96387C11.3751 3.98124 11.3649 3.99977 11.3545 4.01855C11.2459 4.21582 11.0988 4.48417 10.8555 4.66895C10.6074 4.85719 10.3076 4.92265 10.0938 4.96973C10.0738 4.97412 10.0545 4.97827 10.0362 4.98242L9.78128 5.04004C9.3161 5.14529 9.02588 5.21315 8.83108 5.28125C8.95154 5.4622 9.15354 5.70148 9.48147 6.08496L9.6553 6.28711C9.66807 6.30203 9.68161 6.31809 9.69534 6.33398C9.84305 6.50498 10.0391 6.73246 10.1299 7.02441C10.2198 7.31333 10.1903 7.61225 10.167 7.84082C10.1649 7.86216 10.1621 7.88328 10.1602 7.90332L10.1338 8.17383C10.0869 8.65747 10.0588 8.97107 10.0596 9.19238C10.2518 9.12427 10.5146 9.00415 10.916 8.81934L11.1543 8.70996C11.1719 8.70188 11.1908 8.69254 11.21 8.68359C11.4078 8.59102 11.6886 8.45996 12 8.45996C12.3115 8.46001 12.5922 8.59103 12.7901 8.68359C12.8092 8.69254 12.8272 8.70188 12.8448 8.70996L13.083 8.81934C13.4848 9.00434 13.7483 9.12427 13.9405 9.19238C13.9413 8.97107 13.9122 8.65747 13.8653 8.17383L13.8389 7.90332C13.837 7.8833 13.8352 7.86213 13.833 7.84082C13.8097 7.61226 13.7794 7.31331 13.8692 7.02441C13.96 6.7323 14.157 6.50501 14.3047 6.33398C14.3185 6.31811 14.3311 6.30203 14.3438 6.28711L14.5176 6.08496C14.8453 5.70167 15.0476 5.46217 15.168 5.28125C14.9733 5.21319 14.6837 5.14522 14.2188 5.04004L13.9639 4.98242C13.9453 4.97821 13.9256 4.97419 13.9053 4.96973C13.6916 4.92267 13.3925 4.85702 13.1446 4.66895C12.9011 4.48409 12.7532 4.21584 12.6446 4.01855C12.6342 3.99968 12.6241 3.98132 12.6143 3.96387L12.4834 3.72852C12.2653 3.33718 12.1189 3.07689 12 2.90039Z" fill="#48465C"/>
</svg>
