<svg width="24" height="24" viewBox="0 0 24 24" fill="none" xmlns="http://www.w3.org/2000/svg">
<path d="M4.41348 17.859C4.7713 17.6504 5.23118 17.7718 5.43984 18.1296C6.26668 19.5474 7.53054 20.6193 9.08926 21.3151C9.46751 21.4839 9.63697 21.928 9.46816 22.3063C9.29924 22.6843 8.85608 22.854 8.47793 22.6852C6.66657 21.8768 5.14688 20.6051 4.14394 18.8854C3.9353 18.5276 4.05571 18.0678 4.41348 17.859ZM9.71816 3.08073C10.3516 2.71872 10.9756 2.94145 11.1898 3.30827L14.6107 9.17448C14.8613 9.60392 14.7487 10.1458 14.4193 10.5182C13.2405 11.8502 12.8708 13.7353 13.7836 15.3005C13.9922 15.6583 14.4521 15.7787 14.81 15.57C15.1675 15.3613 15.2881 14.9024 15.0795 14.5446C14.4043 13.3866 14.877 11.6819 16.4193 10.8005C16.593 10.7012 16.7201 10.5367 16.7719 10.3434C16.8236 10.1503 16.7965 9.94393 16.6957 9.77116L15.0111 6.88444C14.8008 6.5238 14.9123 5.88787 15.5434 5.52702C16.1771 5.16487 16.8009 5.38748 17.015 5.75456L19.5404 10.0856C21.1457 12.8383 19.9499 16.6793 16.5854 18.6022C13.2185 20.5264 9.24814 19.6315 7.63906 16.8727L3.85098 10.3757C3.64068 10.015 3.75122 9.3791 4.38223 9.01823C5.01591 8.65608 5.63985 8.87869 5.8539 9.24577L7.5375 12.1325C7.74616 12.4904 8.20606 12.6117 8.56387 12.403C8.92151 12.1944 9.04197 11.7353 8.8334 11.3776L5.04531 4.88053C4.83503 4.51984 4.94623 3.88392 5.57754 3.52311C6.21115 3.16112 6.83519 3.38361 7.04922 3.75065L10.4164 9.52506C10.6251 9.88282 11.084 10.0041 11.4418 9.79557C11.7995 9.58697 11.9208 9.12796 11.7123 8.77018L9.18691 4.43913C8.97658 4.07847 9.0869 3.44157 9.71816 3.08073ZM14.6195 1.46452C16.5576 0.913029 18.5749 1.43981 19.9779 2.87272C20.2676 3.16869 20.2621 3.64351 19.9662 3.93327C19.6702 4.22306 19.1955 4.21847 18.9057 3.92253C17.8918 2.88709 16.4461 2.50517 15.0307 2.90788C14.6323 3.02124 14.2173 2.78968 14.1039 2.39128C13.9908 1.99303 14.2214 1.57796 14.6195 1.46452Z" fill="#48465C"/>
</svg>
