<svg width="24" height="24" viewBox="0 0 24 24" fill="none" xmlns="http://www.w3.org/2000/svg">
<path fill-rule="evenodd" clip-rule="evenodd" d="M4.41432 17.8589C4.77207 17.6507 5.23114 17.7718 5.43971 18.1294C6.26649 19.5473 7.53046 20.6192 9.08912 21.315C9.46737 21.4838 9.63782 21.9279 9.469 22.3062C9.30018 22.6844 8.85604 22.8539 8.47779 22.6851C6.66648 21.8766 5.1467 20.605 4.14381 18.8853C3.93515 18.5275 4.0565 18.0676 4.41432 17.8589ZM8.97486 1.77884C10.1633 1.09983 11.7699 1.32581 12.4856 2.55325L13.9182 5.00931C14.1492 4.69519 14.4492 4.42419 14.7991 4.22415C15.9876 3.54493 17.5949 3.77108 18.3108 4.99857L20.8372 9.32962C22.9515 12.9556 21.2535 17.6621 17.3294 19.9048C13.4076 22.146 8.45371 21.247 6.34303 17.6275L2.55494 11.1314C1.83536 9.89735 2.44809 8.39595 3.63893 7.71536C3.98515 7.51758 4.36734 7.39682 4.75221 7.35501L3.74928 5.63626C3.02986 4.40234 3.64255 2.90181 4.83326 2.22122C5.8839 1.62078 7.26172 1.72708 8.06178 2.60794C8.29667 2.27507 8.60862 1.98816 8.97486 1.77884ZM11.1907 3.30911C10.9767 2.94204 10.3527 2.71945 9.719 3.08157C9.08765 3.4424 8.97645 4.07832 9.18678 4.439L11.7122 8.77005C11.9206 9.12774 11.8001 9.58671 11.4426 9.79544C11.0849 10.0041 10.625 9.88355 10.4163 9.52591L7.89088 5.19388L7.04908 3.75052C6.835 3.38347 6.21105 3.16085 5.5774 3.52298C4.94621 3.88372 4.83506 4.51968 5.04518 4.8804L8.83424 11.3775C9.04266 11.7352 8.92145 12.1943 8.56373 12.4029C8.20605 12.6115 7.74711 12.4909 7.53834 12.1333L5.85475 9.24564C5.6407 8.87859 5.01669 8.65608 4.38307 9.0181C3.75172 9.37893 3.64051 10.0148 3.85084 10.3755L7.63893 16.8726C9.2479 19.6315 13.2183 20.5263 16.5852 18.6021C19.9497 16.6792 21.1462 12.8382 19.5413 10.0855L17.0149 5.75443C16.8008 5.38739 16.1778 5.16493 15.5442 5.52689C14.9129 5.88772 14.8016 6.52362 15.012 6.88431L16.6956 9.772C16.7962 9.9447 16.8235 10.1503 16.7717 10.3433C16.72 10.5364 16.5936 10.701 16.4202 10.8003C14.8778 11.6817 14.4043 13.3865 15.0794 14.5445C15.288 14.9023 15.1675 15.3612 14.8098 15.5699C14.4521 15.7785 13.9931 15.658 13.7844 15.3003C12.7252 13.4839 13.3915 11.2373 15.0471 9.92337L11.1907 3.30911ZM14.6204 1.46439C16.5584 0.913151 18.5749 1.43983 19.9778 2.87259C20.2676 3.16855 20.262 3.64335 19.9661 3.93314C19.6701 4.22284 19.1953 4.21832 18.9055 3.92239C17.8916 2.88701 16.446 2.50498 15.0305 2.90775C14.6321 3.02108 14.2172 2.78953 14.1038 2.39114C13.9907 1.99285 14.2221 1.57771 14.6204 1.46439Z" fill="#48465C"/>
</svg>
