<svg width="24" height="24" viewBox="0 0 24 24" fill="none" xmlns="http://www.w3.org/2000/svg">
<path d="M4.86914 16.6852C7.51461 15.1465 11.2717 14.2804 13.7793 15.776C13.9476 15.8765 14.0992 15.9979 14.2285 16.1432C14.7864 16.7701 14.7457 17.7157 14.1025 18.277C13.9667 18.3954 13.8224 18.486 13.6768 18.5172C13.7964 18.5033 13.911 18.4869 14.0205 18.4694C14.9319 18.324 15.6971 17.8373 16.3975 17.3083L18.2051 15.943C18.8422 15.4619 19.7877 15.462 20.4248 15.943C20.9982 16.3762 21.1732 17.0894 20.8105 17.6706C20.3877 18.3485 19.7919 19.2159 19.2197 19.7458C18.6467 20.2764 17.794 20.7505 17.0977 21.0866C16.3262 21.459 15.4733 21.6727 14.6064 21.8131C12.8485 22.0976 11.0165 22.0544 9.27637 21.6959C8.29257 21.4932 7.27063 21.3883 6.25977 21.3883H6C5.05731 21.3883 4.58588 21.3881 4.29297 21.0954C4.0001 20.8025 4 20.331 4 19.3883V18.276C4 17.7579 3.99987 17.4986 4.13281 17.2672C4.26598 17.0357 4.4674 16.9189 4.86914 16.6852ZM12 3.15298C14.2498 0.997668 16.9998 2.03881 17 4.82876C17 6.37658 15.2744 8.00779 13.8506 9.0895C13.0515 9.69659 12.6516 9.99966 12 9.99966C11.3484 9.99966 10.9486 9.6966 10.1494 9.0895C8.72564 8.00779 7 6.37654 7 4.82876C7.0002 2.03881 9.75016 0.997671 12 3.15298Z" fill="#48465C"/>
</svg>
