<svg width="24" height="24" viewBox="0 0 24 24" fill="none" xmlns="http://www.w3.org/2000/svg">
<path d="M4.41372 17.8591C4.77154 17.6505 5.23143 17.7709 5.44009 18.1287C6.26695 19.5466 7.53065 20.6194 9.0895 21.3152C9.46762 21.4841 9.6372 21.9272 9.46841 22.3054C9.29956 22.6836 8.8564 22.8531 8.47818 22.6843C6.66676 21.8759 5.14714 20.6043 4.14419 18.8845C3.93559 18.5268 4.05614 18.0679 4.41372 17.8591ZM8.97427 1.77809C10.1628 1.09884 11.7702 1.32492 12.486 2.5525L13.9186 5.00856C14.1496 4.69451 14.4496 4.42338 14.7995 4.2234C15.988 3.5443 17.5953 3.77037 18.3112 4.99782L20.8366 9.32887C22.9511 12.9549 21.2539 17.6614 17.3297 19.9041C13.4081 22.1454 8.45426 21.247 6.34341 17.6277L2.55532 11.1306C1.83581 9.89671 2.4477 8.39626 3.63833 7.71559C3.98464 7.51767 4.36662 7.39611 4.75161 7.35426L3.74966 5.63551C3.03028 4.40171 3.64218 2.90116 4.83267 2.22047C5.88332 1.62002 7.26211 1.72631 8.06216 2.60719C8.29702 2.27446 8.60815 1.98734 8.97427 1.77809ZM11.1901 3.30836C10.9761 2.94128 10.3521 2.71867 9.71841 3.08082C9.08742 3.44164 8.97599 4.0776 9.18618 4.43825L11.7126 8.7693C11.921 9.1271 11.7998 9.58606 11.442 9.79469C11.0843 10.0033 10.6254 9.88277 10.4167 9.52516L7.89126 5.1941L7.04946 3.74977C6.83544 3.38277 6.21132 3.1604 5.57778 3.52223C4.94657 3.88298 4.83542 4.51893 5.04556 4.87965L8.83364 11.3767C9.04222 11.7344 8.92163 12.1934 8.56411 12.4021C8.2063 12.6108 7.74641 12.4905 7.53775 12.1326L5.85415 9.24489C5.64002 8.87788 5.01608 8.65524 4.38247 9.01735C3.75148 9.37808 3.6402 10.014 3.85025 10.3748L7.63931 16.8718C9.24829 19.6308 13.2187 20.5265 16.5856 18.6023C19.9502 16.6794 21.1459 12.8374 19.5407 10.0847L17.0153 5.75367C16.8012 5.38659 16.1773 5.16399 15.5436 5.52614C14.9125 5.88691 14.8012 6.52285 15.0114 6.88356L16.695 9.77125C16.7957 9.94394 16.8238 10.1495 16.7721 10.3425C16.7203 10.5358 16.5932 10.7003 16.4196 10.7996C14.8772 11.681 14.4047 13.3857 15.0797 14.5437C15.2884 14.9016 15.1671 15.3615 14.8092 15.5701C14.4515 15.7784 13.9923 15.6572 13.7838 15.2996C12.7247 13.4831 13.3918 11.2365 15.0475 9.92262L11.1901 3.30836ZM14.6198 1.46461C16.5578 0.913178 18.5742 1.43924 19.9772 2.87184C20.2669 3.16773 20.2622 3.64258 19.9665 3.93239C19.6705 4.22219 19.1957 4.2176 18.9059 3.92164C17.8921 2.88627 16.4463 2.50439 15.0309 2.907C14.6327 3.02031 14.2178 2.78947 14.1042 2.39137C13.9909 1.99304 14.2215 1.57806 14.6198 1.46461Z" fill="#48465C"/>
</svg>
