<svg width="24" height="24" viewBox="0 0 24 24" fill="none" xmlns="http://www.w3.org/2000/svg">
<path d="M4.86914 16.6848C7.51459 15.1462 11.2718 14.2801 13.7793 15.7756C13.9476 15.8761 14.0992 15.9975 14.2285 16.1428C14.7866 16.7697 14.7457 17.7162 14.1025 18.2776C13.9668 18.3959 13.8224 18.4856 13.6768 18.5168C13.7964 18.503 13.9111 18.4874 14.0205 18.47C14.9319 18.3246 15.6971 17.8379 16.3975 17.3088L18.2051 15.9436C18.8422 15.4625 19.7877 15.4626 20.4248 15.9436C20.9982 16.3768 21.1732 17.09 20.8105 17.6711C20.3877 18.3491 19.7918 19.2165 19.2197 19.7463C18.6468 20.2769 17.7939 20.7501 17.0977 21.0862C16.3262 21.4586 15.4733 21.6733 14.6064 21.8137C12.8485 22.0981 11.0165 22.055 9.27637 21.6965C8.29257 21.4938 7.27063 21.3889 6.25977 21.3889H6C5.0574 21.3889 4.58588 21.3886 4.29297 21.0959C4.00012 20.8031 4 20.3314 4 19.3889V18.2766C4 17.7581 3.99963 17.4983 4.13281 17.2668C4.26599 17.0354 4.46743 16.9184 4.86914 16.6848ZM15.2041 5.35961C16.2653 6.42118 16.2653 8.14182 15.2041 9.20336C14.1424 10.265 12.4211 10.265 11.3594 9.20336L10.6357 8.4807C11.241 8.17995 12.0297 7.67757 12.8535 6.85375C13.6773 6.02994 14.1796 5.24129 14.4805 4.63598L15.2041 5.35961ZM8.7959 2.79613C9.85746 1.73456 11.5789 1.73469 12.6406 2.79613L13.7266 3.88207C13.6946 3.95754 13.6583 4.03979 13.6162 4.12719C13.3642 4.65 12.918 5.37522 12.1465 6.14672C11.375 6.91819 10.6496 7.36454 10.127 7.61645C10.0398 7.65845 9.95812 7.69496 9.88281 7.7268L8.7959 6.64086C7.73444 5.57924 7.73438 3.85771 8.7959 2.79613Z" fill="#48465C"/>
</svg>
