<svg width="24" height="24" viewBox="0 0 24 24" fill="none" xmlns="http://www.w3.org/2000/svg">
<path fill-rule="evenodd" clip-rule="evenodd" d="M8.68359 14.4483C10.5493 14.0868 12.547 14.1679 14.1631 15.1319C14.3902 15.2673 14.6034 15.436 14.7891 15.6445C15.1648 16.0667 15.3589 16.5913 15.3682 17.1172C15.5593 16.9939 15.7507 16.8569 15.9453 16.71L17.7529 15.3447C18.6575 14.6617 19.9723 14.6617 20.877 15.3447C21.7125 15.9759 22.0455 17.1084 21.4473 18.0674C21.022 18.7492 20.3813 19.6922 19.7295 20.2959C19.0706 20.9061 18.1332 21.4193 17.4238 21.7617C16.5623 22.1775 15.6314 22.4073 14.7266 22.5537C12.8774 22.8531 10.9533 22.8074 9.125 22.4307C8.19063 22.2381 7.21934 22.1387 6.25977 22.1387H4C3.5859 22.1387 3.25014 21.8027 3.25 21.3887C3.25 20.9745 3.58582 20.6387 4 20.6387H6.25977C7.32188 20.6387 8.39455 20.7491 9.42773 20.9619C11.0798 21.3023 12.8203 21.3431 14.4873 21.0733C15.3161 20.9391 16.0901 20.74 16.7715 20.4111C17.4549 20.0813 18.2229 19.6464 18.71 19.1953C19.2025 18.7391 19.7542 17.9476 20.1748 17.2735C20.3015 17.07 20.2837 16.777 19.9727 16.542C19.603 16.2628 19.0268 16.2629 18.6572 16.542L16.8496 17.9072C16.1282 18.4521 15.24 19.0353 14.1387 19.211C14.0277 19.2286 13.912 19.2445 13.792 19.2588C13.7347 19.2692 13.6749 19.276 13.6133 19.2783C13.0511 19.3342 12.3999 19.3472 11.6816 19.2793C11.2692 19.2404 10.9659 18.8743 11.0049 18.4619C11.0439 18.0496 11.41 17.7472 11.8223 17.7861C12.4496 17.8453 13.0126 17.8322 13.4902 17.7832C13.4999 17.7822 13.5099 17.7813 13.5195 17.7803C13.5394 17.7687 13.5696 17.7475 13.6094 17.7129C13.9287 17.434 13.958 16.9665 13.6689 16.6416C13.5956 16.5593 13.5044 16.4855 13.3945 16.4199C12.2135 15.7157 10.6364 15.598 8.96973 15.9209C7.3122 16.242 5.66465 16.9815 4.43359 17.8545C4.09578 18.094 3.6283 18.0144 3.38867 17.6768C3.14906 17.3389 3.22854 16.8706 3.56641 16.6309C4.96465 15.6394 6.80853 14.8116 8.68359 14.4483ZM14.0518 2.25002C14.3622 2.25001 14.6552 2.24965 14.9297 2.25294C14.9528 2.2508 14.9763 2.25002 15 2.25002C15.0314 2.25002 15.0624 2.25212 15.0928 2.25587C15.5456 2.26391 15.9468 2.2833 16.2949 2.33009C16.9226 2.41453 17.489 2.60031 17.9443 3.05568C18.3997 3.51103 18.5855 4.0775 18.6699 4.70509C18.7167 5.05312 18.7361 5.4545 18.7441 5.90724C18.7479 5.93762 18.75 5.96863 18.75 6.00002C18.75 6.02371 18.7493 6.0472 18.7471 6.07033C18.7504 6.34488 18.75 6.63786 18.75 6.94826V7.05177C18.75 7.36216 18.7504 7.65514 18.7471 7.9297C18.7493 7.95284 18.75 7.97632 18.75 8.00002C18.75 8.03142 18.7479 8.06241 18.7441 8.09279C18.7361 8.54555 18.7167 8.9469 18.6699 9.29494C18.5855 9.92256 18.3997 10.4891 17.9443 10.9444C17.489 11.3997 16.9226 11.5855 16.2949 11.6699C15.9468 11.7167 15.5456 11.7362 15.0928 11.7442C15.0624 11.748 15.0314 11.75 15 11.75C14.9763 11.75 14.9528 11.7493 14.9297 11.7471C14.6552 11.7504 14.3622 11.75 14.0518 11.75H9.94824C9.63784 11.75 9.34486 11.7504 9.07031 11.7471C9.04719 11.7493 9.02368 11.75 9 11.75C8.96863 11.75 8.93759 11.748 8.90723 11.7442C8.45469 11.7362 8.05397 11.7167 7.70605 11.6699C7.07826 11.5855 6.51113 11.3999 6.05566 10.9444C5.60031 10.4891 5.41451 9.92256 5.33008 9.29494C5.28329 8.9469 5.2639 8.54555 5.25586 8.09279C5.25212 8.06241 5.25 8.03142 5.25 8.00002C5.25 7.97632 5.25077 7.95285 5.25293 7.9297C5.24964 7.65515 5.24999 7.36216 5.25 7.05177V6.94826C5.24999 6.63787 5.24964 6.34488 5.25293 6.07033C5.25077 6.0472 5.25 6.02371 5.25 6.00002C5.25 5.96863 5.25212 5.93763 5.25586 5.90724C5.2639 5.4545 5.28329 5.05312 5.33008 4.70509C5.41452 4.0775 5.60032 3.51103 6.05566 3.05568C6.51113 2.60021 7.07826 2.4145 7.70605 2.33009C8.05397 2.28335 8.45469 2.26391 8.90723 2.25587C8.93759 2.25213 8.96863 2.25002 9 2.25002C9.02368 2.25002 9.0472 2.2508 9.07031 2.25294C9.34486 2.24965 9.63785 2.25001 9.94824 2.25002H14.0518ZM9.6748 3.75002C9.3765 5.21923 8.21922 6.37651 6.75 6.67482V7.32521C8.21922 7.62351 9.3765 8.78084 9.6748 10.25H14.3252C14.6235 8.78084 15.7808 7.62352 17.25 7.32521V6.67482C15.7808 6.37651 14.6235 5.21923 14.3252 3.75002H9.6748ZM6.81641 9.09474C6.87845 9.5561 6.98592 9.75349 7.11621 9.8838C7.24651 10.0141 7.44393 10.1215 7.90527 10.1836C7.96912 10.1922 8.0365 10.1996 8.10645 10.2061C7.87864 9.60217 7.39787 9.12238 6.79395 8.89455C6.80045 8.96435 6.80784 9.03102 6.81641 9.09474ZM17.2061 8.89455C16.6023 9.12238 16.1223 9.60224 15.8945 10.2061C15.9643 10.1996 16.031 10.1922 16.0947 10.1836C16.5562 10.1215 16.7535 10.0141 16.8838 9.8838C17.0141 9.7535 17.1215 9.55613 17.1836 9.09474C17.1921 9.03102 17.1996 8.96434 17.2061 8.89455ZM12 5.25002C12.9665 5.25002 13.75 6.03352 13.75 7.00002C13.75 7.96652 12.9665 8.75002 12 8.75002C11.0335 8.74998 10.25 7.96649 10.25 7.00002C10.25 6.03354 11.0335 5.25005 12 5.25002ZM12 6.75002C11.8619 6.75005 11.75 6.86197 11.75 7.00002C11.75 7.13806 11.8619 7.24998 12 7.25002C12.1381 7.25002 12.25 7.13809 12.25 7.00002C12.25 6.86195 12.1381 6.75002 12 6.75002ZM7.90527 3.81642C7.44392 3.87846 7.24651 3.98592 7.11621 4.11623C6.98591 4.24654 6.87845 4.44393 6.81641 4.90529C6.80784 4.969 6.80045 5.03571 6.79395 5.10548C7.39787 4.87766 7.87864 4.39789 8.10645 3.79396C8.0365 3.80048 7.96912 3.80783 7.90527 3.81642ZM15.8945 3.79396C16.1223 4.39782 16.6023 4.87766 17.2061 5.10548C17.1996 5.03571 17.1921 4.969 17.1836 4.90529C17.1215 4.44392 17.0141 4.24653 16.8838 4.11623C16.7535 3.98593 16.5561 3.87845 16.0947 3.81642C16.031 3.80785 15.9643 3.80047 15.8945 3.79396Z" fill="#48465C"/>
</svg>
