<svg width="24" height="24" viewBox="0 0 24 24" fill="none" xmlns="http://www.w3.org/2000/svg">
<path d="M4.86912 16.6855C7.51459 15.1468 11.2717 14.2808 13.7793 15.7764C13.9475 15.8768 14.0992 15.9982 14.2285 16.1436C14.7864 16.7705 14.7456 17.716 14.1025 18.2773C13.9667 18.3957 13.8224 18.4863 13.6767 18.5176C13.7964 18.5037 13.911 18.4872 14.0205 18.4697C14.9318 18.3243 15.6971 17.8377 16.3974 17.3086L18.2051 15.9434C18.8422 15.4622 19.7877 15.4623 20.4248 15.9434C20.9982 16.3766 21.1732 17.0897 20.8105 17.6709C20.3876 18.3489 19.7918 19.2163 19.2197 19.7461C18.6467 20.2767 17.7939 20.7509 17.0976 21.0869C16.3263 21.4592 15.4741 21.6731 14.6074 21.8135C12.8493 22.098 11.0166 22.0548 9.27634 21.6963C8.29255 21.4936 7.27059 21.3887 6.25974 21.3887H5.99998C5.05732 21.3887 4.58585 21.3885 4.29295 21.0957C4.00008 20.8028 3.99998 20.3313 3.99998 19.3887V18.2764C3.99998 17.7582 3.99987 17.499 4.13279 17.2676C4.26595 17.036 4.46742 16.9192 4.86912 16.6855ZM3.99998 7C4.18934 7 4.316 7.22724 4.56931 7.68164L4.63474 7.79883C4.70659 7.9277 4.74288 7.99255 4.7988 8.03516C4.85488 8.07773 4.92485 8.09439 5.06443 8.12598L5.19236 8.1543C5.68416 8.26557 5.92975 8.3216 5.98826 8.50977C6.04667 8.69791 5.87922 8.89404 5.54392 9.28613L5.45701 9.3877C5.36185 9.49897 5.31436 9.55515 5.29295 9.62402C5.27169 9.69277 5.2786 9.76697 5.29295 9.91504L5.30662 10.0508C5.35729 10.5737 5.38243 10.8358 5.22947 10.9521C5.07626 11.0684 4.84534 10.9621 4.38474 10.75L4.2656 10.6953C4.1348 10.6351 4.06932 10.6055 3.99998 10.6055C3.93064 10.6055 3.86517 10.635 3.73435 10.6953L3.61521 10.75C3.15495 10.9619 2.92467 11.0681 2.77146 10.9521C2.61825 10.8358 2.64361 10.574 2.69431 10.0508L2.70701 9.91504C2.72136 9.76694 2.72828 9.69278 2.70701 9.62402C2.68559 9.55514 2.63813 9.499 2.54295 9.3877L2.45603 9.28613C2.12075 8.89406 1.95331 8.6979 2.0117 8.50977C2.0702 8.32161 2.31586 8.26555 2.80759 8.1543L2.93552 8.12598C3.07517 8.09438 3.14506 8.07774 3.20115 8.03516C3.25711 7.99255 3.29335 7.92776 3.36521 7.79883L3.43064 7.68164C3.68394 7.22724 3.81064 7.00004 3.99998 7ZM20 7C20.1894 7 20.3159 7.22724 20.5693 7.68164L20.6347 7.79883C20.7066 7.92772 20.7429 7.99255 20.7988 8.03516C20.8549 8.07774 20.9248 8.09439 21.0644 8.12598L21.1924 8.1543C21.6841 8.26556 21.9298 8.3216 21.9883 8.50977C22.0466 8.69791 21.8792 8.89405 21.5439 9.28613L21.457 9.3877C21.3618 9.49898 21.3144 9.55514 21.2929 9.62402C21.2717 9.69278 21.2786 9.76695 21.2929 9.91504L21.3056 10.0508C21.3563 10.5737 21.3824 10.8358 21.2295 10.9521C21.0763 11.0684 20.8453 10.9621 20.3847 10.75L20.2656 10.6953C20.1348 10.635 20.0694 10.6055 20 10.6055C19.9306 10.6055 19.8652 10.635 19.7344 10.6953L19.6152 10.75C19.155 10.9619 18.9247 11.068 18.7715 10.9521C18.6183 10.8358 18.6436 10.574 18.6943 10.0508L18.707 9.91504C18.7214 9.76694 18.7282 9.69278 18.707 9.62402C18.6855 9.55514 18.6381 9.499 18.5429 9.3877L18.456 9.28613C18.1208 8.89406 17.9533 8.6979 18.0117 8.50977C18.0702 8.32161 18.3159 8.26556 18.8076 8.1543L18.9355 8.12598C19.0752 8.09438 19.1451 8.07774 19.2011 8.03516C19.2571 7.99255 19.2933 7.92775 19.3652 7.79883L19.4306 7.68164C19.684 7.22724 19.8106 7.00002 20 7ZM12 2C12.3787 2 12.6321 2.45444 13.1386 3.36328L13.2695 3.59863C13.4134 3.85678 13.4855 3.98608 13.5976 4.07129C13.7099 4.1565 13.8504 4.18772 14.1299 4.25098L14.3838 4.30859C15.3677 4.5312 15.8595 4.64317 15.9765 5.01953C16.0934 5.39582 15.7584 5.78811 15.0879 6.57227L14.914 6.77441C14.7235 6.99726 14.6287 7.10923 14.5859 7.24707C14.543 7.38494 14.5571 7.53368 14.5859 7.83105L14.6123 8.10156C14.7137 9.14804 14.7645 9.67169 14.458 9.9043C14.1516 10.1368 13.6906 9.92412 12.7695 9.5L12.5312 9.39062C12.2696 9.27015 12.1386 9.20996 12 9.20996C11.8613 9.20997 11.7304 9.27015 11.4687 9.39062L11.2304 9.5C10.3093 9.92414 9.84838 10.1369 9.54197 9.9043C9.23556 9.67169 9.28626 9.14804 9.38767 8.10156L9.41404 7.83105C9.44286 7.53367 9.45691 7.38494 9.41404 7.24707C9.37114 7.10925 9.27646 6.99723 9.08591 6.77441L8.91209 6.57227C8.24151 5.78812 7.90663 5.39581 8.02341 5.01953C8.14045 4.64317 8.63232 4.5312 9.61619 4.30859L9.87009 4.25098C10.1496 4.18772 10.29 4.1565 10.4023 4.07129C10.5145 3.98608 10.5865 3.85682 10.7304 3.59863L10.8613 3.36328C11.3679 2.45445 11.6213 2.00004 12 2Z" fill="#48465C"/>
</svg>
