<svg width="24" height="24" viewBox="0 0 24 24" fill="none" xmlns="http://www.w3.org/2000/svg">
<path fill-rule="evenodd" clip-rule="evenodd" d="M8.68365 14.4482C10.5494 14.0867 12.5469 14.1678 14.1631 15.1318C14.3901 15.2672 14.6026 15.4361 14.7881 15.6445C15.164 16.0667 15.359 16.5912 15.3682 17.1172C15.5593 16.9939 15.7508 16.8569 15.9454 16.71L17.752 15.3447C18.6565 14.6615 19.9713 14.6617 20.876 15.3447C21.7118 15.9759 22.0455 17.1082 21.4473 18.0674C21.022 18.7491 20.3813 19.6921 19.7295 20.2959C19.0705 20.9062 18.1323 21.4193 17.4229 21.7617C16.5615 22.1774 15.6313 22.4073 14.7266 22.5537C12.8775 22.853 10.9534 22.8072 9.12506 22.4307C8.19066 22.2381 7.21943 22.1387 6.25982 22.1387H4.00006C3.58594 22.1387 3.25021 21.8027 3.25006 21.3887C3.25006 20.9745 3.58585 20.6387 4.00006 20.6387H6.25982C7.32193 20.6387 8.3946 20.7491 9.42779 20.9619C11.0797 21.3023 12.8204 21.343 14.4874 21.0732C15.3161 20.939 16.0903 20.74 16.7715 20.4111C17.4549 20.0812 18.2229 19.6464 18.71 19.1953C19.2025 18.7391 19.7543 17.9475 20.1749 17.2734C20.3014 17.07 20.2836 16.7769 19.9727 16.542C19.603 16.2628 19.0259 16.2628 18.6563 16.542L16.8497 17.9072C16.1283 18.4521 15.2401 19.0352 14.1387 19.2109C14.0278 19.2286 13.912 19.2445 13.792 19.2588C13.7349 19.2692 13.6748 19.276 13.6133 19.2783C13.051 19.3342 12.3991 19.3472 11.6807 19.2793C11.2686 19.2402 10.9661 18.8742 11.0049 18.4619C11.0439 18.0496 11.41 17.7471 11.8223 17.7861C12.4497 17.8453 13.0127 17.8322 13.4903 17.7832C13.4998 17.7822 13.5092 17.7812 13.5186 17.7803C13.5385 17.7687 13.5695 17.7477 13.6094 17.7129C13.9289 17.434 13.9572 16.9665 13.668 16.6416C13.5948 16.5594 13.5044 16.4855 13.3946 16.4199C12.2134 15.7155 10.6357 15.5979 8.96881 15.9209C7.3114 16.242 5.66462 16.9816 4.43365 17.8545C4.09578 18.0941 3.62736 18.0146 3.38775 17.6768C3.14831 17.3389 3.22865 16.8705 3.56646 16.6309C4.96474 15.6394 6.80856 14.8115 8.68365 14.4482ZM4.00006 6.25C4.45431 6.25008 4.72785 6.54686 4.8565 6.71484C4.97741 6.87284 5.09611 7.08547 5.20514 7.28125C5.21164 7.29293 5.21824 7.30487 5.22467 7.31641L5.27252 7.40332L5.35748 7.42285C5.37035 7.42576 5.38347 7.42869 5.39654 7.43164C5.60732 7.4792 5.8421 7.53247 6.0274 7.60547C6.2384 7.68862 6.57453 7.87025 6.70416 8.28711C6.83112 8.69555 6.66678 9.03335 6.54889 9.2207C6.44245 9.38978 6.28449 9.57403 6.13971 9.74316C6.13119 9.75311 6.12272 9.7636 6.11432 9.77344L6.04107 9.8584L6.05279 9.97852C6.05405 9.99146 6.05542 10.0045 6.0567 10.0176C6.07876 10.2442 6.10173 10.4878 6.09283 10.6875C6.08335 10.9001 6.03145 11.2851 5.68267 11.5498C5.32177 11.8237 4.92854 11.7562 4.71588 11.6953C4.52484 11.6405 4.30473 11.5392 4.10748 11.4482C4.09535 11.4427 4.08329 11.4372 4.07135 11.4316L4.00006 11.3984L3.92877 11.4316C3.91668 11.4372 3.90394 11.4426 3.89166 11.4482C3.6945 11.5392 3.47516 11.6405 3.28424 11.6953C3.0717 11.7562 2.67847 11.8237 2.31744 11.5498C1.96862 11.285 1.91579 10.9001 1.90631 10.6875C1.89741 10.4878 1.92136 10.2442 1.94342 10.0176C1.94468 10.0045 1.94607 9.99146 1.94732 9.97852L1.95904 9.8584L1.8858 9.77344C1.87734 9.76354 1.86898 9.75317 1.86041 9.74316C1.71559 9.57398 1.5577 9.38984 1.45123 9.2207C1.33334 9.03341 1.16809 8.69559 1.29498 8.28711C1.42455 7.87046 1.76072 7.68867 1.97174 7.60547C2.15711 7.53241 2.39268 7.47923 2.60357 7.43164C2.61657 7.42871 2.62984 7.42575 2.64264 7.42285L2.72662 7.40332L2.77545 7.31641C2.78187 7.30489 2.78849 7.29289 2.79498 7.28125C2.90402 7.08544 3.0227 6.87282 3.14361 6.71484C3.27228 6.54683 3.54571 6.25 4.00006 6.25ZM20.0001 6.25C20.4543 6.25008 20.7278 6.54686 20.8565 6.71484C20.9773 6.87284 21.0961 7.08546 21.2051 7.28125C21.2116 7.29293 21.2182 7.30487 21.2247 7.31641L21.2725 7.40332L21.3575 7.42285C21.3704 7.42576 21.3835 7.42869 21.3965 7.43164C21.6073 7.4792 21.8422 7.53248 22.0274 7.60547C22.2384 7.68862 22.5746 7.87025 22.7042 8.28711C22.8311 8.69556 22.6668 9.03336 22.5489 9.2207C22.4425 9.38979 22.2844 9.57403 22.1397 9.74316C22.1312 9.75311 22.1228 9.7636 22.1143 9.77344L22.0411 9.8584L22.0528 9.97852C22.0541 9.99148 22.0555 10.0046 22.0567 10.0176C22.0788 10.2443 22.1017 10.4878 22.0928 10.6875C22.0833 10.9001 22.0314 11.2851 21.6827 11.5498C21.3218 11.8237 20.9286 11.7562 20.7159 11.6953C20.5249 11.6405 20.3047 11.5391 20.1075 11.4482C20.0953 11.4426 20.0833 11.4372 20.0713 11.4316L20.0001 11.3984L19.9288 11.4316C19.9168 11.4372 19.9047 11.4427 19.8926 11.4482C19.6953 11.5392 19.4752 11.6405 19.2842 11.6953C19.0717 11.7562 18.6785 11.8237 18.3174 11.5498C17.9686 11.285 17.9158 10.9001 17.9063 10.6875C17.8974 10.4878 17.9213 10.2442 17.9434 10.0176C17.9447 10.0045 17.946 9.99145 17.9473 9.97852L17.959 9.8584L17.8858 9.77344C17.8773 9.76354 17.869 9.75317 17.8604 9.74316C17.7156 9.57397 17.5578 9.38985 17.4512 9.2207C17.3334 9.03342 17.1681 8.69561 17.295 8.28711C17.4245 7.87046 17.7607 7.68868 17.9717 7.60547C18.1571 7.53241 18.3927 7.47923 18.6036 7.43164C18.6166 7.42871 18.6298 7.42575 18.6426 7.42285L18.7266 7.40332L18.7754 7.31641C18.7819 7.3049 18.7885 7.29289 18.795 7.28125C18.904 7.08544 19.0228 6.87281 19.1436 6.71484C19.2723 6.54683 19.5457 6.25 20.0001 6.25ZM12.0001 1.25C12.549 1.25008 12.9016 1.60317 13.1172 1.88477C13.3248 2.15595 13.5375 2.53735 13.7686 2.95215C13.7771 2.96736 13.7855 2.98275 13.794 2.99805L13.9249 3.2334C13.9616 3.29937 13.9904 3.3508 14.0157 3.39453C14.0325 3.42371 14.0461 3.44585 14.0567 3.46289C14.0735 3.46752 14.095 3.47289 14.1221 3.47949C14.169 3.49091 14.2235 3.50338 14.295 3.51953L14.5499 3.57715C14.5672 3.58106 14.5845 3.58498 14.6016 3.58887C15.0484 3.68986 15.4654 3.78414 15.7803 3.9082C16.1216 4.04267 16.5344 4.28518 16.6934 4.7959C16.8498 5.29852 16.6574 5.73312 16.4629 6.04199C16.2802 6.33219 15.9978 6.66236 15.6915 7.02051L15.4844 7.2627C15.4359 7.31946 15.3981 7.36297 15.3663 7.40137C15.3402 7.43296 15.3217 7.45642 15.3087 7.47363C15.3104 7.52932 15.3175 7.60783 15.3321 7.75879L15.3633 8.08008C15.4098 8.55932 15.4529 8.9973 15.4376 9.3418C15.4215 9.6997 15.3366 10.179 14.9112 10.502C14.4736 10.8339 13.9846 10.7693 13.6378 10.6699C13.3132 10.5769 12.9231 10.3968 12.5049 10.2041C12.4888 10.1966 12.4724 10.1891 12.4561 10.1816L12.2178 10.0723C12.1509 10.0414 12.0993 10.0177 12.0547 9.99805C12.033 9.98842 12.0149 9.98073 12.0001 9.97461C11.9852 9.98073 11.9672 9.98841 11.9454 9.99805C11.9008 10.0177 11.8493 10.0414 11.7823 10.0723L11.544 10.1816C11.5278 10.1891 11.5114 10.1966 11.4952 10.2041C11.077 10.3968 10.6869 10.5769 10.3624 10.6699C10.0156 10.7693 9.5265 10.8337 9.08892 10.502C8.66357 10.179 8.57853 9.6997 8.56256 9.3418C8.54721 8.9973 8.5893 8.55931 8.6358 8.08008C8.63743 8.06323 8.63904 8.04625 8.64068 8.0293L8.66705 7.75879C8.68167 7.60784 8.68878 7.52931 8.69049 7.47363C8.67755 7.45642 8.66 7.43293 8.63385 7.40137C8.60203 7.36296 8.56422 7.31946 8.51568 7.2627L8.34185 7.05957C8.33074 7.04657 8.31971 7.03344 8.30865 7.02051C8.0023 6.66237 7.71986 6.33218 7.53717 6.04199C7.34275 5.73311 7.15037 5.29861 7.3067 4.7959C7.46565 4.28538 7.87767 4.04268 8.21881 3.9082C8.53379 3.78407 8.9516 3.68991 9.39849 3.58887C9.41567 3.58499 9.43299 3.58106 9.45025 3.57715L9.70514 3.51953C9.77654 3.50338 9.83108 3.49091 9.87799 3.47949C9.90527 3.47284 9.9266 3.46753 9.94342 3.46289C9.95411 3.44581 9.96753 3.42378 9.98443 3.39453C10.0097 3.35078 10.0385 3.29942 10.0753 3.2334L10.2061 2.99805C10.2146 2.98278 10.223 2.96732 10.2315 2.95215C10.4627 2.53735 10.6752 2.15593 10.8829 1.88477C11.0985 1.60314 11.4511 1.25 12.0001 1.25ZM4.00006 8.20117C3.94789 8.29748 3.83662 8.49442 3.65435 8.63281C3.45876 8.78129 3.22404 8.83092 3.12603 8.85156C3.11627 8.85361 3.10749 8.85587 3.10064 8.85742L3.08014 8.86133L3.11236 8.90039C3.11737 8.90624 3.12403 8.91305 3.13092 8.9209C3.19955 8.9991 3.3522 9.17348 3.42291 9.40039C3.49266 9.62468 3.46759 9.85501 3.45611 9.95996C3.45495 9.97058 3.45396 9.98036 3.45318 9.98828L3.45221 9.99902C3.54651 9.95389 3.76059 9.85449 4.00006 9.85449C4.23946 9.85454 4.45363 9.95391 4.54791 9.99902L4.54596 9.98828C4.54519 9.98035 4.54419 9.9706 4.54303 9.95996C4.53155 9.85501 4.50648 9.62468 4.57623 9.40039C4.64697 9.17322 4.80062 8.99904 4.8692 8.9209C4.87597 8.91319 4.88182 8.90618 4.88678 8.90039L4.91998 8.86133L4.89947 8.85742C4.89262 8.85587 4.88385 8.85361 4.87408 8.85156C4.77631 8.83097 4.54155 8.78136 4.34576 8.63281C4.16346 8.49442 4.05222 8.29749 4.00006 8.20117ZM20.0001 8.20117C19.9479 8.29747 19.8366 8.49442 19.6544 8.63281C19.4588 8.78129 19.224 8.83092 19.126 8.85156C19.1162 8.85361 19.1074 8.85587 19.1006 8.85742L19.0801 8.86133L19.1124 8.90039C19.1174 8.90624 19.124 8.91305 19.1309 8.9209C19.1996 8.9991 19.3522 9.17346 19.4229 9.40039C19.4927 9.62468 19.4676 9.85501 19.4561 9.95996C19.4549 9.97058 19.454 9.98036 19.4532 9.98828L19.4522 9.99902C19.5465 9.95389 19.7606 9.85449 20.0001 9.85449C20.2395 9.85454 20.4536 9.95391 20.5479 9.99902L20.546 9.98828C20.5452 9.98035 20.5442 9.9706 20.543 9.95996C20.5315 9.855 20.5064 9.62468 20.5762 9.40039C20.6469 9.1732 20.8007 8.99903 20.8692 8.9209C20.876 8.91318 20.8818 8.90618 20.8868 8.90039L20.92 8.86133L20.8995 8.85742C20.8927 8.85587 20.8839 8.85362 20.8741 8.85156C20.7763 8.83098 20.5415 8.78136 20.3458 8.63281C20.1635 8.49442 20.0523 8.29748 20.0001 8.20117ZM12.0001 2.90039C11.8812 3.07686 11.7347 3.33725 11.5167 3.72852L11.3848 3.96387C11.3752 3.98124 11.3649 3.99977 11.3545 4.01855C11.246 4.21582 11.0989 4.48417 10.8555 4.66895C10.6075 4.85719 10.3077 4.92265 10.0938 4.96973C10.0738 4.97412 10.0545 4.97827 10.0362 4.98242L9.78131 5.04004C9.31613 5.14529 9.02591 5.21315 8.83111 5.28125C8.95157 5.4622 9.15357 5.70148 9.4815 6.08496L9.65533 6.28711C9.6681 6.30203 9.68164 6.31809 9.69537 6.33398C9.84308 6.50498 10.0392 6.73246 10.1299 7.02441C10.2198 7.31333 10.1903 7.61225 10.167 7.84082C10.165 7.86216 10.1621 7.88328 10.1602 7.90332L10.1338 8.17383C10.0869 8.65747 10.0588 8.97107 10.0596 9.19238C10.2518 9.12427 10.5147 9.00415 10.9161 8.81934L11.1544 8.70996C11.172 8.70188 11.1908 8.69254 11.21 8.68359C11.4078 8.59102 11.6887 8.45996 12.0001 8.45996C12.3115 8.46001 12.5922 8.59103 12.7901 8.68359C12.8092 8.69254 12.8272 8.70188 12.8448 8.70996L13.0831 8.81934C13.4849 9.00434 13.7483 9.12427 13.9405 9.19238C13.9413 8.97107 13.9122 8.65747 13.8653 8.17383L13.8389 7.90332C13.837 7.8833 13.8353 7.86213 13.8331 7.84082C13.8098 7.61226 13.7794 7.31331 13.8692 7.02441C13.96 6.7323 14.157 6.50501 14.3047 6.33398C14.3185 6.31811 14.3311 6.30203 14.3438 6.28711L14.5176 6.08496C14.8454 5.70167 15.0476 5.46217 15.168 5.28125C14.9734 5.21319 14.6837 5.14522 14.2188 5.04004L13.9639 4.98242C13.9454 4.97821 13.9256 4.97419 13.9053 4.96973C13.6916 4.92267 13.3926 4.85702 13.1446 4.66895C12.9011 4.48409 12.7532 4.21584 12.6446 4.01855C12.6342 3.99968 12.6241 3.98132 12.6143 3.96387L12.4835 3.72852C12.2654 3.33718 12.119 3.07689 12.0001 2.90039Z" fill="#48465C"/>
</svg>
