<svg width="24" height="24" viewBox="0 0 24 24" fill="none" xmlns="http://www.w3.org/2000/svg">
<path fill-rule="evenodd" clip-rule="evenodd" d="M11.66 1.25C13.1699 1.25008 14.534 2.36742 14.534 3.90918C14.534 4.58927 14.2864 5.22328 13.8445 5.7041C13.7046 5.8563 13.55 6.00941 13.409 6.14844L13.3348 6.22168C13.1678 6.38689 13.0205 6.53625 12.8943 6.68457C12.807 6.78722 12.7399 6.87806 12.6893 6.95898C13.2576 7.06694 13.8095 7.28611 14.3035 7.61914L21.7361 12.6289C22.6857 13.2691 22.9425 14.3259 22.6121 15.2168C22.287 16.0928 21.422 16.7499 20.2977 16.75H18.741C18.75 17.114 18.7498 17.5138 18.7498 17.9482V18.0518C18.7498 18.9503 18.7497 19.7001 18.6697 20.2949C18.5853 20.9225 18.3994 21.489 17.9442 21.9443C17.4888 22.3997 16.9224 22.5855 16.2947 22.6699C15.6999 22.7499 14.9501 22.75 14.0516 22.75H9.94806C9.04979 22.75 8.30058 22.7499 7.70587 22.6699C7.07807 22.5855 6.51095 22.3998 6.05548 21.9443C5.60014 21.489 5.41432 20.9225 5.3299 20.2949C5.24993 19.7001 5.24979 18.9503 5.24982 18.0518V17.9482C5.2498 17.5138 5.24958 17.114 5.25861 16.75H3.70294C2.59036 16.75 1.72848 16.105 1.3963 15.2393C1.05869 14.3592 1.29647 13.3083 2.22345 12.6562L9.31915 7.66504C9.85562 7.28767 10.4661 7.04813 11.0936 6.94238C11.199 6.43645 11.4865 6.02486 11.7518 5.71289C11.9236 5.51089 12.1116 5.32196 12.2801 5.15527L12.3611 5.0752C12.503 4.93531 12.6272 4.81218 12.7401 4.68945C12.9221 4.49134 13.034 4.22141 13.034 3.90918C13.034 3.34232 12.496 2.75008 11.66 2.75C10.8239 2.75 10.2859 3.34228 10.2859 3.90918C10.2859 4.3233 9.95008 4.6591 9.53595 4.65918C9.12177 4.65918 8.786 4.32335 8.78595 3.90918C8.78595 2.36736 10.15 1.25 11.66 1.25ZM9.99982 14.75C9.03588 14.75 8.38812 14.7515 7.90509 14.8164C7.44378 14.8785 7.24633 14.9859 7.11603 15.1162C6.98575 15.2465 6.87826 15.4439 6.81622 15.9053C6.75128 16.3883 6.74982 17.036 6.74982 18C6.74982 18.964 6.75128 19.6117 6.81622 20.0947C6.87826 20.5561 6.98575 20.7535 7.11603 20.8838C7.24633 21.0141 7.44378 21.1215 7.90509 21.1836C8.38812 21.2485 9.03588 21.25 9.99982 21.25H13.9998C14.9638 21.25 15.6115 21.2485 16.0945 21.1836C16.556 21.1215 16.7533 21.0141 16.8836 20.8838C17.0139 20.7535 17.1213 20.5561 17.1834 20.0947C17.2483 19.6117 17.2498 18.964 17.2498 18C17.2498 17.036 17.2483 16.3883 17.1834 15.9053C17.1213 15.4439 17.0139 15.2465 16.8836 15.1162C16.7533 14.9859 16.556 14.8785 16.0945 14.8164C15.6115 14.7515 14.9638 14.75 13.9998 14.75H9.99982ZM11.8104 8.37988C11.226 8.38668 10.6527 8.5618 10.1824 8.89258L3.08673 13.8838C2.74181 14.1266 2.69651 14.441 2.79669 14.7021C2.90249 14.9776 3.20048 15.25 3.70294 15.25H5.41388C5.52294 14.8032 5.71311 14.3981 6.05548 14.0557C6.51095 13.6002 7.07807 13.4145 7.70587 13.3301C8.30059 13.2501 9.04978 13.25 9.94806 13.25H14.0516C14.9501 13.25 15.6999 13.2501 16.2947 13.3301C16.9224 13.4145 17.4888 13.6003 17.9442 14.0557C18.2866 14.3981 18.4768 14.8032 18.5858 15.25H20.2977C20.8056 15.2499 21.1026 14.9731 21.2059 14.6953C21.3036 14.4318 21.2541 14.1135 20.8973 13.873L13.4656 8.8623C12.9831 8.53704 12.3997 8.37308 11.8104 8.37988Z" fill="#48465C"/>
</svg>
