<svg width="24" height="24" viewBox="0 0 24 24" fill="none" xmlns="http://www.w3.org/2000/svg">
<path fill-rule="evenodd" clip-rule="evenodd" d="M11.66 4.25C13.1699 4.25007 14.534 5.36741 14.534 6.90918C14.534 7.58928 14.2865 8.22328 13.8445 8.7041C13.7046 8.85631 13.55 9.00941 13.409 9.14844C13.3839 9.1732 13.3588 9.19787 13.3348 9.22168C13.1678 9.38689 13.0205 9.53625 12.8944 9.68457C12.8071 9.7872 12.74 9.87807 12.6893 9.95898C13.2577 10.0669 13.8096 10.2861 14.3035 10.6191L21.7361 15.6289C22.6858 16.2691 22.9435 17.3259 22.6131 18.2168C22.2881 19.093 21.4221 19.7499 20.2977 19.75H3.70294C2.59036 19.75 1.72847 19.1049 1.3963 18.2393C1.0587 17.3592 1.29646 16.3083 2.22345 15.6562L9.31915 10.665C9.85563 10.2876 10.4662 10.0482 11.0936 9.94238C11.1991 9.43646 11.4865 9.02486 11.7518 8.71289C11.9236 8.51089 12.1116 8.32196 12.2801 8.15527C12.3077 8.12791 12.3348 8.10126 12.3611 8.0752C12.503 7.9353 12.6272 7.81219 12.7401 7.68945C12.9221 7.49134 13.034 7.22141 13.034 6.90918C13.034 6.34231 12.496 5.75007 11.66 5.75C10.8239 5.75 10.286 6.34228 10.286 6.90918C10.2859 7.3233 9.95007 7.65911 9.53595 7.65918C9.12177 7.65918 8.786 7.32335 8.78595 6.90918C8.78595 5.36736 10.15 4.25 11.66 4.25ZM11.8104 11.3799C11.226 11.3866 10.6526 11.5618 10.1824 11.8926L3.08673 16.8838C2.74182 17.1266 2.69652 17.441 2.79669 17.7021C2.9025 17.9776 3.20049 18.25 3.70294 18.25H20.2977C20.8055 18.2499 21.1026 17.9731 21.2059 17.6953C21.3036 17.4318 21.254 17.1135 20.8973 16.873L13.4656 11.8623C12.9831 11.537 12.3996 11.373 11.8104 11.3799Z" fill="#48465C"/>
</svg>
