<svg width="24" height="24" viewBox="0 0 24 24" fill="none" xmlns="http://www.w3.org/2000/svg">
<path d="M11.6599 1.25C13.1699 1.25 14.5339 2.36736 14.5339 3.90918C14.5339 4.58934 14.2864 5.22326 13.8444 5.7041C13.7045 5.85635 13.55 6.00938 13.4089 6.14844L13.3347 6.22168C13.1677 6.38687 13.0204 6.53626 12.8943 6.68457C12.807 6.7872 12.7398 6.87807 12.6892 6.95898C13.2575 7.06692 13.8094 7.28612 14.3034 7.61914L21.736 12.6289C22.6856 13.2691 22.9434 14.3259 22.613 15.2168C22.2879 16.093 21.4221 16.75 20.2976 16.75H18.7409C18.7499 17.114 18.7497 17.5138 18.7497 17.9482V18.0518C18.7497 18.9503 18.7506 19.7001 18.6706 20.2949C18.5862 20.9225 18.4002 21.4891 17.945 21.9443C17.4895 22.3998 16.9224 22.5855 16.2946 22.6699C15.6999 22.7499 14.9508 22.75 14.0525 22.75H9.94796C9.0496 22.75 8.3005 22.7499 7.70577 22.6699C7.07797 22.5855 6.51085 22.3998 6.05538 21.9443C5.60014 21.4891 5.41421 20.9225 5.3298 20.2949C5.24983 19.7001 5.24969 18.9503 5.24972 18.0518V17.9482C5.2497 17.5138 5.25046 17.114 5.25949 16.75H3.70285C2.59022 16.75 1.72836 16.105 1.3962 15.2393C1.05859 14.3592 1.29733 13.3083 2.22433 12.6562L9.32003 7.66504C9.85641 7.28782 10.4661 7.04811 11.0935 6.94238C11.1989 6.43644 11.4864 6.02487 11.7517 5.71289C11.9235 5.51089 12.1115 5.32197 12.28 5.15527L12.361 5.0752C12.5029 4.93522 12.628 4.81226 12.7409 4.68945C12.923 4.49135 13.0339 4.22136 13.0339 3.90918C13.0339 3.34228 12.496 2.75 11.6599 2.75C10.8239 2.75007 10.2859 3.34231 10.2859 3.90918C10.2858 4.32335 9.95004 4.65918 9.53585 4.65918C9.12175 4.65909 8.7859 4.32329 8.78585 3.90918C8.78585 2.36741 10.1499 1.25007 11.6599 1.25ZM9.99972 14.75C9.03625 14.75 8.3889 14.7516 7.90597 14.8164C7.44451 14.8785 7.24625 14.9859 7.11593 15.1162C6.98573 15.2465 6.87911 15.4442 6.8171 15.9053C6.75216 16.3883 6.74972 17.036 6.74972 18C6.74972 18.964 6.75216 19.6117 6.8171 20.0947C6.87911 20.5558 6.98573 20.7535 7.11593 20.8838C7.24625 21.0141 7.44451 21.1215 7.90597 21.1836C8.3889 21.2484 9.03625 21.25 9.99972 21.25H13.9997C14.9635 21.25 15.6115 21.2485 16.0944 21.1836C16.5559 21.1215 16.7542 21.0141 16.8845 20.8838C17.0146 20.7535 17.1213 20.5558 17.1833 20.0947C17.2482 19.6117 17.2497 18.964 17.2497 18C17.2497 17.036 17.2482 16.3883 17.1833 15.9053C17.1213 15.4442 17.0146 15.2465 16.8845 15.1162C16.7542 14.9859 16.5559 14.8785 16.0944 14.8164C15.6115 14.7515 14.9635 14.75 13.9997 14.75H9.99972ZM11.8103 8.37988C11.2259 8.38669 10.6526 8.56181 10.1823 8.89258L3.08663 13.8838C2.7419 14.1266 2.69643 14.441 2.7966 14.7021C2.90236 14.9777 3.20032 15.25 3.70285 15.25H5.41378C5.52282 14.8033 5.71311 14.398 6.05538 14.0557C6.51085 13.6002 7.07797 13.4145 7.70577 13.3301C8.3005 13.2501 9.04961 13.25 9.94796 13.25H14.0525C14.9508 13.25 15.6999 13.2501 16.2946 13.3301C16.9224 13.4145 17.4895 13.6002 17.945 14.0557C18.2873 14.398 18.4767 14.8033 18.5857 15.25H20.2976C20.8058 15.25 21.1036 14.9732 21.2068 14.6953C21.3044 14.4319 21.2547 14.1135 20.8982 13.873L13.4655 8.8623C12.9829 8.53699 12.3997 8.37303 11.8103 8.37988Z" fill="#48465C"/>
</svg>
