<svg width="24" height="24" viewBox="0 0 24 24" fill="none" xmlns="http://www.w3.org/2000/svg">
<path d="M11.6599 4.25C13.1699 4.25 14.5339 5.36736 14.5339 6.90918C14.5339 7.58934 14.2864 8.22326 13.8444 8.7041C13.7045 8.85636 13.55 9.00938 13.4089 9.14844C13.3838 9.1732 13.3587 9.19787 13.3347 9.22168C13.1677 9.38687 13.0204 9.53626 12.8943 9.68457C12.807 9.7872 12.7399 9.87808 12.6892 9.95898C13.2576 10.0669 13.8095 10.2861 14.3034 10.6191L21.7361 15.6289C22.6858 16.2691 22.9434 17.3259 22.613 18.2168C22.2879 19.093 21.4221 19.75 20.2976 19.75H3.70285C2.59022 19.75 1.72835 19.1049 1.39621 18.2393C1.0586 17.3592 1.29732 16.3083 2.22433 15.6562L9.32003 10.665C9.85641 10.2878 10.4662 10.0481 11.0935 9.94238C11.199 9.43645 11.4864 9.02486 11.7517 8.71289C11.9235 8.5109 12.1115 8.32197 12.28 8.15527C12.3076 8.12795 12.3347 8.10122 12.3611 8.0752C12.503 7.93521 12.628 7.81227 12.7409 7.68945C12.923 7.49135 13.0339 7.22137 13.0339 6.90918C13.0339 6.34228 12.496 5.75 11.6599 5.75C10.8239 5.75007 10.2859 6.34231 10.2859 6.90918C10.2858 7.32335 9.95003 7.65918 9.53585 7.65918C9.12175 7.65909 8.7859 7.32329 8.78585 6.90918C8.78585 5.36741 10.1499 4.25008 11.6599 4.25ZM11.8103 11.3799C11.2259 11.3866 10.6525 11.5618 10.1823 11.8926L3.08664 16.8838C2.74191 17.1266 2.69644 17.441 2.7966 17.7021C2.90237 17.9777 3.20033 18.25 3.70285 18.25H20.2976C20.8057 18.25 21.1036 17.9732 21.2068 17.6953C21.3044 17.4319 21.2546 17.1135 20.8982 16.873L13.4655 11.8623C12.9829 11.537 12.3996 11.373 11.8103 11.3799Z" fill="#48465C"/>
</svg>
