<svg width="24" height="24" viewBox="0 0 24 24" fill="none" xmlns="http://www.w3.org/2000/svg">
<path d="M11.6599 1.25C13.1699 1.25 14.5339 2.36736 14.5339 3.90918C14.5339 4.58934 14.2865 5.22326 13.8445 5.7041C13.7045 5.85635 13.55 6.00938 13.4089 6.14844L13.3347 6.22168C13.1677 6.38687 13.0204 6.53626 12.8943 6.68457C12.807 6.7872 12.7398 6.87807 12.6892 6.95898C13.2576 7.06692 13.8094 7.28612 14.3035 7.61914L21.7361 12.6289C22.6857 13.2691 22.9434 14.3259 22.613 15.2168C22.288 16.093 21.4221 16.75 20.2976 16.75H17.991C18.0002 17.1135 17.9998 17.5271 17.9998 18C17.9998 19.8853 18.0003 20.8282 17.4148 21.4141C16.829 21.9999 15.8854 22 13.9998 22H9.99975C8.11442 22 7.17144 21.9998 6.58569 21.4141C6.00011 20.8282 5.99975 19.8854 5.99975 18C5.99975 17.5271 6.00028 17.1135 6.00952 16.75H3.70288C2.59025 16.75 1.72839 16.105 1.39624 15.2393C1.05863 14.3592 1.29736 13.3083 2.22436 12.6562L9.32006 7.66504C9.85644 7.28782 10.4661 7.04811 11.0935 6.94238C11.1989 6.43644 11.4864 6.02487 11.7517 5.71289C11.9236 5.51089 12.1116 5.32197 12.28 5.15527L12.3611 5.0752C12.503 4.93522 12.6281 4.81226 12.741 4.68945C12.923 4.49135 13.0339 4.22136 13.0339 3.90918C13.0339 3.34228 12.496 2.75 11.6599 2.75C10.8239 2.75007 10.2859 3.34231 10.2859 3.90918C10.2858 4.32335 9.95007 4.65918 9.53588 4.65918C9.12178 4.65909 8.78593 4.32329 8.78588 3.90918C8.78588 2.36741 10.15 1.25007 11.6599 1.25ZM11.8103 8.37988C11.2259 8.38669 10.6527 8.56181 10.1824 8.89258L3.08666 13.8838C2.74193 14.1266 2.69646 14.441 2.79663 14.7021C2.90239 14.9777 3.20035 15.25 3.70288 15.25H6.19311C6.27953 14.9829 6.40443 14.7673 6.58569 14.5859C7.17144 14.0002 8.11442 14 9.99975 14H13.9998C15.8854 14 16.829 14.0001 17.4148 14.5859C17.596 14.7673 17.7209 14.983 17.8074 15.25H20.2976C20.8058 15.25 21.1036 14.9732 21.2068 14.6953C21.3045 14.4319 21.2547 14.1135 20.8982 13.873L13.4656 8.8623C12.983 8.53699 12.3997 8.37303 11.8103 8.37988Z" fill="#48465C"/>
</svg>
