<svg width="24" height="24" viewBox="0 0 24 24" fill="none" xmlns="http://www.w3.org/2000/svg">
<path d="M11.6599 4.25C13.1699 4.25 14.5339 5.36736 14.5339 6.90918C14.5339 7.58934 14.2865 8.22326 13.8445 8.7041C13.7045 8.85636 13.55 9.00938 13.4089 9.14844C13.3838 9.1732 13.3587 9.19787 13.3347 9.22168C13.1677 9.38687 13.0204 9.53626 12.8943 9.68457C12.807 9.7872 12.7398 9.87807 12.6892 9.95898C13.2576 10.0669 13.8094 10.2861 14.3035 10.6191L21.7361 15.6289C22.6857 16.2691 22.9434 17.3259 22.613 18.2168C22.288 19.093 21.4221 19.75 20.2976 19.75H3.70288C2.59025 19.75 1.72839 19.1049 1.39624 18.2393C1.05863 17.3592 1.29736 16.3083 2.22436 15.6562L9.32006 10.665C9.85644 10.2878 10.4662 10.0481 11.0935 9.94238C11.1989 9.43644 11.4864 9.02487 11.7517 8.71289C11.9236 8.51089 12.1116 8.32197 12.28 8.15527C12.3076 8.12796 12.3347 8.10121 12.3611 8.0752C12.5029 7.93521 12.6281 7.81227 12.741 7.68945C12.923 7.49135 13.0339 7.22136 13.0339 6.90918C13.0339 6.34228 12.496 5.75 11.6599 5.75C10.8239 5.75007 10.2859 6.34231 10.2859 6.90918C10.2858 7.32335 9.95007 7.65918 9.53588 7.65918C9.12178 7.65909 8.78593 7.32329 8.78588 6.90918C8.78588 5.36741 10.15 4.25007 11.6599 4.25ZM11.8103 11.3799C11.2259 11.3866 10.6527 11.5618 10.1824 11.8926L3.08666 16.8838C2.74193 17.1266 2.69646 17.441 2.79663 17.7021C2.90239 17.9777 3.20035 18.25 3.70288 18.25H20.2976C20.8058 18.25 21.1036 17.9732 21.2068 17.6953C21.3045 17.4319 21.2547 17.1135 20.8982 16.873L13.4656 11.8623C12.983 11.537 12.3997 11.373 11.8103 11.3799Z" fill="#48465C"/>
</svg>
