<svg width="24" height="24" viewBox="0 0 24 24" fill="none" xmlns="http://www.w3.org/2000/svg">
<path d="M17.75 12.0002C19.3867 12.0002 20.2055 11.9999 20.8066 12.3683C21.143 12.5744 21.4258 12.8582 21.6318 13.1945C21.9999 13.7956 22 14.614 22 16.2502V16.7502C22 17.9151 21.9999 18.4978 21.8096 18.9572C21.5559 19.5696 21.0694 20.056 20.457 20.3097C20.127 20.4465 19.733 20.4854 19.1055 20.4963C18.6803 20.5036 18.4676 20.5074 18.2988 20.6056C18.1299 20.7039 18.0247 20.8814 17.8145 21.2365L17.543 21.6945C17.3013 22.1021 16.6986 22.1021 16.457 21.6945L16.1855 21.2365C15.9753 20.8814 15.87 20.7039 15.7012 20.6056C15.5323 20.5074 15.3197 20.5036 14.8945 20.4963C14.267 20.4854 13.873 20.4465 13.543 20.3097C12.9306 20.056 12.4441 19.5696 12.1904 18.9572C12.0001 18.4978 12 17.9151 12 16.7502V16.2502C12 14.614 12.0001 13.7956 12.3682 13.1945C12.5742 12.8582 12.857 12.5744 13.1934 12.3683C13.7945 11.9999 14.6133 12.0002 16.25 12.0002H17.75ZM18.2773 2.79997C18.3881 2.40087 18.8021 2.16665 19.2012 2.27751C19.6001 2.38851 19.8335 2.80235 19.7227 3.20134L18.3203 8.25017H22C22.4141 8.25017 22.7498 8.58612 22.75 9.00017C22.75 9.41438 22.4142 9.75017 22 9.75017H17.9014C17.7714 10.1189 17.3764 10.3288 16.9941 10.2228C16.7492 10.1548 16.5662 9.97283 16.4873 9.75017H8.90332L7.37598 15.2502H9C9.41409 15.2502 9.7498 15.5861 9.75 16.0002C9.75 16.4144 9.41421 16.7502 9 16.7502H6.95898L5.72266 21.2013C5.61176 21.6004 5.1979 21.8337 4.79883 21.7228C4.40006 21.6118 4.16662 21.1989 4.27734 20.8L5.40234 16.7502H2C1.58579 16.7502 1.25 16.4144 1.25 16.0002C1.2502 15.5861 1.58591 15.2502 2 15.2502H5.81836L7.34668 9.75017H4C3.58579 9.75017 3.25 9.41438 3.25 9.00017C3.25019 8.58612 3.58591 8.25017 4 8.25017H7.76367L9.27734 2.79997C9.3882 2.40087 9.8021 2.16665 10.2012 2.27751C10.6001 2.38851 10.8335 2.80235 10.7227 3.20134L9.32031 8.25017H16.7637L18.2773 2.79997Z" fill="#48465C"/>
</svg>
