<svg width="24" height="24" viewBox="0 0 24 24" fill="none" xmlns="http://www.w3.org/2000/svg">
<path d="M17.7871 11.2502C18.574 11.2502 19.2175 11.2506 19.7373 11.3C20.2766 11.3513 20.76 11.4612 21.1982 11.7297C21.6354 11.9976 22.0035 12.3647 22.2715 12.8019C22.54 13.2401 22.6489 13.7236 22.7002 14.2629C22.7496 14.7827 22.75 15.4262 22.75 16.2131V16.7765C22.75 17.3366 22.7501 17.7949 22.7246 18.1691C22.6982 18.5559 22.6422 18.908 22.5029 19.2443C22.1732 20.0405 21.5404 20.6733 20.7441 21.0031C20.2694 21.1998 19.7457 21.2355 19.1182 21.2463C18.8918 21.2502 18.7731 21.2525 18.6885 21.2619L18.6807 21.2629L18.6777 21.2658C18.63 21.3313 18.5722 21.4286 18.46 21.6183L18.1885 22.0763C17.6565 22.9749 16.3436 22.9749 15.8115 22.0763L15.54 21.6183C15.4278 21.4286 15.37 21.3313 15.3223 21.2658L15.3193 21.2629L15.3115 21.2619C15.2269 21.2525 15.1082 21.2502 14.8818 21.2463C14.2543 21.2355 13.7306 21.1998 13.2559 21.0031C12.4596 20.6733 11.8268 20.0405 11.4971 19.2443C11.3578 18.908 11.3018 18.5559 11.2754 18.1691C11.2499 17.7949 11.25 17.3367 11.25 16.7765V16.2131C11.25 15.4262 11.2504 14.7827 11.2998 14.2629C11.3511 13.7236 11.46 13.2401 11.7285 12.8019C11.9965 12.3647 12.3646 11.9976 12.8018 11.7297C13.24 11.4612 13.7234 11.3513 14.2627 11.3C14.7825 11.2506 15.426 11.2502 16.2129 11.2502H17.7871ZM18.2773 2.79997C18.3881 2.40103 18.8012 2.16696 19.2002 2.27751C19.5993 2.38837 19.8336 2.80224 19.7227 3.20134L18.3203 8.25017H22C22.4141 8.25017 22.7498 8.58612 22.75 9.00017C22.75 9.41438 22.4142 9.75017 22 9.75017H17.9014C17.7714 10.119 17.3756 10.329 16.9932 10.2228C16.7485 10.1547 16.5662 9.97268 16.4873 9.75017H8.90332L7.37598 15.2502H9C9.41409 15.2502 9.7498 15.5861 9.75 16.0002C9.75 16.4144 9.41421 16.7502 9 16.7502H6.95898L5.72266 21.2013C5.61176 21.6004 5.1979 21.8337 4.79883 21.7228C4.40006 21.6118 4.16662 21.1989 4.27734 20.8L5.40234 16.7502H2C1.58579 16.7502 1.25 16.4144 1.25 16.0002C1.2502 15.5861 1.58591 15.2502 2 15.2502H5.81836L7.34668 9.75017H4C3.58579 9.75017 3.25 9.41438 3.25 9.00017C3.25019 8.58612 3.58591 8.25017 4 8.25017H7.76367L9.27734 2.79997C9.3882 2.40087 9.8021 2.16665 10.2012 2.27751C10.6001 2.38851 10.8335 2.80235 10.7227 3.20134L9.32031 8.25017H16.7637L18.2773 2.79997ZM16.25 12.7502C15.4171 12.7502 14.8449 12.7512 14.4043 12.7931C13.9753 12.8339 13.7489 12.9082 13.5859 13.008C13.3505 13.1523 13.1521 13.3506 13.0078 13.5861C12.908 13.749 12.8338 13.9755 12.793 14.4045C12.7511 14.845 12.75 15.4174 12.75 16.2502V16.7502C12.75 17.3429 12.7509 17.7503 12.7725 18.0675C12.7937 18.3777 12.8318 18.547 12.8828 18.6701C13.0604 19.0989 13.4013 19.4397 13.8301 19.6174C14.0155 19.6941 14.2799 19.7353 14.9072 19.7463H14.9336C15.1236 19.7496 15.3139 19.7527 15.4766 19.7707C15.6606 19.7911 15.8698 19.8362 16.0781 19.9572C16.2839 20.077 16.4253 20.2337 16.5342 20.383C16.6293 20.5135 16.7247 20.674 16.8184 20.8322L17 21.1398L17.1816 20.8322C17.2753 20.674 17.3707 20.5135 17.4658 20.383C17.5747 20.2337 17.716 20.077 17.9219 19.9572C18.1301 19.8362 18.3394 19.7911 18.5234 19.7707C18.6862 19.7527 18.8764 19.7496 19.0664 19.7463H19.0928C19.7201 19.7353 19.9845 19.6941 20.1699 19.6174C20.5987 19.4397 20.9396 19.0989 21.1172 18.6701C21.1682 18.547 21.2063 18.3777 21.2275 18.0675C21.2491 17.7503 21.25 17.3429 21.25 16.7502V16.2502C21.25 15.4174 21.2489 14.845 21.207 14.4045C21.1662 13.9755 21.092 13.749 20.9922 13.5861C20.8479 13.3506 20.6495 13.1523 20.4141 13.008C20.2511 12.9082 20.0247 12.8339 19.5957 12.7931C19.1551 12.7512 18.5829 12.7502 17.75 12.7502H16.25Z" fill="#48465C"/>
</svg>
