<svg width="24" height="24" viewBox="0 0 24 24" fill="none" xmlns="http://www.w3.org/2000/svg">
<path d="M18.2773 2.79997C18.3881 2.40087 18.8021 2.16665 19.2012 2.27751C19.6001 2.38851 19.8335 2.80235 19.7227 3.20134L18.3203 8.25017H22C22.4141 8.25017 22.7498 8.58612 22.75 9.00017C22.75 9.41438 22.4142 9.75017 22 9.75017H17.9033L16.376 15.2502H20C20.4141 15.2502 20.7498 15.5861 20.75 16.0002C20.75 16.4144 20.4142 16.7502 20 16.7502H15.959L14.7227 21.2013C14.6118 21.6004 14.1979 21.8337 13.7988 21.7228C13.4001 21.6118 13.1666 21.1989 13.2773 20.8L14.4023 16.7502H6.95898L5.72266 21.2013C5.61176 21.6004 5.1979 21.8337 4.79883 21.7228C4.40006 21.6118 4.16662 21.1989 4.27734 20.8L5.40234 16.7502H2C1.58579 16.7502 1.25 16.4144 1.25 16.0002C1.2502 15.5861 1.58591 15.2502 2 15.2502H5.81836L7.34668 9.75017H4C3.58579 9.75017 3.25 9.41438 3.25 9.00017C3.25019 8.58612 3.58591 8.25017 4 8.25017H7.76367L9.27734 2.79997C9.3882 2.40087 9.8021 2.16665 10.2012 2.27751C10.6001 2.38851 10.8335 2.80235 10.7227 3.20134L9.32031 8.25017H16.7637L18.2773 2.79997ZM7.37598 15.2502H14.8184L16.3467 9.75017H8.90332L7.37598 15.2502Z" fill="#48465C"/>
</svg>
