<svg width="24" height="24" viewBox="0 0 24 24" fill="none" xmlns="http://www.w3.org/2000/svg">
<path fill-rule="evenodd" clip-rule="evenodd" d="M12 4.51294C14.2618 2.39572 16.8253 1.77044 18.9609 2.60669C21.2676 3.50995 22.75 5.99229 22.75 9.31763C22.7499 11.4354 21.6197 13.5195 20.2129 15.3137C18.7915 17.1265 17.0032 18.7501 15.5107 19.9612L15.377 20.0696C14.1764 21.0453 13.3094 21.7502 12 21.7502C10.6906 21.7502 9.82363 21.0453 8.62305 20.0696L8.48926 19.9612C6.99683 18.7501 5.20845 17.1265 3.78711 15.3137C2.38033 13.5195 1.25005 11.4354 1.25 9.31763C1.25 5.99228 2.73245 3.50995 5.03906 2.60669C7.17472 1.77044 9.73818 2.39571 12 4.51294ZM18.4141 4.00317C16.8492 3.39042 14.6596 3.82769 12.5479 6.08618C12.406 6.23786 12.2077 6.32446 12 6.32446C11.7923 6.32446 11.594 6.23786 11.4521 6.08618C9.3404 3.82769 7.15082 3.39042 5.58594 4.00317C4.01761 4.61732 2.75 6.41306 2.75 9.31763C2.75005 10.9289 3.62952 12.6811 4.96777 14.3879C6.29172 16.0765 7.98469 17.6196 9.43457 18.7961C10.827 19.9261 11.2771 20.2502 12 20.2502C12.7229 20.2502 13.173 19.9261 14.5654 18.7961C16.0153 17.6196 17.7083 16.0765 19.0322 14.3879C20.3705 12.6811 21.2499 10.9289 21.25 9.31763C21.25 6.41308 19.9824 4.61731 18.4141 4.00317ZM16.5 6.25024C16.9142 6.25024 17.25 6.58603 17.25 7.00024V8.25024H18.5C18.9142 8.25024 19.25 8.58603 19.25 9.00024C19.2499 9.41435 18.9141 9.75024 18.5 9.75024H17.25V11.0002C17.2499 11.4143 16.9141 11.7502 16.5 11.7502C16.0859 11.7502 15.7501 11.4143 15.75 11.0002V9.75024H14.5C14.0859 9.75024 13.7501 9.41435 13.75 9.00024C13.75 8.58603 14.0858 8.25024 14.5 8.25024H15.75V7.00024C15.75 6.58603 16.0858 6.25024 16.5 6.25024Z" fill="#48465C"/>
</svg>
