<svg width="24" height="24" viewBox="0 0 24 24" fill="none" xmlns="http://www.w3.org/2000/svg">
<path fill-rule="evenodd" clip-rule="evenodd" d="M2 8.96684C2 3.08293 7.50016 0.886428 12 5.43168C16.4998 0.886428 22 3.08296 22 8.96684C21.9998 12.489 17.9803 16.2138 15.0381 18.4688C13.7062 19.4896 13.0403 20 12 20C10.9597 20 10.2938 19.4896 8.96191 18.4688C6.01967 16.2138 2.00015 12.4888 2 8.96684ZM16.5 6.25004C16.0858 6.25004 15.75 6.58586 15.75 7.00004V8.25004H14.5C14.0858 8.25004 13.75 8.58586 13.75 9.00004C13.75 9.41425 14.0858 9.75004 14.5 9.75004H15.75V11C15.75 11.4142 16.0858 11.75 16.5 11.75C16.9142 11.75 17.25 11.4142 17.25 11V9.75004H18.5C18.9142 9.75004 19.25 9.41425 19.25 9.00004C19.25 8.58586 18.9142 8.25004 18.5 8.25004H17.25V7.00004C17.25 6.58586 16.9142 6.25004 16.5 6.25004Z" fill="#48465C"/>
</svg>
