<svg width="24" height="24" viewBox="0 0 24 24" fill="none" xmlns="http://www.w3.org/2000/svg">
<path d="M2 8.96686C2 3.08305 7.5002 0.88579 12 5.43073C16.4998 0.88579 22 3.08308 22 8.96686C21.9998 12.489 17.9803 16.2139 15.0381 18.4688C13.7062 19.4896 13.0403 20.0001 12 20.0001C10.9597 20.0001 10.2938 19.4896 8.96191 18.4688C6.01968 16.2139 2.00018 12.4889 2 8.96686ZM16.5 6.25006C16.0858 6.25006 15.75 6.58586 15.75 7.00006V8.25006H14.5C14.0858 8.25006 13.75 8.58586 13.75 9.00006C13.75 9.41427 14.0858 9.75006 14.5 9.75006H15.75V11.0001C15.75 11.4143 16.0858 11.7501 16.5 11.7501C16.9142 11.7501 17.25 11.4143 17.25 11.0001V9.75006H18.5C18.9142 9.75006 19.25 9.41427 19.25 9.00006C19.25 8.58586 18.9142 8.25006 18.5 8.25006H17.25V7.00006C17.25 6.58586 16.9142 6.25006 16.5 6.25006Z" fill="#48465C"/>
</svg>
