<svg width="24" height="24" viewBox="0 0 24 24" fill="none" xmlns="http://www.w3.org/2000/svg">
<path fill-rule="evenodd" clip-rule="evenodd" d="M5.00098 3.05962C7.09912 2.1007 9.68807 2.39056 12 4.45903C14.312 2.39055 16.9009 2.10068 18.999 3.05962C21.215 4.07255 22.7499 6.42484 22.75 9.13677C22.75 11.8022 21.6397 13.836 20.1836 15.4756C19.0174 16.7888 17.5897 17.8878 16.3291 18.8584C16.0433 19.0784 15.7665 19.2923 15.5029 19.5C14.9906 19.9038 14.4401 20.3345 13.8828 20.6602C13.3258 20.9856 12.6902 21.25 12 21.25C11.3098 21.25 10.6742 20.9856 10.1172 20.6602C9.55994 20.3345 9.0093 19.9038 8.49707 19.5C8.23347 19.2923 7.95661 19.0784 7.6709 18.8584C6.41029 17.8879 4.98255 16.7888 3.81641 15.4756C2.36029 13.836 1.25 11.8022 1.25 9.13677C1.25013 6.42484 2.78502 4.07255 5.00098 3.05962ZM11.085 5.65337C9.14164 3.86221 7.13816 3.73176 5.62402 4.42388C3.9652 5.18221 2.75013 6.98612 2.75 9.13677C2.75 11.3341 3.64943 13.0281 4.93848 14.4795C6.00091 15.6758 7.28673 16.6679 8.54102 17.6348C8.83891 17.8645 9.13489 18.093 9.42578 18.3223C9.95179 18.737 10.4217 19.101 10.874 19.3653C11.0807 19.4859 11.2694 19.5767 11.4424 19.6397L12.1689 16.7305L10.4697 15.0303C10.1926 14.7531 10.1756 14.3094 10.4307 14.0118L12.8975 11.1338L10.0645 9.1104C9.76409 8.89588 9.66401 8.49421 9.8291 8.16411L11.085 5.65337ZM18.376 4.42388C16.7847 3.69649 14.6527 3.87785 12.6182 5.94048L11.457 8.26177L14.4355 10.3897C14.6068 10.5119 14.7187 10.7005 14.7441 10.9092C14.7695 11.1181 14.7063 11.3286 14.5693 11.4883L12.0215 14.461L13.5303 15.9698C13.7165 16.156 13.7914 16.4263 13.7275 16.6817L13.0449 19.4112C13.0715 19.3964 13.0987 19.3811 13.126 19.3653C13.5783 19.101 14.0481 18.737 14.5742 18.3223C14.8651 18.093 15.1611 17.8645 15.459 17.6348C16.7133 16.6679 17.9991 15.6758 19.0615 14.4795C20.3506 13.0281 21.25 11.3341 21.25 9.13677C21.2499 6.98613 20.0348 5.18221 18.376 4.42388Z" fill="#48465C"/>
</svg>
