<svg width="24" height="24" viewBox="0 0 24 24" fill="none" xmlns="http://www.w3.org/2000/svg">
<path fill-rule="evenodd" clip-rule="evenodd" d="M12 4.43661C14.2743 2.30941 16.8462 1.7705 18.9756 2.65634C21.2578 3.60579 22.7499 6.07885 22.75 9.25986C22.75 11.3857 21.6208 13.4791 20.2139 15.2823C18.7928 17.1035 17.005 18.7343 15.5127 19.9513L15.3779 20.0616C14.1781 21.0415 13.3105 21.7501 12 21.7501C10.6895 21.7501 9.82192 21.0414 8.62207 20.0616L8.4873 19.9513C6.99498 18.7343 5.20714 17.1035 3.78613 15.2823C2.37919 13.4792 1.25 11.3857 1.25 9.25986C1.2501 6.07893 2.7422 3.60581 5.02441 2.65634C7.15379 1.7705 9.72571 2.30942 12 4.43661ZM18.3994 4.04111C16.827 3.38709 14.6469 3.75505 12.5488 6.00986C12.407 6.1621 12.2081 6.24814 12 6.24814C11.7919 6.24814 11.593 6.1621 11.4512 6.00986C9.35312 3.75498 7.17291 3.38794 5.60059 4.04208C4.008 4.70475 2.7501 6.53028 2.75 9.25986C2.75 10.8815 3.63041 12.6442 4.96875 14.3595C6.29283 16.0564 7.98571 17.6069 9.43555 18.7892C10.8285 19.9252 11.2785 20.2501 12 20.2501C12.7216 20.2501 13.1715 19.9252 14.5645 18.7892C16.0143 17.6069 17.7072 16.0565 19.0312 14.3595C20.3695 12.6443 21.25 10.8816 21.25 9.25986C21.2499 6.53006 19.9921 4.70368 18.3994 4.04111ZM10.416 8.69638C10.8835 8.72163 11.1755 9.01759 11.3457 9.2413C11.5014 9.44608 11.6555 9.72566 11.8096 10.0059L13.5186 13.1134C13.5999 13.2611 13.6677 13.3846 13.7285 13.4903C13.7931 13.3871 13.8655 13.2665 13.9521 13.1222L14 13.0431C14.1992 12.7111 14.3753 12.4174 14.5469 12.1856C14.7328 11.9346 14.9455 11.7091 15.2402 11.5421C15.5351 11.3751 15.8383 11.3077 16.1494 11.2774C16.4364 11.2495 16.779 11.25 17.166 11.2501H18C18.4142 11.2501 18.75 11.5858 18.75 12.0001C18.7498 12.4141 18.4141 12.7501 18 12.7501H17.1982C16.7693 12.7501 16.5007 12.7506 16.2949 12.7706C16.1053 12.789 16.0283 12.8191 15.9795 12.8468C15.9306 12.8745 15.8652 12.9252 15.752 13.0782C15.629 13.2443 15.4901 13.4743 15.2695 13.8419L15.2139 13.9347C15.0366 14.2301 14.8628 14.52 14.6914 14.7286C14.5079 14.9519 14.1883 15.2555 13.6953 15.2462C13.2023 15.2368 12.8947 14.9216 12.7197 14.6915C12.5562 14.4765 12.3935 14.1801 12.2275 13.878L10.5166 10.7686C10.4415 10.632 10.3792 10.5185 10.3232 10.421C10.2571 10.512 10.1822 10.6184 10.0928 10.7462L9.79297 11.1749C9.58835 11.4672 9.40707 11.7265 9.23438 11.9308C9.04699 12.1525 8.83667 12.3499 8.55762 12.4952C8.27867 12.6403 7.99696 12.6993 7.70801 12.7257C7.44164 12.75 7.12533 12.7501 6.76855 12.7501H6C5.58593 12.7501 5.25022 12.4141 5.25 12.0001C5.25 11.5858 5.58579 11.2501 6 11.2501H6.73828C7.13403 11.2501 7.38122 11.2488 7.57129 11.2315C7.74606 11.2156 7.81867 11.1893 7.86523 11.1651C7.91178 11.1408 7.97539 11.0962 8.08887 10.962C8.21201 10.8162 8.35426 10.6141 8.58105 10.2901L8.89062 9.84775C9.07398 9.58566 9.25674 9.32459 9.43359 9.13779C9.62679 8.93375 9.94869 8.6713 10.416 8.69638Z" fill="#48465C"/>
</svg>
