<svg width="24" height="24" viewBox="0 0 24 24" fill="none" xmlns="http://www.w3.org/2000/svg">
<path d="M12 5.49856C16.4997 0.662717 21.9999 3.34941 22 9.26028C22 13.0079 17.9804 16.9713 15.0381 19.3706C13.7061 20.4568 13.0403 21.0005 12 21.0005C10.9597 21.0005 10.2939 20.4568 8.96191 19.3706C6.01961 16.9713 2 13.0077 2 9.26028C2.00016 3.34959 7.50026 0.662728 12 5.49856ZM10.416 8.6968C9.94869 8.67173 9.62679 8.93418 9.43359 9.13821C9.25674 9.32499 9.07399 9.58608 8.89062 9.84817L8.58105 10.2906C8.35397 10.615 8.21212 10.8176 8.08887 10.9634C7.97541 11.0976 7.91178 11.1414 7.86523 11.1656C7.81867 11.1898 7.74611 11.216 7.57129 11.232C7.38122 11.2493 7.13404 11.2505 6.73828 11.2505H6C5.58579 11.2505 5.25 11.5863 5.25 12.0005C5.25017 12.4146 5.58589 12.7505 6 12.7505H6.76855C7.12534 12.7505 7.44164 12.7504 7.70801 12.7261C7.99698 12.6997 8.27865 12.6408 8.55762 12.4956C8.83667 12.3503 9.04699 12.1529 9.23438 11.9312C9.40706 11.7268 9.58837 11.4677 9.79297 11.1753L10.0928 10.7466C10.1823 10.6187 10.257 10.5123 10.3232 10.4214C10.3792 10.5188 10.4415 10.6324 10.5166 10.7691L12.2275 13.8784C12.3935 14.1805 12.5563 14.4769 12.7197 14.6919C12.8947 14.9219 13.2023 15.2374 13.6953 15.2466C14.1883 15.2559 14.5079 14.9523 14.6914 14.729C14.8628 14.5204 15.0366 14.2306 15.2139 13.9351L15.2695 13.8423C15.4901 13.4747 15.629 13.2448 15.752 13.0786C15.8653 12.9256 15.9306 12.8748 15.9795 12.8472C16.0283 12.8195 16.1053 12.7895 16.2949 12.771C16.5006 12.751 16.7693 12.7505 17.1982 12.7505H18C18.4141 12.7505 18.7498 12.4146 18.75 12.0005C18.75 11.5863 18.4142 11.2505 18 11.2505H17.166C16.779 11.2505 16.4364 11.25 16.1494 11.2779C15.8383 11.3081 15.5352 11.3755 15.2402 11.5425C14.9455 11.7095 14.7328 11.9349 14.5469 12.1861C14.3753 12.4178 14.1992 12.7115 14 13.0435L13.9521 13.1226C13.8655 13.2671 13.7931 13.3874 13.7285 13.4907C13.6677 13.385 13.5999 13.2615 13.5186 13.1138L11.8096 10.0064C11.6555 9.726 11.5014 9.44651 11.3457 9.24173C11.1755 9.01801 10.8835 8.72204 10.416 8.6968Z" fill="#48465C"/>
</svg>
