<svg width="24" height="24" viewBox="0 0 24 24" fill="none" xmlns="http://www.w3.org/2000/svg">
<path d="M12 4.25305C14.3074 2.10241 16.902 1.7932 19.0107 2.8009C21.232 3.86258 22.75 6.31463 22.75 9.11926C22.75 10.4899 22.4791 11.7073 22.0225 12.7989C22.4796 13.4314 22.75 14.2142 22.75 15.0597C22.75 16.5777 22.0801 17.7261 21.2402 18.6251C20.5742 19.338 19.7563 19.937 19.0625 20.4445C18.9082 20.5573 18.76 20.6656 18.6211 20.7696C18.3423 20.9785 18.0211 21.2174 17.6914 21.4005C17.3611 21.584 16.9559 21.7501 16.5 21.7501C16.0441 21.7501 15.6389 21.584 15.3086 21.4005C14.9896 21.2234 14.6786 20.9942 14.4062 20.7902C13.7009 21.2976 12.8841 21.7501 12 21.7501C11.3011 21.7501 10.6609 21.47 10.1045 21.13C9.54694 20.7894 8.99645 20.3392 8.48438 19.9171C8.21325 19.6936 7.92755 19.4641 7.63281 19.2277C4.85044 16.9951 1.25009 14.1062 1.25 9.11926C1.25 6.31463 2.76792 3.86258 4.98926 2.8009C7.09801 1.79318 9.69259 2.10239 12 4.25305ZM18.3643 4.15441C16.768 3.39149 14.6135 3.58473 12.5518 5.82434C12.4098 5.97862 12.2097 6.06652 12 6.06652C11.7903 6.06652 11.5902 5.97862 11.4482 5.82434C9.3865 3.58473 7.23201 3.39149 5.63574 4.15441C3.98207 4.94481 2.75 6.83926 2.75 9.11926C2.75009 13.3459 5.74855 15.771 8.58691 18.0665C8.87343 18.2982 9.15848 18.5291 9.43848 18.7599C9.96462 19.1935 10.4338 19.5745 10.8857 19.8507C11.3389 20.1275 11.699 20.2501 12 20.2501C12.3238 20.2501 12.689 20.1119 13.127 19.8419C11.765 18.7941 10.2501 17.341 10.25 15.0597C10.25 13.4865 11.187 12.1316 12.5234 11.5509C13.7328 11.0256 15.1913 11.1607 16.5 12.1642C17.3134 11.54 18.1913 11.2458 19.0469 11.2501C19.6916 11.2533 20.2986 11.4264 20.8262 11.7257C21.0952 10.9392 21.25 10.0772 21.25 9.11926C21.25 6.83926 20.0179 4.94482 18.3643 4.15441ZM19.04 12.7501C18.4447 12.7471 17.7364 12.9922 17.0273 13.6925C16.7353 13.9809 16.2647 13.9809 15.9727 13.6925C14.9307 12.6634 13.8777 12.5983 13.1211 12.9269C12.3262 13.2723 11.75 14.0906 11.75 15.0597C11.7501 16.9424 13.2189 18.0582 14.8447 19.2491C14.9902 19.3556 15.136 19.4629 15.2783 19.5695C15.5703 19.7883 15.8108 19.9637 16.0361 20.089C16.2611 20.214 16.406 20.2501 16.5 20.2501C16.594 20.2501 16.7389 20.214 16.9639 20.089C17.1892 19.9637 17.4297 19.7883 17.7217 19.5695C17.8884 19.4446 18.056 19.3215 18.2227 19.1993C18.9101 18.6953 19.5847 18.1999 20.1445 17.6007C20.8143 16.8837 21.25 16.0838 21.25 15.0597C21.25 14.4232 21.0016 13.8516 20.6045 13.4357C20.1986 13.0104 19.6434 12.7533 19.04 12.7501Z" fill="#48465C"/>
</svg>
