<svg width="24" height="24" viewBox="0 0 24 24" fill="none" xmlns="http://www.w3.org/2000/svg">
<path d="M16.5 13.2872C18.1619 11.4636 20.0719 11.7676 21.1475 13.0196C21.6735 13.632 22 14.4715 22 15.3995C21.9999 18.224 19.7891 19.729 18.1709 21.0762C17.5999 21.5516 17.05 22.0001 16.5 22.0001C15.95 22.0001 15.4001 21.5516 14.8291 21.0762C14.6904 20.9609 14.5469 20.845 14.4014 20.7266L14.3584 20.6905C12.8141 19.4338 11.0001 17.958 11 15.3995C11 12.5746 14.0251 10.5714 16.5 13.2872ZM12 5.50006C16.4998 0.824927 22 4.27385 22 9.13678C22 9.97027 21.8824 10.7372 21.6719 11.4473C20.9529 10.8697 20.0508 10.5047 19.0518 10.4991C18.1619 10.4941 17.2937 10.7741 16.499 11.3096C15.1102 10.3769 13.543 10.2513 12.1699 10.9141C10.5347 11.7036 9.50013 13.4697 9.5 15.3985C9.5 17.7037 10.6488 19.3212 11.8418 20.4932C10.8945 20.4179 9.94531 19.6854 8.96191 18.9102C8.68491 18.6918 8.3983 18.471 8.10645 18.2462C5.29841 16.0827 2.00011 13.5418 2 9.13678C2 4.27385 7.50016 0.824927 12 5.50006Z" fill="#48465C"/>
</svg>
