<svg width="24" height="24" viewBox="0 0 24 24" fill="none" xmlns="http://www.w3.org/2000/svg">
<path fill-rule="evenodd" clip-rule="evenodd" d="M16.5 13.2874C18.1619 11.4638 20.0719 11.7678 21.1475 13.0198C21.6735 13.6322 22 14.4718 22 15.3997C21.9999 18.2243 19.7891 19.7292 18.1709 21.0765C17.5999 21.5519 17.05 22.0003 16.5 22.0003C15.95 22.0003 15.4001 21.5519 14.8291 21.0765C14.6904 20.9611 14.5469 20.8452 14.4014 20.7269L14.3584 20.6907C12.8141 19.434 11.0001 17.9583 11 15.3997C11 12.5748 14.0251 10.5716 16.5 13.2874ZM12 5.50031C16.4998 0.825171 22 4.27409 22 9.13703C22 9.97052 21.8824 10.7374 21.6719 11.4476C20.9529 10.87 20.0508 10.5049 19.0518 10.4993C18.1619 10.4944 17.2937 10.7744 16.499 11.3099C15.1102 10.3771 13.543 10.2515 12.1699 10.9144C10.5347 11.7038 9.50013 13.47 9.5 15.3987C9.5 17.7039 10.6488 19.3215 11.8418 20.4935C10.8945 20.4182 9.94531 19.6857 8.96191 18.9105C8.68491 18.6921 8.3983 18.4713 8.10645 18.2464C5.29841 16.0829 2.00011 13.542 2 9.13703C2 4.27409 7.50016 0.825171 12 5.50031Z" fill="#48465C"/>
</svg>
