<svg width="24" height="24" viewBox="0 0 24 24" fill="none" xmlns="http://www.w3.org/2000/svg">
<path fill-rule="evenodd" clip-rule="evenodd" d="M2 9.1373C2 4.53688 6.92245 1.20157 11.2637 4.81309L9.81055 8.20469C9.67186 8.52858 9.77769 8.90515 10.0645 9.10996L12.8975 11.1334L10.4307 14.0113C10.1756 14.3089 10.1928 14.7528 10.4697 15.0299L12.1689 16.7301L11.2598 20.3697C10.5047 20.1164 9.74402 19.5273 8.96191 18.9107C8.68495 18.6924 8.39826 18.4715 8.10645 18.2467C5.29846 16.0833 2.00022 13.5421 2 9.1373ZM12.9795 4.61973C17.2593 1.32694 22 4.62245 22 9.1373C22 13.5424 18.7016 16.0832 15.8936 18.2467C15.6018 18.4716 15.3151 18.6924 15.0381 18.9107C14.2805 19.5079 13.5432 20.0798 12.8115 20.3453L13.7275 16.6822C13.7914 16.4267 13.7165 16.1566 13.5303 15.9703L12.0215 14.4615L14.5693 11.4889C14.7063 11.3291 14.7695 11.1187 14.7441 10.9098C14.7187 10.7009 14.6068 10.5125 14.4355 10.3902L11.4277 8.24082L12.9795 4.61973Z" fill="#48465C"/>
</svg>
