<svg width="24" height="24" viewBox="0 0 24 24" fill="none" xmlns="http://www.w3.org/2000/svg">
<path fill-rule="evenodd" clip-rule="evenodd" d="M5.00098 3.05962C7.09912 2.1007 9.68807 2.39056 12 4.45903C14.312 2.39055 16.9009 2.10068 18.999 3.05962C21.215 4.07255 22.7499 6.42484 22.75 9.13677C22.75 11.8022 21.6397 13.836 20.1836 15.4756C19.0174 16.7888 17.5897 17.8878 16.3291 18.8584C16.0433 19.0784 15.7665 19.2923 15.5029 19.5C14.9906 19.9038 14.4401 20.3345 13.8828 20.6602C13.3258 20.9856 12.6902 21.25 12 21.25C11.3098 21.25 10.6742 20.9856 10.1172 20.6602C9.55993 20.3345 9.0093 19.9038 8.49707 19.5C8.23347 19.2923 7.95661 19.0784 7.6709 18.8584C6.41029 17.8879 4.98255 16.7888 3.81641 15.4756C2.36029 13.836 1.25 11.8022 1.25 9.13677C1.25013 6.42484 2.78502 4.07255 5.00098 3.05962ZM18.376 4.42388C16.7643 3.68716 14.5979 3.8824 12.54 6.02056C12.3986 6.1674 12.2039 6.25102 12 6.25102C11.7961 6.25102 11.6014 6.1674 11.46 6.02056C9.40202 3.8824 7.23573 3.68716 5.62402 4.42388C3.9652 5.18221 2.75013 6.98612 2.75 9.13677C2.75 11.3341 3.64943 13.0281 4.93848 14.4795C6.00091 15.6758 7.28673 16.6679 8.54102 17.6348C8.83891 17.8645 9.13489 18.093 9.42578 18.3223C9.95179 18.737 10.4217 19.101 10.874 19.3653C11.3263 19.6295 11.6905 19.75 12 19.75C12.3095 19.75 12.6737 19.6295 13.126 19.3653C13.5783 19.101 14.0481 18.737 14.5742 18.3223C14.8651 18.093 15.1611 17.8645 15.459 17.6348C16.7133 16.6679 17.9991 15.6758 19.0615 14.4795C20.3506 13.0281 21.25 11.3341 21.25 9.13677C21.2499 6.98613 20.0348 5.18221 18.376 4.42388Z" fill="#48465C"/>
</svg>
