<svg width="24" height="24" viewBox="0 0 24 24" fill="none" xmlns="http://www.w3.org/2000/svg">
<path fill-rule="evenodd" clip-rule="evenodd" d="M12 5.49847C16.4997 0.662761 21.9998 3.34944 22 9.26019C22 13.0078 17.9804 16.9712 15.0381 19.3705C13.7061 20.4567 13.0403 21.0004 12 21.0004C10.9597 21.0004 10.2939 20.4567 8.96191 19.3705C6.01962 16.9712 2 13.0076 2 9.26019C2.00024 3.34962 7.5003 0.662772 12 5.49847ZM10.416 8.69671C9.94875 8.67164 9.6268 8.9341 9.43359 9.13812C9.25676 9.32488 9.07397 9.58602 8.89062 9.84808L8.58105 10.2905C8.35395 10.6149 8.21212 10.8175 8.08887 10.9633C7.97539 11.0975 7.91178 11.1413 7.86523 11.1655C7.81867 11.1897 7.74618 11.2159 7.57129 11.2319C7.38122 11.2492 7.13404 11.2504 6.73828 11.2504H6C5.58579 11.2504 5.25 11.5862 5.25 12.0004C5.2501 12.4145 5.58585 12.7504 6 12.7504H6.76855C7.12534 12.7504 7.44164 12.7503 7.70801 12.726C7.997 12.6996 8.27863 12.6408 8.55762 12.4955C8.83667 12.3502 9.04699 12.1528 9.23438 11.9311C9.40704 11.7268 9.5884 11.4675 9.79297 11.1752L10.0928 10.7465C10.1823 10.6186 10.257 10.5122 10.3232 10.4213C10.3792 10.5187 10.4415 10.6324 10.5166 10.769L12.2275 13.8793C12.3934 14.1812 12.5564 14.477 12.7197 14.6918C12.8947 14.9218 13.2023 15.2373 13.6953 15.2465C14.1883 15.2558 14.5079 14.9522 14.6914 14.7289C14.8628 14.5203 15.0366 14.2305 15.2139 13.935L15.2695 13.8422C15.4901 13.4746 15.629 13.2447 15.752 13.0786C15.865 12.9259 15.9306 12.8757 15.9795 12.8481C16.0283 12.8204 16.1053 12.7894 16.2949 12.7709C16.5006 12.751 16.7693 12.7504 17.1982 12.7504H18C18.4141 12.7504 18.7499 12.4145 18.75 12.0004C18.75 11.5862 18.4142 11.2504 18 11.2504H17.166C16.779 11.2504 16.4364 11.2499 16.1494 11.2778C15.8383 11.308 15.5352 11.3754 15.2402 11.5424C14.9455 11.7094 14.7328 11.9348 14.5469 12.186C14.3753 12.4177 14.1992 12.7114 14 13.0434L13.9521 13.1225C13.8655 13.267 13.7931 13.3873 13.7285 13.4907C13.6678 13.385 13.5998 13.2622 13.5186 13.1147L11.8096 10.0063C11.6555 9.72588 11.5014 9.44643 11.3457 9.24164C11.1755 9.01792 10.8835 8.72195 10.416 8.69671Z" fill="#48465C"/>
</svg>
