<svg width="24" height="24" viewBox="0 0 24 24" fill="none" xmlns="http://www.w3.org/2000/svg">
<path fill-rule="evenodd" clip-rule="evenodd" d="M5.07846 5.06856C8.87379 1.27858 15.0441 1.31934 18.8626 5.13789C22.6826 8.9581 22.7209 15.1312 18.9261 18.926C15.1313 22.7208 8.95824 22.6825 5.13803 18.8625C2.8742 16.5987 1.93878 13.5099 2.34018 10.5813C2.39643 10.1709 2.77551 9.8834 3.18588 9.93965C3.59609 9.99606 3.88274 10.3751 3.8265 10.7854C3.48669 13.2655 4.27812 15.8815 6.19858 17.802C9.44307 21.0463 14.6665 21.0645 17.8656 17.8654C21.0646 14.6664 21.0463 9.44293 17.8021 6.19844C14.5592 2.95561 9.33854 2.93492 6.139 6.1291L6.88705 6.13301C7.3012 6.13509 7.63513 6.47279 7.63315 6.88692C7.63107 7.30113 7.29345 7.63509 6.87924 7.63301L4.33432 7.62032C3.92305 7.61825 3.59029 7.28548 3.58822 6.87422L3.57553 4.32832C3.57368 3.91432 3.90755 3.57748 4.32162 3.57539C4.73568 3.57349 5.07345 3.90739 5.07553 4.32149L5.07846 5.06856ZM12.0003 7.2502C12.4144 7.25038 12.7503 7.5861 12.7503 8.0002V11.6897L15.0306 13.9699C15.3232 14.2628 15.3234 14.7378 15.0306 15.0305C14.7378 15.3233 14.263 15.3231 13.9701 15.0305L11.2503 12.3107V8.0002C11.2503 7.58599 11.5861 7.2502 12.0003 7.2502Z" fill="#48465C"/>
</svg>
