<svg width="24" height="24" viewBox="0 0 24 24" fill="none" xmlns="http://www.w3.org/2000/svg">
<path d="M5.07853 5.06941C8.87386 1.27943 15.0442 1.31922 18.8627 5.13777C22.6827 8.95792 22.7209 15.131 18.9262 18.9259C15.1314 22.7207 8.95831 22.6824 5.1381 18.8624C2.87425 16.5986 1.93882 13.5098 2.34025 10.5811C2.39653 10.1708 2.77561 9.88425 3.18595 9.9405C3.59605 9.997 3.88281 10.375 3.82658 10.7852C3.4867 13.2654 4.27815 15.8813 6.19865 17.8018C9.44314 21.0462 14.6666 21.0644 17.8656 17.8653C21.0645 14.6662 21.0464 9.44276 17.8022 6.19831C14.5593 2.95548 9.33862 2.93577 6.13908 6.12995L6.88713 6.13288C7.30122 6.13496 7.63512 6.47273 7.63322 6.88679C7.63114 7.301 7.29352 7.63496 6.87931 7.63288L4.33439 7.62019C3.92312 7.61812 3.59037 7.28535 3.5883 6.87409L3.57463 4.32917C3.57255 3.91497 3.90749 3.57736 4.3217 3.57527C4.73572 3.57341 5.07255 3.90729 5.07463 4.32136L5.07853 5.06941ZM12.0004 7.25007C12.4144 7.2503 12.7504 7.586 12.7504 8.00007V11.6895L15.0307 13.9698C15.3233 14.2627 15.3233 14.7376 15.0307 15.0303C14.7379 15.3232 14.2631 15.323 13.9701 15.0303L11.2504 12.3106V8.00007C11.2504 7.58586 11.5862 7.25007 12.0004 7.25007Z" fill="#48465C"/>
</svg>
