<svg width="24" height="24" viewBox="0 0 24 24" fill="none" xmlns="http://www.w3.org/2000/svg">
<path d="M5.07853 5.06911C8.87374 1.27925 15.0432 1.31927 18.8617 5.13747C22.6819 8.95766 22.7211 15.1316 18.9262 18.9265C15.1313 22.7212 8.95824 22.6821 5.1381 18.8621C2.87425 16.5983 1.93882 13.5095 2.34025 10.5808C2.39662 10.1707 2.77484 9.88418 3.18498 9.9402C3.59536 9.99645 3.88283 10.3745 3.82658 10.7849C3.48663 13.2652 4.27809 15.881 6.19865 17.8015C9.44314 21.0459 14.6666 21.0641 17.8656 17.865C21.0644 14.6659 21.0455 9.44239 17.8012 6.19802C14.5583 2.95557 9.33849 2.9356 6.13908 6.12966L6.88713 6.13356C7.3013 6.13569 7.6353 6.47329 7.63322 6.88747C7.63091 7.30148 7.29338 7.63564 6.87931 7.63356L4.33439 7.62087C3.92312 7.6188 3.58939 7.28506 3.58732 6.8738L3.57463 4.32888C3.57255 3.91483 3.90672 3.5773 4.32072 3.57497C4.7349 3.57289 5.07249 3.9069 5.07463 4.32106L5.07853 5.06911ZM11.9994 7.24977C12.4136 7.24977 12.7494 7.58561 12.7494 7.99977V11.6892L15.0297 13.9695C15.3226 14.2624 15.3226 14.7372 15.0297 15.03C14.7368 15.3228 14.262 15.3229 13.9692 15.03L11.2494 12.3103V7.99977C11.2495 7.58576 11.5855 7.25002 11.9994 7.24977Z" fill="#48465C"/>
</svg>
