<svg width="24" height="24" viewBox="0 0 24 24" fill="none" xmlns="http://www.w3.org/2000/svg">
<path fill-rule="evenodd" clip-rule="evenodd" d="M5.07846 5.06852C8.8738 1.27861 15.0442 1.31933 18.8626 5.13786C22.6825 8.95804 22.7208 15.1311 18.9261 18.9259C15.1313 22.7208 8.95824 22.6824 5.13803 18.8625C2.8742 16.5987 1.93877 13.5099 2.34018 10.5812C2.39641 10.171 2.77474 9.88368 3.18491 9.93962C3.59529 9.99587 3.88276 10.3749 3.82651 10.7853C3.48668 13.2655 4.27811 15.8814 6.19858 17.8019C9.44308 21.0462 14.6666 21.0644 17.8656 17.8654C21.0646 14.6663 21.0455 9.44286 17.8011 6.19841C14.5582 2.95582 9.33847 2.93595 6.13901 6.13005L6.88706 6.13298C7.3012 6.13506 7.63512 6.47276 7.63315 6.88688C7.63107 7.30109 7.29345 7.63506 6.87924 7.63298L4.33432 7.62028C3.92305 7.61821 3.5903 7.28545 3.58823 6.87419L3.57456 4.32829C3.57272 3.91429 3.90756 3.57745 4.32163 3.57536C4.73563 3.57352 5.07248 3.90739 5.07456 4.32145L5.07846 5.06852ZM12.0003 7.25016C12.4143 7.2504 12.7503 7.5861 12.7503 8.00016V11.6896L15.0306 13.9699C15.3231 14.2628 15.3233 14.7377 15.0306 15.0304C14.7378 15.3232 14.263 15.323 13.9701 15.0304L11.2503 12.3107V8.00016C11.2503 7.58595 11.5861 7.25016 12.0003 7.25016Z" fill="#48465C"/>
</svg>
