<svg width="24" height="24" viewBox="0 0 24 24" fill="none" xmlns="http://www.w3.org/2000/svg">
<path d="M9.98535 2.74721C11.111 1.77881 12.7732 1.74882 13.9336 2.67593L20.6045 7.96499C21.1719 8.43616 21.5 9.13296 21.5 9.86733V18.5783C21.4999 19.4873 21.1356 20.3592 20.4873 21.0011C19.8389 21.6431 18.9597 22.0025 18.0439 22.0001H16.083C15.7561 22.0002 15.4422 21.8701 15.2119 21.6398C14.9819 21.4096 14.8541 21.0978 14.8564 20.7736V17.716C14.8564 17.3411 14.7064 16.981 14.4395 16.716C14.1725 16.451 13.8102 16.3019 13.4326 16.3019H10.5586C9.77233 16.3019 9.13477 16.9354 9.13477 17.716V20.7736L9.1084 20.7824C9.10342 21.4563 8.55097 22.0002 7.87207 22.0001H5.95605C4.04732 22.0001 2.5 20.4634 2.5 18.5685V9.86733C2.51755 9.12123 2.87269 8.42228 3.4668 7.96499L9.98535 2.74721Z" fill="#48465C"/>
</svg>
