<svg width="24" height="24" viewBox="0 0 24 24" fill="none" xmlns="http://www.w3.org/2000/svg">
<path d="M9.54785 2.09767C10.8843 1.03846 12.7471 0.971732 14.1494 1.89846L14.4238 2.09767L14.4258 2.09865L21.0059 7.3467H21.0049C21.7765 7.9418 22.2365 8.85355 22.25 9.82717V18.5615C22.25 20.8816 20.3523 22.7499 18.0273 22.75H16.0859C15.0166 22.7252 14.1501 21.8569 14.1504 20.7803V17.7051C14.1504 17.3427 13.8513 17.0352 13.4668 17.0352H10.5859C10.2033 17.0377 9.90726 17.3444 9.90723 17.7051V20.7715C9.90722 20.839 9.89468 20.9036 9.87793 20.9658C9.77941 21.973 8.92374 22.75 7.89648 22.75H5.97266C3.64765 22.7499 1.75 20.8816 1.75 18.5615V9.83986L1.75684 9.65627C1.81854 8.75137 2.2677 7.91395 2.99219 7.35744L9.54395 2.1006L9.54785 2.09767ZM13.4922 3.27346C12.6123 2.57608 11.3593 2.57608 10.4795 3.27346L10.4785 3.27248L3.93164 8.52736C3.92629 8.53166 3.92051 8.53591 3.91504 8.54006C3.49902 8.85529 3.25518 9.34083 3.25 9.85451V18.5615C3.25 20.039 4.46183 21.2499 5.97266 21.25H7.89648C8.17476 21.25 8.38765 21.0287 8.3877 20.7715H8.40723V17.7051C8.40724 16.5058 9.38309 15.5431 10.5762 15.5352H13.4668C14.6655 15.5352 15.6504 16.5001 15.6504 17.7051V20.7813C15.6504 21.029 15.8521 21.2436 16.1201 21.25H18.0273C19.5382 21.2499 20.75 20.039 20.75 18.5615V9.84767C20.7428 9.33281 20.4987 8.84687 20.083 8.52932C20.0789 8.52615 20.0744 8.5228 20.0703 8.51955L13.4922 3.27248V3.27346Z" fill="#48465C"/>
</svg>
