<svg width="24" height="24" viewBox="0 0 24 24" fill="none" xmlns="http://www.w3.org/2000/svg">
<path d="M9.65692 3.91406C11.0265 2.81841 12.9729 2.81841 14.3425 3.91406L22.4684 10.4141C22.7919 10.6728 22.8444 11.1453 22.5856 11.4688C22.327 11.7919 21.8553 11.8443 21.5319 11.5859L20.7497 10.9609V21.25H21.9997C22.4139 21.25 22.7497 21.5858 22.7497 22C22.7497 22.4142 22.4139 22.75 21.9997 22.75H1.99969C1.58562 22.7498 1.24969 22.4141 1.24969 22C1.24969 21.5859 1.58562 21.2502 1.99969 21.25H3.24969V10.9609L2.46844 11.5859C2.14511 11.8444 1.6735 11.7918 1.41473 11.4688C1.15598 11.1453 1.20847 10.6728 1.53192 10.4141L9.65692 3.91406ZM11.9509 13.25C11.2862 13.25 10.7133 13.2499 10.2546 13.3115C9.76294 13.3776 9.29112 13.5269 8.90887 13.9092C8.52679 14.2913 8.37732 14.7624 8.31122 15.2539C8.24955 15.7126 8.24966 16.2855 8.24969 16.9502V21.25H9.74969V17C9.74969 16.2717 9.75189 15.801 9.79852 15.4541C9.84222 15.1291 9.91236 15.0268 9.96942 14.9697C10.0265 14.9126 10.1286 14.8416 10.4538 14.7979C10.8006 14.7512 11.2716 14.75 11.9997 14.75C12.7277 14.75 13.1988 14.7513 13.5456 14.7979C13.8706 14.8415 13.9728 14.9127 14.03 14.9697C14.0871 15.0268 14.1581 15.1288 14.2018 15.4541C14.2485 15.801 14.2497 16.2717 14.2497 17V21.25H15.7497V16.8271C15.7495 16.2147 15.746 15.684 15.6882 15.2539C15.6221 14.7624 15.4727 14.2914 15.0905 13.9092C14.7083 13.527 14.2374 13.3776 13.7458 13.3115C13.2871 13.2499 12.7143 13.25 12.0495 13.25H11.9509ZM11.9997 6.75C10.4811 6.75017 9.24969 7.98132 9.24969 9.5C9.24969 11.0187 10.4811 12.2498 11.9997 12.25C13.5185 12.25 14.7497 11.0188 14.7497 9.5C14.7497 7.98122 13.5185 6.75 11.9997 6.75ZM11.9997 8.25C12.6901 8.25 13.2497 8.80964 13.2497 9.5C13.2497 10.1904 12.6901 10.75 11.9997 10.75C11.3095 10.7498 10.7497 10.1903 10.7497 9.5C10.7497 8.80975 11.3095 8.25017 11.9997 8.25ZM18.4997 3C18.7758 3 18.9997 3.22386 18.9997 3.5V6.35938L15.4997 3.55859V3.5C15.4997 3.22396 15.7237 3.00017 15.9997 3H18.4997Z" fill="#48465C"/>
</svg>
