<svg width="24" height="24" viewBox="0 0 24 24" fill="none" xmlns="http://www.w3.org/2000/svg">
<path d="M16.5 2.39329C16.6991 2.08908 17.0636 1.927 17.4102 2.03294C17.9861 2.20929 18.4454 2.47111 18.8281 2.86009C19.9997 4.05102 20 5.96802 20 9.8015V13.8679C20 17.7016 19.9997 19.6184 18.8281 20.8093C17.6566 22.0002 15.771 22.0007 12 22.0007C8.22894 22.0007 6.34347 22.0001 5.17188 20.8093C4.00031 19.6184 4 17.7016 4 13.8679V9.8015C4 5.96802 4.00033 4.05102 5.17188 2.86009C5.54764 2.4782 5.99729 2.21891 6.55859 2.04271C6.91177 1.93203 7.28565 2.09008 7.5 2.39329C7.55378 2.47529 7.60472 2.55336 7.65332 2.62767C8.28784 3.59765 8.50968 3.93559 9.02246 4.25951C9.13205 4.32871 9.24585 4.39074 9.36328 4.44505C9.95504 4.7186 10.637 4.71947 12 4.71947C13.363 4.71947 14.0449 4.7186 14.6367 4.44505C14.7542 4.39073 14.868 4.32873 14.9775 4.25951C15.4903 3.93559 15.7122 3.59764 16.3467 2.62767C16.3953 2.55337 16.4462 2.47529 16.5 2.39329ZM9 18.2292C8.58579 18.2292 8.25 18.5676 8.25 18.9841C8.25018 19.4005 8.5859 19.738 9 19.738H15C15.4141 19.738 15.7498 19.4005 15.75 18.9841C15.75 18.5676 15.4142 18.2292 15 18.2292H9Z" fill="#48465C"/>
</svg>
