<svg width="24" height="24" viewBox="0 0 24 24" fill="none" xmlns="http://www.w3.org/2000/svg">
<path fill-rule="evenodd" clip-rule="evenodd" d="M16.5 2.39243C16.6992 2.08831 17.0637 1.92708 17.4102 2.03306C17.9862 2.20944 18.4453 2.47113 18.8281 2.86021C19.9997 4.05116 20 5.96798 20 9.80161V13.868C20 17.7015 19.9997 19.6186 18.8281 20.8094C17.6566 22.0001 15.7709 21.9999 12 21.9999C8.22912 21.9999 6.34348 22.0001 5.17188 20.8094C4.00034 19.6186 4 17.7015 4 13.868V9.80161C4 5.96798 4.00031 4.05116 5.17188 2.86021C5.54768 2.47822 5.9972 2.21807 6.55859 2.04185C6.91165 1.9313 7.28566 2.08939 7.5 2.39243C7.5539 2.47462 7.60462 2.55333 7.65332 2.62778C8.28784 3.59776 8.50968 3.9357 9.02246 4.25962C9.13205 4.32882 9.24586 4.39086 9.36328 4.44517C9.95504 4.71872 10.637 4.71861 12 4.71861C13.363 4.71861 14.0449 4.71872 14.6367 4.44517C14.7542 4.39086 14.868 4.32883 14.9775 4.25962C15.4903 3.9357 15.7122 3.59775 16.3467 2.62778C16.3954 2.55333 16.4461 2.47461 16.5 2.39243ZM9 18.2293C8.58589 18.2293 8.25016 18.5669 8.25 18.9833C8.25 19.3998 8.58579 19.7372 9 19.7372H15C15.4142 19.7372 15.75 19.3998 15.75 18.9833C15.7498 18.5669 15.4141 18.2293 15 18.2293H9Z" fill="#48465C"/>
</svg>
