<svg width="24" height="24" viewBox="0 0 24 24" fill="none" xmlns="http://www.w3.org/2000/svg">
<path d="M17.0732 1.3808C18.7639 1.54709 20.0673 1.93568 21.0654 2.93353C21.9602 3.82834 22.3662 4.96926 22.5605 6.414C22.7502 7.82539 22.75 9.63427 22.75 11.9423V12.0576C22.75 12.3717 22.7495 12.6766 22.749 12.9726C22.7493 12.9815 22.75 12.9909 22.75 12.9999C22.75 13.0097 22.7494 13.0194 22.749 13.0292C22.7456 14.8811 22.7227 16.3789 22.5605 17.5859C22.3662 19.0306 21.9602 20.1706 21.0654 21.0654C20.1706 21.9601 19.0306 22.3662 17.5859 22.5605C16.1745 22.7501 14.3657 22.7499 12.0576 22.7499H11.9424C9.63433 22.7499 7.82544 22.7501 6.41406 22.5605C4.96933 22.3662 3.82938 21.9602 2.93457 21.0654C2.03976 20.1706 1.63369 19.0306 1.43945 17.5859C1.27721 16.3789 1.25438 14.8812 1.25098 13.0292C1.2506 13.0195 1.25 13.0098 1.25 12.9999V11.9423C1.24999 9.63427 1.24975 7.82539 1.43945 6.414C1.63369 4.96926 2.03976 3.82834 2.93457 2.93353C3.93271 1.93566 5.23613 1.54709 6.92676 1.3808C7.33893 1.34033 7.70555 1.64147 7.74609 2.05365C7.78647 2.46575 7.48537 2.83246 7.07324 2.87299C5.51394 3.02638 4.62984 3.36033 3.99512 3.99506C3.42552 4.56466 3.09865 5.33501 2.92676 6.61322C2.75198 7.9132 2.75 9.62172 2.75 11.9999C2.75 12.0841 2.74999 12.1675 2.75 12.2499H5.29492C6.06725 12.2491 6.6792 12.2488 7.22949 12.5019C7.77967 12.755 8.17768 13.2197 8.67969 13.8066C8.70831 13.84 8.73725 13.8739 8.7666 13.9081L9.37207 14.6152C10.0058 15.3544 10.1838 15.5374 10.3975 15.6357C10.6113 15.7341 10.8661 15.7499 11.8398 15.7499H12.1602C13.1339 15.7499 13.3887 15.7341 13.6025 15.6357C13.8162 15.5374 13.9943 15.3544 14.6279 14.6152L15.2334 13.9081C15.2628 13.8739 15.2916 13.84 15.3203 13.8066C15.8223 13.2197 16.2203 12.755 16.7705 12.5019C17.3207 12.2488 17.9328 12.2491 18.7051 12.2499H21.25V11.9999C21.25 9.62172 21.248 7.9132 21.0732 6.61322C20.9014 5.335 20.5745 4.56466 20.0049 3.99506C19.3702 3.36033 18.4861 3.02638 16.9268 2.87299C16.5147 2.83246 16.2136 2.46575 16.2539 2.05365C16.2944 1.64146 16.6611 1.34032 17.0732 1.3808ZM2.75391 13.7499C2.76335 15.2525 2.79817 16.4303 2.92676 17.3867C3.09865 18.6648 3.42552 19.4352 3.99512 20.0048C4.56471 20.5745 5.33509 20.9014 6.61328 21.0732C7.91326 21.248 9.62178 21.2499 12 21.2499C14.3782 21.2499 16.0867 21.248 17.3867 21.0732C18.6649 20.9014 19.4352 20.5745 20.0049 20.0048C20.5745 19.4352 20.9014 18.6648 21.0732 17.3867C21.2018 16.4303 21.2367 15.2525 21.2461 13.7499H18.8398C17.866 13.7499 17.6113 13.7658 17.3975 13.8642C17.1838 13.9625 17.0058 14.1454 16.3721 14.8847L15.7666 15.5908C15.7371 15.6251 15.7085 15.6597 15.6797 15.6933C15.1777 16.2802 14.7797 16.7449 14.2295 16.998C13.6793 17.251 13.0672 17.2507 12.2949 17.2499H11.7051C10.9328 17.2507 10.3207 17.251 9.77051 16.998C9.2203 16.7449 8.82234 16.2802 8.32031 15.6933C8.29158 15.6597 8.26286 15.6251 8.2334 15.5908L7.62793 14.8847C6.99423 14.1455 6.81629 13.9625 6.60254 13.8642C6.38878 13.7658 6.13397 13.7499 5.16016 13.7499H2.75391ZM11.4697 1.46967C11.7626 1.17678 12.2374 1.17678 12.5303 1.46967L15.5303 4.46967C15.8231 4.76256 15.8232 5.23734 15.5303 5.53021C15.2374 5.82308 14.7626 5.82308 14.4697 5.53021L12.75 3.81049V9.99994C12.75 10.4141 12.4142 10.7499 12 10.7499C11.5858 10.7499 11.25 10.4141 11.25 9.99994V3.81049L9.53027 5.53021C9.23739 5.82306 8.76261 5.82306 8.46973 5.53021C8.17685 5.23733 8.17687 4.76256 8.46973 4.46967L11.4697 1.46967Z" fill="#48465C"/>
</svg>
