<svg width="24" height="24" viewBox="0 0 24 24" fill="none" xmlns="http://www.w3.org/2000/svg">
<path fill-rule="evenodd" clip-rule="evenodd" d="M9.20976 5.0234C11.907 2.32619 16.2801 2.32619 18.9773 5.0234C21.6743 7.72063 21.6745 12.0939 18.9773 14.791C17.1863 16.5818 14.6563 17.1831 12.3689 16.5957C12.0001 16.5009 11.6012 16.5852 11.3318 16.8545L9.39043 18.7959L7.63847 17.0634C7.34397 16.7721 6.86921 16.7748 6.57793 17.0693C6.28666 17.3638 6.28929 17.8386 6.58379 18.1298L8.32988 19.8564L7.61992 20.5664C7.30207 20.8842 6.8567 21.0408 6.40996 20.9912L4.32109 20.7587C4.0985 20.734 3.89063 20.6348 3.73222 20.4765L3.52422 20.2675C3.36598 20.1093 3.26582 19.9021 3.24101 19.6796L3.00957 17.5908C2.95993 17.144 3.11561 16.6988 3.4334 16.3808L7.14531 12.6689C7.41465 12.3995 7.49884 11.9997 7.4041 11.6308C6.81691 9.34355 7.41902 6.81419 9.20976 5.0234ZM15.4139 8.5859C14.6328 7.80509 13.3667 7.80493 12.5857 8.5859C11.8047 9.36686 11.8049 10.633 12.5857 11.414C13.3667 12.1951 14.6329 12.1951 15.4139 11.414C16.195 10.633 16.195 9.36695 15.4139 8.5859Z" fill="#48465C"/>
</svg>
