<svg width="24" height="24" viewBox="0 0 24 24" fill="none" xmlns="http://www.w3.org/2000/svg">
<path d="M9.2099 5.02284C11.9071 2.32577 16.2803 2.32567 18.9775 5.02284C21.6745 7.72003 21.6745 12.0933 18.9775 14.7904C17.1865 16.5813 14.6564 17.1834 12.3691 16.5961C12.0002 16.5013 11.6014 16.5847 11.332 16.8539L9.39056 18.7953L7.63861 17.0629C7.34418 16.7717 6.86936 16.7745 6.57806 17.0687C6.28678 17.3632 6.28942 17.8381 6.58392 18.1293L8.33001 19.8568L7.62005 20.5668C7.30224 20.8846 6.85679 21.0402 6.41009 20.9906L4.32122 20.7592C4.09859 20.7344 3.89078 20.6343 3.73236 20.476L3.52435 20.268C3.36596 20.1096 3.26591 19.9017 3.24115 19.6791L3.00872 17.5902C2.95913 17.1434 3.11566 16.6982 3.43353 16.3803L7.14544 12.6683C7.41474 12.399 7.49891 12.0001 7.40423 11.6312C6.81681 9.3438 7.41895 6.81378 9.2099 5.02284ZM15.414 8.58534C14.633 7.80467 13.3668 7.80461 12.5859 8.58534C11.8048 9.36639 11.8048 10.6334 12.5859 11.4144C13.3668 12.1953 14.633 12.1952 15.414 11.4144C16.1951 10.6334 16.1951 9.36639 15.414 8.58534Z" fill="#48465C"/>
</svg>
