<svg width="24" height="24" viewBox="0 0 24 24" fill="none" xmlns="http://www.w3.org/2000/svg">
<path d="M8.67878 4.4924C11.6688 1.50241 16.5168 1.50265 19.5069 4.4924C22.497 7.48251 22.497 12.3304 19.5069 15.3205C17.521 17.3064 14.7162 17.973 12.1827 17.3225C12.0328 17.284 11.9182 17.3292 11.8624 17.385L8.14948 21.0969C7.67059 21.5758 7.00026 21.8112 6.32722 21.7365L4.23835 21.5041C3.84642 21.4605 3.48107 21.2849 3.20222 21.0061L2.99323 20.7981C2.71455 20.5193 2.53972 20.1537 2.49616 19.7619L2.26374 17.6731C2.189 16.9998 2.42442 16.3288 2.90339 15.8498L6.61531 12.1379C6.67125 12.0819 6.71618 11.967 6.67781 11.8176C6.02726 9.284 6.69284 6.47842 8.67878 4.4924ZM18.4464 5.55295C16.0421 3.14915 12.1446 3.14915 9.74031 5.55295C8.14452 7.14875 7.60677 9.40327 8.13093 11.4446C8.28198 12.0328 8.15838 12.7158 7.67585 13.1985L3.96394 16.9113C3.80723 17.0681 3.7295 17.2877 3.75398 17.508L3.9864 19.5959C3.99233 19.6493 4.01676 19.6995 4.05476 19.7375L4.26277 19.9455C4.30068 19.9834 4.35012 20.0078 4.40339 20.0139L6.49226 20.2453C6.7126 20.2698 6.93214 20.193 7.08894 20.0363L7.79597 19.3293L6.58308 18.1291C6.28897 17.8379 6.28612 17.363 6.57722 17.0686C6.8685 16.7741 7.34424 16.7714 7.63874 17.0627L8.85749 18.2688L10.8018 16.3235C11.2847 15.8408 11.968 15.7184 12.5557 15.8694C14.5969 16.3933 16.8507 15.8556 18.4464 14.26C20.8507 11.8556 20.8507 7.95727 18.4464 5.55295ZM12.0557 8.05588C13.1296 6.98193 14.8705 6.98193 15.9444 8.05588C17.0183 9.12983 17.0184 10.8707 15.9444 11.9446C14.8705 13.0185 13.1296 13.0184 12.0557 11.9446C10.9817 10.8707 10.9818 9.12982 12.0557 8.05588ZM14.8839 9.11643C14.3957 8.62827 13.6045 8.62827 13.1163 9.11643C12.6282 9.60458 12.6282 10.3958 13.1163 10.884C13.6045 11.372 14.3957 11.3721 14.8839 10.884C15.3719 10.3958 15.3719 9.60458 14.8839 9.11643Z" fill="#48465C"/>
</svg>
