<svg width="24" height="24" viewBox="0 0 24 24" fill="none" xmlns="http://www.w3.org/2000/svg">
<path d="M12.0068 2C14.4299 2 15.6412 2.00028 16.5889 2.56641C16.8636 2.73052 17.1178 2.92671 17.3457 3.15137C18.1318 3.9263 18.4361 5.09907 19.0449 7.44434L19.1289 7.76855C19.9567 10.9572 20.3709 12.5519 19.6191 13.6719C19.5441 13.7837 19.4614 13.8905 19.3721 13.9912C19.0863 14.3132 18.7239 14.5324 18.2559 14.6816V17C18.2559 17.4142 17.9201 17.75 17.5059 17.75C17.0916 17.7499 16.7559 17.4141 16.7559 17V15C16.7559 14.9783 16.757 14.9567 16.7588 14.9355C15.9104 15.0003 14.8553 15 13.5361 15H12.7559V21.25H15.0059C15.4201 21.25 15.7559 21.5858 15.7559 22C15.7559 22.4142 15.4201 22.75 15.0059 22.75H9.00586C8.59172 22.7499 8.25586 22.4141 8.25586 22C8.25586 21.5859 8.59172 21.2501 9.00586 21.25H11.2559V15H10.4775C7.18342 15 5.53587 15.0002 4.64062 13.9912C4.55133 13.8905 4.46853 13.7837 4.39355 13.6719C3.64195 12.5519 4.05604 10.957 4.88379 7.76855L4.96777 7.44434C5.57666 5.09897 5.88186 3.92632 6.66796 3.15137C6.89568 2.92691 7.14936 2.73043 7.42382 2.56641C8.37146 2.00025 9.58367 2 12.0068 2Z" fill="#48465C"/>
</svg>
