<svg width="24" height="24" viewBox="0 0 24 24" fill="none" xmlns="http://www.w3.org/2000/svg">
<path d="M12.039 1.25C13.2177 1.24999 14.1573 1.24987 14.9179 1.32422C15.7012 1.40077 16.3623 1.56088 16.9668 1.92188C17.2931 2.11678 17.5956 2.35041 17.8662 2.61719C18.3678 3.11167 18.6889 3.71204 18.9599 4.45117C19.223 5.16881 19.4587 6.07807 19.7549 7.21875L19.8633 7.63574C20.2649 9.18285 20.586 10.4189 20.7051 11.4063C20.8275 12.4211 20.7563 13.3137 20.2353 14.0898C20.1416 14.2295 20.0383 14.3625 19.9267 14.4883C19.4783 14.9936 18.9121 15.2867 18.25 15.4619V17C18.25 17.4142 17.9142 17.75 17.5 17.75C17.0859 17.7499 16.75 17.4141 16.75 17V15.6875C15.881 15.7502 14.8314 15.75 13.5869 15.75H12.75V21.25H15C15.4142 21.25 15.75 21.5858 15.75 22C15.75 22.4142 15.4142 22.75 15 22.75H8.99998C8.58587 22.7499 8.24998 22.4141 8.24998 22C8.24998 21.5859 8.58587 21.2501 8.99998 21.25H11.25V15.75H10.414C8.81557 15.75 7.53832 15.7501 6.55271 15.6172C5.53975 15.4806 4.69351 15.1875 4.07322 14.4883C3.96167 14.3625 3.85832 14.2295 3.76463 14.0898C3.2438 13.3138 3.17355 12.421 3.29588 11.4063C3.41492 10.4189 3.73502 9.18284 4.1367 7.63574L4.2451 7.21875C4.54126 6.07797 4.77789 5.16884 5.04099 4.45117C5.31201 3.71195 5.63312 3.1117 6.13474 2.61719C6.40534 2.35045 6.707 2.11675 7.03318 1.92188C7.63782 1.5607 8.29947 1.40077 9.08299 1.32422C9.84374 1.24989 10.7833 1.24999 11.9619 1.25H12.039ZM12 2.75C10.7738 2.75 9.90782 2.75101 9.22849 2.81738C8.56382 2.88235 8.1456 3.00515 7.80271 3.20996C7.5795 3.34331 7.37265 3.50302 7.18748 3.68555C6.90311 3.96594 6.67907 4.3399 6.4492 4.9668C6.21423 5.60767 5.9956 6.44597 5.68748 7.63281L5.60349 7.95703C5.18411 9.57245 4.89063 10.7108 4.78513 11.5859C4.68152 12.4454 4.77983 12.9099 5.01072 13.2539C5.06694 13.3376 5.12835 13.4177 5.19529 13.4932C5.47019 13.8031 5.8951 14.0152 6.75291 14.1309C7.62645 14.2487 8.80187 14.25 10.4707 14.25H13.5293C15.1981 14.25 16.3735 14.2486 17.247 14.1309C18.1048 14.0152 18.5297 13.803 18.8047 13.4932C18.8716 13.4177 18.9339 13.3376 18.9902 13.2539C19.2211 12.9099 19.3194 12.4453 19.2158 11.5859C19.1103 10.7108 18.8168 9.57245 18.3974 7.95703L18.3125 7.63281C18.0044 6.44602 17.7857 5.60765 17.5508 4.9668C17.3209 4.33989 17.0969 3.96593 16.8125 3.68555C16.6274 3.50312 16.4213 3.34326 16.1982 3.20996C15.8553 3.00507 15.4364 2.88235 14.7715 2.81738C14.0921 2.75103 13.2261 2.75 12 2.75Z" fill="#48465C"/>
</svg>
