<svg width="24" height="24" viewBox="0 0 24 24" fill="none" xmlns="http://www.w3.org/2000/svg">
<path fill-rule="evenodd" clip-rule="evenodd" d="M15.6993 3.25C16.5976 3.24997 17.3467 3.25014 17.9415 3.33008C18.5693 3.41449 19.1364 3.6002 19.5919 4.05567C20.047 4.511 20.233 5.07754 20.3174 5.70508C20.3974 6.29987 20.3976 7.04976 20.3975 7.94824V15.2324L21.9092 16.793L21.9131 16.7969L21.921 16.8037L21.9288 16.8115L21.9337 16.8174L21.9444 16.8281L21.9542 16.8398L21.959 16.8438L21.9669 16.8525L21.9756 16.8633L21.9844 16.873L22.1329 17.0586C22.4459 17.4792 22.7046 18.0426 22.7442 18.6055L22.7452 18.6094C22.7463 18.6195 22.7468 18.6281 22.7471 18.6328L22.7491 18.6582V18.7734C22.7493 18.9042 22.7493 19.0933 22.7442 19.1738C22.6567 20.5557 21.5557 21.6566 20.1739 21.7441C20.0868 21.7496 19.9893 21.75 19.8633 21.75H4.13678C4.01082 21.75 3.91337 21.7496 3.82623 21.7441C2.44438 21.6567 1.34345 20.5557 1.25592 19.1738C1.25086 19.0939 1.25083 18.9069 1.25104 18.7764V18.6582L1.25299 18.6328C1.25336 18.6281 1.25385 18.6195 1.25495 18.6094L1.25592 18.6055C1.29558 18.0427 1.55418 17.4792 1.86725 17.0586L2.01569 16.873L2.02448 16.8633L2.03327 16.8525L2.04108 16.8438L2.04596 16.8398L2.05573 16.8281L2.06647 16.8174L2.07135 16.8115L2.07916 16.8037L2.08698 16.7969L2.08991 16.793L3.6026 15.2324V7.94824C3.60257 7.04976 3.60271 6.29987 3.68268 5.70508C3.76709 5.07754 3.95303 4.511 4.40827 4.05567C4.86374 3.6002 5.43087 3.41449 6.05866 3.33008C6.6534 3.25014 7.4025 3.24997 8.30084 3.25H15.6993ZM3.15631 17.8486C2.92854 18.1026 2.76255 18.4755 2.75104 18.7266V18.9492C2.75116 18.9862 2.75162 19.0183 2.75202 19.0439C2.75232 19.0636 2.75287 19.0745 2.75299 19.0781C2.79268 19.7062 3.29282 20.2072 3.92096 20.2471C3.95438 20.2492 4.00054 20.25 4.1612 20.25H19.8389C19.9995 20.25 20.0458 20.2492 20.0792 20.2471C20.7072 20.2072 21.2073 19.7071 21.2471 19.0791C21.2472 19.0769 21.2478 19.0663 21.2481 19.0439C21.2485 19.0183 21.249 18.9862 21.2491 18.9492V18.7266C21.2375 18.4756 21.0716 18.1026 20.8438 17.8486L19.3292 16.2861H4.67096L3.15631 17.8486ZM14.5001 17.75C14.9143 17.75 15.2501 18.0858 15.2501 18.5C15.2501 18.9142 14.9143 19.25 14.5001 19.25H9.50006C9.08585 19.25 8.75006 18.9142 8.75006 18.5C8.75006 18.0858 9.08585 17.75 9.50006 17.75H14.5001ZM2.28424 18.0264C2.27841 18.0235 2.27218 18.0201 2.26666 18.0176C2.26427 18.0169 2.26134 18.0163 2.25885 18.0156C2.26715 18.019 2.27603 18.0229 2.28424 18.0264ZM21.7335 18.0176C21.7279 18.0202 21.7218 18.0234 21.7159 18.0264C21.7242 18.0228 21.733 18.0191 21.7413 18.0156C21.7388 18.0163 21.7359 18.0168 21.7335 18.0176ZM2.30866 18.0166C2.3157 18.0192 2.32334 18.022 2.33112 18.0244C2.32075 18.0204 2.31019 18.016 2.29987 18.0117C2.30282 18.0134 2.30579 18.015 2.30866 18.0166ZM21.67 18.0234C21.6775 18.0211 21.6848 18.0191 21.6915 18.0166C21.6943 18.015 21.6974 18.0134 21.7003 18.0117C21.6903 18.0159 21.68 18.0196 21.67 18.0234ZM8.3526 4.75C7.38912 4.75 6.74177 4.75154 6.25885 4.81641C5.79738 4.87845 5.59913 4.98589 5.46881 5.11621C5.33859 5.24652 5.232 5.44416 5.16998 5.90527C5.10504 6.38831 5.1026 7.03599 5.1026 8V14.7861H18.8975V8C18.8975 7.03599 18.895 6.38831 18.8301 5.90527C18.7682 5.4442 18.6615 5.24652 18.5313 5.11621C18.401 4.98589 18.2028 4.87845 17.7413 4.81641C17.2584 4.75153 16.611 4.75 15.6475 4.75H8.3526ZM12.0001 6C12.4143 6 12.7501 6.33579 12.7501 6.75C12.7501 7.16422 12.4143 7.5 12.0001 7.5C11.5859 7.49997 11.2501 7.1642 11.2501 6.75C11.2501 6.33581 11.5859 6.00004 12.0001 6Z" fill="#48465C"/>
</svg>
