<svg width="24" height="24" viewBox="0 0 24 24" fill="none" xmlns="http://www.w3.org/2000/svg">
<path fill-rule="evenodd" clip-rule="evenodd" d="M14.8271 7.28809C16.19 7.28807 17.2834 7.28754 18.1318 7.40821C19.0095 7.53305 19.7405 7.80096 20.2841 8.42871C20.8275 9.05639 20.9935 9.8245 20.9999 10.7207C21.0061 11.587 20.8617 12.6836 20.6816 14.0498L20.3164 16.8213C20.1756 17.8892 20.0609 18.7537 19.8837 19.4307C19.6993 20.1353 19.4269 20.7196 18.916 21.1719C18.405 21.6242 17.7969 21.8203 17.082 21.9121C16.3951 22.0002 15.5322 22 14.4667 22H9.53315C8.46791 22 7.6057 22.0002 6.91889 21.9121C6.20385 21.8203 5.59487 21.6243 5.08393 21.1719C4.57312 20.7196 4.30057 20.1352 4.11616 19.4307C3.93904 18.7537 3.82529 17.8891 3.68451 16.8213L3.31928 14.0498C3.13913 12.6836 2.99379 11.587 2.99994 10.7207C3.00635 9.82459 3.17246 9.05636 3.71576 8.42871C4.2592 7.80102 4.99052 7.53307 5.86811 7.40821C6.71652 7.28754 7.81082 7.28807 9.17377 7.28809H14.8271ZM9.22553 8.625C7.79853 8.625 6.79819 8.62639 6.05268 8.73243C5.32577 8.83581 4.95774 9.02443 4.71088 9.30957C4.46409 9.59467 4.32849 9.98837 4.32319 10.7305C4.31779 11.4917 4.44809 12.4946 4.63666 13.9248L4.68647 14.3047L5.05854 14.0322C6.0174 13.33 7.43381 13.3648 8.34565 14.1279L11.7304 16.9609C12.0503 17.2284 12.6013 17.2779 12.999 17.0439L13.2343 16.9063C14.3596 16.2443 15.8679 16.3134 16.9062 17.0957L18.7382 18.4756C18.8285 17.9802 18.909 17.3711 19.0107 16.6006L19.3632 13.9248C19.5518 12.4946 19.6831 11.4917 19.6777 10.7305C19.6723 9.98831 19.5359 9.59468 19.289 9.30957C19.0422 9.02449 18.674 8.83579 17.9472 8.73243C17.2018 8.62645 16.2019 8.625 14.7753 8.625H9.22553ZM15.9677 10.6309C16.6982 10.6309 17.291 11.2301 17.291 11.9688C17.2908 12.7072 16.6981 13.3057 15.9677 13.3057C15.2374 13.3055 14.6456 12.7071 14.6455 11.9688C14.6455 11.2301 15.2373 10.631 15.9677 10.6309ZM17.2753 4.5C18.5269 4.5 19.553 5.34008 19.8955 6.45411C19.9025 6.47713 19.9095 6.50019 19.916 6.52344C19.5578 6.40296 19.185 6.32427 18.8076 6.27051C17.8353 6.13202 16.606 6.13273 15.1787 6.13282H8.97651C7.5491 6.13273 6.31992 6.13202 5.3476 6.27051C4.97025 6.32427 4.59739 6.40296 4.2392 6.52344C4.2457 6.5002 4.25264 6.47713 4.25971 6.45411C4.60219 5.34008 5.62826 4.5 6.87983 4.5H17.2753ZM15.1415 2C15.3505 1.99994 15.5112 2.0004 15.6513 2.01563C16.6482 2.12412 17.4644 2.78951 17.8105 3.68653H6.19037C6.53652 2.78951 7.35264 2.12397 8.34955 2.01563C8.4897 2.00043 8.65027 1.99994 8.85932 2H15.1415Z" fill="#48465C"/>
</svg>
