<svg width="24" height="24" viewBox="0 0 24 24" fill="none" xmlns="http://www.w3.org/2000/svg">
<path fill-rule="evenodd" clip-rule="evenodd" d="M15.3008 1.25001C15.5203 1.24995 15.6887 1.24987 15.8359 1.26563C17.1901 1.41096 18.2271 2.52309 18.29 3.87012C19.5325 4.24115 20.4023 5.42469 20.3418 6.75684C20.7403 6.9366 21.0936 7.1855 21.3955 7.53028C22.0115 8.23423 22.1998 9.09563 22.207 10.1006C22.214 11.0723 22.05 12.3018 21.8457 13.834L21.4306 16.9424C21.2709 18.1402 21.1424 19.11 20.9414 19.8691C20.7322 20.6592 20.423 21.314 19.8437 21.8213C19.2643 22.3285 18.5744 22.5485 17.7636 22.6514C16.9846 22.7502 16.0061 22.75 14.7978 22.75H9.20309C7.99476 22.75 7.01629 22.7501 6.23727 22.6514C5.42634 22.5485 4.73568 22.3286 4.15622 21.8213C3.57696 21.314 3.26772 20.6592 3.05856 19.8691C2.85763 19.11 2.72899 18.1402 2.56931 16.9424L2.15427 13.834C1.94996 12.3018 1.78597 11.0723 1.79294 10.1006C1.80016 9.09546 1.98914 8.2343 2.60544 7.53028C2.9073 7.1855 3.25974 6.93659 3.65817 6.75684C3.59767 5.42479 4.46755 4.24123 5.70993 3.87012C5.77281 2.52307 6.80986 1.41096 8.16403 1.26563C8.31124 1.24986 8.47964 1.24995 8.69919 1.25001H15.3008ZM6.89938 15.0772C6.40139 14.665 5.55003 14.6359 5.00681 15.0293L3.93161 15.8086L4.0488 16.6943C4.21676 17.954 4.33502 18.829 4.50876 19.4854C4.67708 20.1211 4.87554 20.4579 5.1445 20.6934C5.41347 20.9287 5.77339 21.0803 6.42575 21.1631C7.09934 21.2486 7.98199 21.25 9.2529 21.25H14.747C16.018 21.25 16.9005 21.2486 17.5742 21.1631C18.2265 21.0803 18.5865 20.9287 18.8554 20.6934C18.9716 20.5917 19.0749 20.4707 19.1679 20.3154L16.6679 18.4531C15.9854 17.9447 14.9256 17.8846 14.1543 18.333L13.8877 18.4883C12.9159 19.0536 11.6043 18.9715 10.7373 18.2539L6.89938 15.0772ZM8.85349 7.75001C7.23511 7.75001 6.10034 7.75219 5.25485 7.8711C4.43067 7.98706 4.01329 8.19786 3.73337 8.51759C3.45343 8.83735 3.29892 9.27894 3.29294 10.1113C3.28681 10.9651 3.43549 12.0901 3.64938 13.6943L3.70602 14.1191L4.12692 13.8145C5.21427 13.027 6.82125 13.0652 7.85544 13.9209L11.6943 17.0977C12.0569 17.3978 12.6817 17.4546 13.1328 17.1924L13.3994 17.0371C14.6755 16.2948 16.386 16.3729 17.5634 17.25L19.6416 18.7979C19.744 18.2422 19.8359 17.5589 19.9511 16.6943L20.3506 13.6943C20.5645 12.0901 20.7131 10.9651 20.707 10.1113C20.701 9.2789 20.5466 8.83736 20.2666 8.51759C19.9867 8.19787 19.5694 7.98704 18.7451 7.8711C17.8997 7.7522 16.7656 7.75001 15.1474 7.75001H8.85349ZM16.5 9.25001C17.7427 9.25001 18.75 10.2574 18.75 11.5C18.75 12.7427 17.7427 13.75 16.5 13.75C15.2574 13.7499 14.25 12.7427 14.25 11.5C14.25 10.2575 15.2574 9.25008 16.5 9.25001ZM16.5 10.75C16.0858 10.7501 15.75 11.0859 15.75 11.5C15.75 11.9142 16.0858 12.2499 16.5 12.25C16.9142 12.25 17.25 11.9142 17.25 11.5C17.25 11.0858 16.9142 10.75 16.5 10.75ZM6.53806 5.25001C5.85482 5.25008 5.30277 5.74062 5.18063 6.3672C6.12289 6.24974 7.31959 6.24999 8.79392 6.25001H15.206C16.6805 6.24999 17.877 6.24974 18.8193 6.3672C18.6971 5.7406 18.1452 5.25001 17.4619 5.25001H6.53806ZM8.32419 2.75684C7.77399 2.81589 7.33892 3.22635 7.23239 3.75001H16.7675C16.6611 3.22648 16.2267 2.81604 15.6767 2.75684C15.6204 2.7508 15.5397 2.75001 15.2588 2.75001H8.74118C8.46097 2.75001 8.38045 2.75084 8.32419 2.75684Z" fill="#48465C"/>
</svg>
