<svg width="24" height="24" viewBox="0 0 24 24" fill="none" xmlns="http://www.w3.org/2000/svg">
<path d="M15.3272 7.542C18.702 7.542 20.39 7.54247 21.3379 8.5293C22.2852 9.51613 22.0622 11.0411 21.6162 14.0898L21.1934 16.9814C20.8436 19.3725 20.6687 20.5682 19.7715 21.2842C18.8743 22.0001 17.5508 22 14.9043 22H9.09475C6.44882 22 5.12568 21.9999 4.22854 21.2842C3.33141 20.5682 3.1564 19.3725 2.80667 16.9814L2.38382 14.0898C1.93782 11.0408 1.71456 9.51614 2.66214 8.5293C3.60996 7.5425 5.2973 7.542 8.6719 7.542H15.3272ZM12 9.75C11.5858 9.75 11.25 10.0858 11.25 10.5V14.8779C11.0155 14.7951 10.763 14.75 10.5 14.75C9.25739 14.75 8.25003 15.7574 8.25003 17C8.25005 18.2426 9.2574 19.25 10.5 19.25C11.7425 19.2499 12.75 18.2425 12.75 17V13.3193C13.4202 13.863 14.2617 14.25 15 14.25C15.4141 14.2499 15.75 13.9141 15.75 13.5C15.75 13.0859 15.4141 12.7501 15 12.75C14.6946 12.75 14.114 12.5317 13.583 12.0606C13.065 11.6009 12.75 11.0386 12.75 10.5C12.75 10.0859 12.4141 9.75011 12 9.75ZM10.5 16.25C10.9141 16.2501 11.25 16.5859 11.25 17C11.25 17.4141 10.9141 17.7499 10.5 17.75C10.0858 17.75 9.75003 17.4142 9.75003 17C9.75003 16.5858 10.0858 16.25 10.5 16.25ZM17.8614 4.72364C19.2519 4.72364 20.3919 5.56284 20.7725 6.67676C20.7805 6.69998 20.7887 6.72362 20.7959 6.74707C20.3978 6.6265 19.9829 6.54791 19.5635 6.49414C18.4832 6.35566 17.118 6.35538 15.5323 6.35547H8.63967C7.05386 6.35538 5.68873 6.35568 4.60842 6.49414C4.18896 6.54791 3.77415 6.6265 3.376 6.74707C3.38327 6.72362 3.39053 6.69998 3.39846 6.67676C3.77901 5.56274 4.91996 4.72364 6.31057 4.72364H17.8614ZM15.4893 2C15.7218 1.99994 15.9009 2.00039 16.0567 2.01563C17.1641 2.12413 18.0706 2.78961 18.4551 3.68653H5.54397C5.92853 2.78943 6.83565 2.12399 7.94339 2.01563C8.09913 2.00041 8.27743 1.99994 8.50979 2H15.4893Z" fill="#48465C"/>
</svg>
