<svg width="24" height="24" viewBox="0 0 24 24" fill="none" xmlns="http://www.w3.org/2000/svg">
<path fill-rule="evenodd" clip-rule="evenodd" d="M15.3272 7.542C18.702 7.542 20.3901 7.54247 21.338 8.5293C22.2853 9.51614 22.0622 11.041 21.6163 14.0898L21.1934 16.9814C20.8437 19.3725 20.6687 20.5682 19.7716 21.2842C18.8744 22.0001 17.5509 22 14.9044 22H9.09481C6.44888 22 5.12574 21.9999 4.2286 21.2842C3.33147 20.5682 3.15647 19.3725 2.80673 16.9814L2.38388 14.0898C1.93788 11.0408 1.71462 9.51614 2.6622 8.5293C3.61002 7.5425 5.29736 7.542 8.67196 7.542H15.3272ZM8.8331 17.25C8.37294 17.2501 8.00012 17.5859 8.00009 18C8.00009 18.4143 8.37292 18.7499 8.8331 18.75H15.1661C15.6263 18.75 16.0001 18.4143 16.0001 18C16.0001 17.5858 15.6263 17.25 15.1661 17.25H8.8331ZM17.8614 4.72364C19.2519 4.72364 20.392 5.56284 20.7725 6.67676C20.7805 6.69998 20.7888 6.72362 20.796 6.74707C20.3979 6.6265 19.983 6.54791 19.5636 6.49414C18.4833 6.35566 17.1181 6.35538 15.5323 6.35547H8.63974C7.05392 6.35538 5.68879 6.35568 4.60849 6.49414C4.18903 6.54791 3.77421 6.6265 3.37606 6.74707C3.38333 6.72362 3.39059 6.69998 3.39852 6.67676C3.77907 5.56274 4.92002 4.72364 6.31063 4.72364H17.8614ZM15.4903 2C15.7226 1.99994 15.901 2.0004 16.0567 2.01563C17.1642 2.12409 18.0706 2.7896 18.4552 3.68653H5.54403C5.92858 2.78941 6.83569 2.12399 7.94345 2.01563C8.09922 2.0004 8.27743 1.99994 8.50985 2H15.4903Z" fill="#48465C"/>
</svg>
