<svg width="24" height="24" viewBox="0 0 24 24" fill="none" xmlns="http://www.w3.org/2000/svg">
<path d="M15.3008 1.25001C15.5203 1.24995 15.6888 1.24987 15.8359 1.26563C17.1901 1.41096 18.2271 2.52309 18.29 3.87012C19.5325 4.24115 20.4024 5.42469 20.3418 6.75684C20.7403 6.9366 21.0936 7.1855 21.3955 7.53028C22.0116 8.23423 22.1998 9.09563 22.207 10.1006C22.214 11.0723 22.05 12.3018 21.8457 13.834L21.4307 16.9424C21.271 18.1402 21.1424 19.11 20.9414 19.8691C20.7322 20.6592 20.423 21.314 19.8438 21.8213C19.2644 22.3285 18.5744 22.5485 17.7637 22.6514C16.9846 22.7502 16.0061 22.75 14.7979 22.75H9.20313C7.99479 22.75 7.01633 22.7501 6.23731 22.6514C5.42638 22.5485 4.73571 22.3286 4.15625 21.8213C3.57699 21.314 3.26775 20.6592 3.05859 19.8691C2.85766 19.11 2.72902 18.1402 2.56934 16.9424L2.1543 13.834C1.94999 12.3018 1.786 11.0723 1.79297 10.1006C1.80019 9.09546 1.98917 8.2343 2.60547 7.53028C2.90733 7.1855 3.25977 6.93659 3.6582 6.75684C3.5977 5.42479 4.46758 4.24123 5.70996 3.87012C5.77284 2.52307 6.80989 1.41096 8.16406 1.26563C8.31127 1.24986 8.47967 1.24995 8.69922 1.25001H15.3008ZM6.89941 15.0772C6.40142 14.665 5.55006 14.6359 5.00684 15.0293L3.93164 15.8086L4.04883 16.6943C4.21679 17.954 4.33505 18.829 4.50879 19.4854C4.67711 20.1211 4.87557 20.4579 5.14453 20.6934C5.4135 20.9287 5.77342 21.0803 6.42578 21.1631C7.09937 21.2486 7.98202 21.25 9.25293 21.25H14.7471C16.018 21.25 16.9006 21.2486 17.5742 21.1631C18.2265 21.0803 18.5865 20.9287 18.8555 20.6934C18.9717 20.5917 19.0749 20.4707 19.168 20.3154L16.668 18.4531C15.9855 17.9447 14.9257 17.8846 14.1543 18.333L13.8877 18.4883C12.9159 19.0536 11.6043 18.9715 10.7373 18.2539L6.89941 15.0772ZM8.85352 7.75001C7.23514 7.75001 6.10037 7.75219 5.25488 7.8711C4.4307 7.98706 4.01332 8.19786 3.7334 8.51759C3.45346 8.83735 3.29895 9.27894 3.29297 10.1113C3.28684 10.9651 3.43552 12.0901 3.64941 13.6943L3.70606 14.1191L4.12695 13.8145C5.2143 13.027 6.82128 13.0652 7.85547 13.9209L11.6943 17.0977C12.057 17.3978 12.6817 17.4546 13.1328 17.1924L13.3994 17.0371C14.6755 16.2948 16.386 16.3729 17.5635 17.25L19.6416 18.7979C19.744 18.2422 19.8359 17.5589 19.9512 16.6943L20.3506 13.6943C20.5645 12.0901 20.7131 10.9651 20.707 10.1113C20.701 9.2789 20.5466 8.83736 20.2666 8.51759C19.9867 8.19787 19.5694 7.98704 18.7451 7.8711C17.8997 7.7522 16.7656 7.75001 15.1475 7.75001H8.85352ZM16.5 9.25001C17.7427 9.25001 18.75 10.2574 18.75 11.5C18.75 12.7427 17.7427 13.75 16.5 13.75C15.2575 13.7499 14.25 12.7427 14.25 11.5C14.25 10.2575 15.2575 9.25008 16.5 9.25001ZM16.5 10.75C16.0859 10.7501 15.75 11.0859 15.75 11.5C15.75 11.9142 16.0859 12.2499 16.5 12.25C16.9142 12.25 17.25 11.9142 17.25 11.5C17.25 11.0858 16.9142 10.75 16.5 10.75ZM6.53809 5.25001C5.85485 5.25008 5.30281 5.74062 5.18066 6.3672C6.12293 6.24975 7.31962 6.24999 8.79395 6.25001H15.2061C16.6805 6.24999 17.8771 6.24974 18.8193 6.3672C18.6971 5.7406 18.1452 5.25001 17.4619 5.25001H6.53809ZM8.32422 2.75684C7.77402 2.81589 7.33896 3.22635 7.23242 3.75001H16.7676C16.6611 3.22648 16.2268 2.81604 15.6768 2.75684C15.6205 2.7508 15.5397 2.75001 15.2588 2.75001H8.74121C8.461 2.75001 8.38048 2.75084 8.32422 2.75684Z" fill="#48465C"/>
</svg>
