<svg width="24" height="24" viewBox="0 0 24 24" fill="none" xmlns="http://www.w3.org/2000/svg">
<path d="M14.8272 7.28809C16.19 7.28807 17.2835 7.28754 18.1318 7.40821C19.0096 7.53305 19.7406 7.80096 20.2842 8.42871C20.8276 9.05639 20.9936 9.8245 21 10.7207C21.0062 11.587 20.8617 12.6836 20.6816 14.0498L20.3164 16.8213C20.1756 17.8892 20.0609 18.7537 19.8838 19.4307C19.6994 20.1353 19.4269 20.7196 18.916 21.1719C18.4051 21.6242 17.7969 21.8203 17.082 21.9121C16.3951 22.0002 15.5323 22 14.4668 22H9.53321C8.46797 22 7.60576 22.0002 6.91895 21.9121C6.20391 21.8203 5.59493 21.6243 5.08399 21.1719C4.57318 20.7196 4.30063 20.1352 4.11622 19.4307C3.9391 18.7537 3.82535 17.8891 3.68458 16.8213L3.31934 14.0498C3.13919 12.6836 2.99386 11.587 3.00001 10.7207C3.00642 9.82459 3.17252 9.05636 3.71583 8.42871C4.25926 7.80102 4.99058 7.53307 5.86817 7.40821C6.71658 7.28754 7.81088 7.28807 9.17383 7.28809H14.8272ZM9.22559 8.625C7.79859 8.625 6.79825 8.62639 6.05274 8.73243C5.32583 8.83581 4.9578 9.02443 4.71094 9.30957C4.46415 9.59467 4.32855 9.98837 4.32325 10.7305C4.31785 11.4917 4.44815 12.4946 4.63672 13.9248L4.68653 14.3047L5.0586 14.0322C6.01746 13.33 7.43387 13.3648 8.34571 14.1279L11.7305 16.9609C12.0503 17.2284 12.6014 17.2779 12.999 17.0439L13.2344 16.9063C14.3597 16.2443 15.868 16.3134 16.9063 17.0957L18.7383 18.4756C18.8285 17.9802 18.9091 17.3711 19.0107 16.6006L19.3633 13.9248C19.5519 12.4946 19.6831 11.4917 19.6777 10.7305C19.6724 9.98831 19.5359 9.59468 19.2891 9.30957C19.0423 9.02449 18.6741 8.83579 17.9473 8.73243C17.2019 8.62645 16.202 8.625 14.7754 8.625H9.22559ZM15.9678 10.6309C16.6983 10.6309 17.291 11.2301 17.291 11.9688C17.2909 12.7072 16.6982 13.3057 15.9678 13.3057C15.2375 13.3055 14.6457 12.7071 14.6455 11.9688C14.6455 11.2301 15.2374 10.631 15.9678 10.6309ZM17.2754 4.5C18.527 4.5 19.553 5.34008 19.8955 6.45411C19.9025 6.47713 19.9096 6.50019 19.916 6.52344C19.5579 6.40296 19.1851 6.32427 18.8076 6.27051C17.8353 6.13202 16.6061 6.13273 15.1787 6.13282H8.97657C7.54916 6.13273 6.31998 6.13202 5.34766 6.27051C4.97031 6.32427 4.59745 6.40296 4.23926 6.52344C4.24576 6.5002 4.2527 6.47713 4.25977 6.45411C4.60225 5.34008 5.62832 4.5 6.87989 4.5H17.2754ZM15.1416 2C15.3506 1.99994 15.5113 2.0004 15.6514 2.01563C16.6483 2.12412 17.4645 2.78951 17.8106 3.68653H6.19043C6.53658 2.78951 7.3527 2.12397 8.34961 2.01563C8.48976 2.00043 8.65033 1.99994 8.85938 2H15.1416Z" fill="#48465C"/>
</svg>
