<svg width="24" height="24" viewBox="0 0 24 24" fill="none" xmlns="http://www.w3.org/2000/svg">
<path fill-rule="evenodd" clip-rule="evenodd" d="M15.3008 1.25001C15.5203 1.24995 15.6887 1.24988 15.8359 1.26563C17.19 1.41096 18.2271 2.52307 18.29 3.87012C19.4807 4.2257 20.3292 5.32734 20.3447 6.59083C20.9457 6.77116 21.4644 7.05631 21.8887 7.51466C22.5404 8.21884 22.7423 9.08697 22.75 10.1006C22.7573 11.0752 22.5838 12.3067 22.3681 13.8359L21.9287 16.9502C21.7601 18.1461 21.6232 19.1176 21.4101 19.8789C21.1871 20.6755 20.8585 21.3311 20.25 21.835C19.6464 22.3346 18.9304 22.5498 18.084 22.6514C17.2655 22.7496 16.2352 22.75 14.9531 22.75H9.04686C7.76499 22.75 6.73543 22.7495 5.91697 22.6514C5.07043 22.5498 4.35367 22.3348 3.74998 21.835C3.14155 21.3311 2.81278 20.6755 2.58982 19.8789C2.37674 19.1176 2.23985 18.1461 2.07127 16.9502L1.63279 13.8359C1.41715 12.3066 1.24262 11.0752 1.24998 10.1006C1.25767 9.08684 1.46038 8.21889 2.11229 7.51466C2.53652 7.05642 3.05446 6.77117 3.65525 6.59083C3.67076 5.32734 4.51937 4.22569 5.70994 3.87012C5.77284 2.52309 6.80988 1.41096 8.16404 1.26563C8.31125 1.24986 8.47965 1.24995 8.6992 1.25001H15.3008ZM8.67283 7.75001C6.9641 7.75001 5.75755 7.75126 4.85643 7.8711C3.97144 7.98881 3.51577 8.20608 3.21287 8.53321C2.91706 8.85273 2.75629 9.2877 2.74998 10.1113C2.74353 10.9614 2.89961 12.083 3.12596 13.6885L3.54979 16.6885C3.72752 17.949 3.85123 18.821 4.03416 19.4746C4.21037 20.1041 4.41832 20.4407 4.70701 20.6797C5.00049 20.9226 5.39481 21.078 6.09568 21.1621C6.81439 21.2484 7.75394 21.25 9.09568 21.25H14.9053C16.2469 21.25 17.1866 21.2484 17.9053 21.1621C18.6061 21.078 19.0005 20.9227 19.2939 20.6797C19.5825 20.4407 19.7896 20.104 19.9658 19.4746C20.1488 18.821 20.2734 17.9491 20.4512 16.6885L20.874 13.6885C21.1004 12.083 21.2565 10.9614 21.25 10.1113C21.2437 9.2877 21.0829 8.85273 20.7871 8.53321C20.4842 8.20624 20.029 7.9888 19.1445 7.8711C18.2434 7.75125 17.0367 7.75001 15.3281 7.75001H8.67283ZM15 17.25C15.4142 17.25 15.75 17.5858 15.75 18C15.75 18.4142 15.4142 18.75 15 18.75H8.99998C8.58587 18.7499 8.24998 18.4141 8.24998 18C8.24998 17.5859 8.58588 17.2501 8.99998 17.25H15ZM6.53807 5.25001C5.86916 5.25001 5.32659 5.72048 5.18943 6.32813C6.11519 6.25029 7.25007 6.25 8.61619 6.25001H15.3838C16.7497 6.25 17.8849 6.25033 18.8105 6.32813C18.6734 5.7205 18.1308 5.25001 17.4619 5.25001H6.53807ZM8.74119 2.75001C8.46096 2.75001 8.38046 2.75084 8.3242 2.75684C7.774 2.81589 7.33893 3.22634 7.2324 3.75001H16.7676C16.661 3.22649 16.2267 2.81604 15.6767 2.75684C15.6204 2.7508 15.5396 2.75001 15.2588 2.75001H8.74119Z" fill="#48465C"/>
</svg>
