<svg width="24" height="24" viewBox="0 0 24 24" fill="none" xmlns="http://www.w3.org/2000/svg">
<path d="M15.3272 7.542C18.702 7.542 20.39 7.54247 21.3379 8.5293C22.2852 9.51613 22.0622 11.0411 21.6162 14.0898L21.1934 16.9814C20.8436 19.3725 20.6687 20.5682 19.7715 21.2842C18.8743 22.0001 17.5508 22 14.9043 22H9.09475C6.44882 22 5.12568 21.9999 4.22854 21.2842C3.33141 20.5682 3.1564 19.3725 2.80667 16.9814L2.38382 14.0898C1.93782 11.0408 1.71456 9.51614 2.66214 8.5293C3.60996 7.5425 5.2973 7.542 8.6719 7.542H15.3272ZM11.209 12.1152C10.6664 11.7793 10 12.2175 10 12.9102V17.0898C10 17.7824 10.6664 18.2206 11.209 17.8848L14.5811 15.7939C15.1393 15.4478 15.1393 14.5522 14.5811 14.2061L11.209 12.1152ZM17.8614 4.72364C19.2519 4.72364 20.3919 5.56284 20.7725 6.67676C20.7805 6.69998 20.7887 6.72362 20.7959 6.74707C20.3978 6.6265 19.9829 6.54791 19.5635 6.49414C18.4832 6.35566 17.118 6.35538 15.5323 6.35547H8.63967C7.05386 6.35538 5.68873 6.35568 4.60842 6.49414C4.18896 6.54791 3.77415 6.6265 3.376 6.74707C3.38327 6.72362 3.39053 6.69998 3.39846 6.67676C3.77901 5.56274 4.91996 4.72364 6.31057 4.72364H17.8614ZM15.4903 2C15.7226 1.99994 15.901 2.0004 16.0567 2.01563C17.1642 2.12409 18.0706 2.7896 18.4551 3.68653H5.54397C5.92852 2.78941 6.83563 2.12399 7.94339 2.01563C8.09916 2.0004 8.27737 1.99994 8.50979 2H15.4903Z" fill="#48465C"/>
</svg>
