<svg width="24" height="24" viewBox="0 0 24 24" fill="none" xmlns="http://www.w3.org/2000/svg">
<path d="M15.3008 1.25001C15.5204 1.24995 15.6887 1.24988 15.8359 1.26563C17.19 1.41096 18.2271 2.52307 18.29 3.87012C19.4807 4.2257 20.3292 5.32734 20.3447 6.59083C20.9457 6.77116 21.4644 7.05631 21.8887 7.51466C22.5404 8.21884 22.7423 9.08697 22.75 10.1006C22.7574 11.0752 22.5838 12.3067 22.3682 13.8359L21.9287 16.9502C21.7601 18.1461 21.6232 19.1176 21.4102 19.8789C21.1872 20.6755 20.8585 21.3311 20.25 21.835C19.6464 22.3346 18.9304 22.5498 18.084 22.6514C17.2655 22.7496 16.2352 22.75 14.9531 22.75H9.04687C7.765 22.75 6.73546 22.7495 5.91699 22.6514C5.07045 22.5498 4.35369 22.3348 3.75 21.835C3.14157 21.3311 2.8128 20.6755 2.58984 19.8789C2.37676 19.1176 2.23987 18.1461 2.07129 16.9502L1.63281 13.8359C1.41717 12.3066 1.24264 11.0752 1.25 10.1006C1.25769 9.08684 1.4604 8.21889 2.1123 7.51466C2.53654 7.05642 3.05448 6.77117 3.65527 6.59083C3.67078 5.32734 4.51939 4.22569 5.70996 3.87012C5.77286 2.52309 6.8099 1.41096 8.16406 1.26563C8.31127 1.24986 8.47967 1.24995 8.69922 1.25001H15.3008ZM8.67285 7.75001C6.96412 7.75001 5.75757 7.75126 4.85644 7.8711C3.97146 7.98881 3.51579 8.20608 3.21289 8.53321C2.91708 8.85273 2.75631 9.2877 2.75 10.1113C2.74355 10.9614 2.89963 12.083 3.12598 13.6885L3.5498 16.6885C3.72754 17.949 3.85125 18.821 4.03418 19.4746C4.21039 20.1041 4.41834 20.4407 4.70703 20.6797C5.00051 20.9226 5.39483 21.078 6.0957 21.1621C6.81441 21.2484 7.75396 21.25 9.0957 21.25H14.9053C16.2469 21.25 17.1867 21.2484 17.9053 21.1621C18.6061 21.078 19.0005 20.9227 19.2939 20.6797C19.5825 20.4407 19.7896 20.104 19.9658 19.4746C20.1488 18.821 20.2734 17.9491 20.4512 16.6885L20.874 13.6885C21.1004 12.083 21.2565 10.9614 21.25 10.1113C21.2438 9.2877 21.083 8.85273 20.7871 8.53321C20.4842 8.20624 20.029 7.9888 19.1445 7.8711C18.2434 7.75125 17.0368 7.75001 15.3281 7.75001H8.67285ZM9.99023 10.9102C10.4488 10.6093 11.0664 10.5544 11.6055 10.8887L14.9766 12.9785C15.5137 13.3116 15.75 13.8874 15.75 14.4102C15.75 14.933 15.5138 15.5088 14.9766 15.8418L11.6055 17.9316C11.0664 18.2658 10.4488 18.2112 9.99023 17.9102C9.53957 17.6143 9.25 17.0931 9.25 16.5V12.3203C9.25 11.7273 9.53957 11.2061 9.99023 10.9102ZM10.8135 12.1641C10.7951 12.1762 10.75 12.2206 10.75 12.3203V16.5C10.75 16.5997 10.7951 16.6442 10.8135 16.6563L10.8145 16.6572L14.1865 14.5674C14.2077 14.5543 14.25 14.5084 14.25 14.4102C14.25 14.3125 14.2079 14.2673 14.1865 14.2539L10.8145 12.1631L10.8135 12.1641ZM6.53809 5.25001C5.86918 5.25001 5.32661 5.72048 5.18945 6.32813C6.11521 6.25029 7.25009 6.25 8.61621 6.25001H15.3838C16.7497 6.25 17.8849 6.25033 18.8105 6.32813C18.6734 5.7205 18.1308 5.25001 17.4619 5.25001H6.53809ZM8.32422 2.75684C7.77402 2.81589 7.33895 3.22634 7.23242 3.75001H16.7676C16.661 3.22649 16.2267 2.81604 15.6768 2.75684C15.6205 2.7508 15.5396 2.75001 15.2588 2.75001H8.74121C8.46097 2.75001 8.38048 2.75084 8.32422 2.75684Z" fill="#48465C"/>
</svg>
