<svg width="24" height="24" viewBox="0 0 24 24" fill="none" xmlns="http://www.w3.org/2000/svg">
<path fill-rule="evenodd" clip-rule="evenodd" d="M15.3272 7.542C18.702 7.542 20.3901 7.54247 21.338 8.5293C22.2853 9.51613 22.0622 11.0411 21.6163 14.0898L21.1934 16.9814C20.8437 19.3725 20.6687 20.5682 19.7716 21.2842C18.8744 22.0001 17.5509 22 14.9044 22H9.09481C6.44888 22 5.12574 21.9999 4.2286 21.2842C3.33147 20.5682 3.15647 19.3725 2.80673 16.9814L2.38388 14.0898C1.93788 11.0408 1.71462 9.51614 2.6622 8.5293C3.61002 7.5425 5.29736 7.542 8.67196 7.542H15.3272ZM12.0001 9.75C11.5859 9.75 11.2501 10.0858 11.2501 10.5V14.8779C11.0155 14.7951 10.763 14.75 10.5001 14.75C9.25745 14.75 8.25009 15.7574 8.25009 17C8.25011 18.2426 9.25746 19.25 10.5001 19.25C11.7426 19.2499 12.7501 18.2425 12.7501 17V13.3193C13.4203 13.863 14.2618 14.25 15.0001 14.25C15.4142 14.2499 15.7501 13.9141 15.7501 13.5C15.7501 13.0859 15.4142 12.7501 15.0001 12.75C14.6947 12.75 14.1141 12.5317 13.5831 12.0606C13.065 11.6009 12.7501 11.0386 12.7501 10.5C12.7501 10.0859 12.4142 9.75011 12.0001 9.75ZM10.5001 16.25C10.9142 16.2501 11.2501 16.5859 11.2501 17C11.2501 17.4141 10.9142 17.7499 10.5001 17.75C10.0859 17.75 9.75009 17.4142 9.75009 17C9.75009 16.5858 10.0859 16.25 10.5001 16.25ZM17.8614 4.72364C19.2519 4.72364 20.392 5.56284 20.7725 6.67676C20.7805 6.69998 20.7888 6.72362 20.796 6.74707C20.3979 6.6265 19.983 6.54791 19.5636 6.49414C18.4833 6.35566 17.1181 6.35538 15.5323 6.35547H8.63974C7.05392 6.35538 5.68879 6.35568 4.60849 6.49414C4.18903 6.54791 3.77421 6.6265 3.37606 6.74707C3.38333 6.72362 3.39059 6.69998 3.39852 6.67676C3.77907 5.56274 4.92002 4.72364 6.31063 4.72364H17.8614ZM15.4893 2C15.7218 1.99994 15.9009 2.00039 16.0567 2.01563C17.1642 2.12413 18.0706 2.78961 18.4552 3.68653H5.54403C5.92859 2.78943 6.83571 2.12399 7.94345 2.01563C8.09919 2.00041 8.27749 1.99994 8.50985 2H15.4893Z" fill="#48465C"/>
</svg>
