<svg width="24" height="24" viewBox="0 0 24 24" fill="none" xmlns="http://www.w3.org/2000/svg">
<path d="M11.4997 2C13.511 2.02374 15.4313 2.84506 16.8376 4.2832C18.2437 5.7213 19.021 7.65876 18.9997 9.66992C18.9759 10.7614 18.7214 11.8354 18.2526 12.8213C17.7838 13.8071 17.1115 14.6824 16.28 15.3896L15.1198 16.46L14.8102 16.7598L14.7204 16.8496C14.597 16.9833 14.4893 17.1314 14.4001 17.29C14.3442 17.4656 14.3069 17.6467 14.2897 17.8301C14.2696 18.1998 14.2695 18.5707 14.2897 18.9404V19.9404C14.27 20.2512 14.1848 20.5545 14.0397 20.8301C13.8627 21.1488 13.6037 21.4143 13.2897 21.5996C13.0227 21.7483 12.7249 21.8339 12.4196 21.8496H10.36C10.0548 21.8339 9.757 21.7483 9.48993 21.5996C9.17601 21.4142 8.91694 21.1488 8.73993 20.8301C8.59485 20.5545 8.50964 20.2513 8.48993 19.9404V18.9404C8.51011 18.5707 8.51011 18.1998 8.48993 17.8301C8.47272 17.6467 8.43549 17.4656 8.37958 17.29C8.2904 17.1315 8.18361 16.9833 8.06024 16.8496L7.9704 16.7598L7.65985 16.46L6.49969 15.3896C5.70848 14.6626 5.07754 13.7785 4.64716 12.7939C4.21669 11.8091 3.99582 10.7448 3.99969 9.66992C3.97838 7.65871 4.75663 5.72131 6.16278 4.2832C7.56896 2.84515 9.48854 2.02383 11.4997 2ZM9.93036 19.6699V19.9297C9.9336 20.0429 9.95674 20.155 9.99969 20.2598C10.0618 20.3617 10.1478 20.4476 10.2497 20.5098C10.349 20.5588 10.4592 20.5832 10.57 20.5801H12.4304C12.541 20.5831 12.6505 20.5587 12.7497 20.5098C12.8518 20.4475 12.9375 20.3618 12.9997 20.2598C13.0427 20.1549 13.0668 20.043 13.07 19.9297C13.08 19.8597 13.0801 19.7698 13.11 19.6699H9.93036ZM9.84051 13.2715C9.6476 13.221 9.44239 13.249 9.2702 13.3496C9.18488 13.3995 9.11023 13.4662 9.05048 13.5449C8.9908 13.6236 8.94666 13.7131 8.92157 13.8086C8.8965 13.9042 8.89055 14.0046 8.90399 14.1025C8.91743 14.2003 8.94991 14.2946 8.99969 14.3799C9.35882 14.9975 9.94292 15.4531 10.6296 15.6504V17C10.6296 17.1988 10.7088 17.3896 10.8493 17.5303C10.9898 17.6708 11.1808 17.7499 11.3796 17.75C11.5785 17.75 11.7702 17.6709 11.9108 17.5303C12.0513 17.3896 12.1296 17.1988 12.1296 17V15.6504C12.8178 15.456 13.4037 14.9997 13.7604 14.3799C13.8095 14.2929 13.8408 14.1968 13.8522 14.0977C13.8637 13.9984 13.8548 13.8977 13.8268 13.8018C13.7989 13.7059 13.7521 13.6166 13.6891 13.5391C13.6262 13.4615 13.5478 13.3967 13.4597 13.3496C13.2898 13.26 13.0923 13.238 12.9069 13.2881C12.7214 13.3382 12.5613 13.457 12.4597 13.6201C12.3517 13.8113 12.1951 13.9703 12.0056 14.0811C11.8158 14.1919 11.5993 14.251 11.3796 14.251C11.16 14.2509 10.9442 14.1918 10.7546 14.0811C10.565 13.9703 10.4084 13.8113 10.3005 13.6201C10.2506 13.5348 10.1839 13.4601 10.1052 13.4004C10.0264 13.3406 9.93616 13.2966 9.84051 13.2715Z" fill="#48465C"/>
</svg>
