<svg width="24" height="24" viewBox="0 0 24 24" fill="none" xmlns="http://www.w3.org/2000/svg">
<path d="M2.96777 9.48454C3.36884 9.46728 3.71226 9.7692 3.74707 10.1691L4.71875 21.4064C4.78093 22.1281 4.21217 22.7502 3.48633 22.7502C2.80276 22.75 2.25012 22.1952 2.25 21.5129V10.2345C2.25 9.8329 2.5665 9.50185 2.96777 9.48454ZM11.3486 1.45621C11.8312 1.22376 12.3878 1.18604 12.8975 1.34977L13.042 1.39664C13.8189 1.64623 14.4253 2.26689 14.6309 3.05875C14.8243 3.80432 14.8599 4.58281 14.7354 5.34293L14.0723 9.38688C14.0638 9.43851 14.1036 9.48431 14.1533 9.48454H19.335C20.8341 9.48463 21.969 10.8363 21.7139 12.3127L21.0088 16.3927C20.3709 20.0809 17.0713 22.7501 13.2451 22.7502H8.59668C7.34303 22.7502 6.29839 21.7897 6.19043 20.5412L5.37793 11.1486C5.31115 10.375 5.62075 9.61643 6.20898 9.10954L7.64746 7.8693C8.30246 7.30485 8.85383 6.75774 9.2002 6.10954C9.45677 5.62922 9.65564 5.12054 9.79199 4.59489L10.2676 2.76188C10.4168 2.18658 10.8166 1.71256 11.3486 1.45621ZM12.4385 2.77848C12.2935 2.73191 12.1346 2.74295 12 2.80778C11.8526 2.87882 11.7549 3.00295 11.7197 3.13786L11.2441 4.97184C11.0779 5.61309 10.8353 6.23165 10.5234 6.81559C10.0392 7.7222 9.30676 8.4202 8.62695 9.00602L7.1875 10.2453C6.96453 10.4375 6.84763 10.7257 6.87305 11.0197L7.68457 20.4123C7.7256 20.8868 8.12277 21.2502 8.59668 21.2502H13.2451C16.3814 21.2501 19.0235 19.0674 19.5303 16.1369L20.2363 12.0578C20.3334 11.4963 19.9015 10.9846 19.335 10.9845H14.1533C13.1764 10.9843 12.4342 10.1074 12.5918 9.14469L13.2549 5.09977C13.3456 4.54585 13.3197 3.97899 13.1787 3.43571C13.1072 3.15998 12.8894 2.92379 12.583 2.82536L12.4385 2.77848Z" fill="#48465C"/>
</svg>
