<svg width="24" height="24" viewBox="0 0 24 24" fill="none" xmlns="http://www.w3.org/2000/svg">
<path d="M2.96777 9.48574C3.369 9.46847 3.71247 9.77016 3.74707 10.1703L4.71875 21.4066C4.78106 22.1284 4.21225 22.7504 3.48633 22.7504C2.80269 22.7502 2.25001 22.1954 2.25 21.5131V10.2348C2.25 9.83311 2.5665 9.50306 2.96777 9.48574ZM11.6738 2.13222C11.9825 1.98348 12.3406 1.95967 12.668 2.06484L12.8125 2.11074C13.3541 2.28472 13.7657 2.71372 13.9043 3.24745C14.0715 3.89193 14.1028 4.56499 13.9951 5.22206L13.332 9.26601C13.2489 9.77318 13.64 10.2345 14.1533 10.2348H19.335C20.3676 10.2349 21.1515 11.1662 20.9756 12.185L20.2695 16.265C19.6972 19.5744 16.7264 22.0003 13.2451 22.0004H8.59668C7.7329 22.0004 7.012 21.3384 6.9375 20.4769L6.12598 11.0844C6.07988 10.5507 6.29273 10.0277 6.69824 9.67812L8.13672 8.43788C8.80418 7.86271 9.44695 7.24072 9.8623 6.46327C10.1466 5.9311 10.3663 5.36708 10.5176 4.78359L10.9941 2.9496C11.0863 2.59473 11.3343 2.29588 11.6738 2.13222Z" fill="#48465C"/>
</svg>
