<svg width="24" height="24" viewBox="0 0 24 24" fill="none" xmlns="http://www.w3.org/2000/svg">
<path d="M13.4248 9.46876C13.7183 9.17652 14.193 9.17728 14.4853 9.47071C16.3336 11.3261 16.0939 14.3899 14.1826 16.3086L9.33494 21.1748C7.42266 23.0945 4.36607 23.3362 2.5156 21.4785C0.66741 19.623 0.907134 16.5603 2.81834 14.6416L5.24217 12.208C5.53447 11.9146 6.00926 11.9137 6.30271 12.2061C6.59616 12.4984 6.597 12.9731 6.30467 13.2666L3.88084 15.7002C2.44578 17.1409 2.41465 19.2517 3.5781 20.4199C4.7395 21.5859 6.83715 21.5558 8.27146 20.1162L13.1191 15.25C14.5544 13.8092 14.5863 11.6974 13.4228 10.5293C13.1304 10.2358 13.1314 9.76108 13.4248 9.46876ZM14.666 2.82618C16.5782 0.906538 19.6348 0.664006 21.4853 2.52149C23.3336 4.37687 23.0937 7.44065 21.1826 9.35938L18.7588 11.793C18.4665 12.0862 17.9918 12.0869 17.6982 11.7949C17.405 11.5028 17.4033 11.0278 17.6953 10.7344L20.1191 8.30079C21.5544 6.85992 21.5864 4.74825 20.4228 3.58008C19.2613 2.41418 17.1628 2.44491 15.7285 3.88477L10.8808 8.75098C9.44556 10.1918 9.41444 12.3035 10.5781 13.4717C10.8703 13.7651 10.8696 14.24 10.5762 14.5322C10.2828 14.8244 9.80796 14.8234 9.5156 14.5303C7.66734 12.6748 7.90704 9.61111 9.81834 7.69239L14.666 2.82618Z" fill="#48465C"/>
</svg>
