<svg width="24" height="24" viewBox="0 0 24 24" fill="none" xmlns="http://www.w3.org/2000/svg">
<path d="M13.4248 9.46875C13.7182 9.1765 14.193 9.17727 14.4853 9.4707C16.3335 11.3261 16.0938 14.3899 14.1826 16.3086L9.33491 21.1748C7.42263 23.0945 4.36604 23.3362 2.51557 21.4785C0.667377 19.623 0.907106 16.5603 2.81831 14.6416L5.24214 12.208C5.53444 11.9146 6.00924 11.9137 6.30268 12.2061C6.59614 12.4984 6.59696 12.9731 6.30464 13.2666L3.88081 15.7002C2.44575 17.1409 2.41462 19.2517 3.57807 20.4199C4.73947 21.5858 6.83712 21.5558 8.27143 20.1162L13.1191 15.25C14.5544 13.8093 14.5864 11.6974 13.4228 10.5293C13.1305 10.2358 13.1313 9.76107 13.4248 9.46875ZM14.666 2.82617C16.5781 0.906536 19.6348 0.664012 21.4853 2.52148C23.3335 4.37687 23.0937 7.44064 21.1826 9.35937L18.7587 11.793C18.4666 12.0862 17.9916 12.0869 17.6982 11.7949C17.4048 11.5027 17.4033 11.0278 17.6953 10.7344L20.1191 8.30078C21.5544 6.85991 21.5865 4.74825 20.4228 3.58008C19.2614 2.41413 17.1628 2.44488 15.7285 3.88476L10.8808 8.75098C9.44556 10.1918 9.41447 12.3035 10.5781 13.4717C10.8703 13.7651 10.8696 14.24 10.5761 14.5322C10.2827 14.8244 9.80792 14.8234 9.51557 14.5303C7.66731 12.6748 7.90701 9.6111 9.81831 7.69238L14.666 2.82617Z" fill="#48465C"/>
</svg>
