<svg width="24" height="24" viewBox="0 0 24 24" fill="none" xmlns="http://www.w3.org/2000/svg">
<path d="M5.6199 11.4941C5.8993 11.1884 6.37371 11.1669 6.67947 11.4462C6.98516 11.7256 7.00664 12.2 6.72732 12.5058L5.46657 13.8857C4.40807 15.0439 4.48208 17.3149 5.97048 18.9433C7.44771 20.5595 9.40999 20.5898 10.4109 19.4951L14.4461 15.081C14.7255 14.7752 15.1999 14.7537 15.5056 15.0332C15.8114 15.3126 15.8329 15.787 15.5535 16.0927L11.5183 20.5068C9.73383 22.4591 6.72921 21.9955 4.86404 19.955C3.01012 17.9267 2.63262 14.7633 4.35915 12.874L5.6199 11.4941ZM14.1756 2.40132C16.0114 0.603169 19.0885 1.00853 21.0388 2.9189C22.9919 4.8324 23.4179 7.87514 21.5681 9.68746L18.6609 12.5351C18.365 12.825 17.8902 12.8202 17.6004 12.5244C17.3105 12.2286 17.3153 11.7537 17.6111 11.4638L20.5183 8.61617C21.5877 7.56844 21.5389 5.50969 19.989 3.99117C18.4363 2.47006 16.3077 2.41126 15.2244 3.47261L11.5252 7.09761C11.2293 7.38748 10.7535 7.38276 10.4636 7.08687C10.1741 6.79097 10.1796 6.31609 10.4754 6.02632L14.1756 2.40132ZM1.28786 7.76265C1.41891 7.36981 1.84418 7.15805 2.23708 7.28902L8.23708 9.28902C8.62985 9.42007 8.84256 9.84445 8.71169 10.2373C8.58071 10.6303 8.15543 10.8429 7.76247 10.7119L1.76247 8.71187C1.36956 8.58085 1.15688 8.15558 1.28786 7.76265ZM5.58376 3.37593C5.92839 3.14621 6.39402 3.23936 6.6238 3.58394L8.6238 6.58394C8.85355 6.92858 8.76042 7.3942 8.41579 7.62398C8.07115 7.85374 7.60552 7.76062 7.37575 7.41597L5.37575 4.41597C5.14604 4.07134 5.23914 3.60568 5.58376 3.37593Z" fill="#48465C"/>
</svg>
