<svg width="24" height="24" viewBox="0 0 24 24" fill="none" xmlns="http://www.w3.org/2000/svg">
<path d="M5.62002 11.4943C5.89942 11.1886 6.37383 11.1671 6.67959 11.4465C6.98529 11.7258 7.00677 12.2002 6.72744 12.506L5.4667 13.8859C4.4082 15.0441 4.4822 17.3151 5.9706 18.9435C7.44784 20.5597 9.41014 20.59 10.411 19.4953L14.4462 15.0812C14.7256 14.7754 15.2 14.7539 15.5058 15.0334C15.8114 15.3128 15.833 15.7871 15.5536 16.0929L11.5185 20.507C9.73398 22.4594 6.72933 21.9957 4.86416 19.9552C3.01024 17.927 2.63275 14.7635 4.35927 12.8742L5.62002 11.4943ZM14.1747 2.40153C16.0105 0.602985 19.0885 1.0086 21.039 2.91911C22.9921 4.8326 23.418 7.87535 21.5683 9.68767L18.661 12.5353C18.3652 12.8252 17.8904 12.8204 17.6005 12.5246C17.3106 12.2288 17.3153 11.7539 17.6112 11.464L20.5185 8.61638C21.5879 7.56865 21.5391 5.5099 19.9892 3.99138C18.4365 2.47024 16.3079 2.41148 15.2245 3.47282L11.5253 7.09782C11.2294 7.38765 10.7546 7.38285 10.4647 7.08708C10.1748 6.7912 10.1796 6.31641 10.4755 6.02653L14.1747 2.40153ZM1.28799 7.76286C1.41903 7.37001 1.8443 7.15826 2.2372 7.28923L8.2372 9.28923C8.62998 9.42028 8.84269 9.84466 8.71181 10.2375C8.58083 10.6305 8.15556 10.8431 7.7626 10.7121L1.7626 8.71208C1.36968 8.58106 1.157 8.15579 1.28799 7.76286ZM5.58388 3.37614C5.9285 3.14641 6.39413 3.2396 6.62392 3.58415L8.62392 6.58415C8.85368 6.9288 8.76056 7.39442 8.41592 7.62419C8.07127 7.85389 7.60563 7.76081 7.37588 7.41618L5.37588 4.41618C5.14622 4.07157 5.23933 3.60589 5.58388 3.37614Z" fill="#48465C"/>
</svg>
