<svg width="24" height="24" viewBox="0 0 24 24" fill="none" xmlns="http://www.w3.org/2000/svg">
<path fill-rule="evenodd" clip-rule="evenodd" d="M5.62058 11.494C5.90005 11.1883 6.37446 11.1667 6.68015 11.4461C6.98589 11.7255 7.00647 12.1999 6.72702 12.5057L5.46628 13.8856C4.40792 15.0438 4.48276 17.3148 5.97116 18.9432C7.44851 20.5594 9.41078 20.5899 10.4116 19.4949L14.4467 15.0809C14.7262 14.7751 15.2005 14.7535 15.5063 15.033C15.8118 15.3124 15.8325 15.7869 15.5532 16.0926L11.519 20.5067C9.73449 22.4591 6.7289 21.9955 4.86374 19.9549C3.00989 17.9265 2.63305 14.7631 4.35983 12.8738L5.62058 11.494ZM14.1753 2.40118C16.0112 0.602727 19.0892 1.00895 21.0395 2.91974C22.9925 4.83327 23.4176 7.87508 21.5678 9.68732L18.6606 12.5359C18.3647 12.8255 17.8899 12.82 17.6001 12.5242C17.3104 12.2284 17.315 11.7535 17.6108 11.4637L20.518 8.61603C21.5874 7.56832 21.5395 5.50954 19.9897 3.99103C18.437 2.46984 16.3085 2.41208 15.2251 3.47345L11.5249 7.09845C11.229 7.38806 10.754 7.38253 10.4643 7.08673C10.1747 6.79083 10.1792 6.31599 10.4751 6.02618L14.1753 2.40118ZM1.28854 7.76349C1.41949 7.37063 1.84391 7.1581 2.23679 7.28888L8.23679 9.28888C8.6297 9.41984 8.84229 9.84424 8.7114 10.2371C8.58045 10.63 8.15604 10.8425 7.76315 10.7117L1.76315 8.71173C1.37033 8.58079 1.15784 8.15632 1.28854 7.76349ZM5.58444 3.37579C5.92905 3.14633 6.39478 3.2393 6.62448 3.5838L8.62448 6.5838C8.85417 6.92834 8.76084 7.39399 8.41647 7.62384C8.07182 7.8536 7.6062 7.76048 7.37643 7.41583L5.37643 4.41583C5.1467 4.07119 5.23981 3.60555 5.58444 3.37579Z" fill="#48465C"/>
</svg>
