<svg width="24" height="24" viewBox="0 0 24 24" fill="none" xmlns="http://www.w3.org/2000/svg">
<path fill-rule="evenodd" clip-rule="evenodd" d="M5.62057 11.494C5.90005 11.1884 6.37445 11.1667 6.68014 11.4461C6.98588 11.7255 7.00647 12.1999 6.72702 12.5057L5.46628 13.8856C4.40792 15.0439 4.48276 17.3148 5.97116 18.9432C7.4485 20.5594 9.41075 20.5899 10.4116 19.495L14.4467 15.0809C14.7262 14.7751 15.2006 14.7536 15.5063 15.033C15.8119 15.3125 15.8325 15.7869 15.5532 16.0926L11.519 20.5067C9.73446 22.4591 6.7289 21.9955 4.86374 19.9549C3.00989 17.9265 2.63305 14.7631 4.35983 12.8739L5.62057 11.494ZM14.1753 2.4012C16.0112 0.60271 19.0892 1.00896 21.0395 2.91976C22.9924 4.83329 23.4176 7.87509 21.5678 9.68734L18.6606 12.536C18.3647 12.8255 17.8898 12.82 17.6001 12.5242C17.3104 12.2284 17.3151 11.7535 17.6108 11.4637L20.518 8.61605C21.5874 7.56833 21.5395 5.50956 19.9897 3.99105C18.437 2.46986 16.3084 2.4121 15.2251 3.47347L11.5249 7.09847C11.229 7.3881 10.7541 7.38256 10.4643 7.08675C10.1746 6.79085 10.1792 6.31601 10.4751 6.0262L14.1753 2.4012ZM1.28854 7.76351C1.41949 7.37065 1.84391 7.15811 2.23678 7.2889L8.23678 9.2889C8.6297 9.41986 8.84229 9.84426 8.71139 10.2371C8.58044 10.63 8.15603 10.8426 7.76315 10.7117L1.76315 8.71175C1.37033 8.5808 1.15784 8.15634 1.28854 7.76351ZM5.58444 3.37581C5.92905 3.14641 6.3948 3.23932 6.62448 3.58382L8.62448 6.58382C8.85411 6.92832 8.76076 7.394 8.41647 7.62386C8.07184 7.85361 7.60621 7.76047 7.37643 7.41585L5.37643 4.41585C5.14667 4.07121 5.2398 3.60557 5.58444 3.37581Z" fill="#48465C"/>
</svg>
