<svg width="24" height="24" viewBox="0 0 24 24" fill="none" xmlns="http://www.w3.org/2000/svg">
<path d="M9.48624 6C10.3094 5.99934 11.0694 6.74597 12.5878 8.23828L12.9511 8.59473C14.4696 10.0871 15.2291 10.8337 15.2284 11.6426C15.2282 11.9069 15.1725 12.1684 15.0663 12.4111C14.7413 13.1542 13.7439 13.5449 11.7489 14.3252L11.6044 14.3809C11.039 14.602 10.7564 14.7131 10.5282 14.8906C10.3551 15.0254 10.2055 15.1881 10.0868 15.3711C9.93046 15.6121 9.84769 15.9003 9.68156 16.4756C9.42385 17.3679 9.29427 17.8137 9.01945 18.0117C8.81522 18.1589 8.56174 18.2242 8.31046 18.1934C7.9723 18.152 7.63809 17.824 6.97062 17.168L5.94425 16.1582L3.27042 18.7861C2.97973 19.0714 2.50825 19.0716 2.21769 18.7861C1.92711 18.5005 1.92711 18.0366 2.21769 17.751L4.88175 15.1143L3.86417 14.1152C3.19695 13.4595 2.86354 13.131 2.8212 12.7988C2.78993 12.5519 2.85606 12.3023 3.00578 12.1016C3.20729 11.8315 3.66109 11.7046 4.56925 11.4512C5.15484 11.2879 5.44788 11.2065 5.69328 11.0527C5.87944 10.936 6.04443 10.7892 6.18156 10.6191C6.36232 10.3949 6.47499 10.1164 6.70011 9.56055L6.75773 9.41895C7.55176 7.45822 7.94879 6.47751 8.70499 6.1582C8.95182 6.05402 9.21763 6.00026 9.48624 6ZM21.2558 16.4229C21.6669 16.4229 21.9999 16.7503 21.9999 17.1543C21.9999 17.5583 21.6669 17.8857 21.2558 17.8857H12.3241C11.9132 17.8857 11.58 17.5583 11.58 17.1543C11.58 16.7504 11.9132 16.4229 12.3241 16.4229H21.2558ZM21.2558 12.0342C21.6669 12.0342 21.9999 12.3617 21.9999 12.7656C21.9999 13.1696 21.6669 13.4971 21.2558 13.4971H17.286C16.875 13.497 16.5419 13.1696 16.5419 12.7656C16.5419 12.3617 16.875 12.0343 17.286 12.0342H21.2558ZM21.2558 7.64551C21.6669 7.64552 21.9999 7.97299 21.9999 8.37695C21.9999 8.78093 21.6669 9.10839 21.2558 9.1084H16.2939C15.8828 9.1084 15.5497 8.78093 15.5497 8.37695C15.5497 7.97298 15.8828 7.64551 16.2939 7.64551H21.2558Z" fill="#48465C"/>
</svg>
