<svg width="24" height="24" viewBox="0 0 24 24" fill="none" xmlns="http://www.w3.org/2000/svg">
<path fill-rule="evenodd" clip-rule="evenodd" d="M10.1396 4.8125C10.8055 4.81196 11.3694 5.12599 11.9033 5.5459C12.4248 5.95611 13.0253 6.55659 13.7607 7.29199L14.1962 7.72754C14.9316 8.46292 15.5321 9.06344 15.9423 9.58496C16.3622 10.1189 16.6762 10.6829 16.6757 11.3486C16.6754 11.7211 16.5991 12.0894 16.4521 12.4316C16.1893 13.0434 15.6779 13.4374 15.081 13.7617C14.4979 14.0784 13.7094 14.3918 12.7431 14.7764L12.5517 14.8525C11.9396 15.0962 11.7786 15.1688 11.6552 15.2666C11.5465 15.3528 11.4525 15.4563 11.3779 15.5732C11.2932 15.706 11.2384 15.8739 11.0585 16.5078L11.0488 16.542C10.9273 16.9697 10.8209 17.3426 10.7079 17.6309C10.593 17.9244 10.4265 18.2537 10.1132 18.4834C9.75309 18.7474 9.30538 18.8638 8.86225 18.8086C8.47708 18.7605 8.17186 18.5546 7.92865 18.3545C7.68957 18.1577 7.41501 17.8839 7.10053 17.5693L6.03998 16.5088L3.87689 18.6719C3.58404 18.9647 3.10924 18.9647 2.81635 18.6719C2.52346 18.3791 2.52346 17.9042 2.81635 17.6113L4.97943 15.4482L3.91889 14.3877C3.60436 14.0733 3.3305 13.7986 3.13373 13.5596C2.9336 13.3163 2.72768 13.0111 2.67963 12.626C2.62448 12.1828 2.74081 11.7351 3.00482 11.375C3.23455 11.0616 3.5639 10.8952 3.85736 10.7803C4.14568 10.6673 4.51843 10.5609 4.94623 10.4395L4.98041 10.4297C5.61375 10.25 5.78128 10.1949 5.914 10.1104C6.03111 10.0356 6.13531 9.94184 6.22162 9.83301C6.31941 9.70957 6.39207 9.54862 6.63568 8.93652L6.71185 8.74512C7.09642 7.77882 7.40976 6.99027 7.7265 6.40723C8.05083 5.81026 8.44476 5.29901 9.05658 5.03613C9.39879 4.88911 9.76718 4.81282 10.1396 4.8125ZM21.9999 16.25C22.4141 16.25 22.7499 16.5858 22.7499 17C22.7497 17.414 22.4139 17.75 21.9999 17.75H12.9999C12.5859 17.75 12.2502 17.414 12.2499 17C12.2499 16.5858 12.5857 16.25 12.9999 16.25H21.9999ZM10.1406 6.3125C9.97136 6.31271 9.8038 6.34729 9.64838 6.41406C9.49824 6.47862 9.31093 6.63339 9.04486 7.12305C8.77602 7.61792 8.4941 8.32244 8.08685 9.3457L7.99506 9.57617C7.80172 10.063 7.64935 10.4466 7.3974 10.7646C7.20747 11.0043 6.97844 11.2105 6.72064 11.375C6.37865 11.593 5.98233 11.706 5.47846 11.8486L5.38959 11.873C4.9174 12.0071 4.61637 12.0936 4.40424 12.1768C4.27348 12.228 4.22138 12.2621 4.20697 12.2725C4.17689 12.3183 4.16295 12.373 4.16693 12.4277C4.17465 12.4442 4.20341 12.4988 4.29193 12.6064C4.43677 12.7823 4.65839 13.005 5.0058 13.3525L6.56146 14.9092L6.57025 14.917L8.13568 16.4824C8.48309 16.8299 8.70581 17.0515 8.88178 17.1963C8.98949 17.285 9.0441 17.3136 9.06049 17.3213C9.1152 17.3253 9.16988 17.3113 9.21576 17.2813C9.22616 17.2669 9.26025 17.2147 9.31146 17.084C9.39453 16.8719 9.48115 16.5708 9.61518 16.0986L9.63959 16.0098C9.78222 15.5059 9.89521 15.1096 10.1132 14.7676C10.2777 14.5097 10.484 14.2808 10.7236 14.0908C11.0416 13.8389 11.4252 13.6864 11.9121 13.4932L12.1425 13.4014C13.1657 12.9941 13.8703 12.7123 14.3652 12.4434C14.8549 12.1773 15.0095 11.99 15.0742 11.8398C15.1409 11.6844 15.1755 11.5169 15.1757 11.3477C15.1758 11.1843 15.1074 10.9501 14.7626 10.5117C14.4144 10.0692 13.8791 9.53245 13.1005 8.75391L12.7343 8.3877C11.9559 7.60918 11.4191 7.07378 10.9765 6.72559C10.5382 6.38075 10.304 6.31237 10.1406 6.3125ZM21.9999 11.75C22.4141 11.75 22.7499 12.0858 22.7499 12.5C22.7499 12.9142 22.4141 13.25 21.9999 13.25H17.9999C17.5857 13.25 17.2499 12.9142 17.2499 12.5C17.2499 12.0858 17.5857 11.75 17.9999 11.75H21.9999ZM21.9999 7.25C22.4141 7.25004 22.7499 7.58582 22.7499 8C22.7499 8.41419 22.4141 8.74996 21.9999 8.75H16.9999C16.5857 8.75 16.2499 8.41421 16.2499 8C16.2499 7.58579 16.5857 7.25 16.9999 7.25H21.9999Z" fill="#48465C"/>
</svg>
