<svg width="24" height="24" viewBox="0 0 24 24" fill="none" xmlns="http://www.w3.org/2000/svg">
<path d="M3.31376 3.31446C4.73269 1.89553 7.0335 1.89553 8.45243 3.31446L20.6858 15.5479C22.1044 16.9667 22.1045 19.2667 20.6858 20.6856C19.2669 22.1045 16.9661 22.1045 15.5472 20.6856L3.31376 8.45215C1.89538 7.03329 1.8953 4.73326 3.31376 3.31446ZM7.02177 10.0391L16.6077 19.625C17.4408 20.4582 18.7922 20.4582 19.6253 19.625C20.4582 18.792 20.4582 17.4415 19.6253 16.6084L10.0393 7.02149L7.02177 10.0391ZM4.66825 15.124C4.99555 14.2921 6.17122 14.2919 6.49833 15.124L6.65263 15.5176L7.04423 15.6729C7.87293 16.0014 7.87297 17.1764 7.04423 17.5049L6.65263 17.6602L6.49833 18.0537C6.17116 18.8856 4.99561 18.8855 4.66825 18.0537L4.51298 17.6602L4.12235 17.5049C3.29298 17.1766 3.29299 16.0012 4.12235 15.6729L4.51298 15.5176L4.66825 15.124ZM5.44169 15.8897C5.34203 16.1432 5.14171 16.3448 4.88798 16.4453L4.5247 16.5889L4.88798 16.7324C5.14175 16.8329 5.34205 17.0345 5.44169 17.2881L5.58329 17.6475L5.72392 17.2881C5.82355 17.0345 6.02388 16.8329 6.27763 16.7324L6.64189 16.5889L6.27763 16.4453C6.02389 16.3448 5.82357 16.1432 5.72392 15.8897L5.58329 15.5303L5.44169 15.8897ZM19.5022 8.94629C19.8296 8.11436 21.0052 8.1142 21.3323 8.94629L21.4866 9.33985L21.8782 9.49512C22.7069 9.82363 22.707 10.9987 21.8782 11.3272L21.4866 11.4824L21.3323 11.876C21.0051 12.7079 19.8296 12.7078 19.5022 11.876L19.347 11.4824L18.9563 11.3272C18.1269 10.9989 18.1269 9.82343 18.9563 9.49512L19.347 9.33985L19.5022 8.94629ZM20.2757 9.71192C20.1761 9.96542 19.9757 10.1671 19.722 10.2676L19.3587 10.4111L19.722 10.5547C19.9757 10.6552 20.1761 10.8568 20.2757 11.1104L20.4173 11.4697L20.5579 11.1104C20.6575 10.8568 20.8578 10.6552 21.1116 10.5547L21.4759 10.4111L21.1116 10.2676C20.8579 10.1671 20.6575 9.96545 20.5579 9.71192L20.4173 9.35254L20.2757 9.71192ZM7.39189 4.375C6.5588 3.54191 5.20844 3.54202 4.37528 4.375C3.54213 5.20814 3.54213 6.55847 4.37528 7.39161L5.96122 8.97852L8.97782 5.96094L7.39189 4.375ZM15.635 2.12403C15.9624 1.29208 17.138 1.2919 17.4651 2.12403L17.8929 3.21387L18.9778 3.64258C19.8068 3.97096 19.8068 5.14715 18.9778 5.47559L17.8929 5.90528L17.4651 6.99415C17.1381 7.82652 15.9623 7.82638 15.635 6.99415L15.2063 5.90528L14.1224 5.47559C13.2931 5.14729 13.2931 3.97089 14.1224 3.64258L15.2063 3.21387L15.635 2.12403ZM16.135 3.58497C16.0355 3.83851 15.8351 4.04015 15.5813 4.14063L14.5247 4.55958L15.5813 4.97754C15.8351 5.07801 16.0355 5.27964 16.135 5.53321L16.5501 6.58887L16.9642 5.53321C17.0637 5.27967 17.2642 5.07802 17.5179 4.97754L18.5755 4.55958L17.5179 4.14063C17.2643 4.04014 17.0637 3.83847 16.9642 3.58497L16.5501 2.53028L16.135 3.58497Z" fill="#48465C"/>
</svg>
