<svg width="24" height="24" viewBox="0 0 24 24" fill="none" xmlns="http://www.w3.org/2000/svg">
<path d="M20.1553 16.0776C21.2813 17.2037 21.2813 19.0296 20.1553 20.1557C19.0292 21.2815 17.2042 21.2814 16.0781 20.1557L6.49022 10.5678C6.50389 10.556 6.51728 10.5437 6.53026 10.5307L10.5303 6.5307C10.5434 6.51765 10.5565 6.50439 10.5683 6.49066L20.1553 16.0776ZM5.1328 15.3071C5.2937 14.8976 5.87112 14.8977 6.03221 15.3071L6.18944 15.7065C6.23858 15.8316 6.33731 15.9306 6.4619 15.9799L6.85936 16.1371C7.26744 16.2986 7.26744 16.879 6.85936 17.0405L6.4619 17.1977C6.33732 17.247 6.23858 17.346 6.18944 17.4711L6.03221 17.8705C5.8711 18.2798 5.29372 18.28 5.1328 17.8705L4.97655 17.4711C4.92743 17.3461 4.82861 17.247 4.70409 17.1977L4.30565 17.0405C3.89791 16.8789 3.89792 16.2988 4.30565 16.1371L4.70409 15.9799C4.82862 15.9306 4.92743 15.8315 4.97655 15.7065L5.1328 15.3071ZM19.9668 9.12933C20.1276 8.71984 20.7052 8.72001 20.8662 9.12933L21.0234 9.52874C21.0726 9.65379 21.1713 9.75287 21.2959 9.80218L21.6933 9.95941C22.1014 10.121 22.1014 10.7012 21.6933 10.8627L21.2959 11.02C21.1713 11.0693 21.0726 11.1684 21.0234 11.2934L20.8662 11.6928C20.7051 12.1021 20.1277 12.1023 19.9668 11.6928L19.8105 11.2934C19.7614 11.1684 19.6626 11.0693 19.5381 11.02L19.1396 10.8627C18.7319 10.7011 18.7319 10.1211 19.1396 9.95941L19.5381 9.80218C19.6626 9.75285 19.7614 9.65375 19.8105 9.52874L19.9668 9.12933ZM3.84471 3.84417C4.97063 2.71854 6.79589 2.71862 7.92186 3.84417L9.50975 5.43207C9.49602 5.44395 9.48276 5.45711 9.46971 5.47015L5.46971 9.47015C5.45674 9.48314 5.44443 9.49653 5.4326 9.51019L3.84471 7.9223C2.71867 6.79627 2.71867 4.9702 3.84471 3.84417ZM16.0996 2.30707C16.2606 1.89756 16.838 1.89773 16.999 2.30707L17.4297 3.40277C17.4789 3.52772 17.5776 3.62691 17.7021 3.67621L18.793 4.10785C19.2011 4.26939 19.2011 4.84865 18.793 5.01019L17.7021 5.44281C17.5776 5.49215 17.4789 5.59124 17.4297 5.71624L16.999 6.81097C16.838 7.22056 16.2606 7.22055 16.0996 6.81097L15.6699 5.71624C15.6207 5.59127 15.5219 5.49216 15.3974 5.44281L14.3057 5.01019C13.8982 4.84842 13.8981 4.26953 14.3057 4.10785L15.3974 3.67621C15.522 3.6269 15.6207 3.52773 15.6699 3.40277L16.0996 2.30707Z" fill="#48465C"/>
</svg>
