<svg width="24" height="24" viewBox="0 0 24 24" fill="none" xmlns="http://www.w3.org/2000/svg">
<path d="M16.7432 1.43669C17.4694 1.29675 18.2209 1.36312 18.9111 1.62907L18.9902 1.66032C19.4023 1.81904 19.853 1.84862 20.2822 1.74528C21.0301 1.56518 21.7497 2.13148 21.75 2.90056V5.12224C21.75 5.70564 21.3503 6.21298 20.7832 6.34978L20.7158 6.36638C19.9368 6.5539 19.1187 6.50021 18.3711 6.21208C17.9432 6.04724 17.4776 6.00521 17.0273 6.09196L16.75 6.14567V6.24919H17.5C20.3993 6.24919 22.7497 8.59987 22.75 11.4992V16.7931C22.7498 18.426 21.4258 19.7492 19.793 19.7492H15.25V21.9992C15.25 22.4134 14.9142 22.7492 14.5 22.7492C14.0858 22.7492 13.75 22.4134 13.75 21.9992V19.7492H11.25V21.9992C11.25 22.4134 10.9142 22.7492 10.5 22.7492C10.0858 22.7492 9.75 22.4134 9.75 21.9992V19.7492H4.23242C2.58527 19.7491 1.25 18.4139 1.25 16.7668V11.4992C1.25026 8.59987 3.60066 6.24919 6.5 6.24919C6.62211 6.24919 6.74325 6.25368 6.86328 6.26188C6.90753 6.25374 6.95339 6.24919 7 6.24919H15.25V2.75017C15.2502 2.15467 15.673 1.64312 16.2578 1.53044L16.7432 1.43669ZM6.5 7.74919C4.42909 7.74919 2.75026 9.4283 2.75 11.4992V16.7668C2.75 17.5855 3.41369 18.2491 4.23242 18.2492H10.25V11.4992C10.2497 9.4283 8.57091 7.74919 6.5 7.74919ZM10.1738 7.74919C11.1461 8.70198 11.7499 10.0303 11.75 11.4992V18.2492H19.793C20.5974 18.2492 21.2498 17.5976 21.25 16.7931V11.4992C21.2497 9.4283 19.5709 7.74919 17.5 7.74919H16.75V10.9992C16.75 11.4134 16.4142 11.7492 16 11.7492C15.5858 11.7492 15.25 11.4134 15.25 10.9992V7.74919H10.1738ZM8 15.2492C8.41405 15.2492 8.74974 15.5851 8.75 15.9992C8.75 16.4134 8.41421 16.7492 8 16.7492H5C4.58579 16.7492 4.25 16.4134 4.25 15.9992C4.25026 15.5851 4.58595 15.2492 5 15.2492H8ZM18.3711 3.02946C17.9432 2.86461 17.4777 2.82258 17.0273 2.90935L16.75 2.96306V4.61833C17.4742 4.48002 18.223 4.54749 18.9111 4.81267C19.3381 4.97715 19.802 5.01816 20.25 4.93278V3.27458C19.6437 3.35394 19.0246 3.28108 18.4502 3.05974L18.3711 3.02946Z" fill="#48465C"/>
</svg>
