<svg width="24" height="24" viewBox="0 0 24 24" fill="none" xmlns="http://www.w3.org/2000/svg">
<path d="M11 22.0001C11 22.4143 10.6642 22.7501 10.25 22.7501C9.83579 22.7501 9.5 22.4143 9.5 22.0001V20.0001H4.23242C2.99952 20 2.00006 18.8341 2 17.3956V11.2501C2.00003 8.3506 4.01474 6.00006 6.5 6.00006C8.98526 6.00006 11 8.3506 11 11.2501V22.0001ZM14.5 10.2813C14.5003 11.4522 15.4283 12.5001 16.6924 12.5001C17.9565 12.5 18.8845 11.4522 18.8848 10.2813V8.2276C19.6456 8.43297 20.4444 8.45732 21.2197 8.29498C21.7119 9.13672 22 10.1542 22 11.2501V17.4258C21.9998 18.8477 21.0117 20.0001 19.793 20.0001H15V22.0001C15 22.4143 14.6642 22.7501 14.25 22.7501C13.8358 22.7501 13.5 22.4143 13.5 22.0001V20.0001H12.5V11.2501C12.5 9.22023 11.6675 7.27609 10.2822 6.00006H14.5V10.2813ZM5 15.2501C4.58581 15.2501 4.25004 15.5859 4.25 16.0001C4.25 16.4143 4.58579 16.7501 5 16.7501H8C8.41421 16.7501 8.75 16.4143 8.75 16.0001C8.74996 15.5859 8.41419 15.2501 8 15.2501H5ZM17.3789 2.06842C18.0491 1.93432 18.742 1.99812 19.3789 2.25299L19.4521 2.28229C19.8327 2.43464 20.2491 2.46353 20.6455 2.36432C21.3358 2.19166 21.9998 2.73508 22 3.47272V5.60358C22 6.16316 21.631 6.65026 21.1074 6.78131L21.0459 6.79596C20.3269 6.9759 19.572 6.92474 18.8818 6.6485C18.4867 6.49032 18.0563 6.45005 17.6406 6.53327L17.3848 6.58502V10.2813C17.3845 10.6784 17.0746 11 16.6924 11.0001C16.3102 11.0001 16.0003 10.6784 16 10.2813V3.32819C16.0002 2.75722 16.3901 2.26643 16.9297 2.15827L17.3789 2.06842Z" fill="#48465C"/>
</svg>
