<svg width="24" height="24" viewBox="0 0 24 24" fill="none" xmlns="http://www.w3.org/2000/svg">
<path fill-rule="evenodd" clip-rule="evenodd" d="M18.2797 1.5303C19.3116 0.979327 20.3883 1.29796 21.0473 1.9883C21.7008 2.67285 21.9871 3.75611 21.5199 4.80373L14.1576 21.3135C13.303 23.23 10.6968 23.23 9.8422 21.3135L2.47989 4.80373C2.01273 3.75609 2.29905 2.67285 2.95255 1.9883C3.61159 1.29796 4.68817 0.979328 5.72013 1.5303L11.6234 4.68264C11.8619 4.80993 12.1379 4.80994 12.3764 4.68264L18.2797 1.5303ZM19.9623 3.02444C19.7006 2.75027 19.3416 2.66358 18.9858 2.85354L13.0824 6.00588C12.4027 6.36873 11.5972 6.36873 10.9174 6.00588L5.0131 2.85354C4.65741 2.66381 4.29918 2.75035 4.03751 3.02444C3.77047 3.30433 3.65042 3.74449 3.85001 4.19241L11.2123 20.7022C11.5383 21.4332 12.4615 21.4332 12.7875 20.7022L20.1498 4.19241C20.3493 3.74452 20.2294 3.30432 19.9623 3.02444Z" fill="#48465C"/>
</svg>
