<svg width="24" height="24" viewBox="0 0 24 24" fill="none" xmlns="http://www.w3.org/2000/svg">
<path d="M19.1973 2.48035C20.2449 2.01326 21.3281 2.29951 22.0127 2.95301C22.7029 3.61207 23.0217 4.68871 22.4707 5.72059L19.3184 11.6239C19.1911 11.8622 19.1913 12.1375 19.3184 12.3759L22.4707 18.2802C23.0215 19.3121 22.7029 20.3887 22.0127 21.0477C21.3282 21.7011 20.2448 21.9874 19.1973 21.5204L2.6875 14.1581C0.771036 13.3034 0.771036 10.6973 2.6875 9.84266L19.1973 2.48035ZM20.9766 4.03797C20.6966 3.77073 20.2558 3.65062 19.8076 3.85047L3.29786 11.2128C2.56716 11.5389 2.56705 12.462 3.29786 12.788L19.8076 20.1503C20.2557 20.3501 20.6966 20.2299 20.9766 19.9628C21.2507 19.7011 21.3375 19.342 21.1475 18.9862L17.9951 13.0829C17.6322 12.4031 17.6323 11.5977 17.9951 10.9179L21.1475 5.01356C21.3373 4.65786 21.2506 4.29965 20.9766 4.03797Z" fill="#48465C"/>
</svg>
