<svg width="24" height="24" viewBox="0 0 24 24" fill="none" xmlns="http://www.w3.org/2000/svg">
<path d="M9.84207 2.68637C10.6967 0.769907 13.3029 0.769907 14.1575 2.68637L21.5198 19.1961C21.9868 20.2437 21.7007 21.327 21.0472 22.0116C20.3882 22.7018 19.3114 23.0205 18.2796 22.4696L12.3763 19.3172C12.1378 19.1899 11.8618 19.1899 11.6233 19.3172L5.72 22.4696C4.6881 23.0205 3.61147 22.7018 2.95243 22.0116C2.29895 21.327 2.01274 20.2437 2.47977 19.1961L9.84207 2.68637ZM12.7874 3.29672C12.4613 2.56596 11.5383 2.56599 11.2122 3.29672L3.84989 19.8065C3.65005 20.2547 3.77017 20.6955 4.03739 20.9754C4.29903 21.2495 4.65733 21.336 5.01297 21.1463L10.9173 17.994C11.5971 17.6311 12.4025 17.631 13.0823 17.994L18.9856 21.1463C19.3414 21.3363 19.7005 21.2496 19.9622 20.9754C20.2294 20.6955 20.3495 20.2546 20.1497 19.8065L12.7874 3.29672Z" fill="#48465C"/>
</svg>
