<svg width="24" height="24" viewBox="0 0 24 24" fill="none" xmlns="http://www.w3.org/2000/svg">
<path fill-rule="evenodd" clip-rule="evenodd" d="M2.98926 4.73073C3.58015 4.45747 4.35708 4.72746 5.91016 5.26589C6.55114 5.48812 7.01907 5.64959 7.4082 5.74831C7.64943 5.8095 7.83294 6.01996 7.83301 6.26882V21.4192C7.83297 21.7246 7.56173 21.9564 7.2666 21.8782C6.81398 21.7578 6.27417 21.5704 5.57324 21.3274L4.2793 20.8792C3.17927 20.4978 2.62904 20.3067 2.31445 19.8528C1.99994 19.3988 2 18.7958 2 17.5901V8.19655C2 6.49373 2.00026 5.64236 2.43652 5.14577C2.5914 4.96951 2.77949 4.82779 2.98926 4.73073ZM13.8037 2.678C14.1158 2.47836 14.4997 2.70902 14.5 3.07937V18.1262C14.5 18.3166 14.3913 18.4898 14.2266 18.5852C13.8789 18.7865 13.4715 19.0691 12.916 19.4544L11.3799 20.5188C10.9152 20.841 10.5313 21.1072 10.1963 21.3216C9.88407 21.5213 9.5 21.2898 9.5 20.9192V5.87233C9.50006 5.6821 9.60888 5.50974 9.77344 5.41433C10.1211 5.21305 10.5284 4.93036 11.084 4.54519L12.6201 3.47976C13.0847 3.15763 13.4688 2.89231 13.8037 2.678ZM16.7334 2.12136C17.186 2.24176 17.7258 2.42813 18.4268 2.67116L19.7207 3.12038C20.8206 3.50172 21.3709 3.69187 21.6855 4.14577C22.0001 4.59968 22 5.20276 22 6.40847V15.802C22 17.5049 21.9998 18.3562 21.5635 18.8528C21.4086 19.0291 21.2205 19.1707 21.0107 19.2678C20.4199 19.5411 19.6429 19.2721 18.0898 18.7337C17.4488 18.5114 16.981 18.349 16.5918 18.2503C16.3506 18.1891 16.167 17.9787 16.167 17.7298V2.57937C16.1672 2.27404 16.4383 2.043 16.7334 2.12136Z" fill="#48465C"/>
</svg>
