<svg width="24" height="24" viewBox="0 0 24 24" fill="none" xmlns="http://www.w3.org/2000/svg">
<path fill-rule="evenodd" clip-rule="evenodd" d="M9.84214 2.68637C10.6968 0.769907 13.303 0.769907 14.1576 2.68637L21.5199 19.1961C21.9869 20.2437 21.7007 21.327 21.0472 22.0116C20.3882 22.7018 19.3115 23.0205 18.2796 22.4696L12.3763 19.3172C12.1378 19.1899 11.8619 19.1899 11.6234 19.3172L5.72007 22.4696C4.68816 23.0205 3.61153 22.7018 2.95249 22.0116C2.29901 21.327 2.0128 20.2437 2.47983 19.1961L9.84214 2.68637ZM12.7874 3.29672C12.4614 2.56596 11.5383 2.56599 11.2123 3.29672L3.84995 19.8065C3.65011 20.2547 3.77023 20.6955 4.03745 20.9754C4.29909 21.2495 4.65739 21.336 5.01303 21.1463L10.9173 17.994C11.5972 17.6311 12.4025 17.631 13.0824 17.994L18.9857 21.1463C19.3415 21.3363 19.7006 21.2496 19.9623 20.9754C20.2295 20.6955 20.3495 20.2546 20.1498 19.8065L12.7874 3.29672Z" fill="#48465C"/>
</svg>
