<svg width="24" height="24" viewBox="0 0 24 24" fill="none" xmlns="http://www.w3.org/2000/svg">
<path fill-rule="evenodd" clip-rule="evenodd" d="M1.98732 2.95306C2.67188 2.29953 3.75506 2.0132 4.80275 2.48041L21.3125 9.84271C23.229 10.6974 23.229 13.3034 21.3125 14.1581L4.80275 21.5204C3.75517 21.9875 2.67186 21.7012 1.98732 21.0478C1.297 20.3887 0.978412 19.3122 1.52931 18.2802L4.68165 12.3759C4.80867 12.1376 4.80884 11.8622 4.68165 11.624L1.52931 5.72064C0.978346 4.68871 1.29701 3.61212 1.98732 2.95306ZM4.19239 3.85053C3.74431 3.65071 3.3034 3.77086 3.02345 4.03803C2.74932 4.29972 2.66274 4.65789 2.85255 5.01361L6.00489 10.9179C6.36768 11.5977 6.36779 12.4032 6.00489 13.0829L2.85255 18.9863C2.66259 19.3421 2.74927 19.7011 3.02345 19.9628C3.3034 20.2299 3.74442 20.3502 4.19239 20.1503L20.7012 12.788C21.4322 12.462 21.4323 11.5388 20.7012 11.2128L4.19239 3.85053Z" fill="#48465C"/>
</svg>
