<svg width="24" height="24" viewBox="0 0 24 24" fill="none" xmlns="http://www.w3.org/2000/svg">
<path fill-rule="evenodd" clip-rule="evenodd" d="M19.1974 2.48035C20.245 2.01326 21.3282 2.29951 22.0128 2.95301C22.703 3.61207 23.0218 4.68871 22.4708 5.72059L19.3185 11.6239C19.1912 11.8622 19.1914 12.1375 19.3185 12.3759L22.4708 18.2802C23.0216 19.3121 22.703 20.3887 22.0128 21.0477C21.3283 21.7011 20.2449 21.9874 19.1974 21.5204L2.6876 14.1581C0.771127 13.3034 0.771127 10.6973 2.6876 9.84266L19.1974 2.48035ZM20.9767 4.03797C20.6967 3.77073 20.2559 3.65062 19.8077 3.85047L3.29795 11.2128C2.56725 11.5389 2.56714 12.462 3.29795 12.788L19.8077 20.1503C20.2558 20.3501 20.6966 20.2299 20.9767 19.9628C21.2508 19.7011 21.3376 19.342 21.1476 18.9862L17.9952 13.0829C17.6323 12.4031 17.6324 11.5977 17.9952 10.9179L21.1476 5.01356C21.3373 4.65786 21.2507 4.29965 20.9767 4.03797Z" fill="#48465C"/>
</svg>
