<svg width="24" height="24" viewBox="0 0 24 24" fill="none" xmlns="http://www.w3.org/2000/svg">
<path d="M18.2796 1.5303C19.3115 0.979327 20.3882 1.29796 21.0472 1.9883C21.7007 2.67285 21.987 3.75611 21.5198 4.80373L14.1575 21.3135C13.3029 23.23 10.6967 23.23 9.8421 21.3135L2.47979 4.80373C2.01263 3.75609 2.29896 2.67285 2.95245 1.9883C3.61149 1.29796 4.68807 0.979328 5.72003 1.5303L11.6233 4.68264C11.8618 4.80993 12.1378 4.80994 12.3763 4.68264L18.2796 1.5303ZM19.9622 3.02444C19.7005 2.75027 19.3415 2.66358 18.9857 2.85354L13.0823 6.00588C12.4026 6.36873 11.5971 6.36873 10.9173 6.00588L5.013 2.85354C4.65732 2.66381 4.29908 2.75035 4.03741 3.02444C3.77037 3.30433 3.65032 3.74449 3.84991 4.19241L11.2122 20.7022C11.5382 21.4332 12.4614 21.4332 12.7874 20.7022L20.1497 4.19241C20.3492 3.74452 20.2293 3.30432 19.9622 3.02444Z" fill="#48465C"/>
</svg>
