<svg width="24" height="24" viewBox="0 0 24 24" fill="none" xmlns="http://www.w3.org/2000/svg">
<path d="M1.98729 2.95306C2.67185 2.29953 3.75503 2.0132 4.80272 2.48041L21.3125 9.84271C23.229 10.6974 23.229 13.3034 21.3125 14.1581L4.80272 21.5204C3.75514 21.9875 2.67183 21.7012 1.98729 21.0478C1.29697 20.3887 0.978382 19.3122 1.52928 18.2802L4.68162 12.3759C4.80864 12.1376 4.80881 11.8622 4.68162 11.624L1.52928 5.72064C0.978315 4.68871 1.29698 3.61212 1.98729 2.95306ZM4.19236 3.85053C3.74428 3.65071 3.30336 3.77086 3.02342 4.03803C2.74929 4.29972 2.66271 4.65789 2.85252 5.01361L6.00486 10.9179C6.36765 11.5977 6.36776 12.4032 6.00486 13.0829L2.85252 18.9863C2.66256 19.3421 2.74924 19.7011 3.02342 19.9628C3.30337 20.2299 3.74439 20.3502 4.19236 20.1503L20.7012 12.788C21.4322 12.462 21.4323 11.5388 20.7012 11.2128L4.19236 3.85053Z" fill="#48465C"/>
</svg>
