<svg width="24" height="24" viewBox="0 0 24 24" fill="none" xmlns="http://www.w3.org/2000/svg">
<path fill-rule="evenodd" clip-rule="evenodd" d="M14.9453 2.59261C15.8084 2.47703 16.6508 2.75768 17.8613 3.16194C17.9139 3.1795 17.9675 3.19766 18.0215 3.21566L19.2227 3.61605C19.6858 3.77037 20.0921 3.90571 20.4141 4.0555C20.7621 4.21743 21.0813 4.42615 21.3252 4.76448C21.5691 5.10288 21.6664 5.47187 21.71 5.85335C21.7502 6.20617 21.75 6.63392 21.75 7.12191V15.3348C21.75 16.0332 21.7504 16.6221 21.6963 17.0877C21.6401 17.5715 21.5136 18.0496 21.1611 18.4354C20.9521 18.6642 20.6981 18.8475 20.415 18.9735C19.9376 19.1859 19.4436 19.1542 18.9668 19.0545C18.5079 18.9587 17.9486 18.7725 17.2861 18.5516L17.2441 18.5379C16.1236 18.1643 15.739 18.0477 15.3662 18.0604C15.2179 18.0655 15.0702 18.0849 14.9258 18.119C14.5628 18.2048 14.223 18.4189 13.2402 19.0741L11.8574 19.995C11.8102 20.0264 11.7638 20.058 11.7178 20.0887C10.6563 20.7972 9.91768 21.2905 9.05469 21.4061C8.19162 21.5217 7.34921 21.2401 6.13867 20.8358C6.08614 20.8182 6.03247 20.801 5.97852 20.783L4.77637 20.3817C4.31348 20.2274 3.90786 20.092 3.58594 19.9422C3.2378 19.7802 2.91871 19.5716 2.67481 19.2332C2.43103 18.895 2.33361 18.5267 2.29004 18.1453C2.24975 17.7924 2.24997 17.3639 2.25 16.8758V8.6639C2.24998 7.96546 2.24957 7.37566 2.30371 6.90999C2.35998 6.42631 2.48643 5.94807 2.83887 5.56234C3.04789 5.33358 3.30188 5.15024 3.58496 5.02425C4.06242 4.81183 4.55648 4.84359 5.03321 4.94319C5.4921 5.03908 6.05128 5.22523 6.71387 5.44612L6.75586 5.46077C7.87642 5.8343 8.26101 5.95006 8.63379 5.93734C8.78218 5.93225 8.92973 5.91289 9.07422 5.87874C9.43718 5.79295 9.77719 5.57972 10.7598 4.92464L12.1426 4.00276C12.1898 3.97126 12.2362 3.93972 12.2822 3.90901C13.3436 3.20055 14.0824 2.70825 14.9453 2.59261ZM4.72656 6.41194C4.37138 6.33773 4.24966 6.37116 4.19531 6.39534C4.10096 6.43732 4.01598 6.49782 3.94629 6.57405C3.90617 6.61796 3.83586 6.7234 3.79395 7.08382C3.75113 7.45238 3.75 7.95359 3.75 8.70882V16.8367C3.75 17.3755 3.7509 17.7169 3.78028 17.9744C3.8075 18.2129 3.85239 18.3018 3.8916 18.3563C3.93083 18.4107 4.00109 18.4815 4.21875 18.5828C4.45383 18.6921 4.77711 18.8013 5.28809 18.9715L6.45313 19.3592C7.33945 19.6546 7.86548 19.8229 8.25 19.8934V7.41976C7.7144 7.3617 7.15033 7.17368 6.40723 6.92562C6.3662 6.91193 6.32437 6.89766 6.28223 6.88362C5.56569 6.64478 5.08976 6.48786 4.72656 6.41194ZM14.25 4.43245C13.9388 4.61226 13.5398 4.87401 12.9746 5.25081L11.5918 6.17269C11.5548 6.19734 11.5184 6.22192 11.4824 6.24593C10.7942 6.70516 10.2809 7.04692 9.75 7.23909V19.5653C10.0612 19.3855 10.4602 19.1236 11.0254 18.7469L12.4082 17.826C12.4452 17.8014 12.4816 17.7768 12.5176 17.7528C13.2059 17.2935 13.719 16.9507 14.25 16.7586V4.43245ZM15.75 16.578C16.2857 16.6361 16.8496 16.825 17.5928 17.0731C17.6337 17.0867 17.6756 17.1001 17.7178 17.1141C18.4344 17.353 18.9102 17.5108 19.2734 17.5867C19.6281 17.6608 19.7502 17.6274 19.8047 17.6034C19.8991 17.5614 19.984 17.5 20.0537 17.4237C20.0938 17.3797 20.1642 17.2748 20.2061 16.9149C20.249 16.5463 20.25 16.0452 20.25 15.2899V7.16097C20.25 6.62213 20.2491 6.28088 20.2197 6.02327C20.1924 5.78475 20.1477 5.69587 20.1084 5.64144C20.0692 5.58703 19.9988 5.51703 19.7813 5.41585C19.5462 5.30652 19.2229 5.19752 18.7119 5.02718L17.5469 4.63851C16.6606 4.34307 16.1345 4.17481 15.75 4.10433V16.578Z" fill="#48465C"/>
</svg>
