<svg width="24" height="24" viewBox="0 0 24 24" fill="none" xmlns="http://www.w3.org/2000/svg">
<path fill-rule="evenodd" clip-rule="evenodd" d="M9.75654 1.33002C10.3067 1.17405 10.8411 1.26448 11.3786 1.44331C11.8945 1.61496 12.5109 1.90358 13.2526 2.25092L13.2936 2.27045C14.4612 2.81722 14.986 3.06101 15.529 3.23334C15.7213 3.29438 15.9155 3.34879 16.111 3.39643C16.6631 3.53083 17.2338 3.59363 18.5065 3.73041L18.5524 3.7353C19.3605 3.82212 20.0328 3.89448 20.5622 4.01557C21.116 4.14231 21.6164 4.34335 22.0104 4.75776C22.2394 4.99866 22.4241 5.27895 22.5563 5.58491C22.781 6.10514 22.7824 6.64957 22.6999 7.22456C22.6204 7.77913 22.4462 8.45637 22.2351 9.28022L21.3796 12.6191C20.6635 15.4128 18.8463 16.9654 17.0231 17.8085C16.2976 19.383 15.1597 20.5899 14.2194 21.3925L14.1979 21.4101C13.9474 21.624 13.7007 21.8348 13.3776 22.0195C13.042 22.2113 12.6535 22.3601 12.1091 22.5126C11.5648 22.665 11.1561 22.7397 10.7712 22.749C10.4004 22.7579 10.0834 22.7037 9.76435 22.6494L9.73701 22.6455C7.41556 22.2509 3.72498 20.9308 2.61982 16.6191L1.76435 13.2802C1.55318 12.4564 1.37903 11.7791 1.29951 11.2246C1.21708 10.6496 1.21931 10.1052 1.44404 9.58491C1.57627 9.27896 1.7609 8.99865 1.98994 8.75776C2.38402 8.34334 2.88427 8.14229 3.43818 8.01557C3.96749 7.8945 4.63988 7.82212 5.44794 7.7353L5.49287 7.73041C6.01178 7.67464 6.41404 7.63082 6.74579 7.58979L7.37079 5.15131C7.58191 4.32759 7.75626 3.64921 7.95283 3.1269C8.15604 2.58704 8.41959 2.10987 8.87275 1.76948C9.13841 1.56994 9.4375 1.42049 9.75654 1.33002ZM13.8337 6.77338C13.7003 6.73562 13.5044 6.7297 13.0944 6.86616C12.672 7.00672 12.1361 7.25717 11.3425 7.62885L11.2888 7.65327C10.1887 8.16849 9.57188 8.45754 8.92451 8.66303C8.69947 8.73447 8.47199 8.79768 8.24287 8.85346C7.58348 9.01398 6.91045 9.08693 5.71162 9.21577L5.65302 9.22163C4.7878 9.31461 4.20462 9.37856 3.77216 9.47748C3.3548 9.573 3.18208 9.68038 3.07685 9.79096C2.9712 9.90208 2.88421 10.0342 2.82099 10.1806C2.75426 10.3352 2.71992 10.5587 2.78486 11.0117C2.85143 11.4758 3.00374 12.0744 3.22822 12.9501L4.07294 16.247C4.95462 19.6868 7.87017 20.806 9.98798 21.166C10.3366 21.2252 10.521 21.2542 10.7351 21.249C10.9458 21.2438 11.2208 21.2038 11.7048 21.0683C12.1882 20.9328 12.4465 20.8236 12.6335 20.7167C12.8241 20.6078 12.9723 20.4843 13.2458 20.2509C14.9146 18.8262 16.9168 16.3148 16.0319 12.8623L15.1862 9.56538C14.9616 8.68923 14.8075 8.09151 14.6433 7.65522C14.4824 7.22811 14.3481 7.06026 14.2263 6.9687C14.1062 6.87856 13.973 6.81287 13.8337 6.77338ZM10.194 15.2246C11.2251 14.9483 12.0632 15.0243 12.6608 15.1865C12.9571 15.267 13.1909 15.3681 13.3561 15.4531C13.4383 15.4954 13.5039 15.5339 13.5524 15.5644C13.5768 15.5798 13.5972 15.5936 13.613 15.6044L13.6335 15.6181L13.6413 15.624L13.6442 15.6269L13.6462 15.6279L13.6472 15.6289C13.9798 15.8758 14.0492 16.3451 13.8024 16.6777C13.5578 17.0072 13.0944 17.0786 12.7624 16.8398L12.7526 16.8339C12.7383 16.8249 12.7107 16.8072 12.6696 16.7861C12.5868 16.7434 12.4515 16.6835 12.2683 16.6337C11.9067 16.5354 11.3387 16.4713 10.5827 16.6738C9.82674 16.8763 9.36729 17.2165 9.10322 17.4824C8.96954 17.617 8.88221 17.736 8.83173 17.8144C8.8067 17.8533 8.79085 17.8823 8.7829 17.8974L8.77704 17.9081C8.6088 18.2807 8.17208 18.4501 7.7956 18.2871C7.41575 18.1225 7.24078 17.6817 7.40497 17.3017L7.40888 17.2939L7.41279 17.2851L7.42255 17.2626C7.43079 17.2454 7.44236 17.2236 7.45576 17.1982C7.48256 17.1473 7.51987 17.0807 7.57001 17.0029C7.67053 16.8467 7.82244 16.6436 8.03876 16.4257C8.4752 15.9863 9.16283 15.5009 10.194 15.2246ZM10.1657 2.77338C10.0264 2.81288 9.89315 2.87856 9.77314 2.9687C9.65129 3.06031 9.51684 3.2283 9.35615 3.65522C9.19195 4.09152 9.03776 4.6892 8.81318 5.56538L8.37861 7.26166C8.40922 7.25232 8.43988 7.24303 8.4704 7.23334C8.83589 7.11733 9.1932 6.96824 9.74384 6.71674C9.71608 6.53104 9.7579 6.33471 9.87568 6.16987C10.4261 5.3995 11.4284 5.04681 12.3874 5.30366C12.4985 5.33344 12.6064 5.37024 12.7097 5.41401C13.2172 5.25472 13.723 5.18277 14.2429 5.33002C14.5619 5.42048 14.8619 5.56994 15.1276 5.76948C15.5806 6.10989 15.8443 6.58711 16.0476 7.1269C16.0654 7.17429 16.0828 7.22344 16.1003 7.27338C16.6656 6.82612 17.4375 6.65758 18.1833 6.85737C19.1425 7.11437 19.835 7.92074 19.9265 8.86323C19.9664 9.27544 19.6639 9.64156 19.2517 9.68159C18.8396 9.72145 18.4733 9.41995 18.4333 9.00776C18.4045 8.71185 18.1741 8.40709 17.7956 8.30561C17.4171 8.20419 17.0653 8.35294 16.8923 8.59467C16.8042 8.71809 16.685 8.80733 16.5534 8.85834L17.4851 12.4902C17.7827 13.6517 17.813 14.7227 17.6638 15.6972C18.6659 14.9483 19.5144 13.8547 19.9265 12.247L20.7722 8.95014C20.9966 8.07431 21.149 7.47581 21.2155 7.01166C21.2805 6.55898 21.246 6.33521 21.1794 6.18061C21.1162 6.03429 21.0291 5.90207 20.9235 5.79096C20.8183 5.68028 20.6451 5.57308 20.2272 5.47749C19.7947 5.37856 19.2116 5.31462 18.3464 5.22163L18.2878 5.21577C17.0889 5.08694 16.4159 5.014 15.7565 4.85346C15.5275 4.79768 15.2998 4.73445 15.0749 4.66303C14.4276 4.45755 13.8107 4.16841 12.7106 3.65327L12.6579 3.62885C11.8641 3.25713 11.3274 3.00673 10.905 2.86616C10.4948 2.72973 10.2991 2.73556 10.1657 2.77338ZM6.25458 11.2167C7.21364 10.9598 8.2158 11.3126 8.7663 12.083C9.00708 12.4199 8.92941 12.888 8.59247 13.1289C8.25552 13.3696 7.78742 13.2918 7.54658 12.955C7.37371 12.7131 7.02187 12.5647 6.64326 12.666C6.26455 12.7675 6.03429 13.0721 6.00556 13.3681C5.96541 13.7803 5.59842 14.082 5.18622 14.0419C4.77395 14.0019 4.47237 13.6349 4.5124 13.2226C4.60401 12.2803 5.2956 11.4736 6.25458 11.2167ZM12.0505 9.66303C13.0095 9.40606 14.0118 9.75888 14.5622 10.5292C14.803 10.8662 14.7253 11.3343 14.3884 11.5751C14.0514 11.8159 13.5833 11.7382 13.3425 11.4013C13.1696 11.1594 12.8178 11.0109 12.4392 11.1123C12.0605 11.2137 11.8303 11.5184 11.8015 11.8144C11.7614 12.2266 11.3943 12.5282 10.9821 12.4882C10.5699 12.4482 10.2683 12.0811 10.3083 11.6689C10.3999 10.7266 11.0916 9.92003 12.0505 9.66303Z" fill="#48465C"/>
</svg>
