<svg width="24" height="24" viewBox="0 0 24 24" fill="none" xmlns="http://www.w3.org/2000/svg">
<path d="M11.0246 6.94905C12.5784 6.22145 13.3556 5.8578 14.0392 6.05159C14.2683 6.11655 14.4841 6.22424 14.6769 6.36898C15.2521 6.80104 15.4727 7.66084 15.9133 9.37972L16.758 12.6766C17.7515 16.5526 15.4744 19.3352 13.7326 20.8221C13.2012 21.2757 12.9356 21.5029 11.9074 21.7909C10.8793 22.0789 10.5404 22.021 9.86346 21.9061C7.64382 21.5289 4.34032 20.3093 3.34686 16.4334L2.50213 13.1366C2.06156 11.4177 1.84049 10.5575 2.13202 9.88265C2.22974 9.65647 2.36602 9.45028 2.53338 9.27425C3.03274 8.74926 3.87986 8.65842 5.57342 8.4764C6.82738 8.34163 7.45468 8.27451 8.06561 8.12581C8.27807 8.07409 8.48969 8.01434 8.69842 7.94808C9.2986 7.75752 9.8742 7.48777 11.0246 6.94905ZM12.6613 15.1873C12.0636 15.025 11.2247 14.9491 10.1935 15.2254C9.16258 15.5017 8.47463 15.9862 8.03827 16.4256C7.82198 16.6435 7.67003 16.8466 7.56952 17.0028C7.51923 17.0809 7.48208 17.1482 7.45526 17.1991C7.44188 17.2245 7.43125 17.2463 7.42303 17.2635L7.41229 17.286L7.40838 17.2948L7.40643 17.2987L7.40545 17.2996C7.40545 17.2996 7.4057 17.3013 8.09393 17.5994L7.40545 17.3016C7.24087 17.6816 7.41513 18.1233 7.7951 18.2879C8.17163 18.451 8.60837 18.2807 8.77655 17.908L8.78241 17.8983C8.79029 17.8833 8.80612 17.8542 8.83123 17.8153C8.88166 17.7369 8.96883 17.6171 9.10272 17.4823C9.36678 17.2164 9.82621 16.8762 10.5822 16.6737C11.3383 16.4711 11.9062 16.5363 12.2678 16.6346C12.4512 16.6844 12.5862 16.7443 12.6691 16.7869C12.7104 16.8082 12.7388 16.8248 12.7531 16.8338L12.7629 16.8407C13.0948 17.0791 13.5585 17.0079 13.8029 16.6785C14.0498 16.346 13.9802 15.8757 13.6476 15.6287L13.6457 15.6278L13.6447 15.6268L13.6408 15.6248L13.6135 15.6043C13.5977 15.5935 13.5771 15.5806 13.5529 15.5653C13.5042 15.5346 13.4382 15.4955 13.3556 15.453C13.1905 15.368 12.9575 15.2678 12.6613 15.1873ZM9.9992 2.05159C10.6827 1.85779 11.4602 2.22149 13.0139 2.94905C14.1646 3.48793 14.7407 3.75751 15.341 3.94808C15.5497 4.0143 15.7604 4.07412 15.9728 4.12581C16.5838 4.27454 17.211 4.34163 18.465 4.4764C20.1585 4.65842 21.0057 4.74931 21.5051 5.27425C21.6724 5.45027 21.8087 5.65648 21.9064 5.88265C22.1979 6.5575 21.9769 7.41766 21.5363 9.13655L20.6916 12.4334C20.2621 14.1092 19.3849 15.2888 18.3547 16.118C18.574 14.9744 18.5689 13.7004 18.2111 12.3045L17.3478 8.93343C17.2967 8.73369 17.2457 8.53854 17.1965 8.35042C17.3678 8.27273 17.5778 8.248 17.7961 8.30648C18.1745 8.40808 18.405 8.71272 18.4338 9.00862C18.4739 9.42065 18.84 9.72237 19.2521 9.68245C19.6644 9.64243 19.9661 9.27539 19.926 8.86312C19.8345 7.92075 19.1428 7.11423 18.1838 6.85726C17.7012 6.72797 17.2072 6.75306 16.7658 6.90804L16.7492 6.86312C16.5247 6.26691 16.197 5.63456 15.5783 5.16976C15.2399 4.91557 14.8572 4.72418 14.4484 4.60823C13.6899 4.3932 12.9859 4.53231 12.3849 4.73226C11.8266 4.91803 11.1753 5.22247 10.4601 5.55745L10.3879 5.59066C9.20362 6.14524 8.72975 6.36428 8.24432 6.51839C8.09703 6.56514 7.94843 6.60816 7.79901 6.64632L8.12518 5.37972C8.56575 3.66084 8.78627 2.80104 9.36151 2.36898C9.55424 2.22423 9.77018 2.11656 9.9992 2.05159ZM8.76678 12.0828C8.21627 11.3127 7.21396 10.9598 6.25506 11.2166C5.29594 11.4736 4.60437 12.2811 4.51288 13.2235C4.473 13.6357 4.77452 14.0018 5.1867 14.0418C5.59894 14.0818 5.96505 13.7803 6.00506 13.368C6.03385 13.0721 6.26435 12.7674 6.64276 12.6659C7.02122 12.5644 7.37306 12.7132 7.54608 12.9549C7.78687 13.2919 8.25592 13.3705 8.59295 13.1297C8.92998 12.8889 9.00758 12.4198 8.76678 12.0828ZM14.5627 10.5301C14.0123 9.7597 13.01 9.40693 12.051 9.6639C11.0918 9.92087 10.4004 10.7274 10.3088 11.6698C10.2688 12.0821 10.5703 12.4491 10.9826 12.4891C11.3947 12.529 11.7608 12.2273 11.801 11.8153C11.8296 11.5193 12.0603 11.2148 12.4387 11.1131C12.8173 11.0116 13.1691 11.1602 13.342 11.4022C13.5828 11.7393 14.0519 11.8168 14.3889 11.576C14.7257 11.3352 14.8034 10.8671 14.5627 10.5301Z" fill="#48465C"/>
</svg>
