<svg width="24" height="24" viewBox="0 0 24 24" fill="none" xmlns="http://www.w3.org/2000/svg">
<path fill-rule="evenodd" clip-rule="evenodd" d="M3.70703 2.40498C4.41423 1.78422 5.49544 1.97014 7.65723 2.34346L8.71191 2.52608C10.3522 2.80933 11.1724 2.95088 12 2.95088C12.8276 2.95088 13.6478 2.80933 15.2881 2.52608L16.3428 2.34346C18.5046 1.97014 19.5858 1.78422 20.293 2.40498C20.9999 3.02584 21 4.16066 21 6.4294V11.9011C21 17.5899 16.7612 20.3509 14.1016 21.5231C13.3802 21.8411 13.0193 21.9997 12 21.9997C10.9807 21.9997 10.6199 21.8411 9.89844 21.5231C7.23884 20.3509 3 17.59 3 11.9011V6.4294C3 4.16063 3.00009 3.02583 3.70703 2.40498ZM16.043 13.4372C15.7598 13.1294 15.2914 13.1153 14.9912 13.403H14.9902C14.9883 13.4048 14.9833 13.4092 14.9756 13.4157C14.9576 13.431 14.9234 13.459 14.873 13.4948C14.7723 13.5664 14.6054 13.6714 14.3672 13.78C13.8922 13.9963 13.1196 14.2321 12 14.2321C10.8804 14.2321 10.1079 13.9963 9.63281 13.78C9.39454 13.6714 9.22769 13.5664 9.12695 13.4948C9.09122 13.4694 9.04381 13.4313 9.02441 13.4157C8.72419 13.1273 8.24036 13.1292 7.95703 13.4372C7.67142 13.7479 7.68853 14.2457 7.98828 14.5417L7.99023 14.5437C8.00227 14.5549 8.05203 14.6003 8.0752 14.6198C8.12418 14.6613 8.19201 14.7148 8.27832 14.7761C8.45101 14.8988 8.69943 15.0526 9.0293 15.2028C9.69177 15.5045 10.6696 15.7868 12 15.7868C13.3304 15.7868 14.3082 15.5045 14.9707 15.2028C15.3005 15.0526 15.549 14.8988 15.7217 14.7761C15.808 14.7148 15.8758 14.6613 15.9248 14.6198C15.9492 14.5992 15.969 14.5811 15.9844 14.5671L16.0039 14.5485L16.0117 14.5417L16.0176 14.5358C16.3172 14.2398 16.3285 13.7479 16.043 13.4372ZM8.5 6.9792C7.39659 6.9792 6.28793 7.49386 5.8291 8.44502C5.64395 8.82895 5.79451 9.29615 6.16504 9.48799C6.53543 9.67956 6.98572 9.52397 7.1709 9.14033C7.29437 8.88431 7.75678 8.53389 8.5 8.53389C9.24322 8.53389 9.70563 8.88431 9.8291 9.14033C10.0143 9.52399 10.4646 9.67959 10.835 9.48799C11.2056 9.29615 11.3561 8.82895 11.1709 8.44502C10.712 7.49386 9.60341 6.9792 8.5 6.9792ZM15.5 6.9792C14.3966 6.9792 13.288 7.49386 12.8291 8.44502C12.6439 8.82895 12.7944 9.29615 13.165 9.48799C13.5354 9.67959 13.9857 9.52399 14.1709 9.14033C14.2944 8.88431 14.7568 8.53389 15.5 8.53389C16.2432 8.53389 16.7056 8.88431 16.8291 9.14033C17.0143 9.52399 17.4646 9.67959 17.835 9.48799C18.2056 9.29615 18.3561 8.82895 18.1709 8.44502C17.712 7.49386 16.6034 6.9792 15.5 6.9792Z" fill="#48465C"/>
</svg>
