<svg width="24" height="24" viewBox="0 0 24 24" fill="none" xmlns="http://www.w3.org/2000/svg">
<path d="M16.3428 2.344C18.5046 1.97067 19.5858 1.78378 20.293 2.40454C21.0002 3.0253 21 4.16009 21 6.42896V11.9016C20.9999 17.5901 16.7611 20.3504 14.1016 21.5227C13.3802 21.8407 13.0193 22.0002 12 22.0002C10.9807 22.0002 10.6199 21.8407 9.89844 21.5227C7.23886 20.3505 3.00011 17.5902 3 11.9016V6.42896C3 4.16008 2.99982 3.0253 3.70703 2.40454C4.41424 1.78381 5.49544 1.97067 7.65723 2.344L8.71191 2.52661C10.3522 2.80986 11.1724 2.95142 12 2.95142C12.8276 2.95142 13.6478 2.80986 15.2881 2.52661L16.3428 2.344ZM16.043 13.4377C15.76 13.1299 15.2915 13.1151 14.9912 13.4026L14.9902 13.4036C14.9883 13.4054 14.9833 13.4098 14.9756 13.4163C14.9575 13.4316 14.9233 13.4587 14.873 13.4944C14.7724 13.566 14.6058 13.6718 14.3672 13.7805C13.8922 13.9968 13.1196 14.2327 12 14.2327C10.8804 14.2327 10.1079 13.9968 9.63281 13.7805C9.39422 13.6718 9.22767 13.566 9.12695 13.4944C9.0913 13.4691 9.04389 13.4319 9.02441 13.4163C8.72414 13.1278 8.24034 13.1295 7.95703 13.4377C7.67138 13.7485 7.68839 14.2462 7.98828 14.5422L7.99023 14.5432C8.00193 14.5542 8.05196 14.6008 8.0752 14.6204C8.12418 14.6619 8.19201 14.7153 8.27832 14.7766C8.45102 14.8993 8.69946 15.0531 9.0293 15.2034C9.69177 15.5051 10.6696 15.7874 12 15.7874C13.3304 15.7874 14.3082 15.5051 14.9707 15.2034C15.3005 15.0531 15.549 14.8993 15.7217 14.7766C15.808 14.7153 15.8758 14.6619 15.9248 14.6204C15.9492 14.5997 15.969 14.5817 15.9844 14.5676L16.0039 14.5491L16.0117 14.5422L16.0146 14.5393L16.0156 14.5374L16.0176 14.5364C16.3173 14.2404 16.3286 13.7485 16.043 13.4377ZM8.5 6.97974C7.39651 6.97974 6.28787 7.49426 5.8291 8.44556C5.64397 8.82948 5.79452 9.29669 6.16504 9.48853C6.53549 9.68004 6.98582 9.52368 7.1709 9.13989C7.29459 8.8839 7.75707 8.53345 8.5 8.53345C9.24293 8.53345 9.70541 8.8839 9.8291 9.13989C10.0142 9.52369 10.4645 9.68007 10.835 9.48853C11.2056 9.29669 11.3561 8.82948 11.1709 8.44556C10.7121 7.49426 9.60349 6.97974 8.5 6.97974ZM15.5 6.97974C14.3965 6.97974 13.2879 7.49426 12.8291 8.44556C12.6439 8.82948 12.7944 9.29669 13.165 9.48853C13.5355 9.68007 13.9858 9.52369 14.1709 9.13989C14.2946 8.8839 14.7571 8.53345 15.5 8.53345C16.2429 8.53345 16.7054 8.8839 16.8291 9.13989C17.0142 9.52369 17.4645 9.68007 17.835 9.48853C18.2056 9.29669 18.3561 8.82948 18.1709 8.44556C17.7121 7.49426 16.6035 6.97974 15.5 6.97974Z" fill="#48465C"/>
</svg>
