<svg width="24" height="24" viewBox="0 0 24 24" fill="none" xmlns="http://www.w3.org/2000/svg">
<path fill-rule="evenodd" clip-rule="evenodd" d="M3.70703 2.38436C4.41424 1.79464 5.49542 1.97207 7.65723 2.32674L8.71191 2.49959C10.3522 2.76869 11.1724 2.90389 12 2.90389C12.8276 2.90389 13.6478 2.76869 15.2881 2.49959L16.3428 2.32674C18.5046 1.97207 19.5858 1.79464 20.293 2.38436C21.0002 2.97411 21 4.05215 21 6.2076V11.4058C21 16.8103 16.7612 19.4337 14.1016 20.5474C13.3802 20.8495 13.0193 21.0006 12 21.0006C10.9807 21.0006 10.6199 20.8495 9.89844 20.5474C7.23884 19.4337 3 16.8103 3 11.4058V6.2076C3 4.05212 2.99982 2.9741 3.70703 2.38436ZM12 12.6363C10.6696 12.6363 9.69177 12.9043 9.0293 13.191C8.69952 13.3336 8.45103 13.4797 8.27832 13.5963C8.19201 13.6546 8.12418 13.7053 8.0752 13.7447C8.05072 13.7644 8.03107 13.7821 8.01562 13.7955L7.99609 13.8131C7.69626 14.0943 7.6714 14.5736 7.95703 14.8687C8.24034 15.1614 8.70952 15.175 9.00977 14.901L9.01562 14.8961L9.02441 14.8892C9.02961 14.885 9.03608 14.8797 9.04395 14.8736C9.0633 14.8588 9.09124 14.8381 9.12695 14.814C9.22767 14.7461 9.39462 14.6466 9.63281 14.5435C10.1079 14.3379 10.8804 14.1129 12 14.1129C13.1196 14.1129 13.8921 14.3379 14.3672 14.5435C14.6054 14.6466 14.7723 14.7461 14.873 14.814C14.9234 14.848 14.9576 14.8747 14.9756 14.8892L14.9863 14.8971L14.9912 14.9019C15.2916 15.1749 15.76 15.161 16.043 14.8687C16.3286 14.5736 16.3174 14.106 16.0176 13.8248L16.0156 13.8238L16.0146 13.8219L16.0117 13.8189L16.0039 13.8131L15.9844 13.7955C15.969 13.7821 15.9493 13.7644 15.9248 13.7447C15.8758 13.7053 15.808 13.6546 15.7217 13.5963C15.549 13.4797 15.3004 13.3336 14.9707 13.191C14.3082 12.9043 13.3304 12.6363 12 12.6363ZM8.5 6.73104C7.39657 6.73109 6.28786 7.21993 5.8291 8.12362C5.64424 8.48828 5.79463 8.93165 6.16504 9.11385C6.53553 9.29598 6.98577 9.14747 7.1709 8.7828C7.29458 8.53961 7.75718 8.20765 8.5 8.2076C9.24279 8.2076 9.70531 8.5396 9.8291 8.7828C10.0142 9.14738 10.4645 9.29578 10.835 9.11385C11.2054 8.93163 11.3558 8.48831 11.1709 8.12362C10.7121 7.21989 9.60349 6.73104 8.5 6.73104ZM15.5 6.73104C14.3966 6.7311 13.2878 7.21994 12.8291 8.12362C12.6442 8.48827 12.7947 8.93165 13.165 9.11385C13.5355 9.29597 13.9857 9.14746 14.1709 8.7828C14.2945 8.53961 14.7571 8.20766 15.5 8.2076C16.2428 8.2076 16.7053 8.53961 16.8291 8.7828C17.0141 9.14738 17.4645 9.29578 17.835 9.11385C18.2054 8.93163 18.3558 8.48831 18.1709 8.12362C17.7121 7.21989 16.6035 6.73104 15.5 6.73104Z" fill="#48465C"/>
</svg>
