<svg width="24" height="24" viewBox="0 0 24 24" fill="none" xmlns="http://www.w3.org/2000/svg">
<path fill-rule="evenodd" clip-rule="evenodd" d="M11.0243 6.94899C12.5783 6.22129 13.3552 5.85772 14.0389 6.05153C14.268 6.11651 14.4838 6.22413 14.6766 6.36892C15.2518 6.80096 15.4724 7.65996 15.9129 9.37868L16.7586 12.6765C17.7519 16.5522 15.474 19.3342 13.7323 20.8211C13.2009 21.2747 12.9353 21.5018 11.9071 21.7898C10.8788 22.0779 10.5402 22.02 9.86313 21.905C7.64355 21.5279 4.34008 20.3091 3.34653 16.4334L2.50181 13.1355C2.06125 11.4167 1.84114 10.5574 2.13267 9.88259C2.23037 9.65642 2.36572 9.45022 2.53306 9.27419C3.03238 8.74903 3.87938 8.6574 5.5731 8.47536C6.82737 8.34056 7.45519 8.27355 8.06626 8.12478C8.27857 8.07308 8.48951 8.01423 8.6981 7.94802C9.29838 7.75745 9.87369 7.48779 11.0243 6.94899ZM12.661 15.1863C12.0634 15.024 11.2252 14.9482 10.1942 15.2244C9.16302 15.5007 8.47439 15.9851 8.03794 16.4246C7.82164 16.6424 7.67069 16.8465 7.57017 17.0027C7.51992 17.0807 7.48175 17.1471 7.45493 17.198C7.44153 17.2235 7.43094 17.2453 7.42271 17.2625L7.41196 17.2849L7.40806 17.2937L7.4061 17.2976V17.2996C7.41047 17.3017 7.4633 17.3264 8.0936 17.5994L7.40513 17.3006C7.24059 17.6805 7.41501 18.1221 7.79478 18.2869C8.17127 18.4499 8.60898 18.2806 8.7772 17.908L8.78208 17.8972C8.78998 17.8822 8.80571 17.8533 8.83091 17.8142C8.88133 17.7359 8.96859 17.6169 9.10239 17.4822C9.3664 17.2163 9.82582 16.8762 10.5819 16.6736C11.3378 16.4711 11.9058 16.5353 12.2674 16.6336C12.4507 16.6833 12.5859 16.7433 12.6688 16.7859C12.7102 16.8072 12.7385 16.8248 12.7528 16.8338L12.7625 16.8396C13.0945 17.0784 13.5581 17.0071 13.8026 16.6775C14.0494 16.345 13.9797 15.8756 13.6473 15.6287L13.6454 15.6277L13.6444 15.6258L13.6415 15.6238L13.6336 15.6179L13.6131 15.6043C13.5973 15.5934 13.5769 15.5796 13.5526 15.5642C13.5039 15.5335 13.4379 15.4945 13.3553 15.4519C13.1901 15.367 12.9571 15.2668 12.661 15.1863ZM9.99985 2.05153C10.6834 1.85791 11.4607 2.22139 13.0145 2.94899C14.1649 3.48775 14.7404 3.75747 15.3407 3.94802C15.5494 4.01424 15.7601 4.07308 15.9725 4.12478C16.5835 4.27353 17.2106 4.34059 18.4647 4.47536C20.1584 4.6574 21.0054 4.74909 21.5047 5.27419C21.6721 5.45026 21.8084 5.65635 21.9061 5.88259C22.1975 6.55739 21.9775 7.41691 21.537 9.13552L20.6913 12.4334C20.2617 14.109 19.3845 15.2878 18.3543 16.117C18.5736 14.9734 18.5686 13.6993 18.2108 12.3035L17.3475 8.93337C17.2963 8.73351 17.2454 8.53762 17.1961 8.34939C17.3674 8.2717 17.5775 8.24696 17.7958 8.30544C18.1743 8.40696 18.4046 8.71166 18.4334 9.00759C18.4734 9.41976 18.8396 9.72128 19.2518 9.68142C19.664 9.64141 19.9665 9.27521 19.9266 8.86306C19.8352 7.92057 19.1425 7.11322 18.1834 6.85622C17.7011 6.72706 17.2076 6.75221 16.7665 6.907L16.7499 6.86306C16.5254 6.26668 16.197 5.63363 15.578 5.16872C15.2396 4.91457 14.8569 4.72411 14.4481 4.60817C13.6896 4.39314 12.9856 4.53127 12.3846 4.73122C11.8262 4.91701 11.175 5.22237 10.4598 5.55739L10.3875 5.5906C9.2033 6.14518 8.72948 6.36423 8.24399 6.51833C8.09669 6.56509 7.94811 6.60712 7.79868 6.64528L8.12485 5.37868C8.56534 3.66012 8.78613 2.80103 9.36118 2.36892C9.55403 2.22407 9.77067 2.1165 9.99985 2.05153ZM8.76646 12.0828C8.21595 11.3124 7.2138 10.9596 6.25474 11.2166C5.29573 11.4736 4.60412 12.2801 4.51255 13.2224C4.47253 13.6347 4.77411 14.0018 5.18638 14.0418C5.59856 14.0818 5.96555 13.7801 6.00571 13.3679C6.03445 13.0719 6.26471 12.7673 6.64341 12.6658C7.02202 12.5644 7.37387 12.7129 7.54673 12.9549C7.78758 13.2916 8.25568 13.3694 8.59263 13.1287C8.92957 12.8879 9.00723 12.4197 8.76646 12.0828ZM14.5624 10.5291C14.0119 9.75892 13.0096 9.40592 12.0506 9.66286C11.0914 9.91986 10.3999 10.7272 10.3084 11.6697C10.2686 12.0819 10.5701 12.448 10.9823 12.4881C11.3945 12.5281 11.7616 12.2264 11.8016 11.8142C11.8304 11.5182 12.0607 11.2136 12.4393 11.1121C12.8179 11.0108 13.1698 11.1592 13.3426 11.4011C13.5834 11.7382 14.0515 11.8166 14.3885 11.5759C14.7255 11.3351 14.8032 10.8662 14.5624 10.5291Z" fill="#48465C"/>
</svg>
