<svg width="24" height="24" viewBox="0 0 24 24" fill="none" xmlns="http://www.w3.org/2000/svg">
<path d="M9.7566 1.33002C10.3068 1.17405 10.8412 1.26448 11.3787 1.44331C11.8946 1.61496 12.511 1.90358 13.2527 2.25092L13.2937 2.27045C14.4612 2.81722 14.9861 3.06101 15.5291 3.23334C15.7213 3.29438 15.9155 3.34879 16.1111 3.39643C16.6632 3.53083 17.2339 3.59363 18.5066 3.73041L18.5525 3.7353C19.3605 3.82212 20.0329 3.89448 20.5623 4.01557C21.116 4.14231 21.6165 4.34335 22.0105 4.75776C22.2395 4.99866 22.4241 5.27895 22.5564 5.58491C22.7811 6.10514 22.7825 6.64957 22.7 7.22456C22.6205 7.77913 22.4462 8.45637 22.2351 9.28022L21.3797 12.6191C20.6636 15.4128 18.8464 16.9654 17.0232 17.8085C16.2977 19.383 15.1598 20.5899 14.2195 21.3925L14.198 21.4101C13.9475 21.624 13.7008 21.8348 13.3777 22.0195C13.0421 22.2113 12.6536 22.3601 12.1091 22.5126C11.5649 22.665 11.1561 22.7397 10.7713 22.749C10.4004 22.7579 10.0835 22.7037 9.76442 22.6494L9.73707 22.6455C7.41563 22.2509 3.72505 20.9308 2.61988 16.6191L1.76442 13.2802C1.55324 12.4564 1.3791 11.7791 1.29957 11.2246C1.21714 10.6496 1.21937 10.1052 1.4441 9.58491C1.57634 9.27896 1.76097 8.99865 1.99 8.75776C2.38409 8.34334 2.88434 8.14229 3.43824 8.01557C3.96756 7.8945 4.63995 7.82212 5.44801 7.7353L5.49293 7.73041C6.01184 7.67464 6.4141 7.63082 6.74586 7.58979L7.37086 5.15131C7.58198 4.32759 7.75632 3.64921 7.95289 3.1269C8.15611 2.58704 8.41965 2.10987 8.87281 1.76948C9.13847 1.56994 9.43757 1.42049 9.7566 1.33002ZM13.8338 6.77338C13.7004 6.73562 13.5045 6.7297 13.0945 6.86616C12.672 7.00672 12.1362 7.25717 11.3425 7.62885L11.2888 7.65327C10.1887 8.16849 9.57194 8.45754 8.92457 8.66303C8.69954 8.73446 8.47205 8.79768 8.24293 8.85346C7.58355 9.01398 6.91052 9.08693 5.71168 9.21577L5.65309 9.22163C4.78787 9.31461 4.20468 9.37856 3.77223 9.47749C3.35487 9.573 3.18215 9.68038 3.07692 9.79096C2.97127 9.90208 2.88428 10.0342 2.82106 10.1806C2.75433 10.3352 2.71999 10.5587 2.78492 11.0117C2.8515 11.4758 3.0038 12.0744 3.22828 12.9501L4.07301 16.247C4.95469 19.6868 7.87023 20.806 9.98805 21.166C10.3367 21.2252 10.521 21.2542 10.7351 21.249C10.9459 21.2438 11.2209 21.2038 11.7048 21.0683C12.1882 20.9328 12.4466 20.8236 12.6336 20.7167C12.8242 20.6078 12.9724 20.4843 13.2459 20.2509C14.9147 18.8262 16.9169 16.3148 16.032 12.8623L15.1863 9.56538C14.9617 8.68923 14.8075 8.09151 14.6433 7.65522C14.4825 7.22811 14.3482 7.06026 14.2263 6.9687C14.1062 6.87856 13.973 6.81287 13.8338 6.77338ZM10.1941 15.2246C11.2251 14.9483 12.0632 15.0243 12.6609 15.1865C12.9572 15.267 13.191 15.3681 13.3562 15.4531C13.4383 15.4954 13.504 15.5339 13.5525 15.5644C13.5769 15.5798 13.5973 15.5936 13.613 15.6044L13.6336 15.6181L13.6414 15.624L13.6443 15.6269L13.6463 15.6279L13.6472 15.6289C13.9798 15.8758 14.0493 16.3451 13.8025 16.6777C13.5579 17.0072 13.0945 17.0786 12.7625 16.8398L12.7527 16.8339C12.7384 16.8249 12.7108 16.8072 12.6697 16.7861C12.5869 16.7434 12.4516 16.6835 12.2683 16.6337C11.9068 16.5354 11.3388 16.4713 10.5828 16.6738C9.82681 16.8763 9.36735 17.2165 9.10328 17.4824C8.96961 17.617 8.88227 17.736 8.8318 17.8144C8.80676 17.8533 8.79092 17.8823 8.78297 17.8974L8.77711 17.9081C8.60886 18.2807 8.17215 18.4501 7.79567 18.2871C7.41581 18.1225 7.24085 17.6816 7.40504 17.3017L7.40895 17.2939L7.41285 17.2851L7.42262 17.2626C7.43085 17.2454 7.44243 17.2236 7.45582 17.1982C7.48263 17.1473 7.51994 17.0807 7.57008 17.0029C7.6706 16.8467 7.82251 16.6436 8.03883 16.4257C8.47527 15.9863 9.1629 15.5009 10.1941 15.2246ZM10.1658 2.77338C10.0265 2.81288 9.89322 2.87856 9.77321 2.9687C9.65136 3.06031 9.51691 3.2283 9.35621 3.65522C9.19201 4.09152 9.03782 4.6892 8.81324 5.56538L8.37867 7.26166C8.40929 7.25232 8.43994 7.24303 8.47047 7.23334C8.83596 7.11733 9.19327 6.96824 9.74391 6.71674C9.71615 6.53104 9.75797 6.33471 9.87574 6.16987C10.4261 5.3995 11.4285 5.04681 12.3875 5.30366C12.4986 5.33344 12.6065 5.37024 12.7097 5.41401C13.2173 5.25472 13.7231 5.18277 14.2429 5.33002C14.5619 5.42048 14.862 5.56994 15.1277 5.76948C15.5807 6.10989 15.8444 6.58711 16.0476 7.1269C16.0654 7.17429 16.0829 7.22344 16.1004 7.27338C16.6657 6.82612 17.4376 6.65758 18.1834 6.85737C19.1426 7.11437 19.835 7.92074 19.9265 8.86323C19.9664 9.27544 19.664 9.64156 19.2517 9.68159C18.8396 9.72145 18.4734 9.41995 18.4334 9.00776C18.4046 8.71185 18.1742 8.40709 17.7957 8.30561C17.4172 8.20419 17.0654 8.35294 16.8923 8.59467C16.8042 8.71809 16.6851 8.80733 16.5535 8.85834L17.4851 12.4902C17.7828 13.6517 17.813 14.7227 17.6638 15.6972C18.6659 14.9483 19.5144 13.8547 19.9265 12.247L20.7722 8.95014C20.9967 8.07431 21.1491 7.47581 21.2156 7.01166C21.2805 6.55898 21.2461 6.33521 21.1795 6.18061C21.1163 6.03429 21.0292 5.90207 20.9236 5.79096C20.8184 5.68028 20.6452 5.57308 20.2273 5.47749C19.7948 5.37856 19.2117 5.31462 18.3464 5.22163L18.2879 5.21577C17.089 5.08694 16.416 5.014 15.7566 4.85346C15.5276 4.79768 15.2999 4.73445 15.075 4.66303C14.4277 4.45755 13.8107 4.16841 12.7107 3.65327L12.658 3.62885C11.8642 3.25713 11.3274 3.00673 10.905 2.86616C10.4949 2.72973 10.2991 2.73556 10.1658 2.77338ZM6.25465 11.2167C7.21371 10.9598 8.21586 11.3126 8.76637 12.083C9.00714 12.4199 8.92948 12.888 8.59254 13.1289C8.25559 13.3696 7.78749 13.2918 7.54664 12.955C7.37378 12.7131 7.02194 12.5647 6.64332 12.666C6.26461 12.7675 6.03436 13.0721 6.00563 13.3681C5.96548 13.7803 5.59848 14.082 5.18629 14.0419C4.77402 14.0019 4.47243 13.6349 4.51246 13.2226C4.60408 12.2803 5.29566 11.4736 6.25465 11.2167ZM12.0505 9.66303C13.0096 9.40606 14.0118 9.75888 14.5623 10.5292C14.803 10.8662 14.7253 11.3343 14.3884 11.5751C14.0515 11.8159 13.5834 11.7382 13.3425 11.4013C13.1697 11.1594 12.8178 11.0109 12.4392 11.1123C12.0605 11.2138 11.8303 11.5184 11.8015 11.8144C11.7614 12.2266 11.3943 12.5282 10.9822 12.4882C10.5699 12.4482 10.2684 12.0811 10.3084 11.6689C10.4 10.7266 11.0916 9.92003 12.0505 9.66303Z" fill="#48465C"/>
</svg>
