<svg width="24" height="24" viewBox="0 0 24 24" fill="none" xmlns="http://www.w3.org/2000/svg">
<path d="M18.8447 1.69596C19.5603 1.67868 20.2238 1.79445 20.7773 2.26335C21.3306 2.73206 21.5537 3.36668 21.6543 4.07487C21.7503 4.75012 21.75 5.61632 21.75 6.66276V12.0007C21.7498 17.9646 17.1258 20.8144 14.3945 21.9762L14.3682 21.988C14.0281 22.1327 13.7094 22.2679 13.3437 22.359C12.9581 22.4551 12.5482 22.4967 12 22.4967C11.4518 22.4967 11.0418 22.4551 10.6562 22.359C10.2905 22.2679 9.97194 22.1327 9.63183 21.988L9.60546 21.9762C6.87426 20.8144 2.25015 17.9646 2.24999 12.0007V6.66178C2.24996 5.61557 2.2498 4.75001 2.3457 4.07487C2.44633 3.36668 2.6694 2.73206 3.22265 2.26335C3.77617 1.79445 4.4397 1.67868 5.15527 1.69596C5.83746 1.71248 6.69164 1.85484 7.7246 2.02702L8.83495 2.21256C10.4984 2.48981 11.2486 2.61198 12 2.61198C12.7514 2.61198 13.5015 2.48981 15.165 2.21256L16.2754 2.02702C17.3083 1.85483 18.1625 1.71248 18.8447 1.69596ZM5.11913 3.19596C4.57685 3.18285 4.34612 3.27765 4.19238 3.40788C4.03856 3.53819 3.90725 3.74967 3.83105 4.28581C3.75189 4.84309 3.74999 5.60151 3.74999 6.7194V12.0007C3.75014 17.017 7.60453 19.4955 10.1924 20.5964C10.5632 20.7541 10.7786 20.8442 11.0185 20.904C11.2484 20.9613 11.5289 20.9967 12 20.9967C12.4711 20.9967 12.7515 20.9613 12.9814 20.904C13.2214 20.8442 13.4368 20.7541 13.8076 20.5964C16.3955 19.4955 20.2498 17.017 20.25 12.0007V6.7194C20.25 5.60151 20.248 4.84309 20.1689 4.28581C20.0927 3.74968 19.9614 3.53819 19.8076 3.40788C19.6538 3.27766 19.423 3.18285 18.8809 3.19596C18.3176 3.20962 17.569 3.33241 16.4658 3.51628L15.3379 3.70475C13.7673 3.96656 12.89 4.11198 12 4.11198C11.11 4.11198 10.2327 3.96656 8.6621 3.70475L7.53417 3.51628C6.43086 3.33239 5.68231 3.20961 5.11913 3.19596ZM14.9912 13.4499C15.2915 13.1721 15.7599 13.1859 16.043 13.4831C16.3286 13.783 16.3174 14.2579 16.0176 14.5436L16.0156 14.5446L16.0117 14.5485L16.0039 14.5553L15.9844 14.5739C15.969 14.5876 15.9492 14.6047 15.9248 14.6247C15.8758 14.6647 15.808 14.7159 15.7217 14.7751C15.549 14.8935 15.3006 15.0421 14.9707 15.1872C14.3082 15.4784 13.3304 15.7506 12 15.7507C10.6696 15.7507 9.69176 15.4784 9.02929 15.1872C8.69939 15.0421 8.45103 14.8935 8.27831 14.7751C8.192 14.7159 8.12418 14.6647 8.07519 14.6247C8.05077 14.6047 8.03104 14.5876 8.01562 14.5739L7.98535 14.5456C7.68562 14.2598 7.67143 13.783 7.95702 13.4831C8.24029 13.1858 8.70949 13.1716 9.00976 13.4499C9.01171 13.4516 9.01673 13.4564 9.02441 13.4626C9.02956 13.4668 9.03621 13.4722 9.04394 13.4782C9.06321 13.4932 9.09053 13.5135 9.12597 13.5378C9.22668 13.6068 9.39403 13.7091 9.63281 13.8141C10.1079 14.0229 10.8804 14.2507 12 14.2507C13.1196 14.2506 13.8921 14.0229 14.3672 13.8141C14.6058 13.7092 14.7723 13.6068 14.873 13.5378C14.9232 13.5033 14.9575 13.4773 14.9756 13.4626L14.9853 13.4548L14.9902 13.4499H14.9912ZM8.49999 7.25065C9.60333 7.25065 10.712 7.74686 11.1709 8.66471C11.3561 9.03524 11.2056 9.4864 10.835 9.67155C10.4645 9.85635 10.0141 9.70599 9.8291 9.33561C9.70557 9.08853 9.24314 8.75065 8.49999 8.75065C7.75687 8.7507 7.29435 9.08854 7.17089 9.33561C6.98575 9.70602 6.5355 9.85652 6.16503 9.67155C5.7945 9.4864 5.64394 9.03524 5.8291 8.66471C6.28792 7.74682 7.39666 7.2507 8.49999 7.25065ZM15.5 7.25065C16.6034 7.25067 17.712 7.74681 18.1709 8.66471C18.3561 9.03524 18.2056 9.4864 17.835 9.67155C17.4645 9.85649 17.0142 9.70603 16.8291 9.33561C16.7056 9.08853 16.2432 8.75067 15.5 8.75065C14.7568 8.75065 14.2944 9.08852 14.1709 9.33561C13.9858 9.706 13.5356 9.85637 13.165 9.67155C12.7945 9.4864 12.6439 9.03524 12.8291 8.66471C13.288 7.74683 14.3966 7.25065 15.5 7.25065Z" fill="#48465C"/>
</svg>
