<svg width="24" height="24" viewBox="0 0 24 24" fill="none" xmlns="http://www.w3.org/2000/svg">
<path fill-rule="evenodd" clip-rule="evenodd" d="M18.8447 1.69596C19.5603 1.67868 20.2238 1.79445 20.7773 2.26335C21.3306 2.73206 21.5537 3.36668 21.6543 4.07487C21.7503 4.75002 21.75 5.61556 21.75 6.66178V12.0007C21.7498 17.9646 17.1258 20.8144 14.3945 21.9762L14.3682 21.988C14.0281 22.1327 13.7095 22.2679 13.3438 22.359C12.9582 22.4551 12.5482 22.4967 12 22.4967C11.4518 22.4967 11.0419 22.4551 10.6563 22.359C10.2905 22.2679 9.97194 22.1327 9.63184 21.988L9.60547 21.9762C6.87427 20.8144 2.25016 17.9646 2.25 12.0007V6.66178C2.24997 5.61556 2.24981 4.75001 2.3457 4.07487C2.44634 3.36668 2.66941 2.73206 3.22266 2.26335C3.77618 1.79445 4.4397 1.67868 5.15527 1.69596C5.83746 1.71248 6.69165 1.85484 7.72461 2.02702L8.83496 2.21256C10.4984 2.48981 11.2486 2.61198 12 2.61198C12.7514 2.61198 13.5015 2.48981 15.165 2.21256L16.2754 2.02702C17.3083 1.85483 18.1625 1.71248 18.8447 1.69596ZM5.11914 3.19596C4.57685 3.18285 4.34612 3.27765 4.19238 3.40788C4.03857 3.53819 3.90725 3.74965 3.83106 4.28581C3.7519 4.84309 3.75 5.60151 3.75 6.7194V12.0007C3.75016 17.0169 7.60454 19.4955 10.1924 20.5964C10.5632 20.7541 10.7786 20.8442 11.0186 20.904C11.2485 20.9613 11.5289 20.9967 12 20.9967C12.4711 20.9967 12.7515 20.9613 12.9814 20.904C13.2214 20.8442 13.4368 20.7541 13.8076 20.5964C16.3955 19.4955 20.2498 17.0169 20.25 12.0007V6.7194C20.25 5.60151 20.248 4.84309 20.1689 4.28581C20.0927 3.74966 19.9614 3.53819 19.8076 3.40788C19.6538 3.27766 19.423 3.18285 18.8809 3.19596C18.3176 3.20962 17.5691 3.33241 16.4658 3.51628L15.3379 3.70475C13.7673 3.96656 12.89 4.11198 12 4.11198C11.11 4.11198 10.2327 3.96656 8.66211 3.70475L7.53418 3.51628C6.43086 3.33239 5.68232 3.20961 5.11914 3.19596ZM12 13.2507C13.3303 13.2507 14.3082 13.5229 14.9707 13.8141C15.3004 13.959 15.549 14.1068 15.7217 14.2253C15.8079 14.2844 15.8748 14.3366 15.9238 14.3766C15.9483 14.3966 15.969 14.4138 15.9844 14.4274L16.0039 14.445L16.0117 14.4518L16.0156 14.4557L16.0166 14.4577C16.3166 14.7432 16.3285 15.2173 16.043 15.5173C15.76 15.8143 15.2916 15.8288 14.9912 15.5514C14.9893 15.5497 14.9832 15.545 14.9756 15.5387C14.9576 15.524 14.9234 15.4971 14.873 15.4626C14.7724 15.3935 14.6056 15.2919 14.3672 15.1872C13.8921 14.9784 13.1195 14.7507 12 14.7507C10.8804 14.7507 10.1079 14.9784 9.63281 15.1872C9.39411 15.292 9.22667 15.3935 9.12598 15.4626C9.09033 15.487 9.06326 15.508 9.04395 15.5231L9.00977 15.5505C8.70947 15.8289 8.24033 15.8148 7.95703 15.5173C7.67138 15.2174 7.68443 14.7414 7.98438 14.4557L8.01563 14.4274C8.031 14.4139 8.05086 14.3965 8.0752 14.3766C8.12419 14.3366 8.19201 14.2845 8.27832 14.2253C8.451 14.1068 8.69962 13.959 9.0293 13.8141C9.69177 13.5229 10.6696 13.2507 12 13.2507ZM8.5 7.25065C9.60334 7.25065 10.712 7.74685 11.1709 8.66471C11.3561 9.03524 11.2056 9.4864 10.835 9.67155C10.4645 9.85635 10.0141 9.70599 9.8291 9.33561C9.70559 9.08853 9.24317 8.75065 8.5 8.75065C7.75688 8.7507 7.29436 9.08854 7.1709 9.33561C6.98576 9.706 6.5355 9.85651 6.16504 9.67155C5.79451 9.4864 5.64394 9.03524 5.8291 8.66471C6.28792 7.74681 7.39666 7.2507 8.5 7.25065ZM15.5 7.25065C16.6034 7.25067 17.712 7.74681 18.1709 8.66471C18.3561 9.03524 18.2056 9.4864 17.835 9.67155C17.4645 9.85648 17.0142 9.70602 16.8291 9.33561C16.7056 9.08853 16.2432 8.75067 15.5 8.75065C14.7568 8.75065 14.2944 9.08852 14.1709 9.33561C13.9858 9.70599 13.5356 9.85636 13.165 9.67155C12.7945 9.4864 12.6439 9.03524 12.8291 8.66471C13.288 7.74682 14.3966 7.25065 15.5 7.25065Z" fill="#48465C"/>
</svg>
