<svg width="24" height="24" viewBox="0 0 24 24" fill="none" xmlns="http://www.w3.org/2000/svg">
<path d="M3.70703 2.38436C4.41425 1.79464 5.49537 1.97207 7.65723 2.32675L8.71191 2.4996C10.3522 2.7687 11.1724 2.90292 12 2.90292C12.8276 2.90292 13.6478 2.7687 15.2881 2.4996L16.3428 2.32675C18.5047 1.97207 19.5858 1.79464 20.293 2.38436C21 2.97417 21 4.0522 21 6.20761V11.4058C21 16.8102 16.7612 19.4327 14.1016 20.5465C13.3802 20.8486 13.0193 20.9996 12 20.9996C10.9807 20.9996 10.6199 20.8486 9.89844 20.5465C7.23883 19.4327 3 16.8102 3 11.4058V6.20761C3 4.05217 3 2.97416 3.70703 2.38436ZM12 12.6363C10.6696 12.6363 9.69177 12.9043 9.0293 13.191C8.69947 13.3337 8.45101 13.4797 8.27832 13.5963C8.19201 13.6546 8.12418 13.7053 8.0752 13.7447C8.05081 13.7643 8.03103 13.7812 8.01562 13.7945L7.99609 13.8121C7.69619 14.0933 7.67146 14.5726 7.95703 14.8678C8.24033 15.1607 8.70946 15.1741 9.00977 14.9L9.01562 14.8961L9.02441 14.8883C9.02954 14.8841 9.03627 14.8796 9.04395 14.8736C9.06331 14.8588 9.09119 14.8382 9.12695 14.8141C9.22768 14.7461 9.39436 14.6457 9.63281 14.5426C10.1079 14.337 10.8804 14.1129 12 14.1129C13.1196 14.1129 13.8921 14.337 14.3672 14.5426C14.6057 14.6457 14.7723 14.7461 14.873 14.8141C14.9232 14.8479 14.9575 14.8737 14.9756 14.8883L14.9863 14.8971L14.9912 14.901C15.2916 15.1743 15.7599 15.1603 16.043 14.8678C16.3284 14.5727 16.3171 14.106 16.0176 13.8248L16.0117 13.8189L16.0039 13.8121L15.9844 13.7945C15.969 13.7812 15.9492 13.7643 15.9248 13.7447C15.8758 13.7053 15.808 13.6546 15.7217 13.5963C15.549 13.4797 15.3005 13.3337 14.9707 13.191C14.3082 12.9043 13.3304 12.6363 12 12.6363ZM8.5 6.73007C7.39661 6.73011 6.28789 7.21902 5.8291 8.12264C5.64396 8.48736 5.79455 8.9306 6.16504 9.11288C6.53555 9.29513 6.98573 9.14751 7.1709 8.7828C7.29436 8.53959 7.75688 8.20668 8.5 8.20663C9.24312 8.20663 9.70555 8.53958 9.8291 8.7828C10.0142 9.14746 10.4645 9.29498 10.835 9.11288C11.2055 8.93062 11.356 8.48737 11.1709 8.12264C10.712 7.21906 9.60339 6.73007 8.5 6.73007ZM15.5 6.73007C14.3966 6.73013 13.2878 7.21902 12.8291 8.12264C12.6439 8.48736 12.7946 8.93061 13.165 9.11288C13.5355 9.29513 13.9857 9.1475 14.1709 8.7828C14.2943 8.53959 14.7568 8.20669 15.5 8.20663C16.2431 8.20663 16.7055 8.53958 16.8291 8.7828C17.0142 9.14746 17.4645 9.29498 17.835 9.11288C18.2055 8.93062 18.356 8.48737 18.1709 8.12264C17.712 7.21906 16.6034 6.73007 15.5 6.73007Z" fill="#48465C"/>
</svg>
