<svg width="24" height="24" viewBox="0 0 24 24" fill="none" xmlns="http://www.w3.org/2000/svg">
<path d="M12 1.25C16.2802 1.25 19.75 4.71979 19.75 9C19.75 9.94083 19.5824 10.8425 19.2754 11.6768L21.5625 14.0449C21.8198 14.3113 22.0342 14.5338 22.1943 14.7188C22.3521 14.9009 22.5138 15.1095 22.6093 15.3516C22.9426 16.1963 22.6742 17.1961 21.8701 17.6885C21.639 17.8299 21.3757 17.8889 21.1494 17.9268C20.9178 17.9656 20.6234 17.9965 20.2763 18.0332L20.2529 18.0352C19.794 18.0836 19.7067 18.0994 19.6474 18.1221C19.4693 18.1904 19.3233 18.3364 19.2509 18.5391C19.2255 18.6103 19.2095 18.7122 19.1631 19.1826L19.1611 19.2051C19.1255 19.5661 19.0957 19.869 19.0586 20.1064C19.0225 20.3378 18.9669 20.6009 18.8349 20.832C18.3657 21.6538 17.3766 21.9624 16.5185 21.5996C16.277 21.4974 16.0721 21.3262 15.8974 21.1641C15.7187 20.9982 15.5042 20.776 15.247 20.5098L15.2275 20.4893L12 17.0889L8.76852 20.4941L8.7529 20.5098C8.49578 20.776 8.28116 20.9982 8.10251 21.1641C7.92793 21.3261 7.72376 21.4975 7.48239 21.5996C6.62419 21.9627 5.63436 21.6539 5.16501 20.832C5.0331 20.601 4.97848 20.3378 4.94235 20.1064C4.90526 19.8689 4.87542 19.5662 4.83981 19.2051L4.83688 19.1826C4.79052 18.7127 4.77535 18.6103 4.74997 18.5391C4.67751 18.3364 4.53062 18.1904 4.35251 18.1221C4.29325 18.0994 4.20541 18.0836 3.74704 18.0352L3.7236 18.0332C3.37656 17.9965 3.08205 17.9655 2.85056 17.9268C2.62423 17.8889 2.36097 17.8299 2.12985 17.6885C1.32577 17.1961 1.05739 16.1963 1.39059 15.3516C1.48609 15.1095 1.64792 14.9009 1.80563 14.7188C1.96578 14.5338 2.18011 14.3114 2.43747 14.0449L4.72458 11.6768C4.41755 10.8425 4.24997 9.94078 4.24997 9C4.24997 4.71985 7.71984 1.25009 12 1.25ZM3.53122 15.0723C3.2553 15.3579 3.06956 15.5508 2.93942 15.7012C2.81931 15.8399 2.78969 15.8944 2.7861 15.9014C2.69594 16.13 2.78548 16.3241 2.90427 16.4033C2.91319 16.4062 2.9645 16.4249 3.0986 16.4473C3.27977 16.4776 3.52851 16.504 3.90524 16.5439C3.93018 16.5465 3.95491 16.5492 3.97946 16.5518C4.31857 16.5872 4.62138 16.6189 4.88962 16.7217C5.48849 16.9512 5.94681 17.4314 6.16208 18.0332C6.25835 18.3024 6.28763 18.6066 6.32224 18.9609C6.32465 18.9856 6.32755 19.011 6.33005 19.0361C6.36841 19.425 6.3941 19.6848 6.4238 19.875C6.44924 20.0379 6.46996 20.0906 6.47067 20.0938C6.55052 20.2278 6.71463 20.2943 6.89548 20.2188C6.89548 20.2188 6.94553 20.1912 7.082 20.0645C7.2266 19.9302 7.41169 19.7387 7.68649 19.4541L7.68942 19.4521L10.4091 16.5869C8.31323 16.1497 6.52815 14.865 5.4277 13.1084L3.53122 15.0723ZM18.5722 13.1084C17.4718 14.865 15.6867 16.1497 13.5908 16.5869L16.3115 19.4521L16.3134 19.4541C16.5883 19.7387 16.7733 19.9302 16.9179 20.0645C17.0415 20.1793 17.0946 20.2125 17.1035 20.2178H17.1025L17.1045 20.2188L17.1035 20.2178C17.2849 20.2942 17.4492 20.2281 17.5293 20.0938C17.5301 20.0906 17.5506 20.0379 17.5761 19.875C17.6058 19.6848 17.6315 19.425 17.6699 19.0361C17.6724 19.011 17.6753 18.9856 17.6777 18.9609C17.7123 18.6066 17.7417 18.3024 17.8379 18.0332C18.0531 17.4314 18.5116 16.9513 19.1103 16.7217C19.3785 16.6189 19.6814 16.5872 20.0205 16.5518C20.0452 16.5492 20.0705 16.5465 20.0957 16.5439C20.4721 16.5041 20.7202 16.4775 20.9013 16.4473C21.0354 16.4249 21.0868 16.4062 21.0957 16.4033C21.2146 16.3242 21.304 16.1301 21.2138 15.9014C21.2099 15.8939 21.18 15.8391 21.0605 15.7012C20.9303 15.5508 20.7447 15.358 20.4687 15.0723L18.5722 13.1084ZM12 2.75C8.54827 2.75009 5.74997 5.54828 5.74997 9C5.74997 12.4517 8.54827 15.2499 12 15.25C15.4518 15.25 18.25 12.4518 18.25 9C18.25 5.54822 15.4518 2.75 12 2.75ZM12 5.25C12.5016 5.25 12.8141 5.57499 12.9863 5.7998C13.1506 6.01438 13.3166 6.31168 13.4863 6.61621C13.4939 6.62982 13.5012 6.64359 13.5088 6.65723L13.6074 6.83398C13.6301 6.87483 13.6483 6.90707 13.664 6.93457C13.6913 6.94097 13.7231 6.94806 13.7627 6.95703L13.9541 7C13.9697 7.00352 13.9854 7.00723 14.0009 7.01074C14.3287 7.08479 14.6544 7.15833 14.9043 7.25684C15.1805 7.36566 15.555 7.57808 15.6992 8.04199C15.8408 8.49755 15.662 8.88381 15.5058 9.13184C15.3613 9.36137 15.1418 9.6181 14.917 9.88086C14.9068 9.89273 14.8958 9.90412 14.8857 9.91602L14.7558 10.0684C14.7213 10.1087 14.6956 10.1397 14.6738 10.166C14.6767 10.2022 14.681 10.2444 14.6865 10.3008L14.706 10.5039C14.7075 10.5194 14.7084 10.5353 14.7099 10.5508C14.7441 10.9026 14.7777 11.2426 14.7656 11.5146C14.7529 11.7998 14.684 12.2315 14.2968 12.5254C13.8975 12.8285 13.4564 12.7628 13.1767 12.6826C12.919 12.6088 12.6143 12.4684 12.3076 12.3271C12.2929 12.3204 12.2783 12.3134 12.2636 12.3066L12.0849 12.2246C12.0514 12.2092 12.024 12.1964 12 12.1855C11.976 12.1964 11.9484 12.2093 11.915 12.2246L11.7363 12.3066C11.7217 12.3134 11.707 12.3204 11.6924 12.3271C11.3857 12.4684 11.0809 12.6088 10.8232 12.6826C10.5435 12.7628 10.1024 12.8285 9.70309 12.5254C9.31607 12.2315 9.24805 11.7998 9.23532 11.5146C9.22322 11.2426 9.25584 10.9025 9.29001 10.5508C9.29151 10.5353 9.29339 10.5194 9.29489 10.5039L9.31442 10.3008C9.31989 10.2444 9.32413 10.2022 9.32712 10.166C9.30522 10.1397 9.27859 10.1087 9.24411 10.0684L9.11423 9.91602C9.10417 9.90426 9.09399 9.8926 9.08395 9.88086C8.85906 9.61801 8.63866 9.36143 8.49411 9.13184C8.33797 8.88382 8.15931 8.49752 8.30075 8.04199C8.44498 7.57817 8.81955 7.36567 9.09567 7.25684C9.34576 7.15828 9.67216 7.08482 9.99997 7.01074C10.0155 7.00724 10.0314 7.00351 10.0468 7L10.2373 6.95703C10.2768 6.94808 10.3087 6.94096 10.3359 6.93457C10.3516 6.9071 10.3698 6.87476 10.3925 6.83398L10.4912 6.65723C10.4988 6.64345 10.507 6.62997 10.5146 6.61621C10.6843 6.31174 10.8494 6.01438 11.0136 5.7998C11.1858 5.57501 11.4984 5.25007 12 5.25ZM11.8008 7.3877L11.7031 7.56445C11.6963 7.5768 11.6886 7.59006 11.6806 7.60449C11.6021 7.7481 11.4717 7.98578 11.2549 8.15039C11.0335 8.31843 10.767 8.37635 10.6113 8.41016C10.5958 8.41352 10.5814 8.41696 10.5683 8.41992L10.3779 8.46289C10.2027 8.50252 10.0595 8.53477 9.93747 8.56543C10.0168 8.66309 10.1199 8.78471 10.2539 8.94141L10.3847 9.09375C10.3938 9.10438 10.4036 9.11584 10.414 9.12793C10.522 9.25226 10.6967 9.45374 10.7773 9.71289C10.8568 9.96871 10.8288 10.2321 10.8115 10.3984C10.8097 10.4149 10.809 10.4308 10.8076 10.4453L10.7871 10.6484C10.7689 10.8366 10.7555 10.9872 10.7461 11.1094C10.8502 11.0635 10.9687 11.0091 11.1093 10.9443L11.2881 10.8613C11.3003 10.8557 11.3137 10.8496 11.3281 10.8428C11.4716 10.7751 11.7213 10.6573 12 10.6572C12.2785 10.6572 12.5283 10.7751 12.6718 10.8428C12.6861 10.8496 12.6997 10.8557 12.7119 10.8613L12.8916 10.9443C13.0322 11.009 13.1508 11.0635 13.2549 11.1094C13.2455 10.9872 13.2311 10.8366 13.2129 10.6484L13.1933 10.4453C13.1919 10.4308 13.1902 10.4149 13.1884 10.3984C13.1711 10.2321 13.144 9.96874 13.2236 9.71289C13.3042 9.45374 13.4779 9.25225 13.5859 9.12793C13.5964 9.11569 13.607 9.10449 13.6162 9.09375L13.7461 8.94141C13.8801 8.78463 13.9831 8.66312 14.0625 8.56543C13.9406 8.5348 13.798 8.50247 13.623 8.46289L13.4316 8.41992C13.4185 8.41695 13.4041 8.41352 13.3886 8.41016C13.2329 8.37635 12.9665 8.31845 12.7451 8.15039C12.5284 7.98579 12.3978 7.74807 12.3193 7.60449C12.3115 7.59023 12.3046 7.57669 12.2978 7.56445L12.1992 7.3877C12.123 7.25104 12.0581 7.13482 12 7.03418C11.9419 7.13482 11.877 7.25104 11.8008 7.3877Z" fill="#48465C"/>
</svg>
