<svg width="24" height="24" viewBox="0 0 24 24" fill="none" xmlns="http://www.w3.org/2000/svg">
<path fill-rule="evenodd" clip-rule="evenodd" d="M4.49557 12.9951C5.73269 15.3142 8.01315 16.9928 10.7104 17.4033L8.22897 19.9727C7.68907 20.5316 7.41854 20.8113 7.18991 20.9082C6.66876 21.1287 6.09002 20.9401 5.81588 20.46C5.69575 20.2492 5.65839 19.8689 5.58346 19.1094C5.54114 18.6804 5.51977 18.4658 5.45553 18.2861C5.31172 17.884 5.00992 17.5709 4.62155 17.4219C4.448 17.3554 4.24006 17.3338 3.82565 17.29C3.09179 17.2124 2.72442 17.1734 2.52096 17.0488C2.05757 16.765 1.87563 16.1664 2.08834 15.627C2.18179 15.3902 2.4516 15.1099 2.99166 14.5508L4.49557 12.9951ZM21.0083 14.5508C21.5485 15.11 21.8181 15.3902 21.9116 15.627C22.1243 16.1664 21.9425 16.765 21.479 17.0488C21.2755 17.1734 20.9082 17.2123 20.1743 17.29C19.7602 17.3338 19.5529 17.3555 19.3794 17.4219C18.9908 17.5709 18.6883 17.8839 18.5444 18.2861C18.4802 18.4658 18.4588 18.6804 18.4165 19.1094C18.3415 19.869 18.3042 20.2492 18.184 20.46C17.9099 20.9401 17.3312 21.1287 16.81 20.9082C16.5814 20.8112 16.3117 20.5315 15.7719 19.9727L13.2895 17.4033C15.9869 16.9928 18.2682 15.3144 19.5053 12.9951L21.0083 14.5508ZM12.0005 2C15.8663 2.00023 19.0005 5.13415 19.0005 9C19.0005 12.8659 15.8663 15.9998 12.0005 16C8.13446 16 5.00045 12.866 5.00045 9C5.00045 5.13401 8.13446 2 12.0005 2ZM12.0005 6C11.7164 6 11.5259 6.34082 11.146 7.02246L11.0473 7.19922C10.9396 7.39266 10.8854 7.48985 10.8012 7.55371C10.7171 7.61741 10.6122 7.64111 10.4028 7.68848L10.2124 7.73145C9.47443 7.89841 9.10483 7.98238 9.01705 8.26465C8.92961 8.54678 9.18129 8.84081 9.68405 9.42871L9.81393 9.58105C9.95688 9.74821 10.0288 9.83215 10.061 9.93555C10.093 10.0388 10.0826 10.1503 10.061 10.373L10.0405 10.5762C9.96446 11.361 9.92702 11.7532 10.1567 11.9277C10.3866 12.1021 10.7316 11.943 11.4223 11.625L11.601 11.543C11.7974 11.4526 11.8964 11.4072 12.0005 11.4072C12.1044 11.4073 12.2028 11.4527 12.3989 11.543L12.5776 11.625C13.2684 11.9431 13.6133 12.1021 13.8432 11.9277C14.073 11.7532 14.0354 11.3611 13.9594 10.5762L13.9399 10.373C13.9183 10.1503 13.907 10.0388 13.9389 9.93555C13.9711 9.83215 14.0431 9.7482 14.186 9.58105L14.3159 9.42871C14.8187 8.84072 15.0704 8.54681 14.9829 8.26465C14.8951 7.98242 14.5262 7.89835 13.7885 7.73145L13.5971 7.68848C13.3877 7.6411 13.2828 7.61745 13.1987 7.55371C13.1145 7.48985 13.0604 7.3927 12.9526 7.19922L12.854 7.02246C12.4742 6.3412 12.2843 6.00033 12.0005 6Z" fill="#48465C"/>
</svg>
