<svg width="24" height="24" viewBox="0 0 24 24" fill="none" xmlns="http://www.w3.org/2000/svg">
<path d="M4.49506 12.9951C5.73218 15.3143 8.01348 16.9928 10.7109 17.4033L8.22846 19.9727C7.68834 20.5319 7.4181 20.8114 7.1894 20.9082C6.66827 21.1286 6.09047 20.94 5.81635 20.46C5.69611 20.2492 5.65889 19.8692 5.58393 19.1094C5.54161 18.6804 5.52022 18.4658 5.456 18.2861C5.31216 17.8838 5.0096 17.5709 4.62104 17.4219C4.44754 17.3554 4.2403 17.3338 3.82612 17.29C3.09227 17.2124 2.72494 17.1734 2.52143 17.0488C2.05781 16.7651 1.87595 16.1665 2.08881 15.627C2.18226 15.3902 2.45201 15.11 2.99213 14.5508L4.49506 12.9951ZM21.0078 14.5508C21.548 15.11 21.8186 15.3902 21.9121 15.627C22.1247 16.1664 21.942 16.7651 21.4785 17.0488C21.2749 17.1733 20.9075 17.2124 20.1738 17.29C19.7596 17.3338 19.5524 17.3554 19.3789 17.4219C18.9903 17.5709 18.6878 17.8838 18.5439 18.2861C18.4797 18.4658 18.4592 18.6805 18.4169 19.1094C18.342 19.8692 18.3038 20.2492 18.1835 20.46C17.9094 20.94 17.3317 21.1287 16.8105 20.9082C16.5818 20.8114 16.3115 20.5319 15.7714 19.9727L13.289 17.4033C15.9864 16.9928 18.2677 15.3143 19.5048 12.9951L21.0078 14.5508ZM11.9999 2C15.8659 2 18.9999 5.13401 18.9999 9C18.9999 12.866 15.8659 16 11.9999 16C8.13397 16 4.99995 12.866 4.99995 9C4.99995 5.13402 8.13397 2.00002 11.9999 2ZM11.9999 6C11.7159 6.00003 11.5254 6.34082 11.1455 7.02246L11.0478 7.19922C10.94 7.39281 10.8859 7.48983 10.8017 7.55371C10.7176 7.61755 10.6126 7.64111 10.4033 7.68848L10.2119 7.73145C9.47392 7.89841 9.1053 7.98238 9.01752 8.26465C8.92995 8.54679 9.18083 8.84086 9.68354 9.42871L9.8144 9.58105C9.95732 9.74818 10.0283 9.83216 10.0605 9.93555C10.0925 10.0389 10.0821 10.1502 10.0605 10.373L10.041 10.5762C9.96496 11.3607 9.92683 11.7531 10.1562 11.9277C10.3861 12.1021 10.7319 11.9431 11.4228 11.625L11.6015 11.543C11.7978 11.4526 11.8959 11.4072 11.9999 11.4072C12.104 11.4072 12.2021 11.4526 12.3984 11.543L12.5771 11.625C13.268 11.9431 13.6138 12.1021 13.8437 11.9277C14.0731 11.7531 14.0349 11.3607 13.9589 10.5762L13.9394 10.373C13.9178 10.1502 13.9074 10.0389 13.9394 9.93555C13.9716 9.83216 14.0426 9.74816 14.1855 9.58105L14.3164 9.42871C14.8191 8.8408 15.07 8.54681 14.9824 8.26465C14.8946 7.98238 14.5259 7.89841 13.788 7.73145L13.5976 7.68848C13.3879 7.64104 13.2824 7.61762 13.1982 7.55371C13.114 7.48983 13.0599 7.39283 12.9521 7.19922L12.8544 7.02246C12.4744 6.34079 12.284 6 11.9999 6Z" fill="#48465C"/>
</svg>
