<svg width="24" height="24" viewBox="0 0 24 24" fill="none" xmlns="http://www.w3.org/2000/svg">
<path d="M14.0498 15.4004C14.3811 15.152 14.8511 15.2186 15.0996 15.5498L16.1416 16.9395C16.1755 16.9845 16.1848 16.9969 16.1934 17.0078C16.3578 17.2156 16.5845 17.3656 16.8399 17.4365C16.8532 17.4402 16.8682 17.4444 16.9229 17.458L18.4073 17.8291C19.784 18.1733 20.75 19.4102 20.75 20.8291C20.7499 21.8899 19.8899 22.7498 18.8291 22.75H16.5079C15.9062 22.75 15.5353 22.7501 15.1661 22.7021C14.9752 22.6773 14.7851 22.6424 14.5977 22.5986C14.2353 22.514 13.8881 22.384 13.3252 22.1729L11.1211 21.3467C10.7407 21.6317 10.4896 21.8165 10.2227 21.9717C9.54186 22.3673 8.78695 22.6189 8.00492 22.7109C7.67002 22.7503 7.32889 22.75 6.77543 22.75H5.17094C4.11008 22.7499 3.2502 21.89 3.25004 20.8291C3.25004 19.4104 4.21548 18.1735 5.59184 17.8291L7.07719 17.458C7.13203 17.4444 7.14687 17.4402 7.16019 17.4365C7.41553 17.3656 7.64227 17.2156 7.80668 17.0078C7.81529 16.9969 7.82447 16.9847 7.85844 16.9395L8.89945 15.5498C9.14798 15.2184 9.61886 15.1519 9.95023 15.4004C10.2812 15.649 10.3481 16.1189 10.0996 16.4502L9.05375 17.8447C9.02645 17.8811 9.00463 17.9105 8.98246 17.9385C8.62077 18.3956 8.12318 18.726 7.56156 18.8818C7.52715 18.8914 7.49238 18.9001 7.44828 18.9111L5.95609 19.2842C5.24725 19.4615 4.75004 20.0985 4.75004 20.8291C4.7502 21.0615 4.93851 21.2499 5.17094 21.25H6.72758C7.34354 21.25 7.5921 21.2486 7.82914 21.2207C8.40721 21.1528 8.96553 20.9673 9.46879 20.6748C9.67522 20.5548 9.87504 20.4059 10.3682 20.0361L10.5498 19.9004L12.5498 18.4004C12.8811 18.152 13.3511 18.2186 13.5996 18.5498C13.8481 18.8811 13.7813 19.351 13.4502 19.5996L12.545 20.2783L13.8028 20.75C14.4295 20.985 14.6825 21.0786 14.9395 21.1387C15.078 21.1711 15.2184 21.1965 15.3594 21.2148C15.621 21.2488 15.8906 21.25 16.5596 21.25H18.8291C19.0615 21.2498 19.2499 21.0614 19.25 20.8291C19.25 20.0986 18.7527 19.4616 18.044 19.2842L16.5508 18.9111C16.5072 18.9002 16.4728 18.8914 16.4385 18.8818C15.877 18.726 15.3793 18.3955 15.0176 17.9385C14.9955 17.9106 14.9735 17.881 14.9463 17.8447L14.9414 17.8389L13.9004 16.4502C13.652 16.1189 13.7187 15.6489 14.0498 15.4004ZM10.8819 8.34277C11.6174 8.21888 12.3826 8.21888 13.1182 8.34277C16.3482 8.88699 18.75 11.7144 18.75 15.0195L18.751 15.0234L21.3379 16.3311C21.7076 16.5178 21.8557 16.9682 21.669 17.3379C21.4822 17.7076 21.0309 17.8557 20.6612 17.6689L18.0733 16.3613C17.5661 16.105 17.25 15.5841 17.25 15.0195C17.25 12.4461 15.3759 10.2447 12.8682 9.82227C12.2977 9.72622 11.7015 9.72618 11.1309 9.82227C8.6234 10.2448 6.75007 12.4462 6.75004 15.0195C6.75004 15.5841 6.434 16.105 5.9268 16.3613L3.33793 17.6689C2.96824 17.8557 2.51693 17.7076 2.33012 17.3379C2.14364 16.9683 2.2926 16.5178 2.66215 16.3311L5.24906 15.0234L5.25004 15.0195C5.25007 11.7143 7.65168 8.88692 10.8819 8.34277ZM12 1.25C13.7949 1.25005 15.25 2.7051 15.25 4.5C15.25 6.2949 13.7949 7.74995 12 7.75C10.2051 7.75 8.75004 6.29493 8.75004 4.5C8.75004 2.70507 10.2051 1.25 12 1.25ZM12 2.75C11.0335 2.75 10.25 3.5335 10.25 4.5C10.25 5.4665 11.0335 6.25 12 6.25C12.9665 6.24995 13.75 5.46647 13.75 4.5C13.75 3.53353 12.9665 2.75005 12 2.75Z" fill="#48465C"/>
</svg>
