<svg width="24" height="24" viewBox="0 0 24 24" fill="none" xmlns="http://www.w3.org/2000/svg">
<path d="M14.0495 15.4004C14.3809 15.1519 14.8518 15.2184 15.1003 15.5498L16.1413 16.9395C16.1752 16.9846 16.1854 16.9969 16.194 17.0078C16.3584 17.2154 16.5844 17.3657 16.8395 17.4365C16.8529 17.4402 16.8676 17.4444 16.9226 17.458L18.4079 17.8291C19.7843 18.1734 20.7497 19.4103 20.7497 20.8291C20.7495 21.8901 19.8897 22.75 18.8288 22.75H16.5075C15.9059 22.75 15.535 22.7501 15.1657 22.7021C14.975 22.6774 14.7857 22.6424 14.5983 22.5986C14.2357 22.5139 13.8883 22.3841 13.3249 22.1729L11.1208 21.3467C10.7406 21.6316 10.4893 21.8165 10.2224 21.9717C9.54152 22.3673 8.78664 22.619 8.00459 22.7109C7.66968 22.7503 7.32859 22.75 6.7751 22.75H5.17158C4.11065 22.75 3.24987 21.8901 3.2497 20.8291C3.2497 19.4102 4.21587 18.1733 5.59248 17.8291L7.07685 17.458C7.13189 17.4443 7.14748 17.4402 7.16084 17.4365C7.41593 17.3656 7.64204 17.2154 7.80635 17.0078C7.81493 16.9969 7.82424 16.9846 7.8581 16.9395L8.9001 15.5498C9.14866 15.2186 9.61859 15.1519 9.9499 15.4004C10.2811 15.6489 10.3487 16.1188 10.1003 16.4502L9.05342 17.8457C9.02632 17.8818 9.00518 17.9106 8.9831 17.9385C8.6214 18.3958 8.12296 18.7259 7.56123 18.8818C7.52707 18.8914 7.49261 18.9002 7.44892 18.9111L7.44111 18.9131L5.95576 19.2842C5.2471 19.4616 4.7497 20.0986 4.7497 20.8291C4.74987 21.0616 4.93908 21.25 5.17158 21.25H6.72724C7.34366 21.25 7.59263 21.2486 7.82978 21.2207C8.40783 21.1528 8.96622 20.9673 9.46943 20.6748C9.6758 20.5548 9.87493 20.4058 10.3679 20.0361L12.5495 18.4004C12.8809 18.1519 13.3518 18.2184 13.6003 18.5498C13.8487 18.8811 13.7811 19.3511 13.4499 19.5996L12.5456 20.2783L13.8034 20.75C14.4296 20.9848 14.6824 21.0786 14.9392 21.1387C15.0776 21.1711 15.218 21.1965 15.3591 21.2148C15.6206 21.2488 15.8901 21.25 16.5593 21.25H18.8288C19.0613 21.25 19.2495 21.0616 19.2497 20.8291C19.2497 20.0985 18.7525 19.4615 18.0437 19.2842L16.5515 18.9111C16.5076 18.9001 16.4725 18.8914 16.4382 18.8818C15.8765 18.726 15.3789 18.3956 15.0173 17.9385C14.9951 17.9106 14.9732 17.8809 14.946 17.8447L13.9001 16.4502C13.6517 16.119 13.7185 15.649 14.0495 15.4004ZM10.8825 8.34277C11.618 8.21897 12.3825 8.21891 13.1179 8.34277C16.3481 8.88686 18.7497 11.7143 18.7497 15.0195L18.7507 15.0225L21.3386 16.3311C21.7078 16.5179 21.8561 16.9684 21.6696 17.3379C21.4828 17.7076 21.0315 17.8557 20.6618 17.6689L18.0729 16.3613C17.5657 16.105 17.2497 15.5841 17.2497 15.0195C17.2497 12.4461 15.3765 10.2447 12.8688 9.82227C12.2982 9.72617 11.7021 9.7262 11.1315 9.82227C8.62384 10.2447 6.74974 12.4461 6.7497 15.0195C6.7497 15.584 6.43451 16.105 5.92744 16.3613L3.33857 17.6689C2.96888 17.8557 2.51757 17.7076 2.33076 17.3379C2.14409 16.9683 2.29226 16.5179 2.66181 16.3311L5.24873 15.0234L5.2497 15.0195C5.24974 11.7143 7.65229 8.88686 10.8825 8.34277ZM11.9997 2C13.3804 2 14.4997 3.11929 14.4997 4.5C14.4997 5.88071 13.3804 7 11.9997 7C10.6191 6.99989 9.4997 5.88065 9.4997 4.5C9.4997 3.11935 10.6191 2.00011 11.9997 2Z" fill="#48465C"/>
</svg>
