<svg width="24" height="24" viewBox="0 0 24 24" fill="none" xmlns="http://www.w3.org/2000/svg">
<path fill-rule="evenodd" clip-rule="evenodd" d="M14.0494 15.4004C14.3807 15.1519 14.8517 15.2184 15.1002 15.5498L16.1412 16.9395C16.1752 16.9847 16.1854 16.9969 16.194 17.0078C16.3583 17.2154 16.5843 17.3657 16.8395 17.4365C16.8529 17.4402 16.8675 17.4444 16.9225 17.458L18.4078 17.8291C19.7843 18.1734 20.7496 19.4103 20.7496 20.8291C20.7495 21.8901 19.8896 22.75 18.8287 22.75H16.5075C15.9059 22.75 15.5349 22.7501 15.1657 22.7021C14.9749 22.6774 14.7856 22.6424 14.5983 22.5986C14.2357 22.5139 13.8882 22.3841 13.3248 22.1729L11.1207 21.3467C10.7405 21.6316 10.4891 21.8165 10.2223 21.9717C9.54143 22.3673 8.78657 22.619 8.00452 22.7109C7.66961 22.7503 7.32852 22.75 6.77503 22.75H5.17152C4.11059 22.75 3.2498 21.8901 3.24964 20.8291C3.24964 19.4102 4.21581 18.1733 5.59242 17.8291L7.07679 17.458C7.13188 17.4443 7.1474 17.4402 7.16077 17.4365C7.41587 17.3656 7.64197 17.2154 7.80628 17.0078C7.81488 16.9969 7.82417 16.9846 7.85804 16.9395L8.90003 15.5498C9.1486 15.2186 9.61853 15.1519 9.94984 15.4004C10.281 15.6489 10.3487 16.1188 10.1002 16.4502L9.05335 17.8447C9.02605 17.8811 9.00521 17.9105 8.98304 17.9385C8.62133 18.3958 8.1229 18.7259 7.56116 18.8818C7.52686 18.8914 7.49184 18.9002 7.44788 18.9111L7.44105 18.9131L5.9557 19.2842C5.24703 19.4616 4.74964 20.0986 4.74964 20.8291C4.7498 21.0616 4.93902 21.25 5.17152 21.25H6.72718C7.34359 21.25 7.59257 21.2486 7.82972 21.2207C8.40776 21.1528 8.96615 20.9673 9.46937 20.6748C9.67573 20.5548 9.87483 20.4058 10.3678 20.0361L10.5494 19.9004L12.5494 18.4004C12.8807 18.1519 13.3517 18.2184 13.6002 18.5498C13.8487 18.8812 13.7811 19.3511 13.4498 19.5996L12.5455 20.2783L13.8034 20.75C14.4296 20.9848 14.6822 21.0786 14.9391 21.1387C15.0776 21.1711 15.218 21.1965 15.359 21.2148C15.6207 21.2488 15.8902 21.25 16.5592 21.25H18.8287C19.0612 21.25 19.2495 21.0616 19.2496 20.8291C19.2496 20.0985 18.7525 19.4615 18.0436 19.2842L16.5514 18.9111C16.5075 18.9001 16.4725 18.8914 16.4381 18.8818C15.8766 18.726 15.3789 18.3956 15.0172 17.9385C14.9951 17.9106 14.9731 17.881 14.9459 17.8447L14.942 17.8389L13.9 16.4502C13.6517 16.119 13.7185 15.649 14.0494 15.4004ZM10.8825 8.34277C11.6178 8.21896 12.3824 8.21891 13.1178 8.34277C16.348 8.88686 18.7496 11.7143 18.7496 15.0195L18.7506 15.0234L21.3385 16.3311C21.7077 16.518 21.856 16.9684 21.6696 17.3379C21.4828 17.7076 21.0315 17.8557 20.6618 17.6689L18.0729 16.3613C17.5657 16.105 17.2496 15.5841 17.2496 15.0195C17.2496 12.4461 15.3764 10.2448 12.8688 9.82227C12.2983 9.72617 11.7021 9.72621 11.1315 9.82227C8.62384 10.2447 6.74967 12.4461 6.74964 15.0195C6.74964 15.584 6.43444 16.105 5.92738 16.3613L3.33851 17.6689C2.96882 17.8557 2.51751 17.7076 2.3307 17.3379C2.14404 16.9683 2.29219 16.5179 2.66175 16.3311L5.24867 15.0234L5.24964 15.0195C5.24968 11.7143 7.65219 8.88686 10.8825 8.34277ZM11.9996 1.25C13.7945 1.25 15.2496 2.70507 15.2496 4.5C15.2496 6.29493 13.7945 7.75 11.9996 7.75C10.2049 7.74985 8.74964 6.29484 8.74964 4.5C8.74964 2.70516 10.2049 1.25015 11.9996 1.25ZM11.9996 2.75C11.0333 2.75015 10.2496 3.53359 10.2496 4.5C10.2496 5.46641 11.0333 6.24985 11.9996 6.25C12.9661 6.25 13.7496 5.4665 13.7496 4.5C13.7496 3.5335 12.9661 2.75 11.9996 2.75Z" fill="#48465C"/>
</svg>
