<svg width="24" height="24" viewBox="0 0 24 24" fill="none" xmlns="http://www.w3.org/2000/svg">
<path d="M9 14.25C9.41418 14.25 9.75 14.5858 9.75 15V20.8574C9.7498 21.2715 9.41406 21.6074 9 21.6074C8.58592 21.6074 8.25021 21.2715 8.25 20.8574V16.8105L2.53028 22.5303C2.23741 22.8231 1.76262 22.8231 1.46973 22.5303C1.17684 22.2374 1.17684 21.7626 1.46973 21.4697L7.18946 15.75H3.14258C2.72848 15.7499 2.39261 15.4141 2.39258 15C2.39258 14.5859 2.72846 14.2501 3.14258 14.25H9ZM21.4697 1.46973C21.7626 1.17684 22.2374 1.17684 22.5303 1.46973C22.8231 1.76262 22.8231 2.23741 22.5303 2.53028L16.8105 8.25H20.8574C21.2715 8.25021 21.6074 8.58592 21.6074 9C21.6074 9.41406 21.2715 9.7498 20.8574 9.75H15C14.5858 9.75 14.25 9.41418 14.25 9V3.14258C14.2501 2.72846 14.5859 2.39258 15 2.39258C15.4141 2.39261 15.7499 2.72848 15.75 3.14258V7.18946L21.4697 1.46973Z" fill="#48465C"/>
</svg>
