<svg width="24" height="24" viewBox="0 0 24 24" fill="none" xmlns="http://www.w3.org/2000/svg">
<path fill-rule="evenodd" clip-rule="evenodd" d="M8.99994 14.25C9.41412 14.25 9.74994 14.5858 9.74994 15V20.8574C9.74973 21.2715 9.414 21.6074 8.99994 21.6074C8.58586 21.6074 8.25015 21.2715 8.24994 20.8574V16.8105L2.53021 22.5303C2.23735 22.8231 1.76256 22.8231 1.46967 22.5303C1.17678 22.2374 1.17678 21.7626 1.46967 21.4697L7.18939 15.75H3.14252C2.72842 15.7499 2.39255 15.4141 2.39252 15C2.39252 14.5859 2.7284 14.2501 3.14252 14.25H8.99994ZM21.4697 1.46973C21.7626 1.17684 22.2373 1.17684 22.5302 1.46973C22.823 1.76262 22.8231 2.23741 22.5302 2.53028L16.8105 8.25H20.8574C21.2715 8.25021 21.6074 8.58592 21.6074 9C21.6073 9.41406 21.2715 9.7498 20.8574 9.75H14.9999C14.5858 9.75 14.25 9.41418 14.2499 9V3.14258C14.2501 2.72846 14.5858 2.39258 14.9999 2.39258C15.414 2.39261 15.7498 2.72848 15.7499 3.14258V7.18946L21.4697 1.46973Z" fill="#48465C"/>
</svg>
