<svg width="24" height="24" viewBox="0 0 24 24" fill="none" xmlns="http://www.w3.org/2000/svg">
<path d="M12.0002 2C15.63 2.00014 18.6141 4.96071 18.965 8.75098C18.9765 8.75046 18.9887 8.75 19.0002 8.75C19.4143 8.75014 19.7502 9.08588 19.7502 9.5V19C19.7502 19.4868 19.9083 19.9601 20.2003 20.3496L21.0998 21.5498C21.3482 21.881 21.2813 22.351 20.9503 22.5996C20.619 22.8481 20.1482 22.7816 19.8996 22.4502L19.0002 21.25C18.8811 21.0913 18.7755 20.9238 18.6837 20.75H5.31656C5.22482 20.9239 5.11925 21.0912 5.00015 21.25L4.09976 22.4502C3.8512 22.7814 3.38126 22.8481 3.04996 22.5996C2.71875 22.3511 2.65114 21.8811 2.89957 21.5498L3.79996 20.3496C4.09193 19.9602 4.25015 19.4867 4.25015 19V9.5C4.25015 9.08579 4.58594 8.75 5.00015 8.75C5.01162 8.75 5.023 8.75046 5.03433 8.75098C5.3852 4.96061 8.37016 2 12.0002 2ZM18.2502 12.8809C17.0964 15.3245 14.7307 16.9999 12.0002 17C9.26951 17 6.90401 15.3245 5.75015 12.8809V19C5.75015 19.0836 5.74692 19.167 5.74137 19.25H18.258C18.2524 19.167 18.2502 19.0836 18.2502 19V12.8809ZM13.5763 4.59375C13.1495 4.39983 12.6201 4.53858 12.3937 4.9043C12.1673 5.27026 12.33 5.72493 12.757 5.91895C13.5487 6.27884 14.306 7.24086 14.548 8.6123C14.6203 9.02181 15.0664 9.30405 15.5441 9.24219C16.0219 9.18024 16.3508 8.79726 16.2785 8.3877C15.9869 6.73555 15.0263 5.2527 13.5763 4.59375Z" fill="#48465C"/>
</svg>
