<svg width="24" height="24" viewBox="0 0 24 24" fill="none" xmlns="http://www.w3.org/2000/svg">
<path fill-rule="evenodd" clip-rule="evenodd" d="M10 20H10.9092C11.3234 20 11.6592 20.3358 11.6592 20.75C11.6592 21.1642 11.3234 21.5 10.9092 21.5H9.99805C9.5643 21.5 9.15897 21.5003 8.78419 21.4971C8.3702 21.4932 8.03746 21.1543 8.04102 20.7402C8.04464 20.3261 8.38368 19.9935 8.79786 19.9971C9.16551 20.0003 9.56391 20 10 20ZM13 2.00001C13.4141 2.00001 13.7498 2.33596 13.75 2.75001C17.1523 2.75497 19.7355 2.82925 20.8281 3.92188C21.9997 5.09346 22 6.97878 22 10.75V12.75C22 16.5212 21.9997 18.4066 20.8281 19.5781C19.7355 20.6708 17.1523 20.745 13.75 20.75C13.75 21.1642 13.4142 21.5 13 21.5C12.5858 21.5 12.25 21.1642 12.25 20.75V2.75001C12.25 2.3358 12.5858 2.00001 13 2.00001ZM4.0547 18.1211C4.45021 17.9983 4.87025 18.2198 4.99317 18.6152C5.09298 18.9363 5.22778 19.1594 5.40919 19.3408C5.59059 19.5223 5.81377 19.6571 6.13477 19.7568C6.53029 19.8797 6.75177 20.2998 6.62891 20.6953C6.50604 21.0908 6.08584 21.3121 5.69044 21.1895C5.17505 21.0293 4.72823 20.7809 4.34864 20.4014C3.96907 20.0218 3.72073 19.575 3.56055 19.0596C3.43798 18.6641 3.65932 18.2439 4.0547 18.1211ZM4.00001 12.6367C4.41422 12.6367 4.75001 12.9724 4.75001 13.3867V14.75C4.75001 15.1861 4.74977 15.5845 4.75294 15.9522C4.75651 16.3663 4.42393 16.7053 4.00977 16.709C3.59572 16.7126 3.25674 16.3798 3.25294 15.9658C3.24971 15.591 3.25001 15.1857 3.25001 14.752V13.3867C3.25001 12.9725 3.5858 12.6367 4.00001 12.6367ZM4.00977 6.79102C4.42393 6.79464 4.75651 7.13369 4.75294 7.54786C4.74977 7.91552 4.75001 8.31391 4.75001 8.75001V10.1133C4.75001 10.5275 4.41422 10.8633 4.00001 10.8633C3.5858 10.8633 3.25001 10.5275 3.25001 10.1133V8.74805C3.25001 8.3143 3.2497 7.90898 3.25294 7.53419C3.25675 7.1202 3.59572 6.78745 4.00977 6.79102ZM5.69044 2.31055C6.08585 2.18796 6.50604 2.40931 6.62891 2.80469C6.75178 3.20022 6.53029 3.62025 6.13477 3.74317C5.81376 3.84298 5.59059 3.97778 5.40919 4.15919C5.22778 4.34059 5.09298 4.56376 4.99317 4.88477C4.87025 5.28029 4.45022 5.50178 4.0547 5.37891C3.65931 5.25603 3.43796 4.83584 3.56055 4.44044C3.72073 3.92505 3.96905 3.47823 4.34864 3.09864C4.72823 2.71905 5.17505 2.47073 5.69044 2.31055ZM10.9092 2.00001C11.3234 2.00005 11.6592 2.33582 11.6592 2.75001C11.6592 3.16419 11.3234 3.49997 10.9092 3.50001H10C9.56392 3.50001 9.16551 3.49977 8.79786 3.50294C8.38369 3.50651 8.04465 3.17393 8.04102 2.75977C8.03746 2.34572 8.3702 2.00676 8.78419 2.00294C9.15901 1.99971 9.56424 2.00001 9.99805 2.00001H10.9092Z" fill="#48465C"/>
</svg>
