<svg width="24" height="24" viewBox="0 0 24 24" fill="none" xmlns="http://www.w3.org/2000/svg">
<path d="M12.0001 1.25C15.6686 1.25012 18.4402 4.70759 18.7257 8.80176C18.8106 8.76837 18.9034 8.75 19.0001 8.75C19.4143 8.7501 19.7501 9.08585 19.7501 9.5V19C19.7501 19.4868 19.9083 19.9601 20.2003 20.3496L21.0998 21.5498C21.3481 21.8811 21.2814 22.351 20.9503 22.5996C20.6189 22.8481 20.1481 22.7816 19.8996 22.4502L19.0001 21.25C18.8811 21.0912 18.7754 20.9238 18.6837 20.75H5.31655C5.22481 20.9239 5.11925 21.0912 5.00015 21.25L4.09976 22.4502C3.8512 22.7814 3.38125 22.8481 3.04995 22.5996C2.71875 22.3511 2.65112 21.8811 2.89956 21.5498L3.79995 20.3496C4.09193 19.9602 4.25015 19.4867 4.25015 19V9.5C4.25015 9.08579 4.58594 8.75 5.00015 8.75C5.09688 8.75003 5.18967 8.76838 5.27456 8.80176C5.56004 4.70752 8.33158 1.25 12.0001 1.25ZM18.2501 12.6133C17.2656 15.5655 14.916 17.7499 12.0001 17.75C9.08417 17.75 6.73471 15.5655 5.75015 12.6133V19C5.75015 19.0836 5.74691 19.167 5.74136 19.25H18.258C18.2525 19.167 18.2501 19.0836 18.2501 19V12.6133ZM12.0001 2.75C9.24816 2.75 6.75015 5.60725 6.75015 9.5C6.75015 13.3927 9.24816 16.25 12.0001 16.25C14.7521 16.2499 17.2501 13.3926 17.2501 9.5C17.2501 5.60734 14.7521 2.75013 12.0001 2.75ZM12.3371 4.9043C12.5311 4.53851 12.9858 4.39976 13.3517 4.59375C14.5944 5.25282 15.4172 6.73579 15.6671 8.3877C15.7291 8.79712 15.4476 9.18005 15.0382 9.24219C14.6287 9.30413 14.2456 9.02185 14.1837 8.6123C13.9763 7.24081 13.3272 6.27879 12.6486 5.91895C12.2826 5.72493 12.143 5.27026 12.3371 4.9043Z" fill="#48465C"/>
</svg>
