<svg width="24" height="24" viewBox="0 0 24 24" fill="none" xmlns="http://www.w3.org/2000/svg">
<path d="M8.75781 3.95023C9.0612 3.66864 9.53552 3.68623 9.81738 3.98929C10.0992 4.29283 10.0818 4.76799 9.77832 5.04984L4.5625 9.89359C3.92129 10.489 3.55671 11.3243 3.55664 12.1993C3.55664 13.1218 3.96162 13.9977 4.66406 14.5957L9.75391 18.9287C10.0693 19.1972 10.1074 19.671 9.83887 19.9864C9.57038 20.3015 9.09754 20.3396 8.78223 20.0713L3.69141 15.7383C2.65417 14.8554 2.05664 13.5614 2.05664 12.1993C2.05671 10.9071 2.59512 9.67322 3.54199 8.79398L8.75781 3.95023ZM13.2881 4.61331C13.4437 4.60755 13.5933 4.67489 13.6924 4.79496C13.8065 4.93345 13.8066 5.21636 13.8066 5.78128V8.57132C16.9958 8.57134 21.4459 10.3006 22.5508 16.7666C22.721 17.7624 22.8063 18.2606 22.71 18.42C22.6161 18.5751 22.501 18.6453 22.3203 18.6592C22.1347 18.6735 21.6468 18.3135 20.6719 17.5928C18.7993 16.2084 16.2347 15.4288 13.8066 15.4287V18.2188C13.8066 18.7833 13.8063 19.0656 13.6924 19.2041C13.5933 19.3244 13.4438 19.3916 13.2881 19.3858C13.1088 19.3791 12.8969 19.1917 12.4746 18.8164L7.49707 14.3916C6.56659 13.5645 6.10116 13.1504 5.92969 12.6621C5.77926 12.2334 5.77916 11.7657 5.92969 11.3369C6.10123 10.8488 6.56682 10.4354 7.49707 9.60843L12.4746 5.18363C12.8969 4.80826 13.1088 4.62002 13.2881 4.61331Z" fill="#48465C"/>
</svg>
