<svg width="24" height="24" viewBox="0 0 24 24" fill="none" xmlns="http://www.w3.org/2000/svg">
<path d="M10.9883 3.97367C11.5115 3.73881 11.9785 3.98475 12.2354 4.15433C12.4969 4.32705 12.7997 4.59638 13.124 4.8848C13.1368 4.89619 13.1502 4.90753 13.1631 4.91898L17.1768 8.48636C17.9256 9.15202 18.5464 9.70419 18.9727 10.2051C19.4206 10.7316 19.7392 11.2987 19.7393 12C19.7393 12.7014 19.4207 13.2685 18.9727 13.795C18.5464 14.296 17.9257 14.848 17.1768 15.5137L13.1631 19.0811C13.1502 19.0925 13.1368 19.1039 13.124 19.1153C12.7997 19.4037 12.4969 19.673 12.2354 19.8457C11.9785 20.0153 11.5114 20.262 10.9883 20.0274C10.4652 19.7924 10.3388 19.2794 10.2949 18.9746C10.2502 18.6645 10.2499 18.2592 10.25 17.8252V16.2051C8.79851 16.3052 7.32762 16.6905 6.04102 17.3174C4.52813 18.0546 3.31979 19.0997 2.66406 20.3487C2.50366 20.6542 2.15534 20.8112 1.82031 20.7286C1.48533 20.6459 1.25 20.3451 1.25 20C1.25001 15.2792 2.63139 12.2054 4.60645 10.3155C6.32805 8.66827 8.42636 7.99208 10.25 7.85062V6.17484C10.2499 5.74086 10.2502 5.33559 10.2949 5.02543C10.3389 4.72072 10.4652 4.20858 10.9883 3.97367ZM14.9893 3.98929C15.2711 3.68622 15.7455 3.66864 16.0488 3.95023L21.2646 8.79398C22.2115 9.67322 22.7499 10.9071 22.75 12.1993C22.75 13.5614 22.1525 14.8554 21.1152 15.7383L16.0244 20.0713C15.7091 20.3396 15.2363 20.3015 14.9678 19.9864C14.6994 19.671 14.7373 19.1972 15.0527 18.9287L20.1426 14.5957C20.845 13.9977 21.25 13.1218 21.25 12.1993C21.2499 11.3243 20.8854 10.489 20.2441 9.89359L15.0283 5.04984C14.7248 4.76799 14.7074 4.29283 14.9893 3.98929ZM11.75 6.2266V8.57133C11.75 8.98555 11.4142 9.32133 11 9.32133C9.31043 9.32133 7.2636 9.84942 5.64355 11.3995C4.34254 12.6444 3.25254 14.6104 2.88379 17.6573C3.60961 16.9816 4.46504 16.4165 5.38379 15.9688C7.09976 15.1327 9.08743 14.6787 11 14.6787C11.4142 14.6787 11.75 15.0145 11.75 15.4287V17.7735C11.75 17.9941 11.7502 18.1745 11.7529 18.3233C11.8659 18.2264 12.001 18.1066 12.166 17.96L16.1387 14.4287C16.9393 13.717 17.4799 13.2346 17.8301 12.8233C18.1664 12.4281 18.2393 12.1967 18.2393 12C18.2392 11.8034 18.1662 11.5728 17.8301 11.1778C17.4799 10.7663 16.9396 10.2833 16.1387 9.57133L12.166 6.04008C12.001 5.89348 11.8659 5.77368 11.7529 5.67679C11.7502 5.8256 11.75 6.00606 11.75 6.2266Z" fill="#48465C"/>
</svg>
