<svg width="24" height="24" viewBox="0 0 24 24" fill="none" xmlns="http://www.w3.org/2000/svg">
<path d="M14.9888 3.9893C15.2706 3.68606 15.7449 3.66879 16.0484 3.95024L21.2652 8.79399C22.212 9.67325 22.7495 10.9071 22.7496 12.1993C22.7496 13.5615 22.1521 14.8554 21.1148 15.7383L16.025 20.0713C15.7096 20.3398 15.2359 20.3018 14.9673 19.9864C14.6988 19.671 14.7369 19.1973 15.0523 18.9288L20.1431 14.5957C20.8454 13.9978 21.2496 13.1217 21.2496 12.1993C21.2495 11.3244 20.8858 10.489 20.2447 9.8936L15.0279 5.04985C14.7244 4.76799 14.7071 4.29281 14.9888 3.9893ZM11.5191 4.61333C11.6984 4.62031 11.9096 4.80856 12.3316 5.18364L17.3091 9.60844C18.2394 10.4354 18.7049 10.8488 18.8765 11.337C19.0271 11.7658 19.027 12.2333 18.8765 12.6622C18.705 13.1505 18.2396 13.5644 17.3091 14.3916L12.3316 18.8165C11.9096 19.1914 11.6984 19.3788 11.5191 19.3858C11.3633 19.3917 11.2129 19.3244 11.1138 19.2041C11 19.0655 10.9996 18.783 10.9996 18.2188V15.4288C8.57165 15.4288 6.00684 16.2085 4.13433 17.5928C3.15985 18.3132 2.6726 18.6734 2.48687 18.6592C2.306 18.6454 2.19109 18.5751 2.09722 18.42C2.00089 18.2606 2.08623 17.7624 2.2564 16.7666C3.36135 10.3009 7.8105 8.57148 10.9996 8.57134V5.7813C10.9996 5.21634 10.9996 4.93347 11.1138 4.79497C11.2129 4.67469 11.3633 4.60749 11.5191 4.61333Z" fill="#48465C"/>
</svg>
