<svg width="24" height="24" viewBox="0 0 24 24" fill="none" xmlns="http://www.w3.org/2000/svg">
<path fill-rule="evenodd" clip-rule="evenodd" d="M14.989 3.98928C15.2708 3.6861 15.7452 3.66876 16.0486 3.95022L21.2654 8.79397C22.2122 9.67321 22.7497 10.9071 22.7498 12.1992C22.7498 13.5614 22.1523 14.8554 21.115 15.7383L16.0252 20.0713C15.7098 20.3398 15.236 20.3018 14.9675 19.9864C14.699 19.671 14.7371 19.1972 15.0525 18.9287L20.1433 14.5957C20.8456 13.9977 21.2498 13.1217 21.2498 12.1992C21.2497 11.3244 20.8859 10.489 20.2449 9.89358L15.0281 5.04983C14.7245 4.76797 14.7072 4.2928 14.989 3.98928ZM11.5183 4.61331C11.6977 4.62002 11.9095 4.80825 12.3318 5.18362L17.3093 9.60842C18.2396 10.4354 18.7051 10.8488 18.8767 11.3369C19.0273 11.7657 19.0272 12.2333 18.8767 12.6621C18.7052 13.1504 18.2398 13.5644 17.3093 14.3916L12.3318 18.8164C11.9095 19.1917 11.6977 19.3791 11.5183 19.3858C11.3627 19.3915 11.213 19.3243 11.114 19.2041C11.0001 19.0655 10.9998 18.7831 10.9998 18.2188V15.4287C8.57181 15.4288 6.00706 16.2085 4.13453 17.5928C3.16016 18.3131 2.67288 18.6732 2.48707 18.6592C2.3062 18.6454 2.19128 18.575 2.09742 18.4199C2.00109 18.2605 2.08545 17.7624 2.25562 16.7666C3.36057 10.3007 7.81068 8.57142 10.9998 8.57131V5.78127C10.9998 5.21636 10.9998 4.93344 11.114 4.79495C11.213 4.67484 11.3627 4.60762 11.5183 4.61331Z" fill="#48465C"/>
</svg>
