<svg width="24" height="24" viewBox="0 0 24 24" fill="none" xmlns="http://www.w3.org/2000/svg">
<path fill-rule="evenodd" clip-rule="evenodd" d="M18.4102 2.19046C19.199 2.05008 19.9529 2.07158 20.6084 2.54398C21.2637 3.01638 21.5225 3.72499 21.6387 4.51761C21.7007 4.94087 21.7279 5.4358 21.7402 6.00003H21.75V17C21.75 19.0711 20.0711 20.75 18 20.75C15.9289 20.75 14.25 19.0711 14.25 17C14.2502 14.9291 15.929 13.25 18 13.25C18.8442 13.25 19.6233 13.5293 20.25 14V9.04105L9.75 12.541V19C9.75 21.0711 8.07107 22.75 6 22.75C3.92893 22.75 2.25 21.0711 2.25 19C2.25016 16.9291 3.92903 15.25 6 15.25C6.8442 15.25 7.62325 15.5293 8.25 16V8.00003H8.25488C8.26079 7.69246 8.2735 7.41453 8.30176 7.16703C8.35713 6.68236 8.47852 6.23779 8.76953 5.83402C9.06062 5.43023 9.44433 5.17458 9.88672 4.96878C10.3028 4.77526 10.8321 4.5993 11.458 4.39066L15.5557 3.02445C16.7075 2.64046 17.6515 2.32551 18.4102 2.19046ZM6 16.75C4.75746 16.75 3.75016 17.7576 3.75 19C3.75 20.2426 4.75736 21.25 6 21.25C7.24264 21.25 8.25 20.2426 8.25 19C8.24984 17.7576 7.24254 16.75 6 16.75ZM18 14.75C16.7575 14.75 15.7502 15.7576 15.75 17C15.75 18.2426 16.7574 19.25 18 19.25C19.2426 19.25 20.25 18.2426 20.25 17C20.2498 15.7576 19.2425 14.75 18 14.75ZM19.7305 3.76078C19.5553 3.63472 19.2925 3.55772 18.6729 3.668C18.0354 3.78149 17.1965 4.05887 15.9727 4.46683L11.9727 5.79984C11.2964 6.02525 10.849 6.17592 10.5195 6.32913C10.2077 6.47419 10.0728 6.59113 9.98633 6.71097C9.89991 6.83087 9.83102 6.99608 9.79199 7.33792C9.75081 7.69889 9.75 8.17107 9.75 8.88382V10.96L20.25 7.45999C20.2499 6.21865 20.246 5.36098 20.1543 4.73538C20.0629 4.11216 19.9056 3.88702 19.7305 3.76078Z" fill="#48465C"/>
</svg>
