<svg width="24" height="24" viewBox="0 0 24 24" fill="none" xmlns="http://www.w3.org/2000/svg">
<path d="M17.1299 2.14306C18.0233 1.93856 18.8907 1.9055 19.6621 2.36669L19.6709 2.37255C19.7157 2.39962 19.759 2.42767 19.8008 2.45653C20.0236 2.6108 20.2025 2.79059 20.3467 2.98974C20.6348 3.38791 20.7846 3.86437 20.8691 4.37548C20.8853 4.47359 20.8997 4.57928 20.9121 4.68505C20.9998 5.4334 21 6.37278 21 7.49267V16.855C21 18.614 19.4122 20.0405 17.4541 20.0405C15.4962 20.0403 13.9092 18.6139 13.9092 16.855C13.9093 15.0962 15.4962 13.6706 17.4541 13.6704C18.1568 13.6704 18.8124 13.8536 19.3633 14.1704V8.63134L10.0908 11.9634V18.8149C10.0908 20.5738 8.50379 22.0003 6.5459 22.0005C4.5878 22.0005 3 20.5739 3 18.8149C3.00012 17.056 4.58787 15.6304 6.5459 15.6304C7.2484 15.6304 7.90325 15.8137 8.4541 16.1304V8.33739C8.45407 7.73783 8.45438 7.22971 8.50488 6.812C8.55863 6.36764 8.67571 5.95841 8.95703 5.5786C9.23845 5.19872 9.61416 4.94318 10.0498 4.72704C10.4592 4.52398 10.9812 4.32856 11.5967 4.09716L13.8809 3.23778C15.1944 2.74384 16.2658 2.34086 17.1299 2.14306Z" fill="#48465C"/>
</svg>
