<svg width="24" height="24" viewBox="0 0 24 24" fill="none" xmlns="http://www.w3.org/2000/svg">
<path fill-rule="evenodd" clip-rule="evenodd" d="M17.1299 2.14358C18.0234 1.93905 18.8906 1.90595 19.6621 2.36721L19.6709 2.3721C19.7156 2.39912 19.7591 2.42727 19.8008 2.45608C20.0235 2.61031 20.2025 2.7902 20.3467 2.98928C20.6349 3.38756 20.7846 3.86472 20.8691 4.376C20.8853 4.47397 20.8997 4.57899 20.9121 4.6846C20.9998 5.43291 21 6.37236 21 7.49221V16.8555C20.9998 18.6143 19.4121 20.0401 17.4541 20.0401C15.4963 20.0399 13.9094 18.6142 13.9092 16.8555C13.9092 15.0966 15.4962 13.6701 17.4541 13.6699C18.1569 13.6699 18.8123 13.8541 19.3633 14.1709V8.63088L10.0908 11.9629V18.8155C10.0906 20.5742 8.50367 21.9998 6.5459 22C4.58792 22 3.00019 20.5743 3 18.8155C3 17.0565 4.5878 15.6299 6.5459 15.6299C7.2485 15.63 7.9032 15.8142 8.4541 16.1309V8.33792C8.45407 7.73846 8.45442 7.23021 8.50488 6.81253C8.55863 6.36806 8.6756 5.95804 8.95703 5.57815C9.23844 5.19835 9.61422 4.94368 10.0498 4.72756C10.4593 4.52447 10.9811 4.32815 11.5967 4.0967L13.8809 3.23733C15.1944 2.74341 16.2658 2.34138 17.1299 2.14358Z" fill="#48465C"/>
</svg>
