<svg width="24" height="24" viewBox="0 0 24 24" fill="none" xmlns="http://www.w3.org/2000/svg">
<path d="M18.4102 2.19095C19.199 2.05057 19.9529 2.07207 20.6084 2.54447C21.2635 3.01683 21.5225 3.72467 21.6387 4.51712C21.7008 4.94052 21.7279 5.43602 21.7402 6.00052H21.75V17.0005C21.7499 19.0716 20.071 20.7505 18 20.7505C15.929 20.7505 14.2501 19.0716 14.25 17.0005C14.25 14.9294 15.9289 13.2505 18 13.2505C18.8442 13.2505 19.6233 13.5298 20.25 14.0005V9.04056L9.75 12.5406V19.0005C9.74992 21.0716 8.07102 22.7505 6 22.7505C3.92898 22.7505 2.25008 21.0716 2.25 19.0005C2.25 16.9294 3.92893 15.2505 6 15.2505C6.8442 15.2505 7.62325 15.5298 8.25 16.0005V8.00052H8.25488C8.26078 7.69285 8.27349 7.41509 8.30176 7.16751C8.35711 6.68269 8.47844 6.23741 8.76953 5.83353C9.06059 5.42994 9.44445 5.17501 9.88672 4.96927C10.3028 4.7757 10.8319 4.59887 11.458 4.39017L15.5557 3.02494C16.7075 2.64096 17.6515 2.32601 18.4102 2.19095ZM6 16.7505C4.75736 16.7505 3.75 17.7579 3.75 19.0005C3.75008 20.2431 4.75741 21.2505 6 21.2505C7.24259 21.2505 8.24992 20.2431 8.25 19.0005C8.25 17.7579 7.24264 16.7505 6 16.7505ZM18 14.7505C16.7574 14.7505 15.75 15.7579 15.75 17.0005C15.7501 18.2431 16.7575 19.2505 18 19.2505C19.2425 19.2505 20.2499 18.2431 20.25 17.0005C20.25 15.7579 19.2426 14.7505 18 14.7505ZM19.7305 3.76126C19.5553 3.63512 19.2928 3.55718 18.6729 3.66751C18.0354 3.78099 17.1966 4.05932 15.9727 4.46732L11.9727 5.80033C11.2963 6.02577 10.849 6.17638 10.5195 6.32962C10.2075 6.47475 10.0728 6.59156 9.98633 6.71146C9.89996 6.83133 9.83101 6.99582 9.79199 7.33744C9.75077 7.69843 9.75 8.17038 9.75 8.88333V10.9595L20.25 7.45951C20.2499 6.21806 20.2461 5.36048 20.1543 4.7349C20.0629 4.11176 19.9056 3.8875 19.7305 3.76126Z" fill="#48465C"/>
</svg>
