<svg width="24" height="24" viewBox="0 0 24 24" fill="none" xmlns="http://www.w3.org/2000/svg">
<path d="M13.2334 3.71982C14.0041 3.3245 14.7883 3.09067 15.583 3.37705C15.8427 3.47063 16.0913 3.60474 16.3135 3.76963C16.9703 4.25704 17.2469 5.01435 17.3975 5.87021C17.4691 6.2781 17.1968 6.66753 16.7891 6.73935C16.3811 6.81108 15.9917 6.53793 15.9199 6.12998C15.79 5.39088 15.6066 5.11329 15.4199 4.9747C15.3137 4.8959 15.1944 4.8315 15.0742 4.78818C14.8778 4.71752 14.5755 4.71655 13.918 5.05381C13.2596 5.39154 12.4229 5.9727 11.2236 6.80771L10.9717 6.98252C10.6217 7.22631 10.3729 7.40006 10.0996 7.52744C9.83003 7.65304 9.54592 7.74293 9.25391 7.79502C8.9572 7.84793 8.65659 7.84787 8.23828 7.84775H8.17871C6.83068 7.84775 6.40239 7.86613 6.03809 8.04404C5.68079 8.21859 5.28826 8.60426 5.09375 8.98545C4.89003 9.38487 4.85275 9.7966 4.78125 11.0353C4.7616 11.3756 4.75001 11.7023 4.75 12.0001C4.75 12.2981 4.76159 12.6253 4.78125 12.9659C4.85275 14.2046 4.89001 14.6162 5.09375 15.0157C5.28826 15.3968 5.68079 15.7826 6.03809 15.9571C6.40238 16.135 6.83075 16.1534 8.17871 16.1534H8.23828C8.65659 16.1533 8.9572 16.1533 9.25391 16.2061C9.54593 16.2582 9.83002 16.3482 10.0996 16.4737C10.3729 16.6011 10.6217 16.7748 10.9717 17.0186L11.2236 17.1935C12.4227 18.0283 13.2596 18.6087 13.918 18.9464C14.5758 19.2838 14.8778 19.2828 15.0742 19.212C15.1944 19.1687 15.3137 19.1053 15.4199 19.0265C15.6067 18.8878 15.7899 18.6097 15.9199 17.8702C15.9919 17.4624 16.3812 17.19 16.7891 17.2618C17.1967 17.3336 17.4689 17.7222 17.3975 18.13C17.247 18.9861 16.9704 19.744 16.3135 20.2315C16.0913 20.3964 15.8427 20.5306 15.583 20.6241C14.7883 20.9105 14.0041 20.6767 13.2334 20.2813C12.4741 19.8918 11.5545 19.2515 10.415 18.4581L10.1641 18.2833C9.74614 17.9923 9.6073 17.8991 9.46582 17.8331C9.31318 17.7621 9.15324 17.7118 8.99023 17.6827C8.84033 17.6561 8.67963 17.6534 8.17871 17.6534H8.01855C6.8994 17.6541 6.09395 17.6541 5.37891 17.3048C4.71942 16.9825 4.09474 16.3577 3.75781 15.6974C3.39445 14.9851 3.35186 14.2424 3.29102 13.1798L3.2832 13.0519C3.26239 12.6912 3.25 12.3343 3.25 12.0001C3.25001 11.6661 3.2624 11.3098 3.2832 10.9493L3.29102 10.8214C3.35186 9.75886 3.3945 9.01602 3.75781 8.30381C4.09473 7.64352 4.71944 7.01871 5.37891 6.69638C6.09395 6.34705 6.89941 6.347 8.01855 6.34775H8.17871C8.67959 6.34775 8.84034 6.34516 8.99023 6.31845C9.15323 6.2894 9.3132 6.23914 9.46582 6.16806C9.60729 6.10213 9.74615 6.00882 10.1641 5.71787L10.415 5.54306C11.5545 4.74968 12.4741 4.10934 13.2334 3.71982ZM19.4697 8.46982C19.7626 8.17703 20.2374 8.177 20.5303 8.46982C20.8231 8.76269 20.8231 9.23746 20.5303 9.53037L18.0605 12.0001L20.5303 14.4698C20.8232 14.7627 20.8231 15.2375 20.5303 15.5304C20.2374 15.8233 19.7626 15.8232 19.4697 15.5304L17 13.0606L14.5303 15.5304C14.2374 15.8233 13.7626 15.8233 13.4697 15.5304C13.1769 15.2375 13.1769 14.7627 13.4697 14.4698L15.9395 12.0001L13.4697 9.53037C13.1769 9.23748 13.1769 8.76272 13.4697 8.46982C13.7626 8.17702 14.2374 8.17699 14.5303 8.46982L17 10.9395L19.4697 8.46982Z" fill="#48465C"/>
</svg>
