<svg width="24" height="24" viewBox="0 0 24 24" fill="none" xmlns="http://www.w3.org/2000/svg">
<path fill-rule="evenodd" clip-rule="evenodd" d="M10.7637 6.19225C13.1374 4.54808 14.3241 3.72574 15.3203 4.08288C15.5112 4.15134 15.6963 4.2501 15.8613 4.37194C16.647 4.95226 16.7698 6.235 16.8848 8.70299L15.5908 7.40905C14.7122 6.5306 13.2878 6.5306 12.4092 7.40905C11.5305 8.28773 11.5305 9.71298 12.4092 10.5917L13.8184 11.9999L12.4092 13.409C11.5306 14.2877 11.5306 15.713 12.4092 16.5917C13.2878 17.4699 14.7122 17.4699 15.5908 16.5917L16.8848 15.2967C16.7698 17.7651 16.6472 19.0484 15.8613 19.6288C15.6963 19.7506 15.5112 19.8493 15.3203 19.9178C14.3241 20.2749 13.1373 19.4525 10.7637 17.8085C10.1621 17.3917 9.86079 17.1835 9.52539 17.0624C9.4557 17.0372 9.38485 17.0153 9.31348 16.996C8.97011 16.9031 8.60994 16.9032 7.88965 16.9032C5.87295 16.9032 4.86438 16.9025 4.10059 16.2674C3.96118 16.1514 3.79403 15.9807 3.68066 15.8368C3.05963 15.0482 3.04081 14.127 3.00293 12.285C3.00093 12.1883 3 12.0927 3 11.9999C3 11.9072 3.00093 11.8123 3.00293 11.7157C3.04082 9.87363 3.05972 8.9524 3.68066 8.16393C3.79403 8.02001 3.96118 7.84923 4.10059 7.73327C4.86439 7.09804 5.87284 7.09753 7.88965 7.09753C8.6099 7.09753 8.97013 7.09758 9.31348 7.00475C9.38483 6.98546 9.45572 6.96349 9.52539 6.93835C9.8608 6.81729 10.1621 6.609 10.7637 6.19225ZM19.4697 8.4696C19.7626 8.17694 20.2374 8.17692 20.5303 8.4696C20.8231 8.76243 20.823 9.23724 20.5303 9.53014L18.0605 11.9999L20.5303 14.4696C20.8231 14.7624 20.823 15.2372 20.5303 15.5301C20.2374 15.823 19.7626 15.823 19.4697 15.5301L17 13.0614L14.5303 15.5301C14.2374 15.823 13.7626 15.823 13.4697 15.5301C13.177 15.2372 13.1769 14.7624 13.4697 14.4696L15.9395 11.9999L13.4697 9.53014C13.177 9.23724 13.1769 8.76243 13.4697 8.4696C13.7626 8.17692 14.2374 8.17691 14.5303 8.4696L17 10.9393L19.4697 8.4696Z" fill="#48465C"/>
</svg>
