<svg width="24" height="24" viewBox="0 0 24 24" fill="none" xmlns="http://www.w3.org/2000/svg">
<path d="M10.7637 6.19176C13.1374 4.5476 14.3241 3.72526 15.3203 4.08239C15.5112 4.15085 15.6963 4.2496 15.8613 4.37145C16.6471 4.95175 16.7698 6.23452 16.8848 8.7025L15.5908 7.40856C14.7122 6.53016 13.2878 6.53016 12.4092 7.40856C11.5305 8.28724 11.5305 9.71249 12.4092 10.5912L13.8184 11.9994L12.4092 13.4086C11.5306 14.2873 11.5306 15.7125 12.4092 16.5912C13.2878 17.4695 14.7122 17.4695 15.5908 16.5912L16.8848 15.2963C16.7698 17.7646 16.6472 19.0479 15.8613 19.6283C15.6963 19.7501 15.5112 19.8489 15.3203 19.9173C14.3241 20.2744 13.1373 19.4521 10.7637 17.808C10.1621 17.3912 9.8608 17.183 9.52539 17.0619C9.4557 17.0367 9.38485 17.0148 9.31348 16.9955C8.97012 16.9026 8.60993 16.9027 7.88965 16.9027C5.87292 16.9027 4.86438 16.9021 4.10059 16.267C3.96118 16.151 3.79403 15.9802 3.68066 15.8363C3.05966 15.0477 3.04081 14.1265 3.00293 12.2845C3.00093 12.1878 3 12.0922 3 11.9994C3 11.9067 3.00093 11.8118 3.00293 11.7152C3.04082 9.87315 3.0597 8.95191 3.68066 8.16344C3.79403 8.01952 3.96118 7.84874 4.10059 7.73278C4.86439 7.09758 5.87287 7.09704 7.88965 7.09704C8.60991 7.09704 8.97013 7.0971 9.31348 7.00426C9.38483 6.98497 9.45571 6.963 9.52539 6.93786C9.8608 6.8168 10.1621 6.60851 10.7637 6.19176ZM19.4697 8.46911C19.7626 8.1765 20.2374 8.17648 20.5303 8.46911C20.8232 8.76201 20.8232 9.23774 20.5303 9.53063L18.0605 11.9994L20.5303 14.4691C20.8231 14.7619 20.823 15.2367 20.5303 15.5297C20.2374 15.8226 19.7626 15.8226 19.4697 15.5297L17 13.0609L14.5303 15.5297C14.2374 15.8226 13.7626 15.8226 13.4697 15.5297C13.177 15.2367 13.1769 14.7619 13.4697 14.4691L15.9395 11.9994L13.4697 9.52965C13.177 9.23675 13.1769 8.76193 13.4697 8.46911C13.7626 8.17648 14.2374 8.17647 14.5303 8.46911L17 10.9388L19.4697 8.46911Z" fill="#48465C"/>
</svg>
