<svg width="24" height="24" viewBox="0 0 24 24" fill="none" xmlns="http://www.w3.org/2000/svg">
<path fill-rule="evenodd" clip-rule="evenodd" d="M3.98242 3.07536C4.95876 3.13537 6.11351 3.25356 7 3.48747C8.04921 3.76434 9.29604 4.35469 10.2822 4.87615C10.5892 5.03847 10.9158 5.15054 11.25 5.21404V20.3927C10.9471 20.3259 10.6512 20.2183 10.3721 20.0695C9.37265 19.5368 8.08134 18.9192 7 18.634C6.12329 18.4026 4.98407 18.2835 4.01465 18.2228C2.90594 18.1534 2 17.2546 2 16.1437V4.99822C2 3.90005 2.88632 3.00799 3.98242 3.07536ZM20.082 3.01775C21.1538 2.98041 22 3.86132 22 4.93376V16.1437C22 17.2546 21.0941 18.1534 19.9854 18.2228C19.016 18.2835 17.8767 18.4026 17 18.634C15.9186 18.9192 14.6274 19.5368 13.6279 20.0695C13.3488 20.2183 13.0529 20.3259 12.75 20.3927V5.174C13.0707 5.09543 13.3824 4.97157 13.6738 4.8029C14.5353 4.30434 15.5924 3.75919 16.5 3.48747C17.5469 3.17407 18.9534 3.05706 20.082 3.01775ZM5.18164 12.2726C4.77993 12.1724 4.37288 12.4169 4.27246 12.8185C4.17209 13.2203 4.41655 13.6272 4.81836 13.7277L8.81836 14.7277C9.22019 14.8282 9.62708 14.5836 9.72754 14.1818C9.82779 13.7801 9.58338 13.3731 9.18164 13.2726L5.18164 12.2726ZM19.7275 12.8185C19.627 12.4167 19.2201 12.1722 18.8184 12.2726L14.8184 13.2726C14.4166 13.3731 14.1723 13.7802 14.2725 14.1818C14.3729 14.5836 14.7807 14.8282 15.1826 14.7277L19.1826 13.7277C19.5841 13.627 19.8279 13.2202 19.7275 12.8185ZM5.18164 8.27263C4.77993 8.17245 4.37288 8.41682 4.27246 8.81853C4.17209 9.22033 4.41655 9.62726 4.81836 9.72771L8.81836 10.7277C9.22019 10.8282 9.62708 10.5836 9.72754 10.1818C9.82779 9.78008 9.58338 9.37306 9.18164 9.27263L5.18164 8.27263ZM19.7275 8.81853C19.627 8.41669 19.2201 8.17219 18.8184 8.27263L14.8184 9.27263C14.4166 9.37305 14.1723 9.78011 14.2725 10.1818C14.3729 10.5836 14.7807 10.8282 15.1826 10.7277L19.1826 9.72771C19.5841 9.62704 19.8279 9.2202 19.7275 8.81853Z" fill="#48465C"/>
</svg>
