<svg width="24" height="24" viewBox="0 0 24 24" fill="none" xmlns="http://www.w3.org/2000/svg">
<path d="M6.82306 6.9617L6.28888 8.95584C6.00074 10.0311 5.7607 10.9287 5.62677 11.6775C5.48702 12.459 5.43581 13.2135 5.61505 13.9822C5.86211 15.0415 6.41788 16.0034 7.21173 16.7469C7.78785 17.2865 8.466 17.6197 9.2127 17.8894C9.92262 18.1459 10.8118 18.3846 11.8758 18.6697L11.9012 18.6765L12.0076 18.7049C12.9858 18.967 13.8135 19.1885 14.5096 19.3269C14.8521 19.395 15.1891 19.4493 15.5233 19.4773C15.4664 19.5376 15.4071 19.5963 15.3465 19.6531C14.6152 20.3377 13.4876 20.6399 11.2332 21.2439C8.97827 21.8482 7.85054 22.15 6.87481 21.9226C6.10436 21.743 5.4039 21.3389 4.86309 20.7615C4.17838 20.0303 3.87638 18.9027 3.27227 16.6482L2.7547 14.7156C2.15048 12.4606 1.84847 11.333 2.07599 10.3572C2.25566 9.58689 2.65978 8.88719 3.23712 8.34647C3.91126 7.71514 4.92216 7.40872 6.84259 6.89139L6.82306 6.9617ZM11.8748 2.07596C12.8505 1.84851 13.9782 2.15045 16.2332 2.75467C18.4877 3.35878 19.6152 3.66082 20.3465 4.34549C20.9239 4.8863 21.328 5.58675 21.5076 6.35721C21.735 7.33293 21.4331 8.46072 20.8289 10.7156L20.3113 12.6473C19.7072 14.9023 19.4054 16.0302 18.7205 16.7615C18.1797 17.3389 17.4792 17.743 16.7088 17.9226C16.6126 17.9451 16.5149 17.9621 16.4149 17.9744C15.4998 18.0873 14.383 17.7875 12.3504 17.243C10.0958 16.6388 8.96837 16.3368 8.23712 15.6521C7.6597 15.1113 7.25563 14.4109 7.07599 13.6404C6.84862 12.6647 7.15052 11.5368 7.7547 9.28202L8.27227 7.35038C8.35912 7.02626 8.44002 6.72481 8.51641 6.4451C8.97134 4.77963 9.27693 3.86314 9.86309 3.23709C10.4039 2.65967 11.1043 2.2556 11.8748 2.07596ZM11.1941 12.1726C10.7941 12.0655 10.3825 12.3029 10.2752 12.7029C10.1679 13.1029 10.4055 13.5146 10.8055 13.6219L13.7039 14.3982C14.1039 14.5052 14.5147 14.2679 14.6219 13.868C14.7291 13.4679 14.4917 13.0562 14.0916 12.949L11.1941 12.1726ZM11.9705 9.27518C11.5707 9.16827 11.1599 9.4057 11.0525 9.80545C10.9453 10.2056 11.1827 10.6172 11.5828 10.7244L16.4119 12.0183C16.812 12.1255 17.2237 11.8882 17.3309 11.4881C17.4381 11.088 17.2007 10.6763 16.8006 10.5691L11.9705 9.27518Z" fill="#48465C"/>
</svg>
