<svg width="24" height="24" viewBox="0 0 24 24" fill="none" xmlns="http://www.w3.org/2000/svg">
<path fill-rule="evenodd" clip-rule="evenodd" d="M6.82361 6.96148L6.28943 8.9566C6.0013 10.0318 5.76025 10.9294 5.62635 11.6783C5.48665 12.4596 5.43545 13.2134 5.61463 13.982C5.86165 15.0414 6.41736 16.004 7.21131 16.7476C7.78732 17.2871 8.46574 17.6195 9.21228 17.8892C9.92231 18.1457 10.8121 18.3843 11.8763 18.6695L11.9008 18.6763L12.0082 18.7046C12.9862 18.9667 13.8131 19.1883 14.5092 19.3267C14.8516 19.3948 15.1888 19.4491 15.5228 19.4771C15.466 19.5373 15.4077 19.5961 15.3471 19.6529C14.6158 20.3378 13.4878 20.6395 11.2328 21.2437C8.97776 21.848 7.85015 22.1509 6.87439 21.9234C6.10412 21.7438 5.4044 21.3395 4.86365 20.7623C4.17873 20.031 3.87611 18.903 3.27186 16.648L2.75428 14.7164C2.15009 12.4615 1.84817 11.3337 2.07557 10.358C2.25521 9.58751 2.65928 8.88705 3.2367 8.34625C3.9108 7.71493 4.92191 7.40943 6.84217 6.89214L6.82361 6.96148ZM11.8744 2.07574C12.8501 1.84823 13.9779 2.15025 16.2328 2.75445C18.4878 3.3587 19.6157 3.66132 20.347 4.34625C20.9243 4.88701 21.3286 5.58665 21.5082 6.35699C21.7357 7.33274 21.4336 8.46042 20.8295 10.7154L20.3119 12.647C19.7077 14.9021 19.405 16.03 18.7201 16.7613C18.1794 17.3386 17.4796 17.7428 16.7094 17.9224C16.6132 17.9449 16.5154 17.9619 16.4154 17.9742C15.5003 18.0871 14.3834 17.7883 12.351 17.2437C10.0959 16.6394 8.96798 16.3368 8.2367 15.6519C7.65942 15.1112 7.25519 14.4115 7.07557 13.6412C6.84805 12.6654 7.15005 11.5378 7.75428 9.28277L8.27185 7.35113C8.35871 7.02697 8.43959 6.72559 8.516 6.44585C8.97107 4.77981 9.27723 3.86298 9.86365 3.23687C10.4044 2.65958 11.104 2.25539 11.8744 2.07574ZM11.1937 12.1734C10.7937 12.0663 10.3829 12.3036 10.2758 12.7037C10.1686 13.1037 10.406 13.5145 10.806 13.6216L13.7035 14.398C14.1036 14.5052 14.5152 14.2678 14.6224 13.8677C14.7293 13.4679 14.4919 13.0571 14.0922 12.9498L11.1937 12.1734ZM11.9711 9.27593C11.571 9.16872 11.1593 9.40611 11.0521 9.80621C10.9451 10.2061 11.1826 10.6169 11.5824 10.7242L16.4125 12.0181C16.8126 12.1253 17.2233 11.8879 17.3304 11.4878C17.4374 11.0878 17.2002 10.6771 16.8002 10.5699L11.9711 9.27593Z" fill="#48465C"/>
</svg>
