<svg width="24" height="24" viewBox="0 0 24 24" fill="none" xmlns="http://www.w3.org/2000/svg">
<path d="M11.7043 1.34484C12.3326 1.1984 12.9727 1.2332 13.7062 1.36437C14.4234 1.49262 15.2945 1.7261 16.3937 2.02062L16.4601 2.03918C17.5595 2.33375 18.4312 2.56703 19.1164 2.81457C19.8171 3.06772 20.3888 3.35708 20.8595 3.79797C21.5451 4.44018 22.0251 5.27172 22.2384 6.18664C22.3849 6.8149 22.3501 7.45503 22.2189 8.18859C22.0906 8.90575 21.8572 9.77687 21.5627 10.8761L21.0265 12.8741C20.732 13.9734 20.4986 14.8451 20.2511 15.5304C19.998 16.2311 19.7086 16.8027 19.2677 17.2736C18.6459 17.9374 17.8466 18.4081 16.966 18.631C16.7088 19.2207 16.3334 19.7554 15.8595 20.1993C15.3888 20.6402 14.8171 20.9295 14.1164 21.1827C13.4312 21.4302 12.5594 21.6635 11.4601 21.9581L11.3937 21.9767C10.2945 22.2712 9.42338 22.5046 8.70622 22.6329C7.97265 22.7641 7.33253 22.7989 6.70427 22.6525C5.78935 22.4392 4.95781 21.9592 4.3156 21.2736C3.87469 20.8028 3.58535 20.2311 3.3322 19.5304C3.08467 18.8451 2.85136 17.9735 2.55681 16.8741L2.02067 14.8761C1.72609 13.7767 1.49267 12.9048 1.36442 12.1876C1.23333 11.4544 1.19855 10.8147 1.34489 10.1866C1.55821 9.27178 2.03818 8.44016 2.7238 7.79797C3.19463 7.35699 3.76613 7.06678 4.46696 6.81359C5.15221 6.56605 6.02384 6.33277 7.12321 6.0382L7.15642 6.02941C7.42089 5.95854 7.67146 5.89181 7.90837 5.82922C8.29996 4.43017 8.64402 3.44082 9.3156 2.72375C9.95781 2.03807 10.7894 1.55817 11.7043 1.34484ZM7.45524 7.50305C6.36236 7.79596 5.57858 8.00731 4.97673 8.22472C4.36745 8.44484 4.00956 8.64883 3.74919 8.89269C3.28014 9.33204 2.95181 9.90064 2.80583 10.5265C2.72481 10.874 2.72695 11.2861 2.84099 11.9239C2.95669 12.5709 3.17324 13.3807 3.47868 14.5206L3.99626 16.4523C4.30172 17.5923 4.51903 18.4024 4.74235 19.0206C4.96245 19.6299 5.16649 19.9878 5.41032 20.2482C5.84973 20.7173 6.4191 21.0455 7.04509 21.1915C7.39241 21.2724 7.80415 21.2704 8.44157 21.1564C9.08853 21.0407 9.89854 20.8241 11.0383 20.5187C12.1783 20.2132 12.9884 19.9959 13.6066 19.7726C14.2159 19.5524 14.5738 19.3484 14.8342 19.1046C14.9716 18.9758 15.0969 18.8357 15.2092 18.6866C15.0302 18.6613 14.846 18.6288 14.6554 18.5909C13.9837 18.4573 13.1769 18.2406 12.1808 17.9737L12.1232 17.9591C11.0238 17.6645 10.1522 17.4312 9.46696 17.1837C8.76613 16.9304 8.19464 16.6403 7.7238 16.1993C7.03819 15.5571 6.55821 14.7255 6.34489 13.8107C6.19854 13.1826 6.23334 12.543 6.36442 11.8097C6.49268 11.0925 6.72609 10.2206 7.02067 9.12121L7.45524 7.50305ZM13.4416 2.84094C12.8041 2.72699 12.3924 2.72484 12.0451 2.80578C11.4191 2.95174 10.8497 3.27999 10.4103 3.74914C9.97429 4.21475 9.70607 4.93429 9.23942 6.64269C9.16356 6.92039 9.08326 7.22039 8.99626 7.54504L8.47868 9.47668C8.17324 10.6165 7.95669 11.4263 7.84099 12.0734C7.72695 12.7111 7.72481 13.1233 7.80583 13.4708C7.95182 14.0967 8.28016 14.6653 8.74919 15.1046C9.00956 15.3485 9.36744 15.5524 9.97673 15.7726C10.5949 15.9959 11.4051 16.2133 12.5451 16.5187C13.5703 16.7934 14.3306 16.9964 14.9484 17.1193C15.5635 17.2415 15.9813 17.2719 16.3234 17.2296C16.3975 17.2205 16.4687 17.2077 16.5383 17.1915C17.1643 17.0455 17.7336 16.7173 18.173 16.2482C18.4168 15.9878 18.6209 15.63 18.841 15.0206C19.0644 14.4025 19.2816 13.5931 19.5871 12.4532L20.1047 10.5206C20.4101 9.38084 20.6267 8.57091 20.7424 7.92394C20.8564 7.28648 20.8584 6.87479 20.7775 6.52746C20.6315 5.90146 20.3033 5.33209 19.8342 4.89269C19.5738 4.64886 19.2159 4.44483 18.6066 4.22472C17.9884 4.0014 17.1783 3.78409 16.0383 3.47863C14.8985 3.17323 14.0886 2.95663 13.4416 2.84094ZM10.2756 12.7032C10.3829 12.3034 10.7936 12.0659 11.1935 12.173L14.092 12.9493C14.4919 13.0566 14.7294 13.4682 14.6222 13.8683C14.515 14.2683 14.1033 14.5057 13.7033 14.3986L10.8058 13.6222C10.4057 13.515 10.1684 13.1033 10.2756 12.7032ZM11.0519 9.80578C11.1591 9.40568 11.5708 9.1683 11.9709 9.27551L16.8 10.5695C17.2001 10.6767 17.4374 11.0883 17.3302 11.4884C17.2228 11.8881 16.8122 12.1257 16.4123 12.0187L11.5822 10.7237C11.1824 10.6164 10.9449 10.2057 11.0519 9.80578Z" fill="#48465C"/>
</svg>
