<svg width="24" height="24" viewBox="0 0 24 24" fill="none" xmlns="http://www.w3.org/2000/svg">
<path fill-rule="evenodd" clip-rule="evenodd" d="M20.0557 2.26775C21.5844 2.21449 22.7498 3.4696 22.75 4.93279V16.1437C22.7499 17.6797 21.5062 18.8786 20.0322 18.9709C19.0734 19.0309 17.9943 19.1467 17.1914 19.3586C16.1989 19.6205 14.9714 20.2025 13.9805 20.7306C12.7472 21.388 11.2528 21.388 10.0195 20.7306C9.02856 20.2025 7.80109 19.6205 6.80859 19.3586C6.00562 19.1467 4.92653 19.0309 3.96777 18.9709C2.49373 18.8785 1.25015 17.6797 1.25 16.1437V4.99724C1.25024 3.4983 2.47027 2.23063 4.02832 2.32634C5.01507 2.38698 6.2306 2.50835 7.19141 2.76189C8.32767 3.06173 9.63738 3.6857 10.6328 4.21208C11.4616 4.6503 12.4798 4.62681 13.2979 4.15349C14.1703 3.64855 15.2902 3.06661 16.2852 2.76873C17.4297 2.42612 18.9174 2.3074 20.0557 2.26775ZM3.93652 3.82341C3.3027 3.78446 2.75024 4.30028 2.75 4.99724V16.1437C2.75015 16.8294 3.31834 17.4272 4.06152 17.4738C5.0416 17.5351 6.24097 17.6576 7.19141 17.9084C8.36172 18.2173 9.71769 18.8701 10.7256 19.4074C10.8938 19.497 11.0696 19.5677 11.25 19.6193V5.97478C10.795 5.90403 10.349 5.75892 9.93164 5.53826C8.95484 5.02176 7.77069 4.46596 6.80859 4.21208C5.99644 3.99779 4.90242 3.88278 3.93652 3.82341ZM20.1084 3.76677C18.9895 3.80574 17.664 3.92208 16.7148 4.20623C15.8948 4.45178 14.9001 4.9593 14.0498 5.45134C13.6424 5.68713 13.2023 5.85103 12.75 5.94158V19.6193C12.9304 19.5677 13.1062 19.497 13.2744 19.4074C14.2823 18.8701 15.6383 18.2173 16.8086 17.9084C17.7591 17.6576 18.9584 17.5351 19.9385 17.4738C20.6817 17.4272 21.2498 16.8293 21.25 16.1437V4.93279C21.2498 4.25146 20.723 3.74554 20.1084 3.76677ZM4.27246 12.8185C4.37291 12.4168 4.77984 12.1723 5.18164 12.2726L9.18164 13.2726C9.58346 13.3731 9.82794 13.78 9.72754 14.1818C9.62711 14.5836 9.22009 14.828 8.81836 14.7277L4.81836 13.7277C4.41663 13.6273 4.17224 13.2203 4.27246 12.8185ZM18.8184 12.2726C19.2201 12.1724 19.6271 12.4168 19.7275 12.8185C19.8278 13.2203 19.5833 13.6273 19.1816 13.7277L15.1816 14.7277C14.7799 14.8281 14.3729 14.5836 14.2725 14.1818C14.172 13.78 14.4166 13.3731 14.8184 13.2726L18.8184 12.2726ZM4.27246 8.81853C4.37291 8.41673 4.77984 8.17226 5.18164 8.27263L9.18164 9.27263C9.58347 9.37309 9.82795 9.78003 9.72754 10.1818C9.62711 10.5836 9.22009 10.828 8.81836 10.7277L4.81836 9.72771C4.41663 9.62728 4.17223 9.22027 4.27246 8.81853ZM18.8184 8.27263C19.2201 8.17234 19.6271 8.41677 19.7275 8.81853C19.8278 9.22025 19.5833 9.62728 19.1816 9.72771L15.1816 10.7277C14.7799 10.8281 14.3729 10.5836 14.2725 10.1818C14.172 9.78002 14.4166 9.37309 14.8184 9.27263L18.8184 8.27263Z" fill="#48465C"/>
</svg>
