<svg width="24" height="24" viewBox="0 0 24 24" fill="none" xmlns="http://www.w3.org/2000/svg">
<path d="M3.34766 11.6924C3.43608 11.6656 3.52361 11.6635 3.61328 11.6856C3.74556 11.7185 3.86615 11.8374 4.10645 12.0733L12.0166 19.8379C12.3694 20.1844 12.546 20.3579 12.5381 20.5782C12.53 20.7983 12.3507 20.9501 11.9932 21.254C11.4086 21.7509 10.9563 22.0001 10.4424 22.0001C9.60634 21.9999 8.93339 21.342 7.58789 20.0264L4.01855 16.5362C2.6729 15.2206 2 14.5627 2 13.7452C2 13.2087 2.28984 12.7413 2.86914 12.1114C3.10125 11.8591 3.21722 11.732 3.34766 11.6924ZM7.21289 2.00006C8.66743 1.97819 9.9147 3.15165 10.334 4.77935L10.7998 4.32428C13.3621 1.81927 17.5159 1.81918 20.0781 4.32428C22.6404 6.8295 22.6404 10.8913 20.0781 13.3965L14.5254 18.8262C14.1946 19.1497 14.0283 19.3108 13.8242 19.3106C13.6202 19.3102 13.455 19.1482 13.125 18.8243L4.33691 10.1973C4.18417 10.0474 4.10732 9.97217 4.06836 9.87799C4.02952 9.78383 4.031 9.67417 4.0332 9.45611L4.06641 5.99908C4.03216 3.81726 5.44084 2.02675 7.21289 2.00006Z" fill="#48465C"/>
</svg>
