<svg width="24" height="24" viewBox="0 0 24 24" fill="none" xmlns="http://www.w3.org/2000/svg">
<path d="M7.20215 1.25088C8.69924 1.22853 9.93511 2.16373 10.626 3.46768C13.4957 1.00316 17.8628 1.1095 20.6025 3.78799C23.4657 6.5874 23.4657 11.134 20.6025 13.9335L13.7852 20.5985C13.1438 21.2257 12.6085 21.7492 12.127 22.1083C11.6185 22.4875 11.0851 22.7499 10.4424 22.7499C9.79967 22.7498 9.26629 22.4876 8.75781 22.1083C8.2764 21.7492 7.742 21.2257 7.10059 20.5985L3.45703 17.037C2.81597 16.4102 2.28078 15.8871 1.91309 15.4159C1.52547 14.9192 1.25009 14.3898 1.25 13.746C1.25 12.9041 1.72251 12.2502 2.31738 11.6034C2.61915 11.2754 2.82234 11.0544 2.96875 10.8739C3.11202 10.6974 3.16583 10.6008 3.19238 10.5341C3.26222 10.3586 3.27634 10.1485 3.28418 9.33389L3.31641 6.00186C3.28244 3.56277 4.8804 1.28578 7.20215 1.25088ZM3.43652 12.6024L3.4209 12.619C2.85688 13.2322 2.75 13.515 2.75 13.746C2.75007 13.9196 2.81083 14.1279 3.0957 14.4931C3.3938 14.8751 3.85481 15.328 4.54297 16.0009L8.1123 19.4901C8.80018 20.1627 9.26297 20.6142 9.6543 20.9062C10.0276 21.1845 10.2491 21.2499 10.4424 21.2499C10.6356 21.2499 10.8572 21.1845 11.2305 20.9062C11.5074 20.6996 11.8206 20.4132 12.2236 20.0253L3.99707 11.9823C3.84049 12.1641 3.65194 12.3683 3.43652 12.6024ZM7.22461 2.75088C6.00524 2.76921 4.7862 4.06719 4.81641 5.98819V5.99697L4.78418 9.34854C4.78381 9.38705 4.78353 9.42519 4.7832 9.46279C4.77952 9.88752 4.7762 10.2555 4.7207 10.5917L13.2979 18.9774L19.5537 12.8603C21.815 10.6493 21.815 7.07225 19.5537 4.86123C17.2829 2.641 13.595 2.64102 11.3242 4.86123L9.89648 6.25674C9.60042 6.54622 9.12555 6.54088 8.83594 6.24502C8.54642 5.94892 8.55169 5.47407 8.84766 5.18447L9.48145 4.56436C9.04506 3.40853 8.13154 2.73738 7.22461 2.75088Z" fill="#48465C"/>
</svg>
