<svg width="24" height="24" viewBox="0 0 24 24" fill="none" xmlns="http://www.w3.org/2000/svg">
<path d="M17.7969 3.35742C18.4407 2.86784 19.3231 2.68961 20.1836 3.06641C20.8937 3.3774 21.5117 3.74911 21.9629 4.18945C22.4161 4.63185 22.75 5.19546 22.75 5.86035V18.5771C22.7498 19.3693 22.279 20.0118 21.6855 20.4922C21.0858 20.9776 20.2638 21.3819 19.3145 21.707C17.4077 22.3598 14.8213 22.75 12 22.75C9.17869 22.75 6.59236 22.3598 4.68555 21.707C3.73614 21.3819 2.91428 20.9776 2.31445 20.4922C1.72098 20.0118 1.25019 19.3693 1.25 18.5771V5.86035C1.25 5.19546 1.5839 4.63185 2.03711 4.18945C2.48828 3.74911 3.10629 3.3774 3.81641 3.06641C4.67687 2.68963 5.5592 2.86784 6.20312 3.35742C6.83686 3.83941 7.25 4.62561 7.25 5.50293V8.11035C8.64413 8.37856 10.2649 8.53418 12 8.53418C13.7351 8.53418 15.3559 8.37856 16.75 8.11035V5.50293C16.75 4.62563 17.1631 3.83941 17.7969 3.35742ZM9.55957 15.041C9.17411 14.6724 8.5417 14.6508 8.12793 14.9971L6.78809 16.1191L3.31348 19.3701C3.72679 19.6891 4.34974 20.0066 5.17188 20.2881C6.88434 20.8744 9.29848 21.25 12 21.25C14.7015 21.25 17.1157 20.8744 18.8281 20.2881C19.1723 20.1703 19.4813 20.0459 19.7549 19.918L18.0146 18.4199C17.4676 17.9492 16.6408 17.8992 16.0332 18.3076L15.8027 18.4629C14.8978 19.0712 13.6703 18.973 12.8809 18.2178L9.55957 15.041ZM21.1631 8.14551C20.2793 8.69531 19.0647 9.13498 17.665 9.45117C16.0262 9.82135 14.08 10.0342 12 10.0342C9.91999 10.0342 7.97379 9.82136 6.33496 9.45117C4.9352 9.13498 3.72076 8.69531 2.83691 8.14551C2.80776 8.12737 2.77885 8.10851 2.75 8.08984V17.8428L5.79297 14.9951L7.16504 13.8467C8.16223 13.012 9.65637 13.0576 10.5967 13.957L13.918 17.1338C14.1926 17.3965 14.6394 17.4373 14.9658 17.2178L15.1963 17.0625C16.3604 16.28 17.9315 16.3684 18.9941 17.2832L21.0371 19.043C21.2059 18.8421 21.2499 18.684 21.25 18.5771V8.08984C21.2212 8.1085 21.1922 8.12738 21.1631 8.14551ZM18 10.75C19.2425 10.75 20.2498 11.7575 20.25 13C20.25 14.2426 19.2426 15.25 18 15.25C16.7574 15.25 15.75 14.2426 15.75 13C15.7502 11.7575 16.7575 10.75 18 10.75ZM18 12.25C17.5859 12.25 17.2502 12.586 17.25 13C17.25 13.4142 17.5858 13.75 18 13.75C18.4142 13.75 18.75 13.4142 18.75 13C18.7498 12.586 18.4141 12.25 18 12.25ZM5.29492 4.55078C5.04112 4.35794 4.732 4.3029 4.41797 4.44043C3.80169 4.71034 3.36067 4.99454 3.08496 5.26367C2.81142 5.53073 2.75 5.73071 2.75 5.86035C2.75011 6.0569 2.9079 6.42296 3.62988 6.87207C4.14917 7.19501 4.86623 7.49767 5.75 7.75391V5.50293C5.75 5.09801 5.55883 4.75143 5.29492 4.55078ZM19.582 4.44043C19.268 4.30291 18.9589 4.35795 18.7051 4.55078C18.4412 4.75143 18.25 5.09801 18.25 5.50293V7.75391C19.1338 7.49766 19.8508 7.19501 20.3701 6.87207C21.0922 6.42296 21.2499 6.0569 21.25 5.86035C21.25 5.73071 21.1886 5.53073 20.915 5.26367C20.6393 4.99454 20.1983 4.71034 19.582 4.44043Z" fill="#48465C"/>
</svg>
