<svg width="24" height="24" viewBox="0 0 24 24" fill="none" xmlns="http://www.w3.org/2000/svg">
<path fill-rule="evenodd" clip-rule="evenodd" d="M16.4189 4.61996C16.4189 3.58692 17.3879 2.74157 18.4473 3.07309C19.4287 3.3803 20.2784 3.76984 20.8975 4.24203C21.5056 4.70591 21.9998 5.33814 22 6.13071V18.078C22 18.6373 21.7541 19.117 21.3945 19.5145C21.2236 19.7034 21.0266 19.8743 20.8184 20.0262C19.9615 20.6511 18.6811 21.1374 17.1885 21.4706C15.6812 21.8069 13.9008 21.9998 12 21.9998C9.73673 21.9998 7.64055 21.7274 5.97266 21.2616C5.13925 21.0287 4.39707 20.743 3.78906 20.409C3.18968 20.0799 2.67206 19.6767 2.34863 19.1854C2.24752 19.0318 2.16432 18.8671 2.10449 18.6932C2.03782 18.4994 2 18.2933 2 18.078V6.13071C2.00019 5.33815 2.49443 4.70591 3.10254 4.24203C3.72161 3.76984 4.57132 3.3803 5.55273 3.07309C6.6121 2.74155 7.58105 3.58691 7.58105 4.61996V8.24496C8.87791 8.49695 10.386 8.6434 12 8.6434C13.614 8.6434 15.122 8.49695 16.4189 8.24496V4.61996ZM20.5234 8.27817C19.7013 8.79471 18.5716 9.20864 17.2695 9.50571C15.7451 9.85343 13.9347 10.0526 12 10.0526C10.0653 10.0526 8.25488 9.85343 6.73047 9.50571C5.4284 9.20864 4.29875 8.7947 3.47656 8.27817C3.44946 8.26113 3.42234 8.24394 3.39551 8.22641V17.3885L6.22559 14.7137L7.50195 13.6346C8.4295 12.8505 9.81963 12.8932 10.6943 13.7381L13.7842 16.7235C14.0396 16.9699 14.4552 17.0084 14.7588 16.8026L14.9736 16.6561C16.0565 15.9209 17.5174 16.0038 18.5059 16.8631L20.4072 18.5164C20.5628 18.3288 20.6045 18.1787 20.6045 18.078V8.22641C20.5777 8.24393 20.5506 8.26114 20.5234 8.27817ZM17.8145 11.4295C18.5847 11.4298 19.2088 12.0607 19.209 12.8387C19.209 13.617 18.5848 14.2476 17.8145 14.2479C17.0438 14.2479 16.4189 13.6171 16.4189 12.8387C16.4191 12.0606 17.0439 11.4295 17.8145 11.4295Z" fill="#48465C"/>
</svg>
