<svg width="24" height="24" viewBox="0 0 24 24" fill="none" xmlns="http://www.w3.org/2000/svg">
<path fill-rule="evenodd" clip-rule="evenodd" d="M17.7969 3.35638C18.4407 2.86684 19.3232 2.68869 20.1836 3.06537C20.8938 3.37641 21.5117 3.74897 21.9629 4.18939C22.416 4.63171 22.7499 5.19459 22.75 5.85931V18.5761C22.75 19.3685 22.2791 20.0116 21.6855 20.4921C21.0858 20.9775 20.2638 21.3819 19.3145 21.707C17.4077 22.3598 14.8213 22.7499 12 22.7499C9.17869 22.7499 6.59236 22.3598 4.68555 21.707C3.73619 21.3819 2.91429 20.9775 2.31445 20.4921C1.72086 20.0116 1.25 19.3685 1.25 18.5761V5.85931C1.25012 5.19459 1.58399 4.63171 2.03711 4.18939C2.4883 3.74897 3.1062 3.37641 3.81641 3.06537C4.6768 2.68871 5.55926 2.86684 6.20312 3.35638C6.83698 3.83833 7.24996 4.6245 7.25 5.50189V8.11029C8.64412 8.37849 10.2649 8.53314 12 8.53314C13.7351 8.53314 15.3559 8.37849 16.75 8.11029V5.50189C16.75 4.62452 17.1629 3.83834 17.7969 3.35638ZM9.55957 15.041C9.1742 14.6723 8.54174 14.65 8.12793 14.996L6.78809 16.1181L3.31348 19.3701C3.72677 19.6889 4.34994 20.0057 5.17188 20.287C6.88435 20.8733 9.29846 21.2499 12 21.2499C14.7015 21.2499 17.1157 20.8733 18.8281 20.287C19.1722 20.1693 19.4814 20.0457 19.7549 19.9179L18.0146 18.4199C17.4676 17.9489 16.6409 17.8991 16.0332 18.3076L15.8027 18.4628C14.8979 19.071 13.6702 18.9727 12.8809 18.2177L9.55957 15.041ZM21.1631 8.14545C20.2793 8.69524 19.0647 9.13492 17.665 9.45111C16.0262 9.82127 14.08 10.0331 12 10.0331C9.92003 10.0331 7.97377 9.82128 6.33496 9.45111C4.93521 9.13492 3.72076 8.69524 2.83691 8.14545C2.80772 8.12729 2.77889 8.10847 2.75 8.08978V17.8427L5.79297 14.9951L7.16504 13.8466C8.16224 13.0119 9.65637 13.0575 10.5967 13.957L13.918 17.1337C14.1926 17.3962 14.6395 17.4371 14.9658 17.2177L15.1963 17.0624C16.3604 16.2799 17.9315 16.3683 18.9941 17.2831L21.0371 19.0419C21.206 18.8408 21.25 18.683 21.25 18.5761V8.08978C21.2211 8.10847 21.1923 8.12729 21.1631 8.14545ZM18 10.7499C19.2426 10.7499 20.25 11.7572 20.25 12.9999C20.25 14.2425 19.2426 15.2499 18 15.2499C16.7574 15.2499 15.75 14.2425 15.75 12.9999C15.75 11.7572 16.7574 10.7499 18 10.7499ZM18 12.2499C17.5858 12.2499 17.25 12.5857 17.25 12.9999C17.25 13.4141 17.5858 13.7499 18 13.7499C18.4142 13.7499 18.75 13.4141 18.75 12.9999C18.75 12.5857 18.4142 12.2499 18 12.2499ZM5.29492 4.55072C5.04113 4.35779 4.73202 4.30193 4.41797 4.43939C3.80175 4.70927 3.36068 4.99353 3.08496 5.26263C2.81152 5.52954 2.75011 5.72963 2.75 5.85931C2.75 6.05581 2.90765 6.42177 3.62988 6.87103C4.14917 7.19402 4.86613 7.49659 5.75 7.75287V5.50189C5.74996 5.09702 5.55881 4.75135 5.29492 4.55072ZM19.582 4.43939C19.2679 4.30194 18.9589 4.3578 18.7051 4.55072C18.4412 4.75135 18.25 5.09702 18.25 5.50189V7.75287C19.1339 7.49659 19.8508 7.19402 20.3701 6.87103C21.0924 6.42177 21.25 6.05581 21.25 5.85931C21.2499 5.72963 21.1885 5.52954 20.915 5.26263C20.6393 4.99353 20.1983 4.70928 19.582 4.43939Z" fill="#48465C"/>
</svg>
