<svg width="24" height="24" viewBox="0 0 24 24" fill="none" xmlns="http://www.w3.org/2000/svg">
<path d="M17.8744 2.118C19.1765 1.88635 20.3499 1.93932 21.2054 2.79476C22.0609 3.65026 22.1139 4.82361 21.8822 6.12581C21.6519 7.4201 21.0901 9.10477 20.3793 11.2371L18.6752 16.3514C18.0967 18.0868 17.6463 19.4354 17.2318 20.41C16.832 21.3499 16.3885 22.1459 15.7142 22.5379C14.6541 23.1543 13.3447 23.1542 12.2845 22.5379C11.6101 22.1459 11.1659 21.35 10.766 20.41C10.3515 19.4354 9.90204 18.0867 9.32359 16.3514L9.3109 16.3143C9.10833 15.7066 9.04684 15.5416 8.95933 15.411C8.86138 15.2647 8.73554 15.1388 8.58922 15.0408C8.45853 14.9534 8.29346 14.8917 7.6859 14.6893L7.64879 14.6766C5.9134 14.0982 4.56477 13.6487 3.59019 13.2342C2.65015 12.8343 1.85428 12.39 1.46226 11.7157C0.846135 10.6555 0.845974 9.34606 1.46226 8.28597C1.85427 7.6117 2.65022 7.1682 3.59019 6.76839C4.56476 6.35388 5.91341 5.90446 7.64879 5.32601L12.764 3.62093C14.8962 2.91019 16.5802 2.34829 17.8744 2.118ZM20.1185 3.88167C19.8186 3.58176 19.3194 3.42158 18.1439 3.63069C16.9739 3.83882 15.3966 4.36254 13.183 5.10042L8.17125 6.77132C6.39147 7.36458 5.10232 7.79516 4.19176 8.18245C3.2401 8.58721 2.90149 8.86922 2.79137 9.05843C2.45257 9.64121 2.45257 10.3615 2.79137 10.9442C2.90166 11.1334 3.2405 11.4156 4.19176 11.8201C5.10233 12.2075 6.39144 12.638 8.17125 13.2313C8.19936 13.2407 8.22782 13.2495 8.25523 13.2586C8.63467 13.3849 8.9481 13.4894 9.22203 13.6326L14.5453 8.368C14.8469 8.06968 15.3338 8.07231 15.6322 8.37386C15.9306 8.67553 15.928 9.16238 15.6263 9.46077L10.3265 14.702C10.4918 14.9937 10.6035 15.33 10.7416 15.745C10.7507 15.7724 10.7595 15.8008 10.7689 15.8289C11.3621 17.6087 11.7927 18.8979 12.18 19.8084C12.5849 20.7605 12.8677 21.0998 13.057 21.2098C13.6395 21.5482 14.3592 21.5483 14.9418 21.2098C15.131 21.0998 15.4138 20.7605 15.8187 19.8084C16.206 18.8979 16.6356 17.6086 17.2289 15.8289L18.8998 10.8172C19.6376 8.60362 20.1613 7.02624 20.3695 5.85628C20.5786 4.68078 20.4185 4.1816 20.1185 3.88167Z" fill="#48465C"/>
</svg>
