<svg width="24" height="24" viewBox="0 0 24 24" fill="none" xmlns="http://www.w3.org/2000/svg">
<path fill-rule="evenodd" clip-rule="evenodd" d="M13.4795 3.64827C17.9777 2.14887 20.2269 1.39853 21.414 2.58577C22.6012 3.77304 21.851 6.0222 20.3515 10.5203L18.6357 15.6698C17.4255 19.3005 16.82 21.1159 15.9326 21.6317C15.0885 22.1224 14.0462 22.1224 13.2021 21.6317C12.3147 21.1159 11.7092 19.3004 10.499 15.6698C10.3339 15.1739 10.452 14.6108 10.8232 14.243L16.2392 8.87678C16.549 8.56991 16.552 8.06934 16.2451 7.7596C15.9384 7.45005 15.4386 7.44819 15.1289 7.75471L9.62303 13.2098C9.28622 13.5435 8.77989 13.6506 8.33006 13.5008C4.69956 12.2907 2.88409 11.685 2.36815 10.7977C1.87742 9.95361 1.87747 8.91133 2.36815 8.06721C2.88401 7.17987 4.69942 6.5743 8.33006 5.36409L13.4795 3.64827Z" fill="#48465C"/>
</svg>
