<svg width="24" height="24" viewBox="0 0 24 24" fill="none" xmlns="http://www.w3.org/2000/svg">
<path d="M8.88598 3.36239C11.8287 0.545983 16.587 0.545754 19.5295 3.36239C22.4907 6.19684 22.4905 10.8072 19.5295 13.6417L11.5813 21.2501C9.49137 23.2506 6.11571 23.2505 4.02563 21.2501C1.91707 19.2318 1.91707 15.9451 4.02563 13.9268L11.8586 6.42782C13.096 5.24335 15.09 5.24336 16.3274 6.42782C17.5832 7.63001 17.5833 9.59388 16.3274 10.796L8.43579 18.3487C8.13655 18.635 7.66259 18.6245 7.37621 18.3253C7.08992 18.0262 7.09982 17.5523 7.39868 17.2657L15.2903 9.712C15.9288 9.10056 15.9287 8.12331 15.2903 7.51181C14.6329 6.88259 13.5541 6.88266 12.8967 7.51181L5.06274 15.0099C3.57121 16.4377 3.57121 18.7384 5.06274 20.1661C6.57277 21.6115 9.03418 21.6116 10.5442 20.1661L18.4924 12.5577C20.836 10.3138 20.8362 6.69015 18.4924 4.44638C16.1298 2.18483 12.2858 2.18493 9.92309 4.44638L3.51879 10.5763C3.21963 10.8626 2.74468 10.8528 2.45825 10.5538C2.17183 10.2546 2.18245 9.77968 2.48168 9.49325L8.88598 3.36239Z" fill="#48465C"/>
</svg>
