<svg width="24" height="24" viewBox="0 0 24 24" fill="none" xmlns="http://www.w3.org/2000/svg">
<path fill-rule="evenodd" clip-rule="evenodd" d="M17.8749 2.11848C19.177 1.88686 20.3495 1.93978 21.205 2.79524C22.0604 3.65071 22.1134 4.82318 21.8817 6.12532C21.6515 7.4196 21.0906 9.10421 20.3798 11.2366L18.6747 16.3519C18.0962 18.0872 17.6468 19.4359 17.2323 20.4105C16.8325 21.3504 16.388 22.1455 15.7137 22.5374C14.6535 23.1538 13.3442 23.1538 12.2841 22.5374C11.6098 22.1454 11.1653 21.3503 10.7655 20.4105C10.351 19.4359 9.90156 18.0872 9.32312 16.3519L9.3114 16.3148C9.1088 15.707 9.04633 15.5421 8.95886 15.4115C8.86102 15.2653 8.73584 15.1393 8.58972 15.0413C8.45899 14.9538 8.29341 14.8914 7.68542 14.6888L7.64831 14.6771C5.91298 14.0987 4.56428 13.6492 3.58972 13.2347C2.64982 12.8349 1.8548 12.3904 1.46277 11.7161C0.846395 10.6559 0.846396 9.34668 1.46277 8.28645C1.85476 7.61218 2.64976 7.16771 3.58972 6.7679C4.56426 6.3534 5.913 5.90395 7.64831 5.32552L12.7635 3.62044C14.8961 2.9096 16.5806 2.34873 17.8749 2.11848ZM20.119 3.88118C19.8191 3.58124 19.319 3.42206 18.1434 3.63118C16.9735 3.83936 15.3959 4.3631 13.1825 5.10091L8.17175 6.77083C6.39173 7.36417 5.10192 7.79464 4.19128 8.18196C3.23935 8.58685 2.90089 8.86972 2.79089 9.05891C2.45226 9.64162 2.45218 10.3611 2.79089 10.9437C2.90089 11.1329 3.23928 11.4158 4.19128 11.8206C5.10192 12.208 6.39173 12.6385 8.17175 13.2318C8.19974 13.2411 8.22746 13.25 8.25476 13.2591C8.63439 13.3854 8.9485 13.4898 9.22253 13.6331L14.5458 8.36848C14.8474 8.07016 15.3333 8.07275 15.6317 8.37434C15.9301 8.67604 15.9276 9.16288 15.6259 9.46126L10.326 14.7025C10.4913 14.9942 10.603 15.3304 10.7411 15.7454C10.7501 15.7727 10.7591 15.8005 10.7684 15.8284C11.3617 17.6084 11.7922 18.8983 12.1796 19.8089C12.5844 20.7609 12.8672 21.0993 13.0565 21.2093C13.6391 21.548 14.3585 21.5479 14.9413 21.2093C15.1305 21.0993 15.4134 20.7609 15.8182 19.8089C16.2055 18.8983 16.636 17.6084 17.2294 15.8284L18.8993 10.8177C19.6371 8.60428 20.1608 7.02671 20.369 5.85677C20.5781 4.68122 20.419 4.18112 20.119 3.88118Z" fill="#48465C"/>
</svg>
