<svg width="24" height="24" viewBox="0 0 24 24" fill="none" xmlns="http://www.w3.org/2000/svg">
<path d="M8.886 3.36239C11.8287 0.545983 16.587 0.545754 19.5296 3.36239C22.4907 6.19684 22.4905 10.8072 19.5296 13.6417L11.5813 21.2501C9.49139 23.2506 6.11573 23.2505 4.02565 21.2501C1.91709 19.2318 1.91709 15.9451 4.02565 13.9268L11.8587 6.42782C13.0961 5.24335 15.09 5.24336 16.3274 6.42782C17.5832 7.63001 17.5833 9.59388 16.3274 10.796L8.43581 18.3487C8.13658 18.635 7.66261 18.6245 7.37624 18.3253C7.08994 18.0262 7.09985 17.5523 7.3987 17.2657L15.2903 9.712C15.9288 9.10056 15.9287 8.12331 15.2903 7.51181C14.6329 6.88259 13.5542 6.88266 12.8967 7.51181L5.06276 15.0099C3.57123 16.4377 3.57123 18.7384 5.06276 20.1661C6.5728 21.6115 9.0342 21.6116 10.5442 20.1661L18.4924 12.5577C20.836 10.3138 20.8362 6.69015 18.4924 4.44638C16.1298 2.18483 12.2858 2.18493 9.92311 4.44638L3.51882 10.5763C3.21965 10.8626 2.7447 10.8528 2.45827 10.5538C2.17185 10.2546 2.18248 9.77968 2.48171 9.49325L8.886 3.36239Z" fill="#48465C"/>
</svg>
