<svg width="24" height="24" viewBox="0 0 24 24" fill="none" xmlns="http://www.w3.org/2000/svg">
<path fill-rule="evenodd" clip-rule="evenodd" d="M8.88594 3.36239C11.8287 0.545983 16.5869 0.545754 19.5295 3.36239C22.4906 6.19684 22.4905 10.8072 19.5295 13.6417L11.5813 21.2501C9.49133 23.2506 6.11567 23.2505 4.02559 21.2501C1.91703 19.2318 1.91703 15.9451 4.02559 13.9268L11.8586 6.42782C13.096 5.24335 15.0899 5.24336 16.3273 6.42782C17.5832 7.63001 17.5832 9.59388 16.3273 10.796L8.43575 18.3487C8.13652 18.635 7.66255 18.6245 7.37618 18.3253C7.08988 18.0262 7.09979 17.5523 7.39864 17.2657L15.2902 9.712C15.9287 9.10056 15.9286 8.12331 15.2902 7.51181C14.6329 6.88259 13.5541 6.88266 12.8967 7.51181L5.0627 15.0099C3.57117 16.4377 3.57117 18.7384 5.0627 20.1661C6.57274 21.6115 9.03414 21.6116 10.5441 20.1661L18.4924 12.5577C20.836 10.3138 20.8361 6.69015 18.4924 4.44638C16.1297 2.18483 12.2858 2.18493 9.92305 4.44638L3.51875 10.5763C3.21959 10.8626 2.74464 10.8528 2.45821 10.5538C2.17179 10.2546 2.18242 9.77969 2.48165 9.49325L8.88594 3.36239Z" fill="#48465C"/>
</svg>
