<svg width="24" height="24" viewBox="0 0 24 24" fill="none" xmlns="http://www.w3.org/2000/svg">
<path d="M19.2422 19.75C19.0463 20.4359 18.7905 20.9147 18.374 21.2734C17.53 22 16.2976 22 13.833 22H10.167C7.70236 22 6.46986 22.0001 5.62596 21.2734C5.2094 20.9147 4.9537 20.4359 4.7578 19.75H19.2422ZM7.93944 17L6.68944 18.25H4.44432C4.37702 17.8443 4.30885 17.3928 4.23338 16.8896L4.22557 16.835L5.99999 15.0605L7.93944 17ZM13.9394 17L12.6894 18.25H11.3105L10.0605 17L12 15.0605L13.9394 17ZM19.7744 16.8359L19.7666 16.8896C19.6912 17.3928 19.6239 17.8443 19.5566 18.25H17.3105L16.0605 17L18 15.0605L19.7744 16.8359ZM10.9394 14L8.99999 15.9395L7.06053 14L8.99999 12.0605L10.9394 14ZM16.9394 14L15 15.9395L13.0605 14L15 12.0605L16.9394 14ZM20.0517 14.9912L19.0605 14L20.4014 12.6592L20.0517 14.9912ZM4.93944 14L3.94921 14.9902L3.5996 12.6602L4.93944 14ZM7.93944 11L5.99999 12.9395L4.06053 11L5.99999 9.06055L7.93944 11ZM13.9394 11L12 12.9395L10.0605 11L12 9.06055L13.9394 11ZM19.9394 11L18 12.9395L16.0605 11L18 9.06055L19.9394 11ZM10.9394 8L8.99999 9.93945L7.06053 8L8.31053 6.75H9.68944L10.9394 8ZM16.9394 8L15 9.93945L13.0605 8L14.3105 6.75H15.6894L16.9394 8ZM4.93944 8L3.166 9.77344L3.03417 8.88965C2.91265 8.07961 2.80575 7.37207 2.72948 6.75H3.68944L4.93944 8ZM21.2705 6.75C21.1943 7.37188 21.0883 8.07991 20.9668 8.88965L20.834 9.77344L19.0605 8L20.3105 6.75H21.2705ZM15.0332 2C18.2724 2 19.8924 1.99977 20.79 3.04199C21.2538 3.58058 21.4134 4.26887 21.3935 5.25H2.60643C2.58647 4.26887 2.7471 3.58058 3.21092 3.04199C4.10863 2.00006 5.72874 2 8.96776 2H15.0332Z" fill="#48465C"/>
</svg>
