<svg width="24" height="24" viewBox="0 0 24 24" fill="none" xmlns="http://www.w3.org/2000/svg">
<path d="M15.0929 1.25C16.6619 1.24998 17.9201 1.25 18.8946 1.3877C19.9023 1.5301 20.7408 1.83558 21.3585 2.55273C21.976 3.26988 22.1532 4.14442 22.1446 5.16211C22.1362 6.14628 21.9497 7.39056 21.7169 8.94238L20.5011 17.0508C20.3247 18.2273 20.1813 19.1801 19.9718 19.9258C19.7534 20.7023 19.4396 21.3456 18.8634 21.8418C18.2872 22.3378 17.6049 22.5525 16.8048 22.6533C16.0362 22.75 15.0726 22.75 13.8829 22.75H10.1173C8.92747 22.75 7.96398 22.75 7.19539 22.6533C6.39523 22.5525 5.71291 22.3378 5.1368 21.8418C4.56063 21.3456 4.24673 20.7023 4.0284 19.9258C3.81875 19.18 3.67556 18.2273 3.4991 17.0508L2.28328 8.94238C2.05048 7.39056 1.86393 6.14628 1.85555 5.16211C1.84688 4.14439 2.02505 3.26989 2.64266 2.55273C3.26019 1.83586 4.09806 1.53009 5.10555 1.3877C6.0801 1.24999 7.33901 1.24998 8.90828 1.25H15.0929ZM5.54207 19.75C5.70079 20.2287 5.88251 20.5046 6.11531 20.7051C6.38307 20.9357 6.73976 21.0841 7.38289 21.165C8.04684 21.2486 8.91555 21.25 10.1671 21.25H13.8331C15.085 21.25 15.9541 21.2486 16.6182 21.165C17.261 21.0841 17.6171 20.9356 17.8848 20.7051C18.1176 20.5046 18.2994 20.2287 18.4581 19.75H5.54207ZM5.20418 18.25H5.39851L5.15633 17.959C5.17248 18.0591 5.18827 18.1563 5.20418 18.25ZM9.31062 18.25H11.6895L10.5001 17.0605L9.31062 18.25ZM15.713 18.25H18.1895L16.9014 16.9619L15.713 18.25ZM11.5606 16L13.7384 18.1777L15.8399 15.9004L13.7501 13.8105L11.5606 16ZM5.50398 16.0322L7.27742 18.1621L9.43953 16L7.4366 13.9971L5.50398 16.0322ZM17.92 15.8594L19.0011 16.9395C19.009 16.8866 19.0163 16.8326 19.0245 16.7783L19.4044 14.252L17.92 15.8594ZM8.47078 12.9102L10.5001 14.9395L12.6895 12.75L10.6036 10.6641L8.47078 12.9102ZM14.8106 12.75L16.8585 14.7979L18.9796 12.5L17.0987 10.4619L14.8106 12.75ZM4.66902 14.7334L6.37605 12.9365L4.04988 10.6104L4.66902 14.7334ZM4.81062 9.25L7.40926 11.8486L9.54305 9.60352L7.00008 7.06055L4.81062 9.25ZM11.6368 9.57617L13.7501 11.6895L16.0802 9.35938L13.9923 7.09766L11.6368 9.57617ZM18.1602 9.40039L19.8565 11.2383L20.2247 8.77832C20.3194 8.14656 20.4037 7.58828 20.4708 7.09082L18.1602 9.40039ZM10.5762 8.51563L12.253 6.75H8.81062L10.5762 8.51563ZM17.1417 8.29785L18.6895 6.75H15.713L17.1417 8.29785ZM3.67586 8.11523L3.75008 8.18945L5.18953 6.75H3.48543C3.53683 7.15843 3.60118 7.61083 3.67586 8.11523ZM8.96687 2.75C7.3246 2.75 6.17275 2.75191 5.31551 2.87305C4.47923 2.99123 4.05841 3.20708 3.7784 3.53223C3.49862 3.85736 3.34836 4.30517 3.35555 5.14941C3.35583 5.18253 3.35576 5.21606 3.35652 5.25H20.6436C20.6443 5.21607 20.6443 5.18254 20.6446 5.14941C20.6518 4.30513 20.5016 3.85736 20.2218 3.53223C19.9418 3.20706 19.521 2.99123 18.6846 2.87305C17.8274 2.7519 16.6756 2.75 15.0333 2.75H8.96687Z" fill="#48465C"/>
</svg>
