<svg width="24" height="24" viewBox="0 0 24 24" fill="none" xmlns="http://www.w3.org/2000/svg">
<path d="M13.4795 3.64827C17.9778 2.14887 20.2269 1.39853 21.4141 2.58577C22.6013 3.77304 21.851 6.0222 20.3516 10.5203L18.6358 15.6698C17.4256 19.3005 16.8201 21.1159 15.9327 21.6317C15.0886 22.1224 14.0463 22.1224 13.2022 21.6317C12.3148 21.1159 11.7093 19.3004 10.4991 15.6698C10.3339 15.1739 10.4521 14.6108 10.8233 14.243L16.2393 8.87678C16.5491 8.56991 16.5521 8.06934 16.2452 7.7596C15.9385 7.45005 15.4386 7.44819 15.129 7.75471L9.62309 13.2098C9.28628 13.5435 8.77995 13.6506 8.33013 13.5008C4.69962 12.2907 2.88415 11.685 2.36821 10.7977C1.87748 9.95361 1.87753 8.91133 2.36821 8.06721C2.88407 7.17987 4.69949 6.5743 8.33013 5.36409L13.4795 3.64827Z" fill="#48465C"/>
</svg>
