<svg width="24" height="24" viewBox="0 0 24 24" fill="none" xmlns="http://www.w3.org/2000/svg">
<path fill-rule="evenodd" clip-rule="evenodd" d="M8.88606 3.36239C11.8288 0.545983 16.5871 0.545754 19.5296 3.36239C22.4907 6.19684 22.4906 10.8072 19.5296 13.6417L11.5814 21.2501C9.49145 23.2506 6.11579 23.2505 4.02571 21.2501C1.91715 19.2318 1.91715 15.9451 4.02571 13.9268L11.8587 6.42782C13.0961 5.24335 15.0901 5.24336 16.3275 6.42782C17.5833 7.63001 17.5833 9.59388 16.3275 10.796L8.43587 18.3487C8.13664 18.635 7.66267 18.6245 7.3763 18.3253C7.09 18.0262 7.09991 17.5523 7.39876 17.2657L15.2904 9.712C15.9288 9.10056 15.9288 8.12331 15.2904 7.51181C14.633 6.88259 13.5542 6.88266 12.8968 7.51181L5.06282 15.0099C3.57129 16.4377 3.57129 18.7384 5.06282 20.1661C6.57286 21.6115 9.03426 21.6116 10.5443 20.1661L18.4925 12.5577C20.8361 10.3138 20.8363 6.69015 18.4925 4.44638C16.1299 2.18483 12.2859 2.18493 9.92317 4.44638L3.51888 10.5763C3.21971 10.8626 2.74477 10.8528 2.45833 10.5538C2.17191 10.2546 2.18254 9.77969 2.48177 9.49325L8.88606 3.36239Z" fill="#48465C"/>
</svg>
