<svg width="24" height="24" viewBox="0 0 24 24" fill="none" xmlns="http://www.w3.org/2000/svg">
<path d="M4 4.99997C4.00001 5.1821 4.04871 5.35289 4.13379 5.49997C4.3067 5.79885 4.62987 5.99997 5 5.99997H17C17.3506 5.99997 17.6872 6.06031 18 6.17087C19.1652 6.58272 20 7.69378 20 8.99997V19C20 20.6569 18.6569 22 17 22H7C5.34316 22 4.00002 20.6569 4 19V4.99997ZM10 18.25C9.58579 18.25 9.25 18.5858 9.25 19C9.25002 19.4142 9.5858 19.75 10 19.75H14C14.4142 19.75 14.75 19.4142 14.75 19C14.75 18.5858 14.4142 18.25 14 18.25H10ZM12 9.24997C9.92893 9.24997 8.25 10.9289 8.25 13C8.25002 15.0711 9.92894 16.75 12 16.75C14.0711 16.75 15.75 15.0711 15.75 13C15.75 10.9289 14.0711 9.24997 12 9.24997ZM12 10.75C13.2426 10.75 14.25 11.7574 14.25 13C14.25 14.2426 13.2426 15.25 12 15.25C10.7574 15.25 9.75002 14.2426 9.75 13C9.75 11.7574 10.7574 10.75 12 10.75ZM15.7168 2.32614C16.9215 2.15404 17.9998 3.0887 18 4.30563V5.12595C17.6804 5.04368 17.3453 4.99997 17 4.99997H5C5 4.59341 4.75753 4.24322 4.40918 4.08688C4.55304 3.97365 4.72759 3.89561 4.91992 3.86813L15.7168 2.32614Z" fill="#48465C"/>
</svg>
