<svg width="24" height="24" viewBox="0 0 24 24" fill="none" xmlns="http://www.w3.org/2000/svg">
<path d="M15.6113 1.5838C17.2679 1.34726 18.7498 2.63218 18.75 4.30548V5.68243C19.9395 6.3112 20.75 7.56081 20.75 8.99982V18.9998C20.75 21.0709 19.0711 22.7498 17 22.7498H7C4.92895 22.7498 3.25003 21.0709 3.25 18.9998V4.99982H3.25098C3.25008 4.97625 3.25 4.95232 3.25 4.92853C3.25009 4.02237 3.9164 3.25397 4.81348 3.12579L15.6113 1.5838ZM4.75 18.9998C4.75003 20.2424 5.75738 21.2498 7 21.2498H17C18.2426 21.2498 19.25 20.2424 19.25 18.9998V8.99982C19.25 7.76043 18.2479 6.75508 17.0098 6.74982H4.75V18.9998ZM14 18.2498C14.4142 18.2498 14.75 18.5856 14.75 18.9998C14.7499 19.4139 14.4141 19.7498 14 19.7498H10C9.58586 19.7498 9.25011 19.4139 9.25 18.9998C9.25 18.5856 9.58579 18.2498 10 18.2498H14ZM12 9.24982C14.0711 9.24982 15.75 10.9287 15.75 12.9998C15.7499 15.0708 14.071 16.7498 12 16.7498C9.929 16.7498 8.25011 15.0708 8.25 12.9998C8.25 10.9287 9.92893 9.24982 12 9.24982ZM12 10.7498C10.7574 10.7498 9.75 11.7572 9.75 12.9998C9.75011 14.2423 10.7575 15.2498 12 15.2498C13.2425 15.2498 14.2499 14.2423 14.25 12.9998C14.25 11.7572 13.2426 10.7498 12 10.7498ZM15.8232 3.06818L5.02539 4.61115C4.86743 4.63386 4.75009 4.76893 4.75 4.92853C4.75 5.10462 4.89176 5.24784 5.06738 5.24982H17.25V4.30548C17.2498 3.54497 16.5762 2.96066 15.8232 3.06818Z" fill="#48465C"/>
</svg>
