<svg width="24" height="24" viewBox="0 0 24 24" fill="none" xmlns="http://www.w3.org/2000/svg">
<path fill-rule="evenodd" clip-rule="evenodd" d="M20.0001 22.75H4.00007C3.58589 22.7499 3.25007 22.4141 3.25007 22C3.2502 21.5859 3.58597 21.25 4.00007 21.25H20.0001V22.75ZM14.0997 2.39156C15.6212 0.870144 18.088 0.870118 19.6094 2.39156C21.1306 3.91304 21.1308 6.37998 19.6094 7.90132L12.0147 15.4951C11.5868 15.923 11.3255 16.1848 11.0342 16.4121C10.6911 16.6797 10.3197 16.9094 9.92683 17.0966C9.59335 17.2555 9.24223 17.3721 8.66804 17.5634L5.99519 18.4541L5.35359 18.6679C4.7793 18.8592 4.14588 18.7102 3.71784 18.2822C3.28987 17.8541 3.1407 17.2207 3.3321 16.6464L4.43659 13.332C4.62798 12.7578 4.74542 12.4067 4.90437 12.0732C5.0916 11.6804 5.32131 11.3089 5.58894 10.9658C5.81607 10.6746 6.07715 10.4131 6.50495 9.98531L14.0997 2.39156ZM7.60163 11.0107C7.12747 11.4849 6.93519 11.6788 6.77155 11.8886C6.57085 12.146 6.39828 12.4241 6.25788 12.7187C6.1434 12.9589 6.0559 13.2183 5.84382 13.8545L5.1153 16.039L5.96101 16.8847L8.14655 16.1562C8.78253 15.9443 9.04117 15.8566 9.28132 15.7421C9.57589 15.6018 9.85405 15.4292 10.1114 15.2285C10.3212 15.0648 10.5161 14.8726 10.9903 14.3984L16.8809 8.50777C16.2709 8.2646 15.5347 7.85293 14.8409 7.15914C14.1472 6.4654 13.7353 5.72906 13.4923 5.1191L7.60163 11.0107ZM18.5479 3.45211C17.6123 2.51658 16.0958 2.5165 15.1602 3.45211L14.6876 3.92379C14.7148 4.04757 14.7555 4.20291 14.8165 4.37886C14.9845 4.86285 15.3023 5.49947 15.9014 6.09859C16.5005 6.69767 17.1371 7.0156 17.6212 7.18355C17.7972 7.24462 17.9524 7.28527 18.0762 7.31246L18.5479 6.84078C19.4836 5.90511 19.4836 4.38778 18.5479 3.45211Z" fill="#48465C"/>
</svg>
