<svg width="24" height="24" viewBox="0 0 24 24" fill="none" xmlns="http://www.w3.org/2000/svg">
<path fill-rule="evenodd" clip-rule="evenodd" d="M13.2347 5.20399C13.6536 6.21067 14.3423 7.40344 15.47 8.53114C16.5975 9.65856 17.7896 10.3466 18.7962 10.7655L11.3997 18.162C10.8229 18.7388 10.5341 19.0271 10.2161 19.2753C9.84073 19.5681 9.43487 19.8195 9.00517 20.0243C8.64089 20.1979 8.25312 20.3268 7.4788 20.5849L3.39579 21.9462C3.01478 22.0731 2.59482 21.9733 2.31083 21.6893C2.02691 21.4052 1.92797 20.9853 2.05497 20.6044L3.41532 16.5214C3.67344 15.7471 3.80324 15.3593 3.97685 14.995C4.18161 14.5655 4.43223 14.1593 4.72489 13.7841C4.97306 13.466 5.26203 13.1777 5.83915 12.6005L13.2347 5.20399ZM15.2874 3.15223C16.8231 1.61658 19.3123 1.61656 20.8479 3.15223C22.3836 4.68792 22.3836 7.17707 20.8479 8.71278L19.9612 9.60048C19.9247 9.58839 19.8874 9.5754 19.8499 9.56239C18.9128 9.23726 17.6844 8.62429 16.5306 7.47059C15.3766 6.31658 14.7629 5.08743 14.4378 4.15028C14.4247 4.11268 14.4119 4.07557 14.3997 4.03895L15.2874 3.15223Z" fill="#48465C"/>
</svg>
