<svg width="24" height="24" viewBox="0 0 24 24" fill="none" xmlns="http://www.w3.org/2000/svg">
<path fill-rule="evenodd" clip-rule="evenodd" d="M20 21.2504C20.4142 21.2504 20.75 21.5862 20.75 22.0004C20.7498 22.4144 20.414 22.7504 20 22.7504H4C3.58594 22.7504 3.25025 22.4144 3.25 22.0004C3.25 21.5862 3.58579 21.2504 4 21.2504H20ZM12.9883 4.56294C13.3233 5.36816 13.8735 6.32204 14.7754 7.22407C15.6773 8.126 16.6313 8.677 17.4365 9.01216L11.5205 14.9292C11.059 15.3907 10.8277 15.6212 10.5732 15.8198C10.273 16.054 9.94729 16.2546 9.60352 16.4184C9.31222 16.5572 9.00285 16.6613 8.38379 16.8676L5.11621 17.9565C4.81149 18.0579 4.47516 17.9785 4.24805 17.7514C4.02098 17.5242 3.94235 17.1881 4.04395 16.8833L5.13281 13.6167C5.33928 12.9972 5.4422 12.6873 5.58105 12.3959C5.74485 12.0522 5.94557 11.7273 6.17969 11.4272C6.37823 11.1726 6.6096 10.9416 7.07129 10.4799L12.9883 4.56294ZM14.6299 2.92134C15.8584 1.69294 17.8506 1.69283 19.0791 2.92134C20.3073 4.14987 20.3074 6.14205 19.0791 7.37056L18.3691 8.08052C18.34 8.07088 18.3102 8.06062 18.2803 8.05024C17.5306 7.79015 16.5472 7.29959 15.624 6.37642C14.7007 5.45321 14.2103 4.46989 13.9502 3.72017C13.9397 3.69015 13.9296 3.66054 13.9199 3.6313L14.6299 2.92134Z" fill="#48465C"/>
</svg>
