<svg width="24" height="24" viewBox="0 0 24 24" fill="none" xmlns="http://www.w3.org/2000/svg">
<path d="M19.9999 22.7504H3.99989C3.58583 22.7503 3.25004 22.4144 3.24989 22.0004C3.24989 21.5862 3.58573 21.2504 3.99989 21.2504H19.9999V22.7504ZM14.0995 2.39098C15.621 0.86975 18.0878 0.869599 19.6093 2.39098C21.1306 3.91237 21.1305 6.3793 19.6093 7.90074L12.0145 15.4945C11.5865 15.9225 11.3254 16.1842 11.0341 16.4115C10.6909 16.6792 10.3196 16.9088 9.92664 17.0961C9.59313 17.255 9.24211 17.3715 8.66785 17.5629L5.99598 18.4545L5.3534 18.6683C4.77922 18.8595 4.14661 18.7095 3.71864 18.2816C3.29055 17.8535 3.14047 17.2202 3.33192 16.6459L4.43641 13.3314C4.62773 12.7574 4.74527 12.407 4.90418 12.0736C5.09144 11.6806 5.32106 11.3093 5.58875 10.9662C5.81597 10.6749 6.07672 10.4127 6.50477 9.98473L14.0995 2.39098ZM7.60145 11.0101C7.12739 11.4842 6.93498 11.6783 6.77137 11.888C6.57066 12.1454 6.3981 12.4245 6.2577 12.7191C6.14332 12.9592 6.05559 13.2181 5.84364 13.8539L5.11512 16.0394L5.96082 16.8841L8.14637 16.1556C8.7824 15.9437 9.04096 15.856 9.28114 15.7416C9.57573 15.6012 9.85482 15.4296 10.1122 15.2289C10.3219 15.0652 10.5161 14.8728 10.9901 14.3988L16.8807 8.50816C16.2708 8.265 15.5345 7.85327 14.8407 7.15953C14.1469 6.46576 13.7352 5.72949 13.4921 5.11949L7.60145 11.0101ZM18.5477 3.45152C17.6122 2.51632 16.0955 2.51619 15.16 3.45152L14.6874 3.92418C14.7146 4.04801 14.7553 4.20324 14.8163 4.37926C14.9843 4.86325 15.3022 5.49993 15.9013 6.09898C16.5003 6.69794 17.1369 7.01501 17.621 7.18297C17.797 7.24404 17.9523 7.28566 18.0761 7.31285L18.5477 6.8402C19.4834 5.90453 19.4834 4.38719 18.5477 3.45152Z" fill="#48465C"/>
</svg>
