<svg width="24" height="24" viewBox="0 0 24 24" fill="none" xmlns="http://www.w3.org/2000/svg">
<path d="M20 21.25C20.4142 21.25 20.75 21.5858 20.75 22C20.75 22.4142 20.4142 22.75 20 22.75H4C3.5858 22.75 3.25001 22.4142 3.25 22C3.25 21.5858 3.58579 21.25 4 21.25H20ZM12.9883 4.56253C13.3234 5.36786 13.8733 6.32249 14.7754 7.22464C15.6773 8.12651 16.6313 8.67659 17.4365 9.01175L11.5205 14.9287C11.0588 15.3904 10.8278 15.6218 10.5732 15.8203C10.273 16.0545 9.94729 16.2552 9.60352 16.419C9.3123 16.5577 9.00262 16.6609 8.38379 16.8672L5.11621 17.9561C4.81146 18.0576 4.47519 17.9781 4.24805 17.751C4.02115 17.5238 3.94239 17.1876 4.04395 16.8828L5.13281 13.6162C5.33921 12.997 5.44221 12.6869 5.58105 12.3955C5.74487 12.0518 5.94554 11.7269 6.17969 11.4268C6.37823 11.1722 6.6096 10.9412 7.07129 10.4795L12.9883 4.56253ZM14.6299 2.92191C15.8584 1.69335 17.8505 1.69335 19.0791 2.92191C20.307 4.15039 20.307 6.14172 19.0791 7.37015L18.3691 8.08011C18.34 8.07046 18.3102 8.06023 18.2803 8.04984C17.5306 7.78974 16.5472 7.29922 15.624 6.37601C14.701 5.453 14.2103 4.47036 13.9502 3.72074C13.9397 3.69061 13.9296 3.66024 13.9199 3.63089L14.6299 2.92191Z" fill="#48465C"/>
</svg>
