<svg width="24" height="24" viewBox="0 0 24 24" fill="none" xmlns="http://www.w3.org/2000/svg">
<path d="M13.2345 5.20398C13.6534 6.21066 14.3422 7.40343 15.4699 8.53113C16.5973 9.65857 17.7895 10.3466 18.7961 10.7655L11.4005 18.162C10.8234 18.7391 10.5341 19.0271 10.216 19.2753C9.84061 19.5681 9.43472 19.8195 9.00504 20.0243C8.64084 20.1979 8.25368 20.3268 7.47965 20.5848L3.39566 21.9462C3.01467 22.073 2.59467 21.9733 2.3107 21.6893C2.02681 21.4052 1.92785 20.9853 2.05484 20.6044L3.41519 16.5214C3.67331 15.7471 3.80311 15.3593 3.97672 14.995C4.18148 14.5655 4.4321 14.1593 4.72476 13.7841C4.97293 13.466 5.2619 13.1777 5.83902 12.6005L13.2345 5.20398ZM15.2873 3.15223C16.8229 1.61656 19.3121 1.61659 20.8478 3.15223C22.3835 4.68792 22.3835 7.17706 20.8478 8.71277L19.9611 9.60047C19.9246 9.58838 19.8873 9.57539 19.8498 9.56238C18.9127 9.23724 17.6842 8.62428 16.5304 7.47059C15.3764 6.31658 14.7628 5.08742 14.4377 4.15027C14.4246 4.11268 14.4117 4.07555 14.3996 4.03894L15.2873 3.15223Z" fill="#48465C"/>
</svg>
