<svg width="24" height="24" viewBox="0 0 24 24" fill="none" xmlns="http://www.w3.org/2000/svg">
<path d="M14.7562 2.62194C16.5848 0.793339 19.5496 0.793339 21.3782 2.62194C23.2067 4.45052 23.2068 7.41445 21.3782 9.24303L11.8929 18.7284C11.351 19.2703 11.032 19.5893 10.6771 19.8661C10.2588 20.1923 9.80635 20.4728 9.32746 20.701C8.92124 20.8946 8.49289 21.0369 7.76594 21.2792L4.43488 22.3895L3.63312 22.6571C2.98259 22.8739 2.26548 22.7045 1.78058 22.2196C1.29568 21.7347 1.12622 21.0176 1.34308 20.3671L2.72101 16.2342C2.9633 15.5073 3.10557 15.0789 3.29914 14.6727C3.52728 14.194 3.80702 13.7413 4.13312 13.3231C4.40994 12.9682 4.72982 12.6483 5.2718 12.1063L14.7562 2.62194ZM6.36945 13.1307C5.78008 13.7201 5.52994 13.9716 5.31672 14.245C5.05746 14.5774 4.83499 14.9376 4.65363 15.3182C4.50453 15.6311 4.3908 15.9671 4.12726 16.7577L3.18 19.5995L4.4007 20.8202L7.2425 19.8729C8.03307 19.6094 8.36902 19.4957 8.68195 19.3465C9.06249 19.1652 9.42279 18.9428 9.75519 18.6835C10.0285 18.4702 10.2801 18.2201 10.8695 17.6307L18.4388 10.0614C17.6503 9.78317 16.6348 9.2672 15.6839 8.31627C14.7328 7.36514 14.217 6.34905 13.9388 5.56041L6.36945 13.1307ZM20.3177 3.68248C19.0749 2.43968 17.0605 2.4397 15.8177 3.68248L15.1556 4.34362C15.1898 4.51858 15.2476 4.75699 15.3441 5.03502C15.5613 5.66096 15.9716 6.48282 16.7445 7.25573C17.5174 8.02863 18.3393 8.43895 18.9652 8.65612C19.243 8.75251 19.4807 8.81039 19.6556 8.84459L20.3177 8.18248C21.5604 6.93969 21.5604 4.92529 20.3177 3.68248Z" fill="#48465C"/>
</svg>
