<svg width="24" height="24" viewBox="0 0 24 24" fill="none" xmlns="http://www.w3.org/2000/svg">
<path fill-rule="evenodd" clip-rule="evenodd" d="M14.7567 2.62194C16.5853 0.793339 19.5502 0.793339 21.3788 2.62194C23.2069 4.45045 23.2069 7.41452 21.3788 9.24303L11.8934 18.7284C11.3515 19.2703 11.0325 19.5903 10.6776 19.8671C10.2594 20.1932 9.80677 20.4729 9.32799 20.701C8.92175 20.8946 8.49339 21.0369 7.76647 21.2792L3.63268 22.6571C2.98219 22.8738 2.26497 22.7044 1.78014 22.2196C1.29538 21.7347 1.12583 21.0175 1.34264 20.3671L2.72057 16.2342C2.9629 15.5072 3.10604 15.079 3.29967 14.6727C3.52787 14.1939 3.80746 13.7414 4.13365 13.3231C4.41047 12.9682 4.72937 12.6483 5.27135 12.1063L14.7567 2.62194ZM6.36901 13.1307C5.77964 13.7201 5.5295 13.9716 5.31627 14.245C5.05701 14.5774 4.83455 14.9376 4.65319 15.3182C4.50411 15.6311 4.39034 15.9672 4.12682 16.7577L3.17955 19.5995L4.40026 20.8202L7.24205 19.8729C8.03311 19.6092 8.36943 19.4957 8.68248 19.3465C9.06294 19.1653 9.42241 18.9427 9.75475 18.6835C10.0281 18.4702 10.2803 18.2204 10.87 17.6307L18.4393 10.0614C17.6507 9.7832 16.6346 9.26739 15.6835 8.31627C14.7325 7.36519 14.2165 6.34901 13.9383 5.56041L6.36901 13.1307ZM20.3182 3.68248C19.0754 2.43967 17.06 2.43967 15.8172 3.68248L15.1551 4.34459C15.1893 4.51951 15.2472 4.75722 15.3436 5.03502C15.5608 5.66094 15.9712 6.4828 16.744 7.25573C17.5168 8.02853 18.3389 8.43891 18.9647 8.65612C19.2427 8.75258 19.4812 8.81039 19.6561 8.84459L20.3182 8.18248C21.5606 6.93975 21.5606 4.92521 20.3182 3.68248Z" fill="#48465C"/>
</svg>
