<svg width="24" height="24" viewBox="0 0 24 24" fill="none" xmlns="http://www.w3.org/2000/svg">
<path fill-rule="evenodd" clip-rule="evenodd" d="M7.61738 3.8301C8.98891 3.21589 9.6748 2.90831 10.5871 3.49905C11.4996 4.09025 11.5002 5.0605 11.5002 7.00002V8.50002C11.5002 10.3856 11.5003 11.3283 12.0861 11.9141C12.6719 12.4999 13.6146 12.5 15.5002 12.5H17.0002C18.9397 12.5 19.909 12.5006 20.5002 13.4131C21.0913 14.3256 20.7844 15.0111 20.1701 16.3828C19.9535 16.8665 19.6956 17.3338 19.3986 17.7783C18.3548 19.3404 16.8716 20.5583 15.1359 21.2774C13.4 21.9964 11.4895 22.1839 9.64668 21.8174C7.80389 21.4508 6.11101 20.5464 4.78242 19.2178C3.45383 17.8892 2.54938 16.1963 2.18281 14.3535C1.81625 12.5106 2.00382 10.6002 2.72285 8.86428C3.44184 7.12859 4.65983 5.6454 6.22187 4.60159C6.66643 4.30454 7.13372 4.0467 7.61738 3.8301ZM14.0002 5.00002C14.0003 3.34332 15.3895 1.94673 16.9309 2.55373C18.9916 3.36554 20.6347 5.00866 21.4465 7.06936C22.0534 8.61071 20.6569 9.99992 19.0002 10H15.0002C14.4479 10 14.0002 9.5523 14.0002 9.00002V5.00002Z" fill="#48465C"/>
</svg>
