<svg width="24" height="24" viewBox="0 0 24 24" fill="none" xmlns="http://www.w3.org/2000/svg">
<path d="M7.61744 3.8301C8.98897 3.21589 9.67487 2.90831 10.5872 3.49905C11.4997 4.09025 11.5003 5.0605 11.5003 7.00002V8.50002C11.5003 10.3856 11.5004 11.3283 12.0862 11.9141C12.672 12.4999 13.6147 12.5 15.5003 12.5H17.0003C18.9397 12.5 19.9091 12.5006 20.5003 13.4131C21.0913 14.3256 20.7845 15.0111 20.1702 16.3828C19.9536 16.8665 19.6957 17.3338 19.3987 17.7783C18.3549 19.3404 16.8716 20.5583 15.136 21.2774C13.4001 21.9964 11.4896 22.1839 9.64674 21.8174C7.80395 21.4508 6.11107 20.5464 4.78248 19.2178C3.4539 17.8892 2.54944 16.1963 2.18287 14.3535C1.81631 12.5106 2.00388 10.6002 2.72291 8.86428C3.4419 7.12859 4.65989 5.6454 6.22194 4.60159C6.6665 4.30454 7.13378 4.0467 7.61744 3.8301ZM14.0003 5.00002C14.0003 3.34332 15.3896 1.94673 16.9309 2.55373C18.9916 3.36554 20.6347 5.00866 21.4465 7.06936C22.0535 8.61071 20.657 9.99992 19.0003 10H15.0003C14.448 10 14.0003 9.5523 14.0003 9.00002V5.00002Z" fill="#48465C"/>
</svg>
