<svg width="24" height="24" viewBox="0 0 24 24" fill="none" xmlns="http://www.w3.org/2000/svg">
<path d="M9.14582 2.47316C9.79421 2.36014 10.3849 2.47417 10.9954 2.86965C11.6535 3.29605 11.9747 3.88036 12.1204 4.59426C12.2498 5.22812 12.2504 6.02051 12.2503 6.92824V8.49953C12.2503 9.46338 12.2519 10.1113 12.3167 10.5943C12.3788 11.0558 12.4862 11.254 12.6165 11.3843C12.7468 11.5144 12.9446 11.6211 13.4056 11.6831C13.8886 11.748 14.5364 11.7495 15.5003 11.7495H17.0726C17.9801 11.7494 18.7718 11.7501 19.4056 11.8794C20.1194 12.0251 20.7037 12.3464 21.1302 13.0044C21.5256 13.6149 21.6396 14.2056 21.5267 14.854C21.4306 15.4047 21.1663 15.9944 20.8851 16.6216L20.8548 16.689C20.6211 17.2109 20.3433 17.7151 20.0228 18.1948C18.8965 19.8804 17.2951 21.1935 15.4222 21.9693C13.5493 22.745 11.4885 22.9487 9.50032 22.5532C7.51201 22.1577 5.68576 21.1811 4.25227 19.7476C2.81879 18.3142 1.84209 16.4878 1.44661 14.4995C1.05116 12.5113 1.25483 10.4505 2.03059 8.57766C2.80637 6.70477 4.11947 5.10336 5.805 3.97707C6.28465 3.65658 6.78901 3.37875 7.31086 3.14504L7.37825 3.11477C8.00558 2.83363 8.59515 2.56918 9.14582 2.47316ZM10.18 4.12844C9.878 3.93281 9.66914 3.90542 9.40364 3.95168C9.06 4.0116 8.64237 4.1921 7.92317 4.51418C7.47797 4.71358 7.04824 4.95071 6.63899 5.22414C5.20006 6.1856 4.0786 7.55303 3.41633 9.15188C2.75419 10.7506 2.58077 12.5095 2.91828 14.2066C3.2559 15.9039 4.08914 17.4633 5.31282 18.687C6.53653 19.9107 8.09595 20.7439 9.79328 21.0816C11.4905 21.4191 13.2501 21.2458 14.8489 20.5835C16.4475 19.9213 17.8143 18.7997 18.7757 17.3609C19.0491 16.9517 19.2863 16.5218 19.4857 16.0767C19.8077 15.3575 19.9891 14.9399 20.0491 14.5962C20.0953 14.3308 20.0669 14.1218 19.8714 13.8198C19.7066 13.5657 19.5094 13.4315 19.1058 13.3491C18.6389 13.2539 18.0017 13.2495 17.0003 13.2495H15.4476C14.5493 13.2495 13.8001 13.2503 13.2054 13.1704C12.5778 13.0861 12.0113 12.9 11.556 12.4448C11.1005 11.9894 10.9138 11.4223 10.8294 10.7945C10.7494 10.1997 10.7503 9.45056 10.7503 8.55227V6.99953C10.7503 5.9982 10.746 5.36097 10.6507 4.89406C10.5683 4.4904 10.4343 4.29323 10.18 4.12844ZM14.389 2.3677C15.116 1.7211 16.1436 1.43729 17.2064 1.85598C19.4604 2.74407 21.2559 4.54037 22.1439 6.79445C22.5623 7.85708 22.2787 8.88392 21.6322 9.61086C21.0015 10.3199 20.0302 10.7494 19.0003 10.7495H15.0003C14.0338 10.7495 13.2503 9.96602 13.2503 8.99953V4.99953C13.2504 3.9696 13.68 2.99833 14.389 2.3677ZM16.6566 3.25148C16.178 3.06295 15.7391 3.17403 15.3861 3.48781C15.0152 3.81767 14.7504 4.37296 14.7503 4.99953V8.99953C14.7503 9.1376 14.8622 9.24953 15.0003 9.24953H19.0003C19.6269 9.24944 20.1821 8.98469 20.512 8.61379C20.8257 8.26087 20.9367 7.82269 20.7484 7.34426C20.0129 5.47719 18.5236 3.98711 16.6566 3.25148Z" fill="#48465C"/>
</svg>
