<svg width="24" height="24" viewBox="0 0 24 24" fill="none" xmlns="http://www.w3.org/2000/svg">
<path fill-rule="evenodd" clip-rule="evenodd" d="M20.0096 10.3983C22.6634 13.0524 22.6636 17.3556 20.0096 20.0096C17.3556 22.6635 13.0524 22.6634 10.3983 20.0096L7.80746 17.4188C7.84005 17.4089 7.87437 17.398 7.91 17.3866C8.25266 17.2772 8.73406 17.0988 9.3143 16.8192C10.4759 16.2595 12.0317 15.2941 13.6629 13.6629C15.2942 12.0317 16.2593 10.476 16.8192 9.3143C17.0988 8.73407 17.2772 8.25269 17.3866 7.91C17.3979 7.87441 17.4088 7.84002 17.4188 7.80746L20.0096 10.3983ZM3.99106 3.99106C6.64515 1.33697 10.9483 1.33697 13.6024 3.99106L16.1649 6.55356L16.0702 7.04965L16.0692 7.05063L16.0663 7.0643C16.063 7.0787 16.0573 7.10339 16.0487 7.13754C16.0314 7.20601 16.0027 7.31344 15.9579 7.45395C15.8679 7.73519 15.7146 8.15059 15.4676 8.66293C14.974 9.68721 14.1036 11.1012 12.6024 12.6024C11.101 14.1038 9.6871 14.975 8.66293 15.4686C8.15072 15.7154 7.73511 15.868 7.45395 15.9579C7.31342 16.0027 7.20599 16.0314 7.13754 16.0487C7.10333 16.0573 7.07867 16.0631 7.0643 16.0663L7.05063 16.0692L7.04965 16.0702L6.55356 16.1649L3.99106 13.6024C1.33697 10.9483 1.33697 6.64515 3.99106 3.99106Z" fill="#48465C"/>
</svg>
