<svg width="24" height="24" viewBox="0 0 24 24" fill="none" xmlns="http://www.w3.org/2000/svg">
<path fill-rule="evenodd" clip-rule="evenodd" d="M13.3555 14.4817C13.4171 14.6747 13.5156 14.9409 13.6689 15.259C13.976 15.8963 14.501 16.7396 15.3809 17.6194C16.2607 18.4993 17.104 19.0242 17.7412 19.3313C18.0594 19.4846 18.3256 19.5831 18.5186 19.6448C18.5521 19.6555 18.5833 19.6655 18.6123 19.6741L17.3809 20.9055C15.9212 22.365 13.5545 22.3651 12.0947 20.9055C10.6351 19.4458 10.6352 17.0791 12.0947 15.6194L13.3262 14.388C13.3347 14.417 13.3447 14.4482 13.3555 14.4817ZM15.6191 12.095C17.0788 10.6353 19.4455 10.6353 20.9053 12.095C22.3648 13.5548 22.3649 15.9215 20.9053 17.3811L19.8779 18.4085V18.4055L19.1465 18.2639C19.1423 18.263 19.1314 18.2607 19.1172 18.2571C19.0884 18.2499 19.0399 18.237 18.9746 18.2161C18.843 18.1741 18.6428 18.1003 18.3926 17.9798C17.8928 17.7389 17.1913 17.3086 16.4414 16.5589C15.6917 15.8091 15.2614 15.1077 15.0205 14.6077C14.8999 14.3576 14.8262 14.1573 14.7842 14.0257C14.7632 13.9599 14.7494 13.9109 14.7422 13.8821C14.7387 13.8684 14.7373 13.8591 14.7363 13.8548L14.5947 13.1214L14.5918 13.1223L15.6191 12.095ZM10.9375 10.2503C10.7877 11.1408 10.3688 11.9948 9.68164 12.6819C7.9243 14.439 5.07568 14.4391 3.31836 12.6819C2.63121 11.9948 2.21227 11.1408 2.0625 10.2503H10.9375ZM3.31836 6.31764C5.07562 4.56075 7.92436 4.56078 9.68164 6.31764C10.3688 7.00486 10.7877 7.85969 10.9375 8.75026H2.0625C2.21224 7.85969 2.63115 7.00486 3.31836 6.31764ZM14.7578 2.87917C15.9294 1.7076 17.8284 1.7076 19 2.87917C19.5857 3.46493 19.8789 4.23258 19.8789 5.00026C19.8788 5.76794 19.5857 6.53563 19 7.12135C17.8285 8.29281 15.9294 8.29272 14.7578 7.12135C14.1721 6.53563 13.879 5.76794 13.8789 5.00026C13.8789 4.23252 14.1721 3.46495 14.7578 2.87917Z" fill="#48465C"/>
</svg>
