<svg width="24" height="24" viewBox="0 0 24 24" fill="none" xmlns="http://www.w3.org/2000/svg">
<path d="M15.0889 11.5636C16.8416 9.81124 19.683 9.81113 21.4355 11.5636C23.1882 13.3162 23.188 16.1576 21.4355 17.9102L17.9111 21.4347C16.1584 23.1873 13.317 23.1873 11.5645 21.4347C9.81194 19.682 9.81185 16.8405 11.5645 15.088L15.0889 11.5636ZM12.625 16.1485C11.4582 17.3154 11.4583 19.2073 12.625 20.3741C13.7919 21.541 15.6838 21.541 16.8506 20.3741L17.8447 19.38C17.8109 19.3644 17.7764 19.3481 17.7412 19.3311C17.1041 19.0241 16.2606 18.499 15.3809 17.6192C14.5011 16.7396 13.9761 15.8961 13.6689 15.2589C13.6518 15.2235 13.6348 15.1885 13.6191 15.1544L12.625 16.1485ZM20.375 12.6241C19.2082 11.4574 17.3163 11.4575 16.1494 12.6241L14.7754 13.9981C14.7781 14.0066 14.7812 14.0153 14.7842 14.0245C14.8262 14.156 14.8988 14.3571 15.0195 14.6075C15.2604 15.1074 15.6916 15.8088 16.4414 16.5587C17.1912 17.3083 17.8928 17.7387 18.3926 17.9796C18.6428 18.1001 18.8431 18.1739 18.9746 18.2159C18.9836 18.2188 18.9925 18.2211 19.001 18.2237L20.375 16.8497C21.5415 15.6828 21.5417 13.7909 20.375 12.6241ZM2.78809 5.7872C4.83831 3.73709 8.1617 3.73709 10.2119 5.7872C11.2369 6.81211 11.7499 8.15675 11.75 9.49911C11.75 10.8416 11.2369 12.187 10.2119 13.212C8.16176 15.2617 4.83825 15.2617 2.78809 13.212C1.76311 12.187 1.25 10.8416 1.25 9.49911C1.25006 8.15675 1.76317 6.81211 2.78809 5.7872ZM2.8252 10.2491C2.96666 10.9462 3.30795 11.6108 3.84863 12.1515C5.31301 13.6155 7.68699 13.6155 9.15137 12.1515C9.69205 11.6108 10.0333 10.9462 10.1748 10.2491H2.8252ZM14.2266 2.34775C15.691 0.883368 18.0659 0.883498 19.5303 2.34775C20.2624 3.07984 20.6289 4.04154 20.6289 5.00009C20.6288 5.95855 20.2623 6.91944 19.5303 7.65146C18.0659 9.11593 15.6911 9.11593 14.2266 7.65146C13.4947 6.91946 13.129 5.95846 13.1289 5.00009C13.1289 4.04154 13.4945 3.07984 14.2266 2.34775ZM9.15137 6.84775C7.68693 5.38343 5.31307 5.38343 3.84863 6.84775C3.30801 7.38837 2.96668 8.05208 2.8252 8.74911H10.1748C10.0333 8.05209 9.69199 7.38837 9.15137 6.84775ZM18.4697 3.40927C17.591 2.53059 16.1668 2.53059 15.2881 3.40927C14.8486 3.84876 14.6289 4.4231 14.6289 5.00009C14.629 5.57699 14.8487 6.15149 15.2881 6.59091C16.1668 7.46933 17.5911 7.46949 18.4697 6.59091C18.9092 6.15149 19.1288 5.57699 19.1289 5.00009C19.1289 4.42321 18.9091 3.84873 18.4697 3.40927Z" fill="#48465C"/>
</svg>
