<svg width="24" height="24" viewBox="0 0 24 24" fill="none" xmlns="http://www.w3.org/2000/svg">
<path fill-rule="evenodd" clip-rule="evenodd" d="M3.46002 3.46002C6.40685 0.51318 11.1849 0.513473 14.1319 3.46002L20.5401 9.86822C23.4868 12.8153 23.4869 17.5932 20.5401 20.5401C17.5932 23.4869 12.8153 23.4868 9.86822 20.5401L3.46002 14.1319C0.513473 11.1849 0.51318 6.40685 3.46002 3.46002ZM17.1407 8.5899C17.0526 8.80867 16.9462 9.05133 16.8194 9.31451C16.2595 10.4762 15.2944 12.0318 13.6631 13.6631C12.032 15.2943 10.4761 16.2597 9.31451 16.8194C9.05145 16.9462 8.80858 17.0526 8.5899 17.1407L10.9288 19.4796C13.29 21.8405 17.1184 21.8407 19.4796 19.4796C21.8407 17.1184 21.8405 13.29 19.4796 10.9288L17.1407 8.5899ZM13.0713 4.52154C10.7101 2.16034 6.88274 2.16034 4.52154 4.52154C2.16034 6.88274 2.16034 10.7101 4.52154 13.0713L7.41803 15.9688C7.42937 15.9654 7.44137 15.9618 7.45318 15.9581C7.73436 15.8683 8.15067 15.7158 8.66314 15.4688C9.68725 14.9752 11.1003 14.1038 12.6016 12.6026C14.1029 11.1013 14.9742 9.68746 15.4678 8.66314C15.7149 8.15055 15.8682 7.73443 15.9581 7.45318C15.9618 7.44135 15.9653 7.42937 15.9688 7.41803L13.0713 4.52154Z" fill="#48465C"/>
</svg>
