<svg width="24" height="24" viewBox="0 0 24 24" fill="none" xmlns="http://www.w3.org/2000/svg">
<path d="M3.4599 3.46002C6.40673 0.51318 11.1847 0.513473 14.1318 3.46002L20.54 9.86822C23.4867 12.8153 23.4868 17.5932 20.54 20.5401C17.593 23.4869 12.8151 23.4868 9.8681 20.5401L3.4599 14.1319C0.513351 11.1849 0.513058 6.40685 3.4599 3.46002ZM17.1406 8.5899C17.0525 8.80867 16.9461 9.05133 16.8193 9.31451C16.2594 10.4762 15.2943 12.0318 13.663 13.6631C12.0319 15.2943 10.4759 16.2597 9.31439 16.8194C9.05133 16.9462 8.80846 17.0526 8.58978 17.1407L10.9286 19.4796C13.2899 21.8405 17.1183 21.8407 19.4794 19.4796C21.8406 17.1184 21.8404 13.29 19.4794 10.9288L17.1406 8.5899ZM13.0712 4.52154C10.71 2.16034 6.88262 2.16034 4.52142 4.52154C2.16022 6.88274 2.16022 10.7101 4.52142 13.0713L7.41791 15.9688C7.42925 15.9654 7.44124 15.9618 7.45306 15.9581C7.73424 15.8683 8.15054 15.7158 8.66302 15.4688C9.68713 14.9752 11.1002 14.1038 12.6015 12.6026C14.1028 11.1013 14.9741 9.68746 15.4677 8.66314C15.7148 8.15055 15.868 7.73443 15.9579 7.45318C15.9617 7.44135 15.9651 7.42938 15.9687 7.41803L13.0712 4.52154Z" fill="#48465C"/>
</svg>
