<svg width="24" height="24" viewBox="0 0 24 24" fill="none" xmlns="http://www.w3.org/2000/svg">
<path d="M20.0091 10.3977C22.6632 13.0518 22.6632 17.3549 20.0091 20.009C17.3551 22.663 13.0529 22.663 10.3988 20.009L7.80798 17.4182C7.84028 17.4084 7.87425 17.3982 7.90954 17.387C8.25221 17.2776 8.73445 17.0993 9.31481 16.8196C10.4763 16.2599 12.0314 15.2943 13.6625 13.6633C15.2937 12.0321 16.2598 10.4764 16.8197 9.31469C17.0994 8.73428 17.2777 8.25213 17.3871 7.90942C17.3984 7.87386 17.4093 7.83941 17.4193 7.80688L20.0091 10.3977ZM3.99059 3.99047C6.64462 1.33645 10.9478 1.33657 13.6019 3.99047L16.1654 6.55395L16.0697 7.04907V7.05004L16.0668 7.06469C16.0636 7.07913 16.0577 7.10397 16.0492 7.13793C16.0319 7.20636 16.0031 7.31315 15.9584 7.45336C15.8685 7.73461 15.7152 8.15073 15.4681 8.66332C14.9745 9.68763 14.1032 11.1015 12.6019 12.6028C11.1008 14.1038 9.68752 14.9744 8.66345 15.468C8.15093 15.715 7.73468 15.8684 7.45349 15.9582C7.31325 16.003 7.20647 16.0318 7.13806 16.0491C7.10403 16.0576 7.07922 16.0634 7.06481 16.0666L7.05114 16.0696H7.05017L6.55407 16.1653L3.99059 13.6018C1.33669 10.9477 1.33657 6.6445 3.99059 3.99047Z" fill="#48465C"/>
</svg>
