<svg width="24" height="24" viewBox="0 0 24 24" fill="none" xmlns="http://www.w3.org/2000/svg">
<path d="M12.0906 2.03464C13.1789 1.7947 14.1921 2.80897 16.2185 4.83737L19.1834 7.80515C21.1953 9.81904 22.2013 10.8261 21.9666 11.9116C21.7317 12.9969 20.3997 13.4978 17.7361 14.4985L15.8923 15.1909C15.1789 15.4589 14.8219 15.5931 14.5466 15.8315C14.4262 15.9358 14.3183 16.0537 14.2253 16.1831C14.0129 16.4791 13.9121 16.8472 13.7097 17.5825C13.2496 19.2548 13.0192 20.091 12.4714 20.4038C12.2406 20.5354 11.9793 20.6043 11.7136 20.604C11.0829 20.6031 10.4694 19.9899 9.2439 18.7632L7.77808 17.2964L3.3025 21.7758C3.00457 22.074 2.52132 22.074 2.22339 21.7758C1.92579 21.4777 1.92577 20.9949 2.22339 20.6967L6.69898 16.2163L5.28492 14.8003C4.06714 13.5813 3.45782 12.9711 3.45386 12.3442C3.45221 12.0732 3.52278 11.8065 3.65796 11.5717C3.97089 11.0287 4.8015 10.7999 6.46167 10.3423C7.19786 10.1393 7.56609 10.0377 7.86207 9.82468C7.99492 9.72904 8.11622 9.61727 8.22242 9.49265C8.459 9.21498 8.59028 8.85593 8.85328 8.13815L9.52125 6.31491C10.5081 3.6214 11.0023 2.27476 12.0906 2.03464Z" fill="#48465C"/>
</svg>
