<svg width="24" height="24" viewBox="0 0 24 24" fill="none" xmlns="http://www.w3.org/2000/svg">
<path d="M11.5351 1.30462C12.4169 1.11007 13.1909 1.46203 13.9247 2.00677C14.6376 2.53603 15.4597 3.35899 16.4745 4.37493L19.6474 7.55169C20.6547 8.55998 21.4714 9.37676 21.997 10.0859C22.5382 10.8163 22.888 11.5859 22.6982 12.4638C22.5083 13.3419 21.8717 13.8977 21.0771 14.3388C20.3055 14.767 19.2244 15.1736 17.8905 15.6747L15.913 16.4169C15.119 16.7153 14.9029 16.8089 14.7421 16.9482C14.6612 17.0182 14.5887 17.0975 14.5263 17.1845C14.4021 17.3576 14.3287 17.5818 14.1034 18.4003L14.0917 18.4452C13.863 19.2765 13.6735 19.9633 13.4667 20.4784C13.2569 21.0012 12.9736 21.4966 12.4648 21.787C12.1112 21.9888 11.7106 22.0943 11.3036 22.0937C10.7176 22.0927 10.2265 21.8019 9.78604 21.4511C9.35205 21.1054 8.84911 20.6017 8.24015 19.9921L6.65323 18.4033L2.53019 22.5302C2.23745 22.8232 1.76268 22.824 1.46964 22.5312C1.17666 22.2385 1.17692 21.7637 1.46964 21.4706L5.59269 17.3427L4.05851 15.8056C3.45341 15.1999 2.95382 14.7001 2.61026 14.2685C2.26154 13.8303 1.97237 13.3428 1.96866 12.7607C1.96604 12.3459 2.0732 11.9375 2.28019 11.5781C2.57083 11.0736 3.06342 10.7924 3.58292 10.5839C4.09465 10.3785 4.77557 10.1902 5.6005 9.96282L5.64542 9.95111C6.46545 9.72503 6.69029 9.6517 6.86319 9.52728C6.95223 9.46317 7.03317 9.38816 7.1044 9.30462C7.24279 9.14223 7.33488 8.92353 7.62784 8.12396L8.34464 6.16888C8.83879 4.82008 9.23856 3.72735 9.663 2.9472C10.0998 2.14449 10.6537 1.49928 11.5351 1.30462ZM13.0302 3.21087C12.4276 2.7636 12.1081 2.71438 11.8583 2.76947C11.6086 2.8247 11.3402 3.00459 10.9814 3.664C10.6163 4.33487 10.252 5.32147 9.73038 6.74505L9.03604 8.64056C9.02269 8.67698 9.00996 8.71343 8.99698 8.74896C8.76284 9.38954 8.58109 9.88404 8.24601 10.2773C8.09662 10.4525 7.92702 10.6095 7.74015 10.7441C7.3208 11.046 6.81234 11.1855 6.15519 11.3661C6.11866 11.3761 6.08132 11.3871 6.04386 11.3974C5.16307 11.6402 4.56488 11.8065 4.14151 11.9765C3.71685 12.1469 3.6146 12.267 3.57999 12.3271C3.50586 12.4559 3.46775 12.6021 3.46866 12.7509C3.4691 12.8206 3.49814 12.9757 3.78312 13.3339C4.06742 13.6911 4.50619 14.1315 5.15226 14.7783L9.26847 18.8993C9.91873 19.5503 10.3614 19.9923 10.7206 20.2783C11.081 20.5653 11.2371 20.5936 11.3066 20.5937C11.4519 20.5938 11.5952 20.5565 11.7216 20.4843C11.7822 20.4497 11.9033 20.3468 12.0751 19.9189C12.2461 19.4925 12.4131 18.89 12.6571 18.0029C12.6674 17.9656 12.6775 17.9288 12.6874 17.8925C12.8674 17.2363 13.0069 16.7285 13.3075 16.3095C13.4383 16.1272 13.5902 15.9612 13.7597 15.8144C14.1496 15.4768 14.6418 15.2922 15.2782 15.0536C15.3136 15.0404 15.3495 15.0263 15.3857 15.0126L17.3026 14.2929C18.7105 13.764 19.6859 13.395 20.3485 13.0273C20.9993 12.6661 21.1781 12.3977 21.2323 12.1474C21.2865 11.8969 21.2354 11.5779 20.7919 10.9794C20.3405 10.3701 19.6044 9.63082 18.5409 8.56634L15.4589 5.4804C14.3877 4.40819 13.6431 3.66591 13.0302 3.21087Z" fill="#48465C"/>
</svg>
