<svg width="24" height="24" viewBox="0 0 24 24" fill="none" xmlns="http://www.w3.org/2000/svg">
<path d="M11.5 16.9404C11.4999 17.8844 11.1246 18.7895 10.457 19.457C9.78951 20.1246 8.88445 20.4999 7.94043 20.5H3.5V16.0596C3.49881 15.1476 3.84764 14.2697 4.47461 13.6074C5.10168 12.945 5.95929 12.5487 6.87012 12.5H11.5V16.9404ZM16.9404 12.5C17.8844 12.5001 18.7895 12.8754 19.457 13.543C20.1246 14.2105 20.4999 15.1156 20.5 16.0596V20.5H15.8701C14.9593 20.4513 14.1017 20.055 13.4746 19.3926C12.8476 18.7303 12.4988 17.8524 12.5 16.9404V12.5H16.9404ZM7.05957 14C6.51338 14.0001 5.98974 14.2173 5.60352 14.6035C5.2173 14.9897 5.00012 15.5134 5 16.0596V19H7.94043C8.48662 18.9999 9.01026 18.7827 9.39649 18.3965C9.78271 18.0103 9.99989 17.4866 10 16.9404V14H7.05957ZM14 16.9404C14.0001 17.4866 14.2173 18.0103 14.6035 18.3965C14.9897 18.7827 15.5134 18.9999 16.0596 19H19V16.0596C18.9999 15.5134 18.7827 14.9897 18.3965 14.6035C18.0103 14.2173 17.4866 14.0001 16.9404 14H14V16.9404ZM7.94043 3.5C8.88445 3.50011 9.78951 3.87544 10.457 4.54297C11.1246 5.2105 11.4999 6.11555 11.5 7.05957V11.5H6.87012C5.95929 11.4513 5.10168 11.055 4.47461 10.3926C3.84764 9.73026 3.49881 8.85243 3.5 7.94043V3.5H7.94043ZM20.5 7.94043C20.4999 8.88445 20.1246 9.7895 19.457 10.457C18.7895 11.1246 17.8844 11.4999 16.9404 11.5H12.5V7.05957C12.4988 6.14757 12.8476 5.26974 13.4746 4.60742C14.1017 3.94503 14.9593 3.54868 15.8701 3.5H20.5V7.94043ZM5 7.94043C5.00012 8.48662 5.2173 9.01026 5.60352 9.39648C5.98974 9.78271 6.51338 9.99989 7.05957 10H10V7.05957C9.99989 6.51338 9.78271 5.98974 9.39649 5.60352C9.01026 5.21729 8.48662 5.00011 7.94043 5H5V7.94043ZM16.0596 5C15.5134 5.00011 14.9897 5.21729 14.6035 5.60352C14.2173 5.98974 14.0001 6.51338 14 7.05957V10H16.9404C17.4866 9.99989 18.0103 9.78271 18.3965 9.39648C18.7827 9.01026 18.9999 8.48662 19 7.94043V5H16.0596Z" fill="#48465C"/>
</svg>
