<svg width="24" height="24" viewBox="0 0 24 24" fill="none" xmlns="http://www.w3.org/2000/svg">
<path d="M19.9996 12C19.9996 16.4183 16.4179 20 11.9996 20C10.1767 19.9999 8.49622 19.39 7.15095 18.3633C9.22452 17.8694 11.6916 16.9154 14.1832 15.5879C16.5021 14.3524 18.5103 12.97 19.9918 11.6426C19.997 11.761 19.9996 11.8804 19.9996 12ZM11.9996 4C13.8112 4 15.4827 4.60209 16.8238 5.61719L17.7125 5.45312C18.7593 5.25978 19.7184 5.19458 20.5094 5.30078C21.2797 5.40423 22.0456 5.6942 22.4654 6.36523C22.9117 7.07851 22.7767 7.90702 22.4527 8.62305C22.1234 9.35066 21.5347 10.1222 20.7808 10.8916C20.5382 11.1393 20.2741 11.3895 19.9918 11.6426C19.9645 11.0224 19.8673 10.4204 19.7066 9.84473L19.7095 9.8418C20.403 9.13398 20.8591 8.50747 21.0865 8.00488C21.3191 7.49071 21.2522 7.25594 21.1929 7.16113C21.1227 7.04892 20.9042 6.86694 20.3101 6.78711C19.7718 6.71481 19.0461 6.74526 18.1617 6.89648C18.8678 7.74817 19.4009 8.74944 19.7066 9.84473C18.3271 11.2518 16.1437 12.8445 13.4781 14.2646C10.8119 15.6851 8.21974 16.6356 6.19881 17.0361C6.07611 17.0604 5.95572 17.0825 5.83845 17.1025C5.13243 16.2509 4.59921 15.2504 4.29353 14.1553C3.64017 14.8218 3.19374 15.4208 2.95271 15.9141C2.67584 16.4808 2.74381 16.7389 2.80623 16.8389C2.87906 16.9553 3.11199 17.1445 3.7447 17.2197C4.27942 17.2832 4.98628 17.2483 5.83845 17.1025C6.22655 17.5706 6.66721 17.9941 7.15095 18.3633C6.9259 18.4169 6.70512 18.4651 6.48982 18.5078C5.39463 18.7247 4.3923 18.8069 3.56795 18.709C2.76782 18.614 1.96751 18.3264 1.53474 17.6348C1.06394 16.8823 1.23903 16.0041 1.60506 15.2549C1.98008 14.4874 2.63785 13.6695 3.47713 12.8525L4.00447 12.2588C4.00174 12.1729 3.99959 12.0866 3.99959 12C3.99959 7.58187 7.58152 4.00025 11.9996 4Z" fill="#48465C"/>
</svg>
