<svg width="24" height="24" viewBox="0 0 24 24" fill="none" xmlns="http://www.w3.org/2000/svg">
<path d="M11.9996 3.25C14.2197 3.25 16.247 4.07699 17.7897 5.43945C18.8065 5.25705 19.7379 5.19718 20.5094 5.30078C21.2797 5.40423 22.0455 5.69422 22.4654 6.36523C22.9116 7.07852 22.7767 7.90701 22.4527 8.62305C22.1235 9.35066 21.5348 10.1222 20.7809 10.8916C20.7515 10.9217 20.721 10.9514 20.691 10.9814C20.7297 11.3156 20.7496 11.6555 20.7496 12C20.7496 16.8325 16.8321 20.75 11.9996 20.75C9.77974 20.7499 7.75317 19.9229 6.21055 18.5605C5.22436 18.7374 4.32166 18.7985 3.56797 18.709C2.76785 18.614 1.96755 18.3264 1.53477 17.6348C1.06397 16.8823 1.23905 16.0041 1.60508 15.2549C1.95468 14.5395 2.5502 13.7799 3.30918 13.0186C3.27045 12.6844 3.24961 12.3445 3.24961 12C3.24961 7.16766 7.16733 3.25024 11.9996 3.25ZM19.2447 12.2812C17.8629 13.4075 16.1324 14.5493 14.1832 15.5879C12.0619 16.718 9.95825 17.5781 8.1002 18.1133C9.22607 18.833 10.5643 19.2499 11.9996 19.25C15.9095 19.25 19.0969 16.1549 19.2447 12.2812ZM3.70762 14.7998C3.36457 15.2103 3.11317 15.5857 2.95274 15.9141C2.67587 16.4808 2.74382 16.7389 2.80625 16.8389C2.87907 16.9553 3.11201 17.1445 3.74473 17.2197C4.08677 17.2604 4.49929 17.2607 4.9752 17.2178C4.43412 16.4905 4.00341 15.6761 3.70762 14.7998ZM11.9996 4.75C7.99576 4.75024 4.74961 7.99609 4.74961 12C4.74961 13.9048 5.48484 15.6378 6.68614 16.9316C8.62804 16.4833 11.0216 15.5733 13.4781 14.2646C15.7715 13.0426 17.708 11.6927 19.0826 10.4434C18.3703 7.18738 15.4694 4.75 11.9996 4.75ZM20.3102 6.78711C19.9589 6.73994 19.5277 6.73685 19.025 6.78223C19.5661 7.50951 19.9968 8.32386 20.2926 9.2002C20.6666 8.75257 20.9305 8.34967 21.0865 8.00488C21.3192 7.49071 21.2524 7.25594 21.193 7.16113C21.1227 7.04891 20.9042 6.86694 20.3102 6.78711Z" fill="#48465C"/>
</svg>
