<svg width="24" height="24" viewBox="0 0 24 24" fill="none" xmlns="http://www.w3.org/2000/svg">
<path d="M4.40625 4.39081C4.69935 4.09851 5.17424 4.09896 5.4668 4.39179C5.7594 4.68498 5.75901 5.16071 5.46582 5.45331C3.78733 7.12856 2.75 9.44247 2.75 12.0002C2.75 14.588 3.81201 16.926 5.52539 18.6057C5.82118 18.8957 5.82513 19.3714 5.53516 19.6672C5.24516 19.9625 4.77025 19.9668 4.47461 19.6769C2.48546 17.7269 1.25 15.0071 1.25 12.0002C1.25 9.02802 2.45723 6.33595 4.40625 4.39081ZM18.6162 4.46503C18.9119 4.17516 19.3867 4.17932 19.6768 4.47479C21.5769 6.41305 22.75 9.07062 22.75 12.0002C22.75 14.9646 21.5493 17.6501 19.6094 19.5939C19.3168 19.8871 18.8419 19.8874 18.5488 19.5949C18.2557 19.3024 18.2545 18.8276 18.5469 18.5344C20.2178 16.8602 21.25 14.5514 21.25 12.0002C21.25 9.47892 20.2418 7.1948 18.6055 5.52557C18.3156 5.22988 18.3207 4.75501 18.6162 4.46503ZM7.24902 7.45233C7.55147 7.16937 8.02657 7.18507 8.30957 7.48749C8.59255 7.7899 8.57677 8.265 8.27441 8.54804C7.3255 9.43603 6.75 10.6506 6.75 11.9826C6.75006 13.33 7.3388 14.5579 8.30762 15.4484C8.61235 15.7287 8.63272 16.2031 8.35254 16.508C8.07223 16.8129 7.59694 16.8322 7.29199 16.5519C6.03954 15.4004 5.25006 13.7825 5.25 11.9826C5.25 10.2034 6.02134 8.60119 7.24902 7.45233ZM15.7432 7.52557C16.0295 7.22648 16.5044 7.2159 16.8037 7.50214C18.0008 8.64724 18.75 10.2291 18.75 11.9826C18.7499 13.757 17.9827 15.355 16.7607 16.5031C16.4589 16.7868 15.9838 16.7718 15.7002 16.4699C15.4168 16.168 15.4317 15.6939 15.7334 15.4103C16.6778 14.523 17.2499 13.3111 17.25 11.9826C17.25 10.6696 16.6913 9.47058 15.7666 8.58612C15.4673 8.29981 15.4569 7.8249 15.7432 7.52557ZM10.124 8.49139C10.5784 8.18445 11.0511 8.2128 11.46 8.34491C11.8021 8.45552 12.1913 8.66948 12.5918 8.88886C12.6092 8.89839 12.6271 8.90762 12.6445 8.91718C12.885 9.04877 13.1238 9.1865 13.3389 9.32245C13.5839 9.4773 13.8449 9.65914 14.1006 9.84686C14.1158 9.85803 14.1314 9.86895 14.1465 9.88007C14.5547 10.1796 14.9369 10.4601 15.207 10.7433C15.5204 11.0718 15.75 11.471 15.75 12.0002C15.75 12.5293 15.5204 12.9285 15.207 13.257C14.9369 13.5403 14.5547 13.8208 14.1465 14.1203C14.1314 14.1314 14.1158 14.1424 14.1006 14.1535C13.8449 14.3412 13.5839 14.523 13.3389 14.6779C13.1238 14.8138 12.885 14.9515 12.6445 15.0832C12.6271 15.0927 12.6093 15.102 12.5918 15.1115C12.1912 15.3309 11.8021 15.5449 11.46 15.6555C11.0512 15.7875 10.5783 15.8166 10.124 15.5099C9.69592 15.2208 9.5205 14.7921 9.43262 14.384C9.35245 14.0116 9.32157 13.5388 9.28809 13.0168C9.28698 12.9995 9.28627 12.9823 9.28516 12.965C9.26394 12.6347 9.25 12.3033 9.25 12.0002C9.25 11.6971 9.26394 11.3656 9.28516 11.0353C9.28627 11.0181 9.28698 11.0008 9.28809 10.9836C9.32157 10.4616 9.35245 9.98876 9.43262 9.61639C9.52051 9.20831 9.69599 8.78061 10.124 8.49139ZM10.9512 9.75897C10.9381 9.78769 10.9182 9.84091 10.8984 9.9328C10.8447 10.1826 10.8202 10.5415 10.7822 11.132C10.7622 11.4429 10.75 11.7399 10.75 12.0002C10.75 12.2604 10.7622 12.5575 10.7822 12.8683C10.8202 13.4593 10.8446 13.8186 10.8984 14.0685C10.9182 14.1601 10.9381 14.2127 10.9512 14.2414C10.964 14.2382 10.9801 14.2339 10.999 14.2277C11.1889 14.1663 11.4508 14.0271 11.9248 13.7678C12.1479 13.6456 12.3579 13.5242 12.5381 13.4103C12.7438 13.2804 12.9741 13.1199 13.2129 12.9445C13.6831 12.5992 13.9536 12.3964 14.1211 12.2209C14.2502 12.0855 14.2503 12.0372 14.25 12.0041V11.9963C14.2503 11.9632 14.2503 11.9148 14.1211 11.7795C13.9536 11.6039 13.6831 11.4011 13.2129 11.0558C12.974 10.8805 12.7439 10.7201 12.5381 10.59C12.3579 10.4761 12.1479 10.3557 11.9248 10.2336C11.4506 9.974 11.1889 9.83408 10.999 9.77264C10.9801 9.76652 10.964 9.7622 10.9512 9.75897Z" fill="#48465C"/>
</svg>
