<svg width="24" height="24" viewBox="0 0 24 24" fill="none" xmlns="http://www.w3.org/2000/svg">
<path d="M4.40625 4.39154C4.69943 4.09894 5.1742 4.09934 5.4668 4.39252C5.75928 4.68572 5.75897 5.1605 5.46582 5.45307C3.78732 7.12829 2.75005 9.44225 2.75 11.9999C2.75 14.5877 3.81199 16.9267 5.52539 18.6064C5.82082 18.8964 5.82501 19.3713 5.53516 19.6669C5.24516 19.9624 4.77028 19.9666 4.47461 19.6767C2.48551 17.7266 1.25 15.0068 1.25 11.9999C1.25005 9.02794 2.45738 6.33663 4.40625 4.39154ZM18.6162 4.46478C18.912 4.17481 19.3868 4.17974 19.6768 4.47553C21.5768 6.41374 22.75 9.07049 22.75 11.9999C22.75 14.9643 21.5493 17.6498 19.6094 19.5937C19.3168 19.8869 18.8419 19.8872 18.5488 19.5947C18.2557 19.3021 18.2544 18.8273 18.5469 18.5341C20.2178 16.8599 21.25 14.5511 21.25 11.9999C21.25 9.47874 20.2417 7.19452 18.6055 5.52533C18.3157 5.2296 18.3207 4.75472 18.6162 4.46478ZM7.24902 7.45209C7.55145 7.16923 8.02659 7.18492 8.30957 7.48725C8.59255 7.78963 8.57669 8.26474 8.27441 8.54779C7.3255 9.43578 6.75 10.6504 6.75 11.9824C6.75001 13.3298 7.33876 14.5576 8.30762 15.4482C8.6124 15.7284 8.63266 16.2028 8.35254 16.5078C8.07223 16.8127 7.59694 16.833 7.29199 16.5527C6.03927 15.4011 5.25001 13.7825 5.25 11.9824C5.25 10.2032 6.02134 8.60095 7.24902 7.45209ZM15.7432 7.52533C16.0295 7.22633 16.5044 7.21569 16.8037 7.50189C18.0009 8.64701 18.75 10.2288 18.75 11.9824C18.75 13.7568 17.9827 15.3547 16.7607 16.5029C16.4589 16.7866 15.9838 16.7716 15.7002 16.4697C15.4169 16.1678 15.4317 15.6936 15.7334 15.4101C16.6779 14.5227 17.25 13.3109 17.25 11.9824C17.25 10.6694 16.6913 9.47035 15.7666 8.58588C15.4673 8.29957 15.4569 7.82466 15.7432 7.52533ZM10.5439 9.11225C10.9446 8.84171 11.3917 9.08612 12.2852 9.57514C12.517 9.70197 12.7408 9.83108 12.9385 9.956C13.1638 10.0984 13.4091 10.2695 13.6562 10.4511C14.5519 11.1086 14.9999 11.4376 15 11.9999C15 12.5623 14.552 12.8911 13.6562 13.5488C13.4091 13.7302 13.1639 13.9014 12.9385 14.0439C12.7409 14.1687 12.5169 14.2979 12.2852 14.4247C11.3916 14.9138 10.9446 15.1583 10.5439 14.8876C10.1432 14.6169 10.107 14.0504 10.0342 12.9169C10.0136 12.5963 10 12.2816 10 11.9999C10 11.7183 10.0136 11.4043 10.0342 11.0839C10.107 9.95035 10.1431 9.383 10.5439 9.11225Z" fill="#48465C"/>
</svg>
