<svg width="24" height="24" viewBox="0 0 24 24" fill="none" xmlns="http://www.w3.org/2000/svg">
<path fill-rule="evenodd" clip-rule="evenodd" d="M4.40625 4.39154C4.69943 4.09894 5.1742 4.09934 5.4668 4.39252C5.75928 4.68572 5.75897 5.1605 5.46582 5.45307C3.78732 7.12829 2.75005 9.44225 2.75 11.9999C2.75 14.5877 3.81199 16.9267 5.52539 18.6064C5.82082 18.8964 5.82501 19.3713 5.53516 19.6669C5.24516 19.9624 4.77028 19.9666 4.47461 19.6767C2.48551 17.7266 1.25 15.0068 1.25 11.9999C1.25005 9.02794 2.45738 6.33663 4.40625 4.39154ZM18.6162 4.46478C18.912 4.17481 19.3868 4.17974 19.6768 4.47553C21.5768 6.41374 22.75 9.07049 22.75 11.9999C22.75 14.9643 21.5493 17.6498 19.6094 19.5937C19.3168 19.8869 18.8419 19.8872 18.5488 19.5947C18.2557 19.3021 18.2544 18.8273 18.5469 18.5341C20.2178 16.8599 21.25 14.5511 21.25 11.9999C21.25 9.47874 20.2417 7.19452 18.6055 5.52533C18.3157 5.2296 18.3207 4.75472 18.6162 4.46478ZM7.24902 7.45209C7.55145 7.16923 8.02659 7.18493 8.30957 7.48725C8.59255 7.78963 8.57669 8.26474 8.27441 8.54779C7.3255 9.43578 6.75 10.6504 6.75 11.9824C6.75001 13.3298 7.33876 14.5576 8.30762 15.4482C8.6124 15.7284 8.63266 16.2028 8.35254 16.5078C8.07223 16.8127 7.59694 16.833 7.29199 16.5527C6.03927 15.4011 5.25001 13.7825 5.25 11.9824C5.25 10.2032 6.02134 8.60095 7.24902 7.45209ZM15.7432 7.52533C16.0295 7.22633 16.5044 7.21569 16.8037 7.50189C18.0009 8.64701 18.75 10.2288 18.75 11.9824C18.75 13.7568 17.9827 15.3547 16.7607 16.5029C16.4589 16.7866 15.9838 16.7716 15.7002 16.4697C15.4169 16.1678 15.4317 15.6936 15.7334 15.4101C16.6779 14.5227 17.25 13.3109 17.25 11.9824C17.25 10.6694 16.6913 9.47035 15.7666 8.58588C15.4673 8.29957 15.4569 7.82466 15.7432 7.52533ZM10.124 8.49115C10.5785 8.18418 11.0511 8.21348 11.46 8.34564C11.8021 8.45625 12.1913 8.66925 12.5918 8.88861C12.6092 8.89813 12.6271 8.90739 12.6445 8.91693C12.8849 9.04851 13.1238 9.18628 13.3389 9.32221C13.5839 9.47706 13.8449 9.6589 14.1006 9.84662C14.1158 9.85781 14.1314 9.86966 14.1465 9.8808C14.5546 10.1802 14.9369 10.4609 15.207 10.7441C15.5202 11.0725 15.7499 11.4711 15.75 11.9999C15.75 12.529 15.5204 12.9283 15.207 13.2568C14.9369 13.54 14.5547 13.8205 14.1465 14.1201C14.1314 14.1312 14.1157 14.1422 14.1006 14.1533C13.8449 14.341 13.5839 14.5228 13.3389 14.6777C13.1238 14.8136 12.885 14.9513 12.6445 15.0829C12.627 15.0925 12.6093 15.1027 12.5918 15.1122C12.1914 15.3316 11.802 15.5447 11.46 15.6552C11.0512 15.7873 10.5783 15.8164 10.124 15.5097C9.69588 15.2205 9.5205 14.7919 9.43262 14.3837C9.35246 14.0113 9.32156 13.5385 9.28809 13.0165C9.28698 12.9993 9.28627 12.982 9.28516 12.9648C9.26394 12.6345 9.25 12.303 9.25 11.9999C9.25001 11.6969 9.26394 11.3653 9.28516 11.0351C9.28627 11.0179 9.28698 11.0005 9.28809 10.9833C9.32156 10.4614 9.35246 9.98848 9.43262 9.61615C9.52052 9.20811 9.69602 8.78033 10.124 8.49115ZM10.9512 9.75873C10.9381 9.78741 10.9182 9.84051 10.8984 9.93256C10.8447 10.1824 10.8202 10.5411 10.7822 11.1318C10.7622 11.4426 10.75 11.7396 10.75 11.9999C10.75 12.2602 10.7622 12.5581 10.7822 12.8691C10.8202 13.4599 10.8446 13.8185 10.8984 14.0683C10.9182 14.1603 10.9381 14.2134 10.9512 14.2421C10.9641 14.2389 10.9801 14.2337 10.999 14.2275C11.1889 14.166 11.4508 14.0269 11.9248 13.7675C12.1479 13.6453 12.3579 13.524 12.5381 13.4101C12.7438 13.2801 12.9741 13.1196 13.2129 12.9443C13.6827 12.5993 13.9536 12.397 14.1211 12.2216C14.2503 12.0862 14.2503 12.0369 14.25 12.0038V11.996C14.2503 11.9629 14.2502 11.9144 14.1211 11.7792C13.9536 11.6037 13.6831 11.4008 13.2129 11.0556C12.9742 10.8803 12.7438 10.7208 12.5381 10.5908C12.3579 10.4769 12.1479 10.3554 11.9248 10.2333C11.4505 9.97374 11.1889 9.83383 10.999 9.7724C10.9801 9.76627 10.964 9.76196 10.9512 9.75873Z" fill="#48465C"/>
</svg>
