<svg width="24" height="24" viewBox="0 0 24 24" fill="none" xmlns="http://www.w3.org/2000/svg">
<path fill-rule="evenodd" clip-rule="evenodd" d="M6.71808 2.63692C9.08208 1.30321 11.9527 0.858175 14.7825 1.61641C20.5172 3.15302 23.9204 9.04778 22.3841 14.7824C20.8475 20.5171 14.9528 23.9204 9.21808 22.384C3.48332 20.8473 0.0798845 14.9527 1.61651 9.21797C1.92078 8.08252 2.3967 7.03673 3.00909 6.10274C3.58317 5.2277 4.74079 5.15981 5.47394 5.75313L12.472 11.4172C12.7939 11.6777 12.8436 12.1499 12.5833 12.4719C12.3228 12.7938 11.8506 12.8436 11.5286 12.5832L7.48858 9.31368C7.01948 10.0994 6.75035 11.0178 6.7503 12.0002C6.7503 14.8997 9.1008 17.2502 12.0003 17.2502C14.8997 17.2501 17.2503 14.8996 17.2503 12.0002C17.2502 9.10086 14.8996 6.75031 12.0003 6.7502C11.4189 6.7502 10.8609 6.84439 10.3401 7.01778C9.94715 7.14867 9.52182 6.93616 9.39093 6.54317C9.2604 6.15042 9.47291 5.7259 9.86554 5.59493C10.5373 5.37122 11.2557 5.2502 12.0003 5.2502C15.728 5.25031 18.7502 8.27243 18.7503 12.0002C18.7503 15.728 15.7281 18.7501 12.0003 18.7502C8.27238 18.7502 5.2503 15.7281 5.2503 12.0002C5.25036 10.6614 5.64098 9.41233 6.31378 8.3625L4.53058 6.91915C4.47475 6.87396 4.41151 6.86039 4.36163 6.86641C4.3162 6.8719 4.28518 6.89215 4.263 6.92598C3.73711 7.72812 3.32813 8.62736 3.06573 9.60665C1.74363 14.5412 4.67133 19.6135 9.60577 20.9357C14.5403 22.2579 19.6126 19.3292 20.9349 14.3947C22.2571 9.46021 19.3284 4.38784 14.3939 3.06563C11.9586 2.41319 9.49118 2.79504 7.45538 3.94356C7.09471 4.14704 6.6375 4.01995 6.4339 3.65938C6.23038 3.29864 6.35737 2.84047 6.71808 2.63692Z" fill="#48465C"/>
</svg>
