<svg width="24" height="24" viewBox="0 0 24 24" fill="none" xmlns="http://www.w3.org/2000/svg">
<path d="M6.71865 2.63808C9.08258 1.30444 11.9524 0.858452 14.7821 1.6166C20.5168 3.15319 23.92 9.04794 22.3837 14.7826C20.8471 20.5173 14.9525 23.9208 9.21768 22.3842C3.48294 20.8475 0.0794886 14.9529 1.61611 9.21816C1.92038 8.0827 2.3963 7.03692 3.00869 6.10293C3.5827 5.22787 4.74036 5.16014 5.47354 5.75332L12.4716 11.4174C12.7935 11.6779 12.8433 12.1501 12.5829 12.4721C12.3223 12.7941 11.8502 12.844 11.5282 12.5834L7.48818 9.31386C7.01909 10.0996 6.74996 11.018 6.7499 12.0004C6.7499 14.8999 9.10043 17.2503 11.9999 17.2504C14.8994 17.2504 17.2499 14.8999 17.2499 12.0004C17.2497 9.101 14.8993 6.75039 11.9999 6.75039C11.4185 6.75039 10.8605 6.84453 10.3397 7.01796C9.94675 7.14885 9.52239 6.93635 9.3915 6.54336C9.26082 6.15044 9.47321 5.72597 9.86611 5.59511C10.5378 5.37148 11.2554 5.25039 11.9999 5.25039C15.7277 5.25039 18.7497 8.27257 18.7499 12.0004C18.7499 15.7283 15.7278 18.7504 11.9999 18.7504C8.27201 18.7503 5.2499 15.7283 5.2499 12.0004C5.24996 10.6616 5.64058 9.41251 6.31338 8.36269L4.53018 6.91933C4.47434 6.87416 4.4111 6.86057 4.36123 6.8666C4.31593 6.87213 4.28572 6.8924 4.26358 6.92617C3.73758 7.72839 3.32777 8.62741 3.06533 9.60683C1.74324 14.5414 4.67185 19.6137 9.60635 20.9359C14.5407 22.2578 19.6122 19.3292 20.9345 14.3949C22.2566 9.46051 19.3287 4.38816 14.3944 3.06582C11.959 2.41326 9.49087 2.79516 7.45498 3.94375C7.09428 4.14714 6.63703 4.02019 6.4335 3.65957C6.22997 3.29881 6.35789 2.84161 6.71865 2.63808Z" fill="#48465C"/>
</svg>
