<svg width="24" height="24" viewBox="0 0 24 24" fill="none" xmlns="http://www.w3.org/2000/svg">
<path fill-rule="evenodd" clip-rule="evenodd" d="M14.6807 2.32215C15.0553 2.14583 15.5022 2.30601 15.6787 2.68055C15.8551 3.05534 15.6941 3.50222 15.3193 3.67859L10.3867 5.99988H14C17.7711 5.99988 19.6566 6.00028 20.8281 7.17176C21.9997 8.3433 22 10.2288 22 13.9999C22 17.7711 21.9997 19.6575 20.8281 20.829C19.6566 22.0002 17.7708 21.9999 14 21.9999H10C6.22918 21.9999 4.34348 22.0002 3.17188 20.829C2.00031 19.6575 2 17.7711 2 13.9999C2 10.2288 2.00033 8.34331 3.17188 7.17176C3.94591 6.39781 5.03142 6.1349 6.7666 6.04578L14.6807 2.32215ZM7.5 14.7499C6.25743 14.7499 5.25012 15.7574 5.25 16.9999C5.25 18.2425 6.25736 19.2499 7.5 19.2499C8.74264 19.2499 9.75 18.2425 9.75 16.9999C9.74988 15.7574 8.74257 14.7499 7.5 14.7499ZM7.5 16.2499C7.91414 16.2499 8.24988 16.5858 8.25 16.9999C8.25 17.4141 7.91421 17.7499 7.5 17.7499C7.08579 17.7499 6.75 17.4141 6.75 16.9999C6.75012 16.5858 7.08586 16.2499 7.5 16.2499ZM13 16.2499C12.5859 16.2499 12.2501 16.5858 12.25 16.9999C12.25 17.4141 12.5858 17.7499 13 17.7499H18C18.4142 17.7499 18.75 17.4141 18.75 16.9999C18.7499 16.5858 18.4141 16.2499 18 16.2499H13ZM7 8.24988C5.48129 8.24988 4.25012 9.4812 4.25 10.9999C4.25 12.5187 5.48122 13.7499 7 13.7499H17C18.5188 13.7499 19.75 12.5187 19.75 10.9999C19.7499 9.4812 18.5187 8.24988 17 8.24988H7ZM17 9.74988C17.6903 9.74988 18.2499 10.3096 18.25 10.9999C18.25 11.6903 17.6904 12.2499 17 12.2499H15.75V11.4999C15.7499 11.0858 15.4141 10.7499 15 10.7499C14.5859 10.7499 14.2501 11.0858 14.25 11.4999V12.2499H7C6.30964 12.2499 5.75 11.6903 5.75 10.9999C5.75012 10.3096 6.30971 9.74988 7 9.74988H17Z" fill="#48465C"/>
</svg>
