<svg width="24" height="24" viewBox="0 0 24 24" fill="none" xmlns="http://www.w3.org/2000/svg">
<path d="M6.99989 3.33953C8.9494 2.21399 11.1202 1.81951 13.1952 2.07098C16.2109 2.43652 19.0242 4.16637 20.66 6.99969C22.2958 9.83297 22.3874 13.1339 21.1962 15.9284C20.3765 17.8511 18.9494 19.5342 16.9999 20.6598C12.2171 23.4212 6.10123 21.7824 3.33973 16.9997C0.57831 12.2168 2.21696 6.10096 6.99989 3.33953ZM9.74989 17.4997C9.33577 17.4997 8.99997 17.8356 8.99989 18.2497C8.99989 18.6639 9.33572 18.9996 9.74989 18.9997C10.1641 18.9997 10.4999 18.6639 10.4999 18.2497C10.4998 17.8356 10.164 17.4997 9.74989 17.4997ZM14.2499 17.4997C13.8358 17.4997 13.5 17.8356 13.4999 18.2497C13.4999 18.6639 13.8357 18.9996 14.2499 18.9997C14.6641 18.9997 14.9999 18.6639 14.9999 18.2497C14.9998 17.8356 14.664 17.4997 14.2499 17.4997ZM9.74989 12.9997C9.05962 12.9997 8.49997 13.5594 8.49989 14.2497C8.49989 14.9401 9.05957 15.4996 9.74989 15.4997C10.4403 15.4997 10.9999 14.9401 10.9999 14.2497C10.9998 13.5594 10.4402 12.9997 9.74989 12.9997ZM14.2499 12.9997C13.5596 12.9997 13 13.5594 12.9999 14.2497C12.9999 14.9401 13.5595 15.4996 14.2499 15.4997C14.9403 15.4997 15.4999 14.9401 15.4999 14.2497C15.4998 13.5594 14.9402 12.9997 14.2499 12.9997ZM5.74989 13.4997C5.33577 13.4997 4.99997 13.8356 4.99989 14.2497C4.99989 14.6639 5.33572 14.9996 5.74989 14.9997C6.1641 14.9997 6.49989 14.6639 6.49989 14.2497C6.49981 13.8356 6.16405 13.4997 5.74989 13.4997ZM18.2499 13.4997C17.8358 13.4997 17.5 13.8356 17.4999 14.2497C17.4999 14.6639 17.8357 14.9996 18.2499 14.9997C18.6641 14.9997 18.9999 14.6639 18.9999 14.2497C18.9998 13.8356 18.664 13.4997 18.2499 13.4997ZM9.74989 8.49969C9.05962 8.49974 8.49997 9.05942 8.49989 9.74969C8.49989 10.4401 9.05957 10.9996 9.74989 10.9997C10.4403 10.9997 10.9999 10.4401 10.9999 9.74969C10.9998 9.05939 10.4402 8.49969 9.74989 8.49969ZM14.2499 8.49969C13.5596 8.49974 13 9.05942 12.9999 9.74969C12.9999 10.4401 13.5595 10.9996 14.2499 10.9997C14.9403 10.9997 15.4999 10.4401 15.4999 9.74969C15.4998 9.05939 14.9402 8.49969 14.2499 8.49969ZM5.74989 8.99969C5.33577 8.99974 4.99997 9.33557 4.99989 9.74969C4.99989 10.1639 5.33572 10.4996 5.74989 10.4997C6.1641 10.4997 6.49989 10.1639 6.49989 9.74969C6.49981 9.33554 6.16405 8.99969 5.74989 8.99969ZM18.2499 8.99969C17.8358 8.99974 17.5 9.33557 17.4999 9.74969C17.4999 10.1639 17.8357 10.4996 18.2499 10.4997C18.6641 10.4997 18.9999 10.1639 18.9999 9.74969C18.9998 9.33554 18.664 8.99969 18.2499 8.99969ZM9.74989 4.99969C9.33577 4.99974 8.99997 5.33557 8.99989 5.74969C8.99989 6.16387 9.33572 6.49964 9.74989 6.49969C10.1641 6.49969 10.4999 6.1639 10.4999 5.74969C10.4998 5.33554 10.164 4.99969 9.74989 4.99969ZM14.2499 4.99969C13.8358 4.99974 13.5 5.33557 13.4999 5.74969C13.4999 6.16387 13.8357 6.49964 14.2499 6.49969C14.6641 6.49969 14.9999 6.1639 14.9999 5.74969C14.9998 5.33554 14.664 4.99969 14.2499 4.99969Z" fill="#48465C"/>
</svg>
