<svg width="24" height="24" viewBox="0 0 24 24" fill="none" xmlns="http://www.w3.org/2000/svg">
<path d="M6.62529 2.69015C8.72037 1.48056 11.0556 1.05548 13.2864 1.32589C16.5262 1.71861 19.5511 3.57851 21.3099 6.62472C23.0685 9.67087 23.1666 13.2203 21.887 16.2224C21.0057 18.2895 19.4704 20.0997 17.3753 21.3093C12.2338 24.2778 5.65931 22.5163 2.69072 17.3747C-0.277781 12.2332 1.48377 5.65872 6.62529 2.69015ZM13.1058 2.81515C11.1865 2.5825 9.17941 2.94737 7.37529 3.98898C2.95114 6.54332 1.43526 12.2005 3.98955 16.6247C6.54388 21.0488 12.2011 22.5648 16.6253 20.0105C18.4294 18.9689 19.7489 17.413 20.5071 15.6345C21.6099 13.0477 21.5239 9.99509 20.011 7.37472C18.4982 4.75431 15.8975 3.15353 13.1058 2.81515ZM9.75029 17.4997C10.1643 17.4999 10.5002 17.8357 10.5003 18.2497C10.5003 18.6638 10.1643 18.9995 9.75029 18.9997C9.33608 18.9997 9.00029 18.6639 9.00029 18.2497C9.00038 17.8356 9.33614 17.4997 9.75029 17.4997ZM14.2503 17.4997C14.6643 17.4999 15.0002 17.8357 15.0003 18.2497C15.0003 18.6638 14.6643 18.9995 14.2503 18.9997C13.8361 18.9997 13.5003 18.6639 13.5003 18.2497C13.5004 17.8356 13.8361 17.4997 14.2503 17.4997ZM9.75029 12.4997C10.7166 12.4999 11.5002 13.2834 11.5003 14.2497C11.5003 15.2161 10.7166 15.9995 9.75029 15.9997C8.78379 15.9997 8.00029 15.2162 8.00029 14.2497C8.00039 13.2833 8.78385 12.4997 9.75029 12.4997ZM14.2503 12.4997C15.2166 12.4999 16.0002 13.2834 16.0003 14.2497C16.0003 15.2161 15.2166 15.9995 14.2503 15.9997C13.2838 15.9997 12.5003 15.2162 12.5003 14.2497C12.5004 13.2833 13.2839 12.4997 14.2503 12.4997ZM5.75029 13.4997C6.16432 13.4999 6.50021 13.8357 6.50029 14.2497C6.50029 14.6638 6.16437 14.9995 5.75029 14.9997C5.33608 14.9997 5.00029 14.6639 5.00029 14.2497C5.00038 13.8356 5.33614 13.4997 5.75029 13.4997ZM9.75029 13.4997C9.33614 13.4997 9.00039 13.8356 9.00029 14.2497C9.00029 14.6639 9.33608 14.9997 9.75029 14.9997C10.1643 14.9995 10.5003 14.6638 10.5003 14.2497C10.5002 13.8357 10.1643 13.4999 9.75029 13.4997ZM14.2503 13.4997C13.8362 13.4997 13.5004 13.8356 13.5003 14.2497C13.5003 14.6639 13.8361 14.9997 14.2503 14.9997C14.6643 14.9995 15.0003 14.6638 15.0003 14.2497C15.0002 13.8357 14.6643 13.4999 14.2503 13.4997ZM18.2503 13.4997C18.6643 13.4999 19.0002 13.8357 19.0003 14.2497C19.0003 14.6638 18.6643 14.9995 18.2503 14.9997C17.8361 14.9997 17.5003 14.6639 17.5003 14.2497C17.5004 13.8356 17.8361 13.4997 18.2503 13.4997ZM9.75029 7.99972C10.7166 7.99989 11.5002 8.7834 11.5003 9.74972C11.5003 10.7161 10.7166 11.4995 9.75029 11.4997C8.78379 11.4997 8.00029 10.7162 8.00029 9.74972C8.00038 8.78329 8.78385 7.99972 9.75029 7.99972ZM14.2503 7.99972C15.2166 7.99989 16.0002 8.7834 16.0003 9.74972C16.0003 10.7161 15.2166 11.4995 14.2503 11.4997C13.2838 11.4997 12.5003 10.7162 12.5003 9.74972C12.5004 8.78329 13.2838 7.99972 14.2503 7.99972ZM5.75029 8.99972C6.16432 8.99989 6.50021 9.33568 6.50029 9.74972C6.50029 10.1638 6.16437 10.4995 5.75029 10.4997C5.33608 10.4997 5.00029 10.1639 5.00029 9.74972C5.00038 9.33557 5.33614 8.99972 5.75029 8.99972ZM9.75029 8.99972C9.33614 8.99972 9.00038 9.33558 9.00029 9.74972C9.00029 10.1639 9.33608 10.4997 9.75029 10.4997C10.1643 10.4995 10.5003 10.1638 10.5003 9.74972C10.5002 9.33568 10.1643 8.99989 9.75029 8.99972ZM14.2503 8.99972C13.8361 8.99972 13.5004 9.33557 13.5003 9.74972C13.5003 10.1639 13.8361 10.4997 14.2503 10.4997C14.6643 10.4995 15.0003 10.1638 15.0003 9.74972C15.0002 9.33568 14.6643 8.99989 14.2503 8.99972ZM18.2503 8.99972C18.6643 8.99989 19.0002 9.33568 19.0003 9.74972C19.0003 10.1638 18.6643 10.4995 18.2503 10.4997C17.8361 10.4997 17.5003 10.1639 17.5003 9.74972C17.5004 9.33557 17.8361 8.99972 18.2503 8.99972ZM9.75029 4.99972C10.1643 4.99989 10.5002 5.33569 10.5003 5.74972C10.5003 6.16382 10.1643 6.49955 9.75029 6.49972C9.33608 6.49972 9.00029 6.16393 9.00029 5.74972C9.00038 5.33558 9.33614 4.99972 9.75029 4.99972ZM14.2503 4.99972C14.6643 4.99989 15.0002 5.33569 15.0003 5.74972C15.0003 6.16382 14.6643 6.49955 14.2503 6.49972C13.8361 6.49972 13.5003 6.16393 13.5003 5.74972C13.5004 5.33558 13.8361 4.99972 14.2503 4.99972Z" fill="#48465C"/>
</svg>
