<svg width="24" height="24" viewBox="0 0 24 24" fill="none" xmlns="http://www.w3.org/2000/svg">
<path fill-rule="evenodd" clip-rule="evenodd" d="M6.99935 3.33919C8.94895 2.21359 11.1205 1.81911 13.1956 2.07064C16.2111 2.4362 19.0237 4.16632 20.6595 6.99935C22.2952 9.83249 22.3877 13.1337 21.1966 15.9281C20.3769 17.8509 18.9489 19.5339 16.9993 20.6595C12.2165 23.4208 6.10061 21.7822 3.33919 16.9993C0.578042 12.2166 2.21666 6.10062 6.99935 3.33919ZM9.75033 17.5003C9.33612 17.5003 9.00033 17.8361 9.00033 18.2503C9.00056 18.6643 9.33626 19.0003 9.75033 19.0003C10.1642 19.0001 10.5001 18.6642 10.5003 18.2503C10.5003 17.8362 10.1644 17.5005 9.75033 17.5003ZM14.2503 17.5003C13.8361 17.5003 13.5003 17.8361 13.5003 18.2503C13.5006 18.6643 13.8363 19.0003 14.2503 19.0003C14.6642 19.0001 15.0001 18.6642 15.0003 18.2503C15.0003 17.8362 14.6644 17.5005 14.2503 17.5003ZM9.75033 13.0003C9.05997 13.0003 8.50033 13.5599 8.50033 14.2503C8.50056 14.9405 9.06011 15.5003 9.75033 15.5003C10.4404 15.5001 11.0001 14.9404 11.0003 14.2503C11.0003 13.56 10.4406 13.0005 9.75033 13.0003ZM14.2503 13.0003C13.5599 13.0003 13.0003 13.5599 13.0003 14.2503C13.0006 14.9405 13.5601 15.5003 14.2503 15.5003C14.9404 15.5001 15.5001 14.9404 15.5003 14.2503C15.5003 13.56 14.9406 13.0005 14.2503 13.0003ZM5.75033 13.5003C5.33612 13.5003 5.00033 13.8361 5.00033 14.2503C5.00056 14.6643 5.33626 15.0003 5.75033 15.0003C6.16423 15.0001 6.5001 14.6642 6.50033 14.2503C6.50033 13.8362 6.16437 13.5005 5.75033 13.5003ZM18.2503 13.5003C17.8361 13.5003 17.5003 13.8361 17.5003 14.2503C17.5006 14.6643 17.8363 15.0003 18.2503 15.0003C18.6642 15.0001 19.0001 14.6642 19.0003 14.2503C19.0003 13.8362 18.6644 13.5005 18.2503 13.5003ZM9.75033 8.50033C9.05997 8.50033 8.50033 9.05997 8.50033 9.75033C8.50056 10.4405 9.06011 11.0003 9.75033 11.0003C10.4404 11.0001 11.0001 10.4404 11.0003 9.75033C11.0003 9.06008 10.4406 8.50052 9.75033 8.50033ZM14.2503 8.50033C13.5599 8.50033 13.0003 9.05997 13.0003 9.75033C13.0006 10.4405 13.5601 11.0003 14.2503 11.0003C14.9404 11.0001 15.5001 10.4404 15.5003 9.75033C15.5003 9.06008 14.9406 8.50052 14.2503 8.50033ZM5.75033 9.00033C5.33612 9.00033 5.00033 9.33612 5.00033 9.75033C5.00056 10.1643 5.33626 10.5003 5.75033 10.5003C6.16423 10.5001 6.5001 10.1642 6.50033 9.75033C6.50033 9.33623 6.16437 9.00052 5.75033 9.00033ZM18.2503 9.00033C17.8361 9.00033 17.5003 9.33612 17.5003 9.75033C17.5006 10.1643 17.8363 10.5003 18.2503 10.5003C18.6642 10.5001 19.0001 10.1642 19.0003 9.75033C19.0003 9.33623 18.6644 9.00052 18.2503 9.00033ZM9.75033 5.00033C9.33612 5.00033 9.00033 5.33612 9.00033 5.75033C9.00056 6.16434 9.33626 6.50033 9.75033 6.50033C10.1642 6.50013 10.5001 6.16422 10.5003 5.75033C10.5003 5.33623 10.1644 5.00052 9.75033 5.00033ZM14.2503 5.00033C13.8361 5.00033 13.5003 5.33612 13.5003 5.75033C13.5006 6.16434 13.8363 6.50033 14.2503 6.50033C14.6642 6.50013 15.0001 6.16422 15.0003 5.75033C15.0003 5.33623 14.6644 5.00052 14.2503 5.00033Z" fill="#48465C"/>
</svg>
