<svg width="24" height="24" viewBox="0 0 24 24" fill="none" xmlns="http://www.w3.org/2000/svg">
<path d="M14.6807 2.32178C15.0554 2.14542 15.5023 2.30641 15.6787 2.68115C15.8551 3.05594 15.6941 3.50283 15.3193 3.6792L10.3867 6.00049H14C17.7712 6.00049 19.6566 6.00079 20.8281 7.17236C21.9996 8.34394 22 10.2294 22 14.0005C22 17.7716 21.9997 19.6571 20.8281 20.8286C19.6566 22.0001 17.7711 22.0005 14 22.0005H10C6.22885 22.0005 4.34346 22.0001 3.17188 20.8286C2.00032 19.6571 2 17.7716 2 14.0005C2 10.2294 2.00037 8.34395 3.17188 7.17236C3.94592 6.39833 5.03134 6.13551 6.7666 6.04638L14.6807 2.32178ZM7.5 14.7505C6.25736 14.7505 5.25 15.7579 5.25 17.0005C5.25007 18.243 6.2574 19.2505 7.5 19.2505C8.7426 19.2505 9.74993 18.243 9.75 17.0005C9.75 15.7579 8.74264 14.7505 7.5 14.7505ZM7.5 16.2505C7.91421 16.2505 8.25 16.5863 8.25 17.0005C8.24993 17.4146 7.91417 17.7505 7.5 17.7505C7.08583 17.7505 6.75007 17.4146 6.75 17.0005C6.75 16.5863 7.08579 16.2505 7.5 16.2505ZM13 16.2505C12.5858 16.2505 12.25 16.5863 12.25 17.0005C12.2501 17.4146 12.5858 17.7505 13 17.7505H18C18.4142 17.7505 18.7499 17.4146 18.75 17.0005C18.75 16.5863 18.4142 16.2505 18 16.2505H13ZM7 8.25049C5.48122 8.25049 4.25 9.48171 4.25 11.0005C4.25007 12.5192 5.48126 13.7505 7 13.7505H17C18.5188 13.7505 19.7499 12.5192 19.75 11.0005C19.75 9.48171 18.5188 8.25049 17 8.25049H7ZM17 9.75049C17.6904 9.75049 18.25 10.3101 18.25 11.0005C18.2499 11.6908 17.6904 12.2505 17 12.2505H15.75V11.5005C15.75 11.0863 15.4142 10.7505 15 10.7505C14.5858 10.7505 14.25 11.0863 14.25 11.5005V12.2505H7C6.30968 12.2505 5.75007 11.6908 5.75 11.0005C5.75 10.3101 6.30964 9.75049 7 9.75049H17Z" fill="#48465C"/>
</svg>
