<svg width="24" height="24" viewBox="0 0 24 24" fill="none" xmlns="http://www.w3.org/2000/svg">
<path d="M19.7862 10.4668C20.0784 10.178 20.5487 10.178 20.8409 10.4668L22.5274 12.1328C22.822 12.4239 22.8244 12.8997 22.5332 13.1943C22.2421 13.4887 21.7673 13.4912 21.4727 13.2002L21.0625 12.7949C20.9931 17.7604 16.9011 21.75 11.8819 21.75C8.56337 21.7498 5.6536 20.0065 4.04106 17.3936C3.82373 17.0411 3.93279 16.5788 4.2852 16.3613C4.63769 16.1438 5.09991 16.254 5.31743 16.6064C6.66529 18.7904 9.09965 20.2498 11.8819 20.25C16.0881 20.25 19.4922 16.9171 19.5625 12.7969L19.1543 13.2002C18.8598 13.4912 18.385 13.4887 18.0938 13.1943C17.8026 12.8997 17.8051 12.4239 18.0997 12.1328L19.7862 10.4668ZM12.0791 2.25C15.3874 2.25014 18.2873 3.99459 19.8936 6.60742C20.1102 6.96012 19.9999 7.42171 19.6475 7.63867C19.2946 7.8556 18.8322 7.74544 18.6153 7.39258C17.2724 5.20847 14.8484 3.75014 12.0791 3.75C7.89475 3.75 4.50343 7.07774 4.43071 11.1982L4.8311 10.8008C5.12503 10.5092 5.59988 10.5109 5.89165 10.8047C6.18331 11.0986 6.18154 11.5735 5.88774 11.8652L4.20805 13.5322C3.91565 13.8223 3.44382 13.8223 3.15141 13.5322L1.47173 11.8652C1.17786 11.5735 1.17614 11.0986 1.46782 10.8047C1.75959 10.5111 2.23446 10.5092 2.52837 10.8008L2.93071 11.2002C3.00244 6.23962 7.07647 2.25 12.0791 2.25Z" fill="#48465C"/>
</svg>
