<svg width="24" height="24" viewBox="0 0 24 24" fill="none" xmlns="http://www.w3.org/2000/svg">
<path d="M19.7862 10.4668C20.0784 10.178 20.5488 10.178 20.8409 10.4668L22.5274 12.1328C22.7437 12.3466 22.809 12.6707 22.6934 12.9521C22.5777 13.2332 22.304 13.417 22 13.417H21.0332C20.6475 18.0893 16.6905 21.7499 11.8829 21.75C8.56412 21.75 5.65367 20.0067 4.04106 17.3936C3.82383 17.0411 3.93381 16.5788 4.28618 16.3613C4.6386 16.1442 5.1 16.2541 5.31743 16.6064C6.66534 18.7906 9.10035 20.25 11.8829 20.25C15.8758 20.2499 19.145 17.2463 19.5264 13.417H18.628C18.3239 13.417 18.0493 13.2333 17.9336 12.9521C17.8181 12.6707 17.8842 12.3466 18.1006 12.1328L19.7862 10.4668ZM12.0791 2.25C15.3874 2.25012 18.2874 3.99457 19.8936 6.60742C20.1103 6.96013 20 7.42172 19.6475 7.63867C19.2946 7.8556 18.8322 7.74544 18.6153 7.39258C17.2724 5.20847 14.8484 3.75012 12.0791 3.75C8.10514 3.75 4.8467 6.75152 4.46684 10.583H5.35942C5.6633 10.583 5.93704 10.7669 6.05278 11.0479C6.16846 11.3288 6.10328 11.6512 5.88774 11.8652L4.20805 13.5322C3.91564 13.8223 3.44382 13.8223 3.15141 13.5322L1.47172 11.8652C1.25618 11.6512 1.19101 11.3287 1.30668 11.0479C1.42242 10.7669 1.69616 10.583 2.00004 10.583H2.96C3.34436 5.91283 7.28573 2.25 12.0791 2.25Z" fill="#48465C"/>
</svg>
