<svg width="24" height="24" viewBox="0 0 24 24" fill="none" xmlns="http://www.w3.org/2000/svg">
<path fill-rule="evenodd" clip-rule="evenodd" d="M15 4.24994C19.2802 4.24994 22.75 7.71973 22.75 11.9999C22.75 16.2801 19.2802 19.7499 15 19.7499H14.8105L15.5303 20.4697C15.8231 20.7626 15.8232 21.2373 15.5303 21.5302C15.2374 21.8231 14.7626 21.8231 14.4697 21.5302L12.4697 19.5302C12.2553 19.3157 12.1906 18.993 12.3066 18.7128C12.4227 18.4325 12.6967 18.2499 13 18.2499H15C18.4518 18.2499 21.25 15.4517 21.25 11.9999C21.25 8.54816 18.4518 5.74994 15 5.74994H14.5C14.0858 5.74994 13.75 5.41412 13.75 4.99994C13.75 4.58573 14.0858 4.24994 14.5 4.24994H15ZM8.46973 2.46967C8.76262 2.17678 9.23738 2.17678 9.53027 2.46967L11.5303 4.46967C11.7447 4.68416 11.8094 5.00683 11.6934 5.28705C11.5773 5.56731 11.3033 5.74994 11 5.74994H9C5.54822 5.74994 2.75 8.54816 2.75 11.9999C2.75003 15.4515 5.54833 18.2498 9 18.2499H9.5C9.91421 18.2499 10.25 18.5857 10.25 18.9999C10.25 19.4141 9.91419 19.7499 9.5 19.7499H9C4.71998 19.7498 1.25003 16.28 1.25 11.9999C1.25 7.71973 4.71979 4.24994 9 4.24994H9.18945L8.46973 3.53021C8.17685 3.23733 8.17687 2.76256 8.46973 2.46967Z" fill="#48465C"/>
</svg>
