<svg width="24" height="24" viewBox="0 0 24 24" fill="none" xmlns="http://www.w3.org/2000/svg">
<path fill-rule="evenodd" clip-rule="evenodd" d="M18.3638 3.05664C18.778 3.05664 19.1138 3.39243 19.1138 3.80664V8.04883C19.1138 8.46304 18.778 8.79883 18.3638 8.79883H14.1217C13.7075 8.79883 13.3717 8.46304 13.3717 8.04883C13.3719 7.63483 13.7076 7.29883 14.1217 7.29883H16.482C13.6367 5.05584 9.49885 5.24716 6.87361 7.87207C4.0423 10.7034 4.0423 15.2947 6.87361 18.126C9.70489 20.9569 14.2953 20.9571 17.1265 18.126C19.0234 16.2291 19.6499 13.542 19.0035 11.1211C18.8966 10.721 19.1347 10.3101 19.5347 10.2031C19.9349 10.0962 20.3458 10.3342 20.4527 10.7344C21.2315 13.6512 20.4778 16.8958 18.1871 19.1865C14.7701 22.6033 9.23011 22.6032 5.81306 19.1865C2.39597 15.7694 2.39597 10.2286 5.81306 6.81152C9.04509 3.57983 14.1762 3.40529 17.6138 6.28711V3.80664C17.6138 3.39245 17.9496 3.05667 18.3638 3.05664Z" fill="#48465C"/>
</svg>
