<svg width="24" height="24" viewBox="0 0 24 24" fill="none" xmlns="http://www.w3.org/2000/svg">
<path fill-rule="evenodd" clip-rule="evenodd" d="M17.4401 3.6706C17.6546 3.45614 17.9772 3.39247 18.2575 3.50849C18.5377 3.62454 18.7203 3.89767 18.7204 4.20087V8.44404C18.7203 8.85817 18.3845 9.19404 17.9704 9.19404H13.7282C13.425 9.19404 13.151 9.01131 13.0349 8.73115C12.9189 8.45089 12.9835 8.12826 13.1979 7.91376L14.8005 6.31025C12.1672 5.20903 9.01623 5.73123 6.87373 7.87373C4.04242 10.705 4.04242 15.2954 6.87373 18.1267C9.70505 20.9578 14.2954 20.9579 17.1267 18.1267C18.7729 16.4805 19.4618 14.2399 19.1931 12.0935C19.1418 11.6826 19.4336 11.3081 19.8444 11.2565C20.2553 11.2052 20.6307 11.4961 20.6823 11.9069C21.0061 14.493 20.1746 17.1997 18.1872 19.1872C14.7702 22.6042 9.23028 22.6041 5.81318 19.1872C2.39609 15.7701 2.39609 10.2303 5.81318 6.81318C8.55155 4.0748 12.6519 3.53129 15.9313 5.18037L17.4401 3.6706Z" fill="#48465C"/>
</svg>
