<svg width="24" height="24" viewBox="0 0 24 24" fill="none" xmlns="http://www.w3.org/2000/svg">
<path d="M17.4403 3.6711C17.6548 3.45662 17.9774 3.39196 18.2577 3.50802C18.538 3.62411 18.7206 3.89804 18.7206 4.20138V8.44356C18.7206 8.85778 18.3848 9.19356 17.9706 9.19356H13.7284C13.4251 9.19356 13.1512 9.01092 13.0351 8.73067C12.9192 8.45051 12.9828 8.12775 13.1972 7.91329L14.8007 6.31075C12.1674 5.20937 9.01555 5.73067 6.87297 7.87325C4.04192 10.7044 4.0421 15.2949 6.87297 18.1262C9.70427 20.9575 14.2956 20.9575 17.1269 18.1262C18.7728 16.4801 19.4619 14.2401 19.1933 12.094C19.1418 11.683 19.4336 11.3076 19.8446 11.2561C20.2556 11.2048 20.6301 11.4965 20.6816 11.9074C21.0053 14.4933 20.1745 17.1993 18.1874 19.1867C14.7703 22.6038 9.2295 22.6038 5.81242 19.1867C2.39579 15.7696 2.3956 10.2297 5.81242 6.8127C8.55068 4.07443 12.6512 3.53105 15.9306 5.17989L17.4403 3.6711Z" fill="#48465C"/>
</svg>
