<svg width="24" height="24" viewBox="0 0 24 24" fill="none" xmlns="http://www.w3.org/2000/svg">
<path fill-rule="evenodd" clip-rule="evenodd" d="M18.6709 3.69149C19.6072 3.04656 20.6813 3.15104 21.4785 3.73251C22.2553 4.29926 22.75 5.28996 22.75 6.42685V17.5743C22.7499 18.711 22.2552 19.7009 21.4785 20.2677C20.6813 20.8492 19.6073 20.9547 18.6709 20.3097L18.6621 20.3038L13.75 16.71V16.877C13.75 17.9128 13.2775 18.8109 12.5459 19.3204C11.8001 19.8398 10.8012 19.9324 9.92676 19.3575L2.50977 14.4806C1.63945 13.9083 1.25 12.918 1.25 12.0001C1.25007 11.0823 1.63953 10.0928 2.50977 9.5206L9.92676 4.64364C10.8013 4.06864 11.8 4.16128 12.5459 4.68075C13.2774 5.19021 13.7499 6.08752 13.75 7.12313V7.2911L18.6621 3.69735L18.6709 3.69149ZM20.5947 4.94442C20.2684 4.70634 19.8938 4.67476 19.5303 4.92099L13.75 9.1495V14.8516L19.5303 19.0792C19.8939 19.3255 20.2684 19.2947 20.5947 19.0567C20.9438 18.8021 21.2499 18.2847 21.25 17.5743V6.42685C21.25 5.71642 20.9438 5.19912 20.5947 4.94442ZM11.6885 5.91122C11.4025 5.71215 11.0703 5.68679 10.751 5.89657L3.33301 10.7735C2.97498 11.009 2.75007 11.4688 2.75 12.0001C2.75 12.5314 2.97506 12.9911 3.33301 13.2266L10.751 18.1036C11.0705 18.3136 11.4024 18.2882 11.6885 18.089C11.989 17.8796 12.25 17.4576 12.25 16.877V7.12313C12.2499 6.54259 11.9889 6.12045 11.6885 5.91122Z" fill="#48465C"/>
</svg>
