<svg width="24" height="24" viewBox="0 0 24 24" fill="none" xmlns="http://www.w3.org/2000/svg">
<path d="M18.6709 3.6911C19.6073 3.04612 20.6813 3.15152 21.4785 3.73309C22.2552 4.29978 22.7499 5.28974 22.75 6.42645V17.5739C22.75 18.7108 22.2553 19.7015 21.4785 20.2683C20.6813 20.8497 19.6073 20.9552 18.6709 20.3102L18.6621 20.3034L13.75 16.7097V16.8776C13.75 17.9133 13.2774 18.8105 12.5459 19.32C11.8 19.8395 10.8013 19.9321 9.92676 19.3571L2.50977 14.4802C1.63949 13.9079 1.25004 12.9185 1.25 12.0007C1.25 11.0828 1.63945 10.0925 2.50977 9.5202L9.92676 4.64325C10.8013 4.06839 11.8001 4.16191 12.5459 4.68134C13.2773 5.19086 13.75 6.08809 13.75 7.12372V7.29071L18.6621 3.69696L18.6709 3.6911ZM20.5947 4.94501C20.2684 4.70688 19.8938 4.67521 19.5303 4.92157L13.75 9.14911V14.8513L19.5303 19.0798C19.8939 19.326 20.2684 19.2944 20.5947 19.0563C20.9438 18.8016 21.25 18.2843 21.25 17.5739V6.42645C21.2499 5.71636 20.9436 5.19971 20.5947 4.94501ZM11.6885 5.9118C11.4024 5.71258 11.0704 5.6872 10.751 5.89716L3.33301 10.7741C2.97503 11.0097 2.75 11.4693 2.75 12.0007C2.75004 12.532 2.97499 12.9917 3.33301 13.2272L10.751 18.1042C11.0704 18.314 11.4025 18.2886 11.6885 18.0895C11.989 17.8803 12.25 17.4582 12.25 16.8776V7.12372C12.25 6.54305 11.989 6.12106 11.6885 5.9118Z" fill="#48465C"/>
</svg>
