<svg width="24" height="24" viewBox="0 0 24 24" fill="none" xmlns="http://www.w3.org/2000/svg">
<path fill-rule="evenodd" clip-rule="evenodd" d="M2.52148 3.73247C3.26869 3.18745 4.2591 3.06074 5.15137 3.57818L5.32812 3.69048L5.33691 3.69634L5.3457 3.70318L10.25 7.29009V7.1231C10.25 6.08745 10.7226 5.19021 11.4541 4.68072C12.2 4.16129 13.1988 4.06875 14.0732 4.64361L21.4902 9.52056C22.3605 10.0928 22.75 11.0822 22.75 12.0001C22.75 12.9179 22.3605 13.9073 21.4902 14.4795L14.0732 19.3565C13.1988 19.9314 12.2 19.8388 11.4541 19.3194C10.7226 18.8099 10.25 17.9126 10.25 16.877V16.709L5.3457 20.2969L5.33691 20.3028L5.32812 20.3096C4.39196 20.9541 3.31849 20.849 2.52148 20.2676C1.74473 19.7009 1.25 18.7101 1.25 17.5733V6.42681C1.25002 5.29001 1.74472 4.29923 2.52148 3.73247ZM4.46875 4.92095C4.10536 4.67519 3.73144 4.70644 3.40527 4.94439C3.05628 5.1991 2.75002 5.71649 2.75 6.42681V17.5733C2.75 18.2836 3.0563 18.801 3.40527 19.0557C3.73158 19.2938 4.10518 19.3243 4.46875 19.0782L10.25 14.8497V9.14947L4.46875 4.92095ZM13.249 5.89654C12.9298 5.68674 12.5976 5.71213 12.3115 5.91119C12.0111 6.12047 11.75 6.54256 11.75 7.1231V16.877C11.75 17.4575 12.0111 17.8796 12.3115 18.0889C12.5976 18.288 12.9298 18.3134 13.249 18.1036L20.666 13.2266C21.0242 12.9911 21.25 12.5315 21.25 12.0001C21.25 11.4686 21.0242 11.009 20.666 10.7735L13.249 5.89654Z" fill="#48465C"/>
</svg>
