<svg width="24" height="24" viewBox="0 0 24 24" fill="none" xmlns="http://www.w3.org/2000/svg">
<path d="M18.0253 14.9277C18.5601 15.7691 18.8417 16.2843 18.9227 16.8291C19.011 17.4235 18.9323 18.0398 18.6942 18.6104C18.4241 19.2574 17.079 20.5989 15.9588 21.7158L15.8749 21.7998C15.5276 22.1461 14.9291 22.0266 14.7489 21.5752C14.5277 21.0204 14.4167 20.7421 14.2743 20.4824C14.1479 20.2519 14.0028 20.0321 13.8407 19.8252C13.7176 19.6683 13.5816 19.5213 13.3768 19.3135C13.6637 19.1379 13.9235 18.9327 14.161 18.7275C14.5573 18.3853 14.9956 17.9481 15.4735 17.4717L18.0253 14.9277ZM18.1161 2C19.9469 2 20.8628 2.00028 21.4315 2.56738C22.0001 3.13456 21.9999 4.04772 21.9999 5.87305V6.44043C21.9999 7.62735 22 8.22118 21.7782 8.75488C21.5565 9.28852 21.1357 9.70855 20.2938 10.5479L14.4471 16.377C13.4384 17.3827 12.8219 17.9965 12.2186 18.2188C12.0476 18.2817 11.8777 18.3135 11.7001 18.3135C10.8956 18.3135 10.2478 17.668 8.95299 16.377L8.81627 16.2402L10.8612 14.165C11.1516 13.87 11.1481 13.3951 10.8534 13.1045C10.5584 12.8139 10.0836 12.8174 9.79283 13.1123L7.75377 15.1816L7.57994 15.0078C6.28531 13.7171 5.63774 13.0715 5.63756 12.2695C5.63756 12.077 5.67523 11.8926 5.74987 11.707C5.98624 11.1197 6.59641 10.5118 7.57994 9.53125L13.4266 3.70117C14.2686 2.86172 14.6901 2.4418 15.2255 2.2207C15.7607 1.99977 16.3562 2 17.5467 2H18.1161ZM5.33971 5.29688C5.91209 5.05943 6.53048 4.98023 7.12682 5.06836C7.67315 5.14916 8.19006 5.42969 9.03404 5.96289L6.49108 8.49902C6.02372 8.96497 5.59431 9.39193 5.25572 9.77832C5.03829 10.0264 4.82162 10.2986 4.63756 10.5986L4.61217 10.5742C4.56515 10.5273 4.54203 10.5034 4.51842 10.4805C4.07639 10.0516 3.55624 9.71046 2.98619 9.47559C2.95581 9.46307 2.92478 9.45117 2.86315 9.42676L2.48424 9.27637C1.97144 9.07302 1.83518 8.41253 2.22545 8.02344C3.3456 6.90668 4.69067 5.56617 5.33971 5.29688ZM17.1932 6.79297C16.4348 6.03678 15.2056 6.03684 14.4471 6.79297C13.6886 7.54918 13.6886 8.77505 14.4471 9.53125C15.2056 10.2872 16.4348 10.2872 17.1932 9.53125C17.9517 8.77505 17.9517 7.54918 17.1932 6.79297Z" fill="#48465C"/>
</svg>
