<svg width="24" height="24" viewBox="0 0 24 24" fill="none" xmlns="http://www.w3.org/2000/svg">
<path d="M18.167 1.24986C19.0385 1.24983 19.7678 1.25039 20.3467 1.32798C20.9582 1.41 21.5139 1.59033 21.9609 2.03599C22.4083 2.48204 22.5895 3.03744 22.6719 3.6483C22.7497 4.22585 22.75 4.95275 22.75 5.82115V6.58091C22.7506 7.63096 22.7509 8.3686 22.4707 9.04283C22.1906 9.71661 21.6678 10.2373 20.9228 10.9794C20.8899 11.012 20.857 11.0454 20.8232 11.079L18.1533 13.7401L18.2461 13.8846C18.6397 14.4925 18.9593 14.9844 19.1894 15.409C19.4279 15.8489 19.5971 16.2621 19.665 16.7186C19.7741 17.4523 19.675 18.2064 19.3857 18.8993C19.2784 19.1563 19.0936 19.4262 18.9033 19.6717C18.7038 19.9289 18.4591 20.2087 18.1972 20.494C17.6761 21.062 17.0504 21.6864 16.4951 22.2401L16.4043 22.3309C15.6844 23.0485 14.4367 22.8154 14.0527 21.8524C13.8251 21.2813 13.7325 21.0539 13.6172 20.8436C13.5104 20.6489 13.388 20.4629 13.251 20.2879C13.1049 20.1016 12.9339 19.9286 12.5107 19.5067L12.0058 19.0643C11.9987 19.0581 11.9913 19.0512 11.9844 19.0448C11.8911 19.0568 11.7965 19.0633 11.7002 19.0633C11.0688 19.0633 10.5476 18.8001 10.0566 18.4266C9.59208 18.0733 9.07612 17.5586 8.45994 16.9442L7.01365 15.5028C6.3975 14.8885 5.88179 14.3743 5.52732 13.911C5.15273 13.4216 4.88771 12.901 4.88767 12.2694C4.88767 12.1548 4.89598 12.0424 4.91306 11.9325L4.08298 11.1044C4.03468 11.0562 4.01519 11.0369 3.99607 11.0184C3.62252 10.6559 3.18314 10.3674 2.70115 10.1688C2.67646 10.1586 2.65052 10.1481 2.58689 10.1229L2.20798 9.97349C1.19463 9.57183 0.921709 8.26347 1.69529 7.49205L1.7031 7.48521C2.25841 6.93158 2.88358 6.3075 3.4531 5.78794C3.73925 5.5269 4.02043 5.28358 4.2783 5.08482C4.52454 4.89502 4.79455 4.71012 5.05173 4.60337C5.74595 4.31534 6.50163 4.21746 7.2363 4.32603C7.69319 4.39355 8.10672 4.56197 8.54783 4.79966C8.97359 5.02911 9.46744 5.34673 10.0771 5.73912L10.2246 5.83482L12.8974 3.17076C12.9311 3.13719 12.9642 3.10386 12.997 3.07115C13.7417 2.32799 14.2633 1.80713 14.9385 1.52818C15.6137 1.24935 16.3523 1.24934 17.4062 1.24986H18.167ZM14.959 16.9256C14.4691 17.414 14.0467 17.8345 13.6709 18.159C13.5992 18.221 13.5275 18.2817 13.4551 18.3397L13.5351 18.41L13.5869 18.4618C13.9775 18.8512 14.2202 19.0924 14.4316 19.3622C14.6191 19.6013 14.7865 19.8555 14.9326 20.1219C15.0923 20.413 15.2161 20.7205 15.4092 21.2049L15.4287 21.1844C15.9916 20.6231 16.5962 20.0214 17.0928 19.4803C17.3409 19.21 17.554 18.963 17.7178 18.7518C17.89 18.5295 17.9741 18.3888 18.0019 18.3221C18.1892 17.8737 18.2492 17.3947 18.1816 16.9393C18.1492 16.7216 18.0641 16.4817 17.8701 16.1239C17.6869 15.7859 17.4297 15.383 17.0674 14.8231L14.959 16.9256ZM17.5469 2.74986C16.2954 2.74986 15.8775 2.76296 15.5117 2.91392C15.146 3.06493 14.8412 3.34974 13.956 4.23228L8.10935 10.0624C7.61109 10.5591 7.23282 10.9358 6.94822 11.2606C6.66228 11.5868 6.51628 11.8107 6.44529 11.9872C6.4039 12.0901 6.38767 12.1793 6.38767 12.2694C6.3877 12.4398 6.44627 12.6428 6.71873 12.9989C7.00463 13.3726 7.44699 13.816 8.10935 14.4764L8.26658 14.6336L9.79685 13.1073C10.0902 12.8149 10.565 12.8159 10.8574 13.1092C11.1498 13.4026 11.1497 13.8773 10.8564 14.1698L9.32908 15.6922L9.4824 15.8456C10.1448 16.506 10.59 16.9472 10.9648 17.2323C11.3222 17.504 11.5271 17.5633 11.7002 17.5633C11.7849 17.5633 11.8676 17.5495 11.9599 17.5155C12.1353 17.4509 12.3588 17.3107 12.6904 17.0243C13.021 16.7389 13.4057 16.3554 13.917 15.8456L19.7636 10.0165C20.6491 9.1336 20.9348 8.83042 21.0859 8.46666C21.2369 8.10324 21.25 7.68831 21.25 6.44029V5.87291C21.25 4.93893 21.2483 4.31401 21.1855 3.84849C21.1257 3.40477 21.0228 3.21958 20.9013 3.09849C20.7796 2.97715 20.5933 2.87411 20.1474 2.81431C19.6799 2.75164 19.0519 2.74986 18.1152 2.74986H17.5469ZM13.917 6.26158C14.9682 5.21354 16.6714 5.21354 17.7226 6.26158C18.775 7.31086 18.775 9.01309 17.7226 10.0624C16.6715 11.11 14.9681 11.1101 13.917 10.0624C12.8646 9.01314 12.8648 7.31088 13.917 6.26158ZM7.01658 5.80943C6.55859 5.74184 6.07744 5.8022 5.62693 5.98912C5.55961 6.01705 5.41774 6.10109 5.19431 6.2733C4.98255 6.43652 4.73588 6.64907 4.46482 6.89634C3.92208 7.39145 3.31792 7.99319 2.75486 8.55455C2.75168 8.55772 2.75007 8.55928 2.74998 8.55943C2.74983 8.55999 2.75006 8.56291 2.75095 8.56724C2.75189 8.57178 2.75342 8.57448 2.75388 8.57505C2.75461 8.57558 2.75686 8.57743 2.76072 8.57896L3.27244 8.78209C3.93025 9.05316 4.53068 9.44709 5.04099 9.94224C5.06819 9.96864 5.0954 9.99585 5.13865 10.0389L5.61619 10.5145C5.68152 10.4333 5.74986 10.3527 5.82029 10.2723C6.14205 9.90512 6.55563 9.49257 7.03416 9.01548L9.13767 6.9188C8.57767 6.55869 8.17438 6.30236 7.83591 6.11998C7.47693 5.92655 7.23596 5.84184 7.01658 5.80943ZM16.664 7.3231C16.1985 6.8589 15.4424 6.85913 14.9765 7.3231C14.512 7.78623 14.512 8.53673 14.9765 8.99986C15.4424 9.46396 16.1984 9.46414 16.664 8.99986C17.1286 8.53672 17.1286 7.78621 16.664 7.3231Z" fill="#48465C"/>
</svg>
