<svg width="24" height="24" viewBox="0 0 24 24" fill="none" xmlns="http://www.w3.org/2000/svg">
<path fill-rule="evenodd" clip-rule="evenodd" d="M18.1676 1.24992C19.0389 1.24989 19.7674 1.25047 20.3463 1.32804C20.9579 1.41003 21.5135 1.5904 21.9605 2.03605C22.4078 2.482 22.59 3.03668 22.6724 3.64738C22.7503 4.225 22.7496 4.95261 22.7496 5.82121V6.58097C22.7502 7.63074 22.7512 8.36783 22.4713 9.04191C22.1913 9.71591 21.6685 10.2372 20.9234 10.9794C20.8904 11.0122 20.8567 11.0453 20.8228 11.079L18.1529 13.7402L18.2467 13.8847C18.6401 14.4923 18.9589 14.9846 19.189 15.4091C19.4275 15.849 19.5967 16.2622 19.6646 16.7187C19.7737 17.4523 19.6755 18.2065 19.3863 18.8993C19.279 19.1563 19.0932 19.4263 18.9029 19.6718C18.7035 19.9289 18.4596 20.2089 18.1978 20.4941C17.6766 21.0621 17.0511 21.6865 16.4957 22.2402L16.4039 22.33C15.684 23.0478 14.4363 22.8156 14.0523 21.8525C13.8249 21.2817 13.733 21.0539 13.6178 20.8437C13.5109 20.6489 13.3877 20.463 13.2506 20.288C13.1045 20.1016 12.9336 19.9288 12.5103 19.5068L12.0055 19.0644C11.9984 19.0582 11.9918 19.0512 11.9849 19.0448C11.8915 19.0569 11.7963 19.0634 11.6998 19.0634C11.0684 19.0633 10.5473 18.7993 10.0562 18.4257C9.59177 18.0724 9.07657 17.5585 8.46053 16.9443L7.01327 15.5028C6.3972 14.8886 5.88238 14.3743 5.52791 13.9111C5.15329 13.4216 4.88734 12.9011 4.88729 12.2695C4.88729 12.1549 4.89657 12.0425 4.91366 11.9325L4.08358 11.1044C4.03537 11.0563 4.01572 11.0369 3.99666 11.0185C3.62301 10.6559 3.18291 10.3675 2.70077 10.1689C2.67608 10.1587 2.65014 10.1482 2.58651 10.123L2.20858 9.97355C1.19503 9.57194 0.922096 8.26356 1.69588 7.49211L1.70272 7.48527C2.25815 6.93152 2.88405 6.30766 3.45369 5.78801C3.73991 5.5269 4.02097 5.28367 4.27889 5.08488C4.52516 4.89507 4.79513 4.71015 5.05233 4.60344C5.74635 4.31553 6.50146 4.21763 7.23592 4.32609C7.69278 4.39361 8.10637 4.56206 8.54744 4.79972C8.97332 5.02921 9.4678 5.34664 10.0777 5.73918L10.2252 5.83488L12.8971 3.17082C12.9307 3.13732 12.9639 3.10385 12.9967 3.07121C13.7415 2.3279 14.2636 1.80715 14.939 1.52824C15.6142 1.24943 16.352 1.2494 17.4058 1.24992H18.1676ZM14.9586 16.9257C14.4687 17.4141 14.0464 17.8345 13.6705 18.1591C13.5988 18.2211 13.5271 18.2818 13.4547 18.3398L13.5357 18.4101L13.5875 18.4618C13.9779 18.8511 14.2199 19.0925 14.4312 19.3622C14.6187 19.6014 14.7861 19.8556 14.9322 20.122C15.0919 20.4131 15.2157 20.7206 15.4088 21.205L15.4293 21.1845C15.9923 20.6231 16.5958 20.0205 17.0924 19.4794C17.3404 19.2092 17.5536 18.963 17.7174 18.7519C17.8896 18.5296 17.9737 18.389 18.0015 18.3222C18.1888 17.8738 18.2489 17.3948 18.1812 16.9394C18.1488 16.7217 18.0647 16.4817 17.8707 16.1239C17.6875 15.7859 17.4294 15.3833 17.067 14.8232L14.9586 16.9257ZM17.5465 2.74992C16.2948 2.74992 15.8772 2.7629 15.5113 2.91398C15.1457 3.06497 14.8416 3.35001 13.9566 4.23234L8.10897 10.0624C7.61095 10.5589 7.23335 10.936 6.94881 11.2607C6.66296 11.5868 6.5169 11.8108 6.44588 11.9872C6.40449 12.0901 6.38729 12.1794 6.38729 12.2695C6.38733 12.4398 6.44602 12.643 6.71834 12.9989C7.00422 13.3726 7.44671 13.8162 8.10897 14.4765L8.26619 14.6337L9.79745 13.1073C10.0908 12.8152 10.5657 12.8161 10.858 13.1093C11.1502 13.4027 11.1493 13.8774 10.856 14.1698L9.3287 15.6923L9.48299 15.8456C10.1454 16.506 10.5896 16.9472 10.9644 17.2323C11.3218 17.5041 11.5267 17.5634 11.6998 17.5634C11.7845 17.5634 11.8673 17.5495 11.9596 17.5155C12.1349 17.451 12.3584 17.3107 12.69 17.0243C13.0206 16.739 13.4053 16.3554 13.9166 15.8456L19.7642 10.0165C20.6496 9.13378 20.9344 8.83045 21.0855 8.46672C21.2366 8.10326 21.2496 7.68855 21.2496 6.44035V5.87297C21.2496 4.93907 21.2489 4.31406 21.1861 3.84855C21.1264 3.40513 21.0233 3.21965 20.9019 3.09855C20.7801 2.97715 20.5932 2.87417 20.1471 2.81437C19.6796 2.75172 19.0524 2.74992 18.1158 2.74992H17.5465ZM13.9166 6.26164C14.9678 5.2136 16.672 5.2136 17.7232 6.26164C18.7752 7.31095 18.7755 9.01326 17.7232 10.0624C16.672 11.1104 14.9678 11.1104 13.9166 10.0624C12.8643 9.01327 12.8646 7.31095 13.9166 6.26164ZM7.01717 5.80949C6.55903 5.74178 6.07722 5.80219 5.62655 5.98918C5.55908 6.01726 5.41696 6.10145 5.19393 6.27336C4.98222 6.43657 4.7354 6.64922 4.46444 6.8964C3.92175 7.39148 3.31747 7.99331 2.75448 8.55461C2.7517 8.55741 2.75078 8.55914 2.75057 8.55949C2.75047 8.55984 2.74964 8.56278 2.75057 8.5673C2.75151 8.57184 2.75304 8.57455 2.7535 8.57512C2.75378 8.57531 2.75686 8.57726 2.76131 8.57902L3.14412 8.73039C3.20116 8.75299 3.23685 8.76765 3.27205 8.78215C3.93 9.05323 4.53021 9.44706 5.04061 9.9423C5.06781 9.9687 5.09508 9.99499 5.13827 10.038L5.6158 10.5146C5.68116 10.4333 5.74946 10.3528 5.81991 10.2724C6.14168 9.90516 6.55521 9.49267 7.03377 9.01554L9.13729 6.91887C8.57753 6.55891 8.17488 6.30239 7.83651 6.12004C7.47747 5.92657 7.23656 5.84192 7.01717 5.80949ZM16.6637 7.32316C16.198 6.85907 15.4419 6.85903 14.9762 7.32316C14.5117 7.78629 14.5117 8.53679 14.9762 8.99992C15.4419 9.46414 16.198 9.4641 16.6637 8.99992C17.1283 8.53679 17.1283 7.78629 16.6637 7.32316Z" fill="#48465C"/>
</svg>
