<svg width="24" height="24" viewBox="0 0 24 24" fill="none" xmlns="http://www.w3.org/2000/svg">
<path d="M17.3094 2.35837C18.3615 1.03415 20.3127 0.872587 21.5682 2.00583C21.6242 2.05637 21.6862 2.11801 21.7694 2.20114L21.7997 2.23142C21.8825 2.31427 21.9446 2.37573 21.995 2.43161C23.1281 3.68698 22.9663 5.63825 21.6424 6.6904C21.5833 6.73735 21.5117 6.78898 21.4159 6.85739L19.3065 8.36423C19.6898 8.88627 19.9442 9.42976 19.9442 10.0722C19.9442 10.7539 19.6594 11.3201 19.245 11.8633C18.8507 12.38 18.2752 12.9551 17.5799 13.6504L13.6503 17.5801C12.955 18.2754 12.3797 18.8509 11.8631 19.2451C11.3199 19.6595 10.7538 19.9443 10.0721 19.9443C9.42966 19.9443 8.88616 19.6899 8.36412 19.3066L6.85729 21.416C6.78888 21.5118 6.73726 21.5835 6.6903 21.6426C5.63814 22.9664 3.68689 23.1282 2.43151 21.9951C2.37563 21.9447 2.31417 21.8826 2.23131 21.7998L2.20104 21.7695C2.1179 21.6863 2.05625 21.6243 2.00573 21.5683C0.87248 20.3128 1.03404 18.3616 2.35826 17.3095C2.41728 17.2627 2.48834 17.2117 2.58385 17.1435L4.69323 15.6367C4.30986 15.1146 4.05651 14.5703 4.05651 13.9277C4.0566 13.2463 4.34142 12.6807 4.75573 12.1377C5.14989 11.6211 5.72455 11.0458 6.41979 10.3506L10.3505 6.41989C11.0457 5.72464 11.6209 5.15 12.1376 4.75583C12.6806 4.34151 13.2462 4.05671 13.9276 4.05661C14.5702 4.05661 15.1145 4.30996 15.6366 4.69333L17.1434 2.58396C17.2116 2.48845 17.2626 2.41737 17.3094 2.35837ZM3.47252 18.3515C3.35219 18.4375 3.31562 18.4647 3.29088 18.4843C2.64456 18.9981 2.56577 19.9505 3.11901 20.5634C3.14019 20.5869 3.17177 20.6192 3.27623 20.7236C3.38088 20.8283 3.41293 20.8606 3.43639 20.8818C4.04939 21.4351 5.00278 21.3555 5.51647 20.709C5.53612 20.6842 5.56254 20.6474 5.6483 20.5273L7.23131 18.3105C6.99497 18.0808 6.74116 17.8272 6.46764 17.5537L6.44616 17.5322C6.17252 17.2585 5.91914 17.0049 5.68932 16.7685L3.47252 18.3515ZM13.9276 5.55661C13.7059 5.5567 13.4563 5.63575 13.0467 5.94821C12.6199 6.274 12.1156 6.77584 11.3739 7.51755L7.51744 11.374C6.77574 12.1158 6.27389 12.62 5.94811 13.0468C5.63564 13.4564 5.55659 13.706 5.55651 13.9277C5.55651 14.2284 5.70078 14.5689 6.34069 15.2734C6.64739 15.6112 7.03341 15.9984 7.51744 16.4824C8.00151 16.9664 8.38872 17.3524 8.72643 17.6592C9.43114 18.2992 9.77145 18.4443 10.0721 18.4443C10.2939 18.4443 10.5434 18.3651 10.953 18.0527C11.3801 17.7269 11.8848 17.2244 12.6268 16.4824L16.4823 12.6269C17.2243 11.8849 17.7268 11.3802 18.0526 10.9531C18.365 10.5435 18.4442 10.294 18.4442 10.0722C18.4442 9.77155 18.2991 9.43125 17.659 8.72654C17.3523 8.38882 16.9663 8.00161 16.4823 7.51755C15.9983 7.03352 15.6111 6.6475 15.2733 6.34079C14.5688 5.70089 14.2283 5.55661 13.9276 5.55661ZM20.5633 3.11911C19.9504 2.56588 18.998 2.64467 18.4842 3.29099C18.4645 3.31573 18.4374 3.35229 18.3514 3.47263L16.7684 5.68943C17.0048 5.91925 17.2584 6.17263 17.5321 6.44626L17.5536 6.46775C17.8271 6.74127 18.0807 6.99508 18.3104 7.23142L20.5272 5.64841C20.6473 5.56264 20.6841 5.53623 20.7089 5.51657C21.3554 5.00288 21.435 4.0495 20.8817 3.4365C20.8605 3.41304 20.8282 3.38098 20.7235 3.27634C20.6191 3.17188 20.5868 3.1403 20.5633 3.11911Z" fill="#48465C"/>
</svg>
