<svg width="24" height="24" viewBox="0 0 24 24" fill="none" xmlns="http://www.w3.org/2000/svg">
<path d="M4.67521 16.7866C5.02112 17.1674 5.4434 17.5899 5.90666 18.0532L5.94767 18.0942C6.41064 18.5572 6.83266 18.9789 7.2133 19.3247C7.2566 19.3641 7.30079 19.4036 7.34514 19.4429L6.2592 20.9634C6.17881 21.076 6.13862 21.1327 6.10392 21.1763C5.32102 22.1616 3.86822 22.2812 2.934 21.438C2.89273 21.4007 2.84378 21.3517 2.7465 21.2544C2.64871 21.1566 2.5993 21.1073 2.56193 21.0659C1.71896 20.1316 1.83937 18.6798 2.82463 17.897C2.86828 17.8624 2.92511 17.8219 3.03752 17.7417L4.55705 16.6557C4.59621 16.7 4.636 16.7434 4.67521 16.7866ZM13.9281 4.80711C14.5334 4.80713 15.0594 5.13316 15.7778 5.78563C16.1318 6.10712 16.5332 6.50792 17.0131 6.98777C17.4929 7.46763 17.8938 7.86818 18.2153 8.22215C18.868 8.94081 19.1938 9.46739 19.1938 10.0727C19.1937 10.9761 18.4672 11.7036 17.0131 13.1577L13.1567 17.0132C11.7028 18.467 10.9759 19.1937 10.0727 19.1938C9.46733 19.1938 8.94074 18.868 8.22209 18.2153C7.86812 17.8938 7.46757 17.493 6.98771 17.0132C6.50791 16.5333 6.10704 16.1328 5.78557 15.7788C5.13283 15.0602 4.80705 14.5336 4.80705 13.9282C4.80715 13.0249 5.53387 12.2981 6.98771 10.8442L10.8432 6.98777C12.2973 5.53367 13.0247 4.80711 13.9281 4.80711ZM17.8969 2.82469C18.6797 1.83943 20.1315 1.71902 21.0658 2.56199C21.1072 2.59936 21.1565 2.64877 21.2543 2.74656C21.3515 2.84381 21.4007 2.89279 21.4379 2.93406C22.2812 3.86828 22.1615 5.32108 21.1762 6.10399C21.1326 6.13869 21.0759 6.17887 20.9633 6.25926L19.4428 7.3452C19.4035 7.30085 19.364 7.25666 19.3246 7.21336C18.9789 6.83272 18.5572 6.41071 18.0942 5.94774L18.0531 5.90672C17.5899 5.44346 17.1673 5.02118 16.7865 4.67527C16.7433 4.63606 16.7 4.59627 16.6557 4.55711L17.7416 3.03758C17.8218 2.92517 17.8623 2.86834 17.8969 2.82469Z" fill="#48465C"/>
</svg>
