<svg width="24" height="24" viewBox="0 0 24 24" fill="none" xmlns="http://www.w3.org/2000/svg">
<path d="M13.3852 1.36399C15.1092 1.19813 16.7637 1.23547 18.1255 1.33958C20.5744 1.52681 22.4733 3.42588 22.6606 5.87474C22.7647 7.23663 22.8031 8.89086 22.6372 10.615C22.3528 13.5711 21.4581 16.8418 19.1499 19.1501C16.8416 21.4583 13.5708 22.353 10.6147 22.6374C8.89062 22.8033 7.23638 22.765 5.87449 22.6609C3.42564 22.4736 1.52656 20.5746 1.33933 18.1257C1.23522 16.7639 1.19789 15.1095 1.36375 13.3855C1.64818 10.4295 2.54194 7.15847 4.85008 4.85032C7.15823 2.54218 10.4292 1.64843 13.3852 1.36399ZM2.75828 15.1667C2.73222 16.1883 2.77009 17.1567 2.83543 18.0115C2.96623 19.722 4.27814 21.0349 5.98875 21.1658C6.84359 21.2311 7.81183 21.268 8.83348 21.2419L2.75828 15.1667ZM13.1802 2.89329C10.4835 3.19824 7.78021 4.04323 5.9116 5.91184C4.04299 7.78045 3.198 10.4837 2.89305 13.1804L10.8208 21.1072C13.5174 20.8022 16.2208 19.9581 18.0893 18.0896C19.9579 16.221 20.802 13.5176 21.1069 10.821L13.1802 2.89329ZM14.7798 8.16087C15.0726 7.86798 15.5474 7.86798 15.8403 8.16087C16.1331 8.45377 16.1332 8.92857 15.8403 9.22141L14.9526 10.1091L15.8403 10.9978C16.1331 11.2907 16.1332 11.7655 15.8403 12.0583C15.5475 12.351 15.0725 12.351 14.7798 12.0583L13.8921 11.1697L13.061 12.0007L13.9487 12.8884C14.2416 13.1813 14.2416 13.6561 13.9487 13.949C13.6558 14.2419 13.1811 14.2419 12.8882 13.949L12.0005 13.0613L11.1694 13.8923L12.0581 14.78C12.3508 15.0728 12.3508 15.5477 12.0581 15.8406C11.7652 16.1334 11.2904 16.1333 10.9975 15.8406L10.1089 14.9529L9.22117 15.8406C8.92833 16.1334 8.45353 16.1333 8.16062 15.8406C7.86773 15.5477 7.86773 15.0728 8.16062 14.78L9.04832 13.8923L8.16062 13.0036C7.86773 12.7108 7.86773 12.236 8.16062 11.9431C8.45352 11.6503 8.92833 11.6502 9.22117 11.9431L10.1089 12.8308L10.9399 12.0007L10.0512 11.112C9.75875 10.8191 9.75852 10.3443 10.0512 10.0515C10.344 9.75876 10.8189 9.759 11.1118 10.0515L12.0005 10.9402L12.8305 10.1091L11.9429 9.22141C11.65 8.92857 11.6501 8.45377 11.9429 8.16087C12.2358 7.86798 12.7106 7.86798 13.0034 8.16087L13.8921 9.04856L14.7798 8.16087ZM15.1665 2.75852L21.2417 8.83372C21.2678 7.81207 21.2309 6.84382 21.1655 5.98899C21.0347 4.27838 19.7218 2.96646 18.0112 2.83567C17.1564 2.77033 16.188 2.73247 15.1665 2.75852Z" fill="#48465C"/>
</svg>
