<svg width="24" height="24" viewBox="0 0 24 24" fill="none" xmlns="http://www.w3.org/2000/svg">
<path fill-rule="evenodd" clip-rule="evenodd" d="M13.3852 1.3635C15.1092 1.19764 16.7637 1.23498 18.1255 1.33909C20.5744 1.52632 22.4733 3.42539 22.6606 5.87425C22.7647 7.23614 22.8031 8.89037 22.6372 10.6145C22.3528 13.5706 21.4581 16.8413 19.1499 19.1496C16.8416 21.4578 13.5708 22.3525 10.6147 22.6369C8.89062 22.8028 7.23638 22.7645 5.87449 22.6604C3.42564 22.4731 1.52656 20.5741 1.33933 18.1252C1.23522 16.7634 1.19789 15.109 1.36375 13.385C1.64818 10.429 2.54194 7.15798 4.85008 4.84983C7.15823 2.54169 10.4292 1.64794 13.3852 1.3635ZM2.75828 15.1662C2.73222 16.1878 2.77009 17.1562 2.83543 18.011C2.96623 19.7215 4.27814 21.0344 5.98875 21.1653C6.84359 21.2307 7.81183 21.2675 8.83348 21.2414L2.75828 15.1662ZM13.1802 2.8928C10.4835 3.19775 7.78021 4.04275 5.9116 5.91136C4.04299 7.77997 3.198 10.4832 2.89305 13.1799L10.8208 21.1067C13.5174 20.8017 16.2208 19.9576 18.0893 18.0891C19.9579 16.2206 20.802 13.5171 21.1069 10.8205L13.1802 2.8928ZM14.7798 8.16038C15.0726 7.86749 15.5474 7.86749 15.8403 8.16038C16.1331 8.45328 16.1332 8.92808 15.8403 9.22093L14.9526 10.1086L15.8403 10.9973C16.1331 11.2902 16.1332 11.765 15.8403 12.0578C15.5475 12.3506 15.0725 12.3505 14.7798 12.0578L13.8921 11.1692L13.061 12.0002L13.9487 12.8879C14.2416 13.1808 14.2416 13.6556 13.9487 13.9485C13.6558 14.2414 13.1811 14.2414 12.8882 13.9485L12.0005 13.0608L11.1694 13.8918L12.0581 14.7795C12.3508 15.0723 12.3508 15.5472 12.0581 15.8401C11.7652 16.1329 11.2905 16.1328 10.9975 15.8401L10.1089 14.9524L9.22117 15.8401C8.92833 16.1329 8.45353 16.1328 8.16062 15.8401C7.86773 15.5472 7.86773 15.0723 8.16062 14.7795L9.04832 13.8918L8.16062 13.0032C7.86773 12.7104 7.86773 12.2355 8.16062 11.9426C8.45352 11.6498 8.92833 11.6498 9.22117 11.9426L10.1089 12.8303L10.9399 12.0002L10.0512 11.1116C9.75875 10.8186 9.75852 10.3438 10.0512 10.051C10.344 9.75827 10.8189 9.75851 11.1118 10.051L12.0005 10.9397L12.8305 10.1086L11.9429 9.22093C11.65 8.92808 11.6501 8.45328 11.9429 8.16038C12.2358 7.86749 12.7106 7.86749 13.0034 8.16038L13.8921 9.04807L14.7798 8.16038ZM15.1665 2.75804L21.2417 8.83323C21.2678 7.81159 21.2309 6.84333 21.1655 5.9885C21.0347 4.27789 19.7218 2.96597 18.0112 2.83518C17.1564 2.76984 16.188 2.73198 15.1665 2.75804Z" fill="#48465C"/>
</svg>
