<svg width="24" height="24" viewBox="0 0 24 24" fill="none" xmlns="http://www.w3.org/2000/svg">
<path fill-rule="evenodd" clip-rule="evenodd" d="M9.55631 21.964C8.24427 22.0342 6.99849 21.9948 5.93131 21.9132C3.85164 21.7542 2.24667 20.1491 2.08756 18.0695C2.00597 17.0023 1.96564 15.7566 2.03581 14.4445L9.55631 21.964ZM21.778 11.4914C21.4097 14.0838 20.5165 16.7234 18.6198 18.6203C16.7232 20.5169 14.0832 21.4101 11.4909 21.7785L2.22233 12.5089C2.59084 9.91681 3.48405 7.2775 5.38053 5.38101C7.27733 3.4843 9.91701 2.59119 12.5094 2.22281L21.778 11.4914ZM15.8405 8.16128C15.5476 7.86839 15.0718 7.86839 14.779 8.16128L13.8913 9.04898L13.0036 8.16128C12.7108 7.86839 12.235 7.86839 11.9421 8.16128C11.6496 8.45419 11.6494 8.92909 11.9421 9.22183L12.8307 10.1095L11.9997 10.9406L11.112 10.0519C10.8191 9.75913 10.3443 9.75922 10.0514 10.0519C9.75859 10.3448 9.7586 10.8196 10.0514 11.1125L10.9391 12.0011L10.109 12.8312L9.22038 11.9435C8.92748 11.6507 8.4527 11.6506 8.15983 11.9435C7.86714 12.2364 7.86702 12.7113 8.15983 13.0041L9.0485 13.8918L8.15983 14.7804C7.86715 15.0732 7.86702 15.5481 8.15983 15.841C8.45264 16.1338 8.92747 16.1336 9.22038 15.841L10.109 14.9523L10.9967 15.841C11.2896 16.1338 11.7644 16.1337 12.0573 15.841C12.3502 15.5481 12.3502 15.0732 12.0573 14.7804L11.1696 13.8918L11.9997 13.0617L12.8883 13.9494C13.1812 14.2423 13.656 14.2423 13.9489 13.9494C14.2416 13.6565 14.2417 13.1817 13.9489 12.8888L13.0612 12.0011L13.8913 11.1701L14.779 12.0587C15.0718 12.3516 15.5476 12.3516 15.8405 12.0587C16.1334 11.7658 16.1334 11.2901 15.8405 10.9972L14.9518 10.1095L15.8405 9.22183C16.1332 8.92909 16.1329 8.45419 15.8405 8.16128ZM14.445 2.03628C15.7564 1.96621 17.0012 2.00552 18.068 2.08706C20.1477 2.24608 21.7538 3.85204 21.9128 5.93179C21.9944 6.9987 22.0336 8.24414 21.9635 9.55581L14.445 2.03628Z" fill="#48465C"/>
</svg>
