<svg width="24" height="24" viewBox="0 0 24 24" fill="none" xmlns="http://www.w3.org/2000/svg">
<path d="M9.55638 21.964C8.24434 22.0342 6.99856 21.9948 5.93138 21.9132C3.8517 21.7542 2.24673 20.1491 2.08763 18.0695C2.00604 17.0023 1.9657 15.7566 2.03587 14.4445L9.55638 21.964ZM21.7781 11.4914C21.4098 14.0838 20.5165 16.7234 18.6199 18.6203C16.7233 20.5169 14.0832 21.4101 11.4909 21.7785L2.22239 12.5089C2.5909 9.91681 3.48411 7.2775 5.38059 5.38101C7.27739 3.4843 9.91707 2.59119 12.5095 2.22281L21.7781 11.4914ZM15.8406 8.16128C15.5477 7.86839 15.0718 7.86839 14.779 8.16128L13.8913 9.04898L13.0036 8.16128C12.7108 7.86839 12.235 7.86839 11.9421 8.16128C11.6497 8.45419 11.6494 8.92909 11.9421 9.22183L12.8308 10.1095L11.9997 10.9406L11.112 10.0519C10.8192 9.75913 10.3444 9.75922 10.0515 10.0519C9.75865 10.3448 9.75866 10.8196 10.0515 11.1125L10.9392 12.0011L10.1091 12.8312L9.22044 11.9435C8.92754 11.6507 8.45277 11.6506 8.15989 11.9435C7.86721 12.2364 7.86709 12.7113 8.15989 13.0041L9.04856 13.8918L8.15989 14.7804C7.86721 15.0732 7.86708 15.5481 8.15989 15.841C8.4527 16.1338 8.92753 16.1336 9.22044 15.841L10.1091 14.9523L10.9968 15.841C11.2896 16.1338 11.7644 16.1337 12.0574 15.841C12.3503 15.5481 12.3503 15.0732 12.0574 14.7804L11.1697 13.8918L11.9997 13.0617L12.8884 13.9494C13.1813 14.2423 13.6561 14.2423 13.949 13.9494C14.2417 13.6565 14.2418 13.1817 13.949 12.8888L13.0613 12.0011L13.8913 11.1701L14.779 12.0587C15.0718 12.3516 15.5477 12.3516 15.8406 12.0587C16.1334 11.7658 16.1334 11.2901 15.8406 10.9972L14.9519 10.1095L15.8406 9.22183C16.1332 8.92909 16.133 8.45419 15.8406 8.16128ZM14.445 2.03628C15.7565 1.96621 17.0013 2.00552 18.0681 2.08706C20.1478 2.24608 21.7538 3.85204 21.9128 5.93179C21.9944 6.9987 22.0337 8.24414 21.9636 9.55581L14.445 2.03628Z" fill="#48465C"/>
</svg>
