<svg width="24" height="24" viewBox="0 0 24 24" fill="none" xmlns="http://www.w3.org/2000/svg">
<path d="M14.7569 2.62183C16.5855 0.793227 19.5503 0.793227 21.3789 2.62183C23.2071 4.45035 23.2071 7.4144 21.3789 9.24292L11.8936 18.7283C11.3519 19.27 11.0325 19.5892 10.6777 19.866C10.2596 20.1921 9.80696 20.4727 9.32814 20.7009C8.9219 20.8945 8.49354 21.0368 7.76662 21.2791L3.63283 22.657C2.98234 22.8736 2.26512 22.7043 1.78029 22.2195C1.29553 21.7346 1.12599 21.0174 1.34279 20.3669L2.72072 16.2341C2.96306 15.5071 3.10619 15.0789 3.29982 14.6726C3.52801 14.1938 3.8076 13.7412 4.1338 13.323C4.41061 12.9681 4.72952 12.6482 5.2715 12.1062L14.7569 2.62183ZM19.9551 11.9734C20.1539 11.9735 20.3447 12.0526 20.4854 12.1931L20.5225 12.2292C21.1727 12.8795 21.7135 13.421 22.085 13.908C22.4768 14.4216 22.75 14.9625 22.75 15.616C22.7499 16.2694 22.4767 16.8096 22.085 17.323C21.7135 17.81 21.1727 18.3514 20.5225 19.0017L19.002 20.5222C18.3517 21.1725 17.8102 21.7131 17.3233 22.0847C16.8098 22.4764 16.2695 22.7497 15.6162 22.7498C14.9626 22.7498 14.4217 22.4765 13.9082 22.0847C13.4212 21.7131 12.8798 21.1724 12.2295 20.5222L12.1934 20.4851C11.9005 20.1922 11.9005 19.7175 12.1934 19.4246C12.4863 19.1317 12.961 19.1317 13.2539 19.4246C13.9505 20.1212 14.421 20.5892 14.8184 20.8923C15.1984 21.1822 15.4226 21.2498 15.6162 21.2498C15.8098 21.2497 16.0342 21.1822 16.4141 20.8923C16.8114 20.5891 17.2819 20.1212 17.9785 19.4246L19.4248 17.9783C20.1215 17.2816 20.5894 16.8112 20.8926 16.4138C21.1824 16.0339 21.2499 15.8096 21.25 15.616C21.25 15.4223 21.1825 15.1981 20.8926 14.8181C20.6736 14.5311 20.3682 14.2059 19.9531 13.7849L18.0742 15.6638C17.7813 15.9566 17.3065 15.9567 17.0137 15.6638C16.721 15.3709 16.721 14.8961 17.0137 14.6033L19.4248 12.1931C19.5655 12.0525 19.7561 11.9734 19.9551 11.9734ZM6.36916 13.1306C5.77979 13.72 5.52966 13.9715 5.31642 14.2449C5.05716 14.5773 4.83468 14.9375 4.65333 15.3181C4.50426 15.631 4.39049 15.967 4.12697 16.7576L3.1797 19.5994L4.40041 20.8201L7.2422 19.8728C8.03326 19.6091 8.36958 19.4956 8.68263 19.3464C9.0631 19.1652 9.42256 18.9426 9.7549 18.6833C10.0284 18.4701 10.2805 18.2203 10.8701 17.6306L18.4395 10.0613C17.6508 9.78309 16.6347 9.26728 15.6836 8.31616C14.7326 7.36508 14.2166 6.3489 13.9385 5.5603L6.36916 13.1306ZM8.38478 1.24976C9.03803 1.24987 9.57846 1.52317 10.0918 1.91479C10.5788 2.28637 11.1202 2.82791 11.7705 3.47827L11.8076 3.51538C11.9481 3.656 12.0274 3.84692 12.0274 4.04565C12.0273 4.24443 11.9482 4.43536 11.8076 4.57593L9.3965 6.98608C9.1036 7.27886 8.6288 7.27894 8.33595 6.98608C8.04323 6.69322 8.04323 6.21841 8.33595 5.92554L10.2149 4.04663C9.79396 3.63165 9.46864 3.32614 9.18166 3.10718C8.80212 2.81768 8.5783 2.74985 8.38478 2.74976C8.19115 2.74976 7.96679 2.81742 7.58693 3.10718C7.18954 3.41037 6.71923 3.87917 6.02248 4.57593L4.57619 6.02222C3.87941 6.719 3.41064 7.18927 3.10744 7.58667C2.81761 7.9666 2.75001 8.19087 2.75001 8.38452C2.75009 8.57814 2.8176 8.8025 3.10744 9.18237C3.41064 9.57973 3.87949 10.0501 4.57619 10.7468C4.86869 11.0397 4.86888 11.5146 4.57619 11.8074C4.2833 12.1003 3.80756 12.1003 3.51466 11.8074L3.47853 11.7703C2.82817 11.12 2.28663 10.5786 1.91505 10.0916C1.52342 9.57816 1.2501 9.0378 1.25001 8.38452C1.25001 7.73099 1.52326 7.19003 1.91505 6.67651C2.28663 6.18949 2.82817 5.64812 3.47853 4.9978L3.51466 4.96167L4.96193 3.51538C4.97417 3.50314 4.98589 3.49044 4.99806 3.47827C5.64838 2.8279 6.18975 2.28637 6.67677 1.91479C7.19026 1.52304 7.7313 1.24976 8.38478 1.24976ZM20.3184 3.68237C19.0756 2.43956 17.0602 2.43956 15.8174 3.68237L15.1553 4.34351C15.1895 4.51847 15.2474 4.75688 15.3438 5.03491C15.561 5.66082 15.9713 6.48271 16.7442 7.25562C17.5169 8.02843 18.339 8.4388 18.9649 8.65601C19.243 8.75247 19.4813 8.81028 19.6563 8.84448L20.3184 8.18237C21.5607 6.93965 21.5607 4.9251 20.3184 3.68237Z" fill="#48465C"/>
</svg>
