<svg width="24" height="24" viewBox="0 0 24 24" fill="none" xmlns="http://www.w3.org/2000/svg">
<path fill-rule="evenodd" clip-rule="evenodd" d="M14.7569 2.62183C16.5855 0.793227 19.5504 0.793227 21.379 2.62183C23.2072 4.45035 23.2072 7.4144 21.379 9.24292L11.8937 18.7283C11.352 19.27 11.0326 19.5892 10.6778 19.866C10.2597 20.1921 9.80705 20.4727 9.32823 20.7009C8.92199 20.8945 8.49363 21.0368 7.76671 21.2791L3.63292 22.657C2.98243 22.8736 2.26521 22.7043 1.78038 22.2195C1.29562 21.7346 1.12608 21.0174 1.34288 20.3669L2.72081 16.2341C2.96315 15.5071 3.10628 15.0789 3.29991 14.6726C3.5281 14.1938 3.80769 13.7412 4.1339 13.323C4.41071 12.9681 4.72961 12.6482 5.27159 12.1062L14.7569 2.62183ZM19.9552 11.9734C20.154 11.9735 20.3448 12.0526 20.4855 12.1931L20.5226 12.2292C21.1728 12.8795 21.7136 13.421 22.0851 13.908C22.4769 14.4216 22.7501 14.9625 22.7501 15.616C22.75 16.2694 22.4767 16.8096 22.0851 17.323C21.7136 17.81 21.1728 18.3514 20.5226 19.0017L19.0021 20.5222C18.3518 21.1725 17.8103 21.7131 17.3233 22.0847C16.8099 22.4764 16.2696 22.7497 15.6163 22.7498C14.9627 22.7498 14.4218 22.4765 13.9083 22.0847C13.4212 21.7131 12.8799 21.1724 12.2296 20.5222L12.1935 20.4851C11.9006 20.1922 11.9006 19.7175 12.1935 19.4246C12.4864 19.1317 12.9611 19.1317 13.254 19.4246C13.9506 20.1212 14.4211 20.5892 14.8185 20.8923C15.1985 21.1822 15.4226 21.2498 15.6163 21.2498C15.8099 21.2497 16.0343 21.1822 16.4142 20.8923C16.8115 20.5891 17.282 20.1212 17.9786 19.4246L19.4249 17.9783C20.1216 17.2816 20.5895 16.8112 20.8927 16.4138C21.1825 16.0339 21.25 15.8096 21.2501 15.616C21.2501 15.4223 21.1826 15.1981 20.8927 14.8181C20.6737 14.5311 20.3683 14.2059 19.9532 13.7849L18.0743 15.6638C17.7814 15.9566 17.3066 15.9567 17.0138 15.6638C16.7211 15.3709 16.721 14.8961 17.0138 14.6033L19.4249 12.1931C19.5656 12.0525 19.7562 11.9734 19.9552 11.9734ZM6.36925 13.1306C5.77988 13.72 5.52975 13.9715 5.31651 14.2449C5.05725 14.5773 4.83478 14.9375 4.65343 15.3181C4.50435 15.631 4.39058 15.967 4.12706 16.7576L3.17979 19.5994L4.4005 20.8201L7.24229 19.8728C8.03335 19.6091 8.36967 19.4956 8.68272 19.3464C9.06319 19.1652 9.42265 18.9426 9.75499 18.6833C10.0284 18.4701 10.2806 18.2203 10.8702 17.6306L18.4396 10.0613C17.6509 9.78309 16.6348 9.26728 15.6837 8.31616C14.7327 7.36508 14.2167 6.3489 13.9386 5.5603L6.36925 13.1306ZM8.38487 1.24976C9.03812 1.24987 9.57855 1.52317 10.0919 1.91479C10.5789 2.28637 11.1203 2.82791 11.7706 3.47827L11.8077 3.51538C11.9482 3.656 12.0274 3.84692 12.0274 4.04565C12.0274 4.24443 11.9483 4.43536 11.8077 4.57593L9.39659 6.98608C9.10369 7.27886 8.62889 7.27894 8.33604 6.98608C8.04332 6.69322 8.04332 6.21841 8.33604 5.92554L10.2149 4.04663C9.79405 3.63165 9.46873 3.32613 9.18175 3.10718C8.80221 2.81768 8.57839 2.74985 8.38487 2.74976C8.19124 2.74976 7.96688 2.81742 7.58702 3.10718C7.18963 3.41037 6.71932 3.87917 6.02257 4.57593L4.57628 6.02222C3.8795 6.719 3.41073 7.18927 3.10753 7.58667C2.8177 7.9666 2.75011 8.19087 2.75011 8.38452C2.75018 8.57814 2.81769 8.8025 3.10753 9.18237C3.41073 9.57973 3.87958 10.0501 4.57628 10.7468C4.86878 11.0397 4.86898 11.5146 4.57628 11.8074C4.28339 12.1003 3.80765 12.1003 3.51475 11.8074L3.47862 11.7703C2.82826 11.12 2.28673 10.5786 1.91515 10.0916C1.52351 9.57816 1.25019 9.0378 1.25011 8.38452C1.25011 7.73099 1.52335 7.19003 1.91515 6.67651C2.28673 6.18949 2.82826 5.64812 3.47862 4.9978L3.51475 4.96167L4.96202 3.51538C4.97426 3.50314 4.98598 3.49044 4.99815 3.47827C5.64847 2.8279 6.18984 2.28637 6.67686 1.91479C7.19035 1.52304 7.73139 1.24976 8.38487 1.24976ZM20.3185 3.68237C19.0757 2.43956 17.0603 2.43956 15.8175 3.68237L15.1554 4.34351C15.1896 4.51847 15.2475 4.75688 15.3439 5.03491C15.561 5.66082 15.9714 6.48271 16.7442 7.25562C17.517 8.02843 18.3391 8.4388 18.965 8.65601C19.243 8.75247 19.4814 8.81028 19.6564 8.84448L20.3185 8.18237C21.5608 6.93965 21.5608 4.9251 20.3185 3.68237Z" fill="#48465C"/>
</svg>
