<svg width="24" height="24" viewBox="0 0 24 24" fill="none" xmlns="http://www.w3.org/2000/svg">
<path d="M10.5942 2.31873C11.4835 1.89382 12.5174 1.89369 13.4067 2.31873C13.7931 2.50341 14.1468 2.80585 14.6371 3.22401C14.6624 3.24557 14.6882 3.26726 14.7143 3.28944C14.9523 3.49233 15.028 3.55499 15.1039 3.60584C15.2969 3.73514 15.5138 3.8255 15.7416 3.87049C15.8311 3.88812 15.9284 3.89643 16.2397 3.92127C16.274 3.92401 16.3079 3.92742 16.3412 3.93006C16.9833 3.98102 17.4473 4.01703 17.851 4.15955C18.7805 4.48785 19.5119 5.21938 19.8402 6.14881C19.9828 6.55254 20.0197 7.01646 20.0707 7.65858C20.0734 7.69179 20.0757 7.72595 20.0785 7.76014C20.1034 8.07195 20.1126 8.16955 20.1303 8.25916C20.1752 8.48703 20.2647 8.70392 20.394 8.89686C20.4448 8.97272 20.5075 9.04752 20.7104 9.28553C20.7326 9.31172 20.7551 9.33725 20.7768 9.36268C21.195 9.85291 21.4964 10.2077 21.6811 10.5941C22.1061 11.4835 22.1061 12.5173 21.6811 13.4066C21.4964 13.7929 21.1948 14.147 20.7768 14.6371C20.7551 14.6624 20.7326 14.688 20.7104 14.7142C20.5075 14.9522 20.4449 15.028 20.394 15.1039C20.2648 15.2968 20.1752 15.5138 20.1303 15.7416C20.1126 15.8311 20.1034 15.9283 20.0785 16.2396C20.0757 16.2739 20.0734 16.3079 20.0707 16.3412C20.0197 16.9834 19.9828 17.4472 19.8402 17.851C19.5119 18.7806 18.7806 19.5119 17.851 19.8402C17.4472 19.9827 16.9834 20.0197 16.3412 20.0707C16.3079 20.0734 16.2739 20.0757 16.2397 20.0785C15.9283 20.1034 15.8311 20.1126 15.7416 20.1303C15.5138 20.1751 15.2968 20.2647 15.1039 20.3939C15.028 20.4448 14.9523 20.5074 14.7143 20.7103C14.688 20.7326 14.6624 20.7551 14.6371 20.7767C14.147 21.1948 13.7929 21.4964 13.4067 21.681C12.5173 22.1061 11.4835 22.106 10.5942 21.681C10.2078 21.4963 9.85296 21.1949 9.36271 20.7767C9.33728 20.7551 9.31174 20.7326 9.28556 20.7103C9.04753 20.5075 8.97274 20.4448 8.89689 20.3939C8.70394 20.2646 8.48705 20.1752 8.25919 20.1303C8.16958 20.1126 8.07198 20.1034 7.76017 20.0785C7.72598 20.0757 7.69183 20.0734 7.6586 20.0707C7.01649 20.0197 6.55257 19.9828 6.14884 19.8402C5.21941 19.5119 4.48787 18.7805 4.15958 17.851C4.01705 17.4473 3.98104 16.9833 3.93009 16.3412C3.92745 16.3079 3.92404 16.2739 3.9213 16.2396C3.89646 15.9284 3.88815 15.8311 3.87052 15.7416C3.82553 15.5137 3.73517 15.2969 3.60587 15.1039C3.55502 15.028 3.49235 14.9522 3.28946 14.7142C3.26728 14.6882 3.24559 14.6623 3.22403 14.6371C2.80586 14.1469 2.50344 13.793 2.31876 13.4066C1.89372 12.5174 1.89385 11.4834 2.31876 10.5941C2.50344 10.2077 2.80587 9.85292 3.22403 9.36268C3.2456 9.3374 3.26727 9.31156 3.28946 9.28553C3.49217 9.04766 3.55504 8.97266 3.60587 8.89686C3.73521 8.70389 3.82552 8.48706 3.87052 8.25916C3.88821 8.16955 3.89641 8.07195 3.9213 7.76014C3.92403 7.72594 3.92746 7.69181 3.93009 7.65858C3.98104 7.0165 4.01698 6.55253 4.15958 6.14881C4.48789 5.21931 5.21934 4.48786 6.14884 4.15955C6.55256 4.01695 7.01653 3.98101 7.6586 3.93006C7.69184 3.92743 7.72597 3.924 7.76017 3.92127C8.07198 3.89638 8.16958 3.88818 8.25919 3.87049C8.48708 3.82549 8.70392 3.73518 8.89689 3.60584C8.97268 3.55502 9.04769 3.49214 9.28556 3.28944C9.31159 3.26724 9.33741 3.24558 9.36271 3.22401C9.85295 2.80585 10.2078 2.50341 10.5942 2.31873ZM12.7572 3.67713C12.2784 3.44828 11.7214 3.44824 11.2426 3.67713C11.0576 3.76565 10.8624 3.92431 10.2621 4.43592C10.2523 4.44428 10.2424 4.45219 10.2328 4.46033C10.0357 4.62828 9.89167 4.75065 9.73478 4.85584C9.37641 5.09603 8.97346 5.26349 8.55021 5.34705C8.36492 5.3836 8.17636 5.39878 7.91837 5.41932C7.90585 5.42031 7.89314 5.42122 7.88028 5.42225C7.09416 5.48499 6.84424 5.51122 6.65079 5.57948C6.15029 5.75626 5.75628 6.15026 5.5795 6.65076C5.51125 6.84421 5.48501 7.09413 5.42228 7.88026C5.42125 7.89312 5.42034 7.90582 5.41935 7.91834C5.3988 8.17633 5.38362 8.3649 5.34708 8.55018C5.26352 8.97343 5.09606 9.37638 4.85587 9.73475C4.75068 9.89164 4.62832 10.0357 4.46036 10.2328C4.45223 10.2423 4.4443 10.2523 4.43595 10.2621C3.92433 10.8624 3.76567 11.0575 3.67716 11.2426C3.44827 11.7214 3.44831 12.2783 3.67716 12.7572C3.76565 12.9423 3.9241 13.1381 4.43595 13.7387C4.44424 13.7484 4.45228 13.7585 4.46036 13.768C4.6283 13.965 4.75068 14.1091 4.85587 14.266C5.09602 14.6244 5.26353 15.0264 5.34708 15.4496C5.38367 15.6349 5.3988 15.8234 5.41935 16.0814C5.42035 16.094 5.42125 16.1076 5.42228 16.1205C5.48503 16.9067 5.51117 17.1565 5.5795 17.35C5.7563 17.8504 6.15033 18.2445 6.65079 18.4213C6.84422 18.4895 7.09437 18.5159 7.88028 18.5785L7.91837 18.5814C8.17642 18.6019 8.3649 18.6171 8.55021 18.6537C8.97346 18.7373 9.37641 18.9037 9.73478 19.1439C9.89172 19.2491 10.0357 19.3715 10.2328 19.5394L10.2621 19.5648C10.8625 20.0766 11.0575 20.2351 11.2426 20.3236C11.7214 20.5525 12.2784 20.5524 12.7572 20.3236C12.9423 20.2351 13.1381 20.0767 13.7387 19.5648L13.768 19.5394C13.9649 19.3716 14.1091 19.2491 14.266 19.1439C14.6243 18.9039 15.0266 18.7373 15.4496 18.6537C15.6349 18.6171 15.8234 18.6019 16.0815 18.5814L16.1205 18.5785C16.9067 18.5158 17.1566 18.4896 17.35 18.4213C17.8505 18.2445 18.2445 17.8505 18.4213 17.35C18.4897 17.1565 18.5159 16.9067 18.5785 16.1205L18.5815 16.0814C18.6019 15.8234 18.6171 15.6349 18.6537 15.4496C18.7373 15.0266 18.9039 14.6243 19.144 14.266C19.2491 14.1091 19.3716 13.9649 19.5395 13.768L19.5649 13.7387C20.0768 13.1381 20.2351 12.9423 20.3236 12.7572C20.5524 12.2784 20.5525 11.7214 20.3236 11.2426C20.2351 11.0575 20.0766 10.8625 19.5649 10.2621L19.5395 10.2328C19.3715 10.0358 19.2491 9.8917 19.144 9.73475C18.9038 9.37638 18.7373 8.97343 18.6537 8.55018C18.6172 8.36486 18.6019 8.1764 18.5815 7.91834L18.5785 7.88026C18.5159 7.09435 18.4896 6.84419 18.4213 6.65076C18.2445 6.1503 17.8505 5.75627 17.35 5.57948C17.1565 5.51114 16.9067 5.485 16.1205 5.42225C16.1076 5.42122 16.0941 5.42032 16.0815 5.41932C15.8234 5.39877 15.6349 5.38365 15.4496 5.34705C15.0265 5.2635 14.6244 5.09599 14.266 4.85584C14.1091 4.75065 13.9651 4.62828 13.768 4.46033C13.7585 4.45227 13.7484 4.4442 13.7387 4.43592C13.1381 3.92407 12.9423 3.76562 12.7572 3.67713ZM14.4779 8.45741C14.7718 8.16352 15.2485 8.16358 15.5424 8.45741C15.8363 8.75132 15.8363 9.22795 15.5424 9.52186L9.52189 15.5424C9.22798 15.8363 8.75134 15.8363 8.45743 15.5424C8.16361 15.2485 8.16355 14.7718 8.45743 14.4779L14.4779 8.45741ZM14.5092 13.5053C15.0632 13.5055 15.5121 13.9551 15.5121 14.5092C15.512 15.0631 15.0631 15.5119 14.5092 15.5121C13.955 15.5121 13.5054 15.0633 13.5053 14.5092C13.5053 13.955 13.955 13.5053 14.5092 13.5053ZM9.49161 8.48768C10.0457 8.48778 10.4945 8.93744 10.4945 9.49158C10.4944 10.0456 10.0456 10.4944 9.49161 10.4945C8.93747 10.4945 8.48781 10.0457 8.48771 9.49158C8.48771 8.93737 8.9374 8.48768 9.49161 8.48768Z" fill="#48465C"/>
</svg>
