<svg width="24" height="24" viewBox="0 0 24 24" fill="none" xmlns="http://www.w3.org/2000/svg">
<path fill-rule="evenodd" clip-rule="evenodd" d="M12.629 2.92392C14.9675 0.667182 18.6926 0.692699 21.0001 3.00009C23.3074 5.30749 23.333 9.03276 21.0763 11.3712L14.9689 22.3643C14.7676 22.7262 14.3113 22.8564 13.9493 22.6554C13.5873 22.4543 13.4564 21.9979 13.6573 21.6358L18.4825 12.9503C16.6765 13.4867 14.6671 13.1515 13.1154 11.9454L5.53039 19.5304C5.23755 19.8231 4.76272 19.8231 4.46984 19.5304C4.17697 19.2375 4.17699 18.7627 4.46984 18.4698L12.0548 10.8849C10.8483 9.333 10.5133 7.32286 11.0499 5.51669L2.36437 10.3429C2.00234 10.5439 1.546 10.4129 1.34484 10.0509C1.14369 9.68881 1.2738 9.23251 1.63586 9.03134L12.629 2.92392ZM14.1866 10.8741C15.634 11.9034 17.5569 11.9681 19.0646 11.0694C18.9965 11.0304 18.9257 10.9892 18.8527 10.9454C18.15 10.5238 17.2233 9.87092 16.17 8.89072L14.1866 10.8741ZM19.9396 4.06064C18.3117 2.43275 15.7411 2.32113 13.9845 3.72665C14.0692 3.89844 14.186 4.11688 14.3409 4.37509C14.772 5.09375 15.5038 6.12304 16.6905 7.30966C17.877 8.49616 18.9056 9.22816 19.6241 9.65927C19.8824 9.81424 20.1018 9.93005 20.2736 10.0147C21.6788 8.25816 21.5672 5.6884 19.9396 4.06064ZM12.9308 4.93564C12.0321 6.44322 12.097 8.36522 13.1261 9.81259L15.1095 7.83017C14.1294 6.77705 13.4764 5.85032 13.0548 5.14755C13.011 5.07458 12.9697 5.00362 12.9308 4.93564Z" fill="#48465C"/>
</svg>
