<svg width="24" height="24" viewBox="0 0 24 24" fill="none" xmlns="http://www.w3.org/2000/svg">
<path d="M14.9688 22.3642C14.7676 22.7262 14.3113 22.8563 13.9493 22.6553C13.5872 22.4542 13.4562 21.9978 13.6573 21.6357L18.5713 12.792C19.4653 12.5503 20.3143 12.0977 21.0401 11.4355L14.9688 22.3642ZM12.2598 10.6797C12.4118 10.8749 12.5775 11.0628 12.7569 11.2422C12.9365 11.4219 13.125 11.5881 13.3204 11.7402L5.53032 19.5303C5.23745 19.8231 4.76268 19.8231 4.46977 19.5303C4.17688 19.2374 4.17687 18.7626 4.46977 18.4697L12.2598 10.6797ZM16.17 8.89158C17.223 9.87154 18.1499 10.5236 18.8526 10.9453C19.0626 11.0713 19.253 11.1765 19.42 11.2636L18.5713 12.792C16.7939 13.2724 14.8385 12.9216 13.3204 11.7402L16.17 8.89158ZM12.7364 4.58006C12.8236 4.74711 12.9287 4.93736 13.0547 5.14744C13.4763 5.85022 14.1292 6.77688 15.1094 7.83006L12.2598 10.6797C11.0784 9.16168 10.7278 7.20609 11.2081 5.42869L12.7364 4.58006ZM13.4317 2.17478C15.7805 0.433358 19.1126 0.628192 21.2422 2.75779C23.3691 4.88466 23.5653 8.21035 21.8311 10.5586L21.5645 10.4922L20.71 10.207H20.709L20.7032 10.2051C20.695 10.2021 20.6803 10.1968 20.6592 10.1885C20.6161 10.1717 20.5464 10.1429 20.4532 10.1006C20.2665 10.0158 19.9836 9.87485 19.6241 9.65916C18.9055 9.22804 17.877 8.49605 16.6905 7.30955C15.504 6.12309 14.772 5.0946 14.3409 4.37595C14.1252 4.01643 13.9843 3.73352 13.8995 3.54685C13.857 3.45349 13.8285 3.3839 13.8116 3.3408C13.8032 3.31933 13.798 3.30397 13.795 3.29588L13.792 3.28904L13.5079 2.43552L13.4317 2.17478ZM12.5635 2.95994C11.9016 3.68571 11.4497 4.53478 11.2081 5.42869L2.3643 10.3428C2.00222 10.5438 1.54593 10.4128 1.34477 10.0508C1.14365 9.68869 1.27371 9.23239 1.63579 9.03123L12.5635 2.95994Z" fill="#48465C"/>
</svg>
