<svg width="24" height="24" viewBox="0 0 24 24" fill="none" xmlns="http://www.w3.org/2000/svg">
<path d="M12.629 2.92386C14.9675 0.667121 18.6926 0.692638 21.0001 3.00003C23.3074 5.30743 23.333 9.03269 21.0763 11.3711L14.9688 22.3643C14.7676 22.7262 14.3113 22.8563 13.9493 22.6553C13.5873 22.4542 13.4564 21.9978 13.6573 21.6358L18.4825 12.9502C16.6765 13.4866 14.6671 13.1515 13.1153 11.9453L5.53036 19.5303C5.23751 19.8231 4.76269 19.823 4.46981 19.5303C4.17694 19.2374 4.17696 18.7627 4.46981 18.4698L12.0548 10.8848C10.8483 9.33294 10.5133 7.3228 11.0499 5.51663L2.36434 10.3428C2.00231 10.5438 1.54597 10.4128 1.34481 10.0508C1.14366 9.68874 1.27377 9.23245 1.63583 9.03128L12.629 2.92386ZM14.1866 10.8741C15.634 11.9034 17.5568 11.9681 19.0645 11.0694C18.9965 11.0304 18.9257 10.9891 18.8526 10.9453C18.1499 10.5237 17.2232 9.87086 16.17 8.89066L14.1866 10.8741ZM19.9395 4.06058C18.3116 2.43269 15.7411 2.32107 13.9845 3.72659C14.0691 3.89838 14.186 4.11682 14.3409 4.37503C14.772 5.09369 15.5038 6.12298 16.6905 7.3096C17.877 8.4961 18.9055 9.22809 19.6241 9.65921C19.8824 9.81418 20.1017 9.92999 20.2735 10.0147C21.6787 8.2581 21.5672 5.68834 19.9395 4.06058ZM12.9308 4.93558C12.032 6.44316 12.0969 8.36516 13.1261 9.81253L15.1095 7.83011C14.1293 6.77699 13.4764 5.85026 13.0548 5.14749C13.011 5.07452 12.9697 5.00356 12.9308 4.93558Z" fill="#48465C"/>
</svg>
