<svg width="24" height="24" viewBox="0 0 24 24" fill="none" xmlns="http://www.w3.org/2000/svg">
<path d="M17.3467 1.63223C17.5497 1.2717 18.0063 1.14355 18.3672 1.3461C18.7282 1.5491 18.8563 2.00652 18.6533 2.36758L12.8604 12.6723L15.5674 17.4867C16.1491 16.1693 17.4674 15.2504 19 15.2504C21.0711 15.2504 22.75 16.9294 22.75 19.0004C22.7499 21.0714 21.071 22.7504 19 22.7504C17.5773 22.7504 16.3396 21.9579 15.7041 20.7904L12 14.2025L8.2959 20.7904C7.66042 21.9579 6.42274 22.7504 5 22.7504C2.92902 22.7504 1.25014 21.0714 1.25 19.0004C1.25 16.9294 2.92893 15.2504 5 15.2504C6.53262 15.2504 7.85095 16.1694 8.43262 17.4867L11.1396 12.6723L5.34668 2.36758C5.14368 2.00652 5.27175 1.5491 5.63281 1.3461C5.99364 1.14352 6.45027 1.27167 6.65332 1.63223L12 11.142L17.3467 1.63223Z" fill="#48465C"/>
</svg>
