<svg width="24" height="24" viewBox="0 0 24 24" fill="none" xmlns="http://www.w3.org/2000/svg">
<path d="M12.0253 1.25C12.4698 1.24999 12.8408 1.24973 13.1455 1.27051C13.4626 1.29215 13.7623 1.33871 14.0527 1.45899C14.7264 1.73807 15.2618 2.27356 15.541 2.94727C15.6863 3.29805 15.7252 3.66848 15.7402 4.07031C15.7524 4.3932 15.9157 4.66291 16.1562 4.80176C16.3968 4.9406 16.7123 4.94694 16.998 4.7959C17.3534 4.60806 17.693 4.45678 18.0693 4.40723C18.7925 4.31204 19.5239 4.50816 20.1025 4.95215C20.3519 5.1435 20.5424 5.37976 20.7197 5.64356C20.8899 5.89692 21.0746 6.21873 21.2968 6.60352L21.3222 6.64649C21.5444 7.03116 21.7299 7.35288 21.8642 7.62695C22.004 7.91234 22.1141 8.19529 22.1552 8.50684C22.2504 9.22987 22.0542 9.96146 21.6103 10.54C21.3793 10.8413 21.0787 11.0606 20.7382 11.2744C20.4645 11.4464 20.3125 11.7222 20.3125 12C20.3125 12.2779 20.4645 12.5536 20.7382 12.7256C21.0786 12.9395 21.3792 13.1588 21.6103 13.46C22.0541 14.0385 22.2494 14.7701 22.1542 15.4932C22.1131 15.8046 22.004 16.0877 21.8642 16.373C21.7299 16.6471 21.5443 16.9688 21.3222 17.3535L21.2968 17.3965C21.0746 17.7814 20.889 18.103 20.7187 18.3564C20.5414 18.6202 20.3518 18.8565 20.1025 19.0479C19.5239 19.4918 18.7924 19.688 18.0693 19.5928C17.6928 19.5433 17.3525 19.392 16.997 19.2041C16.7114 19.0534 16.3967 19.0595 16.1562 19.1982C15.9157 19.3372 15.7524 19.6068 15.7402 19.9297C15.7252 20.3316 15.6863 20.7019 15.541 21.0527C15.2618 21.7264 14.7264 22.2619 14.0527 22.541C13.7623 22.6613 13.4626 22.7079 13.1455 22.7295C12.8408 22.7503 12.4698 22.75 12.0253 22.75H11.9746C11.5303 22.75 11.159 22.7503 10.8544 22.7295C10.5374 22.7079 10.2375 22.6613 9.94722 22.541C9.27358 22.2619 8.73802 21.7264 8.45893 21.0527C8.31364 20.7019 8.27475 20.3315 8.25972 19.9297C8.24751 19.6068 8.08422 19.3371 7.8437 19.1982C7.60322 19.0595 7.28848 19.0532 7.00288 19.2041C6.64738 19.392 6.30705 19.5432 5.93061 19.5928C5.20759 19.6879 4.47598 19.4918 3.89741 19.0479C3.64815 18.8566 3.45843 18.6202 3.2812 18.3564C3.11089 18.103 2.92531 17.7814 2.70308 17.3965L2.67768 17.3535C2.45554 16.9688 2.26999 16.6472 2.13569 16.373C1.99593 16.0877 1.88671 15.8047 1.84565 15.4932C1.75046 14.7701 1.94658 14.0386 2.39058 13.46C2.6217 13.1588 2.92223 12.9394 3.26265 12.7256C3.53616 12.5536 3.68842 12.2777 3.68843 12C3.68845 11.7222 3.53616 11.4464 3.26265 11.2744C2.92225 11.0605 2.62168 10.8411 2.39058 10.54C1.94659 9.96136 1.75045 9.22995 1.84565 8.50684C1.8867 8.19529 1.99591 7.91234 2.13569 7.62695C2.26999 7.35281 2.4555 7.03129 2.67768 6.64649L2.70308 6.60352C2.92529 6.21862 3.1109 5.89696 3.2812 5.64356C3.45841 5.37985 3.64819 5.14345 3.89741 4.95215C4.47595 4.50822 5.20762 4.31213 5.93061 4.40723C6.30707 4.45679 6.64736 4.60799 7.00288 4.7959C7.28846 4.94676 7.60322 4.9404 7.8437 4.80176C8.0842 4.66291 8.24753 4.39319 8.25972 4.07031C8.27475 3.66847 8.31363 3.29807 8.45893 2.94727C8.73802 2.2736 9.27358 1.73811 9.94722 1.45899C10.2375 1.33873 10.5374 1.29216 10.8544 1.27051C11.159 1.24973 11.5303 1.24999 11.9746 1.25H12.0253ZM12 2.75C11.5239 2.75 11.2044 2.75071 10.957 2.76758C10.7163 2.78401 10.5986 2.81277 10.5214 2.84473C10.2154 2.97157 9.97255 3.21536 9.84565 3.52149C9.80563 3.6181 9.7721 3.76888 9.75874 4.12598C9.72911 4.91833 9.31974 5.68142 8.5937 6.10059C7.86773 6.51957 7.00261 6.49253 6.30171 6.12207C5.9859 5.95514 5.83898 5.90821 5.7353 5.89453C5.40667 5.85127 5.07448 5.94082 4.81147 6.14258C4.74522 6.19341 4.66091 6.28021 4.52632 6.48047C4.38798 6.68633 4.22726 6.96269 3.98921 7.375C3.75116 7.78733 3.59147 8.06438 3.48237 8.28711C3.37631 8.50366 3.34385 8.62036 3.33296 8.70313C3.28978 9.03168 3.37833 9.36403 3.58003 9.62695C3.64369 9.70991 3.75798 9.8138 4.0605 10.0039C4.73186 10.4258 5.18844 11.1616 5.18843 12C5.18839 12.8383 4.73184 13.5743 4.0605 13.9961C3.75791 14.1862 3.64369 14.2901 3.58003 14.373C3.3783 14.636 3.28975 14.9683 3.33296 15.2969C3.34386 15.3797 3.37628 15.4963 3.48237 15.7129C3.59148 15.9356 3.75112 16.2126 3.98921 16.625C4.2273 17.0374 4.38797 17.3137 4.52632 17.5195C4.66063 17.7194 4.7443 17.8066 4.8105 17.8574C5.07351 18.0592 5.40661 18.1488 5.7353 18.1055C5.83897 18.0918 5.98601 18.0448 6.30171 17.8779C7.00265 17.5075 7.86773 17.4804 8.5937 17.8994C9.31977 18.3186 9.72911 19.0817 9.75874 19.874C9.7721 20.2311 9.80563 20.3818 9.84565 20.4785C9.97254 20.7846 10.2154 21.0284 10.5214 21.1553C10.5986 21.1872 10.7163 21.216 10.957 21.2324C11.2044 21.2493 11.5239 21.25 12 21.25C12.4759 21.25 12.7956 21.2493 13.0429 21.2324C13.2836 21.216 13.4014 21.1872 13.4785 21.1553C13.7848 21.0284 14.0284 20.7847 14.1552 20.4785C14.1953 20.3818 14.2278 20.2311 14.2412 19.874C14.2708 19.0816 14.6803 18.3186 15.4062 17.8994C16.1322 17.4804 16.9973 17.5075 17.6982 17.8779C18.0137 18.0446 18.161 18.0917 18.2646 18.1055C18.5933 18.1487 18.9264 18.0593 19.1894 17.8574C19.2557 17.8066 19.3401 17.7194 19.4746 17.5195C19.6129 17.3137 19.7728 17.0371 20.0107 16.625C20.2488 16.2126 20.4084 15.9356 20.5175 15.7129C20.6236 15.4962 20.657 15.3797 20.6679 15.2969C20.7111 14.9683 20.6216 14.636 20.4199 14.373C20.3562 14.29 20.242 14.1862 19.9394 13.9961C19.2681 13.5742 18.8125 12.8383 18.8125 12C18.8126 11.1618 19.2682 10.4258 19.9394 10.0039C20.2421 9.81383 20.3562 9.70992 20.4199 9.62695C20.6216 9.36402 20.7111 9.03171 20.6679 8.70313C20.657 8.62033 20.6236 8.5038 20.5175 8.28711C20.4084 8.06436 20.2488 7.78741 20.0107 7.375C19.7728 6.96288 19.6129 6.68629 19.4746 6.48047C19.3401 6.28048 19.2557 6.19345 19.1894 6.14258C18.9265 5.94087 18.5941 5.85142 18.2656 5.89453C18.162 5.90818 18.0141 5.95509 17.6982 6.12207C16.9973 6.49243 16.1321 6.51969 15.4062 6.10059C14.6801 5.6814 14.2708 4.91836 14.2412 4.12598C14.2278 3.76888 14.1953 3.61809 14.1552 3.52149C14.0284 3.21521 13.7848 2.97159 13.4785 2.84473C13.4014 2.81278 13.2836 2.784 13.0429 2.76758C12.7956 2.75072 12.4759 2.75 12 2.75ZM12 8.25C14.071 8.25 15.7499 9.92893 15.75 12C15.75 14.0711 14.0711 15.75 12 15.75C9.92896 15.7499 8.24995 14.0711 8.24995 12C8.24995 9.92898 9.92896 8.25008 12 8.25ZM12 9.75C10.7574 9.75008 9.74995 10.7574 9.74995 12C9.74995 13.2426 10.7574 14.2499 12 14.25C13.2426 14.25 14.25 13.2426 14.25 12C14.2499 10.7574 13.2425 9.75 12 9.75Z" fill="#48465C"/>
</svg>
