<svg width="24" height="24" viewBox="0 0 24 24" fill="none" xmlns="http://www.w3.org/2000/svg">
<path fill-rule="evenodd" clip-rule="evenodd" d="M12.5003 2C13.439 2 13.9083 2.00016 14.2786 2.15234C14.7723 2.35531 15.1649 2.74442 15.3694 3.23438C15.4628 3.45802 15.4996 3.71834 15.5139 4.09766C15.535 4.65538 15.8228 5.17212 16.3098 5.45117C16.7968 5.73018 17.3918 5.71976 17.8889 5.45898C18.2271 5.2816 18.4723 5.18296 18.7141 5.15137C19.2438 5.08217 19.7795 5.22423 20.2034 5.54688C20.5215 5.78904 20.7564 6.19305 21.2259 7C21.6952 7.80671 21.9302 8.21022 21.9827 8.60449C22.0524 9.13039 21.9086 9.66321 21.5833 10.084C21.4347 10.276 21.2264 10.4377 20.9026 10.6396C20.4265 10.9365 20.1194 11.4419 20.1194 12C20.1194 12.5581 20.4265 13.0635 20.9026 13.3604C21.2264 13.5622 21.4347 13.7241 21.5833 13.916C21.9085 14.3367 22.0522 14.8688 21.9827 15.3945C21.9303 15.7889 21.6954 16.193 21.2259 17C20.7564 17.807 20.5215 18.2109 20.2034 18.4531C19.7795 18.7758 19.2438 18.9179 18.7141 18.8486C18.4723 18.817 18.2271 18.7183 17.8889 18.541C17.3918 18.2802 16.7968 18.2698 16.3098 18.5488C15.8228 18.8279 15.5349 19.3446 15.5139 19.9023C15.4996 20.2817 15.4628 20.542 15.3694 20.7656C15.1649 21.2555 14.7723 21.6447 14.2786 21.8477C13.9083 21.9998 13.439 22 12.5003 22C11.5613 22 11.0913 21.9999 10.721 21.8477C10.2273 21.6446 9.83466 21.2555 9.63015 20.7656C9.5368 20.542 9.5009 20.2816 9.4866 19.9023C9.46558 19.3445 9.17674 18.8279 8.68972 18.5488C8.20287 18.2701 7.60861 18.2804 7.1116 18.541C6.77332 18.7184 6.52731 18.817 6.28542 18.8486C5.75577 18.9177 5.22004 18.7758 4.79617 18.4531C4.47815 18.211 4.2432 17.807 3.77371 17C3.30423 16.193 3.06919 15.7889 3.01687 15.3945C2.94727 14.8688 3.09102 14.3367 3.41628 13.916C3.56479 13.724 3.77409 13.5624 4.09792 13.3604C4.57385 13.0634 4.88012 12.5579 4.88015 12C4.88018 11.4419 4.5741 10.9357 4.09792 10.6387C3.77411 10.4367 3.56478 10.276 3.41628 10.084C3.09091 9.66314 2.9471 9.13038 3.01687 8.60449C3.06928 8.21019 3.3044 7.80672 3.77371 7C4.2432 6.19297 4.47815 5.78906 4.79617 5.54688C5.22016 5.22407 5.75658 5.08214 6.2864 5.15137C6.52814 5.18304 6.77352 5.28165 7.1116 5.45898C7.60857 5.71958 8.20288 5.72993 8.68972 5.45117C9.17671 5.17213 9.46559 4.65535 9.4866 4.09766C9.50091 3.71835 9.53681 3.45802 9.63015 3.23438C9.83467 2.74443 10.2273 2.35534 10.721 2.15234C11.0913 2.0001 11.5613 2 12.5003 2ZM12.5003 9C10.8308 9 9.47683 10.3431 9.47683 12C9.47683 13.6569 10.8308 15 12.5003 15C14.1696 14.9998 15.5227 13.6568 15.5227 12C15.5227 10.3432 14.1696 9.00018 12.5003 9Z" fill="#48465C"/>
</svg>
