<svg width="24" height="24" viewBox="0 0 24 24" fill="none" xmlns="http://www.w3.org/2000/svg">
<path d="M12.5004 2C13.4391 2 13.9085 2.00015 14.2787 2.15234C14.7724 2.35531 15.165 2.74441 15.3695 3.23438C15.4629 3.45802 15.4998 3.71834 15.5141 4.09766C15.5352 4.65538 15.823 5.17212 16.31 5.45117C16.7969 5.73016 17.3919 5.71975 17.8891 5.45898C18.2272 5.28161 18.4724 5.18296 18.7143 5.15137C19.2439 5.08218 19.7796 5.22423 20.2035 5.54688C20.5216 5.78904 20.7565 6.19304 21.226 7C21.6953 7.80671 21.9303 8.21022 21.9828 8.60449C22.0525 9.13039 21.9087 9.66321 21.5834 10.084C21.4348 10.276 21.2256 10.4377 20.9018 10.6396C20.426 10.9366 20.1195 11.4421 20.1195 12C20.1196 12.5578 20.426 13.0634 20.9018 13.3604C21.2256 13.5622 21.4348 13.724 21.5834 13.916C21.9086 14.3367 22.0524 14.8688 21.9828 15.3945C21.9304 15.7889 21.6955 16.193 21.226 17C20.7565 17.807 20.5216 18.2109 20.2035 18.4531C19.7796 18.7758 19.2439 18.9178 18.7143 18.8486C18.4724 18.817 18.2272 18.7183 17.8891 18.541C17.3919 18.2802 16.7969 18.2698 16.31 18.5488C15.823 18.8279 15.5351 19.3446 15.5141 19.9023C15.4998 20.2817 15.4629 20.542 15.3695 20.7656C15.165 21.2556 14.7725 21.6447 14.2787 21.8477C13.9085 21.9998 13.4391 22 12.5004 22C11.5614 22 11.0914 21.9999 10.7211 21.8477C10.2274 21.6446 9.83479 21.2555 9.63027 20.7656C9.53692 20.542 9.50102 20.2816 9.48672 19.9023C9.4657 19.3445 9.17686 18.8279 8.68984 18.5488C8.203 18.2701 7.60873 18.2805 7.11172 18.541C6.77344 18.7184 6.52744 18.817 6.28555 18.8486C5.75589 18.9177 5.22017 18.7758 4.79629 18.4531C4.47827 18.211 4.24332 17.807 3.77383 17C3.30435 16.193 3.06931 15.7889 3.01699 15.3945C2.94739 14.8688 3.09114 14.3367 3.41641 13.916C3.56491 13.724 3.77422 13.5624 4.09805 13.3604C4.57396 13.0634 4.88024 12.5579 4.88027 12C4.8803 11.4419 4.57421 10.9357 4.09805 10.6387C3.77424 10.4367 3.5649 10.276 3.41641 10.084C3.09104 9.66314 2.94722 9.13038 3.01699 8.60449C3.0694 8.21019 3.30452 7.80673 3.77383 7C4.24332 6.19297 4.47827 5.78906 4.79629 5.54688C5.22016 5.22417 5.75587 5.08227 6.28555 5.15137C6.52745 5.18297 6.77341 5.28152 7.11172 5.45898C7.60869 5.71957 8.203 5.72994 8.68984 5.45117C9.17683 5.17213 9.46571 4.65535 9.48672 4.09766C9.50103 3.71835 9.53693 3.45802 9.63027 3.23438C9.83479 2.74442 10.2274 2.35534 10.7211 2.15234C11.0914 2.0001 11.5614 2 12.5004 2ZM12.5004 9C10.8309 9 9.47695 10.3431 9.47695 12C9.47695 13.6569 10.8309 15 12.5004 15C14.1697 14.9998 15.5229 13.6568 15.5229 12C15.5229 10.3432 14.1697 9.00019 12.5004 9Z" fill="#48465C"/>
</svg>
