<svg width="24" height="24" viewBox="0 0 24 24" fill="none" xmlns="http://www.w3.org/2000/svg">
<path fill-rule="evenodd" clip-rule="evenodd" d="M15.1553 12.2715C15.9735 13.036 17.0714 13.5 18.2686 13.5C19.0856 13.5 19.8449 13.2876 20.5 12.9189V14C20.5 17.7711 20.4997 19.6566 19.3281 20.8281C18.3851 21.7711 16.9795 21.9554 14.5 21.9912V18.5C14.5 17.5654 14.4998 17.098 14.2988 16.75C14.1673 16.522 13.9779 16.3329 13.75 16.2012C13.4019 16.0003 12.9345 16 12 16C11.0654 16 10.5981 16.0003 10.25 16.2012C10.0221 16.3329 9.83281 16.5219 9.70118 16.75C9.50023 17.098 9.50001 17.5653 9.50001 18.5V21.9912C7.0206 21.9554 5.61497 21.771 4.67189 20.8281C3.50035 19.6566 3.50001 17.7711 3.50001 14V12.9189C4.15519 13.2877 4.91438 13.5 5.73146 13.5C6.92845 13.5 8.0256 13.0358 8.84376 12.2715C9.67109 13.0316 10.7767 13.5 12 13.5C13.2233 13.4999 14.328 13.0316 15.1553 12.2715ZM16.582 2C17.49 2 17.9446 1.9997 18.334 2.10645C19.1544 2.33143 19.8402 2.89491 20.2217 3.65527C20.4026 4.01612 20.4919 4.46137 20.6699 5.35156L21.2686 8.34082C21.6472 10.2337 20.1989 11.9999 18.2686 12C16.6969 12 15.381 10.8089 15.2246 9.24512L15.1514 8.51758C15.3377 10.382 13.8737 11.9998 12 12C10.1387 12 8.68165 10.4033 8.84474 8.55469L8.7754 9.24512C8.61902 10.8089 7.30308 12 5.73146 12C3.80101 12 2.35287 10.2338 2.73146 8.34082L3.33009 5.35156C3.50808 4.4616 3.59649 4.01607 3.77735 3.65527C4.15882 2.89484 4.84556 2.33139 5.66603 2.10645C6.05542 1.9997 6.50996 2 7.41798 2H16.582Z" fill="#48465C"/>
</svg>
