<svg width="24" height="24" viewBox="0 0 24 24" fill="none" xmlns="http://www.w3.org/2000/svg">
<path d="M16.6934 1.25002C17.4941 1.24976 18.0439 1.24992 18.5322 1.38381C19.5577 1.66501 20.4158 2.368 20.8926 3.31838C21.1197 3.77109 21.227 4.31032 21.3838 5.09572L22.0039 8.19436C22.2353 9.35219 21.9178 10.4719 21.25 11.3115V14.0567C21.25 15.8943 21.2498 17.3501 21.0967 18.4893C20.939 19.6616 20.6067 20.6101 19.8584 21.3584C19.1101 22.1067 18.1616 22.4391 16.9893 22.5967C15.8501 22.7499 14.3943 22.7501 12.5567 22.75H11.4434C9.6057 22.7501 8.14993 22.7499 7.01076 22.5967C5.83844 22.4391 4.88994 22.1068 4.14162 21.3584C3.3933 20.6101 3.06096 19.6616 2.90333 18.4893C2.75017 17.3501 2.74999 15.8943 2.75001 14.0567V11.3115C2.08224 10.472 1.76467 9.35222 1.99611 8.19436L2.61623 5.09572C2.77303 4.31033 2.88034 3.77108 3.10744 3.31838C3.58426 2.36799 4.44235 1.66499 5.46779 1.38381C5.95619 1.24992 6.50588 1.24976 7.30666 1.25002H16.6934ZM12 16.75C11.5189 16.75 11.2081 16.7512 10.9727 16.7725C10.7476 16.7929 10.6659 16.827 10.625 16.8506C10.511 16.9165 10.4164 17.0111 10.3506 17.125C10.327 17.1659 10.2929 17.2476 10.2725 17.4727C10.2511 17.7082 10.25 18.0189 10.25 18.5V21.2481C10.6384 21.25 11.0541 21.25 11.5 21.25H12.5C12.9459 21.25 13.3616 21.25 13.75 21.2481V18.5C13.75 18.0189 13.7489 17.7082 13.7276 17.4727C13.7071 17.2477 13.673 17.1659 13.6494 17.125C13.5836 17.0111 13.489 16.9165 13.375 16.8506C13.3341 16.827 13.2524 16.7929 13.0274 16.7725C12.7919 16.7512 12.4811 16.75 12 16.75ZM15.1621 11.1455C14.4527 12.1138 13.3067 12.7499 12 12.75C10.6934 12.75 9.54741 12.1136 8.83791 11.1455C8.1443 12.1213 7.00538 12.75 5.73146 12.75C5.2026 12.75 4.70288 12.6434 4.25001 12.4522V14C4.25001 15.9068 4.25152 17.2614 4.38966 18.2891C4.52492 19.2952 4.77895 19.8747 5.20216 20.2979C5.62537 20.7212 6.20487 20.9751 7.21095 21.1104C7.65641 21.1703 8.16334 21.2041 8.75001 21.2237V18.4678C8.74999 18.0282 8.75017 17.6491 8.77833 17.3379C8.80817 17.0087 8.8744 16.6823 9.05177 16.375C9.24923 16.0331 9.53306 15.7492 9.87501 15.5518C10.1821 15.3745 10.5079 15.3083 10.8369 15.2783C11.1482 15.2501 11.528 15.25 11.9678 15.25H12.0322C12.472 15.25 12.8518 15.2501 13.1631 15.2783C13.492 15.3083 13.818 15.3745 14.125 15.5518C14.467 15.7492 14.7508 16.0331 14.9483 16.375C15.1256 16.6823 15.1919 17.0087 15.2217 17.3379C15.2499 17.6491 15.25 18.0282 15.25 18.4678V21.2237C15.8366 21.2041 16.3436 21.1703 16.7891 21.1104C17.7952 20.9751 18.3747 20.7212 18.7979 20.2979C19.221 19.8747 19.4751 19.2952 19.6104 18.2891C19.7484 17.2614 19.75 15.9068 19.75 14V12.4522C19.2971 12.6434 18.7974 12.75 18.2686 12.75C16.9945 12.75 15.8556 12.1214 15.1621 11.1455ZM7.41798 2.75002C6.46353 2.75002 6.13239 2.7566 5.86427 2.8301C5.24901 2.99883 4.73433 3.42096 4.44826 3.99123C4.32362 4.23969 4.25255 4.56252 4.06544 5.49807L3.46681 8.4883C3.18123 9.91704 4.27442 11.25 5.73146 11.25C6.91772 11.25 7.91119 10.3512 8.02931 9.17092L8.09767 8.4844L8.10158 8.4424L8.67091 2.75002H7.41798ZM10.1787 2.75002L9.59083 8.62502C9.46891 10.0342 10.5809 11.25 12 11.25C13.4301 11.2499 14.5476 10.0149 14.4053 8.59182L13.8213 2.75002H10.1787ZM15.9707 9.17092C16.0889 10.3512 17.0823 11.25 18.2686 11.25C19.7255 11.25 20.8187 9.91703 20.5332 8.4883L19.9346 5.49807C19.7476 4.56256 19.6764 4.23968 19.5518 3.99123C19.2657 3.42097 18.7509 2.99884 18.1358 2.8301C17.8676 2.7566 17.5365 2.75002 16.582 2.75002H15.3291L15.9707 9.17092Z" fill="#48465C"/>
</svg>
