<svg width="24" height="24" viewBox="0 0 24 24" fill="none" xmlns="http://www.w3.org/2000/svg">
<path fill-rule="evenodd" clip-rule="evenodd" d="M19.4697 14.4697C19.7626 14.1768 20.2374 14.1768 20.5303 14.4697L22.5303 16.4697C22.8231 16.7626 22.8232 17.2373 22.5303 17.5302L20.5303 19.5302C20.2374 19.8231 19.7626 19.8231 19.4697 19.5302C19.1768 19.2373 19.1769 18.7626 19.4697 18.4697L20.1895 17.7499H17.2598C16.7147 17.75 16.3384 17.7499 15.9824 17.6806C15.1829 17.525 14.4559 17.1133 13.9111 16.5078C13.6685 16.2381 13.4748 15.9159 13.1943 15.4482C13.182 15.4277 13.1698 15.4068 13.1572 15.3857C12.9441 15.0305 13.0589 14.5695 13.4141 14.3564C13.7692 14.1434 14.2303 14.259 14.4434 14.6142C14.7754 15.1677 14.8928 15.3563 15.0264 15.5048C15.3532 15.868 15.789 16.1155 16.2686 16.2089C16.4646 16.247 16.6866 16.2499 17.332 16.2499H20.1895L19.4697 15.5302C19.1768 15.2373 19.1769 14.7626 19.4697 14.4697ZM19.4697 4.46967C19.7626 4.17678 20.2374 4.17678 20.5303 4.46967L22.5303 6.46967C22.8231 6.76256 22.8232 7.23734 22.5303 7.53021L20.5303 9.53021C20.2374 9.82308 19.7626 9.82308 19.4697 9.53021C19.1768 9.23734 19.1769 8.76256 19.4697 8.46967L20.1895 7.74994H18.3975C17.5535 7.74994 16.9729 7.75052 16.5166 7.79486C16.0768 7.83764 15.8106 7.91695 15.5898 8.04193C15.3691 8.16695 15.1644 8.35465 14.9014 8.7099C14.6287 9.07826 14.3297 9.57511 13.8955 10.2988L11.3721 14.5038C10.9612 15.1887 10.6258 15.7488 10.3047 16.1826C9.96911 16.6358 9.61613 16.9984 9.14941 17.2626C8.68246 17.527 8.18947 17.6426 7.62793 17.6972C7.0908 17.7494 6.43811 17.7499 5.63965 17.7499H2C1.58581 17.7499 1.25003 17.4141 1.25 16.9999C1.25 16.5857 1.58579 16.2499 2 16.2499H5.60254C6.44653 16.2499 7.02719 16.2494 7.4834 16.205C7.92319 16.1623 8.18941 16.083 8.41016 15.9579C8.63093 15.833 8.83561 15.6453 9.09863 15.29C9.37135 14.9217 9.67031 14.4247 10.1045 13.7011L12.6279 9.49603C13.0387 8.81133 13.3742 8.25108 13.6953 7.81732C14.031 7.36395 14.3837 7.00064 14.8506 6.73627C15.3175 6.47189 15.8106 6.35628 16.3721 6.3017C16.9092 6.24951 17.562 6.24993 18.3604 6.24994H20.1895L19.4697 5.53021C19.1768 5.23734 19.1769 4.76256 19.4697 4.46967ZM6.74023 6.24994C7.28539 6.24981 7.66156 6.25001 8.01758 6.31928C8.81704 6.47489 9.54409 6.88666 10.0889 7.49213C10.3314 7.7618 10.5252 8.08408 10.8057 8.5517C10.8179 8.5722 10.8302 8.59313 10.8428 8.6142C11.0558 8.9693 10.9409 9.42935 10.5859 9.64252C10.2307 9.85563 9.76975 9.74087 9.55664 9.38568C9.2245 8.83212 9.10725 8.64357 8.97363 8.49506C8.6468 8.13189 8.21102 7.88431 7.73145 7.79096C7.53536 7.75279 7.3134 7.74994 6.66797 7.74994H2C1.58581 7.74994 1.25003 7.41412 1.25 6.99994C1.25 6.58573 1.58579 6.24994 2 6.24994H6.74023Z" fill="#48465C"/>
</svg>
