<svg width="24" height="24" viewBox="0 0 24 24" fill="none" xmlns="http://www.w3.org/2000/svg">
<path fill-rule="evenodd" clip-rule="evenodd" d="M11.9999 1.25C12.4141 1.25004 12.7499 1.58582 12.7499 2V2.75H17.538C18.2075 2.74998 18.7663 2.74991 19.2187 2.7959C19.692 2.84407 20.1313 2.9493 20.5273 3.21387C20.8276 3.41451 21.0855 3.67239 21.2861 3.97266C21.5506 4.3686 21.6558 4.80786 21.704 5.28125C21.75 5.73355 21.7499 6.29245 21.7499 6.96191V7.03809C21.7499 7.70755 21.75 8.26645 21.704 8.71875C21.6558 9.19215 21.5506 9.63141 21.2861 10.0273C21.0855 10.3276 20.8276 10.5855 20.5273 10.7861C20.1313 11.0507 19.692 11.156 19.2187 11.2041C18.7663 11.2501 18.2075 11.25 17.538 11.25H12.7499V11.75H17.3935C17.9555 11.7495 18.3989 11.749 18.8163 11.8848C18.9991 11.9443 19.1753 12.0229 19.3417 12.1191C19.7216 12.3389 20.0175 12.6694 20.3925 13.0879L20.4823 13.1875C20.8871 13.6382 21.2264 14.0162 21.4736 14.3516C21.7334 14.7041 21.9356 15.0674 22.0156 15.5C22.0767 15.8306 22.0767 16.1694 22.0156 16.5C21.9356 16.9326 21.7334 17.2959 21.4736 17.6484C21.2265 17.9838 20.8872 18.3618 20.4823 18.8125L20.3925 18.9121C20.0175 19.3306 19.7216 19.6611 19.3417 19.8809C19.1753 19.9771 18.9991 20.0557 18.8163 20.1152C18.3989 20.251 17.9555 20.2505 17.3935 20.25H12.7499V21.25H13.9999C14.4141 21.25 14.7499 21.5858 14.7499 22C14.7499 22.4142 14.4141 22.75 13.9999 22.75H9.99992C9.58572 22.75 9.24993 22.4142 9.24993 22C9.24993 21.5858 9.58572 21.25 9.99992 21.25H11.2499V20.25H6.46184C5.79242 20.25 5.23345 20.2501 4.78118 20.2041C4.30771 20.156 3.8676 20.0507 3.4716 19.7861C3.17153 19.5856 2.91334 19.3275 2.71282 19.0273C2.44848 18.6315 2.34397 18.192 2.29582 17.7188C2.24984 17.2664 2.24991 16.7076 2.24993 16.0381V15.9619C2.24991 15.2924 2.24984 14.7336 2.29582 14.2812C2.34397 13.808 2.44848 13.3685 2.71282 12.9727C2.91334 12.6725 3.17153 12.4144 3.4716 12.2139C3.8676 11.9493 4.30771 11.844 4.78118 11.7959C5.23345 11.7499 5.79243 11.75 6.46184 11.75H11.2499V11.25H6.60637C6.04434 11.2505 5.60092 11.251 5.18352 11.1152C5.00069 11.0557 4.82458 10.9771 4.65813 10.8809C4.27817 10.6611 3.98155 10.3306 3.60637 9.91211L3.5175 9.8125C3.11275 9.36178 2.77342 8.98384 2.52629 8.64844C2.26654 8.29589 2.06335 7.93262 1.98332 7.5C1.92223 7.16951 1.92223 6.83049 1.98332 6.5C2.06335 6.06738 2.26654 5.70411 2.52629 5.35156C2.77341 5.01617 3.11276 4.63822 3.5175 4.1875L3.60637 4.08789C3.98156 3.66942 4.27817 3.33894 4.65813 3.11914C4.82458 3.0229 5.00068 2.94428 5.18352 2.88477C5.60092 2.74891 6.04434 2.74957 6.60637 2.75H11.2499V2C11.2499 1.58579 11.5857 1.25 11.9999 1.25ZM6.49993 13.25C5.78209 13.25 5.29994 13.2507 4.93254 13.2881C4.57778 13.3242 4.41403 13.3885 4.30559 13.4609C4.16912 13.5521 4.05206 13.6692 3.96086 13.8057C3.88841 13.9141 3.82411 14.0779 3.78801 14.4326C3.75064 14.8 3.74993 15.2822 3.74993 16C3.74993 16.7178 3.75064 17.2 3.78801 17.5674C3.82411 17.9221 3.88841 18.0859 3.96086 18.1943C4.05206 18.3308 4.16912 18.4479 4.30559 18.5391C4.41403 18.6115 4.57778 18.6758 4.93254 18.7119C5.29994 18.7493 5.78209 18.75 6.49993 18.75H17.2958C18.0018 18.75 18.1894 18.7412 18.3515 18.6885C18.4347 18.6614 18.5151 18.6258 18.5907 18.582C18.7383 18.4966 18.8699 18.3624 19.3417 17.8369C19.7769 17.3524 20.0676 17.0288 20.2665 16.7588C20.4576 16.4995 20.5186 16.3484 20.5409 16.2275C20.5688 16.0772 20.5688 15.9228 20.5409 15.7725C20.5186 15.6516 20.4576 15.5005 20.2665 15.2412C20.0676 14.9712 19.7769 14.6476 19.3417 14.1631C18.8699 13.6376 18.7383 13.5034 18.5907 13.418C18.5151 13.3742 18.4347 13.3386 18.3515 13.3115C18.1894 13.2588 18.0018 13.25 17.2958 13.25H6.49993ZM14.9999 15.25C15.4141 15.25 15.7499 15.5858 15.7499 16C15.7499 16.4142 15.4141 16.75 14.9999 16.75H8.99993C8.58572 16.75 8.24993 16.4142 8.24993 16C8.24993 15.5858 8.58572 15.25 8.99993 15.25H14.9999ZM6.70403 4.25C5.99831 4.25 5.81044 4.25885 5.64836 4.31152C5.56525 4.33857 5.48478 4.37421 5.4091 4.41797C5.26149 4.50336 5.13 4.63759 4.65813 5.16309C4.22296 5.64771 3.93222 5.97124 3.73332 6.24121C3.54222 6.50059 3.48132 6.65154 3.45891 6.77246C3.43111 6.92277 3.43111 7.07723 3.45891 7.22754C3.48132 7.34846 3.54222 7.49941 3.73332 7.75879C3.93222 8.02875 4.22296 8.35229 4.65813 8.83691C5.13 9.3624 5.26149 9.49664 5.4091 9.58203C5.48478 9.62579 5.56525 9.66143 5.64836 9.68848C5.81044 9.74115 5.99831 9.75 6.70403 9.75H17.4999C18.2177 9.75 18.6999 9.74928 19.0673 9.71191C19.4219 9.67581 19.5858 9.61151 19.6943 9.53906C19.8306 9.44787 19.9478 9.3308 20.039 9.19434C20.1115 9.0859 20.1757 8.92211 20.2118 8.56738C20.2492 8.19998 20.2499 7.71784 20.2499 7C20.2499 6.28216 20.2492 5.80002 20.2118 5.43262C20.1757 5.07789 20.1115 4.9141 20.039 4.80566C19.9478 4.6692 19.8306 4.55213 19.6943 4.46094C19.5858 4.38849 19.4219 4.32419 19.0673 4.28809C18.6999 4.25072 18.2177 4.25 17.4999 4.25H6.70403ZM14.9999 6.25C15.4141 6.25004 15.7499 6.58582 15.7499 7C15.7499 7.41418 15.4141 7.74996 14.9999 7.75H8.99993C8.58572 7.75 8.24993 7.41421 8.24993 7C8.24993 6.58579 8.58572 6.25 8.99993 6.25H14.9999Z" fill="#48465C"/>
</svg>
