<svg width="24" height="24" viewBox="0 0 24 24" fill="none" xmlns="http://www.w3.org/2000/svg">
<path fill-rule="evenodd" clip-rule="evenodd" d="M12 1.25C12.4142 1.25 12.75 1.58579 12.75 2V3.5H17.5C18.9045 3.5 19.607 3.49987 20.1114 3.83691C20.3297 3.98281 20.5172 4.17034 20.6631 4.38867C21.0002 4.89312 21 5.59554 21 7C21 8.40446 21.0002 9.10688 20.6631 9.61133C20.5172 9.82966 20.3297 10.0172 20.1114 10.1631C19.607 10.5002 18.9045 10.5 17.5 10.5H12.75V12.5H17.2959C17.9535 12.5 18.2824 12.5005 18.584 12.5986C18.7171 12.6419 18.8457 12.6985 18.9668 12.7686C19.2415 12.9274 19.4612 13.172 19.9004 13.6611C20.7509 14.6081 21.1758 15.0824 21.2784 15.6357C21.3229 15.8762 21.3229 16.1238 21.2784 16.3643C21.1758 16.9176 20.7509 17.3919 19.9004 18.3389C19.4612 18.828 19.2415 19.0726 18.9668 19.2314C18.8457 19.3015 18.7171 19.3581 18.584 19.4014C18.2824 19.4995 17.9535 19.5 17.2959 19.5H12.75V21.25H14C14.4142 21.25 14.75 21.5858 14.75 22C14.75 22.4142 14.4142 22.75 14 22.75H10C9.58591 22.7499 9.25004 22.4141 9.25004 22C9.25004 21.5859 9.58591 21.2501 10 21.25H11.25V19.5H6.50004C5.09569 19.5 4.39315 19.5002 3.88871 19.1631C3.67041 19.0172 3.48284 18.8297 3.33696 18.6113C2.9999 18.1069 3.00004 17.4045 3.00004 16C3.00004 14.5955 2.9999 13.8931 3.33696 13.3887C3.48284 13.1703 3.67041 12.9828 3.88871 12.8369C4.39315 12.4998 5.09569 12.5 6.50004 12.5H11.25V10.5H6.70414C6.04661 10.5 5.71776 10.4996 5.41606 10.4014C5.28302 10.3581 5.15436 10.3015 5.03325 10.2314C4.75871 10.0725 4.53885 9.82797 4.09965 9.33887C3.24919 8.39176 2.82427 7.91763 2.72172 7.36426C2.67723 7.12376 2.67723 6.87624 2.72172 6.63574C2.82427 6.08237 3.24919 5.60824 4.09965 4.66113C4.53885 4.17204 4.75871 3.92743 5.03325 3.76855C5.15436 3.6985 5.28302 3.64195 5.41606 3.59863C5.71776 3.50044 6.04661 3.5 6.70414 3.5H11.25V2C11.25 1.58584 11.5859 1.25009 12 1.25ZM9.00004 15.25C8.58591 15.2501 8.25004 15.5859 8.25004 16C8.25004 16.4141 8.58591 16.7499 9.00004 16.75H15C15.4142 16.75 15.75 16.4142 15.75 16C15.75 15.5858 15.4142 15.25 15 15.25H9.00004ZM9.00004 6.25C8.58591 6.25009 8.25004 6.58584 8.25004 7C8.25004 7.41416 8.58591 7.74991 9.00004 7.75H15C15.4142 7.75 15.75 7.41421 15.75 7C15.75 6.58579 15.4142 6.25 15 6.25H9.00004Z" fill="#48465C"/>
</svg>
