<svg width="24" height="24" viewBox="0 0 24 24" fill="none" xmlns="http://www.w3.org/2000/svg">
<path d="M12 1.25C12.4142 1.25 12.75 1.58579 12.75 2V3.5H17.5C18.9045 3.5 19.6069 3.49987 20.1113 3.83691C20.3297 3.98281 20.5172 4.17034 20.6631 4.38867C21.0002 4.89312 21 5.59554 21 7C21 8.40446 21.0002 9.10688 20.6631 9.61133C20.5172 9.82966 20.3297 10.0172 20.1113 10.1631C19.6069 10.5002 18.9044 10.5 17.5 10.5H12.75V12.5H17.2959C17.9534 12.5 18.2823 12.5005 18.584 12.5986C18.7171 12.6419 18.8457 12.6985 18.9668 12.7686C19.2414 12.9274 19.4611 13.172 19.9004 13.6611C20.7508 14.6081 21.1757 15.0824 21.2783 15.6357C21.3228 15.8762 21.3228 16.1238 21.2783 16.3643C21.1757 16.9176 20.7508 17.3919 19.9004 18.3389C19.4611 18.828 19.2414 19.0726 18.9668 19.2314C18.8457 19.3015 18.7171 19.3581 18.584 19.4014C18.2823 19.4995 17.9534 19.5 17.2959 19.5H12.75V21.25H14C14.4142 21.25 14.75 21.5858 14.75 22C14.75 22.4142 14.4142 22.75 14 22.75H9.99998C9.58584 22.7499 9.24998 22.4141 9.24998 22C9.24998 21.5859 9.58584 21.2501 9.99998 21.25H11.25V19.5H6.49998C5.09563 19.5 4.39308 19.5002 3.88865 19.1631C3.67035 19.0172 3.48278 18.8297 3.3369 18.6113C2.99984 18.1069 2.99998 17.4045 2.99998 16C2.99998 14.5955 2.99984 13.8931 3.3369 13.3887C3.48278 13.1703 3.67034 12.9828 3.88865 12.8369C4.39308 12.4998 5.09563 12.5 6.49998 12.5H11.25V10.5H6.70408C6.04655 10.5 5.7177 10.4996 5.416 10.4014C5.28296 10.3581 5.1543 10.3015 5.03318 10.2314C4.75865 10.0725 4.53879 9.82797 4.09959 9.33887C3.24913 8.39176 2.82421 7.91763 2.72166 7.36426C2.67717 7.12376 2.67717 6.87624 2.72166 6.63574C2.82421 6.08237 3.24913 5.60824 4.09959 4.66113C4.53878 4.17204 4.75865 3.92743 5.03318 3.76855C5.1543 3.6985 5.28296 3.64195 5.416 3.59863C5.7177 3.50044 6.04655 3.5 6.70408 3.5H11.25V2C11.25 1.58584 11.5859 1.25009 12 1.25ZM8.99998 15.25C8.58584 15.2501 8.24998 15.5859 8.24998 16C8.24998 16.4141 8.58584 16.7499 8.99998 16.75H15C15.4142 16.75 15.75 16.4142 15.75 16C15.75 15.5858 15.4142 15.25 15 15.25H8.99998ZM8.99998 6.25C8.58584 6.25009 8.24998 6.58584 8.24998 7C8.24998 7.41416 8.58584 7.74991 8.99998 7.75H15C15.4142 7.75 15.75 7.41421 15.75 7C15.75 6.58579 15.4142 6.25 15 6.25H8.99998Z" fill="#48465C"/>
</svg>
