<svg width="24" height="24" viewBox="0 0 24 24" fill="none" xmlns="http://www.w3.org/2000/svg">
<path d="M7 13C8.10456 13 8.99999 13.8954 9 15C9 16.1045 8.10457 17 7 17C5.89544 17 5 16.1045 5 15C5.00002 13.8954 5.89545 13 7 13ZM17 13C18.1045 13 19 13.8954 19 15C19 16.1045 18.1045 17 17 17C15.8954 17 15 16.1045 15 15C15 13.8954 15.8954 13 17 13ZM21.376 6.58401C21.6058 6.23945 22.0713 6.14636 22.416 6.376C22.7606 6.60577 22.8538 7.0714 22.624 7.41604L21.8115 8.63479C20.9305 9.95623 19.4476 10.75 17.8594 10.75H6.14063C4.55253 10.75 3.06941 9.95617 2.18848 8.63479L1.37598 7.41604C1.14633 7.07142 1.2394 6.60575 1.58399 6.376C1.9286 6.14627 2.39423 6.23947 2.62403 6.58401L3.43653 7.80276C4.03925 8.70684 5.05406 9.24996 6.14063 9.25003H17.8594C18.9461 9.25001 19.9607 8.7069 20.5635 7.80276L21.376 6.58401Z" fill="#48465C"/>
</svg>
