<svg width="24" height="24" viewBox="0 0 24 24" fill="none" xmlns="http://www.w3.org/2000/svg">
<path d="M6.99993 20C7.55221 20 7.99993 20.4477 7.99993 21C7.99993 21.5523 7.55221 22 6.99993 22C6.44771 21.9999 5.99993 21.5522 5.99993 21C5.99993 20.4478 6.44771 20.0001 6.99993 20ZM16.9999 20C17.5522 20 17.9999 20.4477 17.9999 21C17.9999 21.5523 17.5522 22 16.9999 22C16.4477 21.9999 15.9999 21.5522 15.9999 21C15.9999 20.4478 16.4477 20.0001 16.9999 20ZM20.4423 16.498C20.7194 16.1902 21.194 16.1653 21.5019 16.4424C21.8098 16.7195 21.8346 17.1941 21.5575 17.502L20.3534 18.8398C19.832 19.4192 19.089 19.75 18.3095 19.75H5.69035C4.91093 19.7499 4.16783 19.4191 3.64641 18.8398L2.44231 17.502C2.16528 17.1941 2.19025 16.7195 2.49797 16.4424C2.80581 16.1653 3.28042 16.1903 3.55754 16.498L4.76164 17.8359C4.9986 18.0992 5.33616 18.2499 5.69035 18.25H18.3095C18.6638 18.25 19.0011 18.0993 19.2382 17.8359L20.4423 16.498ZM11.332 5.3457C12.0229 4.91393 12.882 4.84804 13.6308 5.16895C15.3577 5.90933 15.6712 8.22371 14.204 9.39746L13.7587 9.75391C13.6755 9.82046 13.6507 9.84053 13.6357 9.85352C13.0137 10.3908 13.0708 11.3723 13.7509 11.834C13.7672 11.845 13.7996 11.8659 13.9032 11.9307L13.913 11.9365C13.982 11.9796 14.0291 12.0088 14.0702 12.0361C15.09 12.7114 15.7168 13.8418 15.7489 15.0645C15.7502 15.1137 15.7499 15.1651 15.7499 15.2393V16.5C15.7499 16.9142 15.4141 17.25 14.9999 17.25C14.5858 17.2499 14.2499 16.9142 14.2499 16.5V15.25C14.2499 15.1626 14.2496 15.1316 14.2489 15.1045C14.2296 14.3709 13.8539 13.6922 13.2421 13.2871L13.1484 13.2275C13.1366 13.2202 13.1234 13.2116 13.1083 13.2021L13.0917 13.1924C13.0113 13.1421 12.9514 13.1046 12.9081 13.0752C11.412 12.0596 11.2868 9.90092 12.6552 8.71875C12.6948 8.68455 12.7442 8.64495 12.8095 8.59277L13.2675 8.22656C13.8499 7.7607 13.7252 6.84187 13.04 6.54785C12.7427 6.42047 12.4012 6.44677 12.1269 6.61816L8.89739 8.63672C8.54616 8.85604 8.08366 8.74863 7.86418 8.39746C7.64489 8.04625 7.75131 7.58373 8.10246 7.36426L11.332 5.3457ZM10.4697 13.4697C10.7625 13.1769 11.2373 13.177 11.5302 13.4697C11.8231 13.7626 11.8231 14.2374 11.5302 14.5303C10.4292 15.6313 8.93594 16.25 7.37883 16.25H6.99993C6.58578 16.2499 6.24993 15.9141 6.24993 15.5C6.24993 15.0859 6.58578 14.7501 6.99993 14.75H7.37883C8.53809 14.75 9.64987 14.2894 10.4697 13.4697ZM20.3183 9.27246C20.72 9.17212 21.1271 9.41657 21.2275 9.81836C21.3279 10.2202 21.0835 10.627 20.6816 10.7275C19.2492 11.0856 17.7508 11.0856 16.3183 10.7275C15.9165 10.627 15.6719 10.2202 15.7724 9.81836C15.8729 9.41663 16.2799 9.17224 16.6816 9.27246C17.8753 9.57088 19.1246 9.57088 20.3183 9.27246ZM18.9999 2C20.1045 2 20.9999 2.89543 20.9999 4C20.9999 5.10457 20.1045 6 18.9999 6C17.8954 5.99991 16.9999 5.10452 16.9999 4C16.9999 2.89548 17.8954 2.00009 18.9999 2Z" fill="#48465C"/>
</svg>
