<svg width="24" height="24" viewBox="0 0 24 24" fill="none" xmlns="http://www.w3.org/2000/svg">
<path fill-rule="evenodd" clip-rule="evenodd" d="M6.99986 20C7.55214 20 7.99986 20.4477 7.99986 21C7.99986 21.5523 7.55214 22 6.99986 22C6.44765 21.9999 5.99986 21.5522 5.99986 21C5.99986 20.4478 6.44765 20.0001 6.99986 20ZM16.9999 20C17.5522 20 17.9999 20.4477 17.9999 21C17.9999 21.5523 17.5522 22 16.9999 22C16.4476 21.9999 15.9999 21.5522 15.9999 21C15.9999 20.4478 16.4476 20.0001 16.9999 20ZM20.4422 16.498C20.7193 16.1902 21.1939 16.1653 21.5018 16.4424C21.8097 16.7195 21.8346 17.1941 21.5575 17.502L20.9491 18.1777C20.0483 19.1785 18.7652 19.7499 17.4188 19.75H6.5819C5.23534 19.75 3.95145 19.1786 3.05065 18.1777L2.44225 17.502C2.16522 17.1941 2.19018 16.7195 2.49791 16.4424C2.80575 16.1653 3.28036 16.1903 3.55748 16.498L4.16588 17.1738C4.78222 17.8587 5.66057 18.25 6.5819 18.25H17.4188C18.34 18.2499 19.2175 17.8586 19.8338 17.1738L20.4422 16.498ZM11.3319 5.3457C12.0228 4.91393 12.8819 4.84804 13.6307 5.16895C15.3576 5.90924 15.6719 8.22362 14.2049 9.39746L13.7587 9.75391C13.6754 9.82051 13.6506 9.84054 13.6356 9.85352C13.0136 10.3908 13.0707 11.3723 13.7508 11.834C13.7671 11.845 13.7994 11.8658 13.9032 11.9307L13.9129 11.9365C13.9819 11.9796 14.029 12.0088 14.0702 12.0361C15.0899 12.7114 15.7167 13.8418 15.7489 15.0645C15.7502 15.1137 15.7499 15.1651 15.7499 15.2393V16.5C15.7499 16.9142 15.4141 17.25 14.9999 17.25C14.5858 17.2499 14.2499 16.9141 14.2499 16.5V15.25C14.2499 15.1626 14.2496 15.1316 14.2489 15.1045C14.2296 14.3709 13.8539 13.6922 13.2421 13.2871L13.1483 13.2275C13.1365 13.2202 13.1233 13.2114 13.1083 13.2021L13.0917 13.1924C13.0111 13.1421 12.9514 13.1046 12.9081 13.0752C11.412 12.0595 11.2867 9.90092 12.6551 8.71875C12.6947 8.68454 12.7441 8.64498 12.8094 8.59277L13.2674 8.22656C13.8498 7.76068 13.7252 6.84182 13.0399 6.54785C12.7427 6.4205 12.4021 6.44689 12.1278 6.61816L8.89733 8.63672C8.54611 8.85596 8.08358 8.7486 7.86412 8.39746C7.64489 8.04628 7.75134 7.58374 8.1024 7.36426L11.3319 5.3457ZM10.4696 13.4697C10.7625 13.1768 11.2372 13.1769 11.5301 13.4697C11.823 13.7626 11.823 14.2374 11.5301 14.5303C10.4292 15.6313 8.93588 16.25 7.37877 16.25H6.99986C6.58573 16.2499 6.24988 15.9141 6.24986 15.5C6.24986 15.0859 6.58572 14.7501 6.99986 14.75H7.37877C8.53805 14.75 9.6498 14.2895 10.4696 13.4697ZM20.3182 9.27246C20.72 9.172 21.127 9.41652 21.2274 9.81836C21.3279 10.22 21.0841 10.6269 20.6825 10.7275C19.25 11.0856 17.7508 11.0856 16.3182 10.7275C15.9166 10.627 15.6719 10.2201 15.7723 9.81836C15.8728 9.41651 16.2807 9.172 16.6825 9.27246C17.8761 9.57081 19.1246 9.57085 20.3182 9.27246ZM18.9999 1.25C20.5187 1.25 21.7499 2.48122 21.7499 4C21.7499 5.51878 20.5187 6.75 18.9999 6.75C17.4811 6.74991 16.2499 5.51873 16.2499 4C16.2499 2.48127 17.4811 1.25009 18.9999 1.25ZM18.9999 2.75C18.3095 2.75009 17.7499 3.30969 17.7499 4C17.7499 4.69031 18.3095 5.24991 18.9999 5.25C19.6903 5.25 20.2499 4.69036 20.2499 4C20.2499 3.30964 19.6903 2.75 18.9999 2.75Z" fill="#48465C"/>
</svg>
