<svg width="24" height="24" viewBox="0 0 24 24" fill="none" xmlns="http://www.w3.org/2000/svg">
<path d="M6.99994 20C7.55222 20 7.99994 20.4477 7.99994 21C7.99994 21.5523 7.55222 22 6.99994 22C6.44773 21.9999 5.99994 21.5522 5.99994 21C5.99994 20.4478 6.44773 20.0001 6.99994 20ZM16.9999 20C17.5522 20 17.9999 20.4477 17.9999 21C17.9999 21.5523 17.5522 22 16.9999 22C16.4477 21.9999 15.9999 21.5522 15.9999 21C15.9999 20.4478 16.4477 20.0001 16.9999 20ZM20.4423 16.498C20.7194 16.1902 21.194 16.1653 21.5019 16.4424C21.8098 16.7195 21.8347 17.1941 21.5576 17.502L20.9492 18.1777C20.0484 19.1785 18.7653 19.7499 17.4189 19.75H6.58198C5.23542 19.75 3.95153 19.1786 3.05073 18.1777L2.44233 17.502C2.1653 17.1941 2.19026 16.7195 2.49799 16.4424C2.80583 16.1653 3.28044 16.1903 3.55756 16.498L4.16596 17.1738C4.7823 17.8587 5.66065 18.25 6.58198 18.25H17.4189C18.3401 18.2499 19.2176 17.8586 19.8339 17.1738L20.4423 16.498ZM11.332 5.3457C12.0229 4.91393 12.882 4.84804 13.6308 5.16895C15.3577 5.90924 15.672 8.22362 14.205 9.39746L13.7587 9.75391C13.6755 9.82051 13.6507 9.84054 13.6357 9.85352C13.0137 10.3908 13.0708 11.3723 13.7509 11.834C13.7672 11.845 13.7995 11.8658 13.9033 11.9307L13.913 11.9365C13.982 11.9796 14.0291 12.0088 14.0703 12.0361C15.09 12.7114 15.7168 13.8418 15.749 15.0645C15.7503 15.1137 15.7499 15.1651 15.7499 15.2393V16.5C15.7499 16.9142 15.4141 17.25 14.9999 17.25C14.5859 17.2499 14.2499 16.9141 14.2499 16.5V15.25C14.2499 15.1626 14.2497 15.1316 14.249 15.1045C14.2297 14.3709 13.8539 13.6922 13.2421 13.2871L13.1484 13.2275C13.1366 13.2202 13.1234 13.2114 13.1083 13.2021L13.0917 13.1924C13.0112 13.1421 12.9514 13.1046 12.9081 13.0752C11.412 12.0595 11.2868 9.90092 12.6552 8.71875C12.6948 8.68454 12.7442 8.64498 12.8095 8.59277L13.2675 8.22656C13.8499 7.76068 13.7253 6.84182 13.04 6.54785C12.7428 6.4205 12.4021 6.44689 12.1279 6.61816L8.89741 8.63672C8.54619 8.85596 8.08366 8.7486 7.8642 8.39746C7.64497 8.04628 7.75142 7.58374 8.10248 7.36426L11.332 5.3457ZM10.4697 13.4697C10.7625 13.1768 11.2373 13.1769 11.5302 13.4697C11.8231 13.7626 11.8231 14.2374 11.5302 14.5303C10.4292 15.6313 8.93596 16.25 7.37885 16.25H6.99994C6.58581 16.2499 6.24996 15.9141 6.24994 15.5C6.24994 15.0859 6.5858 14.7501 6.99994 14.75H7.37885C8.53813 14.75 9.64988 14.2895 10.4697 13.4697ZM20.3183 9.27246C20.7201 9.172 21.1271 9.41652 21.2275 9.81836C21.3279 10.22 21.0842 10.6269 20.6826 10.7275C19.2501 11.0856 17.7509 11.0856 16.3183 10.7275C15.9166 10.627 15.672 10.2201 15.7724 9.81836C15.8729 9.41651 16.2808 9.172 16.6826 9.27246C17.8761 9.57081 19.1247 9.57085 20.3183 9.27246ZM18.9999 1.25C20.5187 1.25 21.7499 2.48122 21.7499 4C21.7499 5.51878 20.5187 6.75 18.9999 6.75C17.4812 6.74991 16.2499 5.51873 16.2499 4C16.2499 2.48127 17.4812 1.25009 18.9999 1.25ZM18.9999 2.75C18.3096 2.75009 17.7499 3.30969 17.7499 4C17.7499 4.69031 18.3096 5.24991 18.9999 5.25C19.6903 5.25 20.2499 4.69036 20.2499 4C20.2499 3.30964 19.6903 2.75 18.9999 2.75Z" fill="#48465C"/>
</svg>
