<svg width="24" height="24" viewBox="0 0 24 24" fill="none" xmlns="http://www.w3.org/2000/svg">
<path fill-rule="evenodd" clip-rule="evenodd" d="M6.99999 20C7.55227 20 7.99999 20.4477 7.99999 21C7.99999 21.5523 7.55227 22 6.99999 22C6.44777 21.9999 5.99999 21.5522 5.99999 21C5.99999 20.4478 6.44777 20.0001 6.99999 20ZM17 20C17.5523 20 18 20.4477 18 21C18 21.5523 17.5523 22 17 22C16.4478 21.9999 16 21.5522 16 21C16 20.4478 16.4478 20.0001 17 20ZM20.4424 16.498C20.7195 16.1902 21.194 16.1653 21.5019 16.4424C21.8098 16.7195 21.8347 17.1941 21.5576 17.502L20.3535 18.8398C19.832 19.4192 19.0891 19.75 18.3096 19.75H5.69042C4.911 19.7499 4.16789 19.4191 3.64647 18.8398L2.44237 17.502C2.16534 17.1941 2.19031 16.7195 2.49803 16.4424C2.80587 16.1653 3.28048 16.1903 3.5576 16.498L4.7617 17.8359C4.99866 18.0992 5.33623 18.2499 5.69042 18.25H18.3096C18.6638 18.25 19.0012 18.0993 19.2383 17.8359L20.4424 16.498ZM11.332 5.3457C12.0229 4.91393 12.882 4.84804 13.6308 5.16895C15.3577 5.90933 15.6713 8.22371 14.2041 9.39746L13.7588 9.75391C13.6756 9.82046 13.6508 9.84053 13.6357 9.85352C13.0137 10.3908 13.0709 11.3723 13.751 11.834C13.7673 11.845 13.7997 11.8659 13.9033 11.9307L13.9131 11.9365C13.982 11.9796 14.0291 12.0088 14.0703 12.0361C15.09 12.7114 15.7169 13.8418 15.749 15.0645C15.7503 15.1137 15.75 15.1651 15.75 15.2393V16.5C15.75 16.9142 15.4142 17.25 15 17.25C14.5858 17.2499 14.25 16.9142 14.25 16.5V15.25C14.25 15.1626 14.2497 15.1316 14.249 15.1045C14.2297 14.3709 13.854 13.6922 13.2422 13.2871L13.1484 13.2275C13.1367 13.2202 13.1235 13.2116 13.1084 13.2021L13.0918 13.1924C13.0113 13.1421 12.9515 13.1046 12.9082 13.0752C11.4121 12.0596 11.2869 9.90092 12.6553 8.71875C12.6948 8.68455 12.7443 8.64495 12.8096 8.59277L13.2676 8.22656C13.8499 7.7607 13.7252 6.84187 13.04 6.54785C12.7427 6.42047 12.4012 6.44677 12.1269 6.61816L8.89745 8.63672C8.54622 8.85604 8.08372 8.74863 7.86424 8.39746C7.64495 8.04625 7.75137 7.58373 8.10253 7.36426L11.332 5.3457ZM10.4697 13.4697C10.7626 13.1769 11.2374 13.177 11.5303 13.4697C11.8232 13.7626 11.8232 14.2374 11.5303 14.5303C10.4293 15.6313 8.936 16.25 7.37889 16.25H6.99999C6.58584 16.2499 6.24999 15.9141 6.24999 15.5C6.24999 15.0859 6.58584 14.7501 6.99999 14.75H7.37889C8.53815 14.75 9.64993 14.2894 10.4697 13.4697ZM20.3183 9.27246C20.7201 9.17212 21.1271 9.41657 21.2275 9.81836C21.328 10.2202 21.0835 10.627 20.6816 10.7275C19.2492 11.0856 17.7508 11.0856 16.3183 10.7275C15.9166 10.627 15.672 10.2202 15.7724 9.81836C15.8729 9.41663 16.2799 9.17224 16.6816 9.27246C17.8753 9.57088 19.1246 9.57088 20.3183 9.27246ZM19 2C20.1046 2 21 2.89543 21 4C21 5.10457 20.1046 6 19 6C17.8955 5.99991 17 5.10452 17 4C17 2.89548 17.8955 2.00009 19 2Z" fill="#48465C"/>
</svg>
