<svg width="24" height="24" viewBox="0 0 24 24" fill="none" xmlns="http://www.w3.org/2000/svg">
<path d="M17.7227 1.75507C18.8655 1.01734 20.161 1.13455 21.1396 1.80389C22.106 2.46501 22.75 3.64568 22.75 5.03339V18.967C22.75 20.3547 22.1061 21.5353 21.1396 22.1965C20.1609 22.8659 18.8655 22.9823 17.7227 22.2443L6.93359 15.2775C5.78331 14.5348 5.25004 13.2342 5.25 12.0002C5.25 10.766 5.78327 9.46567 6.93359 8.72284L17.7227 1.75507ZM20.292 3.04218C19.7695 2.68489 19.1299 2.63242 18.5361 3.01581L7.74707 9.98261C7.11052 10.3937 6.75 11.1638 6.75 12.0002C6.75004 12.8364 7.11056 13.6068 7.74707 14.0178L18.5361 20.9846C19.1298 21.3678 19.7696 21.3154 20.292 20.9582C20.8267 20.5925 21.25 19.8883 21.25 18.967V5.03339C21.25 4.11209 20.8267 3.40789 20.292 3.04218ZM2 4.25018C2.41421 4.25018 2.75 4.58596 2.75 5.00018V19.0002C2.74993 19.4143 2.41417 19.7502 2 19.7502C1.58583 19.7502 1.25007 19.4143 1.25 19.0002V5.00018C1.25 4.58596 1.58579 4.25018 2 4.25018Z" fill="#48465C"/>
</svg>
