<svg width="24" height="24" viewBox="0 0 24 24" fill="none" xmlns="http://www.w3.org/2000/svg">
<path d="M2.86035 1.8039C3.839 1.13455 5.13456 1.01734 6.27734 1.75507L17.0664 8.72284C18.2167 9.46567 18.75 10.766 18.75 12.0002C18.75 13.2342 18.2167 14.5348 17.0664 15.2775L6.27734 22.2443C5.13447 22.9823 3.8391 22.8659 2.86035 22.1965C1.89396 21.5353 1.25 20.3547 1.25 18.967V5.03339C1.25 3.64568 1.89402 2.46501 2.86035 1.8039ZM5.46387 3.01581C4.87016 2.63243 4.23047 2.68491 3.70801 3.04218C3.17331 3.40789 2.75 4.11209 2.75 5.03339V18.967C2.75 19.8883 3.1733 20.5925 3.70801 20.9582C4.23041 21.3154 4.87025 21.3678 5.46387 20.9846L16.2529 14.0178C16.8894 13.6068 17.25 12.8364 17.25 12.0002C17.25 11.1638 16.8894 10.3937 16.2529 9.98261L5.46387 3.01581ZM22 4.25019C22.4142 4.25019 22.75 4.58597 22.75 5.00019V19.0002C22.7499 19.4143 22.4141 19.7502 22 19.7502C21.5859 19.7502 21.2501 19.4143 21.25 19.0002V5.00019C21.25 4.58597 21.5858 4.25019 22 4.25019Z" fill="#48465C"/>
</svg>
