<svg width="24" height="24" viewBox="0 0 24 24" fill="none" xmlns="http://www.w3.org/2000/svg">
<path d="M16.1523 1.25C16.5983 1.24996 17.0042 1.24992 17.333 1.29297C17.6922 1.34003 18.0712 1.45054 18.3848 1.75586C18.7011 2.06391 18.8185 2.44074 18.8682 2.79981C18.9129 3.12388 18.9121 3.52216 18.9121 3.9541V5.38965L22.6377 17.7363C22.9336 18.7176 22.6512 19.8728 21.6514 20.4727C20.1186 21.3923 17.0033 22.75 12 22.75C6.99659 22.75 3.88128 21.3923 2.34862 20.4727C1.34874 19.8728 1.06636 18.7176 1.36229 17.7363L5.08788 5.38965V3.9541C5.08783 3.52216 5.08707 3.12388 5.13182 2.79981C5.18144 2.44075 5.29893 2.0639 5.61522 1.75586C5.92879 1.45057 6.30785 1.34003 6.66698 1.29297C6.99584 1.24992 7.40158 1.24996 7.84764 1.25H16.1523ZM8.70702 21.0244C9.68343 21.1648 10.7792 21.25 12 21.25C13.2207 21.25 14.3166 21.1648 15.293 21.0244L13.4541 6.25H10.5459L8.70702 21.0244ZM2.79881 18.1699C2.6632 18.6199 2.81561 19.0038 3.1201 19.1865C3.90947 19.6601 5.25523 20.3107 7.2285 20.7539L9.03417 6.25H6.39452L2.79881 18.1699ZM16.7715 20.7539C18.7448 20.3107 20.0905 19.6601 20.8799 19.1865C21.1845 19.0038 21.3368 18.62 21.2012 18.1699L17.6055 6.25H14.9658L16.7715 20.7539ZM7.89159 2.75C7.38699 2.75 7.08193 2.75155 6.86229 2.78028C6.76094 2.79355 6.70747 2.80899 6.68163 2.81934C6.67063 2.82375 6.66556 2.82718 6.66405 2.82813C6.66324 2.82865 6.66286 2.82936 6.6621 2.83008L6.66014 2.83301C6.65921 2.83474 6.65727 2.83804 6.65526 2.84278C6.64661 2.86332 6.63127 2.91012 6.61815 3.00489C6.58928 3.21398 6.58788 3.50684 6.58788 4V4.75H17.4121V4C17.4121 3.50684 17.4107 3.21398 17.3818 3.00489C17.3687 2.91006 17.3533 2.86329 17.3447 2.84278L17.3389 2.83106C17.3379 2.83008 17.3369 2.82872 17.3359 2.82813C17.3344 2.82714 17.3292 2.82373 17.3183 2.81934C17.2924 2.80899 17.2391 2.79355 17.1377 2.78028C16.9181 2.75156 16.613 2.75 16.1084 2.75H7.89159Z" fill="#48465C"/>
</svg>
