<svg width="24" height="24" viewBox="0 0 24 24" fill="none" xmlns="http://www.w3.org/2000/svg">
<path d="M15.3636 21.5928C15.3712 21.6532 15.3859 21.711 15.4065 21.7656C14.3935 21.9116 13.2599 22 12.0003 22C10.7404 22 9.60618 21.9116 8.59307 21.7656C8.61365 21.711 8.6285 21.6532 8.63603 21.5928L10.5462 6.25H13.4534L15.3636 21.5928ZM18.389 6.25L21.9192 17.9531C22.1351 18.6688 21.9172 19.4377 21.2649 19.8291C20.3985 20.3489 18.9531 21.0415 16.8577 21.5029C16.8577 21.4715 16.8559 21.4392 16.8519 21.4072L14.9651 6.25H18.389ZM7.14775 21.4072C7.14379 21.4391 7.14184 21.4707 7.14189 21.502C5.04646 21.0405 3.60109 20.3489 2.73467 19.8291C2.08247 19.4378 1.86457 18.6687 2.08037 17.9531L5.61162 6.25H9.03447L7.14775 21.4072ZM16.1077 2C17.076 2 17.5608 2.00008 17.8616 2.29297C18.1623 2.58588 18.1624 3.0573 18.1624 4V4.75H5.83721V4C5.83721 3.05738 5.83735 2.58588 6.13799 2.29297C6.43881 2.00008 6.92356 2 7.89189 2H16.1077Z" fill="#48465C"/>
</svg>
