<svg width="24" height="24" viewBox="0 0 24 24" fill="none" xmlns="http://www.w3.org/2000/svg">
<path d="M10.2295 16.7168L5.77148 21.1748C5.42927 21.517 5.2581 21.6881 5.08007 21.791C4.5967 22.07 4.00094 22.07 3.51757 21.791C3.33954 21.6881 3.16834 21.517 2.82616 21.1748C2.48374 20.8324 2.31182 20.6605 2.20898 20.4824C1.93026 19.9993 1.93026 19.4041 2.20898 18.9209C2.31182 18.7428 2.48372 18.571 2.82616 18.2285L7.28417 13.7705L10.2295 16.7168ZM11.2861 2C12.3646 2 13.2329 2.86766 14.9687 4.60352L19.3877 9.02246C21.1234 10.7582 21.9912 11.6265 21.9912 12.7051C21.9911 13.7834 21.1231 14.6512 19.3877 16.3867C17.6518 18.1225 16.7835 18.9912 15.7051 18.9912C14.6265 18.9912 13.7583 18.1225 12.0225 16.3867L11.29 15.6543V15.6553L8.34472 12.71V12.709L7.60351 11.9688C5.86766 10.233 5.00001 9.36464 4.99999 8.28613C4.99999 7.20761 5.86767 6.33935 7.60351 4.60352C9.33935 2.86768 10.2076 2.00002 11.2861 2ZM16.8174 4.33203C17.2926 4.07734 17.8669 4.08485 18.3359 4.35547C18.514 4.45831 18.6858 4.63022 19.0283 4.97266C19.3705 5.31488 19.5417 5.486 19.6445 5.66406C19.9152 6.13294 19.9234 6.70741 19.6689 7.18262L16.8174 4.33203Z" fill="#48465C"/>
</svg>
