<svg width="24" height="24" viewBox="0 0 24 24" fill="none" xmlns="http://www.w3.org/2000/svg">
<path d="M11.2949 1.25C12.0641 1.25 12.7092 1.56987 13.3447 2.05469C13.9537 2.51928 14.6343 3.19971 15.4697 4.03516L15.7138 4.2793C15.9526 4.04151 16.1657 3.841 16.3994 3.70605C17.1146 3.2932 17.9956 3.29324 18.7109 3.70605C18.9772 3.85978 19.2166 4.09888 19.498 4.38086L19.6191 4.50195C19.901 4.78338 20.1402 5.02279 20.2939 5.28906C20.707 6.00447 20.707 6.88617 20.2939 7.60156C20.159 7.83509 19.9583 8.04752 19.7207 8.28613L19.9648 8.53027C20.8003 9.36568 21.4807 10.0463 21.9453 10.6553C22.4302 11.2908 22.75 11.9359 22.75 12.7051C22.7499 13.4742 22.4301 14.1194 21.9453 14.7549C21.4807 15.3637 20.8001 16.0437 19.9648 16.8789L19.8886 16.9561C19.0532 17.7915 18.3725 18.4719 17.7636 18.9365C17.1282 19.4214 16.483 19.7412 15.7138 19.7412C14.9447 19.7411 14.2995 19.4214 13.664 18.9365C13.0553 18.472 12.3753 17.7913 11.54 16.9561L11.2949 16.7109L6.30173 21.7041C6.28128 21.7246 6.26118 21.7455 6.24119 21.7656C5.9599 22.0475 5.72122 22.2868 5.45505 22.4404C4.73965 22.8535 3.85794 22.8535 3.14255 22.4404C2.87638 22.2868 2.63773 22.0475 2.35642 21.7656C2.33643 21.7455 2.31632 21.7246 2.29587 21.7041C2.27547 21.6838 2.25532 21.6635 2.23533 21.6436C1.95335 21.3622 1.71326 21.1237 1.55954 20.8574C1.1466 20.1421 1.14655 19.2603 1.55954 18.5449C1.71326 18.2787 1.95336 18.0402 2.23533 17.7588L7.28904 12.7051L7.0449 12.4609C6.20942 11.6254 5.52805 10.9448 5.06345 10.3359C4.57861 9.70046 4.25877 9.05528 4.25876 8.28613C4.25876 7.51699 4.57862 6.87179 5.06345 6.23633C5.52806 5.62738 6.20941 4.94679 7.0449 4.11133L7.12107 4.03516C7.95643 3.19975 8.63717 2.51926 9.24607 2.05469C9.88139 1.56999 10.526 1.2501 11.2949 1.25ZM3.35642 18.7588C2.98034 19.1349 2.90043 19.224 2.85935 19.2949C2.71426 19.5462 2.71426 19.8561 2.85935 20.1074C2.9004 20.1785 2.98023 20.2674 3.35642 20.6436C3.73301 21.0201 3.82149 21.1006 3.89255 21.1416C4.14382 21.2867 4.45377 21.2866 4.70505 21.1416C4.77611 21.1006 4.8646 21.0201 5.24119 20.6436L10.2343 15.6504L8.34958 13.7656L3.35642 18.7588ZM11.2949 2.75C10.9857 2.75009 10.6571 2.86416 10.1552 3.24707C9.63596 3.6433 9.02623 4.25109 8.14353 5.13379C7.26068 6.01664 6.65308 6.62714 6.25681 7.14648C5.87375 7.64855 5.75876 7.97679 5.75876 8.28613C5.75877 8.59546 5.87376 8.92373 6.25681 9.42578C6.65308 9.94511 7.26071 10.5557 8.14353 11.4385L12.5625 15.8564C13.4454 16.7393 14.0548 17.3478 14.5742 17.7441C15.076 18.127 15.4046 18.2412 15.7138 18.2412C16.0231 18.2412 16.3517 18.1269 16.8535 17.7441C17.3729 17.3478 17.9833 16.7393 18.8662 15.8564C19.7489 14.9737 20.3566 14.364 20.7529 13.8447C21.1358 13.3427 21.2499 13.0143 21.25 12.7051C21.25 12.3957 21.1358 12.0674 20.7529 11.5654C20.3566 11.046 19.7491 10.4356 18.8662 9.55273L14.4472 5.13379C13.5644 4.25097 12.9539 3.64331 12.4345 3.24707C11.9327 2.86421 11.6042 2.75 11.2949 2.75ZM17.9609 5.00488C17.7098 4.86008 17.4005 4.86004 17.1494 5.00488C17.09 5.03921 17.018 5.10098 16.7754 5.34082L18.6592 7.22461C18.8984 6.98256 18.9606 6.91095 18.9951 6.85156C19.1402 6.60029 19.1401 6.29034 18.9951 6.03906C18.954 5.968 18.8745 5.87854 18.498 5.50195C18.1215 5.12547 18.0319 5.04591 17.9609 5.00488Z" fill="#48465C"/>
</svg>
