<svg width="24" height="24" viewBox="0 0 24 24" fill="none" xmlns="http://www.w3.org/2000/svg">
<path d="M20.9022 15.0564C20.8555 15.7783 20.792 16.4997 20.7118 17.2195L20.6952 17.3738C20.4477 19.5949 18.7043 21.3573 16.4803 21.6345L15.5741 21.7468C15.0795 21.8085 14.8318 21.8392 14.5848 21.865C12.8663 22.0444 11.1334 22.0444 9.41492 21.865C9.16787 21.8392 8.92032 21.8085 8.42566 21.7468L7.41004 21.6209C5.24862 21.3514 3.55288 19.6419 3.30554 17.4842C3.21387 16.6843 3.14303 15.8825 3.09265 15.0799C4.31067 15.9552 6.86309 17.2497 11.9999 17.2498C15.1501 17.2498 17.325 16.7708 18.8231 16.1843C19.7769 15.8109 20.4435 15.3983 20.9022 15.0564ZM11.9999 14.2498C12.8242 14.2498 13.385 14.4177 13.7899 14.7058C14.074 14.9079 14.325 15.2008 14.5389 15.6267C13.7864 15.7044 12.9432 15.7498 11.9999 15.7498C11.0596 15.7498 10.2167 15.7042 9.46179 15.6258C9.67572 15.2001 9.92695 14.9079 10.2108 14.7058C10.6157 14.4178 11.1757 14.2498 11.9999 14.2498ZM7.45398 2.42067C10.458 1.8591 13.5408 1.85915 16.5448 2.42067L16.868 2.48122C18.8932 2.85982 20.4368 4.50733 20.6776 6.54763C20.9301 8.68694 21.0341 10.8397 20.9901 12.99L20.493 13.448C20.1954 13.7215 19.5596 14.2845 18.2762 14.7869C17.694 15.0149 16.9721 15.2325 16.0809 15.4031C15.7602 14.5965 15.3049 13.9426 14.6591 13.4832C13.9212 12.9582 13.0222 12.7498 11.9999 12.7498C10.9776 12.7498 10.0786 12.9582 9.3407 13.4832C8.69552 13.9422 8.24148 14.5957 7.92078 15.4011C5.13064 14.8661 3.92944 13.8647 3.49304 13.4842L3.00867 13.0623C2.96754 10.9706 3.06692 8.87653 3.30554 6.7947L3.32117 6.65798C3.56243 4.55361 5.1512 2.85214 7.23914 2.46169L7.45398 2.42067ZM8.56824 3.92165C8.29811 3.60801 7.82454 3.57263 7.51062 3.84255C7.04384 4.24406 6.74993 4.84184 6.74988 5.41091C6.74988 6.42459 7.51712 7.12184 8.4032 7.52614C9.31391 7.94165 10.5556 8.1609 11.9999 8.16091C13.4441 8.16091 14.6858 7.94159 15.5966 7.52614C16.4827 7.12184 17.2499 6.42459 17.2499 5.41091C17.2498 4.78745 16.9048 4.2879 16.4891 3.93044C16.1751 3.66056 15.7016 3.69663 15.4315 4.01052C15.1616 4.3245 15.1968 4.79804 15.5106 5.06813C15.7352 5.26122 15.7498 5.38064 15.7499 5.41091C15.7499 5.55066 15.6478 5.85364 14.9745 6.16091C14.3256 6.45699 13.3169 6.66091 11.9999 6.66091C10.6831 6.6609 9.67513 6.45692 9.02625 6.16091C8.35269 5.85358 8.24988 5.55069 8.24988 5.41091C8.24991 5.37909 8.26083 5.30944 8.30457 5.2195C8.34699 5.13235 8.41045 5.04693 8.48914 4.97927C8.80292 4.70917 8.8382 4.23562 8.56824 3.92165Z" fill="#48465C"/>
</svg>
