<svg width="24" height="24" viewBox="0 0 24 24" fill="none" xmlns="http://www.w3.org/2000/svg">
<path fill-rule="evenodd" clip-rule="evenodd" d="M13.0544 1.25C14.4218 1.24998 15.5245 1.24968 16.3913 1.36621C17.2914 1.48723 18.0492 1.74672 18.6511 2.34863C19.253 2.95055 19.5124 3.70829 19.6335 4.6084C19.75 5.47534 19.7497 6.57781 19.7497 7.94531V16.0547C19.7497 17.4222 19.75 18.5246 19.6335 19.3916C19.5124 20.2917 19.253 21.0494 18.6511 21.6514C18.0492 22.2533 17.2914 22.5128 16.3913 22.6338C15.5245 22.7503 14.4218 22.75 13.0544 22.75H10.945C9.57753 22.75 8.47508 22.7503 7.60813 22.6338C6.70802 22.5128 5.95028 22.2533 5.34836 21.6514C4.74648 21.0494 4.48696 20.2917 4.36594 19.3916C4.24941 18.5246 4.24971 17.4222 4.24973 16.0547V7.94531C4.24971 6.57783 4.24941 5.47534 4.36594 4.6084C4.48696 3.7083 4.74646 2.95055 5.34836 2.34863C5.95028 1.74671 6.70802 1.48723 7.60813 1.36621C8.47508 1.24967 9.57754 1.24998 10.945 1.25H13.0544ZM10.9997 2.75C9.56457 2.75 8.56362 2.75201 7.80832 2.85352C7.07455 2.95217 6.68567 3.13242 6.40891 3.40918C6.13216 3.68594 5.95189 4.07484 5.85325 4.80859C5.75174 5.56389 5.74973 6.56486 5.74973 8V16C5.74973 17.4354 5.75169 18.437 5.85325 19.1924C5.95191 19.9258 6.13223 20.3141 6.40891 20.5908C6.68567 20.8676 7.07455 21.0478 7.80832 21.1465C8.56362 21.2479 9.56457 21.25 10.9997 21.25H12.9997C14.4351 21.25 15.4367 21.248 16.1921 21.1465C16.9255 21.0478 17.3138 20.8675 17.5905 20.5908C17.8672 20.3141 18.0476 19.9258 18.1462 19.1924C18.2478 18.437 18.2497 17.4354 18.2497 16V8C18.2497 6.56484 18.2478 5.5639 18.1462 4.80859C18.0476 4.07482 17.8672 3.68594 17.5905 3.40918C17.3138 3.1325 16.9255 2.95218 16.1921 2.85352C15.4367 2.75196 14.4351 2.75 12.9997 2.75H10.9997ZM14.4997 18.25C14.9139 18.25 15.2497 18.5858 15.2497 19C15.2497 19.4142 14.9139 19.75 14.4997 19.75H9.49973C9.08554 19.75 8.74973 19.4142 8.74973 19C8.74973 18.5858 9.08554 18.25 9.49973 18.25H14.4997ZM1.66477 5.3291C2.03518 5.14413 2.48545 5.29468 2.67063 5.66504L3.447 7.21777C3.69312 7.71027 3.69312 8.28973 3.447 8.78223L2.89426 9.88867C2.85931 9.95886 2.85931 10.0411 2.89426 10.1113L3.447 11.2178C3.69313 11.7102 3.69313 12.2898 3.447 12.7822L2.89426 13.8887C2.85931 13.9589 2.85931 14.0411 2.89426 14.1113L3.447 15.2178C3.69313 15.7103 3.69313 16.2898 3.447 16.7822L2.67063 18.335C2.48545 18.7053 2.03518 18.8559 1.66477 18.6709C1.29442 18.4858 1.1439 18.0355 1.32883 17.665L2.1052 16.1113C2.14018 16.0411 2.14019 15.9589 2.1052 15.8887L1.55246 14.7822C1.30635 14.2898 1.30635 13.7102 1.55246 13.2178L2.1052 12.1113C2.14019 12.0411 2.14018 11.9589 2.1052 11.8887L1.55246 10.7822C1.30635 10.2898 1.30636 9.71025 1.55246 9.21777L2.1052 8.11133C2.14019 8.04112 2.14018 7.95888 2.1052 7.88867L1.32883 6.33496C1.14391 5.96456 1.29443 5.51427 1.66477 5.3291ZM21.3288 5.66504C21.514 5.29456 21.9652 5.14386 22.3357 5.3291C22.7058 5.51439 22.8555 5.96467 22.6706 6.33496L21.8943 7.88867C21.8593 7.95886 21.8593 8.04114 21.8943 8.11133L22.447 9.21777C22.6931 9.71028 22.6931 10.2898 22.447 10.7822L21.8943 11.8887C21.8593 11.9589 21.8593 12.0411 21.8943 12.1113L22.447 13.2178C22.6931 13.7102 22.6931 14.2898 22.447 14.7822L21.8943 15.8887C21.8593 15.9589 21.8593 16.0411 21.8943 16.1113L22.6706 17.665C22.8555 18.0354 22.7058 18.4857 22.3357 18.6709C21.9652 18.8562 21.514 18.7055 21.3288 18.335L20.5525 16.7822C20.3063 16.2898 20.3063 15.7103 20.5525 15.2178L21.1052 14.1113C21.1401 14.0411 21.1401 13.9589 21.1052 13.8887L20.5525 12.7822C20.3063 12.2898 20.3063 11.7102 20.5525 11.2178L21.1052 10.1113C21.1401 10.0411 21.1401 9.95889 21.1052 9.88867L20.5525 8.78223C20.3063 8.28976 20.3063 7.71024 20.5525 7.21777L21.3288 5.66504Z" fill="#48465C"/>
</svg>
