<svg width="24" height="24" viewBox="0 0 24 24" fill="none" xmlns="http://www.w3.org/2000/svg">
<path d="M15.2139 3.79395C17.5448 3.84111 18.8947 4.04924 19.8125 4.96484C20.9997 6.14928 21 8.05546 21 11.8682V15.9121C21 19.7248 20.9997 21.6309 19.8125 22.8154C18.6253 23.9997 16.7149 24 12.8935 24C9.07207 24 7.16082 23.9998 5.97362 22.8154C4.78659 21.6309 4.78612 19.7246 4.78612 15.9121V14.1797C4.78612 13.9113 4.78709 13.7771 4.81249 13.666C4.89913 13.2876 5.19487 12.9917 5.57421 12.9053C5.68551 12.88 5.82045 12.8799 6.08983 12.8799C7.70325 12.8799 8.51013 12.88 9.17675 12.7285C11.4558 12.2105 13.2358 10.4348 13.7549 8.16113C13.9067 7.49606 13.9062 6.69174 13.9062 5.08398C13.9062 4.81767 13.9068 4.68438 13.9326 4.57227C14.0204 4.19285 14.3299 3.88947 14.7119 3.80957C14.8249 3.78595 14.955 3.78871 15.2139 3.79395ZM9.85351 20.209C9.43382 20.209 9.09383 20.5481 9.09374 20.9668C9.09374 21.3856 9.43377 21.7256 9.85351 21.7256H15.9336C16.3532 21.7254 16.6933 21.3855 16.6933 20.9668C16.6933 20.5482 16.3532 20.2092 15.9336 20.209H9.85351ZM11.1396 4.23535C11.3532 4.23535 11.5572 4.32503 11.7012 4.48242L12.4414 5.29102C12.7243 5.60029 12.7025 6.08001 12.3926 6.3623C12.2374 6.50362 12.0392 6.56859 11.8447 6.55957C11.5109 8.80599 9.71631 10.6045 7.44042 10.6045C6.1733 10.6044 5.041 10.0355 4.24022 9.14746C3.95997 8.83612 3.98595 8.35707 4.29784 8.07715C4.6099 7.79729 5.09043 7.82254 5.37108 8.13379C5.91207 8.73362 6.64525 9.08784 7.44042 9.08789C8.78379 9.08789 9.994 8.04592 10.3037 6.55469C10.1537 6.53567 10.0078 6.47171 9.88769 6.3623C9.57771 6.08 9.55591 5.60031 9.83886 5.29102L10.5791 4.48242C10.723 4.32517 10.9262 4.23547 11.1396 4.23535ZM7.19921 1C8.56166 1 9.76651 1.65626 10.5732 2.66016C10.8357 2.98687 10.7825 3.46466 10.4551 3.72656C10.1277 3.98824 9.64918 3.93503 9.38671 3.6084C8.83741 2.92502 8.05283 2.5166 7.19921 2.5166C5.85585 2.51669 4.64555 3.55855 4.33593 5.0498C4.48588 5.0688 4.63181 5.13282 4.75194 5.24219C5.06196 5.5245 5.08372 6.00418 4.80077 6.31348L4.06151 7.12207C3.91754 7.27945 3.71356 7.36911 3.49999 7.36914C3.28639 7.36914 3.08247 7.27948 2.93847 7.12207L2.19823 6.31348C1.9154 6.00417 1.93806 5.52446 2.24804 5.24219C2.40332 5.1009 2.60132 5.03579 2.79589 5.04492C3.12968 2.79855 4.9234 1.00009 7.19921 1Z" fill="#48465C"/>
</svg>
