<svg width="24" height="24" viewBox="0 0 24 24" fill="none" xmlns="http://www.w3.org/2000/svg">
<path d="M8.74707 2.72273C11.4732 2.72273 12.8367 2.7225 13.6836 3.56941C14.5304 4.41633 14.5303 5.77991 14.5303 8.50594V16.2169C14.5303 18.9425 14.5301 20.3055 13.6836 21.1524C12.8367 21.9993 11.4732 22.0001 8.74707 22.0001H7.7832C5.05701 22.0001 3.6936 21.9993 2.84668 21.1524C2.00006 20.3055 2 18.9425 2 16.2169V8.50594C2 5.77983 1.99983 4.41633 2.84668 3.56941C3.6936 2.72249 5.05701 2.72273 7.7832 2.72273H8.74707ZM15.8018 10.71C16.1099 10.4241 16.5564 10.4582 17.4482 10.5245C18.7485 10.6212 19.9796 10.8293 20.4307 11.2804C21.2771 12.1273 21.2773 13.4903 21.2773 16.2159C21.2773 18.9419 21.2774 20.3055 20.4307 21.1524C19.9795 21.6035 18.7485 21.8168 17.4482 21.9171C16.5577 21.9859 16.1118 22.0206 15.8027 21.7345C15.4938 21.4483 15.4941 20.9796 15.4941 20.043V12.4014C15.4941 11.4649 15.4938 10.996 15.8018 10.71ZM8.26465 16.2169C7.4664 16.2171 6.8194 16.8639 6.81934 17.6622C6.81934 18.4605 7.46636 19.1083 8.26465 19.1085C9.06313 19.1085 9.71094 18.4607 9.71094 17.6622C9.71088 16.8637 9.06309 16.2169 8.26465 16.2169ZM18.3857 13.5655C17.9865 13.5655 17.6631 13.8899 17.6631 14.2891V18.1446C17.6633 18.5436 17.9867 18.8673 18.3857 18.8673C18.7848 18.8671 19.1082 18.5435 19.1084 18.1446V14.2891C19.1084 13.89 18.7849 13.5656 18.3857 13.5655ZM16.5791 2.00984C19.663 2.53449 22 5.24917 22 8.50594C22 8.77332 21.8524 9.0192 21.6162 9.14461C21.38 9.26995 21.0935 9.25432 20.8721 9.10457L19.4268 8.12703C19.096 7.90344 19.0088 7.45387 19.2324 7.12312C19.4561 6.79263 19.9056 6.70624 20.2363 6.92976L20.332 6.99422C19.7758 5.15411 18.2313 3.75803 16.3369 3.43562C15.9434 3.36867 15.6782 2.99515 15.7451 2.60164C15.812 2.20807 16.1855 1.94293 16.5791 2.00984ZM5.85547 4.89168C5.45623 4.89168 5.13281 5.2151 5.13281 5.61434C5.13291 6.01349 5.45629 6.33699 5.85547 6.33699H10.6748C11.0739 6.33693 11.3974 6.01346 11.3975 5.61434C11.3975 5.21513 11.074 4.89174 10.6748 4.89168H5.85547Z" fill="#48465C"/>
</svg>
