<svg width="24" height="24" viewBox="0 0 24 24" fill="none" xmlns="http://www.w3.org/2000/svg">
<path d="M13 2C15.8284 2 17.2434 2.00023 18.1221 2.87891C19.0004 3.75761 19 5.17195 19 8V16C19 18.828 19.0004 20.2424 18.1221 21.1211C17.2434 21.9998 15.8284 22 13 22H11C8.17175 22 6.75757 21.9998 5.87892 21.1211C5.00035 20.2424 5.00001 18.8283 5.00001 16V8C5.00001 5.17171 5.00036 3.7576 5.87892 2.87891C6.75757 2.00026 8.17175 2 11 2H13ZM9.50001 18.25C9.08592 18.2501 8.75001 18.5859 8.75001 19C8.75001 19.4141 9.08592 19.7499 9.50001 19.75H14.5C14.9142 19.75 15.25 19.4142 15.25 19C15.25 18.5858 14.9142 18.25 14.5 18.25H9.50001ZM1.66505 5.3291C2.03537 5.14403 2.48555 5.29395 2.67091 5.66406L3.44728 7.21777C3.69344 7.71033 3.69349 8.28968 3.44728 8.78223L2.89454 9.8877C2.85942 9.95795 2.85955 10.041 2.89454 10.1113L3.44728 11.2178C3.69345 11.7104 3.6935 12.2897 3.44728 12.7822L2.89454 13.8877C2.85942 13.958 2.85955 14.041 2.89454 14.1113L3.44728 15.2178C3.69345 15.7103 3.6935 16.2897 3.44728 16.7822L2.67091 18.335C2.4857 18.7054 2.0355 18.856 1.66505 18.6709C1.29457 18.4857 1.14387 18.0346 1.32911 17.6641L2.10548 16.1113C2.1406 16.041 2.14064 15.958 2.10548 15.8877L1.55275 14.7822C1.30668 14.2899 1.30672 13.7101 1.55275 13.2178L2.10548 12.1113C2.14059 12.041 2.14064 11.958 2.10548 11.8877L1.55275 10.7822C1.30668 10.2899 1.30673 9.71021 1.55275 9.21777L2.10548 8.11133C2.14059 8.04098 2.14064 7.95803 2.10548 7.8877L1.32911 6.33496C1.14421 5.96457 1.29472 5.51427 1.66505 5.3291ZM21.3291 5.66406C21.5145 5.29375 21.9655 5.1439 22.3359 5.3291C22.7063 5.51436 22.8559 5.96457 22.6709 6.33496L21.8945 7.8877C21.8594 7.95794 21.8595 8.04103 21.8945 8.11133L22.4473 9.21777C22.6934 9.71034 22.6935 10.2897 22.4473 10.7822L21.8945 11.8877C21.8594 11.958 21.8595 12.041 21.8945 12.1113L22.4473 13.2178C22.6934 13.7103 22.6935 14.2897 22.4473 14.7822L21.8945 15.8877C21.8594 15.958 21.8595 16.041 21.8945 16.1113L22.6709 17.6641C22.8561 18.0345 22.7064 18.4857 22.3359 18.6709C21.9654 18.8562 21.5144 18.7055 21.3291 18.335L20.5527 16.7822C20.3067 16.2899 20.3067 15.7102 20.5527 15.2178L21.1055 14.1113C21.1406 14.041 21.1407 13.958 21.1055 13.8877L20.5527 12.7822C20.3067 12.2899 20.3067 11.7102 20.5527 11.2178L21.1055 10.1113C21.1406 10.041 21.1407 9.95802 21.1055 9.8877L20.5527 8.78223C20.3067 8.2898 20.3068 7.71021 20.5527 7.21777L21.3291 5.66406Z" fill="#48465C"/>
</svg>
