<svg width="24" height="24" viewBox="0 0 24 24" fill="none" xmlns="http://www.w3.org/2000/svg">
<path d="M7.31688 1.68419C10.4119 1.10561 13.5881 1.10558 16.6831 1.68419L17.0063 1.74474C19.3528 2.18361 21.143 4.09304 21.4224 6.46056C21.8472 10.0617 21.8592 13.6996 21.4575 17.3033L21.4399 17.4567C21.1538 20.024 19.1397 22.0586 16.5727 22.3785L15.6567 22.4928C15.1716 22.5532 14.917 22.5853 14.6626 22.6119C12.8925 22.7967 11.1075 22.7967 9.33739 22.6119C9.08292 22.5853 8.82855 22.5532 8.34325 22.4928L7.31786 22.3649C4.81438 22.0529 2.84697 20.073 2.56005 17.5699C2.14645 13.9616 2.14645 10.3178 2.56005 6.70958L2.57567 6.57286C2.85452 4.14022 4.69092 2.17499 7.10106 1.72423L7.31688 1.68419ZM20.1138 15.5709C19.7569 15.7751 19.3304 15.9855 18.8227 16.1842C17.3248 16.7706 15.1504 17.2505 12.0005 17.2506C7.77964 17.2506 5.30304 16.376 3.87841 15.5787C3.92377 16.1863 3.98084 16.7932 4.05028 17.399C4.25805 19.2116 5.68389 20.6499 7.50341 20.8766L8.51806 21.0025C9.01551 21.0645 9.25476 21.0949 9.49266 21.1197C11.1592 21.2937 12.8397 21.2937 14.5063 21.1197C14.7443 21.0949 14.9833 21.0645 15.4809 21.0025L16.3872 20.8902C18.2685 20.6557 19.7408 19.1654 19.9497 17.2906L19.9663 17.1373C20.0244 16.6161 20.0736 16.0934 20.1138 15.5709ZM12.0005 14.2506C11.1762 14.2506 10.6153 14.4176 10.2104 14.7057C9.92657 14.9076 9.67533 15.2001 9.46141 15.6256C10.2165 15.7042 11.06 15.7506 12.0005 15.7506C12.9438 15.7506 13.787 15.7052 14.5395 15.6275C14.3254 15.2012 14.0737 14.9079 13.7895 14.7057C13.3847 14.4176 12.8245 14.2507 12.0005 14.2506ZM16.4077 3.1588C13.4947 2.61424 10.5053 2.61424 7.59227 3.1588L7.37743 3.19884C5.61157 3.52896 4.26951 4.96753 4.06591 6.74376L4.05028 6.88048C3.78989 9.15216 3.69871 11.4386 3.77684 13.7203C4.3714 14.1846 5.59331 14.9547 7.9204 15.401C8.24113 14.5955 8.69609 13.943 9.3413 13.484C10.0792 12.959 10.9781 12.7506 12.0005 12.7506C13.0227 12.7507 13.9209 12.9591 14.6587 13.484C15.3046 13.9435 15.7598 14.5973 16.0806 15.4039C16.9717 15.2332 17.6936 15.0146 18.2759 14.7867C19.2555 14.4032 19.8577 13.9845 20.2202 13.6861C20.3046 11.334 20.2083 8.9772 19.9321 6.63634C19.7299 4.92312 18.434 3.5379 16.73 3.21935L16.4077 3.1588ZM7.51122 3.84337C7.82529 3.57331 8.29878 3.60839 8.56884 3.92247C8.83888 4.23655 8.80284 4.71004 8.48876 4.98009C8.41 5.04781 8.3466 5.1331 8.30419 5.22032C8.26043 5.31034 8.25048 5.37999 8.25048 5.41173C8.25056 5.55158 8.35257 5.85452 9.02587 6.16173C9.67477 6.4578 10.6835 6.66173 12.0005 6.66173C13.3172 6.66168 14.3253 6.45776 14.9741 6.16173C15.6475 5.85452 15.7504 5.55158 15.7505 5.41173C15.7505 5.3817 15.7359 5.26221 15.5112 5.06896C15.1972 4.79895 15.1613 4.32541 15.4311 4.01134C15.7012 3.69733 16.1747 3.66141 16.4888 3.93126C16.9045 4.28875 17.2505 4.78822 17.2505 5.41173C17.2504 6.42518 16.483 7.12168 15.5972 7.52599C14.6865 7.9415 13.4447 8.16168 12.0005 8.16173C10.5561 8.16173 9.31357 7.94155 8.40282 7.52599C7.51697 7.12168 6.75056 6.42517 6.75048 5.41173C6.75048 4.84255 7.04428 4.24491 7.51122 3.84337Z" fill="#48465C"/>
</svg>
