<svg width="24" height="24" viewBox="0 0 24 24" fill="none" xmlns="http://www.w3.org/2000/svg">
<path fill-rule="evenodd" clip-rule="evenodd" d="M20.9022 15.0574C20.8555 15.7792 20.7919 16.5007 20.7117 17.2204L20.6951 17.3738C20.4476 19.5949 18.7043 21.3573 16.4803 21.6345L15.574 21.7468C15.0793 21.8085 14.8318 21.8402 14.5848 21.866C12.8663 22.0454 11.1333 22.0454 9.41485 21.866C9.16781 21.8402 8.92022 21.8085 8.42559 21.7468L7.40997 21.6208C5.24861 21.3513 3.5528 19.6418 3.30547 17.4841C3.2138 16.6843 3.14295 15.8824 3.09258 15.0798C4.31056 15.9552 6.86298 17.2497 11.9998 17.2497C15.15 17.2497 17.325 16.7708 18.8231 16.1843C19.7766 15.811 20.4435 15.3992 20.9022 15.0574ZM11.9998 14.2497C12.8241 14.2497 13.3849 14.4177 13.7898 14.7058C14.0741 14.908 14.3258 15.2014 14.5398 15.6277C13.7871 15.7054 12.9433 15.7497 11.9998 15.7497C11.0595 15.7497 10.2167 15.7042 9.46172 15.6257C9.67564 15.2001 9.9269 14.9078 10.2107 14.7058C10.6156 14.4177 11.1757 14.2498 11.9998 14.2497ZM7.45489 2.42162C10.4588 1.86011 13.5409 1.86012 16.5447 2.42162L16.868 2.48119C18.8933 2.85981 20.4368 4.50812 20.6775 6.54857C20.93 8.68789 21.034 10.8406 20.99 12.991L20.493 13.448C20.1954 13.7215 19.5596 14.2845 18.2762 14.7869C17.6939 15.0148 16.972 15.2325 16.0809 15.4031C15.7602 14.5965 15.3048 13.9426 14.659 13.4831C13.9211 12.9583 13.0221 12.7497 11.9998 12.7497C10.9778 12.7498 10.0794 12.9584 9.34161 13.4831C8.69635 13.9422 8.24144 14.5956 7.92071 15.4011C5.13057 14.8661 3.92937 13.8646 3.49297 13.4841L3.00957 13.0622C2.96845 10.9708 3.06689 8.87728 3.30547 6.79564L3.3211 6.65795C3.56241 4.55368 5.15122 2.85214 7.23907 2.46166L7.45489 2.42162ZM8.56914 3.9226C8.29915 3.60861 7.8256 3.57269 7.51153 3.84252C7.0446 4.24399 6.74991 4.84173 6.74981 5.41088C6.74981 6.42455 7.51706 7.12181 8.40313 7.52611C9.31383 7.94165 10.5555 8.16085 11.9998 8.16088C13.444 8.16088 14.6857 7.94155 15.5965 7.52611C16.4826 7.12181 17.2498 6.42456 17.2498 5.41088C17.2497 4.78759 16.9046 4.28881 16.4891 3.93139C16.175 3.66138 15.7016 3.69658 15.4314 4.01049C15.1614 4.32457 15.1974 4.79806 15.5115 5.06811C15.7356 5.26078 15.7497 5.38035 15.7498 5.41088C15.7498 5.55066 15.648 5.85453 14.9744 6.16186C14.3255 6.45793 13.3168 6.66088 11.9998 6.66088C10.6832 6.66085 9.67505 6.45781 9.02618 6.16186C8.35262 5.85453 8.24981 5.55066 8.24981 5.41088C8.24987 5.37898 8.26083 5.30925 8.3045 5.21947C8.33632 5.15412 8.3804 5.09043 8.4334 5.03393L8.54473 4.9265C8.80609 4.65094 8.82185 4.21695 8.56914 3.9226Z" fill="#48465C"/>
</svg>
