<svg width="24" height="24" viewBox="0 0 24 24" fill="none" xmlns="http://www.w3.org/2000/svg">
<path d="M12.877 3.25C14.2289 3.25407 15.3354 3.27712 16.2266 3.43262C17.1414 3.59231 17.9022 3.90324 18.5127 4.53125C19.1838 5.22175 19.4767 6.09276 19.6152 7.15234C19.7512 8.19253 19.75 9.52305 19.75 11.1992V14.7998C19.75 16.4762 19.7512 17.8074 19.6152 18.8477C19.4767 19.9072 19.1839 20.7783 18.5127 21.4688C17.8386 22.1621 16.9833 22.4675 15.9434 22.6113C14.927 22.7519 13.628 22.75 12 22.75C10.372 22.75 9.07302 22.7519 8.05664 22.6113C7.01664 22.4675 6.16145 22.162 5.48731 21.4688C4.81607 20.7783 4.52331 19.9072 4.38477 18.8477C4.2488 17.8074 4.25 16.4762 4.25 14.7998V12.1006C4.25 11.6864 4.58579 11.3506 5 11.3506C5.41414 11.3507 5.75 11.6864 5.75 12.1006V14.7998C5.75 16.5172 5.75182 17.732 5.87207 18.6523C5.98982 19.5532 6.20879 20.0589 6.5625 20.4229C6.91341 20.7838 7.39676 21.0052 8.2627 21.125C9.15243 21.248 10.3286 21.25 12 21.25C13.6714 21.25 14.8476 21.248 15.7373 21.125C16.6032 21.0052 17.0866 20.7838 17.4375 20.4229C17.7912 20.059 18.0102 19.5532 18.1279 18.6523C18.2482 17.732 18.25 16.5172 18.25 14.7998V11.1992C18.25 9.48181 18.2482 8.26704 18.1279 7.34668C18.0102 6.4458 17.7912 5.94008 17.4375 5.57617C17.1179 5.24742 16.6899 5.03604 15.9688 4.91016C15.224 4.7802 14.2455 4.75414 12.873 4.75C12.4589 4.74875 12.1239 4.41212 12.125 3.99805C12.1263 3.58394 12.4629 3.24892 12.877 3.25ZM15 18.25C15.4141 18.2501 15.75 18.5858 15.75 19C15.75 19.4142 15.4141 19.7499 15 19.75H9C8.58579 19.75 8.25 19.4142 8.25 19C8.25 18.5858 8.58579 18.25 9 18.25H15ZM10.3506 4.0498C10.5592 4.0499 10.7595 4.13705 10.9014 4.29004L11.5498 4.99023C11.8312 5.29392 11.8133 5.76821 11.5098 6.0498C11.3753 6.17449 11.207 6.23668 11.0371 6.24512C10.709 8.20095 9.11461 9.74983 7.10547 9.75C5.97265 9.7499 4.95919 9.24831 4.24121 8.46289C3.96188 8.15723 3.98262 7.68279 4.28809 7.40332C4.59384 7.12408 5.06827 7.14552 5.34766 7.45117C5.80656 7.95323 6.42959 8.2499 7.10547 8.25C8.21858 8.24983 9.21886 7.41917 9.51172 6.22168C9.39647 6.19141 9.2859 6.13642 9.19238 6.0498C8.88864 5.76818 8.87072 5.29398 9.15235 4.99023L9.80078 4.29004C9.94262 4.13716 10.1421 4.04991 10.3506 4.0498ZM6.89453 1.25C8.1126 1.25021 9.19165 1.82958 9.91504 2.71777C10.1761 3.03887 10.1275 3.51097 9.80664 3.77246C9.48562 4.03392 9.01361 3.9858 8.75195 3.66504C8.28612 3.09308 7.62 2.75021 6.89453 2.75C5.78153 2.75 4.78044 3.58015 4.48731 4.77734C4.60294 4.80756 4.71383 4.86328 4.80762 4.9502C5.11113 5.23179 5.12907 5.70608 4.84766 6.00977L4.19922 6.70996C4.05745 6.86286 3.8579 6.95 3.64942 6.9502C3.44075 6.9502 3.24055 6.86293 3.09863 6.70996L2.4502 6.00977C2.16857 5.70602 2.1865 5.23182 2.49024 4.9502C2.62478 4.82553 2.79297 4.76227 2.96289 4.75391C3.29136 2.79844 4.88558 1.25 6.89453 1.25Z" fill="#48465C"/>
</svg>
