<svg width="24" height="24" viewBox="0 0 24 24" fill="none" xmlns="http://www.w3.org/2000/svg">
<path fill-rule="evenodd" clip-rule="evenodd" d="M11.9996 1.25C12.4138 1.25 12.7496 1.58579 12.7496 2V4.18945L14.4693 2.46973C14.7621 2.1769 15.237 2.17702 15.5298 2.46973C15.8227 2.76262 15.8227 3.23738 15.5298 3.53027L12.7496 6.31055V10.7012L16.5523 8.50586L17.5699 4.70801C17.677 4.30802 18.0879 4.07075 18.4878 4.17773C18.8879 4.28491 19.1251 4.69569 19.0181 5.0957L18.3892 7.44531L20.2847 6.35059C20.6434 6.14348 21.103 6.26628 21.3101 6.625C21.5171 6.9837 21.3934 7.44233 21.0347 7.64941L19.1392 8.74414L21.4878 9.37402C21.8879 9.48122 22.1252 9.89191 22.0181 10.292C21.9109 10.6921 21.5002 10.9294 21.1001 10.8223L17.3023 9.80469L13.4996 12L17.3023 14.1953L21.1001 13.1777C21.5002 13.0705 21.9119 13.3079 22.0191 13.708C22.1261 14.1079 21.8886 14.5186 21.4888 14.626L19.1392 15.2559L21.0357 16.3506C21.3941 16.5578 21.517 17.0163 21.3101 17.375C21.103 17.7336 20.6444 17.8564 20.2857 17.6494L18.3892 16.5547L19.0191 18.9043C19.126 19.3041 18.8885 19.7149 18.4888 19.8223C18.0887 19.9295 17.6771 19.6921 17.5699 19.292L16.5523 15.4941L12.7496 13.2988V17.6895L15.5298 20.4697C15.8227 20.7626 15.8227 21.2374 15.5298 21.5303C15.237 21.823 14.7621 21.8231 14.4693 21.5303L12.7496 19.8105V22C12.7496 22.4142 12.4138 22.75 11.9996 22.75C11.5855 22.7498 11.2496 22.4141 11.2496 22V19.8105L9.52984 21.5303C9.23693 21.823 8.7621 21.8231 8.46929 21.5303C8.17666 21.2374 8.17666 20.7626 8.46929 20.4697L11.2496 17.6895V13.2988L7.4478 15.4941L6.43023 19.292C6.32302 19.6921 5.91138 19.9295 5.51128 19.8223C5.11149 19.715 4.87404 19.3042 4.98101 18.9043L5.61089 16.5547L3.71441 17.6494C3.3557 17.8564 2.89707 17.7337 2.68999 17.375C2.48302 17.0163 2.60589 16.5578 2.96441 16.3506L4.86089 15.2559L2.51128 14.626C2.11144 14.5186 1.87393 14.1079 1.98101 13.708C2.08821 13.3079 2.49985 13.0705 2.89995 13.1777L6.6978 14.1953L10.4996 12L6.6978 9.80469L2.89995 10.8223C2.49985 10.9295 2.08822 10.6921 1.98101 10.292C1.87411 9.89214 2.11161 9.48141 2.51128 9.37402L4.86089 8.74414L2.96441 7.64941C2.60601 7.44221 2.48303 6.98358 2.68999 6.625C2.89704 6.26638 3.35573 6.14371 3.71441 6.35059L5.61089 7.44531L4.98101 5.0957C4.87417 4.69591 5.11162 4.28509 5.51128 4.17773C5.91138 4.07052 6.32303 4.30791 6.43023 4.70801L7.4478 8.50586L11.2496 10.7012V6.31055L8.46929 3.53027C8.17668 3.23744 8.17668 2.76256 8.46929 2.46973C8.76211 2.17691 9.23693 2.17705 9.52984 2.46973L11.2496 4.18945V2C11.2496 1.58592 11.5855 1.25021 11.9996 1.25Z" fill="#48465C"/>
</svg>
