<svg width="24" height="24" viewBox="0 0 24 24" fill="none" xmlns="http://www.w3.org/2000/svg">
<path d="M8.00035 5.25C8.4144 5.25019 8.75035 5.58591 8.75035 6V13.125H12.0004C12.3015 13.1251 12.5734 13.3056 12.6908 13.583C12.808 13.8603 12.7482 14.1812 12.5384 14.3975L8.53844 18.5225C8.39728 18.668 8.20305 18.7499 8.00035 18.75C7.79746 18.75 7.60255 18.6681 7.46129 18.5225L3.46129 14.3975C3.25168 14.1813 3.19175 13.8603 3.30895 13.583C3.42637 13.3055 3.6991 13.125 4.00035 13.125H7.25035V6C7.25035 5.58579 7.58613 5.25 8.00035 5.25ZM16.0004 5.25C16.2031 5.2501 16.3973 5.33205 16.5384 5.47754L20.5384 9.60254C20.7482 9.81873 20.808 10.1397 20.6908 10.417C20.5734 10.6944 20.3015 10.8749 20.0004 10.875H16.7504V18C16.7504 18.4141 16.4144 18.7498 16.0004 18.75C15.5862 18.75 15.2504 18.4142 15.2504 18V10.875H12.0004C11.6992 10.875 11.4264 10.6945 11.3089 10.417C11.1918 10.1397 11.2517 9.81871 11.4613 9.60254L15.4613 5.47754C15.6026 5.33189 15.7975 5.25 16.0004 5.25Z" fill="#48465C"/>
</svg>
