<svg width="24" height="24" viewBox="0 0 24 24" fill="none" xmlns="http://www.w3.org/2000/svg">
<path fill-rule="evenodd" clip-rule="evenodd" d="M13.583 11.3089C13.8603 11.1917 14.1813 11.2516 14.3975 11.4612L18.5225 15.4612C18.6682 15.6025 18.75 15.7974 18.75 16.0003C18.7499 16.203 18.668 16.3973 18.5225 16.5384L14.3975 20.5384C14.1812 20.7481 13.8603 20.808 13.583 20.6907C13.3056 20.5734 13.1251 20.3015 13.125 20.0003V16.7503H6C5.58589 16.7503 5.25016 16.4143 5.25 16.0003C5.25 15.5861 5.58579 15.2503 6 15.2503H13.125V12.0003C13.125 11.6991 13.3055 11.4264 13.583 11.3089ZM9.60254 3.46122C9.8187 3.25162 10.1397 3.1917 10.417 3.30888C10.6945 3.4263 10.875 3.69904 10.875 4.00029V7.25029H18C18.4142 7.25029 18.75 7.58608 18.75 8.00029C18.7498 8.41436 18.4141 8.75029 18 8.75029H10.875V12.0003C10.8749 12.3015 10.6944 12.5734 10.417 12.6907C10.1397 12.808 9.81874 12.7481 9.60254 12.5384L5.47754 8.53837C5.33206 8.39721 5.25008 8.203 5.25 8.00029C5.25 7.79738 5.33187 7.60247 5.47754 7.46122L9.60254 3.46122Z" fill="#48465C"/>
</svg>
