<svg width="24" height="24" viewBox="0 0 24 24" fill="none" xmlns="http://www.w3.org/2000/svg">
<path d="M7.99988 5.25C8.41409 5.25 8.74988 5.58579 8.74988 6V16.1494L11.4618 13.3525C11.7501 13.0554 12.225 13.0486 12.5223 13.3369C12.8195 13.6252 12.8272 14.1001 12.5389 14.3975L8.53894 18.5225C8.39768 18.6682 8.20279 18.75 7.99988 18.75C7.79716 18.7499 7.60298 18.668 7.4618 18.5225L3.4618 14.3975C3.17344 14.1001 3.18104 13.6252 3.4784 13.3369C3.77577 13.0486 4.25061 13.0552 4.53894 13.3525L7.24988 16.1494V6C7.24988 5.58585 7.58576 5.2501 7.99988 5.25ZM15.9999 5.25C16.2028 5.25 16.3977 5.33187 16.5389 5.47754L20.5389 9.60254C20.8272 9.89982 20.8195 10.3748 20.5223 10.6631C20.225 10.9514 19.7501 10.9446 19.4618 10.6475L16.7499 7.85059V18C16.7499 18.4142 16.4141 18.75 15.9999 18.75C15.5858 18.7499 15.2499 18.4141 15.2499 18V7.85059L12.5389 10.6475C12.2507 10.9448 11.7758 10.9514 11.4784 10.6631C11.181 10.3748 11.1734 9.8999 11.4618 9.60254L15.4618 5.47754C15.6029 5.33207 15.7972 5.25005 15.9999 5.25Z" fill="#48465C"/>
</svg>
