<svg width="24" height="24" viewBox="0 0 24 24" fill="none" xmlns="http://www.w3.org/2000/svg">
<path fill-rule="evenodd" clip-rule="evenodd" d="M8.00035 5.25C8.41442 5.25016 8.75035 5.58589 8.75035 6V13.125H12.0003C12.3015 13.1251 12.5734 13.3056 12.6908 13.583C12.808 13.8603 12.7482 14.1812 12.5384 14.3975L8.53843 18.5225C8.39727 18.668 8.20306 18.7499 8.00035 18.75C7.79744 18.75 7.60254 18.6682 7.46128 18.5225L3.46128 14.3975C3.25168 14.1813 3.19176 13.8603 3.30894 13.583C3.42636 13.3055 3.6991 13.125 4.00035 13.125H7.25035V6C7.25035 5.58579 7.58613 5.25 8.00035 5.25ZM16.0003 5.25C16.2031 5.25008 16.3973 5.33206 16.5384 5.47754L20.5384 9.60254C20.7482 9.81874 20.808 10.1397 20.6908 10.417C20.5734 10.6944 20.3015 10.8749 20.0003 10.875H16.7503V18C16.7503 18.4141 16.4144 18.7498 16.0003 18.75C15.5861 18.75 15.2503 18.4142 15.2503 18V10.875H12.0003C11.6991 10.875 11.4264 10.6945 11.3089 10.417C11.1918 10.1397 11.2517 9.8187 11.4613 9.60254L15.4613 5.47754C15.6026 5.33187 15.7974 5.25 16.0003 5.25Z" fill="#48465C"/>
</svg>
