<svg width="24" height="24" viewBox="0 0 24 24" fill="none" xmlns="http://www.w3.org/2000/svg">
<path fill-rule="evenodd" clip-rule="evenodd" d="M16.7627 3.2885C17.069 3.18641 17.4059 3.29196 17.5996 3.55022L20.5996 7.55022C20.8481 7.88158 20.7815 8.35151 20.4502 8.60003C20.1188 8.84854 19.6489 8.78096 19.4004 8.44964L17.75 6.24944V19.9994C17.75 20.4137 17.4142 20.7494 17 20.7494C16.5858 20.7494 16.25 20.4137 16.25 19.9994V3.99944C16.2502 3.67684 16.4567 3.39058 16.7627 3.2885ZM13 18.7494H8V17.2494H13V18.7494ZM13 13.7494H6V12.2494H13V13.7494ZM13 8.74944H4V7.24944H13V8.74944Z" fill="#48465C"/>
</svg>
