<svg width="24" height="24" viewBox="0 0 24 24" fill="none" xmlns="http://www.w3.org/2000/svg">
<path d="M13.3369 11.4784C13.6252 11.181 14.1001 11.1734 14.3975 11.4618L18.5225 15.4618C18.668 15.6029 18.75 15.7972 18.75 15.9999C18.75 16.2028 18.6682 16.3978 18.5225 16.539L14.3975 20.539C14.1001 20.8272 13.6252 20.8195 13.3369 20.5224C13.0486 20.225 13.0554 19.7501 13.3525 19.4618L16.1494 16.7499H6C5.58579 16.7499 5.25 16.4141 5.25 15.9999C5.2501 15.5858 5.58585 15.2499 6 15.2499H16.1494L13.3525 12.539C13.0552 12.2507 13.0486 11.7758 13.3369 11.4784ZM9.60254 3.4618C9.8999 3.17344 10.3748 3.18105 10.6631 3.47841C10.9514 3.77578 10.9448 4.25062 10.6475 4.53895L7.85059 7.24989H18C18.4141 7.24989 18.7499 7.58576 18.75 7.99989C18.75 8.4141 18.4142 8.74989 18 8.74989H7.85059L10.6475 11.4618C10.9446 11.7501 10.9514 12.225 10.6631 12.5224C10.3748 12.8195 9.89982 12.8272 9.60254 12.539L5.47754 8.53895C5.33187 8.39769 5.25 8.2028 5.25 7.99989C5.25005 7.79717 5.33207 7.60299 5.47754 7.4618L9.60254 3.4618Z" fill="#48465C"/>
</svg>
