<svg width="24" height="24" viewBox="0 0 24 24" fill="none" xmlns="http://www.w3.org/2000/svg">
<path d="M16.7627 3.28847C17.0689 3.18641 17.4059 3.29208 17.5996 3.55019L20.5996 7.55019C20.8481 7.88148 20.7814 8.35142 20.4502 8.59999C20.1189 8.84842 19.649 8.78159 19.4004 8.45058L17.75 6.25038V20.0004C17.7499 20.4146 17.4141 20.7504 17 20.7504C16.5859 20.7504 16.2501 20.4146 16.25 20.0004V4.00038C16.25 3.67757 16.4565 3.39056 16.7627 3.28847ZM13 18.7504H8V17.2504H13V18.7504ZM13 13.7504H6V12.2504H13V13.7504ZM13 8.75038H4V7.25038H13V8.75038Z" fill="#48465C"/>
</svg>
