<svg width="24" height="24" viewBox="0 0 24 24" fill="none" xmlns="http://www.w3.org/2000/svg">
<path d="M16.7627 3.28899C17.069 3.1869 17.4059 3.29245 17.5996 3.55071L20.5996 7.55071C20.8481 7.88207 20.7815 8.35199 20.4502 8.60052C20.1188 8.84903 19.6489 8.78145 19.4004 8.45013L17.75 6.24993V19.9999C17.75 20.4142 17.4142 20.7499 17 20.7499C16.5858 20.7499 16.25 20.4142 16.25 19.9999V3.99993C16.2502 3.67733 16.4567 3.39107 16.7627 3.28899ZM13 17.2499C13.4141 17.2499 13.7498 17.5859 13.75 17.9999C13.75 18.4142 13.4142 18.7499 13 18.7499H8C7.58579 18.7499 7.25 18.4142 7.25 17.9999C7.25019 17.5859 7.58591 17.2499 8 17.2499H13ZM13 12.2499C13.4141 12.2499 13.7498 12.5859 13.75 12.9999C13.75 13.4142 13.4142 13.7499 13 13.7499H6C5.58579 13.7499 5.25 13.4142 5.25 12.9999C5.25019 12.5859 5.58591 12.2499 6 12.2499H13ZM13 7.24993C13.4141 7.24993 13.7498 7.58589 13.75 7.99993C13.75 8.41414 13.4142 8.74993 13 8.74993H4C3.58579 8.74993 3.25 8.41414 3.25 7.99993C3.25022 7.58589 3.58592 7.24993 4 7.24993H13Z" fill="#48465C"/>
</svg>
