<svg width="24" height="24" viewBox="0 0 24 24" fill="none" xmlns="http://www.w3.org/2000/svg">
<path d="M9.46387 2.82045C11.0864 2.05977 12.9125 2.05993 14.5352 2.82045L21.2266 5.95814C22.2788 6.45146 22.7499 7.52238 22.75 8.50014C22.75 9.47794 22.2789 10.5497 21.2266 11.0431L19.75 11.7355V16.6261C19.7499 17.8791 19.1211 19.0885 17.9775 19.7218C17.226 20.138 16.2385 20.6394 15.1992 21.0382C14.1719 21.4323 13.0339 21.7501 12 21.7501C10.9661 21.7501 9.82813 21.4323 8.80078 21.0382C7.76147 20.6394 6.77407 20.138 6.02246 19.7218C4.87887 19.0885 4.25014 17.8791 4.25 16.6261V11.7355L2.77344 11.0431L2.75 11.0314V14.0001C2.75 14.4143 2.41421 14.7501 2 14.7501C1.58579 14.7501 1.25 14.4143 1.25 14.0001V8.50014C1.25005 7.52238 1.7212 6.45145 2.77344 5.95814L9.46387 2.82045ZM14.5361 14.1798C12.9135 14.9406 11.0875 14.9404 9.46484 14.1798L5.75 12.4386V16.6261C5.75014 17.3889 6.12921 18.066 6.74902 18.4093C7.46566 18.8061 8.38724 19.2727 9.33887 19.6378C10.3026 20.0075 11.238 20.2501 12 20.2501C12.762 20.2501 13.6974 20.0075 14.6611 19.6378C15.6127 19.2727 16.5344 18.8061 17.251 18.4093C17.8709 18.066 18.2499 17.3889 18.25 16.6261V12.4386L14.5361 14.1798ZM13.8984 4.17885C12.6794 3.60744 11.3206 3.60748 10.1016 4.17885L3.41016 7.31557C3.00701 7.50457 2.75004 7.95578 2.75 8.50014C2.75 9.04454 3.00699 9.49569 3.41016 9.68471L10.1016 12.8214C11.3207 13.3929 12.6793 13.3928 13.8984 12.8214L20.5898 9.68471C20.993 9.49569 21.25 9.04455 21.25 8.50014C21.2499 7.95581 20.993 7.50457 20.5898 7.31557L13.8984 4.17885Z" fill="#48465C"/>
</svg>
