<svg width="24" height="24" viewBox="0 0 24 24" fill="none" xmlns="http://www.w3.org/2000/svg">
<path fill-rule="evenodd" clip-rule="evenodd" d="M19.0001 16.6255C19 17.6335 18.4961 18.5776 17.6144 19.066C16.1459 19.879 13.7959 20.9995 12.0001 20.9996C10.2043 20.9996 7.85426 19.879 6.38585 19.066C5.50408 18.5776 5.00018 17.6335 5.00011 16.6255V12.9146L9.14659 14.858C10.9709 15.7131 13.0293 15.7132 14.8536 14.858L19.0001 12.9146V16.6255ZM9.78234 3.49957C11.2032 2.83342 12.796 2.83353 14.2169 3.49957L20.9083 6.63629C22.3638 7.31864 22.3638 9.68147 20.9083 10.3638L14.2169 13.5005C12.7962 14.1665 11.2041 14.1665 9.78331 13.5005L3.75011 10.6724V14.5005C3.74986 14.9145 3.41414 15.2505 3.00011 15.2505C2.58605 15.2505 2.25036 14.9145 2.25011 14.5005V9.54644C1.73533 8.56331 2.01599 7.14071 3.09191 6.63629L9.78234 3.49957Z" fill="#48465C"/>
</svg>
