<svg width="24" height="24" viewBox="0 0 24 24" fill="none" xmlns="http://www.w3.org/2000/svg">
<path d="M19.0004 16.6246C19.0004 17.6326 18.4964 18.5767 17.6146 19.0651C16.1463 19.8781 13.7963 20.9996 12.0004 20.9996C10.2044 20.9996 7.85351 19.8782 6.38514 19.0651C5.50352 18.5766 5.00038 17.6325 5.00038 16.6246V12.9147L9.14589 14.858C10.9702 15.7133 13.0296 15.7132 14.8539 14.858L19.0004 12.9147V16.6246ZM9.7826 3.49963C11.2036 2.83344 12.7962 2.83347 14.2172 3.49963L20.9086 6.63635C22.3641 7.31869 22.364 9.68052 20.9086 10.3629L14.2172 13.4996C12.7962 14.1658 11.2036 14.1658 9.7826 13.4996L3.75038 10.6715V14.4996C3.75038 14.9138 3.4145 15.2495 3.00038 15.2496C2.58617 15.2496 2.25038 14.9138 2.25038 14.4996V9.54651C1.73545 8.56337 2.01617 7.14081 3.09217 6.63635L9.7826 3.49963Z" fill="#48465C"/>
</svg>
