<svg width="24" height="24" viewBox="0 0 24 24" fill="none" xmlns="http://www.w3.org/2000/svg">
<path fill-rule="evenodd" clip-rule="evenodd" d="M21.6223 8.85264C21.98 8.64397 22.4389 8.76453 22.6477 9.12217C22.8563 9.47983 22.7356 9.93878 22.3781 10.1476C16.6665 13.4794 15.2502 18.859 15.2502 22.0001C15.2502 22.4142 14.9143 22.75 14.5002 22.7501C14.086 22.7501 13.7502 22.4143 13.7502 22.0001C13.7502 18.4745 15.3341 12.5207 21.6223 8.85264ZM10.2785 11.794C10.3924 11.3958 10.808 11.1656 11.2062 11.2794C11.6043 11.3933 11.8346 11.8081 11.7209 12.2062C11.3544 13.4888 11.2665 15.3496 11.3244 17.214C11.3817 19.0596 11.5789 20.8293 11.7414 21.8858C11.8044 22.2952 11.5229 22.6783 11.1135 22.7413C10.7043 22.8041 10.3221 22.5235 10.259 22.1144C10.0882 21.0042 9.88476 19.1734 9.82539 17.2608C9.76661 15.3671 9.84501 13.3113 10.2785 11.794ZM4.75019 12.8351C4.95742 12.7155 5.22013 12.7591 5.37715 12.9396C5.37778 12.9403 5.37927 12.9424 5.38105 12.9444C5.38468 12.9485 5.39077 12.9553 5.39863 12.964C5.41464 12.9816 5.43886 13.0079 5.46992 13.0401C5.53282 13.1054 5.62253 13.1934 5.72676 13.2853C5.95301 13.4845 6.1849 13.6408 6.35176 13.6856C6.51849 13.7303 6.79739 13.7109 7.09297 13.6515C7.22885 13.6241 7.35057 13.5926 7.43769 13.5675C7.48068 13.5551 7.51556 13.5445 7.53828 13.5372C7.54942 13.5337 7.55845 13.5302 7.56367 13.5284C7.56565 13.5278 7.56757 13.5277 7.56855 13.5274C7.79489 13.4494 8.0455 13.5428 8.16523 13.7501C8.2846 13.9574 8.24034 14.2202 8.05976 14.3771C8.05903 14.3778 8.0576 14.3794 8.05586 14.381C8.05178 14.3846 8.04489 14.3907 8.03633 14.3985C8.01869 14.4146 7.99153 14.4387 7.95918 14.4698C7.89386 14.5328 7.80586 14.6224 7.71406 14.7267C7.51473 14.953 7.3584 15.1848 7.31367 15.3517C7.26903 15.5185 7.28841 15.7973 7.34785 16.0929C7.37527 16.2292 7.40673 16.3514 7.43183 16.4386C7.44421 16.4815 7.45488 16.5155 7.46211 16.5382C7.46572 16.5495 7.46918 16.5584 7.4709 16.5636L7.47285 16.5685C7.55085 16.7948 7.45745 17.0454 7.25019 17.1651C7.04289 17.2847 6.77922 17.2403 6.62226 17.0597L6.61836 17.0558C6.61474 17.0517 6.60871 17.0449 6.60078 17.0362C6.58473 17.0186 6.56074 16.9915 6.52949 16.9591C6.46655 16.8938 6.3769 16.8058 6.27265 16.714C6.0463 16.5146 5.81453 16.3583 5.64765 16.3136C5.48075 16.269 5.20199 16.2883 4.90644 16.3478C4.77045 16.3751 4.64882 16.4067 4.56172 16.4317C4.5186 16.4442 4.4838 16.4548 4.46113 16.462C4.44992 16.4656 4.44088 16.4691 4.43574 16.4708C4.43354 16.4716 4.43169 16.4725 4.43086 16.4728L4.34492 16.4933C4.1441 16.5246 3.93993 16.4311 3.83515 16.2501C3.71555 16.0429 3.75918 15.7792 3.93965 15.6222L3.94453 15.6183C3.9486 15.6147 3.95554 15.6084 3.96406 15.6007C3.98165 15.5847 4.00805 15.5604 4.04023 15.5294C4.10552 15.4665 4.19353 15.3768 4.28535 15.2726C4.48472 15.0462 4.64096 14.8144 4.68574 14.6476C4.73044 14.4808 4.71105 14.2021 4.65156 13.9063C4.62417 13.7702 4.59267 13.6488 4.56758 13.5616C4.55511 13.5183 4.54455 13.4838 4.5373 13.461C4.53369 13.4497 4.53024 13.4408 4.52851 13.4356L4.52754 13.4308C4.44954 13.2045 4.54303 12.9548 4.75019 12.8351ZM5.70722 14.4933C5.70273 14.633 5.68811 14.7735 5.65254 14.9063C5.61698 15.039 5.55918 15.168 5.49336 15.2911C5.63309 15.2956 5.77358 15.3122 5.90644 15.3478C6.03885 15.3833 6.1683 15.4393 6.29121 15.505C6.29575 15.3656 6.31236 15.2254 6.34785 15.0929L6.39668 14.9425C6.42725 14.8619 6.46521 14.7834 6.50605 14.7071C6.4198 14.7043 6.33304 14.6984 6.24824 14.6847L6.09297 14.6515C5.9601 14.6158 5.8305 14.5593 5.70722 14.4933ZM11.5978 1.25889C12.1298 1.31379 12.4479 1.67853 12.6437 1.97764C12.8297 2.26158 13.0114 2.65286 13.2082 3.07725C13.2155 3.09281 13.2225 3.10849 13.2297 3.12412L13.342 3.36436C13.3734 3.43197 13.3975 3.48466 13.4191 3.5294C13.4346 3.56131 13.4467 3.58475 13.4562 3.60264C13.4747 3.60979 13.4989 3.61876 13.5314 3.62998C13.5781 3.64605 13.6328 3.66455 13.7033 3.6876L13.9543 3.76963C13.9705 3.77495 13.9869 3.77997 14.0031 3.78526C14.4454 3.92977 14.855 4.06373 15.1584 4.21494C15.4799 4.37527 15.8752 4.64791 15.9934 5.16709C16.1123 5.69005 15.8693 6.10641 15.6447 6.38779C15.4344 6.65136 15.1208 6.94208 14.7834 7.25498C14.7705 7.26685 14.7582 7.27918 14.7453 7.29112L14.5529 7.46885C14.4991 7.51873 14.4582 7.55731 14.423 7.59092C14.4016 7.61141 14.385 7.62775 14.3723 7.64072C14.3716 7.65966 14.3714 7.68373 14.3713 7.71494C14.3711 7.76425 14.3714 7.82151 14.3723 7.89561L14.3752 8.16026C14.3754 8.17755 14.376 8.19481 14.3762 8.21201C14.3819 8.6773 14.3874 9.10839 14.342 9.44346C14.2941 9.79639 14.162 10.2662 13.6965 10.5401C13.2312 10.8136 12.756 10.7012 12.424 10.5724C12.1084 10.4499 11.7339 10.2373 11.3283 10.0069C11.3132 9.99839 11.2976 9.99016 11.2824 9.98154L11.0529 9.85069C10.9884 9.81404 10.9381 9.78556 10.8947 9.76182C10.8661 9.74618 10.8437 9.73442 10.8264 9.72569C10.8085 9.73053 10.7861 9.73723 10.757 9.74619C10.7104 9.76058 10.6561 9.77804 10.5861 9.80088L10.3371 9.88194C10.3205 9.88735 10.3038 9.89315 10.2873 9.89854C9.84935 10.0415 9.44235 10.1747 9.10957 10.2306C8.75441 10.2901 8.27366 10.2997 7.87422 9.94444C7.47632 9.59037 7.42748 9.11248 7.44258 8.75303C7.45681 8.41476 7.53783 7.99292 7.62519 7.53721C7.62845 7.5202 7.63168 7.50256 7.63496 7.48545L7.68476 7.22666C7.69865 7.15415 7.70948 7.09827 7.71797 7.0499C7.72375 7.01694 7.72801 6.99207 7.73066 6.97276C7.7196 6.95587 7.70413 6.93401 7.68379 6.90537C7.65501 6.86488 7.62144 6.81797 7.57734 6.75791L7.42012 6.54404C7.40985 6.53006 7.39908 6.51597 7.38887 6.50205C7.11187 6.12491 6.85655 5.77726 6.69746 5.47764C6.53015 5.16244 6.36329 4.70688 6.57344 4.21397C6.78556 3.71685 7.23365 3.52583 7.5793 3.43369C7.9051 3.34691 8.33139 3.29944 8.79023 3.24815C8.80764 3.2462 8.82547 3.24425 8.84297 3.24229L9.10371 3.21299C9.1769 3.2048 9.233 3.19771 9.28144 3.19151C9.3101 3.18784 9.33297 3.18555 9.35078 3.18272C9.3618 3.16865 9.37487 3.15006 9.3918 3.12705C9.42071 3.08776 9.45359 3.04154 9.49629 2.98154L9.64863 2.76865C9.65882 2.75436 9.66878 2.73991 9.6789 2.72569C9.94595 2.35034 10.1939 2.00134 10.4279 1.75889C10.6769 1.50105 11.0611 1.20365 11.5978 1.25889ZM11.4377 2.87705C11.3028 3.03295 11.1316 3.27061 10.8703 3.63779L10.7189 3.85166C10.7077 3.8674 10.6959 3.88431 10.6838 3.90147C10.5578 4.08075 10.3822 4.32962 10.1174 4.48545C9.85255 4.64115 9.54866 4.67418 9.33027 4.69737C9.30965 4.69956 9.28971 4.70109 9.2707 4.70322L9.00996 4.73252C8.56375 4.78247 8.27269 4.81662 8.07051 4.8585C8.17897 5.04045 8.35542 5.28359 8.6291 5.65635L8.78633 5.87022C8.79786 5.88593 8.80995 5.9022 8.82246 5.91904C8.95544 6.09816 9.13577 6.34093 9.20332 6.63779C9.27116 6.936 9.21298 7.23289 9.17012 7.45029C9.16612 7.47055 9.16201 7.49007 9.1584 7.50889L9.10859 7.76768C9.02018 8.22919 8.96555 8.52496 8.94746 8.73447C9.15029 8.69043 9.43229 8.59969 9.87226 8.45615L10.1213 8.3751C10.1396 8.36912 10.1591 8.36216 10.1789 8.35557C10.3875 8.28624 10.6753 8.19126 10.9807 8.22276C11.2842 8.25408 11.5471 8.40512 11.7395 8.51572C11.7579 8.52626 11.7762 8.53634 11.7932 8.546L12.0236 8.67686C12.4171 8.90027 12.6754 9.04553 12.8664 9.13194C12.8829 8.92385 12.8816 8.62832 12.8762 8.17783L12.8723 7.91416C12.872 7.89464 12.8717 7.87377 12.8713 7.85264C12.8674 7.63146 12.8628 7.32805 12.9826 7.04697C13.1032 6.76428 13.3268 6.55853 13.4885 6.41026C13.5039 6.39614 13.5193 6.38234 13.5334 6.36924L13.7248 6.19151C14.0617 5.87899 14.2775 5.67666 14.4143 5.52158C14.2214 5.43584 13.9354 5.34146 13.4885 5.19541L13.2375 5.11338L13.009 5.03721C12.8282 4.97313 12.6235 4.88378 12.4523 4.73154C12.2249 4.52917 12.0989 4.25477 12.0061 4.05186C11.9974 4.03269 11.989 4.01398 11.9807 3.99619L11.8693 3.75498C11.6734 3.33262 11.5453 3.05979 11.4377 2.87705Z" fill="#48465C"/>
</svg>
