<svg width="24" height="24" viewBox="0 0 24 24" fill="none" xmlns="http://www.w3.org/2000/svg">
<path fill-rule="evenodd" clip-rule="evenodd" d="M14.7246 8.15619C16.2751 7.23795 17.0507 6.77867 17.6201 7.10443C18.1894 7.43022 18.1756 8.32542 18.1484 10.1152L18.1415 10.5781C18.1338 11.0865 18.1298 11.3409 18.2246 11.5644C18.3193 11.7877 18.5019 11.9554 18.8671 12.29L19.2001 12.5947C20.4858 13.7723 21.1289 14.3611 20.9785 15.0224C20.8278 15.6837 19.9829 15.9797 18.2939 16.5712L17.8574 16.7246C17.3774 16.8927 17.1372 16.9769 16.9531 17.1454C16.769 17.314 16.661 17.548 16.4462 18.0156L16.2509 18.4413C15.4952 20.0871 15.1173 20.9099 14.455 20.9931C13.7926 21.0761 13.2841 20.3643 12.2675 18.9404L12.0038 18.5712C11.7152 18.167 11.5706 17.965 11.3622 17.8456C11.1537 17.7263 10.9044 17.7028 10.4062 17.6572L9.95307 17.6162C8.20021 17.4558 7.3232 17.3754 7.06439 16.7656C6.80565 16.1555 7.33668 15.4189 8.3974 13.9472L8.67182 13.5663C8.97299 13.1485 9.12345 12.9394 9.17865 12.6972C9.23386 12.455 9.18775 12.2069 9.09467 11.7109L9.00971 11.2597C8.68221 9.5147 8.51825 8.64168 9.02045 8.18158C9.52306 7.72156 10.36 7.97851 12.0322 8.4931L12.4648 8.62592C12.9398 8.7721 13.1772 8.8457 13.4199 8.81537C13.6626 8.78498 13.8836 8.65443 14.3242 8.3935L14.7246 8.15619ZM3.96967 9.96967C4.26256 9.67678 4.73732 9.67678 5.03021 9.96967L6.53021 11.4697C6.82306 11.7626 6.82309 12.2373 6.53021 12.5302C6.23735 12.8231 5.76256 12.823 5.46967 12.5302L3.96967 11.0302C3.67678 10.7373 3.67678 10.2626 3.96967 9.96967ZM1.46967 7.46967C1.76256 7.17678 2.23732 7.17678 2.53021 7.46967L3.03021 7.96967C3.32304 8.26256 3.32308 8.73734 3.03021 9.03021C2.73734 9.32308 2.26256 9.32304 1.96967 9.03021L1.46967 8.53021C1.17678 8.23732 1.17678 7.76256 1.46967 7.46967ZM3.46967 3.46967C3.76256 3.17678 4.23732 3.17678 4.53021 3.46967L7.03021 5.96967C7.32304 6.26256 7.32308 6.73734 7.03021 7.03021C6.73734 7.32308 6.26256 7.32304 5.96967 7.03021L3.46967 4.53021C3.17678 4.23732 3.17678 3.76256 3.46967 3.46967ZM12.4697 5.46967C12.7626 5.17678 13.2373 5.17678 13.5302 5.46967L14.0302 5.96967C14.323 6.26256 14.3231 6.73735 14.0302 7.03021C13.7373 7.32309 13.2626 7.32306 12.9697 7.03021L12.4697 6.53021C12.1768 6.23733 12.1768 5.76256 12.4697 5.46967ZM8.96967 1.96967C9.26256 1.67678 9.73735 1.67678 10.0302 1.96967L12.0302 3.96967C12.323 4.26256 12.3231 4.73735 12.0302 5.03021C11.7373 5.32309 11.2626 5.32306 10.9697 5.03021L8.96967 3.03021C8.67678 2.73732 8.67678 2.26256 8.96967 1.96967Z" fill="#48465C"/>
</svg>
