<svg width="24" height="24" viewBox="0 0 24 24" fill="none" xmlns="http://www.w3.org/2000/svg">
<path fill-rule="evenodd" clip-rule="evenodd" d="M16.9238 13.3914C17.1298 12.8693 17.8692 12.8693 18.0752 13.3914L18.9756 15.6746C19.0385 15.834 19.1649 15.9603 19.3242 16.0232L21.6084 16.9236C22.1304 17.1296 22.1303 17.8689 21.6084 18.075L19.3242 18.9754C19.1648 19.0383 19.0385 19.1646 18.9756 19.324L18.0752 21.6082C17.8691 22.13 17.1299 22.1301 16.9238 21.6082L16.0235 19.324C15.9605 19.1646 15.8342 19.0382 15.6748 18.9754L13.3916 18.075C12.8695 17.869 12.8695 17.1296 13.3916 16.9236L15.6748 16.0232C15.8343 15.9603 15.9606 15.8341 16.0235 15.6746L16.9238 13.3914ZM7.45217 2.71266C7.82693 1.76245 9.17213 1.76245 9.54689 2.71266L10.708 5.657C10.8224 5.9471 11.0527 6.17638 11.3428 6.29079L14.2871 7.45192C15.2374 7.82668 15.2374 9.17186 14.2871 9.54665L11.3428 10.7078C11.0527 10.8222 10.8224 11.0524 10.708 11.3425L9.54689 14.2869C9.17211 15.2371 7.82692 15.2372 7.45217 14.2869L6.29103 11.3425C6.17663 11.0525 5.94734 10.8222 5.65725 10.7078L2.71291 9.54665C1.76269 9.17189 1.76269 7.82668 2.71291 7.45192L5.65725 6.29079C5.9472 6.17638 6.17662 5.94695 6.29103 5.657L7.45217 2.71266Z" fill="#48465C"/>
</svg>
