<svg width="24" height="24" viewBox="0 0 24 24" fill="none" xmlns="http://www.w3.org/2000/svg">
<path fill-rule="evenodd" clip-rule="evenodd" d="M12 2C12.9468 2.00017 13.5803 3.13618 14.8467 5.4082L15.1739 5.99609C15.5339 6.64179 15.7145 6.96471 15.9952 7.17773C16.2757 7.39069 16.6254 7.4698 17.3243 7.62793L17.96 7.77246C20.4196 8.32899 21.6498 8.60694 21.9424 9.54785C22.2349 10.4887 21.3965 11.4691 19.7198 13.4297L19.2862 13.9375C18.8097 14.4947 18.5711 14.7735 18.4639 15.1182C18.357 15.4627 18.393 15.8343 18.4649 16.5771L18.5303 17.2549C18.7838 19.8706 18.9104 21.1783 18.1446 21.7598C17.3785 22.3413 16.2269 21.8113 13.9239 20.751L13.3282 20.4766C12.6741 20.1754 12.3468 20.0245 12 20.0244C11.6531 20.0244 11.3253 20.1753 10.6709 20.4766L10.0752 20.751C7.77233 21.8112 6.62055 22.3413 5.85454 21.7598C5.08911 21.1781 5.21537 19.8702 5.4688 17.2549L5.53521 16.5771C5.60719 15.8344 5.64314 15.4626 5.53618 15.1182C5.42902 14.7735 5.19028 14.4945 4.71392 13.9375L4.28032 13.4297C2.60347 11.4689 1.76507 10.4887 2.05767 9.54785C2.35026 8.60699 3.57967 8.32894 6.03911 7.77246L6.67583 7.62793C7.37471 7.4698 7.72434 7.39074 8.00493 7.17773C8.28547 6.96471 8.46536 6.6417 8.82525 5.99609L9.15337 5.4082C10.4199 3.13615 11.0532 2 12 2Z" fill="#48465C"/>
</svg>
