<svg width="24" height="24" viewBox="0 0 24 24" fill="none" xmlns="http://www.w3.org/2000/svg">
<path d="M11.3897 1.98404C11.8613 1.53638 12.4478 1.14823 13.1866 1.27408C13.9232 1.39958 14.3511 1.95816 14.6524 2.5358C14.9489 3.10432 15.229 3.90278 15.5655 4.86197L15.7686 5.44107C15.9918 6.07745 16.044 6.181 16.1085 6.25064C16.1673 6.31416 16.2505 6.36541 16.8477 6.61393L17.3946 6.84146C18.2892 7.21372 19.0424 7.52762 19.5782 7.85514C20.1408 8.19909 20.6351 8.66094 20.7335 9.39322C20.8157 10.0069 20.5796 10.525 20.2364 10.9733C20.1358 11.1047 20.0201 11.2381 19.8917 11.3737C20.1646 11.5087 20.4126 11.7122 20.5801 12.0299C20.8753 12.5894 20.7373 13.1508 20.5372 13.609C20.3463 14.0461 20.0187 14.568 19.6417 15.1676L19.4014 15.5495C19.2804 15.742 19.2138 15.8501 19.17 15.9342C19.1508 15.9711 19.1416 15.9918 19.1378 16.0026C19.136 16.0076 19.1348 16.0114 19.1348 16.0114V16.0221C19.1355 16.0342 19.1381 16.0581 19.1465 16.1003C19.1651 16.195 19.1998 16.3191 19.2618 16.5397L19.3848 16.9772C19.5786 17.6664 19.7461 18.264 19.8067 18.7389C19.8697 19.2322 19.8483 19.8162 19.4024 20.2692C18.957 20.7217 18.3735 20.7536 17.879 20.6999C17.4023 20.648 16.8008 20.4919 16.1065 20.3112L15.6651 20.196C15.4431 20.1382 15.3181 20.1064 15.2227 20.0895C15.18 20.0819 15.156 20.0793 15.1436 20.0788C15.1388 20.0786 15.135 20.0787 15.1338 20.0788L15.1319 20.0797H15.1309C15.1301 20.08 15.1266 20.0809 15.1221 20.0827C15.1112 20.0867 15.0896 20.0959 15.0528 20.1159C14.9691 20.1612 14.8624 20.2302 14.6719 20.3542L14.294 20.6003C13.6995 20.9873 13.1826 21.3238 12.7481 21.5221C12.2929 21.7298 11.7351 21.8766 11.171 21.5934C10.6087 21.311 10.3905 20.7768 10.2813 20.2878C10.1769 19.8199 10.1318 19.202 10.0801 18.4899L10.0469 18.0387C10.0304 17.8108 10.0205 17.6828 10.0059 17.5876C9.99942 17.5452 9.99385 17.5214 9.99029 17.5094C9.98878 17.5044 9.98761 17.5003 9.98736 17.4997L9.98639 17.4977L9.98444 17.4948C9.9837 17.4937 9.98091 17.49 9.9776 17.486C9.96932 17.4758 9.95272 17.4573 9.92096 17.4274C9.9079 17.4152 9.89432 17.4018 9.87897 17.3883L9.28131 17.6794L9.1524 17.7145C8.21519 17.9736 7.426 18.1917 6.80572 18.2633C6.15983 18.3379 5.47161 18.2812 4.96002 17.7292C4.46302 17.1926 4.42587 16.5012 4.50494 15.8424C4.5826 15.1959 4.80112 14.3706 5.06451 13.3747L5.22272 12.777C5.39525 12.1244 5.41542 11.9959 5.40045 11.8835C5.38588 11.7749 5.3369 11.6648 5.00006 11.0954L4.69049 10.5729C4.17819 9.70702 3.7519 8.98537 3.5069 8.38932C3.25346 7.77273 3.11554 7.10718 3.43951 6.45475C3.7692 5.7909 4.38905 5.51656 5.03229 5.3776C5.64443 5.24542 6.45733 5.19864 7.42194 5.14322C7.44303 5.14201 7.46418 5.14054 7.48541 5.13932L8.01276 5.10904C8.65845 5.07192 8.75067 5.05064 8.82428 5.01139C8.90489 4.96838 8.98566 4.89055 9.40143 4.36197L9.78033 3.88053C10.4054 3.08582 10.9266 2.42376 11.3897 1.98404ZM13.3262 9.75553C13.2987 9.78056 13.2446 9.84258 13.1651 9.986C12.9954 10.2921 12.8183 10.7618 12.544 11.4977L12.4073 11.8659C12.3975 11.8922 12.3879 11.9192 12.378 11.946C12.2593 12.2674 12.1295 12.6189 11.8663 12.8864C11.6032 13.1537 11.2538 13.2895 10.9337 13.4137C10.9072 13.4241 10.8807 13.4338 10.8546 13.444L10.4874 13.5876C9.75486 13.8744 9.28748 14.0601 8.98346 14.235C8.8435 14.3155 8.78137 14.3699 8.75592 14.3981C8.77177 14.4337 8.81679 14.5078 8.93561 14.6354C9.17942 14.8972 9.57735 15.2185 10.1973 15.7155L10.5079 15.9645C10.53 15.9822 10.5519 16.0004 10.5743 16.0182C10.847 16.2355 11.1385 16.4675 11.3126 16.7975C11.4873 17.1288 11.5132 17.5 11.5372 17.8454C11.5392 17.8735 11.541 17.9016 11.543 17.9294L11.5723 18.3239C11.6295 19.1108 11.6679 19.6155 11.7452 19.9616C11.782 20.1265 11.8184 20.2073 11.8399 20.2428C11.8416 20.2456 11.8434 20.2477 11.8448 20.2497C11.8455 20.2496 11.8487 20.2498 11.8506 20.2497C11.8896 20.2458 11.9739 20.2273 12.126 20.1579C12.4455 20.0121 12.8668 19.7395 13.5245 19.3112L13.8536 19.0973C13.877 19.082 13.9011 19.066 13.9249 19.0504C14.212 18.8622 14.5239 18.6577 14.8946 18.5983C15.2632 18.5392 15.6246 18.6341 15.96 18.7223C15.9878 18.7297 16.0156 18.7376 16.043 18.7448L16.4278 18.8444C17.1948 19.0439 17.6877 19.1702 18.0411 19.2087C18.2038 19.2264 18.2882 19.2193 18.3272 19.2116C18.3341 19.1726 18.3388 19.0891 18.3184 18.9294C18.2736 18.5781 18.1389 18.0886 17.9249 17.3268L17.8174 16.945C17.8098 16.9179 17.8018 16.8905 17.794 16.8629C17.6994 16.5303 17.5969 16.1706 17.6495 15.8004C17.7025 15.4286 17.9027 15.1125 18.086 14.8229C18.1012 14.799 18.1161 14.7752 18.1309 14.7516L18.3399 14.4196C18.7573 13.7555 19.022 13.3295 19.1622 13.0085C19.2289 12.8558 19.246 12.7722 19.2491 12.734L19.2501 12.7311C19.248 12.7298 19.245 12.7277 19.2422 12.7262C19.2057 12.7051 19.124 12.6702 18.9581 12.6364C18.6094 12.5655 18.1028 12.5365 17.3135 12.4938L16.9171 12.4723C16.8893 12.4708 16.8613 12.4698 16.8331 12.4684C16.4864 12.4506 16.1147 12.4312 15.7803 12.2633C15.4467 12.0958 15.2092 11.8089 14.9864 11.5407C14.9681 11.5187 14.9498 11.4969 14.9317 11.4753L14.6758 11.1706C14.1668 10.5615 13.8381 10.1708 13.5713 9.93228C13.4379 9.81309 13.3616 9.76989 13.3262 9.75553ZM12.9327 2.7526C12.9097 2.74825 12.7855 2.72671 12.4219 3.07193C12.0478 3.42725 11.5941 4.00135 10.921 4.85709L10.5801 5.28971C10.5578 5.31811 10.5359 5.34653 10.5137 5.37467C10.2084 5.76434 9.9262 6.12341 9.53033 6.33463C9.12793 6.54931 8.67694 6.57493 8.20221 6.60123C8.16796 6.60313 8.13318 6.60511 8.09869 6.60709L7.57135 6.63736C6.52589 6.69748 5.83219 6.73899 5.34869 6.84342C4.88351 6.94391 4.81322 7.06149 4.78326 7.12174C4.74771 7.19333 4.69876 7.34485 4.89361 7.819C5.0922 8.30214 5.46098 8.92994 6.01178 9.861L6.29108 10.3317C6.30848 10.3611 6.32562 10.3905 6.34283 10.4196C6.59742 10.8482 6.82649 11.2347 6.88678 11.6842C6.94645 12.1301 6.83022 12.5671 6.69928 13.0592C6.69044 13.0925 6.68184 13.1261 6.67291 13.1598L6.52936 13.7008C6.24705 14.7685 6.05783 15.4913 5.9942 16.0212C5.93066 16.5502 6.02265 16.6697 6.05963 16.7096L6.06158 16.7116C6.08592 16.7382 6.16726 16.827 6.63385 16.7731C7.08195 16.7214 7.68533 16.5626 8.56256 16.321C8.27772 16.0838 8.03037 15.8645 7.83795 15.6579C7.49802 15.2928 7.17565 14.8084 7.26471 14.1833C7.35456 13.5537 7.80398 13.1836 8.23541 12.9352C8.64888 12.6973 9.22399 12.4716 9.8858 12.2126L10.3067 12.0475C10.519 11.9643 10.6381 11.9173 10.7237 11.8756C10.7719 11.8521 10.7913 11.8382 10.7969 11.8337C10.8015 11.8276 10.8146 11.8081 10.837 11.7604C10.8772 11.6744 10.9225 11.5557 11.002 11.3424L11.1592 10.9186C11.4068 10.2541 11.6226 9.67632 11.8536 9.25943C12.0952 8.82346 12.4583 8.36982 13.086 8.2692C13.7083 8.16945 14.1979 8.48042 14.5704 8.81314C14.929 9.13367 15.3286 9.61141 15.7901 10.1637L16.0821 10.5133C16.2295 10.6898 16.3135 10.7892 16.3819 10.859C16.4124 10.8902 16.4311 10.9066 16.4415 10.9147C16.4464 10.9185 16.4512 10.9215 16.4512 10.9215L16.4532 10.9225L16.4561 10.9235C16.4561 10.9235 16.461 10.9258 16.4669 10.9274C16.4792 10.9308 16.5026 10.9364 16.545 10.9421C16.6409 10.9549 16.7697 10.9619 16.9981 10.9743L17.4522 10.9987C17.6663 11.0103 17.8719 11.0214 18.0674 11.0338C18.5364 10.6209 18.8495 10.3173 19.045 10.0622C19.2543 9.78873 19.2567 9.66425 19.2471 9.59244C19.2376 9.52114 19.2042 9.385 18.796 9.13541C18.3717 8.87604 17.7289 8.60607 16.7598 8.20279L16.2715 7.99869C16.2397 7.98544 16.2074 7.97271 16.1758 7.95963C15.7346 7.7771 15.3179 7.60472 15.0079 7.27018C14.7031 6.94126 14.5527 6.51008 14.3887 6.03971C14.3769 6.00592 14.3656 5.97134 14.3536 5.93717L14.17 5.41568C13.808 4.3838 13.5626 3.68993 13.3223 3.22916C13.0876 2.7791 12.9613 2.75653 12.9366 2.7526H12.9327Z" fill="#48465C"/>
</svg>
