<svg width="24" height="24" viewBox="0 0 24 24" fill="none" xmlns="http://www.w3.org/2000/svg">
<path d="M13.2041 9.00975C13.7712 8.91884 14.2644 9.50896 15.2509 10.6894L15.5068 10.9941C15.787 11.3294 15.927 11.4976 16.1162 11.5928C16.3057 11.688 16.5235 11.7001 16.958 11.7236L17.3535 11.7451C18.8821 11.8278 19.6462 11.8691 19.916 12.3799C20.1857 12.891 19.7821 13.5335 18.9746 14.8183L18.7656 15.1504C18.5361 15.5154 18.4221 15.6985 18.3925 15.9062C18.363 16.1139 18.4213 16.3234 18.539 16.7422L18.6465 17.124C19.0609 18.5989 19.2676 19.3364 18.8672 19.7432C18.4667 20.1498 17.7238 19.9568 16.2383 19.5703L15.8545 19.4707C15.4324 19.3608 15.2205 19.3056 15.0127 19.3389C14.8051 19.3722 14.6241 19.4902 14.2627 19.7256L13.9336 19.9394C12.6607 20.7682 12.024 21.1825 11.5068 20.9228C10.99 20.663 10.9349 19.9013 10.8242 18.3779L10.7949 17.9844C10.7634 17.5516 10.7481 17.3346 10.6494 17.1474C10.5507 16.9602 10.3794 16.8234 10.0381 16.5498L9.72751 16.3008C8.5265 15.3382 7.92599 14.8563 8.00681 14.2891C8.08778 13.7219 8.79671 13.4447 10.2138 12.8896L10.58 12.7461C10.9827 12.5883 11.1844 12.5093 11.331 12.3603C11.4777 12.2114 11.5533 12.0089 11.7041 11.6045L11.8418 11.2363C12.3723 9.81275 12.6372 9.10083 13.2041 9.00975ZM13.0605 2.01268C13.8165 2.14153 14.1706 3.15027 14.8779 5.16698L15.0605 5.68944C15.2615 6.26222 15.3622 6.54869 15.5576 6.75975C15.7532 6.97084 16.0218 7.08322 16.5586 7.30663L17.0478 7.50975C18.9376 8.29613 19.8824 8.68948 19.9902 9.49315C20.035 9.82765 19.9223 10.1409 19.6601 10.4912C19.5716 10.4672 19.4863 10.448 19.4062 10.4316C18.88 10.3247 18.2104 10.2886 17.5283 10.2519L17.039 10.2256C16.9448 10.2205 16.8713 10.216 16.8086 10.2119C16.767 10.1634 16.7188 10.1059 16.6572 10.0322L16.3418 9.65428C15.9015 9.12734 15.4708 8.61186 15.0703 8.25389C14.643 7.87203 13.9284 7.37416 12.9668 7.52831C11.9952 7.68418 11.4768 8.39087 11.1972 8.8955C10.9382 9.36302 10.7047 9.98855 10.4687 10.6221L10.2988 11.0801C10.27 11.1572 10.2468 11.2193 10.2265 11.2724C10.1731 11.2938 10.1107 11.3183 10.0332 11.3486L9.5781 11.5273C8.94729 11.7742 8.32475 12.0175 7.8613 12.2842C7.36263 12.571 6.66163 13.1013 6.52243 14.0771C6.38468 15.0439 6.89925 15.7503 7.28903 16.1689C7.57952 16.4809 7.97 16.8102 8.38669 17.1474C6.81844 17.5729 5.98398 17.7313 5.50974 17.2197C4.97584 16.6434 5.25217 15.5983 5.80466 13.5088L5.94724 12.9687C6.10424 12.3749 6.183 12.0776 6.14353 11.7832C6.10403 11.4888 5.95043 11.2299 5.6445 10.7129L5.36618 10.2422C4.28954 8.42228 3.75176 7.51212 4.1113 6.78807C4.47098 6.06432 5.48999 6.00587 7.52829 5.88866L8.05564 5.85839C8.63496 5.82508 8.92512 5.80761 9.17771 5.67284C9.43005 5.53803 9.61661 5.30013 9.99021 4.82518L10.331 4.39257C11.6464 2.72035 12.3045 1.88389 13.0605 2.01268Z" fill="#48465C"/>
</svg>
