<svg width="24" height="24" viewBox="0 0 24 24" fill="none" xmlns="http://www.w3.org/2000/svg">
<path fill-rule="evenodd" clip-rule="evenodd" d="M11.3897 1.98373C11.8612 1.53614 12.4479 1.14794 13.1865 1.27377C13.9232 1.39924 14.3511 1.95787 14.6524 2.53549C14.9489 3.10402 15.2289 3.90236 15.5654 4.86166L15.7686 5.44076C15.9917 6.07705 16.0439 6.18069 16.1084 6.25033C16.1673 6.31393 16.2499 6.36584 16.8477 6.61459L17.3945 6.84213C18.289 7.21434 19.0424 7.52734 19.5781 7.85482C20.1408 8.19883 20.6352 8.66139 20.7334 9.39388C20.8156 10.0076 20.5796 10.5256 20.2363 10.974C20.1358 11.1053 20.0199 11.2379 19.8916 11.3734C20.1646 11.5084 20.4125 11.7128 20.5801 12.0306C20.8751 12.59 20.7373 13.1515 20.5371 13.6097C20.3462 14.0467 20.0186 14.5687 19.6416 15.1683L19.4014 15.5501C19.2805 15.7425 19.2137 15.8499 19.1699 15.9339C19.1504 15.9713 19.1415 15.9926 19.1377 16.0033C19.1363 16.0073 19.135 16.0102 19.1348 16.0111V16.0228C19.1355 16.035 19.1382 16.0584 19.1465 16.0999C19.1651 16.1947 19.1998 16.3188 19.2617 16.5394L19.3848 16.9769C19.5786 17.6663 19.746 18.2646 19.8067 18.7396C19.8696 19.2328 19.8483 19.8169 19.4024 20.2699C18.957 20.7222 18.3734 20.7532 17.8789 20.6995C17.4023 20.6477 16.8008 20.4916 16.1065 20.3109L15.665 20.1966C15.443 20.1389 15.3181 20.1061 15.2227 20.0892C15.18 20.0816 15.156 20.0799 15.1436 20.0794H15.1309C15.1304 20.0796 15.1268 20.0805 15.1221 20.0824C15.1111 20.0864 15.0897 20.0955 15.0527 20.1156C14.9691 20.1609 14.8625 20.2298 14.6719 20.3538L14.294 20.5999C13.6995 20.987 13.1826 21.3235 12.7481 21.5218C12.2929 21.7295 11.735 21.8772 11.1709 21.5941C10.6087 21.3117 10.3905 20.7774 10.2813 20.2884C10.1768 19.8205 10.1318 19.2028 10.0801 18.4906L10.0469 18.0384C10.0304 17.8104 10.0205 17.6825 10.0059 17.5872C9.99941 17.5452 9.9938 17.5221 9.99024 17.5101C9.98855 17.5044 9.98731 17.4994 9.98731 17.4994L9.98634 17.4974L9.98438 17.4954C9.98438 17.4954 9.98148 17.4905 9.97755 17.4857C9.96921 17.4754 9.95242 17.4568 9.92091 17.4271C9.90798 17.415 9.89408 17.4023 9.87892 17.389L9.28126 17.679L9.15235 17.7142C8.21509 17.9733 7.42598 18.1924 6.80567 18.264C6.15992 18.3386 5.47151 18.2815 4.95997 17.7298C4.46292 17.1932 4.42578 16.5009 4.50489 15.8421C4.58257 15.1956 4.80106 14.3704 5.06446 13.3744L5.22267 12.7767C5.39536 12.1235 5.41547 11.9956 5.4004 11.8831C5.38583 11.7745 5.33701 11.6647 5.00001 11.0951L4.69044 10.5726C4.17827 9.70692 3.75187 8.98594 3.50684 8.38998C3.25339 7.77338 3.11548 7.10689 3.43946 6.45443C3.76919 5.79082 4.3891 5.5172 5.03224 5.37826C5.64439 5.24606 6.45722 5.1993 7.42188 5.14388C7.44298 5.14267 7.46413 5.1412 7.48536 5.13998L8.0127 5.1097C8.65772 5.07262 8.75066 5.05122 8.82423 5.01205C8.90484 4.96904 8.98561 4.89024 9.40138 4.36166L9.78028 3.88119C10.4055 3.08632 10.9265 2.42351 11.3897 1.98373ZM13.3262 9.75521C13.2987 9.78025 13.2445 9.84313 13.165 9.98666C12.9954 10.2928 12.8182 10.7627 12.544 11.4984L12.4072 11.8665C12.3974 11.8929 12.3878 11.9198 12.3779 11.9466C12.2593 12.2679 12.1292 12.6187 11.8662 12.8861C11.6031 13.1534 11.2537 13.2892 10.9336 13.4134C10.907 13.4238 10.8807 13.4344 10.8545 13.4447L10.4873 13.5882C9.75503 13.875 9.28741 14.0598 8.98341 14.2347C8.84342 14.3152 8.78132 14.3696 8.75587 14.3978C8.77164 14.4333 8.81633 14.5081 8.93556 14.6361C9.17937 14.8978 9.5774 15.2183 10.1973 15.7152L10.5078 15.9642C10.5299 15.9818 10.5519 16.0002 10.5742 16.0179C10.8469 16.2352 11.1384 16.4673 11.3125 16.7972C11.4873 17.1284 11.5131 17.4997 11.5371 17.8451C11.5391 17.8734 11.541 17.9021 11.543 17.93L11.5723 18.3236C11.6295 19.1104 11.6678 19.6152 11.7451 19.9613C11.7819 20.1264 11.8184 20.2069 11.8399 20.2425C11.8416 20.2455 11.8433 20.2483 11.8447 20.2503C11.8454 20.2503 11.8486 20.2495 11.8506 20.2494C11.8896 20.2455 11.9739 20.2269 12.126 20.1576C12.4454 20.0117 12.8668 19.7391 13.5244 19.3109L13.8535 19.097C13.8769 19.0817 13.901 19.0667 13.9248 19.0511C14.212 18.8628 14.5237 18.6574 14.8945 18.598C15.2632 18.5389 15.6245 18.6347 15.96 18.723C15.9877 18.7304 16.0156 18.7373 16.043 18.7445L16.4277 18.8441C17.1948 19.0436 17.6877 19.1699 18.041 19.2083C18.2037 19.226 18.2882 19.219 18.3272 19.2113C18.334 19.1721 18.3387 19.0884 18.3184 18.929C18.2735 18.5778 18.1387 18.0888 17.9248 17.3275L17.8174 16.9456C17.8097 16.9184 17.8018 16.8903 17.794 16.8626C17.6994 16.53 17.5967 16.1702 17.6494 15.8001C17.7024 15.4285 17.9027 15.1131 18.0859 14.8236C18.1012 14.7995 18.116 14.775 18.1309 14.7513L18.3399 14.4193C18.7571 13.7554 19.0219 13.3301 19.1621 13.0091C19.2287 12.8567 19.2459 12.773 19.249 12.7347L19.25 12.7308C19.2479 12.7295 19.245 12.7284 19.2422 12.7269C19.2058 12.7058 19.1243 12.6709 18.958 12.637C18.6094 12.5662 18.1027 12.5362 17.3135 12.4935L16.917 12.472C16.8892 12.4705 16.8612 12.4695 16.833 12.4681C16.4863 12.4503 16.1147 12.4309 15.7803 12.263C15.4468 12.0956 15.2091 11.8094 14.9863 11.5413C14.9681 11.5194 14.9497 11.4975 14.9316 11.4759L14.6758 11.1703C14.1667 10.5611 13.838 10.1704 13.5713 9.93197C13.4377 9.81262 13.3614 9.76952 13.3262 9.75521ZM12.9326 2.75228C12.9094 2.74791 12.7851 2.72672 12.4219 3.07162C12.0477 3.42691 11.5941 4.00095 10.9209 4.85678L10.5801 5.28939C10.5578 5.3178 10.5358 5.34621 10.5137 5.37435C10.2084 5.76402 9.92615 6.12407 9.53028 6.33529C9.12794 6.54986 8.6768 6.57462 8.20216 6.60092C8.1679 6.60282 8.13314 6.60479 8.09864 6.60678L7.5713 6.63705C6.52574 6.69718 5.83215 6.73964 5.34864 6.84408C4.8827 6.94474 4.81308 7.06224 4.78321 7.1224C4.74766 7.19408 4.6987 7.34561 4.89356 7.81967C5.09217 8.30277 5.46102 8.92977 6.01173 9.86068L6.29102 10.3314C6.30844 10.3609 6.32555 10.3902 6.34278 10.4193C6.59739 10.848 6.82644 11.2343 6.88673 11.6839C6.94651 12.1299 6.8302 12.5667 6.69923 13.0589C6.69033 13.0924 6.68185 13.1265 6.67286 13.1605L6.52931 13.7005C6.24704 14.768 6.05782 15.491 5.99415 16.0208C5.93049 16.5508 6.02273 16.6706 6.05958 16.7103L6.06153 16.7113C6.08587 16.7379 6.16721 16.8277 6.6338 16.7738C7.0819 16.7221 7.68525 16.5633 8.56251 16.3216C8.27766 16.0844 8.03033 15.8642 7.8379 15.6576C7.49808 15.2925 7.1757 14.8089 7.26466 14.1839C7.3544 13.554 7.80378 13.1833 8.23536 12.9349C8.64884 12.697 9.22392 12.4713 9.88575 12.2122L10.3066 12.0472C10.5189 11.964 10.638 11.918 10.7236 11.8763C10.7718 11.8528 10.7911 11.839 10.7969 11.8343C10.8013 11.8285 10.8142 11.8085 10.8369 11.7601C10.8771 11.6741 10.9225 11.5552 11.002 11.3421L11.1592 10.9193C11.4068 10.2546 11.6225 9.67608 11.8535 9.25912C12.0951 8.82324 12.4584 8.36948 13.0859 8.26888C13.7084 8.16915 14.1979 8.48102 14.5703 8.81381C14.929 9.13439 15.3285 9.612 15.79 10.1644L16.082 10.514C16.2295 10.6905 16.3134 10.7899 16.3818 10.8597C16.4121 10.8907 16.431 10.9063 16.4414 10.9144C16.4464 10.9182 16.4512 10.9212 16.4512 10.9212L16.4531 10.9232L16.4561 10.9242C16.4568 10.9244 16.4614 10.9256 16.4668 10.9271C16.4791 10.9305 16.5025 10.9361 16.5449 10.9417C16.6409 10.9546 16.7696 10.9626 16.9981 10.9749L17.4522 10.9994C17.6662 11.0109 17.8719 11.022 18.0674 11.0345C18.5367 10.6213 18.8494 10.3171 19.0449 10.0619C19.2541 9.78858 19.2567 9.66493 19.2471 9.5931C19.2376 9.52192 19.205 9.3852 18.7959 9.1351C18.3716 8.87575 17.7287 8.60571 16.7598 8.20248L16.2705 7.99935C16.2387 7.98613 16.2073 7.97237 16.1758 7.95931C15.7345 7.77676 15.3178 7.60447 15.0078 7.26986C14.7031 6.94094 14.5527 6.50976 14.3887 6.03939C14.3769 6.00576 14.3655 5.97184 14.3535 5.93783L14.1699 5.41537C13.808 4.38368 13.5625 3.68956 13.3223 3.22885C13.0879 2.77967 12.9615 2.75723 12.9365 2.75326L12.9346 2.75228H12.9326Z" fill="#48465C"/>
</svg>
