<svg width="24" height="24" viewBox="0 0 24 24" fill="none" xmlns="http://www.w3.org/2000/svg">
<path d="M10.279 11.7936C10.3929 11.3956 10.8077 11.1654 11.2058 11.2789C11.604 11.3927 11.835 11.8075 11.7214 12.2057C11.355 13.4883 11.267 15.3498 11.3249 17.2144C11.3822 19.0601 11.5793 20.8299 11.7419 21.8863C11.8045 22.2955 11.5232 22.6778 11.114 22.7408C10.7046 22.8037 10.3215 22.5232 10.2585 22.1139C10.0877 21.0035 9.88526 19.1728 9.82589 17.2603C9.76712 15.3666 9.84554 13.3108 10.279 11.7936ZM21.6228 8.85214C21.9804 8.64372 22.4394 8.76418 22.6482 9.12168C22.8568 9.47941 22.7362 9.93924 22.3786 10.148C16.667 13.4797 15.2508 18.8585 15.2507 21.9996C15.2507 22.4137 14.9148 22.7494 14.5007 22.7496C14.0865 22.7496 13.7507 22.4138 13.7507 21.9996C13.7508 18.4741 15.3347 12.5201 21.6228 8.85214ZM5.13351 13.7643C5.11147 13.657 5.28219 13.5586 5.36398 13.6314C5.60173 13.8449 5.92345 14.0882 6.22335 14.1686C6.52321 14.2487 6.92253 14.1985 7.23507 14.1324C7.34256 14.11 7.4413 14.2821 7.36788 14.3639C7.15441 14.6016 6.9111 14.9226 6.83077 15.2223C6.75055 15.5221 6.80089 15.9214 6.86691 16.234C6.88963 16.3416 6.71824 16.4403 6.63644 16.3668C6.39874 16.1534 6.07785 15.91 5.77804 15.8297C5.47814 15.7493 5.07801 15.7997 4.76534 15.8658C4.65788 15.8882 4.55915 15.7171 4.63253 15.6353C4.84605 15.3977 5.08925 15.0768 5.16964 14.7769C5.25 14.477 5.19956 14.077 5.13351 13.7643ZM11.5212 2.00449C11.9021 2.04378 12.1179 2.50885 12.5495 3.43906L12.6618 3.68027C12.7844 3.94432 12.8454 4.07661 12.9509 4.1705C13.0565 4.26445 13.1946 4.30989 13.4704 4.4L13.7214 4.48203C14.6913 4.79901 15.1768 4.95723 15.2624 5.33261C15.3479 5.70826 14.9768 6.05287 14.2351 6.74082L14.0437 6.91855C13.833 7.11393 13.7276 7.21182 13.6726 7.34043C13.6177 7.46914 13.6193 7.61467 13.6228 7.90488L13.6257 8.16855C13.638 9.18974 13.6441 9.70026 13.3161 9.89316C12.9881 10.086 12.543 9.83397 11.653 9.32871L11.4226 9.19785C11.1698 9.05437 11.0435 8.98274 10.904 8.96835C10.7645 8.95396 10.6278 8.99826 10.3542 9.0875L10.1052 9.16855C9.14249 9.48262 8.66097 9.63985 8.37276 9.38339C8.08467 9.12691 8.1802 8.62668 8.37179 7.62656L8.42159 7.36777C8.47598 7.08389 8.50351 6.94175 8.47237 6.80429C8.44108 6.66677 8.35469 6.54881 8.18233 6.31406L8.02511 6.10019C7.4178 5.27303 7.11346 4.85879 7.26339 4.50742C7.41334 4.15609 7.91806 4.09982 8.92648 3.98691L9.18722 3.95761C9.47377 3.92553 9.61686 3.90912 9.73702 3.83847C9.85718 3.76782 9.94123 3.6511 10.1081 3.4166L10.2595 3.20273C10.8466 2.3777 11.1406 1.96546 11.5212 2.00449Z" fill="#48465C"/>
</svg>
