<svg width="24" height="24" viewBox="0 0 24 24" fill="none" xmlns="http://www.w3.org/2000/svg">
<path d="M12 2C12.9468 2.00017 13.5802 3.13618 14.8467 5.4082L15.1738 5.99609C15.5338 6.64179 15.7144 6.96471 15.9951 7.17773C16.2757 7.39069 16.6253 7.4698 17.3242 7.62793L17.9599 7.77246C20.4195 8.32899 21.6498 8.60694 21.9424 9.54785C22.2349 10.4887 21.3965 11.4691 19.7197 13.4297L19.2861 13.9375C18.8097 14.4947 18.5711 14.7735 18.4639 15.1182C18.3569 15.4627 18.3929 15.8343 18.4648 16.5771L18.5303 17.2549C18.7837 19.8706 18.9104 21.1783 18.1445 21.7598C17.3784 22.3413 16.2268 21.8113 13.9238 20.751L13.3281 20.4766C12.674 20.1754 12.3468 20.0245 12 20.0244C11.6531 20.0244 11.3253 20.1753 10.6709 20.4766L10.0752 20.751C7.77227 21.8112 6.62049 22.3413 5.85448 21.7598C5.08905 21.1781 5.21531 19.8702 5.46874 17.2549L5.53515 16.5771C5.60712 15.8344 5.64308 15.4626 5.53612 15.1182C5.42896 14.7735 5.19022 14.4945 4.71386 13.9375L4.28026 13.4297C2.60341 11.4689 1.76501 10.4887 2.05761 9.54785C2.3502 8.60699 3.57961 8.32894 6.03905 7.77246L6.67577 7.62793C7.37465 7.4698 7.72428 7.39074 8.00487 7.17773C8.28541 6.96471 8.4653 6.6417 8.82518 5.99609L9.15331 5.4082C10.4198 3.13615 11.0531 2 12 2Z" fill="#48465C"/>
</svg>
