<svg width="24" height="24" viewBox="0 0 24 24" fill="none" xmlns="http://www.w3.org/2000/svg">
<path fill-rule="evenodd" clip-rule="evenodd" d="M15.6984 3.75337C16.6293 3.29874 17.6653 3.04406 18.5285 3.46138C18.9885 3.68386 19.3066 4.05687 19.4992 4.50044C19.6741 4.90329 19.746 5.36146 19.7501 5.8354C19.7536 6.23393 19.7092 6.6648 19.6251 7.11763C19.4981 7.80224 19.2779 8.54672 18.9816 9.3227C18.9506 9.40393 18.9068 9.47665 18.8537 9.5395C19.0389 9.60203 19.2196 9.66687 19.3956 9.73286H19.3976C19.4442 9.75036 19.4953 9.76987 19.5412 9.78755C19.6745 9.83902 19.8052 9.89141 19.9328 9.94478C20.2586 10.0812 20.5652 10.2237 20.8498 10.3715C21.1423 10.5235 21.4152 10.6835 21.6652 10.85C22.5273 11.4245 23.2697 12.1903 23.3449 13.1459C23.3849 13.6554 23.2235 14.1182 22.9376 14.5083C22.6779 14.8626 22.3186 15.1562 21.9113 15.3989C21.5689 15.6028 21.1747 15.7821 20.7414 15.9379C20.0861 16.1735 19.3323 16.359 18.5128 16.4946C18.1042 16.562 17.7181 16.285 17.6505 15.8764C17.583 15.4679 17.8593 15.0819 18.2677 15.0141C18.8294 14.9211 19.3335 14.8069 19.7746 14.6762L19.7804 14.6743C20.3462 14.5063 20.802 14.3135 21.1437 14.1098C21.4379 13.9346 21.6231 13.7656 21.7287 13.6215C21.8335 13.4783 21.8576 13.3652 21.8498 13.2641C21.8313 13.0281 21.6031 12.6104 20.8341 12.0981C20.6355 11.9657 20.4097 11.8332 20.1583 11.7026L18.8624 11.1342C17.1096 10.4782 14.7615 9.97571 12.1769 9.79536C11.8562 9.77299 11.5397 9.75613 11.2287 9.74458C10.8123 10.2709 10.4005 10.8298 10.0011 11.4155C9.25754 12.5063 8.63277 13.5783 8.13588 14.5844C8.45049 14.7636 8.59735 15.1497 8.46596 15.4995C8.32323 15.879 7.90576 16.0753 7.52455 15.9467C7.29838 16.5094 7.11974 17.0402 6.99135 17.5288C6.97785 17.5801 6.96459 17.6311 6.95229 17.6811L6.95034 17.6899C6.75478 18.4888 6.71176 19.1154 6.78041 19.5522C6.80705 19.7216 6.8467 19.8474 6.89272 19.9409C6.96292 20.083 7.04781 20.151 7.12026 20.187L7.12416 20.1889C7.16742 20.2098 7.22122 20.2278 7.28823 20.2387C7.41078 20.2588 7.5788 20.2561 7.79995 20.2084C8.1997 20.1223 8.70673 19.9031 9.30092 19.5307C9.43817 19.4447 9.57907 19.351 9.7228 19.2504C9.96234 19.0826 10.2097 18.8952 10.463 18.6889L11.6388 17.7338C11.7019 17.6826 11.7719 17.6462 11.8439 17.6186L11.6915 17.5659C10.8401 17.265 10.4139 17.1142 10.338 16.7778C10.262 16.4414 10.5864 16.1416 11.2345 15.5424L11.4025 15.3872C11.5863 15.2173 11.6789 15.1324 11.7267 15.019C11.7744 14.9053 11.7716 14.7756 11.7677 14.517L11.7648 14.2817C11.751 13.3713 11.7444 12.9161 12.0314 12.7504C12.3184 12.5848 12.709 12.8176 13.4904 13.2846L13.6925 13.4057C13.9146 13.5384 14.0263 13.6051 14.1486 13.6206C14.2708 13.6359 14.3908 13.5982 14.63 13.5239L14.8478 13.4565C15.6907 13.1947 16.1121 13.0643 16.3654 13.2983C16.6186 13.5323 16.5363 13.9761 16.3712 14.8637L16.3283 15.0932C16.2814 15.3455 16.2585 15.4719 16.2863 15.5952C16.3142 15.7182 16.3903 15.825 16.5421 16.0375L16.6798 16.2309C17.2145 16.9795 17.4821 17.3542 17.3517 17.6645C17.2211 17.9746 16.7789 18.0155 15.8956 18.0971L15.6671 18.1176C15.4163 18.1408 15.2908 18.1528 15.1857 18.2133C15.0806 18.274 15.0071 18.3775 14.8615 18.5834L14.7296 18.77C14.2171 19.4944 13.96 19.8572 13.6261 19.8149C13.3104 19.7747 13.1233 19.3974 12.7814 18.6479C12.7351 18.7415 12.6705 18.8277 12.5841 18.8979L11.4103 19.852C11.1316 20.0789 10.8551 20.2894 10.5831 20.4799C10.42 20.5942 10.2581 20.7018 10.0978 20.8022C9.42035 21.2267 8.74739 21.5392 8.11635 21.6752C7.75999 21.7519 7.39653 21.7768 7.04506 21.7192C6.84823 21.6869 6.65545 21.6283 6.47182 21.5395L6.45522 21.5317C5.72574 21.1706 5.39014 20.458 5.28823 19.7104C5.1873 18.9696 5.2931 18.0871 5.54018 17.1469C5.68069 16.6124 5.87149 16.0425 6.10854 15.4467L5.6017 15.268C5.26539 15.1419 4.9452 15.0092 4.6437 14.8706C4.46278 14.7873 4.28783 14.7014 4.12026 14.6137C3.41195 14.2428 2.8021 13.8195 2.36635 13.3432C2.12033 13.0742 1.91575 12.7734 1.78823 12.4409C1.7168 12.2546 1.67044 12.0583 1.65444 11.8549L1.65248 11.8364C1.59633 11.0244 2.04176 10.3747 2.63588 9.90962C3.22462 9.44878 4.04035 9.0963 4.9767 8.8354C6.4642 8.42099 8.38672 8.20356 10.5285 8.22798C11.5417 7.01332 12.5871 5.96486 13.588 5.14985L13.59 5.14888C13.6286 5.11753 13.6708 5.08278 13.7091 5.0522C13.8208 4.96299 13.9327 4.8766 14.0431 4.79341C14.3253 4.58082 14.603 4.38839 14.8742 4.21724C15.1531 4.04126 15.4285 3.88519 15.6984 3.75337ZM9.34877 9.7397C7.80061 9.79157 6.44313 9.98459 5.38002 10.2807C5.32885 10.295 5.27809 10.3091 5.22866 10.3237L5.21889 10.3266C4.43086 10.5606 3.86903 10.8391 3.52651 11.1186C3.39366 11.2271 3.30472 11.3247 3.24721 11.4116C3.18151 11.5111 3.15586 11.5969 3.14955 11.6674V11.7377C3.15336 11.7855 3.16537 11.8406 3.18959 11.9038C3.2341 12.0196 3.32114 12.1637 3.47377 12.3305C3.7498 12.6322 4.19456 12.9595 4.81557 13.2846C4.95893 13.3597 5.1104 13.434 5.26967 13.5073C5.53546 13.6296 5.82308 13.749 6.12905 13.8637L6.71694 14.0708C7.26272 12.9454 7.95071 11.7606 8.76186 10.5708C8.95427 10.2885 9.15059 10.0109 9.34877 9.7397ZM17.8751 4.81196C17.662 4.70897 17.1866 4.69566 16.3566 5.10103C16.1421 5.20577 15.9144 5.33463 15.6749 5.48579L14.5294 6.31782C13.8598 6.86369 13.1542 7.5352 12.4455 8.31099C14.2714 8.44809 16.0101 8.74056 17.5363 9.14497C17.5221 9.02792 17.5352 8.90536 17.5802 8.78755C17.7833 8.2556 17.9384 7.76268 18.048 7.31587L18.0499 7.31099C18.1903 6.73764 18.2535 6.24687 18.2501 5.84907C18.2471 5.5067 18.1942 5.26197 18.1232 5.0981C18.0523 4.93475 17.9666 4.8562 17.8751 4.81196Z" fill="#48465C"/>
</svg>
