<svg width="24" height="24" viewBox="0 0 24 24" fill="none" xmlns="http://www.w3.org/2000/svg">
<path fill-rule="evenodd" clip-rule="evenodd" d="M13.2041 9.00975C13.7712 8.91884 14.2644 9.50896 15.251 10.6894L15.5069 10.9941C15.7871 11.3294 15.927 11.4976 16.1162 11.5928C16.3057 11.688 16.5235 11.7001 16.958 11.7236L17.3535 11.7451C18.8822 11.8278 19.6462 11.8691 19.916 12.3799C20.1857 12.891 19.7821 13.5335 18.9746 14.8183L18.7657 15.1504C18.5362 15.5154 18.4222 15.6985 18.3926 15.9062C18.3631 16.1139 18.4214 16.3234 18.5391 16.7422L18.6465 17.124C19.0609 18.5989 19.2676 19.3364 18.8672 19.7432C18.4668 20.1498 17.7239 19.9568 16.2383 19.5703L15.8545 19.4707C15.4324 19.3608 15.2205 19.3056 15.0127 19.3389C14.8052 19.3722 14.6242 19.4902 14.2627 19.7256L13.9336 19.9394C12.6607 20.7682 12.0241 21.1825 11.5069 20.9228C10.99 20.663 10.9349 19.9013 10.8243 18.3779L10.795 17.9844C10.7635 17.5516 10.7482 17.3346 10.6494 17.1474C10.5507 16.9602 10.3794 16.8234 10.0381 16.5498L9.72757 16.3008C8.52656 15.3382 7.92605 14.8563 8.00687 14.2891C8.08785 13.7219 8.79677 13.4447 10.2139 12.8896L10.5801 12.7461C10.9827 12.5883 11.1845 12.5093 11.3311 12.3603C11.4778 12.2114 11.5534 12.0089 11.7041 11.6045L11.8418 11.2363C12.3724 9.81275 12.6373 9.10083 13.2041 9.00975ZM13.0606 2.01268C13.8166 2.14153 14.1707 3.15027 14.878 5.16698L15.0606 5.68944C15.2615 6.26222 15.3623 6.54869 15.5576 6.75975C15.7532 6.97084 16.0218 7.08322 16.5586 7.30663L17.0479 7.50975C18.9377 8.29613 19.8825 8.68948 19.9903 9.49315C20.0351 9.82765 19.9223 10.1409 19.6602 10.4912C19.5717 10.4672 19.4864 10.448 19.4063 10.4316C18.8801 10.3247 18.2105 10.2886 17.5284 10.2519L17.0391 10.2256C16.9449 10.2205 16.8713 10.216 16.8086 10.2119C16.7671 10.1634 16.7188 10.1059 16.6573 10.0322L16.3418 9.65428C15.9016 9.12734 15.4709 8.61186 15.0703 8.25389C14.643 7.87203 13.9284 7.37416 12.9668 7.52831C11.9953 7.68418 11.4769 8.39087 11.1973 8.8955C10.9382 9.36302 10.7048 9.98855 10.4688 10.6221L10.2989 11.0801C10.27 11.1572 10.2469 11.2193 10.2266 11.2724C10.1732 11.2938 10.1107 11.3183 10.0332 11.3486L9.57816 11.5273C8.94735 11.7742 8.32481 12.0175 7.86136 12.2842C7.36269 12.571 6.66169 13.1013 6.52249 14.0771C6.38474 15.0439 6.89931 15.7503 7.28909 16.1689C7.57958 16.4809 7.97006 16.8102 8.38675 17.1474C6.8185 17.5729 5.98404 17.7313 5.5098 17.2197C4.9759 16.6434 5.25223 15.5983 5.80472 13.5088L5.9473 12.9687C6.1043 12.3749 6.18306 12.0776 6.14359 11.7832C6.10409 11.4888 5.95049 11.2299 5.64456 10.7129L5.36624 10.2422C4.2896 8.42228 3.75182 7.51212 4.11136 6.78807C4.47104 6.06432 5.49005 6.00587 7.52835 5.88866L8.0557 5.85839C8.63502 5.82508 8.92518 5.80761 9.17777 5.67284C9.43011 5.53803 9.61667 5.30013 9.99027 4.82518L10.3311 4.39257C11.6464 2.72035 12.3045 1.88389 13.0606 2.01268Z" fill="#48465C"/>
</svg>
