<svg width="24" height="24" viewBox="0 0 24 24" fill="none" xmlns="http://www.w3.org/2000/svg">
<path d="M21.6216 8.85183C21.9794 8.64312 22.4393 8.76454 22.648 9.12233C22.8565 9.48008 22.7352 9.93909 22.3775 10.1477C16.6658 13.4796 15.2496 18.8592 15.2496 22.0003C15.2495 22.4144 14.9137 22.7503 14.4996 22.7503C14.0855 22.7501 13.7497 22.4143 13.7496 22.0003C13.7496 18.4747 15.3334 12.52 21.6216 8.85183ZM10.2789 11.7942C10.3926 11.396 10.8074 11.1649 11.2056 11.2786C11.6039 11.3923 11.835 11.8081 11.7212 12.2063C11.3548 13.489 11.2669 15.3497 11.3248 17.2141C11.3821 19.0599 11.5783 20.8295 11.7408 21.886C11.8038 22.2954 11.5232 22.6784 11.1138 22.7415C10.7046 22.8045 10.3215 22.5237 10.2584 22.1145C10.0876 21.0043 9.88413 19.1736 9.82476 17.261C9.76597 15.3672 9.84534 13.3115 10.2789 11.7942ZM4.75054 12.8352C4.95779 12.7157 5.2205 12.7592 5.37749 12.9397C5.37823 12.9406 5.37982 12.9428 5.3814 12.9446C5.38507 12.9487 5.39129 12.9557 5.39898 12.9641C5.41501 12.9817 5.43936 13.0082 5.47027 13.0403C5.53317 13.1056 5.62301 13.1937 5.7271 13.2854C5.95336 13.4847 6.18532 13.6411 6.3521 13.6858C6.51893 13.7304 6.79784 13.7111 7.09331 13.6516C7.22927 13.6243 7.35094 13.5927 7.43804 13.5676C7.48113 13.5552 7.51594 13.5446 7.53863 13.5374C7.5499 13.5338 7.55886 13.5303 7.56402 13.5286C7.56614 13.5279 7.56799 13.5279 7.5689 13.5276C7.79522 13.4496 8.04588 13.543 8.16558 13.7503C8.28467 13.9575 8.24058 14.2204 8.06011 14.3772C8.0594 14.3779 8.05809 14.3794 8.05621 14.3811C8.05215 14.3847 8.04537 14.3908 8.03667 14.3987C8.01904 14.4147 7.99198 14.4387 7.95953 14.47C7.8942 14.5329 7.80628 14.6225 7.71441 14.7268C7.51503 14.9532 7.35876 15.185 7.31402 15.3518C7.26941 15.5187 7.28877 15.7975 7.3482 16.093C7.3756 16.2292 7.40709 16.3516 7.43218 16.4387C7.44451 16.4815 7.45525 16.5158 7.46246 16.5383C7.46603 16.5495 7.46954 16.5586 7.47124 16.5637L7.4732 16.5686C7.55095 16.7948 7.45764 17.0456 7.25054 17.1653C7.04333 17.2849 6.77966 17.2403 6.62261 17.0598L6.61871 17.0559C6.61514 17.0519 6.60895 17.045 6.60113 17.0364C6.58513 17.0188 6.56098 16.9916 6.52984 16.9592C6.46696 16.894 6.37715 16.8059 6.273 16.7141C6.04677 16.5149 5.81488 16.3586 5.648 16.3137C5.48116 16.2691 5.2024 16.2885 4.90679 16.3479C4.77076 16.3753 4.64921 16.4068 4.56206 16.4319C4.5189 16.4443 4.4842 16.4549 4.46148 16.4622C4.45023 16.4658 4.44129 16.4692 4.43609 16.471C4.43385 16.4717 4.4321 16.4726 4.43121 16.4729L4.34527 16.4934C4.1445 16.5249 3.94039 16.4311 3.8355 16.2503C3.71583 16.043 3.75936 15.7794 3.93999 15.6223L3.94488 15.6184C3.94897 15.6148 3.9558 15.6087 3.96441 15.6008C3.98202 15.5848 4.00833 15.5606 4.04058 15.5296C4.10589 15.4666 4.19384 15.377 4.2857 15.2727C4.48503 15.0464 4.64127 14.8146 4.68609 14.6477C4.73077 14.481 4.71134 14.2021 4.65191 13.9065C4.62456 13.7706 4.593 13.6489 4.56792 13.5618C4.55553 13.5188 4.54489 13.4839 4.53765 13.4612C4.53413 13.4502 4.53063 13.441 4.52886 13.4358L4.52789 13.4309C4.44986 13.2046 4.5432 12.9549 4.75054 12.8352ZM5.70757 14.4934C5.70307 14.633 5.68843 14.7738 5.65289 14.9065C5.61733 15.0391 5.55952 15.1682 5.49371 15.2913C5.63343 15.2958 5.77395 15.3123 5.90679 15.3479C6.03914 15.3834 6.16871 15.4395 6.29156 15.5051C6.2961 15.3658 6.31272 15.2255 6.3482 15.093L6.39703 14.9426C6.4276 14.8621 6.46555 14.7836 6.5064 14.7073C6.42017 14.7045 6.33338 14.6986 6.24859 14.6848L6.09331 14.6516C5.96049 14.616 5.83081 14.5594 5.70757 14.4934ZM11.5982 1.25905C12.1301 1.31401 12.4483 1.67774 12.6441 1.97683C12.83 2.26067 13.0108 2.65212 13.2076 3.07643C13.2149 3.09208 13.2228 3.10856 13.23 3.12429L13.3414 3.36452C13.3728 3.43213 13.3969 3.48482 13.4185 3.52956C13.4339 3.56147 13.4461 3.58492 13.4556 3.6028C13.4741 3.60998 13.499 3.61885 13.5318 3.63015C13.5784 3.64616 13.6325 3.66383 13.7027 3.68679L13.9537 3.76882C13.9702 3.77422 13.987 3.78005 14.0035 3.78542C14.4457 3.92989 14.8544 4.06296 15.1578 4.21413C15.4794 4.37442 15.8745 4.64781 15.9927 5.16725C16.1116 5.69008 15.8696 6.1066 15.6451 6.38796C15.4348 6.65151 15.1211 6.94226 14.7837 7.25515C14.7709 7.26701 14.7575 7.27837 14.7447 7.2903L14.5533 7.46901C14.4993 7.51905 14.4576 7.55739 14.4224 7.59108C14.4011 7.6115 14.3843 7.62795 14.3716 7.64089C14.3709 7.65982 14.3708 7.68394 14.3707 7.71511C14.3705 7.76446 14.3717 7.82157 14.3726 7.89577L14.3755 8.16042C14.3757 8.17771 14.3753 8.19497 14.3755 8.21218C14.3812 8.67733 14.3867 9.10762 14.3414 9.44265C14.2935 9.79572 14.1619 10.2663 13.6959 10.5403C13.2308 10.8136 12.7563 10.7012 12.4244 10.5725C12.1087 10.45 11.7334 10.2375 11.3277 10.0071C11.3126 9.99858 11.2979 9.98933 11.2828 9.98073L11.0523 9.84987C10.9877 9.81321 10.9374 9.78573 10.8941 9.76198C10.8657 9.74645 10.844 9.73456 10.8267 9.72585C10.8088 9.73071 10.7856 9.73734 10.7564 9.74636C10.7099 9.76073 10.6563 9.77826 10.5865 9.80104L10.3375 9.8821C10.3208 9.88752 10.3042 9.8933 10.2877 9.8987C9.84964 10.0417 9.44275 10.1738 9.10992 10.2298C8.75463 10.2894 8.27328 10.2993 7.87359 9.94362C7.47591 9.58949 7.4278 9.11159 7.44292 8.75222C7.45721 8.41406 7.53822 7.99283 7.62554 7.53737C7.6288 7.52036 7.63203 7.50272 7.63531 7.48561L7.68511 7.22683C7.699 7.15434 7.70885 7.09842 7.71734 7.05007C7.72317 7.01682 7.72737 6.99133 7.73003 6.97194C7.71897 6.95506 7.70444 6.93312 7.68414 6.90456C7.65536 6.86406 7.62081 6.81813 7.57671 6.75808L7.41949 6.54421C7.40927 6.53029 7.39937 6.51606 7.38921 6.50222C7.11208 6.1249 6.85692 5.77656 6.69781 5.47683C6.53047 5.16156 6.36343 4.70615 6.57378 4.21315C6.78608 3.71615 7.23404 3.52592 7.57964 3.43386C7.90537 3.34709 8.3309 3.29862 8.7896 3.24733C8.807 3.24538 8.82485 3.24343 8.84234 3.24147L9.10308 3.21218C9.17642 3.20397 9.23328 3.19788 9.28179 3.19167C9.3102 3.18803 9.33244 3.18472 9.35015 3.1819C9.36116 3.16784 9.37524 3.15019 9.39214 3.12722C9.42104 3.08795 9.45397 3.04166 9.49664 2.98171L9.648 2.76882C9.65821 2.75449 9.66911 2.7401 9.67925 2.72585C9.94635 2.35043 10.1942 2.00151 10.4283 1.75905C10.6773 1.50115 11.0612 1.20362 11.5982 1.25905ZM11.4371 2.87722C11.3022 3.0331 11.1319 3.27094 10.8707 3.63796L10.7183 3.85183C10.7072 3.86748 10.6952 3.88359 10.6832 3.90065C10.5571 4.08003 10.3819 4.32974 10.1168 4.48561C9.852 4.64125 9.54898 4.67336 9.33062 4.69655C9.30972 4.69877 9.28931 4.70123 9.27007 4.70339L9.00933 4.73268C8.56296 4.78265 8.27207 4.81676 8.06988 4.85866C8.17834 5.04061 8.35479 5.28375 8.62847 5.65651L8.7857 5.87038C8.7973 5.88619 8.81022 5.90225 8.82281 5.91921C8.95579 6.09832 9.13517 6.34114 9.20269 6.63796C9.27047 6.93599 9.21234 7.23213 9.16949 7.44948C9.16545 7.46996 9.16142 7.49004 9.15777 7.50905L9.10796 7.76784C9.01962 8.22903 8.96496 8.52418 8.94683 8.73366C9.14961 8.68965 9.43174 8.59982 9.87164 8.45632L10.1216 8.37526C10.1398 8.36931 10.1586 8.36228 10.1783 8.35573C10.3869 8.28638 10.6754 8.1904 10.981 8.22194C11.2845 8.25337 11.5475 8.40531 11.7398 8.51589C11.7581 8.52636 11.7756 8.53656 11.7925 8.54616L12.023 8.67702C12.4168 8.90061 12.6757 9.04569 12.8668 9.1321C12.8833 8.92401 12.8809 8.62849 12.8755 8.178L12.8726 7.91433C12.8723 7.89481 12.872 7.87393 12.8716 7.8528C12.8677 7.63155 12.862 7.3274 12.982 7.04616C13.1027 6.76344 13.3272 6.55769 13.4888 6.40944C13.504 6.39553 13.5189 6.38232 13.5328 6.3694L13.7252 6.19069C14.0618 5.87838 14.2769 5.67677 14.4136 5.52175C14.2207 5.43598 13.9349 5.34071 13.4878 5.1946L13.2369 5.11257C13.2184 5.10654 13.1992 5.1004 13.1793 5.09401C12.9678 5.02611 12.6798 4.9337 12.4517 4.73073C12.2245 4.52836 12.0992 4.25383 12.0064 4.05104C11.9978 4.03212 11.9892 4.01393 11.981 3.99636L11.8687 3.75515C11.6728 3.33276 11.5446 3.05996 11.4371 2.87722Z" fill="#48465C"/>
</svg>
