<svg width="24" height="24" viewBox="0 0 24 24" fill="none" xmlns="http://www.w3.org/2000/svg">
<path fill-rule="evenodd" clip-rule="evenodd" d="M21.6225 8.85189C21.9802 8.64352 22.4393 8.76475 22.6479 9.12239C22.8564 9.48006 22.7358 9.93897 22.3784 10.1478C16.6666 13.4796 15.2504 18.8592 15.2504 22.0003C15.2503 22.4143 14.9145 22.7501 14.5004 22.7503C14.0863 22.7503 13.7506 22.4144 13.7504 22.0003C13.7504 18.4748 15.3343 12.52 21.6225 8.85189ZM10.2788 11.7943C10.3925 11.3961 10.8074 11.1652 11.2055 11.2786C11.6038 11.3924 11.8349 11.8081 11.7211 12.2064C11.3548 13.4889 11.2668 15.3497 11.3247 17.2142C11.382 19.0599 11.579 20.8296 11.7416 21.8861C11.8045 22.2954 11.5231 22.6785 11.1137 22.7415C10.7045 22.8044 10.3214 22.5237 10.2582 22.1146C10.0875 21.0043 9.88501 19.1736 9.82563 17.2611C9.76685 15.3673 9.8453 13.3116 10.2788 11.7943ZM5.13325 13.765C5.11053 13.6574 5.2819 13.5587 5.36372 13.6322C5.60147 13.8457 5.92319 14.0889 6.22309 14.1693C6.52294 14.2494 6.92231 14.1992 7.23481 14.1331C7.34237 14.1105 7.44108 14.2818 7.36762 14.3636C7.15411 14.6014 6.91086 14.9223 6.83052 15.222C6.75019 15.5218 6.80064 15.9211 6.86665 16.2337C6.88935 16.3412 6.71805 16.4407 6.63618 16.3675C6.3985 16.1541 6.0776 15.9108 5.77778 15.8304C5.47788 15.75 5.07776 15.8004 4.76509 15.8665C4.65768 15.8887 4.5589 15.7168 4.63227 15.6351C4.84577 15.3974 5.08904 15.0765 5.16938 14.7767C5.24964 14.4768 5.19928 14.0776 5.13325 13.765ZM11.5209 2.00423C11.9018 2.04353 12.1176 2.50934 12.5493 3.43978L12.6616 3.68001C12.7841 3.94408 12.8453 4.07633 12.9506 4.17024C13.0562 4.26419 13.1944 4.30963 13.4702 4.39974L13.7211 4.48177C14.6914 4.79888 15.1768 4.95767 15.2622 5.33333C15.3475 5.70892 14.9764 6.05271 14.2348 6.74056L14.0434 6.91829C13.8326 7.11378 13.7273 7.21243 13.6723 7.34114C13.6175 7.46977 13.619 7.61469 13.6225 7.90462L13.6254 8.16927C13.6377 9.19031 13.6439 9.70103 13.3159 9.89388C12.9879 10.0865 12.5426 9.8336 11.6528 9.32845L11.4223 9.19759C11.1697 9.05419 11.0432 8.98248 10.9038 8.9681C10.7643 8.95373 10.6274 8.99804 10.354 9.08724L10.1049 9.16927C9.14231 9.48331 8.66071 9.63958 8.37251 9.38314C8.08469 9.12659 8.17999 8.62615 8.37153 7.6263L8.42134 7.36849C8.47578 7.08429 8.5034 6.94163 8.47212 6.80403C8.44081 6.66646 8.35458 6.54875 8.18208 6.3138L8.02485 6.09993C7.41781 5.27313 7.11366 4.85941 7.26313 4.50814C7.41306 4.15678 7.91777 4.09956 8.92622 3.98665L9.18696 3.95735C9.47331 3.9253 9.61665 3.90971 9.73677 3.83919C9.85694 3.76854 9.94096 3.65086 10.1079 3.41634L10.2592 3.20345C10.8463 2.37847 11.1403 1.96528 11.5209 2.00423Z" fill="#48465C"/>
</svg>
