<svg width="24" height="24" viewBox="0 0 24 24" fill="none" xmlns="http://www.w3.org/2000/svg">
<path d="M15.6987 3.75362C16.6296 3.29897 17.6656 3.0443 18.5288 3.46163C18.9886 3.68407 19.3069 4.05638 19.4995 4.49972C19.6745 4.90271 19.7454 5.36154 19.7495 5.83566C19.753 6.23426 19.7096 6.66497 19.6255 7.11788C19.4984 7.80248 19.2782 8.54701 18.9819 9.32296C18.9509 9.40409 18.907 9.47697 18.854 9.53976C19.0392 9.60227 19.2199 9.66617 19.396 9.73214L19.3979 9.73312C19.4445 9.75062 19.4957 9.77014 19.5415 9.7878C19.6749 9.83929 19.8055 9.89164 19.9331 9.94503C20.2589 10.0815 20.5655 10.2239 20.8501 10.3718C21.1425 10.5237 21.4156 10.6828 21.6655 10.8493C22.5277 11.4238 23.2702 12.1904 23.3452 13.1462C23.3852 13.6557 23.2238 14.1184 22.938 14.5085C22.6783 14.8627 22.3188 15.1555 21.9116 15.3982C21.5692 15.6021 21.175 15.7813 20.7417 15.9372C20.0864 16.1728 19.3326 16.3583 18.5131 16.4939C18.1045 16.5614 17.7185 16.2853 17.6508 15.8767C17.5832 15.4681 17.8595 15.0821 18.268 15.0144C18.8298 14.9214 19.3338 14.8062 19.7749 14.6755L19.7797 14.6745C20.3457 14.5065 20.8022 14.3138 21.144 14.1101C21.4382 13.9348 21.6234 13.7659 21.729 13.6218C21.8341 13.4782 21.8581 13.3646 21.8501 13.2634C21.8315 13.0274 21.6024 12.6107 20.8335 12.0984C20.6349 11.966 20.4099 11.8334 20.1587 11.7028L18.8618 11.1345C17.1089 10.4784 14.7608 9.97594 12.1762 9.79562C11.8557 9.77326 11.5398 9.75638 11.229 9.74484C10.8126 10.2711 10.4008 10.8291 10.0014 11.4148C9.25775 12.5057 8.63313 13.5785 8.13619 14.5847C8.45081 14.7639 8.59782 15.15 8.46627 15.4997C8.32351 15.8792 7.90607 16.0746 7.52487 15.946C7.29872 16.5086 7.12006 17.0395 6.99166 17.528C6.97816 17.5794 6.9649 17.6304 6.9526 17.6804L6.95065 17.6901C6.75515 18.4889 6.71213 19.1147 6.78073 19.5515C6.80734 19.7209 6.84703 19.8467 6.89303 19.9401C6.96333 20.0826 7.04804 20.1513 7.12057 20.1872L7.12448 20.1892C7.16774 20.2101 7.22153 20.2271 7.28854 20.238C7.41109 20.2581 7.57911 20.2564 7.80026 20.2087C8.19999 20.1226 8.70709 19.9033 9.30123 19.531C9.43848 19.445 9.57938 19.3513 9.72311 19.2507C9.96267 19.0828 10.21 18.8955 10.4633 18.6892L11.6391 17.7341C11.702 17.683 11.7715 17.6465 11.8432 17.6189L11.6919 17.5651C10.8404 17.2642 10.4142 17.1135 10.3383 16.7771C10.2628 16.4409 10.5871 16.1416 11.2348 15.5427L11.4028 15.3874C11.5868 15.2174 11.6783 15.1318 11.726 15.0183C11.7737 14.9046 11.7719 14.775 11.768 14.5163L11.7651 14.281C11.7513 13.3707 11.7447 12.9154 12.0317 12.7497C12.3187 12.5844 12.7094 12.818 13.4907 13.2849L13.6928 13.406C13.9146 13.5385 14.0258 13.6042 14.1479 13.6198C14.2703 13.6353 14.3907 13.5985 14.6303 13.5241L14.8481 13.4567C15.6909 13.195 16.1124 13.0637 16.3657 13.2976C16.6191 13.5315 16.5366 13.9754 16.3715 14.863L16.3286 15.0935C16.2818 15.3453 16.2589 15.4713 16.2866 15.5944C16.3145 15.7176 16.3904 15.8241 16.5424 16.0368L16.6801 16.2312C17.2146 16.9795 17.4822 17.3535 17.352 17.6638C17.2216 17.9742 16.7796 18.0148 15.896 18.0964L15.6674 18.1179C15.4165 18.1411 15.2912 18.153 15.186 18.2136C15.0809 18.2743 15.0074 18.3768 14.8618 18.5827L14.7299 18.7702C14.2174 19.4946 13.9603 19.8565 13.6264 19.8142C13.3106 19.7739 13.1237 19.397 12.7817 18.6472C12.7354 18.741 12.671 18.8279 12.5844 18.8982L11.4106 19.8523C11.132 20.0791 10.8554 20.2887 10.5835 20.4792C10.4204 20.5934 10.2584 20.7011 10.0981 20.8015C9.42074 21.226 8.74764 21.5385 8.11666 21.6745C7.7603 21.7512 7.39684 21.7761 7.04537 21.7185C6.84863 21.6862 6.65569 21.6285 6.47213 21.5398L6.45553 21.531C5.72608 21.1699 5.38947 20.4582 5.28756 19.7107C5.18658 18.9698 5.29341 18.0874 5.54049 17.1472C5.68099 16.6127 5.87183 16.0427 6.10885 15.447L5.60201 15.2673C5.26556 15.1411 4.94465 15.0085 4.64303 14.8698C4.46212 14.7866 4.28715 14.7007 4.11959 14.613C3.41147 14.2422 2.80231 13.8187 2.36666 13.3425C2.12069 13.0735 1.91603 12.7727 1.78854 12.4401C1.71714 12.2538 1.67071 12.0576 1.65475 11.8542L1.6528 11.8366C1.5966 11.0246 2.04205 10.375 2.63619 9.90987C3.22499 9.44895 4.0405 9.0956 4.97701 8.83468C6.46453 8.42026 8.38699 8.20283 10.5288 8.22726C11.5421 7.01248 12.5874 5.96417 13.5883 5.14913L13.5903 5.14816C13.6289 5.11678 13.6711 5.08205 13.7094 5.05148C13.8211 4.96227 13.933 4.87685 14.0434 4.79366C14.3256 4.58103 14.6033 4.3877 14.8745 4.21652C15.1533 4.04061 15.4289 3.8854 15.6987 3.75362ZM9.34811 9.73995C7.79998 9.79185 6.44242 9.98385 5.37936 10.28C5.3283 10.2942 5.2783 10.3094 5.22897 10.3239L5.2192 10.3259C4.43093 10.5599 3.86936 10.8393 3.52682 11.1189C3.39385 11.2275 3.30503 11.3249 3.24752 11.4118C3.15997 11.5444 3.1433 11.6524 3.14889 11.7331L3.14987 11.737C3.15362 11.7849 3.16564 11.8397 3.18991 11.903C3.23433 12.0188 3.3206 12.163 3.47311 12.3298C3.74912 12.6316 4.19466 12.9597 4.81588 13.2849C4.95924 13.3599 5.11071 13.4343 5.26998 13.5075C5.53566 13.6298 5.82257 13.7483 6.12838 13.863L6.71725 14.071C7.26311 12.9455 7.95085 11.7601 8.76217 10.57C8.95449 10.2879 9.15002 10.011 9.34811 9.73995ZM17.8755 4.81222C17.6624 4.70916 17.1872 4.69578 16.3569 5.10128C16.1425 5.20598 15.9146 5.33399 15.6753 5.48507L14.5297 6.3171C13.86 6.86298 13.1546 7.53541 12.4458 8.31124C14.2717 8.44834 16.0104 8.73984 17.5366 9.14425C17.5224 9.02733 17.5356 8.90547 17.5805 8.7878C17.7836 8.25589 17.9387 7.76292 18.0483 7.31612L18.0493 7.31027C18.1896 6.73693 18.2539 6.24612 18.2505 5.84835C18.2474 5.50594 18.1946 5.2612 18.1235 5.09737C18.0526 4.93419 17.9669 4.85645 17.8755 4.81222Z" fill="#48465C"/>
</svg>
