<svg width="24" height="24" viewBox="0 0 24 24" fill="none" xmlns="http://www.w3.org/2000/svg">
<path d="M15.6982 3.75267C16.6292 3.29802 17.6652 3.04343 18.5283 3.46067C18.9883 3.68311 19.3064 4.05608 19.499 4.49974C19.6303 4.80197 19.7034 5.13535 19.7334 5.48313L19.75 5.8347L19.7471 6.04661C19.7456 6.09405 19.742 6.14193 19.7393 6.19017C19.7386 6.20246 19.7381 6.21492 19.7373 6.22727C19.7346 6.26995 19.7302 6.31292 19.7266 6.35618C19.718 6.45851 19.708 6.56281 19.6943 6.66868C19.6861 6.7323 19.676 6.79639 19.666 6.86106C19.654 6.93893 19.6415 7.01786 19.627 7.09739C19.614 7.16782 19.5998 7.2388 19.585 7.31028C19.5683 7.39057 19.5503 7.47168 19.5312 7.55345C19.5225 7.59085 19.516 7.62908 19.5068 7.66673C19.5031 7.68208 19.4968 7.69676 19.4922 7.71165C19.3643 8.22498 19.1937 8.7658 18.9814 9.322C18.8797 9.58839 18.6421 9.75964 18.3779 9.79466C18.3929 9.80021 18.4079 9.80569 18.4229 9.81126C18.5231 9.84862 18.6222 9.88614 18.7197 9.92454C18.7741 9.94597 18.8283 9.96726 18.8818 9.98899C18.9028 9.99751 18.9235 10.0068 18.9443 10.0154C18.9908 10.0344 19.0373 10.0527 19.083 10.072C19.1062 10.0818 19.1293 10.0915 19.1523 10.1013C19.2099 10.1259 19.2667 10.1515 19.3232 10.1765C19.3379 10.183 19.3526 10.1895 19.3672 10.196C19.4114 10.2158 19.4554 10.2356 19.499 10.2556C19.56 10.2836 19.6201 10.3121 19.6797 10.3406C19.717 10.3584 19.7542 10.3763 19.791 10.3943C19.8145 10.4057 19.8381 10.4169 19.8613 10.4284C19.9133 10.4543 19.9648 10.4804 20.0156 10.5066C20.0524 10.5255 20.0888 10.545 20.125 10.5642C20.1502 10.5775 20.1753 10.5908 20.2002 10.6042C20.2245 10.6173 20.2494 10.6292 20.2734 10.6423L20.291 10.6521C20.3811 10.7017 20.47 10.7522 20.5566 10.8034C20.5894 10.8228 20.6212 10.8435 20.6533 10.863C20.6799 10.8792 20.7063 10.8956 20.7324 10.9118C20.7848 10.9444 20.8361 10.9775 20.8867 11.0105C21.0409 11.1112 21.1881 11.2147 21.3271 11.321C21.3605 11.3466 21.394 11.372 21.4268 11.3982C21.5113 11.4656 21.5931 11.5336 21.6709 11.6033C21.7228 11.6497 21.7739 11.6968 21.8232 11.7449L21.8613 11.7829C21.8654 11.787 21.869 11.7916 21.873 11.7956C21.9152 11.8379 21.9562 11.881 21.9961 11.9245C22.0076 11.9371 22.02 11.949 22.0312 11.9616C22.0356 11.9665 22.0396 11.9724 22.0439 11.9773C22.153 12.1006 22.252 12.2291 22.3398 12.362C22.3524 12.3811 22.3648 12.4004 22.377 12.4197C22.4622 12.5554 22.5347 12.6961 22.5928 12.8415C22.5967 12.8513 22.6017 12.861 22.6055 12.8708C22.6084 12.8785 22.6104 12.8866 22.6133 12.8943C22.6224 12.9189 22.6314 12.9436 22.6396 12.9685C22.6512 13.0032 22.661 13.0386 22.6709 13.074C22.6753 13.0899 22.6805 13.1058 22.6846 13.1218C22.6943 13.1598 22.7023 13.1984 22.71 13.237C22.7135 13.2552 22.7176 13.2734 22.7207 13.2917C22.7214 13.2956 22.723 13.2995 22.7236 13.3034L22.7422 13.4548L22.75 13.6003C22.7501 13.6061 22.749 13.6121 22.749 13.6179C22.749 13.6208 22.75 13.6238 22.75 13.6267V13.6433C22.7499 13.6514 22.7492 13.6596 22.749 13.6677C22.7484 13.6992 22.7472 13.7305 22.7451 13.7615C22.7429 13.7946 22.7392 13.8275 22.7354 13.8601C22.734 13.8715 22.733 13.883 22.7314 13.8943C22.7264 13.9311 22.72 13.9676 22.7129 14.0036C22.7108 14.0144 22.7084 14.0252 22.7061 14.0359C22.6964 14.0808 22.6846 14.125 22.6719 14.1687C22.6699 14.1754 22.669 14.1825 22.667 14.1892C22.6588 14.2161 22.6499 14.2428 22.6406 14.2693C22.6341 14.2879 22.6272 14.3065 22.6201 14.3249C22.6191 14.3276 22.6173 14.3301 22.6162 14.3327C22.6129 14.3412 22.6098 14.3498 22.6064 14.3581C22.5745 14.4369 22.5383 14.5135 22.4971 14.5876C22.4852 14.609 22.4725 14.6301 22.46 14.6511C22.4424 14.6804 22.4242 14.7095 22.4053 14.738L22.3662 14.7966C22.3611 14.8039 22.3568 14.8118 22.3516 14.8191C22.2684 14.9345 22.1728 15.0434 22.0684 15.1472C22.0606 15.155 22.0528 15.1629 22.0449 15.1706C22.0137 15.2009 21.9811 15.2302 21.9482 15.2595C21.9342 15.2721 21.9196 15.2842 21.9053 15.2966C21.8875 15.3119 21.8698 15.3275 21.8516 15.3425C21.8497 15.3441 21.8485 15.3468 21.8467 15.3484C21.8458 15.3491 21.8446 15.3496 21.8438 15.3503C21.8375 15.3555 21.8305 15.3599 21.8242 15.365C21.8142 15.3731 21.8041 15.3813 21.7939 15.3894C21.75 15.4241 21.7045 15.4577 21.6582 15.4909C21.641 15.5033 21.6239 15.5159 21.6064 15.5281C21.5405 15.5739 21.4726 15.6188 21.4023 15.6618C21.3875 15.671 21.3725 15.6802 21.3574 15.6892C21.3391 15.7001 21.3204 15.7106 21.3018 15.7214C21.2839 15.7317 21.2662 15.7425 21.248 15.7527C21.2324 15.7615 21.216 15.7694 21.2002 15.7781C21.1404 15.8109 21.079 15.8425 21.0166 15.8738C20.9818 15.8911 20.9468 15.9086 20.9111 15.9255C20.8526 15.9533 20.7929 15.9801 20.7324 16.0066C20.6886 16.0258 20.6446 16.0456 20.5996 16.0642C20.5745 16.0746 20.5489 16.0843 20.5234 16.0945C20.4853 16.1097 20.4469 16.1246 20.4082 16.1394C20.3216 16.1724 20.2334 16.2044 20.1436 16.2351C20.1015 16.2495 20.0591 16.2632 20.0166 16.2771C19.9907 16.2855 19.9647 16.2942 19.9385 16.3025C19.8965 16.3157 19.8542 16.3287 19.8115 16.3415C19.7568 16.358 19.7021 16.3756 19.6465 16.3913L19.6455 16.3884C19.3401 16.4746 19.0196 16.5532 18.6855 16.6189C18.2792 16.6988 17.8846 16.4344 17.8047 16.0281C17.7249 15.6218 17.9893 15.2273 18.3955 15.1472C18.8252 15.0627 19.2096 14.9627 19.5469 14.8533C19.5939 14.838 19.6397 14.8219 19.6846 14.8064C19.7472 14.7847 19.8081 14.7624 19.8672 14.74C19.9109 14.7234 19.9537 14.707 19.9951 14.6902C20.09 14.6516 20.1799 14.6122 20.2646 14.572C20.2831 14.5632 20.3014 14.5545 20.3193 14.5456C20.3567 14.5273 20.3928 14.5085 20.4277 14.49C20.4453 14.4807 20.4624 14.471 20.4795 14.4616C20.5538 14.4209 20.6229 14.3801 20.6865 14.3386C20.6997 14.33 20.7129 14.3218 20.7256 14.3132C20.7869 14.2717 20.8437 14.231 20.8945 14.1892C20.9472 14.1459 20.9915 14.1031 21.0303 14.0632C21.0974 13.9938 21.1454 13.9297 21.1787 13.8699C21.1899 13.8503 21.1988 13.8309 21.207 13.8122C21.21 13.8053 21.2132 13.7985 21.2158 13.7917C21.2239 13.771 21.2305 13.751 21.2354 13.7312C21.238 13.7206 21.2394 13.7101 21.2412 13.6999C21.2437 13.685 21.2471 13.6706 21.248 13.656C21.2499 13.6309 21.2499 13.6074 21.248 13.5857C21.2421 13.5176 21.2192 13.4367 21.1758 13.3445C21.1625 13.3163 21.1467 13.2871 21.1289 13.2566C21.121 13.2429 21.1133 13.2286 21.1045 13.2146C21.0787 13.1735 21.0501 13.1295 21.0156 13.0847C20.9691 13.0239 20.9133 12.9609 20.8496 12.8943C20.8091 12.8519 20.7652 12.8095 20.7188 12.7663C20.7071 12.7555 20.6957 12.7441 20.6836 12.7331C20.6264 12.6815 20.5647 12.6295 20.499 12.5769C20.4831 12.5642 20.4667 12.5516 20.4502 12.5388C20.2911 12.4149 20.1088 12.2886 19.9023 12.1618C19.6081 11.9811 19.2741 11.8051 18.9053 11.6345C18.717 11.5474 18.5192 11.4608 18.3115 11.3767C18.1865 11.326 18.0581 11.2765 17.9268 11.2273C17.8446 11.1965 17.7613 11.1656 17.6768 11.1355C17.5618 11.0944 17.4445 11.0542 17.3252 11.0144C16.9869 10.9014 16.6321 10.7936 16.2627 10.6921C16.2221 10.681 16.1816 10.6689 16.1406 10.6579C16.138 10.6572 16.1354 10.6557 16.1328 10.655C14.7883 10.2941 13.2566 10.0166 11.627 9.86692C11.4712 9.85262 11.3166 9.83947 11.1631 9.82786C10.7692 10.3296 10.3803 10.8599 10.002 11.4148C9.25161 12.5154 8.62227 13.5971 8.12305 14.6111C8.30204 14.6571 8.48352 14.7049 8.66895 14.7478C9.07245 14.8412 9.3238 15.2447 9.23047 15.6482C9.13697 16.0515 8.73445 16.3029 8.33105 16.2097C8.04996 16.1446 7.77382 16.0741 7.50293 16.0017C7.28715 16.5439 7.1154 17.0555 6.99121 17.5281C6.96293 17.6357 6.93811 17.7407 6.91504 17.8425C6.89892 17.9136 6.88375 17.9833 6.87012 18.0515C6.86175 18.0933 6.85413 18.1348 6.84668 18.1755C6.83804 18.2227 6.83067 18.2694 6.82324 18.3152C6.81511 18.3652 6.80652 18.4143 6.7998 18.4626C6.79481 18.4986 6.79035 18.5341 6.78613 18.5691C6.78016 18.6185 6.77496 18.6671 6.77051 18.7146C6.76713 18.7506 6.76521 18.7862 6.7627 18.821C6.75997 18.8588 6.75759 18.896 6.75586 18.9324C6.75406 18.9702 6.7527 19.0074 6.75195 19.0437C6.75113 19.084 6.75053 19.1234 6.75098 19.1618C6.75123 19.1839 6.75226 19.2058 6.75293 19.2273C6.75422 19.2684 6.75504 19.3085 6.75781 19.3474C6.7619 19.4046 6.76818 19.4593 6.77539 19.5115C6.78427 19.5757 6.79436 19.6343 6.80664 19.6872C6.81032 19.7031 6.81539 19.7182 6.81934 19.7331C6.82679 19.7613 6.8335 19.7883 6.8418 19.8132C6.84772 19.831 6.85503 19.8477 6.86133 19.864C6.86791 19.881 6.87393 19.8975 6.88086 19.9128C6.89125 19.9359 6.90304 19.9567 6.91406 19.9763C6.9185 19.9842 6.92224 19.9924 6.92676 19.9997C6.93556 20.0141 6.94504 20.0272 6.9541 20.0398C6.98452 20.0818 7.01586 20.1138 7.04688 20.1384C7.07226 20.1585 7.0972 20.1744 7.12109 20.1863H7.12012L7.125 20.1882C7.14653 20.1986 7.17048 20.2082 7.19727 20.2165L7.28809 20.238L7.38867 20.2488C7.49798 20.2543 7.63396 20.2435 7.7998 20.2077C8.19949 20.1217 8.70669 19.9023 9.30078 19.53L9.72266 19.2497C9.96211 19.0821 10.2094 18.8945 10.4629 18.6882H10.4639L11.1182 18.155C10.8383 18.0539 10.5793 17.9566 10.374 17.8484C10.1193 17.714 9.80719 17.4962 9.65918 17.1159L9.60645 16.9431C9.49402 16.4454 9.7213 16.0514 9.92773 15.7917C10.1247 15.5441 10.4201 15.2735 10.7246 14.9919H10.7256L10.8926 14.8366C10.9397 14.7931 10.976 14.7607 11.0059 14.7322C11.0105 14.7277 11.0145 14.7225 11.0186 14.7185C11.0187 14.7095 11.0195 14.6992 11.0195 14.6882C11.0195 14.645 11.0186 14.5942 11.0176 14.5281L11.0146 14.2927C11.0081 13.8628 10.9998 13.455 11.041 13.1394C11.0823 12.8232 11.2016 12.363 11.6562 12.1003L11.7412 12.0554C12.1671 11.8537 12.5862 11.973 12.8623 12.0876C13.1563 12.2097 13.5057 12.4207 13.875 12.6413L14.0771 12.7624L14.2148 12.8435C14.2243 12.8489 14.2335 12.8528 14.2412 12.8572C14.2468 12.8556 14.2534 12.8551 14.2598 12.8533C14.2994 12.8416 14.3458 12.8274 14.4072 12.8083L14.625 12.74C15.0214 12.6169 15.4037 12.4967 15.7168 12.4499C16.0449 12.4009 16.4991 12.4006 16.874 12.7468C17.2426 13.0872 17.287 13.5352 17.2744 13.864C17.2622 14.1832 17.1864 14.5814 17.1084 15.0007L17.0654 15.2302C17.0534 15.2948 17.0443 15.3442 17.0371 15.3865C17.0345 15.4021 17.033 15.416 17.0312 15.4275C17.0388 15.4388 17.0475 15.4534 17.0586 15.4695C17.0835 15.5055 17.1127 15.5472 17.1514 15.6013H17.1523L17.29 15.7956C17.5432 16.1501 17.7829 16.4819 17.9307 16.7663C18.0604 17.0162 18.1998 17.3785 18.1006 17.78L18.043 17.9548C17.8394 18.4389 17.404 18.6151 17.0879 18.6941C16.7815 18.7705 16.3801 18.8051 15.9648 18.8435L15.7363 18.865C15.6722 18.8709 15.6233 18.8751 15.582 18.8796C15.5786 18.88 15.5745 18.8802 15.5713 18.8806C15.5691 18.8836 15.5668 18.8872 15.5645 18.8904L15.4736 19.0163L15.3408 19.2038C15.1 19.5442 14.8697 19.8743 14.6504 20.1013C14.4381 20.321 14.099 20.589 13.6279 20.5671L13.5322 20.5593C13.0264 20.4953 12.7318 20.1392 12.5586 19.8679C12.4417 19.6848 12.3288 19.4531 12.2109 19.1999L11.4102 19.8523L11.4092 19.8513C11.1307 20.078 10.8549 20.2879 10.583 20.4783C10.42 20.5924 10.2583 20.7009 10.0977 20.8015C9.50481 21.173 8.91535 21.4583 8.35449 21.615L8.11621 21.6745C7.75972 21.7514 7.39638 21.7762 7.04492 21.7185C6.84977 21.6865 6.65921 21.6279 6.47754 21.5408C6.47123 21.5378 6.46548 21.5357 6.46387 21.5349L6.46289 21.5339L6.45508 21.531C6.32299 21.4656 6.20398 21.3881 6.09668 21.3015C6.06761 21.278 6.04002 21.2531 6.0127 21.2283C6.00468 21.221 5.99614 21.2142 5.98828 21.2068C5.96845 21.1881 5.94957 21.1685 5.93066 21.1491C5.91796 21.1361 5.90487 21.1234 5.89258 21.1101C5.87171 21.0875 5.85271 21.0632 5.83301 21.0398C5.82382 21.0288 5.81362 21.0187 5.80469 21.0075C5.78723 20.9858 5.77042 20.9635 5.75391 20.9411C5.74298 20.9263 5.7322 20.9113 5.72168 20.8962C5.70827 20.877 5.69537 20.8573 5.68262 20.8376C5.66966 20.8176 5.65683 20.7975 5.64453 20.7771C5.63297 20.7579 5.62232 20.738 5.61133 20.7185C5.60185 20.7016 5.59206 20.6848 5.58301 20.6677C5.57241 20.6477 5.56178 20.6275 5.55176 20.6072C5.54097 20.5853 5.53064 20.563 5.52051 20.5408C5.50633 20.5096 5.49536 20.4769 5.48242 20.445C5.45965 20.389 5.43699 20.3328 5.41797 20.2751C5.40746 20.2432 5.39808 20.2108 5.38867 20.1784C5.37299 20.1245 5.35743 20.0703 5.34473 20.0154C5.33504 19.9734 5.32836 19.9308 5.32031 19.8884C5.3137 19.8535 5.30434 19.819 5.29883 19.7839C5.29661 19.7698 5.29601 19.7552 5.29395 19.7409C5.29243 19.7306 5.2895 19.7201 5.28809 19.7097C5.28464 19.6843 5.28422 19.6583 5.28125 19.6325C5.27449 19.5741 5.26796 19.5149 5.26367 19.4548C5.26116 19.4196 5.2595 19.3841 5.25781 19.3484C5.25503 19.2895 5.25254 19.2299 5.25195 19.1697C5.25158 19.1312 5.25243 19.0924 5.25293 19.0534C5.25381 18.9853 5.25433 18.9162 5.25781 18.8464C5.25932 18.8163 5.26169 18.786 5.26367 18.7556C5.26836 18.6838 5.27495 18.6111 5.28223 18.5378C5.2855 18.5048 5.28918 18.4715 5.29297 18.4382C5.30046 18.3724 5.30794 18.3058 5.31738 18.239C5.32442 18.1891 5.33272 18.139 5.34082 18.0886C5.35064 18.0275 5.36075 17.9659 5.37207 17.904C5.38509 17.8329 5.3991 17.7612 5.41406 17.6892C5.42114 17.6551 5.42903 17.6209 5.43652 17.5866C5.44792 17.5345 5.45932 17.482 5.47168 17.4294C5.4792 17.3974 5.4853 17.3649 5.49316 17.3327C5.49594 17.3215 5.50067 17.3106 5.50391 17.2995C5.51646 17.2489 5.52762 17.1972 5.54102 17.1462C5.67221 16.6471 5.84693 16.1172 6.0625 15.5642C5.97088 15.533 5.87971 15.5026 5.79004 15.4704C5.69421 15.4361 5.59943 15.4013 5.50586 15.3659C5.4554 15.3469 5.40525 15.3277 5.35547 15.3083C5.29669 15.2855 5.23848 15.2622 5.18066 15.239V15.24H5.17969C5.14683 15.2268 5.11459 15.2123 5.08203 15.199C5.01165 15.1702 4.94191 15.1413 4.87305 15.112C4.86499 15.1086 4.85667 15.1057 4.84863 15.1023C4.79972 15.0814 4.75127 15.06 4.70312 15.0388C4.65457 15.0174 4.60633 14.996 4.55859 14.9743C4.53894 14.9654 4.51953 14.956 4.5 14.947C4.49259 14.9436 4.48493 14.9406 4.47754 14.9372C4.43782 14.9189 4.39852 14.9001 4.35938 14.8816C4.32567 14.8656 4.29204 14.8498 4.25879 14.8337C4.23329 14.8214 4.20786 14.809 4.18262 14.7966C4.14559 14.7784 4.1087 14.7603 4.07227 14.7419C4.0573 14.7344 4.04221 14.727 4.02734 14.7195C3.75614 14.5812 3.50183 14.4378 3.26562 14.2908C3.23824 14.2737 3.21058 14.2572 3.18359 14.24C3.15752 14.2233 3.13205 14.2059 3.10645 14.1892C3.0532 14.1544 3.00072 14.1192 2.94922 14.0837C2.94261 14.0792 2.93528 14.0756 2.92871 14.071V14.07C2.92511 14.0675 2.92157 14.0647 2.91797 14.0622C2.83325 14.0032 2.75149 13.9425 2.67188 13.8816C2.63849 13.856 2.60503 13.8306 2.57227 13.8044C2.48528 13.735 2.40111 13.6652 2.32129 13.5935C2.26585 13.5437 2.2117 13.4929 2.15918 13.4411C2.13991 13.4222 2.12128 13.4026 2.10254 13.3835C2.06595 13.3462 2.03096 13.3076 1.99609 13.2693C1.98742 13.2598 1.97728 13.2515 1.96875 13.2419C1.96395 13.2365 1.95985 13.2298 1.95508 13.2243C1.8458 13.1006 1.74609 12.972 1.6582 12.8386C1.64461 12.8179 1.63121 12.7971 1.61816 12.7761C1.53233 12.6385 1.45921 12.496 1.40137 12.3484C1.39935 12.3432 1.3965 12.3379 1.39453 12.3327C1.38861 12.3173 1.38353 12.3014 1.37793 12.2859C1.37098 12.2665 1.36482 12.2468 1.3584 12.2273C1.34768 12.1947 1.33833 12.1617 1.3291 12.1286C1.32466 12.1127 1.3195 12.0968 1.31543 12.0808C1.30575 12.0428 1.29763 12.0042 1.29004 11.9656C1.28649 11.9474 1.28237 11.9292 1.2793 11.9109C1.27029 11.8575 1.26257 11.8033 1.25781 11.7488C1.25266 11.6897 1.251 11.6314 1.25098 11.574C1.25099 11.5603 1.25165 11.5465 1.25195 11.5329C1.25283 11.4905 1.25522 11.4485 1.25879 11.407C1.26041 11.3884 1.26152 11.3697 1.26367 11.3513C1.2696 11.2998 1.27722 11.2489 1.28711 11.199C1.29733 11.1474 1.31 11.0966 1.32422 11.0466C1.33065 11.024 1.33751 11.0015 1.34473 10.9792C1.3519 10.9571 1.35828 10.9346 1.36621 10.9128C1.37245 10.8957 1.38003 10.879 1.38672 10.862C1.38965 10.8546 1.39249 10.847 1.39551 10.8396C1.41296 10.7969 1.43193 10.7549 1.45215 10.7136C1.45981 10.6979 1.46754 10.6822 1.47559 10.6667C1.4936 10.6321 1.51237 10.5978 1.53223 10.5642C1.55071 10.5327 1.57074 10.5021 1.59082 10.4714C1.60007 10.4573 1.60958 10.4433 1.61914 10.4294C1.62922 10.4147 1.638 10.399 1.64844 10.3845L1.75488 10.2468C1.81113 10.1792 1.87253 10.1148 1.93652 10.0515C1.94516 10.0429 1.95414 10.0346 1.96289 10.0261C2.02171 9.96936 2.0828 9.91344 2.14746 9.86009C2.14935 9.85852 2.15143 9.85676 2.15332 9.8552C2.16099 9.84891 2.16901 9.8429 2.17676 9.83665C2.18697 9.82839 2.19671 9.8194 2.20703 9.81126C2.21952 9.80141 2.23242 9.7917 2.24512 9.78196C2.27411 9.75972 2.304 9.73817 2.33398 9.71653C2.35793 9.69926 2.38263 9.68267 2.40723 9.66575C2.42698 9.65216 2.44662 9.6381 2.4668 9.62474C2.53076 9.58236 2.59639 9.54065 2.66406 9.50071C2.68068 9.49091 2.698 9.48206 2.71484 9.47239C2.74763 9.45357 2.78088 9.43501 2.81445 9.41673C2.84558 9.39978 2.87734 9.38344 2.90918 9.36692C2.96404 9.33847 3.02022 9.31114 3.07715 9.28392C3.10732 9.26949 3.13725 9.25405 3.16797 9.23997C3.22777 9.21257 3.28873 9.186 3.35059 9.15989C3.38828 9.14398 3.42644 9.12845 3.46484 9.11302C3.47172 9.11025 3.47845 9.10698 3.48535 9.10423C3.4998 9.09847 3.51379 9.09136 3.52832 9.08567C3.56844 9.06999 3.60953 9.05594 3.65039 9.04075C3.69059 9.02581 3.73159 9.01225 3.77246 8.99778C3.81098 8.98415 3.84956 8.96998 3.88867 8.95677C3.92105 8.94583 3.95365 8.93516 3.98633 8.92454C4.02764 8.91111 4.06944 8.89845 4.11133 8.88548C4.15975 8.87048 4.20862 8.85594 4.25781 8.84153C4.28971 8.83219 4.32132 8.82133 4.35352 8.81224V8.81419C4.41047 8.79811 4.46749 8.78068 4.52539 8.76536C6.10171 8.3483 8.1752 8.17205 10.4824 8.28392C11.5994 6.93765 12.7564 5.79272 13.8516 4.93919C13.9097 4.89386 13.9685 4.85013 14.0264 4.80638C14.0808 4.76526 14.1344 4.72394 14.1885 4.68431C14.2498 4.63932 14.312 4.59656 14.373 4.55345C14.434 4.51037 14.4943 4.46759 14.5547 4.42649C14.6619 4.35358 14.7682 4.28329 14.874 4.21653C15.1528 4.0406 15.4283 3.8845 15.6982 3.75267ZM12.5146 14.2702L12.5176 14.5056C12.5205 14.6977 12.5406 15.0171 12.418 15.3093H12.417C12.2917 15.6067 12.047 15.8127 11.9111 15.9382L11.7432 16.0935C11.5022 16.3163 11.3363 16.4712 11.2217 16.5906C11.3827 16.6595 11.6095 16.7408 11.9414 16.8581L12.1611 16.9363C12.322 16.9931 12.5709 17.0694 12.7861 17.2312L12.876 17.3064L12.957 17.3894C13.1346 17.5897 13.2328 17.832 13.3047 17.99L13.4033 18.2058C13.5409 18.5082 13.6405 18.7232 13.7217 18.8796C13.8203 18.7527 13.9462 18.5793 14.1172 18.3376L14.249 18.1501L14.3418 18.0183C14.4484 17.8706 14.5993 17.6858 14.8096 17.5642H14.8105C15.091 17.4024 15.4153 17.3886 15.5977 17.3718L15.8262 17.3503C16.1207 17.3231 16.334 17.3009 16.4932 17.279C16.3983 17.1306 16.2623 16.9369 16.0693 16.6667L15.9316 16.4734C15.8159 16.3114 15.6238 16.0653 15.5547 15.7605H15.5537C15.4843 15.4525 15.5553 15.1477 15.5908 14.9568L15.6338 14.7263C15.6981 14.3805 15.7399 14.1433 15.7607 13.9695C15.6001 14.0091 15.3833 14.0754 15.0703 14.1726L14.8516 14.2409C14.6751 14.2958 14.3742 14.4055 14.0537 14.365C13.8176 14.335 13.6084 14.2275 13.4492 14.1345L13.3076 14.0495L13.1055 13.9284C12.8486 13.7749 12.6594 13.6633 12.5127 13.5837C12.5082 13.7506 12.5101 13.9708 12.5146 14.2702ZM9.33984 9.75169C7.59338 9.7383 6.06998 9.90845 4.90918 10.2156C4.73635 10.2613 4.57395 10.31 4.42188 10.3601C4.3133 10.3959 4.21019 10.4329 4.1123 10.4704C3.96612 10.5265 3.83286 10.5841 3.71191 10.6423C3.63458 10.6796 3.56134 10.7164 3.49316 10.7546C3.43447 10.7875 3.37996 10.8219 3.32812 10.8552C3.11852 10.9898 2.96896 11.1229 2.875 11.2488C2.87007 11.2554 2.86493 11.2618 2.86035 11.2683C2.83228 11.308 2.81148 11.3464 2.79492 11.3825C2.78601 11.4024 2.7784 11.4215 2.77246 11.4402C2.76919 11.4504 2.76615 11.4605 2.76367 11.4704C2.75976 11.4861 2.75701 11.5015 2.75488 11.5163C2.7533 11.5278 2.75261 11.5392 2.75195 11.5505V11.6189L2.76953 11.7156C2.7806 11.7572 2.79721 11.8021 2.81934 11.8503C2.83341 11.8809 2.85073 11.9126 2.87012 11.946C2.878 11.9597 2.88575 11.974 2.89453 11.988C2.92018 12.0289 2.94919 12.0723 2.9834 12.1169C3.03025 12.1783 3.0861 12.242 3.15039 12.3093C3.19441 12.3553 3.24189 12.402 3.29297 12.449C3.29733 12.453 3.30125 12.4576 3.30566 12.4616C3.36808 12.5185 3.43604 12.5756 3.50879 12.6335C3.51867 12.6414 3.52895 12.649 3.53906 12.657C3.64931 12.7433 3.77104 12.8307 3.9043 12.9187C3.96663 12.9598 4.03112 13.0009 4.09766 13.0417C4.40046 13.2276 4.74829 13.4113 5.1377 13.5896C5.14191 13.5915 5.14616 13.5935 5.15039 13.5954C5.16874 13.6038 5.18753 13.6115 5.20605 13.6199C5.2667 13.6472 5.32901 13.6729 5.3916 13.6999C5.5395 13.7638 5.69175 13.8285 5.84961 13.8904C6.04411 13.9666 6.24547 14.0423 6.4541 14.115C6.47087 14.1208 6.48803 14.1258 6.50488 14.1316C6.55728 14.1496 6.61081 14.1656 6.66406 14.1833C7.21841 13.0246 7.92436 11.7998 8.7627 10.57C8.95223 10.292 9.14473 10.019 9.33984 9.75169ZM17.875 4.81126C17.6616 4.70835 17.1863 4.69506 16.3564 5.10032C16.142 5.20505 15.9144 5.33389 15.6748 5.48509C15.5381 5.57139 15.3986 5.66462 15.2568 5.76438C15.1984 5.80551 15.1394 5.84787 15.0801 5.89134C15.0258 5.93109 14.9719 5.97279 14.917 6.01438C14.869 6.05074 14.82 6.08692 14.7715 6.12474C13.9972 6.72847 13.1691 7.50958 12.3379 8.43138C13.8199 8.59568 15.2411 8.86254 16.5293 9.20872C16.7235 9.26091 16.9154 9.31508 17.1035 9.37083C17.1549 9.38607 17.2059 9.40221 17.2568 9.4177C17.4017 9.46176 17.5447 9.50638 17.6855 9.55247C17.7035 9.55834 17.7215 9.56401 17.7393 9.57005C17.5466 9.36706 17.4737 9.06556 17.5801 8.78685C17.8343 8.12092 18.0115 7.51585 18.1201 6.98606C18.1303 6.93618 18.1405 6.88704 18.1494 6.8386C18.1619 6.77127 18.1725 6.70507 18.1826 6.64036C18.1914 6.58387 18.201 6.52863 18.208 6.47435C18.2174 6.4009 18.2243 6.32915 18.2305 6.2595C18.234 6.21941 18.2387 6.18004 18.2412 6.14134C18.2477 6.03919 18.2508 5.94139 18.25 5.84837C18.2471 5.50603 18.1941 5.26118 18.123 5.09739V5.09642C18.0523 4.93358 17.9664 4.85547 17.875 4.81126Z" fill="#48465C"/>
</svg>
