<svg width="24" height="24" viewBox="0 0 24 24" fill="none" xmlns="http://www.w3.org/2000/svg">
<path d="M15.791 13.0731C16.2237 11.9758 17.7763 11.9758 18.209 13.0731L18.9775 15.0214L20.9268 15.7909C22.024 16.2236 22.024 17.7762 20.9268 18.2089L18.9775 18.9774L18.209 20.9266C17.7763 22.0239 16.2237 22.0239 15.791 20.9266L15.0215 18.9774L13.0732 18.2089C11.9759 17.7762 11.9759 16.2236 13.0732 15.7909L15.0215 15.0214L15.791 13.0731ZM16.3857 15.6532C16.2535 15.9882 15.9883 16.2534 15.6533 16.3856L14.0947 16.9999L15.6533 17.6141C15.9883 17.7463 16.2536 18.0116 16.3857 18.3465L17 19.9042L17.6143 18.3465C17.7465 18.0115 18.0117 17.7463 18.3467 17.6141L19.9043 16.9999L18.3467 16.3856C18.0117 16.2534 17.7465 15.9881 17.6143 15.6532L17 14.0946L16.3857 15.6532ZM7.33593 3.38268C7.93156 1.87244 10.0685 1.87244 10.6641 3.38268L11.7363 6.10045C11.7657 6.17495 11.8249 6.23416 11.8994 6.26354L14.6172 7.3358C16.1273 7.93151 16.1274 10.0683 14.6172 10.6639L11.8994 11.7362C11.8249 11.7656 11.7657 11.8248 11.7363 11.8993L10.6641 14.6171C10.0684 16.1273 7.93164 16.1272 7.33593 14.6171L6.26367 11.8993C6.23429 11.8248 6.17508 11.7656 6.10058 11.7362L3.38281 10.6639C1.87257 10.0683 1.87257 7.93143 3.38281 7.3358L6.10058 6.26354C6.17508 6.23416 6.23429 6.17495 6.26367 6.10045L7.33593 3.38268ZM9.26855 3.93248C9.1722 3.6889 8.82786 3.68897 8.73144 3.93248L7.65918 6.65123C7.47733 7.11215 7.11227 7.4772 6.65136 7.65905L3.93261 8.73131C3.68909 8.82773 3.68904 9.17207 3.93261 9.26842L6.65136 10.3407C7.1123 10.5226 7.47737 10.8876 7.65918 11.3485L8.73144 14.0663C8.82768 14.3103 9.17231 14.3103 9.26855 14.0663L10.3408 11.3485C10.5227 10.8875 10.8877 10.5226 11.3486 10.3407L14.0664 9.26842C14.3104 9.17218 14.3104 8.82755 14.0664 8.73131L11.3486 7.65905C10.8877 7.47724 10.5228 7.11217 10.3408 6.65123L9.26855 3.93248Z" fill="#48465C"/>
</svg>
