<svg width="24" height="24" viewBox="0 0 24 24" fill="none" xmlns="http://www.w3.org/2000/svg">
<path fill-rule="evenodd" clip-rule="evenodd" d="M15.6982 3.75336C16.6292 3.29869 17.6652 3.04409 18.5283 3.46137C18.9883 3.68383 19.3065 4.05678 19.499 4.50043C19.6302 4.80261 19.7034 5.13614 19.7334 5.48383L19.75 5.83539L19.7471 6.04731C19.7456 6.09465 19.742 6.14273 19.7393 6.19086C19.7386 6.20306 19.7381 6.21572 19.7373 6.22797C19.7346 6.27055 19.7302 6.31371 19.7266 6.35688C19.7181 6.45912 19.708 6.56361 19.6943 6.66938C19.6861 6.7329 19.676 6.79718 19.666 6.86176C19.654 6.93954 19.6415 7.01865 19.627 7.09809C19.6141 7.16842 19.5998 7.23959 19.585 7.31098C19.5683 7.39118 19.5503 7.47247 19.5312 7.55414C19.5226 7.59145 19.516 7.62988 19.5068 7.66742C19.5031 7.68268 19.4968 7.69754 19.4922 7.71235C19.3643 8.22559 19.1937 8.7666 18.9814 9.3227C18.8796 9.58891 18.642 9.76038 18.3779 9.79535C18.3929 9.80089 18.408 9.8064 18.4229 9.81196C18.523 9.8493 18.6222 9.88685 18.7197 9.92524C18.7741 9.94665 18.8283 9.96797 18.8818 9.98969C18.9028 9.99819 18.9235 10.0075 18.9443 10.0161C18.9907 10.0351 19.0373 10.0534 19.083 10.0727C19.1061 10.0825 19.1294 10.0922 19.1523 10.102C19.2099 10.1266 19.2668 10.1522 19.3232 10.1772C19.3379 10.1837 19.3526 10.1902 19.3672 10.1967C19.4114 10.2165 19.4555 10.2363 19.499 10.2563C19.5599 10.2842 19.6201 10.3128 19.6797 10.3413C19.717 10.3591 19.7542 10.377 19.791 10.395C19.8145 10.4064 19.8381 10.4176 19.8613 10.4291C19.9133 10.455 19.9648 10.4811 20.0156 10.5073C20.0524 10.5262 20.0888 10.5458 20.125 10.5649C20.1502 10.5782 20.1753 10.5915 20.2002 10.6049C20.2245 10.618 20.2495 10.6299 20.2734 10.643L20.291 10.6528C20.3811 10.7024 20.47 10.7529 20.5566 10.8041C20.5893 10.8235 20.6212 10.8442 20.6533 10.8637C20.6799 10.8799 20.7063 10.8963 20.7324 10.9125C20.7847 10.9451 20.8362 10.9782 20.8867 11.0112C21.0409 11.1118 21.1881 11.2154 21.3271 11.3217C21.3605 11.3472 21.394 11.3728 21.4268 11.3989C21.5113 11.4663 21.5931 11.5344 21.6709 11.6039C21.7227 11.6504 21.7739 11.6975 21.8232 11.7456L21.8613 11.7836C21.8653 11.7877 21.8691 11.7923 21.873 11.7963C21.9151 11.8386 21.9562 11.8817 21.9961 11.9252C22.0076 11.9378 22.02 11.9498 22.0312 11.9623C22.0355 11.9672 22.0397 11.9731 22.0439 11.978C22.1529 12.1012 22.2521 12.2299 22.3398 12.3627C22.3524 12.3817 22.3649 12.4011 22.377 12.4204C22.4621 12.556 22.5347 12.6968 22.5928 12.8422C22.5967 12.8519 22.6017 12.8618 22.6055 12.8715C22.6083 12.8791 22.6105 12.8874 22.6133 12.895C22.6224 12.9195 22.6314 12.9444 22.6396 12.9692C22.6512 13.0038 22.661 13.0394 22.6709 13.0747C22.6753 13.0905 22.6805 13.1065 22.6846 13.1225C22.6942 13.1604 22.7024 13.1992 22.71 13.2377C22.7135 13.2558 22.7176 13.2742 22.7207 13.2924C22.7214 13.2962 22.723 13.3003 22.7236 13.3041L22.7422 13.4555L22.75 13.601C22.75 13.6067 22.749 13.6129 22.749 13.6186C22.7491 13.6214 22.75 13.6246 22.75 13.6274V13.644C22.7499 13.652 22.7492 13.6604 22.749 13.6684C22.7484 13.6998 22.7472 13.7313 22.7451 13.7622C22.7429 13.7952 22.7392 13.8283 22.7354 13.8608C22.734 13.8721 22.733 13.8838 22.7314 13.895C22.7264 13.9317 22.7199 13.9684 22.7129 14.0043C22.7108 14.015 22.7083 14.026 22.7061 14.0366C22.6964 14.0814 22.6845 14.1258 22.6719 14.1694C22.67 14.176 22.669 14.1833 22.667 14.1899C22.6589 14.2167 22.6499 14.2436 22.6406 14.27C22.6341 14.2885 22.6272 14.3073 22.6201 14.3256C22.6191 14.3282 22.6172 14.3309 22.6162 14.3334C22.613 14.3418 22.6098 14.3505 22.6064 14.3588C22.5745 14.4375 22.5382 14.5143 22.4971 14.5883C22.4852 14.6096 22.4725 14.6309 22.46 14.6518C22.4424 14.681 22.4242 14.7102 22.4053 14.7387L22.3662 14.7973C22.3612 14.8045 22.3567 14.8126 22.3516 14.8198C22.2684 14.9352 22.1728 15.0441 22.0684 15.1479C22.0606 15.1556 22.0528 15.1637 22.0449 15.1713C22.0138 15.2016 21.9811 15.2309 21.9482 15.2602C21.9342 15.2727 21.9195 15.285 21.9053 15.2973C21.8876 15.3126 21.8697 15.3282 21.8516 15.3432C21.8498 15.3448 21.8485 15.3476 21.8467 15.3491C21.8458 15.3497 21.8446 15.3503 21.8438 15.351C21.8375 15.3561 21.8305 15.3606 21.8242 15.3657C21.8142 15.3738 21.804 15.3821 21.7939 15.3901C21.75 15.4248 21.7045 15.4584 21.6582 15.4916C21.6411 15.5039 21.6239 15.5166 21.6064 15.5288C21.5405 15.5745 21.4725 15.6195 21.4023 15.6625C21.3875 15.6716 21.3725 15.6809 21.3574 15.6899C21.3391 15.7008 21.3203 15.7114 21.3018 15.7221C21.284 15.7324 21.2661 15.7432 21.248 15.7534C21.2324 15.7622 21.216 15.7701 21.2002 15.7788C21.1404 15.8115 21.079 15.8432 21.0166 15.8745C20.9819 15.8918 20.9467 15.9093 20.9111 15.9262C20.8527 15.954 20.7929 15.9808 20.7324 16.0073C20.6886 16.0265 20.6445 16.0463 20.5996 16.0649C20.5745 16.0753 20.5489 16.085 20.5234 16.0952C20.4854 16.1104 20.4469 16.1254 20.4082 16.1401C20.3216 16.1731 20.2333 16.2051 20.1436 16.2358C20.1016 16.2501 20.0591 16.2639 20.0166 16.2778C19.9907 16.2862 19.9646 16.2949 19.9385 16.3032C19.8965 16.3164 19.8541 16.3294 19.8115 16.3422C19.7568 16.3587 19.7021 16.3763 19.6465 16.392L19.6455 16.3891C19.3401 16.4753 19.0195 16.5539 18.6855 16.6196C18.2793 16.6994 17.8848 16.4348 17.8047 16.0288C17.7248 15.6225 17.9893 15.228 18.3955 15.1479C18.8252 15.0634 19.2096 14.9634 19.5469 14.8539C19.5939 14.8387 19.6397 14.8226 19.6846 14.8071C19.7472 14.7854 19.8081 14.7631 19.8672 14.7407C19.9109 14.7241 19.9537 14.7077 19.9951 14.6909C20.09 14.6524 20.1799 14.6129 20.2646 14.5727C20.2831 14.564 20.3014 14.5551 20.3193 14.5463C20.3567 14.528 20.3928 14.5091 20.4277 14.4907C20.4453 14.4814 20.4625 14.4717 20.4795 14.4623C20.5537 14.4216 20.6229 14.3807 20.6865 14.3393C20.6997 14.3308 20.7129 14.3224 20.7256 14.3139C20.7869 14.2725 20.8437 14.2316 20.8945 14.1899C20.9471 14.1467 20.9915 14.1038 21.0303 14.0639C21.0973 13.9946 21.1454 13.9304 21.1787 13.8706C21.1898 13.851 21.1988 13.8316 21.207 13.8129C21.21 13.8061 21.2132 13.7991 21.2158 13.7924C21.2239 13.7718 21.2305 13.7516 21.2354 13.7319C21.2379 13.7214 21.2394 13.7107 21.2412 13.7006C21.2437 13.6858 21.2471 13.6712 21.248 13.6567C21.2499 13.6317 21.2499 13.608 21.248 13.5864C21.2421 13.5184 21.2192 13.4373 21.1758 13.3452C21.1625 13.317 21.1466 13.2878 21.1289 13.2573C21.121 13.2437 21.1132 13.2293 21.1045 13.2153C21.0787 13.1743 21.05 13.1302 21.0156 13.0854C20.9691 13.0246 20.9132 12.9615 20.8496 12.895C20.8091 12.8527 20.7652 12.8102 20.7188 12.767C20.7072 12.7563 20.6956 12.7447 20.6836 12.7338C20.6264 12.6822 20.5647 12.6301 20.499 12.5776C20.4832 12.5649 20.4667 12.5523 20.4502 12.5395C20.2912 12.4156 20.1087 12.2893 19.9023 12.1625C19.6081 11.9818 19.274 11.8057 18.9053 11.6352C18.717 11.5481 18.5191 11.4615 18.3115 11.3774C18.1865 11.3267 18.058 11.2772 17.9268 11.228C17.8446 11.1972 17.7613 11.1663 17.6768 11.1362C17.5618 11.0951 17.4444 11.0549 17.3252 11.0151C16.9869 10.9021 16.6321 10.7943 16.2627 10.6928C16.2221 10.6817 16.1815 10.6696 16.1406 10.6586C16.1381 10.6579 16.1354 10.6564 16.1328 10.6557C14.7883 10.2948 13.2566 10.0173 11.627 9.86762C11.4709 9.85329 11.3159 9.84018 11.1621 9.82856C10.7684 10.33 10.3801 10.8608 10.002 11.4155C9.25159 12.5162 8.62227 13.5978 8.12305 14.6118C8.30201 14.6578 8.48355 14.7056 8.66895 14.7485C9.07243 14.8419 9.32387 15.2454 9.23047 15.6489C9.13681 16.0519 8.73428 16.3036 8.33105 16.2104C8.05 16.1453 7.77378 16.0748 7.50293 16.0024C7.28722 16.5444 7.11536 17.0563 6.99121 17.5288C6.96297 17.6363 6.93809 17.7415 6.91504 17.8432C6.89895 17.9142 6.88373 17.9841 6.87012 18.0522C6.86178 18.0939 6.85411 18.1356 6.84668 18.1762C6.83807 18.2233 6.83065 18.2702 6.82324 18.3159C6.81512 18.3658 6.8065 18.4151 6.7998 18.4633C6.79483 18.4992 6.79034 18.5349 6.78613 18.5698C6.78017 18.6191 6.77495 18.6679 6.77051 18.7153C6.76715 18.7512 6.7652 18.787 6.7627 18.8217C6.75998 18.8594 6.75759 18.8967 6.75586 18.9331C6.75407 18.9708 6.7527 19.0082 6.75195 19.0444C6.75113 19.0846 6.75053 19.1242 6.75098 19.1625C6.75124 19.1845 6.75226 19.2066 6.75293 19.228C6.75421 19.269 6.75504 19.3093 6.75781 19.3481C6.7619 19.4052 6.7682 19.4601 6.77539 19.5122C6.78426 19.5763 6.79437 19.6351 6.80664 19.6879C6.81032 19.7037 6.81542 19.719 6.81934 19.7338C6.82676 19.7619 6.83352 19.7891 6.8418 19.8139C6.84771 19.8316 6.85507 19.8485 6.86133 19.8647C6.86787 19.8816 6.87396 19.8983 6.88086 19.9135C6.89122 19.9365 6.90308 19.9574 6.91406 19.977C6.91844 19.9848 6.92228 19.9931 6.92676 20.0004C6.93553 20.0147 6.94509 20.028 6.9541 20.0405C6.98448 20.0824 7.01591 20.1145 7.04688 20.1391C7.0722 20.1592 7.09725 20.1752 7.12109 20.187H7.12012L7.125 20.1889C7.1465 20.1993 7.17053 20.2089 7.19727 20.2172L7.28809 20.2387L7.38867 20.2495C7.49796 20.255 7.63401 20.2442 7.7998 20.2084C8.19945 20.1224 8.70676 19.9029 9.30078 19.5307L9.72266 19.2504C9.96206 19.0828 10.2095 18.8952 10.4629 18.6889H10.4639L11.1191 18.1557C10.8388 18.0544 10.5795 17.9565 10.374 17.8481C10.1193 17.7137 9.80712 17.496 9.65918 17.1157L9.60645 16.9428C9.49405 16.445 9.72127 16.0511 9.92773 15.7914C10.1247 15.5438 10.42 15.2733 10.7246 14.9916H10.7256L10.8926 14.8364C10.9398 14.7927 10.976 14.7604 11.0059 14.7319C11.0106 14.7273 11.0144 14.7222 11.0186 14.7182C11.0187 14.7092 11.0195 14.6991 11.0195 14.6879C11.0195 14.6446 11.0186 14.594 11.0176 14.5278L11.0146 14.2924C11.0081 13.8624 10.9998 13.4547 11.041 13.1391C11.0823 12.8228 11.2014 12.3627 11.6562 12.1L11.7412 12.0551C12.167 11.8534 12.5862 11.9728 12.8623 12.0873C13.1563 12.2094 13.5058 12.4204 13.875 12.6411L14.0771 12.7622L14.2148 12.8432C14.2242 12.8486 14.2335 12.8526 14.2412 12.8569C14.2468 12.8553 14.2534 12.8548 14.2598 12.853C14.2995 12.8413 14.3457 12.8271 14.4072 12.8081L14.625 12.7397C15.0214 12.6166 15.4037 12.4965 15.7168 12.4497C16.0448 12.4007 16.4991 12.4005 16.874 12.7465C17.2426 13.0869 17.2869 13.5349 17.2744 13.8637C17.2622 14.183 17.1864 14.581 17.1084 15.0004L17.0654 15.2299C17.0534 15.2947 17.0443 15.3439 17.0371 15.3862C17.0344 15.402 17.033 15.4156 17.0312 15.4272C17.0388 15.4385 17.0475 15.4531 17.0586 15.4692C17.0835 15.5052 17.1127 15.547 17.1514 15.601H17.1523L17.29 15.7954C17.5432 16.1498 17.7829 16.4816 17.9307 16.7661C18.0605 17.0159 18.1999 17.3782 18.1006 17.7797L18.043 17.9545C17.8395 18.4389 17.4041 18.6148 17.0879 18.6938C16.7815 18.7702 16.3802 18.8049 15.9648 18.8432L15.7363 18.8647C15.6722 18.8706 15.6233 18.8749 15.582 18.8793C15.5785 18.8797 15.5745 18.88 15.5713 18.8803C15.5691 18.8833 15.5669 18.8868 15.5645 18.8901L15.4736 19.0161L15.3408 19.2036C15.0999 19.544 14.8697 19.8739 14.6504 20.101C14.4381 20.3207 14.0991 20.5887 13.6279 20.5668L13.5322 20.559C13.0263 20.495 12.7318 20.139 12.5586 19.8676C12.4418 19.6847 12.3287 19.4535 12.2109 19.2006L11.4102 19.853L11.4092 19.852C11.1307 20.0786 10.8549 20.2886 10.583 20.4789C10.42 20.5931 10.2582 20.7016 10.0977 20.8022C9.50486 21.1737 8.9153 21.459 8.35449 21.6157L8.11621 21.6752C7.75977 21.7521 7.39633 21.7768 7.04492 21.7192C6.84982 21.6872 6.65917 21.6286 6.47754 21.5414C6.4714 21.5385 6.46568 21.5364 6.46387 21.5356L6.46289 21.5346L6.45508 21.5317C6.32305 21.4663 6.20394 21.3888 6.09668 21.3022C6.06766 21.2788 6.03998 21.2537 6.0127 21.2289C6.00473 21.2217 5.99611 21.2148 5.98828 21.2075C5.9685 21.1889 5.94952 21.1692 5.93066 21.1498C5.91801 21.1369 5.90483 21.1241 5.89258 21.1108C5.87176 21.0882 5.85265 21.0639 5.83301 21.0405C5.82388 21.0296 5.81359 21.0193 5.80469 21.0082C5.78728 20.9866 5.77037 20.9642 5.75391 20.9418C5.74303 20.9271 5.73216 20.9119 5.72168 20.8969C5.70831 20.8777 5.69533 20.8579 5.68262 20.8383C5.6697 20.8184 5.65679 20.7981 5.64453 20.7778C5.63301 20.7586 5.62227 20.7387 5.61133 20.7192C5.60189 20.7024 5.59203 20.6854 5.58301 20.6684C5.57245 20.6484 5.56175 20.6281 5.55176 20.6079C5.54101 20.586 5.53061 20.5636 5.52051 20.5414C5.50635 20.5103 5.49531 20.4775 5.48242 20.4457C5.45968 20.3898 5.43697 20.3335 5.41797 20.2758C5.40749 20.244 5.39805 20.2114 5.38867 20.1791C5.37302 20.1253 5.35743 20.0709 5.34473 20.0161C5.33505 19.9742 5.32833 19.9314 5.32031 19.8891C5.31372 19.8543 5.30436 19.8196 5.29883 19.7846C5.29662 19.7706 5.29597 19.7558 5.29395 19.7416C5.29245 19.7314 5.28953 19.7207 5.28809 19.7104C5.28464 19.6851 5.28419 19.6589 5.28125 19.6332C5.2745 19.5749 5.26797 19.5155 5.26367 19.4555C5.26116 19.4204 5.2595 19.3847 5.25781 19.3491C5.25503 19.2903 5.25255 19.2305 5.25195 19.1704C5.25158 19.132 5.25243 19.093 5.25293 19.0541C5.25381 18.9861 5.25434 18.9167 5.25781 18.8471C5.25931 18.8171 5.26169 18.7866 5.26367 18.7563C5.26835 18.6845 5.27496 18.6117 5.28223 18.5385C5.28549 18.5056 5.28919 18.4721 5.29297 18.4389C5.30045 18.3732 5.30796 18.3064 5.31738 18.2397C5.32441 18.1899 5.33273 18.1396 5.34082 18.0893C5.35062 18.0283 5.36077 17.9665 5.37207 17.9047C5.38507 17.8337 5.39913 17.7618 5.41406 17.6899C5.42112 17.6559 5.42904 17.6215 5.43652 17.5873C5.4479 17.5353 5.45935 17.4826 5.47168 17.4301C5.47918 17.3982 5.48534 17.3655 5.49316 17.3334C5.4959 17.3223 5.50066 17.3112 5.50391 17.3002C5.51644 17.2497 5.52766 17.1978 5.54102 17.1469C5.67218 16.6479 5.847 16.1177 6.0625 15.5649C5.97087 15.5336 5.87972 15.5033 5.79004 15.4711C5.69425 15.4368 5.5994 15.402 5.50586 15.3666C5.45543 15.3476 5.40521 15.3283 5.35547 15.309C5.29672 15.2862 5.23845 15.2629 5.18066 15.2397V15.2407H5.17969C5.14686 15.2275 5.11455 15.2129 5.08203 15.1997C5.01169 15.1709 4.94187 15.142 4.87305 15.1127C4.86503 15.1093 4.85664 15.1064 4.84863 15.103C4.79976 15.0821 4.75123 15.0607 4.70312 15.0395C4.65461 15.0181 4.60629 14.9967 4.55859 14.975C4.53897 14.9661 4.51949 14.9566 4.5 14.9477C4.49263 14.9443 4.48489 14.9413 4.47754 14.9379C4.43785 14.9196 4.39848 14.9008 4.35938 14.8823C4.32571 14.8663 4.29201 14.8505 4.25879 14.8344C4.23333 14.8221 4.20782 14.8097 4.18262 14.7973C4.14563 14.7791 4.10866 14.761 4.07227 14.7426C4.05734 14.7351 4.04217 14.7277 4.02734 14.7202C3.75619 14.582 3.50179 14.4385 3.26562 14.2914C3.23828 14.2744 3.21053 14.2579 3.18359 14.2407C3.15756 14.2241 3.132 14.2066 3.10645 14.1899C3.05325 14.1551 3.00068 14.1199 2.94922 14.0844C2.94266 14.0799 2.93525 14.0762 2.92871 14.0717V14.0707C2.92515 14.0683 2.92152 14.0654 2.91797 14.0629C2.8333 14.0039 2.75144 13.9431 2.67188 13.8823C2.63854 13.8568 2.60498 13.8312 2.57227 13.8051C2.48533 13.7358 2.40106 13.6658 2.32129 13.5942C2.2659 13.5444 2.21165 13.4935 2.15918 13.4418C2.13996 13.4229 2.12123 13.4033 2.10254 13.3842C2.066 13.3469 2.03091 13.3082 1.99609 13.27C1.98748 13.2605 1.97726 13.2521 1.96875 13.2426C1.96399 13.2373 1.95978 13.2304 1.95508 13.225C1.84586 13.1014 1.74606 12.9727 1.6582 12.8393C1.64465 12.8187 1.63117 12.7977 1.61816 12.7768C1.53238 12.6392 1.4592 12.4966 1.40137 12.3491C1.39939 12.344 1.39651 12.3385 1.39453 12.3334C1.38864 12.3181 1.38349 12.302 1.37793 12.2866C1.37101 12.2673 1.36478 12.2474 1.3584 12.228C1.34771 12.1955 1.3383 12.1623 1.3291 12.1293C1.32469 12.1135 1.31949 12.0974 1.31543 12.0815C1.30577 12.0436 1.29762 12.0048 1.29004 11.9663C1.28651 11.9482 1.28237 11.9298 1.2793 11.9116C1.2703 11.8582 1.26258 11.8039 1.25781 11.7495C1.25267 11.6905 1.251 11.632 1.25098 11.5747C1.25099 11.5611 1.25165 11.5471 1.25195 11.5336C1.25282 11.4913 1.25524 11.4491 1.25879 11.4077C1.2604 11.3892 1.26155 11.3703 1.26367 11.352C1.26959 11.3006 1.27725 11.2495 1.28711 11.1997C1.29731 11.1481 1.31003 11.0972 1.32422 11.0473C1.33062 11.0248 1.33754 11.0021 1.34473 10.9799C1.35187 10.9579 1.35833 10.9352 1.36621 10.9135C1.37241 10.8965 1.38005 10.8796 1.38672 10.8627C1.38961 10.8554 1.39253 10.8476 1.39551 10.8403C1.41292 10.7977 1.43197 10.7555 1.45215 10.7143C1.45978 10.6987 1.46758 10.6828 1.47559 10.6674C1.49356 10.6329 1.51242 10.5984 1.53223 10.5649C1.55067 10.5335 1.57079 10.5027 1.59082 10.4721C1.60003 10.4581 1.60963 10.4439 1.61914 10.4301C1.62918 10.4155 1.63806 10.3996 1.64844 10.3852L1.75488 10.2475C1.81108 10.18 1.87258 10.1154 1.93652 10.0522C1.94512 10.0437 1.95418 10.0352 1.96289 10.0268C2.02166 9.97009 2.08285 9.9141 2.14746 9.86078C2.1493 9.85926 2.15147 9.85743 2.15332 9.8559C2.16094 9.84964 2.16905 9.84355 2.17676 9.83735C2.18693 9.82913 2.19677 9.82007 2.20703 9.81196C2.21947 9.80215 2.23247 9.79236 2.24512 9.78266C2.27407 9.76045 2.30404 9.73883 2.33398 9.71723C2.35788 9.69999 2.38268 9.68333 2.40723 9.66645C2.42694 9.65289 2.44667 9.63877 2.4668 9.62543C2.53072 9.58308 2.59643 9.54133 2.66406 9.50141C2.68063 9.49163 2.69803 9.48273 2.71484 9.47309C2.74759 9.45429 2.78092 9.43569 2.81445 9.41742C2.84555 9.4005 2.87738 9.38412 2.90918 9.36762C2.964 9.33918 3.02025 9.31182 3.07715 9.28461C3.10728 9.27021 3.13729 9.25473 3.16797 9.24067C3.22773 9.21328 3.28877 9.18669 3.35059 9.16059C3.38825 9.14469 3.42647 9.12913 3.46484 9.11371C3.47169 9.11096 3.47849 9.10767 3.48535 9.10492C3.49977 9.09918 3.51383 9.09205 3.52832 9.08637C3.56841 9.07069 3.60956 9.05663 3.65039 9.04145C3.69056 9.02651 3.73162 9.01293 3.77246 8.99848C3.81095 8.98486 3.84959 8.97067 3.88867 8.95746C3.92102 8.94654 3.95367 8.93585 3.98633 8.92524C4.02761 8.91182 4.06946 8.89914 4.11133 8.88617C4.15972 8.87119 4.20864 8.85662 4.25781 8.84223C4.28969 8.8329 4.32134 8.82202 4.35352 8.81293V8.81489C4.41045 8.79881 4.46752 8.78137 4.52539 8.76606C6.10194 8.34893 8.17577 8.17168 10.4834 8.28364C11.6001 6.93777 12.7567 5.79324 13.8516 4.93989C13.9097 4.89459 13.9685 4.85079 14.0264 4.80707C14.0807 4.76599 14.1345 4.7246 14.1885 4.685C14.2498 4.64005 14.3121 4.59723 14.373 4.55414C14.4339 4.5111 14.4943 4.46826 14.5547 4.42719C14.6618 4.35431 14.7683 4.28396 14.874 4.21723C15.1528 4.04132 15.4283 3.88519 15.6982 3.75336ZM12.5146 14.27L12.5176 14.5053C12.5205 14.6974 12.5406 15.0166 12.418 15.309H12.417C12.2918 15.6066 12.0471 15.8123 11.9111 15.9379L11.7432 16.0932C11.5021 16.3161 11.3364 16.4709 11.2217 16.5903C11.3827 16.6592 11.6096 16.7406 11.9414 16.8579L12.1611 16.936C12.3219 16.9928 12.5709 17.0692 12.7861 17.2309L12.876 17.3061L12.957 17.3891C13.1346 17.5893 13.2328 17.8317 13.3047 17.9897L13.4033 18.2055C13.5409 18.5079 13.6405 18.7229 13.7217 18.8793C13.8203 18.7524 13.9461 18.5791 14.1172 18.3373L14.249 18.1498L14.3418 18.018C14.4485 17.8703 14.5992 17.6856 14.8096 17.5639H14.8105C15.0911 17.4021 15.4153 17.3883 15.5977 17.3715L15.8262 17.35C16.1207 17.3228 16.334 17.3007 16.4932 17.2788C16.3983 17.1303 16.2623 16.9365 16.0693 16.6664L15.9316 16.4731C15.8158 16.311 15.6237 16.0651 15.5547 15.7602H15.5537C15.4843 15.452 15.5553 15.1474 15.5908 14.9565L15.6338 14.726C15.6981 14.38 15.7399 14.1431 15.7607 13.9692C15.6001 14.0089 15.3833 14.0751 15.0703 14.1723L14.8516 14.2407C14.6751 14.2955 14.3743 14.4052 14.0537 14.3647C13.8176 14.3347 13.6084 14.2273 13.4492 14.1342L13.3076 14.0493L13.1055 13.9282C12.8486 13.7747 12.6593 13.663 12.5127 13.5834C12.5082 13.7503 12.5101 13.9703 12.5146 14.27ZM9.33984 9.75141C7.59337 9.73802 6.06998 9.90914 4.90918 10.2163C4.73637 10.262 4.57393 10.3107 4.42188 10.3608C4.31333 10.3965 4.21017 10.4336 4.1123 10.4711C3.96615 10.5272 3.83284 10.5848 3.71191 10.643C3.63462 10.6802 3.56131 10.7172 3.49316 10.7553C3.43451 10.7882 3.37992 10.8226 3.32812 10.8559C3.11857 10.9905 2.96892 11.1236 2.875 11.2495C2.87011 11.256 2.86488 11.2625 2.86035 11.269C2.83235 11.3087 2.81145 11.3472 2.79492 11.3832C2.78606 11.403 2.77837 11.4223 2.77246 11.4409C2.76922 11.451 2.76613 11.4612 2.76367 11.4711C2.7598 11.4867 2.75699 11.5023 2.75488 11.517C2.75334 11.5284 2.75261 11.54 2.75195 11.5512V11.6196L2.76953 11.7163C2.7806 11.7578 2.79725 11.8029 2.81934 11.851C2.83339 11.8815 2.85078 11.9133 2.87012 11.9467C2.87795 11.9603 2.88579 11.9747 2.89453 11.9887C2.92015 12.0295 2.94924 12.073 2.9834 12.1176C3.03022 12.1789 3.08617 12.2428 3.15039 12.31C3.19437 12.356 3.24195 12.4027 3.29297 12.4497C3.29726 12.4536 3.30129 12.4584 3.30566 12.4623C3.36804 12.5191 3.43609 12.5763 3.50879 12.6342C3.51863 12.642 3.52899 12.6498 3.53906 12.6577C3.64928 12.744 3.7711 12.8314 3.9043 12.9194C3.96659 12.9605 4.03117 13.0016 4.09766 13.0424C4.40043 13.2283 4.74835 13.412 5.1377 13.5903C5.14188 13.5922 5.1462 13.5942 5.15039 13.5961C5.1687 13.6045 5.18757 13.6122 5.20605 13.6206C5.26667 13.6479 5.32905 13.6736 5.3916 13.7006C5.53946 13.7645 5.69179 13.8292 5.84961 13.8911C6.04407 13.9673 6.2455 14.0431 6.4541 14.1157C6.47084 14.1215 6.48806 14.1265 6.50488 14.1323C6.55729 14.1503 6.6108 14.1663 6.66406 14.184C7.2184 13.0252 7.92434 11.8005 8.7627 10.5707C8.95231 10.2926 9.14464 10.0189 9.33984 9.75141ZM17.875 4.81196C17.6616 4.70902 17.1864 4.6957 16.3564 5.10102C16.142 5.20574 15.9143 5.33461 15.6748 5.48578C15.5381 5.57207 15.3986 5.66535 15.2568 5.76508C15.1984 5.80618 15.1394 5.8486 15.0801 5.89203C15.0258 5.93175 14.9718 5.97352 14.917 6.01508C14.8691 6.0514 14.8199 6.08765 14.7715 6.12543C13.997 6.72932 13.1683 7.51001 12.3369 8.43207C13.8193 8.59637 15.2408 8.86316 16.5293 9.20942C16.7235 9.2616 16.9154 9.31578 17.1035 9.37153C17.1549 9.38676 17.2059 9.40292 17.2568 9.4184C17.4016 9.46245 17.5448 9.50709 17.6855 9.55317C17.7039 9.55917 17.722 9.56554 17.7402 9.57172C17.5467 9.36882 17.4737 9.06675 17.5801 8.78754C17.8342 8.12174 18.0114 7.51649 18.1201 6.98676C18.1303 6.93698 18.1405 6.88764 18.1494 6.8393C18.1619 6.77207 18.1726 6.70568 18.1826 6.64106C18.1914 6.58466 18.201 6.52924 18.208 6.47504C18.2174 6.4017 18.2243 6.32975 18.2305 6.2602C18.234 6.22021 18.2387 6.18064 18.2412 6.14203C18.2477 6.03999 18.2508 5.942 18.25 5.84907C18.2471 5.5069 18.1941 5.2619 18.123 5.09809V5.09711C18.0523 4.9343 17.9664 4.85619 17.875 4.81196Z" fill="#48465C"/>
</svg>
