<svg width="24" height="24" viewBox="0 0 24 24" fill="none" xmlns="http://www.w3.org/2000/svg">
<path fill-rule="evenodd" clip-rule="evenodd" d="M15.7911 13.0731C16.2238 11.9758 17.7764 11.9758 18.2091 13.0731L18.9777 15.0214L20.9269 15.7909C22.0241 16.2236 22.0242 17.7762 20.9269 18.2089L18.9777 18.9774L18.2091 20.9266C17.7764 22.0239 16.2238 22.0239 15.7911 20.9266L15.0216 18.9774L13.0734 18.2089C11.9761 17.7762 11.9761 16.2236 13.0734 15.7909L15.0216 15.0214L15.7911 13.0731ZM16.3859 15.6532C16.2537 15.9882 15.9884 16.2534 15.6534 16.3856L14.0948 16.9999L15.6534 17.6141C15.9884 17.7463 16.2537 18.0116 16.3859 18.3465L17.0001 19.9042L17.6144 18.3465C17.7466 18.0115 18.0118 17.7463 18.3468 17.6141L19.9044 16.9999L18.3468 16.3856C18.0118 16.2534 17.7466 15.9881 17.6144 15.6532L17.0001 14.0946L16.3859 15.6532ZM7.33605 3.38268C7.93168 1.87244 10.0686 1.87244 10.6642 3.38268L11.7364 6.10045C11.7658 6.17495 11.825 6.23416 11.8995 6.26354L14.6173 7.3358C16.1274 7.93151 16.1275 10.0683 14.6173 10.6639L11.8995 11.7362C11.825 11.7656 11.7658 11.8248 11.7364 11.8993L10.6642 14.6171C10.0686 16.1273 7.93175 16.1272 7.33605 14.6171L6.26378 11.8993C6.2344 11.8248 6.1752 11.7656 6.1007 11.7362L3.38292 10.6639C1.87268 10.0683 1.87268 7.93144 3.38292 7.3358L6.1007 6.26354C6.1752 6.23416 6.2344 6.17495 6.26378 6.10045L7.33605 3.38268ZM9.26867 3.93248C9.17231 3.6889 8.82797 3.68897 8.73156 3.93248L7.65929 6.65123C7.47744 7.11215 7.11239 7.4772 6.65148 7.65905L3.93273 8.73131C3.6892 8.82773 3.68915 9.17207 3.93273 9.26842L6.65148 10.3407C7.11242 10.5226 7.47748 10.8876 7.65929 11.3485L8.73156 14.0663C8.8278 14.3103 9.17243 14.3103 9.26867 14.0663L10.3409 11.3485C10.5228 10.8875 10.8878 10.5226 11.3487 10.3407L14.0665 9.26842C14.3105 9.17218 14.3105 8.82755 14.0665 8.73131L11.3487 7.65905C10.8878 7.47724 10.5229 7.11217 10.3409 6.65123L9.26867 3.93248Z" fill="#48465C"/>
</svg>
