<svg width="24" height="24" viewBox="0 0 24 24" fill="none" xmlns="http://www.w3.org/2000/svg">
<path d="M12.0002 1.25C12.8331 1.25011 13.4219 1.77408 13.8986 2.39648C14.3669 3.00804 14.864 3.89853 15.4709 4.9873L15.8293 5.63086C16.2216 6.33458 16.3225 6.48445 16.4484 6.58008C16.5696 6.6721 16.7261 6.72376 17.4894 6.89648L18.1896 7.05469C19.3652 7.32065 20.3338 7.54039 21.0392 7.81836C21.7713 8.10691 22.4117 8.53206 22.6584 9.3252C22.9024 10.1103 22.6282 10.8323 22.2043 11.5059C21.7923 12.1604 21.134 12.9301 20.3302 13.8701L19.8556 14.4248C19.3388 15.0291 19.2306 15.1776 19.1798 15.3408C19.1283 15.5072 19.1331 15.7 19.2111 16.5049L19.2834 17.2432C19.4051 18.4993 19.5037 19.5236 19.4689 20.3037C19.4336 21.0975 19.2537 21.8599 18.5988 22.3574C17.9313 22.8641 17.1542 22.8075 16.4045 22.5928C15.6775 22.3845 14.7707 21.9667 13.6701 21.46L13.0148 21.1582C12.2978 20.8281 12.144 20.7745 12.0002 20.7744C11.8563 20.7744 11.7026 20.828 10.9855 21.1582L10.3293 21.46C9.22888 21.9666 8.3228 22.3845 7.59586 22.5928C6.84608 22.8076 6.06904 22.8641 5.40152 22.3574C4.74634 21.8599 4.5658 21.0977 4.53043 20.3037C4.49568 19.5236 4.59521 18.4992 4.71695 17.2432L4.78824 16.5049C4.86626 15.6997 4.87113 15.5072 4.81949 15.3408C4.76872 15.1776 4.66072 15.0293 4.14371 14.4248L3.6691 13.8701C2.86525 12.9302 2.20708 12.1604 1.79508 11.5059C1.37114 10.8324 1.09698 10.1101 1.34097 9.3252C1.58764 8.53198 2.2289 8.10691 2.96109 7.81836C3.66644 7.54042 4.63514 7.32063 5.8107 7.05469L5.87418 7.04004L6.50992 6.89648C7.27312 6.72381 7.4297 6.67206 7.55094 6.58008C7.67689 6.48446 7.77754 6.33503 8.17008 5.63086L8.52847 4.9873C9.13533 3.89861 9.63243 3.00807 10.1007 2.39648C10.5773 1.77401 11.1671 1.25 12.0002 1.25ZM12.0002 2.75C11.8865 2.75 11.6852 2.79435 11.2921 3.30762C10.8983 3.82177 10.4533 4.6154 9.80777 5.77344L9.48062 6.36133C9.46087 6.39676 9.44134 6.43204 9.42203 6.4668C9.12129 7.00799 8.86717 7.46491 8.45816 7.77539C8.04479 8.0891 7.54084 8.20238 6.95523 8.33398C6.9176 8.34243 6.87928 8.35071 6.84097 8.35938L6.20523 8.50391C4.94993 8.78793 4.09583 8.98335 3.5109 9.21387C2.9401 9.43881 2.81951 9.62282 2.77359 9.77051C2.72513 9.92637 2.7234 10.165 3.06461 10.707C3.41094 11.2572 3.99535 11.9432 4.84976 12.9424L5.28336 13.4502C5.30852 13.4796 5.33388 13.5083 5.35855 13.5371C5.76146 14.0071 6.09791 14.399 6.25211 14.8945C6.40532 15.3872 6.35469 15.9055 6.29312 16.5332C6.28936 16.5715 6.28521 16.6102 6.2814 16.6494L6.21597 17.3271C6.08691 18.6591 6.00001 19.5767 6.02945 20.2373C6.05886 20.8966 6.19802 21.0791 6.30875 21.1631C6.40732 21.2378 6.59007 21.3202 7.18277 21.1504C7.78557 20.9777 8.58679 20.6114 9.76187 20.0703L10.3576 19.7959C10.3943 19.779 10.431 19.7618 10.467 19.7451C11.0117 19.4933 11.4845 19.2744 12.0002 19.2744C12.5158 19.2745 12.9886 19.4934 13.5334 19.7451C13.5693 19.7618 13.6052 19.7791 13.6418 19.7959L14.2375 20.0703C15.4129 20.6115 16.2146 20.9777 16.8175 21.1504C17.4107 21.3204 17.5931 21.2379 17.6916 21.1631C17.8022 21.0791 17.9414 20.8965 17.9709 20.2373C18.0003 19.5767 17.9134 18.6591 17.7843 17.3271L17.7179 16.6494C17.7141 16.6102 17.711 16.5715 17.7072 16.5332C17.6457 15.9055 17.595 15.3872 17.7482 14.8945C17.9024 14.3991 18.238 14.0071 18.6408 13.5371C18.6654 13.5084 18.6908 13.4796 18.716 13.4502L19.1496 12.9424C20.0039 11.9433 20.5883 11.2572 20.9347 10.707C21.2758 10.1651 21.2752 9.92637 21.2267 9.77051C21.1808 9.62285 21.0599 9.43874 20.4894 9.21387C19.9045 8.98336 19.0502 8.78791 17.7951 8.50391L17.1584 8.35938C17.1203 8.35075 17.0825 8.3424 17.0451 8.33398C16.4594 8.20236 15.9546 8.08922 15.5412 7.77539C15.1323 7.46495 14.879 7.00785 14.5783 6.4668C14.559 6.43206 14.5394 6.39674 14.5197 6.36133L14.1916 5.77344C13.546 4.61548 13.1018 3.82175 12.7082 3.30762C12.3152 2.79455 12.114 2.75007 12.0002 2.75Z" fill="#48465C"/>
</svg>
