<svg width="24" height="24" viewBox="0 0 24 24" fill="none" xmlns="http://www.w3.org/2000/svg">
<path d="M14.7246 8.15625C16.2751 7.23801 17.0507 6.77873 17.6201 7.10449C18.1894 7.43028 18.1756 8.32548 18.1484 10.1152L18.1415 10.5781C18.1338 11.0866 18.1298 11.341 18.2246 11.5645C18.3193 11.7878 18.5019 11.9555 18.8671 12.29L19.2001 12.5947C20.4858 13.7724 21.1289 14.3612 20.9785 15.0225C20.8278 15.6838 19.9829 15.9798 18.2939 16.5713L17.8574 16.7246C17.3774 16.8927 17.1372 16.977 16.9531 17.1455C16.769 17.3141 16.661 17.548 16.4462 18.0156L16.2509 18.4414C15.4952 20.0872 15.1173 20.91 14.455 20.9932C13.7926 21.0762 13.2841 20.3644 12.2675 18.9404L12.0038 18.5713C11.7152 18.167 11.5706 17.9651 11.3622 17.8457C11.1537 17.7264 10.9044 17.7028 10.4062 17.6572L9.95307 17.6162C8.20021 17.4558 7.3232 17.3755 7.06439 16.7656C6.80565 16.1555 7.33668 15.419 8.3974 13.9473L8.67182 13.5664C8.97299 13.1485 9.12345 12.9395 9.17865 12.6973C9.23386 12.4551 9.18775 12.2069 9.09467 11.7109L9.00971 11.2598C8.68221 9.51476 8.51825 8.64174 9.02045 8.18164C9.52306 7.72162 10.36 7.97858 12.0322 8.49317L12.4648 8.62598C12.9398 8.77216 13.1772 8.84576 13.4199 8.81543C13.6626 8.78504 13.8836 8.65449 14.3242 8.39356L14.7246 8.15625ZM3.96967 9.96973C4.26256 9.67684 4.73732 9.67684 5.03021 9.96973L6.53021 11.4697C6.82306 11.7626 6.82309 12.2374 6.53021 12.5303C6.23735 12.8231 5.76256 12.8231 5.46967 12.5303L3.96967 11.0303C3.67678 10.7374 3.67678 10.2627 3.96967 9.96973ZM1.46967 7.46973C1.76256 7.17684 2.23732 7.17684 2.53021 7.46973L3.03021 7.96973C3.32304 8.26262 3.32308 8.73741 3.03021 9.03028C2.73734 9.32314 2.26256 9.3231 1.96967 9.03028L1.46967 8.53028C1.17678 8.23739 1.17678 7.76262 1.46967 7.46973ZM3.46967 3.46973C3.76256 3.17684 4.23732 3.17684 4.53021 3.46973L7.03021 5.96973C7.32304 6.26262 7.32308 6.73741 7.03021 7.03028C6.73734 7.32314 6.26256 7.3231 5.96967 7.03028L3.46967 4.53028C3.17678 4.23739 3.17678 3.76262 3.46967 3.46973ZM12.4697 5.46973C12.7626 5.17684 13.2373 5.17684 13.5302 5.46973L14.0302 5.96973C14.323 6.26262 14.3231 6.73741 14.0302 7.03028C13.7373 7.32315 13.2626 7.32312 12.9697 7.03028L12.4697 6.53028C12.1768 6.23739 12.1768 5.76262 12.4697 5.46973ZM8.96967 1.96973C9.26256 1.67684 9.73735 1.67684 10.0302 1.96973L12.0302 3.96973C12.323 4.26262 12.3231 4.73741 12.0302 5.03028C11.7373 5.32315 11.2626 5.32312 10.9697 5.03028L8.96967 3.03028C8.67678 2.73739 8.67678 2.26262 8.96967 1.96973Z" fill="#48465C"/>
</svg>
