<svg width="24" height="24" viewBox="0 0 24 24" fill="none" xmlns="http://www.w3.org/2000/svg">
<path d="M12 6.99994C13.1045 6.99996 13.9999 7.89547 14 8.99994C14 9.66877 13.6713 10.2609 13.167 10.624L16.7148 21.7724C16.8232 22.1131 16.6759 22.4831 16.3633 22.6562C16.0503 22.8293 15.6586 22.7572 15.4277 22.4843L12 18.4335L8.57227 22.4843C8.34129 22.7572 7.94965 22.8293 7.63672 22.6562C7.32401 22.4831 7.17676 22.1131 7.28516 21.7724L10.833 10.624C10.3287 10.2609 10 9.66877 10 8.99994C10.0001 7.89546 10.8955 6.99994 12 6.99994ZM9.85352 18.6484L11.0176 17.2724L10.4893 16.6494L9.85352 18.6484ZM12.9824 17.2724L14.1465 18.6484L13.5107 16.6494L12.9824 17.2724ZM4.40625 1.46967C4.69943 1.17707 5.1742 1.17746 5.4668 1.47065C5.75929 1.76384 5.75897 2.23863 5.46582 2.53119C3.78732 4.2064 2.75006 6.52035 2.75 9.07807C2.75 11.6658 3.81199 14.0048 5.52539 15.6845C5.82081 15.9745 5.825 16.4494 5.53516 16.7451C5.24518 17.0405 4.77028 17.0455 4.47461 16.7558C2.48528 14.8056 1.25 12.0851 1.25 9.07807C1.25006 6.10604 2.45739 3.41475 4.40625 1.46967ZM18.6162 1.54291C18.912 1.25295 19.3868 1.25787 19.6768 1.55366C21.5767 3.49187 22.7499 6.1486 22.75 9.07807C22.75 12.0424 21.5493 14.7279 19.6094 16.6718C19.3168 16.965 18.8419 16.9653 18.5488 16.6728C18.2557 16.3802 18.2544 15.9055 18.5469 15.6122C20.2178 13.938 21.25 11.6292 21.25 9.07807C21.2499 6.55685 20.2417 4.27266 18.6055 2.60346C18.3156 2.30773 18.3206 1.83287 18.6162 1.54291ZM11.0254 14.9648C11.0416 14.9808 11.0573 14.9979 11.0723 15.0156L12 16.1113L12.9277 15.0156C12.9427 14.9979 12.9584 14.9808 12.9746 14.9648L12 11.9023L11.0254 14.9648ZM7.24902 4.53022C7.55145 4.24734 8.02659 4.26304 8.30957 4.56537C8.59255 4.86776 8.5767 5.34288 8.27441 5.62592C7.3255 6.51391 6.75 7.72849 6.75 9.06049C6.75001 10.408 7.33875 11.6357 8.30762 12.5263C8.6124 12.8066 8.63266 13.2809 8.35254 13.5859C8.07223 13.8908 7.59694 13.9111 7.29199 13.6308C6.03926 12.4792 5.25001 10.8606 5.25 9.06049C5.25 7.28125 6.02134 5.67908 7.24902 4.53022ZM15.7432 4.60346C16.0295 4.3044 16.5044 4.29381 16.8037 4.58002C18.0009 5.72515 18.75 7.30689 18.75 9.06049C18.75 10.8349 17.9827 12.4328 16.7607 13.581C16.4589 13.8647 15.9838 13.8497 15.7002 13.5478C15.4169 13.2459 15.4318 12.7718 15.7334 12.4882C16.6779 11.6009 17.25 10.389 17.25 9.06049C17.25 7.74743 16.6913 6.54848 15.7666 5.66401C15.4673 5.3777 15.4569 4.90279 15.7432 4.60346Z" fill="#48465C"/>
</svg>
