<svg width="24" height="24" viewBox="0 0 24 24" fill="none" xmlns="http://www.w3.org/2000/svg">
<path d="M16.5591 14.0537C18.2317 13.7822 19.7493 15.0731 19.7495 16.7676V22C19.7495 22.4142 19.4137 22.75 18.9995 22.75C18.5854 22.7498 18.2495 22.4141 18.2495 22V16.7676C18.2493 15.9973 17.5596 15.4106 16.7993 15.5342L15.7866 15.6982C15.3778 15.7647 14.9927 15.487 14.9263 15.0781C14.8601 14.6695 15.1376 14.2842 15.5464 14.2178L16.5591 14.0537ZM10.5024 9.20703C11.987 8.57078 13.6389 9.65933 13.6392 11.2744V13.8955C13.6391 14.3655 13.518 14.828 13.2886 15.2383L10.5767 20.0859C10.2518 20.6666 9.72684 21.1104 9.1001 21.334L5.25147 22.7061C4.86138 22.8451 4.43261 22.642 4.29346 22.252C4.15436 21.8619 4.35765 21.4333 4.74756 21.2939L8.5962 19.9209C8.88108 19.8193 9.11942 19.6175 9.26709 19.3535L11.98 14.5059C12.0843 14.3195 12.1391 14.109 12.1392 13.8955V11.2744C12.1389 10.7363 11.5881 10.3731 11.0933 10.585L8.63721 11.6377C8.14589 11.8484 8.02689 12.491 8.40967 12.8643L9.02295 13.4629C9.31953 13.7521 9.32579 14.2268 9.03663 14.5234C8.74747 14.82 8.27266 14.8263 7.97608 14.5371L7.36182 13.9385C6.21348 12.8188 6.57215 10.8907 8.04639 10.2588L10.5024 9.20703ZM14.4995 1.25C16.2944 1.25 17.7495 2.70507 17.7495 4.5C17.7495 6.29493 16.2944 7.75 14.4995 7.75C12.7047 7.74984 11.2495 6.29483 11.2495 4.5C11.2495 2.70517 12.7047 1.25016 14.4995 1.25ZM14.4995 2.75C13.5331 2.75016 12.7495 3.5336 12.7495 4.5C12.7495 5.4664 13.5331 6.24984 14.4995 6.25C15.466 6.25 16.2495 5.4665 16.2495 4.5C16.2495 3.5335 15.466 2.75 14.4995 2.75Z" fill="#48465C"/>
</svg>
