<svg width="24" height="24" viewBox="0 0 24 24" fill="none" xmlns="http://www.w3.org/2000/svg">
<path fill-rule="evenodd" clip-rule="evenodd" d="M16.5587 14.0537C18.2313 13.7819 19.7498 15.073 19.7501 16.7676V22C19.7501 22.4142 19.4142 22.7499 19.0001 22.75C18.5858 22.75 18.2501 22.4142 18.2501 22V16.7676C18.2498 15.9975 17.56 15.4109 16.7999 15.5342L15.7872 15.6982C15.3785 15.7647 14.9925 15.4878 14.9258 15.0791C14.8595 14.6704 15.1373 14.2844 15.546 14.2178L16.5587 14.0537ZM10.502 9.20703C11.9866 8.57079 13.6384 9.65937 13.6387 11.2744V13.8955C13.6387 14.3656 13.5186 14.828 13.2891 15.2383L10.5762 20.0859C10.2515 20.6666 9.72735 21.1104 9.10065 21.334L5.25202 22.7061C4.86188 22.8453 4.43219 22.6421 4.29303 22.252C4.15405 21.8618 4.35806 21.4331 4.74811 21.2939L8.59674 19.9209C8.88153 19.8193 9.12001 19.6175 9.26764 19.3535L11.9796 14.5059C12.0839 14.3195 12.1387 14.1091 12.1387 13.8955V11.2744C12.1384 10.7363 11.5885 10.3741 11.0938 10.5859L8.63776 11.6377C8.1464 11.8483 8.02662 12.4909 8.40924 12.8643L9.0235 13.4629C9.31999 13.752 9.32609 14.2268 9.03717 14.5234C8.74807 14.82 8.27321 14.8262 7.97663 14.5371L7.36237 13.9385C6.21392 12.8188 6.57265 10.8917 8.04694 10.2598L10.502 9.20703ZM14.5001 2C15.8807 2.00006 17.0001 3.11933 17.0001 4.5C17.0001 5.88067 15.8807 6.99994 14.5001 7C13.1193 7 12.0001 5.88071 12.0001 4.5C12.0001 3.11929 13.1193 2 14.5001 2Z" fill="#48465C"/>
</svg>
