<svg width="24" height="24" viewBox="0 0 24 24" fill="none" xmlns="http://www.w3.org/2000/svg">
<path d="M16.5591 14.0537C18.2316 13.7822 19.7493 15.0731 19.7495 16.7676V22C19.7495 22.4142 19.4137 22.75 18.9995 22.75C18.5854 22.7498 18.2495 22.4141 18.2495 22V16.7676C18.2493 15.9974 17.5596 15.4106 16.7993 15.5342L15.7866 15.6982C15.378 15.7647 14.993 15.4878 14.9263 15.0791C14.8599 14.6703 15.1376 14.2843 15.5464 14.2178L16.5591 14.0537ZM10.5025 9.20703C11.987 8.57082 13.6379 9.65938 13.6382 11.2744V13.8955C13.6382 14.3656 13.5181 14.828 13.2886 15.2383L10.5767 20.0859C10.2519 20.6666 9.72686 21.1104 9.10012 21.334L5.25148 22.7061C4.86138 22.8452 4.43262 22.642 4.29348 22.252C4.1544 21.8619 4.35765 21.4332 4.74758 21.2939L8.59621 19.9209C8.88109 19.8193 9.11944 19.6175 9.26711 19.3535L11.98 14.5059C12.0844 14.3195 12.1382 14.1091 12.1382 13.8955V11.2744C12.1379 10.7363 11.588 10.3739 11.0933 10.5859L8.63723 11.6377C8.14586 11.8483 8.02689 12.491 8.40969 12.8643L9.02297 13.4629C9.31952 13.7521 9.32575 14.2268 9.03664 14.5234C8.74748 14.82 8.27266 14.8263 7.97609 14.5371L7.36184 13.9385C6.2136 12.8188 6.57242 10.8918 8.04641 10.2598L10.5025 9.20703ZM14.4995 2C15.8802 2 16.9995 3.11929 16.9995 4.5C16.9995 5.88071 15.8802 7 14.4995 7C13.1189 6.99984 11.9995 5.88061 11.9995 4.5C11.9995 3.11939 13.1189 2.00016 14.4995 2Z" fill="#48465C"/>
</svg>
