<svg width="24" height="24" viewBox="0 0 24 24" fill="none" xmlns="http://www.w3.org/2000/svg">
<path fill-rule="evenodd" clip-rule="evenodd" d="M16.5588 14.0537C18.2316 13.7819 19.75 15.0729 19.7502 16.7676V22C19.7502 22.4142 19.4143 22.7499 19.0002 22.75C18.586 22.75 18.2502 22.4142 18.2502 22V16.7676C18.25 15.9975 17.5601 15.4109 16.8 15.5342L15.7873 15.6982C15.3784 15.7647 14.9924 15.487 14.926 15.0781C14.8598 14.6696 15.1376 14.2844 15.5461 14.2178L16.5588 14.0537ZM10.5031 9.20703C11.9876 8.57105 13.6386 9.65943 13.6389 11.2744V13.8955C13.6388 14.3655 13.5187 14.828 13.2893 15.2383L10.5764 20.0859C10.2515 20.6666 9.7275 21.1104 9.10079 21.334L5.25216 22.7061C4.86202 22.8453 4.43234 22.6421 4.29317 22.252C4.15415 21.8618 4.35818 21.4331 4.74825 21.2939L8.59689 19.9209C8.88168 19.8193 9.12015 19.6175 9.26778 19.3535L11.9797 14.5059C12.084 14.3195 12.1388 14.109 12.1389 13.8955V11.2744C12.1386 10.7362 11.5879 10.3729 11.093 10.585L8.6379 11.6377C8.14652 11.8483 8.02671 12.4909 8.40939 12.8643L9.02364 13.4629C9.32015 13.752 9.32626 14.2268 9.03731 14.5234C8.74822 14.82 8.27336 14.8261 7.97677 14.5371L7.36251 13.9385C6.21405 12.8188 6.57279 10.8907 8.04708 10.2588L10.5031 9.20703ZM14.5002 1.25C16.295 1.25008 17.7502 2.70512 17.7502 4.5C17.7502 6.29488 16.295 7.74992 14.5002 7.75C12.7053 7.75 11.2502 6.29493 11.2502 4.5C11.2502 2.70507 12.7053 1.25 14.5002 1.25ZM14.5002 2.75C13.5337 2.75 12.7502 3.5335 12.7502 4.5C12.7502 5.4665 13.5337 6.25 14.5002 6.25C15.4666 6.24992 16.2502 5.46645 16.2502 4.5C16.2502 3.53355 15.4666 2.75008 14.5002 2.75Z" fill="#48465C"/>
</svg>
