<svg width="24" height="24" viewBox="0 0 24 24" fill="none" xmlns="http://www.w3.org/2000/svg">
<path d="M5.57323 14.25C5.96574 14.2498 6.26874 14.2496 6.53613 14.3028C7.62703 14.5198 8.48026 15.3731 8.69726 16.4639C8.7504 16.7314 8.75019 17.0342 8.74999 17.4268V17.75H11.25V16C11.25 15.5859 11.5858 15.2501 12 15.25C12.4142 15.25 12.75 15.5858 12.75 16V17.75H15.25V17.4268C15.2498 17.0342 15.2496 16.7314 15.3027 16.4639C15.5197 15.3731 16.373 14.5198 17.4639 14.3028C17.7313 14.2496 18.0342 14.2498 18.4268 14.25H18.5732C18.9657 14.2498 19.2687 14.2497 19.5361 14.3028C20.627 14.5198 21.4804 15.3731 21.6973 16.4639C21.7505 16.7314 21.7502 17.0342 21.75 17.4268V19.5733C21.7502 19.9659 21.7505 20.2688 21.6973 20.5362C21.4804 21.6271 20.627 22.4803 19.5361 22.6973C19.2687 22.7504 18.9657 22.7502 18.5732 22.75H18.4268C18.0342 22.7502 17.7313 22.7504 17.4639 22.6973C16.373 22.4803 15.5197 21.6271 15.3027 20.5362C15.2496 20.2688 15.2498 19.9658 15.25 19.5733V19.25H8.74999V19.5733C8.75019 19.9658 8.75039 20.2687 8.69726 20.5362C8.48026 21.6271 7.62703 22.4803 6.53613 22.6973C6.26873 22.7504 5.96575 22.7502 5.57323 22.75H5.42675C5.03418 22.7502 4.73128 22.7504 4.46386 22.6973C3.37296 22.4803 2.51972 21.6271 2.30273 20.5362C2.2496 20.2688 2.2498 19.9659 2.24999 19.5733V17.4268C2.2498 17.0342 2.24959 16.7314 2.30273 16.4639C2.51972 15.3731 3.37296 14.5198 4.46386 14.3028C4.73127 14.2496 5.0342 14.2498 5.42675 14.25H5.57323ZM5.49999 15.75C4.99944 15.75 4.85834 15.754 4.75585 15.7744C4.26032 15.8731 3.87315 16.2603 3.77441 16.7559C3.75403 16.8584 3.74999 16.9994 3.74999 17.5V19.5C3.74999 20.0007 3.75403 20.1417 3.77441 20.2442C3.87311 20.7398 4.26028 21.1269 4.75585 21.2256C4.85834 21.246 4.99944 21.25 5.49999 21.25C6.00059 21.25 6.14164 21.246 6.24413 21.2256C6.73976 21.1269 7.12686 20.7398 7.22558 20.2442C7.24596 20.1417 7.24999 20.0007 7.24999 19.5V17.5C7.24999 16.9994 7.24596 16.8584 7.22558 16.7559C7.12681 16.2603 6.73972 15.8731 6.24413 15.7744C6.14164 15.754 6.00059 15.75 5.49999 15.75ZM18.5 15.75C17.9995 15.75 17.8583 15.754 17.7559 15.7744C17.2604 15.8731 16.8731 16.2603 16.7744 16.7559C16.754 16.8584 16.75 16.9994 16.75 17.5V19.5C16.75 20.0007 16.754 20.1417 16.7744 20.2442C16.8731 20.7398 17.2603 21.1269 17.7559 21.2256C17.8583 21.246 17.9995 21.25 18.5 21.25C19.0006 21.25 19.1417 21.246 19.2441 21.2256C19.7398 21.1269 20.1278 20.7399 20.2266 20.2442C20.247 20.1417 20.25 20.0007 20.25 19.5V17.5C20.25 16.9994 20.247 16.8584 20.2266 16.7559C20.1278 16.2602 19.7398 15.8731 19.2441 15.7744C19.1417 15.754 19.0006 15.75 18.5 15.75ZM13.4697 9.46975C13.7625 9.17687 14.2374 9.17691 14.5303 9.46975C14.8232 9.76263 14.8231 10.2374 14.5303 10.5303L13.0605 12L14.5303 13.4697C14.8232 13.7626 14.8231 14.2374 14.5303 14.5303C14.2374 14.8232 13.7625 14.8232 13.4697 14.5303L12 13.0606L10.5303 14.5303C10.2374 14.8232 9.76261 14.8232 9.46972 14.5303C9.17691 14.2374 9.17686 13.7626 9.46972 13.4697L10.9394 12L9.46972 10.5303C9.1769 10.2374 9.17685 9.76261 9.46972 9.46975C9.76259 9.17687 10.2374 9.17691 10.5303 9.46975L12 10.9395L13.4697 9.46975ZM5.57323 1.25002C5.96574 1.24983 6.26874 1.24964 6.53613 1.30276C7.62703 1.51975 8.48026 2.37299 8.69726 3.46389C8.75041 3.73131 8.75019 4.03422 8.74999 4.42678V4.75002H15.25V4.42678C15.2498 4.03423 15.2496 3.73131 15.3027 3.46389C15.5197 2.37299 16.373 1.51975 17.4639 1.30276C17.7313 1.24961 18.0342 1.24983 18.4268 1.25002H18.5732C18.9657 1.24983 19.2687 1.24964 19.5361 1.30276C20.627 1.51975 21.4804 2.37299 21.6973 3.46389C21.7505 3.73131 21.7502 4.03422 21.75 4.42678V6.57327C21.7502 6.96577 21.7505 7.26876 21.6973 7.53616C21.4804 8.62706 20.627 9.48029 19.5361 9.69729C19.2687 9.75041 18.9657 9.75022 18.5732 9.75002H18.4268C18.0342 9.75022 17.7313 9.75044 17.4639 9.69729C16.373 9.48029 15.5197 8.62705 15.3027 7.53616C15.2496 7.26876 15.2498 6.96577 15.25 6.57327V6.25002H12.75V8.00002C12.75 8.41423 12.4142 8.75002 12 8.75002C11.5858 8.74998 11.25 8.4142 11.25 8.00002V6.25002H8.74999V6.57327C8.75019 6.96579 8.75038 7.26876 8.69726 7.53616C8.48026 8.62706 7.62703 9.48029 6.53613 9.69729C6.26873 9.75041 5.96576 9.75022 5.57323 9.75002H5.42675C5.03418 9.75022 4.73128 9.75044 4.46386 9.69729C3.37296 9.48029 2.51972 8.62705 2.30273 7.53616C2.24961 7.26876 2.2498 6.96577 2.24999 6.57327V4.42678C2.2498 4.03423 2.24958 3.7313 2.30273 3.46389C2.51972 2.37299 3.37296 1.51975 4.46386 1.30276C4.73127 1.24961 5.03419 1.24983 5.42675 1.25002H5.57323ZM5.49999 2.75002C4.99944 2.75002 4.85834 2.75405 4.75585 2.77444C4.26031 2.87317 3.87315 3.26034 3.77441 3.75588C3.75403 3.85837 3.74999 3.99947 3.74999 4.50002V6.50002C3.74999 7.00062 3.75403 7.14167 3.77441 7.24416C3.8731 7.73976 4.26028 8.12686 4.75585 8.22561C4.85834 8.24599 4.99944 8.25002 5.49999 8.25002C6.00059 8.25002 6.14164 8.24599 6.24413 8.22561C6.73976 8.12691 7.12686 7.73979 7.22558 7.24416C7.24596 7.14167 7.24999 7.00062 7.24999 6.50002V4.50002C7.24999 3.99947 7.24596 3.85837 7.22558 3.75588C7.12682 3.26031 6.73973 2.87312 6.24413 2.77444C6.14164 2.75405 6.00059 2.75002 5.49999 2.75002ZM18.5 2.75002C17.9995 2.75002 17.8583 2.75405 17.7559 2.77444C17.2604 2.87316 16.8731 3.26034 16.7744 3.75588C16.754 3.85837 16.75 3.99947 16.75 4.50002V6.50002C16.75 7.00062 16.754 7.14167 16.7744 7.24416C16.8731 7.73976 17.2603 8.12687 17.7559 8.22561C17.8583 8.24599 17.9995 8.25002 18.5 8.25002C19.0006 8.25002 19.1417 8.24599 19.2441 8.22561C19.7398 8.12688 20.1278 7.73986 20.2266 7.24416C20.247 7.14167 20.25 7.00062 20.25 6.50002V4.50002C20.25 3.99947 20.247 3.85837 20.2266 3.75588C20.1278 3.26024 19.7398 2.87315 19.2441 2.77444C19.1417 2.75405 19.0006 2.75002 18.5 2.75002Z" fill="#48465C"/>
</svg>
