<svg width="24" height="24" viewBox="0 0 24 24" fill="none" xmlns="http://www.w3.org/2000/svg">
<path fill-rule="evenodd" clip-rule="evenodd" d="M5.57327 14.25C5.96577 14.2498 6.26877 14.2496 6.53616 14.3028C7.62706 14.5198 8.48029 15.3731 8.69729 16.4639C8.75043 16.7314 8.75022 17.0342 8.75002 17.4268V17.75H11.25V16C11.25 15.5859 11.5859 15.2501 12 15.25C12.4142 15.25 12.75 15.5858 12.75 16V17.75H15.25V17.4268C15.2498 17.0342 15.2496 16.7314 15.3028 16.4639C15.5198 15.3731 16.373 14.5198 17.4639 14.3028C17.7313 14.2496 18.0342 14.2498 18.4268 14.25H18.5733C18.9657 14.2498 19.2688 14.2497 19.5362 14.3028C20.6271 14.5198 21.4804 15.3731 21.6973 16.4639C21.7505 16.7314 21.7502 17.0342 21.75 17.4268V19.5733C21.7502 19.9659 21.7505 20.2688 21.6973 20.5362C21.4804 21.6271 20.6271 22.4803 19.5362 22.6973C19.2688 22.7504 18.9657 22.7502 18.5733 22.75H18.4268C18.0342 22.7502 17.7313 22.7504 17.4639 22.6973C16.373 22.4803 15.5198 21.6271 15.3028 20.5362C15.2496 20.2688 15.2498 19.9658 15.25 19.5733V19.25H8.75002V19.5733C8.75022 19.9658 8.75042 20.2687 8.69729 20.5362C8.48029 21.6271 7.62706 22.4803 6.53616 22.6973C6.26876 22.7504 5.96578 22.7502 5.57327 22.75H5.42678C5.03422 22.7502 4.73131 22.7504 4.46389 22.6973C3.37299 22.4803 2.51975 21.6271 2.30276 20.5362C2.24963 20.2688 2.24983 19.9659 2.25002 19.5733V17.4268C2.24983 17.0342 2.24962 16.7314 2.30276 16.4639C2.51975 15.3731 3.37299 14.5198 4.46389 14.3028C4.7313 14.2496 5.03423 14.2498 5.42678 14.25H5.57327ZM5.50002 15.75C4.99947 15.75 4.85837 15.754 4.75588 15.7744C4.26035 15.8731 3.87319 16.2603 3.77444 16.7559C3.75406 16.8584 3.75002 16.9994 3.75002 17.5V19.5C3.75002 20.0007 3.75406 20.1417 3.77444 20.2442C3.87314 20.7398 4.26031 21.1269 4.75588 21.2256C4.85837 21.246 4.99947 21.25 5.50002 21.25C6.00062 21.25 6.14167 21.246 6.24416 21.2256C6.73979 21.1269 7.12689 20.7398 7.22561 20.2442C7.24599 20.1417 7.25002 20.0007 7.25002 19.5V17.5C7.25002 16.9994 7.24599 16.8584 7.22561 16.7559C7.12684 16.2603 6.73976 15.8731 6.24416 15.7744C6.14167 15.754 6.00062 15.75 5.50002 15.75ZM18.5 15.75C17.9995 15.75 17.8584 15.754 17.7559 15.7744C17.2604 15.8731 16.8731 16.2603 16.7744 16.7559C16.754 16.8584 16.75 16.9994 16.75 17.5V19.5C16.75 20.0007 16.754 20.1417 16.7744 20.2442C16.8731 20.7398 17.2604 21.1269 17.7559 21.2256C17.8584 21.246 17.9995 21.25 18.5 21.25C19.0006 21.25 19.1418 21.246 19.2442 21.2256C19.7399 21.1269 20.1279 20.7399 20.2266 20.2442C20.247 20.1417 20.25 20.0007 20.25 19.5V17.5C20.25 16.9994 20.247 16.8584 20.2266 16.7559C20.1278 16.2602 19.7398 15.8731 19.2442 15.7744C19.1418 15.754 19.0006 15.75 18.5 15.75ZM13.4697 9.46975C13.7625 9.17687 14.2374 9.17691 14.5303 9.46975C14.8232 9.76263 14.8232 10.2374 14.5303 10.5303L13.0606 12L14.5303 13.4697C14.8232 13.7626 14.8232 14.2374 14.5303 14.5303C14.2374 14.8232 13.7625 14.8232 13.4697 14.5303L12 13.0606L10.5303 14.5303C10.2374 14.8232 9.76264 14.8232 9.46975 14.5303C9.17694 14.2374 9.17689 13.7626 9.46975 13.4697L10.9395 12L9.46975 10.5303C9.17693 10.2374 9.17688 9.76261 9.46975 9.46975C9.76262 9.17687 10.2374 9.17691 10.5303 9.46975L12 10.9395L13.4697 9.46975ZM5.57327 1.25002C5.96577 1.24983 6.26877 1.24964 6.53616 1.30276C7.62706 1.51975 8.48029 2.37299 8.69729 3.46389C8.75044 3.73131 8.75022 4.03422 8.75002 4.42678V4.75002H15.25V4.42678C15.2498 4.03423 15.2496 3.73131 15.3028 3.46389C15.5198 2.37299 16.373 1.51975 17.4639 1.30276C17.7313 1.24961 18.0342 1.24983 18.4268 1.25002H18.5733C18.9657 1.24983 19.2688 1.24964 19.5362 1.30276C20.6271 1.51975 21.4804 2.37299 21.6973 3.46389C21.7505 3.73131 21.7502 4.03422 21.75 4.42678V6.57327C21.7502 6.96577 21.7505 7.26876 21.6973 7.53616C21.4804 8.62706 20.6271 9.48029 19.5362 9.69729C19.2688 9.75041 18.9657 9.75022 18.5733 9.75002H18.4268C18.0342 9.75022 17.7313 9.75044 17.4639 9.69729C16.373 9.48029 15.5198 8.62705 15.3028 7.53616C15.2496 7.26876 15.2498 6.96577 15.25 6.57327V6.25002H12.75V8.00002C12.75 8.41423 12.4142 8.75002 12 8.75002C11.5859 8.74998 11.25 8.4142 11.25 8.00002V6.25002H8.75002V6.57327C8.75022 6.96579 8.75041 7.26876 8.69729 7.53616C8.48029 8.62706 7.62706 9.48029 6.53616 9.69729C6.26876 9.75041 5.96579 9.75022 5.57327 9.75002H5.42678C5.03421 9.75022 4.73131 9.75044 4.46389 9.69729C3.37299 9.48029 2.51975 8.62705 2.30276 7.53616C2.24964 7.26876 2.24983 6.96577 2.25002 6.57327V4.42678C2.24983 4.03423 2.24961 3.7313 2.30276 3.46389C2.51975 2.37299 3.37299 1.51975 4.46389 1.30276C4.7313 1.24961 5.03422 1.24983 5.42678 1.25002H5.57327ZM5.50002 2.75002C4.99947 2.75002 4.85837 2.75405 4.75588 2.77444C4.26034 2.87317 3.87318 3.26034 3.77444 3.75588C3.75406 3.85837 3.75002 3.99947 3.75002 4.50002V6.50002C3.75002 7.00062 3.75406 7.14167 3.77444 7.24416C3.87313 7.73976 4.26031 8.12686 4.75588 8.22561C4.85837 8.24599 4.99947 8.25002 5.50002 8.25002C6.00062 8.25002 6.14167 8.24599 6.24416 8.22561C6.73979 8.12691 7.1269 7.73979 7.22561 7.24416C7.24599 7.14167 7.25002 7.00062 7.25002 6.50002V4.50002C7.25002 3.99947 7.24599 3.85837 7.22561 3.75588C7.12685 3.26031 6.73976 2.87312 6.24416 2.77444C6.14167 2.75405 6.00062 2.75002 5.50002 2.75002ZM18.5 2.75002C17.9995 2.75002 17.8584 2.75405 17.7559 2.77444C17.2604 2.87316 16.8731 3.26034 16.7744 3.75588C16.754 3.85837 16.75 3.99947 16.75 4.50002V6.50002C16.75 7.00062 16.754 7.14167 16.7744 7.24416C16.8731 7.73976 17.2604 8.12687 17.7559 8.22561C17.8584 8.24599 17.9995 8.25002 18.5 8.25002C19.0006 8.25002 19.1418 8.24599 19.2442 8.22561C19.7399 8.12688 20.1279 7.73986 20.2266 7.24416C20.247 7.14167 20.25 7.00062 20.25 6.50002V4.50002C20.25 3.99947 20.247 3.85837 20.2266 3.75588C20.1278 3.26024 19.7398 2.87315 19.2442 2.77444C19.1418 2.75405 19.0006 2.75002 18.5 2.75002Z" fill="#48465C"/>
</svg>
