<svg width="24" height="24" viewBox="0 0 24 24" fill="none" xmlns="http://www.w3.org/2000/svg">
<path d="M4.5698 17.8662C5.25663 16.7924 6.72726 16.8271 7.4575 17.7617C8.44746 19.029 9.82916 20.2499 11.9995 20.25C14.2079 20.25 15.5692 19.2716 16.5044 18.0215C17.2244 17.0591 18.7905 16.9017 19.5454 18.0439C20.1704 18.9894 20.8483 19.7311 22.1714 20.043C22.5744 20.1379 22.8248 20.5412 22.73 20.9443C22.635 21.3475 22.2308 21.5979 21.8276 21.5029C19.976 21.0666 19.0205 19.9696 18.2944 18.8711C18.2374 18.785 18.1515 18.7411 18.0405 18.7432C17.9219 18.7454 17.7929 18.8031 17.7055 18.9199C16.5379 20.4807 14.7596 21.75 11.9995 21.75C9.15711 21.7499 7.38796 20.1103 6.27488 18.6855C6.20326 18.5939 6.11015 18.5589 6.02976 18.5605C5.95395 18.5622 5.88422 18.5947 5.83347 18.6738C5.09398 19.8299 4.13846 21.0394 2.17136 21.5029C1.76835 21.5976 1.36496 21.3474 1.27 20.9443C1.17515 20.5413 1.42465 20.1381 1.82761 20.043C3.2285 19.7129 3.90754 18.9015 4.5698 17.8662ZM6.93015 4.06934C7.50966 3.48987 8.45814 3.51943 9.00046 4.13379L15.4995 11.5L16.6733 12.8252C17.4466 12.0426 18.845 11.9842 19.5454 13.0439C20.1703 13.9893 20.8485 14.7302 22.1714 15.042C22.5744 15.137 22.8249 15.5412 22.73 15.9443C22.635 16.3475 22.2308 16.597 21.8276 16.502C19.9759 16.0655 19.0205 14.9688 18.2944 13.8701C18.2374 13.7841 18.1514 13.7411 18.0405 13.7432C17.9219 13.7454 17.7929 13.8031 17.7055 13.9199C16.5379 15.4806 14.7595 16.75 11.9995 16.75C9.15711 16.7499 7.38796 15.1103 6.27488 13.6855C6.20325 13.5938 6.11019 13.5589 6.02976 13.5605C5.95389 13.5622 5.88423 13.5946 5.83347 13.6738C5.09398 14.8299 4.13846 16.0385 2.17136 16.502C1.7683 16.5967 1.36497 16.3474 1.27 15.9443C1.175 15.5412 1.42448 15.137 1.82761 15.042C3.22856 14.7119 3.90751 13.9006 4.5698 12.8652C4.69097 12.6759 4.83697 12.5209 4.99851 12.3994L7.47703 9.41406C7.47703 9.41406 8.44837 7.85661 7.84421 7.15137L6.85593 5.99902C6.37282 5.43526 6.40515 4.59434 6.93015 4.06934ZM16.9995 3C18.3803 3 19.4995 4.11929 19.4995 5.5C19.4995 6.88071 18.3803 8 16.9995 8C15.6189 7.99986 14.4995 6.88063 14.4995 5.5C14.4995 4.11937 15.6189 3.00014 16.9995 3Z" fill="#48465C"/>
</svg>
