<svg width="24" height="24" viewBox="0 0 24 24" fill="none" xmlns="http://www.w3.org/2000/svg">
<path d="M4.56976 17.8652C5.25663 16.7917 6.72725 16.8272 7.45746 17.7617C8.44746 19.029 9.8299 20.25 12.0004 20.25C14.2089 20.2499 15.57 19.2708 16.5053 18.0205C17.2253 17.0584 18.7905 16.9019 19.5453 18.0439C20.1703 18.9895 20.849 19.7302 22.1723 20.042C22.5755 20.137 22.8249 20.5411 22.7299 20.9443C22.6349 21.3475 22.2316 21.5968 21.8286 21.502C19.9766 21.0656 19.0206 19.9688 18.2944 18.8701C18.2375 18.7842 18.1514 18.7411 18.0405 18.7432C17.922 18.7455 17.7937 18.8033 17.7065 18.9199C16.5388 20.4807 14.7604 21.7499 12.0004 21.75C9.15799 21.75 7.38894 20.1103 6.27582 18.6855C6.20409 18.5936 6.11023 18.5588 6.02972 18.5605C5.95384 18.5623 5.88418 18.5945 5.83344 18.6738C5.09397 19.8299 4.13926 21.0384 2.1723 21.502C1.76913 21.597 1.36496 21.3475 1.26996 20.9443C1.17503 20.5412 1.42542 20.137 1.82855 20.042C3.22918 19.7118 3.90755 18.9005 4.56976 17.8652ZM4.56976 12.8652C5.25663 11.7917 6.72725 11.8272 7.45746 12.7617C8.44746 14.029 9.8299 15.25 12.0004 15.25C14.2089 15.2499 15.57 14.2708 16.5053 13.0205C17.2253 12.0584 18.7905 11.9019 19.5453 13.0439C20.1703 13.9895 20.849 14.7302 22.1723 15.042C22.5755 15.137 22.8249 15.5411 22.7299 15.9443C22.6349 16.3475 22.2316 16.5968 21.8286 16.502C19.9766 16.0656 19.0206 14.9688 18.2944 13.8701C18.2375 13.7842 18.1514 13.7411 18.0405 13.7432C17.922 13.7455 17.7937 13.8033 17.7065 13.9199C16.5388 15.4807 14.7604 16.7499 12.0004 16.75C9.15799 16.75 7.38894 15.1103 6.27582 13.6855C6.20409 13.5936 6.11023 13.5588 6.02972 13.5605C5.95384 13.5623 5.88418 13.5945 5.83344 13.6738C5.09397 14.8299 4.13926 16.0384 2.1723 16.502C1.76913 16.597 1.36496 16.3475 1.26996 15.9443C1.17503 15.5412 1.42542 15.137 1.82855 15.042C3.22918 14.7118 3.90755 13.9005 4.56976 12.8652ZM6.39984 3.53906C7.28522 2.65369 8.73435 2.69901 9.56293 3.6377L16.0629 11.0039C16.3367 11.3145 16.307 11.7885 15.9965 12.0625C15.6859 12.3365 15.212 12.3067 14.9379 11.9961L8.4389 4.63086C8.18294 4.34077 7.73507 4.32628 7.46137 4.59961C7.21345 4.84752 7.19806 5.24454 7.42621 5.51074L8.41351 6.66309C9.32016 7.72085 9.05734 9.33983 7.86273 10.0566L4.38617 12.1436C4.03099 12.3566 3.56996 12.2409 3.35687 11.8857C3.14392 11.5306 3.25957 11.0695 3.61469 10.8564L7.09125 8.77051C7.48932 8.53158 7.57693 7.9922 7.27484 7.63965L6.28754 6.4873C5.54932 5.62605 5.59783 4.34122 6.39984 3.53906ZM17.0004 2.25C18.7952 2.25013 20.2504 3.70515 20.2504 5.5C20.2504 7.29485 18.7952 8.74987 17.0004 8.75C15.2055 8.75 13.7504 7.29493 13.7504 5.5C13.7504 3.70507 15.2055 2.25 17.0004 2.25ZM17.0004 3.75C16.0339 3.75 15.2504 4.5335 15.2504 5.5C15.2504 6.4665 16.0339 7.25 17.0004 7.25C17.9668 7.24987 18.7504 6.46642 18.7504 5.5C18.7504 4.53358 17.9668 3.75013 17.0004 3.75Z" fill="#48465C"/>
</svg>
