<svg width="24" height="24" viewBox="0 0 24 24" fill="none" xmlns="http://www.w3.org/2000/svg">
<path fill-rule="evenodd" clip-rule="evenodd" d="M4.56966 17.8652C5.2565 16.7917 6.72712 16.8273 7.45736 17.7617C8.44735 19.029 9.82979 20.25 12.0003 20.25C14.2088 20.25 15.5699 19.2708 16.5052 18.0205C17.2252 17.0583 18.7914 16.9019 19.5462 18.0439C20.1711 18.9893 20.8491 19.7302 22.1722 20.042C22.5754 20.137 22.8248 20.5411 22.7298 20.9443C22.6348 21.3475 22.2315 21.5968 21.8284 21.502C19.9764 21.0656 19.0205 19.9688 18.2943 18.8701C18.2374 18.7843 18.152 18.7412 18.0413 18.7432C17.9227 18.7454 17.7937 18.8031 17.7064 18.9199C16.5387 20.4807 14.7603 21.75 12.0003 21.75C9.15786 21.75 7.38883 20.1103 6.27571 18.6855C6.20398 18.5936 6.11013 18.5588 6.02962 18.5605C5.95377 18.5623 5.88406 18.5945 5.83333 18.6738C5.09386 19.8299 4.13921 21.0384 2.1722 21.502C1.76903 21.597 1.36486 21.3475 1.26986 20.9443C1.17494 20.5412 1.42532 20.137 1.82845 20.042C3.22915 19.7118 3.90743 18.9005 4.56966 17.8652ZM4.56966 12.8652C5.2565 11.7917 6.72712 11.8273 7.45736 12.7617C8.44735 14.029 9.82979 15.25 12.0003 15.25C14.2088 15.25 15.5699 14.2708 16.5052 13.0205C17.2252 12.0583 18.7914 11.9018 19.5462 13.0439C20.1711 13.9893 20.8491 14.7302 22.1722 15.042C22.5754 15.137 22.8248 15.5411 22.7298 15.9443C22.6348 16.3475 22.2315 16.5969 21.8284 16.502C19.9764 16.0656 19.0205 14.9688 18.2943 13.8701C18.2374 13.7843 18.152 13.7412 18.0413 13.7432C17.9227 13.7454 17.7937 13.8031 17.7064 13.9199C16.5387 15.4807 14.7603 16.75 12.0003 16.75C9.15786 16.75 7.38883 15.1103 6.27571 13.6855C6.20398 13.5936 6.11013 13.5588 6.02962 13.5605C5.95377 13.5623 5.88406 13.5945 5.83333 13.6738C5.09386 14.8299 4.13921 16.0384 2.1722 16.502C1.76903 16.597 1.36486 16.3475 1.26986 15.9443C1.17494 15.5412 1.42532 15.137 1.82845 15.042C3.22915 14.7118 3.90743 13.9005 4.56966 12.8652ZM6.40071 3.53906C7.2861 2.65399 8.73433 2.69916 9.56282 3.6377L16.0628 11.0039C16.3367 11.3145 16.307 11.7885 15.9964 12.0625C15.6858 12.3365 15.2119 12.3067 14.9378 11.9961L8.4388 4.63086C8.18282 4.34075 7.73496 4.32623 7.46126 4.59961C7.21336 4.84751 7.198 5.24454 7.42611 5.51074L8.41341 6.66309C9.32006 7.72085 9.05724 9.33983 7.86263 10.0566L4.38607 12.1436C4.0309 12.3565 3.56984 12.2409 3.35677 11.8857C3.14385 11.5306 3.25948 11.0695 3.61458 10.8564L7.09114 8.77051C7.4893 8.53159 7.57689 7.99222 7.27474 7.63965L6.28743 6.4873C5.54916 5.62599 5.59855 4.34121 6.40071 3.53906ZM17.0003 2.25C18.7952 2.25008 20.2503 3.70512 20.2503 5.5C20.2503 7.29488 18.7952 8.74992 17.0003 8.75C15.2054 8.75 13.7503 7.29493 13.7503 5.5C13.7503 3.70507 15.2054 2.25 17.0003 2.25ZM17.0003 3.75C16.0338 3.75 15.2503 4.5335 15.2503 5.5C15.2503 6.4665 16.0338 7.25 17.0003 7.25C17.9668 7.24992 18.7503 6.46645 18.7503 5.5C18.7503 4.53355 17.9668 3.75008 17.0003 3.75Z" fill="#48465C"/>
</svg>
