<svg width="24" height="24" viewBox="0 0 24 24" fill="none" xmlns="http://www.w3.org/2000/svg">
<path d="M16.6906 14.7893L15.5373 15.9426L12.5695 12.9748C12.2683 12.6738 11.7797 12.6736 11.4787 12.9748C11.1775 13.2759 11.1777 13.7644 11.4787 14.0656L14.4464 17.0334L13.8546 17.6262L12.1613 15.9328C11.86 15.6319 11.3717 15.6317 11.0705 15.9328C10.7694 16.234 10.7696 16.7223 11.0705 17.0236L12.6916 18.6457C10.846 19.8795 8.39559 19.8277 6.60073 18.4904L4.31655 20.7736C4.0153 21.0748 3.52699 21.0748 3.22573 20.7736C2.92487 20.4723 2.92465 19.9839 3.22573 19.6828L5.50991 17.3996C3.96703 15.3285 4.1356 12.3845 6.01577 10.5041L9.21011 7.30879L16.6906 14.7893ZM16.6916 3.22578C16.9928 2.92486 17.4813 2.92462 17.7824 3.22578L20.7746 6.21797C21.0756 6.5191 21.0753 7.0075 20.7746 7.30879C20.4733 7.61005 19.9841 7.61005 19.6828 7.30879L18.7326 6.35859L17.0333 8.05683L17.9015 8.925C18.6766 9.70006 19.0644 10.0878 19.2248 10.5285C19.3948 10.996 19.3948 11.5085 19.2248 11.9758C19.0644 12.4166 18.6766 12.8042 17.9015 13.5793L17.7814 13.6984L10.3009 6.21797L10.421 6.09883C11.1962 5.32363 11.5838 4.93601 12.0246 4.77558C12.4919 4.60547 13.0043 4.60546 13.4718 4.77558C13.9125 4.93603 14.3002 5.32363 15.0753 6.09883L15.9425 6.96601L17.6417 5.26777L16.6916 4.3166C16.3903 4.01533 16.3903 3.52704 16.6916 3.22578Z" fill="#48465C"/>
</svg>
