<svg width="24" height="24" viewBox="0 0 24 24" fill="none" xmlns="http://www.w3.org/2000/svg">
<path fill-rule="evenodd" clip-rule="evenodd" d="M16.6911 14.7899L15.5378 15.9432L12.57 12.9755C12.2688 12.6742 11.7804 12.6742 11.4792 12.9755C11.178 13.2767 11.1779 13.7651 11.4792 14.0663L14.447 17.0341L13.8542 17.6259L12.1618 15.9325C11.8606 15.6316 11.3723 15.6317 11.071 15.9325C10.7698 16.2338 10.7698 16.723 11.071 17.0243L12.6921 18.6454C10.8464 19.8796 8.39533 19.8276 6.60029 18.4901L4.31708 20.7743C4.01592 21.0753 3.52753 21.0752 3.22626 20.7743C2.92504 20.473 2.9251 19.9847 3.22626 19.6835L5.50947 17.3993C3.96665 15.3282 4.13521 12.3842 6.01532 10.5038L9.21064 7.30945L16.6911 14.7899ZM16.6911 3.22644C16.9923 2.92517 17.4807 2.92517 17.7819 3.22644L20.7741 6.21863C21.0751 6.5199 21.0752 7.00825 20.7741 7.30945C20.4729 7.6105 19.9846 7.61045 19.6833 7.30945L18.7321 6.35828L17.0339 8.0575L17.9011 8.92468C18.6762 9.69981 19.0639 10.0875 19.2243 10.5282C19.3944 10.9957 19.3944 11.5081 19.2243 11.9755C19.0639 12.4163 18.6762 12.8038 17.9011 13.579L17.7819 13.6991L10.3015 6.21863L10.4206 6.09851C11.1957 5.32341 11.5834 4.93574 12.0241 4.77527C12.4914 4.60518 13.004 4.60527 13.4714 4.77527C13.912 4.93568 14.2999 5.32347 15.0749 6.09851L15.9431 6.96668L17.6413 5.26746L16.6911 4.31726C16.3899 4.01605 16.39 3.52772 16.6911 3.22644Z" fill="#48465C"/>
</svg>
