<svg width="24" height="24" viewBox="0 0 24 24" fill="none" xmlns="http://www.w3.org/2000/svg">
<path fill-rule="evenodd" clip-rule="evenodd" d="M16.5605 3.46967C16.8534 3.17678 17.3281 3.17678 17.621 3.46967L20.5302 6.37885C20.823 6.67175 20.8231 7.14655 20.5302 7.43939C20.2373 7.73222 19.7626 7.73218 19.4697 7.43939L18.5458 6.51557L17.4238 7.63666L18.288 8.49994C18.6477 8.85962 18.9474 9.15922 19.1738 9.42279C19.4096 9.69715 19.6066 9.97781 19.7285 10.3124C19.9541 10.9325 19.9541 11.6122 19.7285 12.2324C19.6066 12.5669 19.4095 12.8477 19.1738 13.122C18.9473 13.3857 18.6478 13.6861 18.288 14.0458L17.622 14.7119L17.6201 14.7128L13.9843 18.3486C13.9395 18.3934 13.8944 18.4374 13.8486 18.4804C13.8342 18.4975 13.8187 18.5141 13.8027 18.5302C13.7686 18.5642 13.7326 18.5949 13.6943 18.621C11.568 20.4812 8.42299 20.556 6.21478 18.8456L4.53021 20.5302C4.23735 20.8231 3.76256 20.823 3.46967 20.5302C3.17678 20.2373 3.17678 19.7626 3.46967 19.4697L5.15424 17.7841C3.36428 15.4729 3.52989 12.1361 5.65131 10.0146L9.95404 5.71185C10.3137 5.35211 10.6133 5.05261 10.8769 4.82611C11.1513 4.59028 11.4328 4.39326 11.7675 4.27143C12.3876 4.04582 13.0674 4.04574 13.6874 4.27143C14.0221 4.39326 14.3027 4.59037 14.5771 4.82611C14.8407 5.0526 15.1402 5.35211 15.4999 5.71185L16.3632 6.57514L17.4843 5.45404L16.5605 4.53021C16.2676 4.23734 16.2676 3.76256 16.5605 3.46967ZM6.71185 11.0761C4.99674 12.7915 4.99654 15.5726 6.71185 17.288C8.18221 18.7583 10.4358 18.9682 12.1298 17.9179L11.0966 16.8847C10.8037 16.5918 10.8037 16.1161 11.0966 15.8232C11.3895 15.5306 11.8644 15.5305 12.1572 15.8232L13.2724 16.9394L13.8486 16.3632L11.4931 14.0087C11.2003 13.7159 11.2005 13.2411 11.4931 12.9482C11.786 12.6553 12.2608 12.6553 12.5537 12.9482L14.9091 15.3027L16.0302 14.1816L9.8183 7.96967L6.71185 11.0761ZM13.1738 5.6806C12.8851 5.57567 12.5688 5.57561 12.2802 5.6806C12.1864 5.71474 12.0639 5.7838 11.8544 5.96381C11.639 6.14891 11.3799 6.40807 10.9951 6.79291L10.8788 6.90912L17.0908 13.121L17.207 13.0048C17.5919 12.62 17.851 12.3609 18.0361 12.1454C18.2161 11.9359 18.2852 11.8135 18.3193 11.7197C18.4243 11.4309 18.4244 11.1139 18.3193 10.8251C18.2852 10.7314 18.2157 10.6096 18.0361 10.4003C17.851 10.1849 17.592 9.92491 17.207 9.53998L14.4599 6.79291C14.0749 6.40797 13.8149 6.14893 13.5996 5.96381C13.39 5.78385 13.2676 5.71473 13.1738 5.6806Z" fill="#48465C"/>
</svg>
