<svg width="24" height="24" viewBox="0 0 24 24" fill="none" xmlns="http://www.w3.org/2000/svg">
<path d="M16.5605 3.46967C16.8534 3.17678 17.3282 3.17678 17.6211 3.46967L20.5303 6.37885C20.823 6.67175 20.8231 7.14655 20.5303 7.43939C20.2374 7.73222 19.7626 7.73218 19.4697 7.43939L18.5459 6.51557L17.4238 7.63666L18.2881 8.49994C18.6477 8.85963 18.9474 9.15922 19.1738 9.42279C19.4096 9.69715 19.6066 9.97781 19.7285 10.3124C19.9542 10.9325 19.9541 11.6122 19.7285 12.2324C19.6067 12.5669 19.4096 12.8477 19.1738 13.122C18.9473 13.3857 18.6478 13.6861 18.2881 14.0458L17.6221 14.7119L17.6201 14.7128L13.9844 18.3486C13.9396 18.3934 13.8944 18.4374 13.8486 18.4804C13.8342 18.4975 13.8187 18.5141 13.8027 18.5302C13.7687 18.5642 13.7327 18.5949 13.6943 18.621C11.568 20.4812 8.42305 20.556 6.21485 18.8456L4.53028 20.5302C4.23741 20.8231 3.76262 20.823 3.46973 20.5302C3.17684 20.2373 3.17684 19.7626 3.46973 19.4697L5.1543 17.7841C3.36434 15.4729 3.52995 12.1361 5.65137 10.0146L9.9541 5.71186C10.3138 5.35211 10.6133 5.05261 10.877 4.82611C11.1514 4.59028 11.4329 4.39326 11.7676 4.27143C12.3877 4.04582 13.0675 4.04574 13.6875 4.27143C14.0221 4.39326 14.3027 4.59037 14.5772 4.82611C14.8408 5.0526 15.1402 5.35211 15.5 5.71186L16.3633 6.57514L17.4844 5.45404L16.5605 4.53021C16.2677 4.23734 16.2677 3.76256 16.5605 3.46967ZM6.71192 11.0761C4.99681 12.7915 4.9966 15.5726 6.71192 17.288C8.18227 18.7583 10.4359 18.9682 12.1299 17.9179L11.0967 16.8847C10.8038 16.5918 10.8038 16.1161 11.0967 15.8232C11.3896 15.5306 11.8644 15.5305 12.1572 15.8232L13.2725 16.9394L13.8486 16.3632L11.4932 14.0087C11.2004 13.7159 11.2006 13.2411 11.4932 12.9482C11.7861 12.6553 12.2608 12.6553 12.5537 12.9482L14.9092 15.3027L16.0303 14.1816L9.81836 7.96967L6.71192 11.0761ZM13.1738 5.68061C12.8852 5.57567 12.5689 5.57561 12.2803 5.68061C12.1865 5.71474 12.064 5.7838 11.8545 5.96381C11.639 6.14891 11.3799 6.40807 10.9951 6.79291L10.8789 6.90912L17.0908 13.121L17.207 13.0048C17.5919 12.62 17.8511 12.3609 18.0361 12.1454C18.2161 11.9359 18.2852 11.8135 18.3193 11.7197C18.4244 11.4309 18.4244 11.1139 18.3193 10.8251C18.2852 10.7314 18.2158 10.6096 18.0361 10.4003C17.851 10.1849 17.592 9.92491 17.207 9.53998L14.46 6.79291C14.075 6.40797 13.815 6.14893 13.5996 5.96381C13.3901 5.78385 13.2676 5.71473 13.1738 5.68061Z" fill="#48465C"/>
</svg>
