<svg width="24" height="24" viewBox="0 0 24 24" fill="none" xmlns="http://www.w3.org/2000/svg">
<path d="M15.9658 2.07139C16.4956 1.93206 17.0561 1.99597 17.5332 2.27549C18.043 2.5742 18.7093 2.98755 19.1807 3.36533C19.3162 3.47399 19.457 3.59669 19.5987 3.72764C20.5354 4.59331 21.004 5.02665 21 5.71592C20.996 6.40527 20.4675 6.88162 19.4112 7.83408L19.2266 8.00108C18.7332 8.44598 18.4859 8.66843 18.3545 8.96885C18.2231 9.26933 18.2237 9.61152 18.2237 10.295V18.2647C18.2237 19.5878 18.2232 20.2497 17.7744 20.8116C17.3256 21.3735 16.7888 21.4727 15.7158 21.67C14.724 21.8525 13.4673 22.0001 12 22.0001C10.5327 22.0001 9.27605 21.8525 8.2842 21.67C7.21124 21.4727 6.67448 21.3736 6.22561 20.8116C5.77673 20.2497 5.77639 19.5878 5.77639 18.2647V10.295C5.77639 9.61152 5.7769 9.26933 5.64553 8.96885C5.51412 8.66844 5.26684 8.44597 4.77346 8.00108L4.58791 7.83408C3.53186 6.88179 3.00399 6.40521 3.00002 5.71592C2.99611 5.02665 3.46462 4.59331 4.40139 3.72764C4.54311 3.59668 4.68381 3.474 4.81936 3.36533C5.29074 2.98754 5.95697 2.57421 6.46682 2.27549C6.94394 1.99596 7.50438 1.93209 8.0342 2.07139L8.52444 2.2003C8.91248 2.30235 9.25077 2.55235 9.47268 2.90244C10.675 4.79981 13.3251 4.79981 14.5274 2.90244C14.7493 2.55236 15.0876 2.30236 15.4756 2.2003L15.9658 2.07139Z" fill="#48465C"/>
</svg>
