<svg width="24" height="24" viewBox="0 0 24 24" fill="none" xmlns="http://www.w3.org/2000/svg">
<path d="M15.7744 1.34601C16.4857 1.15895 17.2532 1.24231 17.9121 1.62824C18.4263 1.92947 19.1327 2.36641 19.6494 2.78058C19.8018 2.9027 19.9561 3.03728 20.1074 3.17707L20.1484 3.21515C20.582 3.61571 20.9735 3.97743 21.2461 4.33039C21.5541 4.72933 21.7531 5.16871 21.75 5.72101C21.7466 6.2925 21.5129 6.74463 21.1816 7.1507C20.8804 7.51995 20.4478 7.90976 19.9541 8.3548L19.7285 8.55793C19.1865 9.04667 19.0937 9.15169 19.042 9.26984C18.9882 9.39294 18.9736 9.54565 18.9736 10.2952V18.3118C18.9737 18.9333 18.9736 19.4747 18.9102 19.928C18.8406 20.4247 18.6895 20.8676 18.3604 21.2796C17.7343 22.0635 16.9319 22.2104 15.9805 22.3841C15.938 22.3919 15.8947 22.3996 15.8516 22.4075C14.8199 22.5973 13.5178 22.7503 12 22.7503C10.4822 22.7503 9.18007 22.5973 8.14844 22.4075C8.10528 22.3996 8.0621 22.3919 8.01954 22.3841C7.06817 22.2104 6.26573 22.0635 5.63966 21.2796C5.31049 20.8676 5.15937 20.4247 5.08985 19.928C5.02643 19.4747 5.02633 18.9333 5.02637 18.3118V10.2952C5.02637 9.54565 5.01183 9.39294 4.95802 9.26984C4.90636 9.15169 4.81345 9.04664 4.27149 8.55793L4.08594 8.39093C4.07257 8.37888 4.05919 8.36678 4.04591 8.3548C3.55229 7.90976 3.1196 7.51994 2.81837 7.1507C2.48711 6.74464 2.25342 6.29247 2.25001 5.72101C2.24682 5.16872 2.44591 4.72932 2.75391 4.33039C3.02649 3.97745 3.41805 3.61568 3.85157 3.21515C3.86504 3.20271 3.87905 3.18959 3.89259 3.17707C4.04388 3.03727 4.19823 2.90271 4.35059 2.78058C4.86739 2.36641 5.57375 1.92947 6.0879 1.62824C6.74684 1.24229 7.51431 1.15894 8.22559 1.34601L8.71583 1.47492C9.29348 1.62699 9.78692 1.9971 10.1065 2.50129C11.0142 3.93388 12.9858 3.93385 13.8936 2.50129C14.2132 1.99696 14.7073 1.62691 15.2852 1.47492L15.7744 1.34601ZM17.1543 2.92316C16.859 2.75013 16.5047 2.70459 16.1563 2.79621L15.666 2.92511C15.4679 2.97728 15.2853 3.10818 15.1611 3.30402C13.6642 5.66611 10.3357 5.66611 8.83887 3.30402C8.71468 3.1082 8.53218 2.97727 8.33399 2.92511L7.84376 2.79621C7.49542 2.7046 7.14103 2.75014 6.84571 2.92316C6.34013 3.21939 5.71396 3.61013 5.28809 3.95148C5.16941 4.04662 5.04221 4.1566 4.91016 4.27863C4.42323 4.7286 4.12774 5.00522 3.94141 5.2464C3.7822 5.45254 3.74922 5.57537 3.75001 5.71222C3.75074 5.82978 3.78303 5.96039 3.98048 6.20246C4.20018 6.47176 4.54496 6.78541 5.09083 7.27765L5.27637 7.44464C5.30397 7.46953 5.33119 7.4944 5.35841 7.51886C5.76988 7.8887 6.1341 8.21649 6.33204 8.66925C6.52792 9.11735 6.52723 9.6119 6.52637 10.181V18.265C6.52637 18.9469 6.528 19.3826 6.5752 19.72C6.61792 20.0252 6.6919 20.1943 6.81153 20.3441C7.05513 20.6489 7.28203 20.7226 8.41993 20.9319C9.37202 21.107 10.5829 21.2503 12 21.2503C13.4171 21.2503 14.628 21.107 15.5801 20.9319C16.718 20.7226 16.945 20.6489 17.1885 20.3441C17.3082 20.1943 17.382 20.0252 17.4248 19.72C17.472 19.3826 17.4736 18.9469 17.4736 18.265V10.181C17.4728 9.61191 17.4721 9.11734 17.668 8.66925C17.866 8.21649 18.2302 7.8887 18.6416 7.51886C18.669 7.49428 18.6969 7.46964 18.7246 7.44464L18.9092 7.27765C19.4551 6.78541 19.7998 6.47176 20.0195 6.20246C20.217 5.96036 20.2493 5.82978 20.25 5.71222C20.2508 5.57537 20.2178 5.45254 20.0586 5.2464C19.8722 5.00522 19.5767 4.72857 19.0899 4.27863C18.9578 4.1566 18.8306 4.04662 18.7119 3.95148C18.286 3.61012 17.6599 3.21939 17.1543 2.92316Z" fill="#48465C"/>
</svg>
