<svg width="24" height="24" viewBox="0 0 24 24" fill="none" xmlns="http://www.w3.org/2000/svg">
<path d="M8.61844 2.57266C10.748 2.08123 11.8132 1.83505 12.8157 2.12247C13.8183 2.41001 14.5915 3.18338 16.137 4.72891L17.9661 6.55801C20.655 9.24687 22.0001 10.5915 22.0003 12.2621C22.0003 13.9328 20.6551 15.2772 17.9661 17.9662C15.2771 20.6552 13.9327 22.0004 12.262 22.0004C10.5914 22.0003 9.24675 20.6551 6.55789 17.9662L4.72879 16.1371C3.18326 14.5916 2.40989 13.8184 2.12235 12.8158C1.83493 11.8133 2.08111 10.7481 2.57254 8.61856L2.85574 7.39102C3.26922 5.59926 3.47567 4.70274 4.08914 4.08926C4.70262 3.47579 5.59913 3.26935 7.3909 2.85587L8.61844 2.57266ZM19.0511 10.9906C18.7582 10.6977 18.2834 10.6977 17.9905 10.9906L11.011 17.9701C10.7185 18.263 10.7182 18.738 11.011 19.0307C11.3038 19.3234 11.7786 19.3232 12.0716 19.0307L19.0511 12.0512C19.3439 11.7583 19.3439 11.2835 19.0511 10.9906ZM10.1233 7.27091C9.33573 6.4834 8.05834 6.48334 7.27078 7.27091C6.48339 8.05847 6.48335 9.33588 7.27078 10.1234C8.05832 10.911 9.33572 10.9109 10.1233 10.1234C10.9109 9.33583 10.9109 8.05849 10.1233 7.27091Z" fill="#48465C"/>
</svg>
