<svg width="24" height="24" viewBox="0 0 24 24" fill="none" xmlns="http://www.w3.org/2000/svg">
<path d="M8.61844 2.57266C10.748 2.08123 11.8132 1.83505 12.8157 2.12247C13.8183 2.41001 14.5915 3.18338 16.137 4.72891L17.9661 6.55801C20.655 9.24687 22.0001 10.5915 22.0003 12.2621C22.0003 13.9328 20.6551 15.2772 17.9661 17.9662C15.2771 20.6552 13.9327 22.0004 12.262 22.0004C10.5914 22.0003 9.24675 20.6551 6.55789 17.9662L4.72879 16.1371C3.18326 14.5916 2.40989 13.8184 2.12235 12.8158C1.83493 11.8133 2.08111 10.7481 2.57254 8.61856L2.85574 7.39102C3.26922 5.59926 3.47567 4.70274 4.08914 4.08926C4.70262 3.47579 5.59913 3.26935 7.3909 2.85587L8.61844 2.57266ZM13.0071 10.6068C12.635 10.6033 12.261 10.6986 11.9212 10.8793C11.6293 10.6808 11.2288 10.7114 10.97 10.9701C10.7103 11.2299 10.6809 11.633 10.8821 11.9252C10.4797 12.6904 10.4738 13.6557 11.1468 14.3285C12.0142 15.1959 13.3676 14.9357 14.1516 14.1518C14.539 13.7643 14.9263 13.8662 15.0354 13.975C15.1442 14.0838 15.2462 14.4712 14.8587 14.8588C14.6134 15.1039 14.3277 15.1619 14.1507 15.1254C13.745 15.0423 13.3482 15.3038 13.2649 15.7094C13.1815 16.1152 13.4432 16.5118 13.8489 16.5951C14.3445 16.697 14.8647 16.6055 15.3216 16.3627C15.6134 16.5614 16.0139 16.5316 16.2727 16.2729C16.5325 16.0131 16.5628 15.61 16.3616 15.3178C16.7639 14.5526 16.7689 13.5873 16.096 12.9145C15.2285 12.0471 13.8752 12.3072 13.0911 13.0912C12.7037 13.4785 12.3163 13.3767 12.2073 13.268C12.0985 13.1591 11.9967 12.7717 12.3841 12.3842C12.5833 12.1849 12.8156 12.1053 12.9925 12.1068C13.4067 12.1107 13.7464 11.7779 13.7503 11.3637C13.754 10.9496 13.4212 10.6108 13.0071 10.6068ZM10.0208 7.46524C9.23969 6.68419 7.97371 6.68419 7.19266 7.46524C6.41176 8.2463 6.41166 9.51239 7.19266 10.2934C7.97366 11.0742 9.23974 11.0742 10.0208 10.2934C10.8017 9.51239 10.8016 8.2463 10.0208 7.46524Z" fill="#48465C"/>
</svg>
