<svg width="24" height="24" viewBox="0 0 24 24" fill="none" xmlns="http://www.w3.org/2000/svg">
<path d="M11.0421 1.31177C11.7592 1.21704 12.3881 1.2197 13.0226 1.40162C13.6571 1.58362 14.1921 1.91478 14.7501 2.37525C15.2895 2.82046 15.8903 3.42161 16.6408 4.17213L18.5373 6.06763C19.8479 7.37818 20.8853 8.41603 21.588 9.33716C22.3111 10.2848 22.75 11.1969 22.7501 12.262C22.7501 13.3273 22.3112 14.24 21.588 15.1878C20.8853 16.1089 19.8479 17.1467 18.5373 18.4573L18.4572 18.5374C17.1466 19.8479 16.1088 20.8854 15.1876 21.5881C14.24 22.3111 13.3278 22.7501 12.2628 22.7503C11.1975 22.7503 10.2849 22.3112 9.33706 21.5881C8.41592 20.8854 7.37808 19.8479 6.06752 18.5374L4.17202 16.6409C3.4215 15.8904 2.82035 15.2897 2.37514 14.7503C1.91465 14.1923 1.5835 13.6574 1.40151 13.0227C1.21956 12.3883 1.21692 11.7593 1.31166 11.0422C1.4033 10.3489 1.59449 9.52072 1.83315 8.48658L2.13393 7.18384C2.3331 6.32073 2.49584 5.61664 2.68862 5.05494C2.88996 4.46832 3.14275 3.97482 3.55873 3.55884C3.97471 3.14286 4.4682 2.89007 5.05483 2.68873C5.61654 2.49595 6.32062 2.33321 7.18373 2.13404L8.48647 1.83326C9.5206 1.59461 10.3488 1.40341 11.0421 1.31177ZM12.6095 2.844C12.2416 2.73848 11.8365 2.72004 11.2384 2.79908C10.6244 2.88023 9.86587 3.05407 8.78725 3.30298L7.55873 3.58619C6.64791 3.79637 6.02029 3.94226 5.54116 4.1067C5.07871 4.26544 4.81771 4.42291 4.62026 4.62037C4.4228 4.81781 4.26533 5.07883 4.10659 5.54127C3.94213 6.02047 3.79631 6.6488 3.58608 7.55982L3.30288 8.78736C3.05397 9.86598 2.88012 10.6245 2.79897 11.2385C2.71992 11.8367 2.73837 12.2417 2.84389 12.6096C2.94944 12.9775 3.14849 13.3301 3.53237 13.7952C3.92662 14.2729 4.47618 14.8239 5.25893 15.6067L7.08803 17.4368C8.44751 18.7963 9.41557 19.7612 10.2472 20.3958C11.0615 21.0169 11.6574 21.2503 12.2628 21.2503C12.868 21.2501 13.4634 21.0168 14.2775 20.3958C15.109 19.7612 16.0764 18.796 17.4357 17.4368C18.7952 16.0773 19.761 15.1093 20.3956 14.2776C21.0168 13.4634 21.2501 12.8674 21.2501 12.262C21.25 11.6568 21.0166 11.0614 20.3956 10.2473C19.761 9.41565 18.7952 8.44763 17.4357 7.08814L15.6066 5.25904C14.8238 4.47629 14.2728 3.92673 13.7951 3.53248C13.3299 3.14863 12.9773 2.94955 12.6095 2.844ZM13.007 10.6067C13.4212 10.6106 13.754 10.9503 13.7501 11.3645C13.7461 11.7784 13.4072 12.1104 12.9933 12.1067C12.8164 12.105 12.5833 12.1847 12.3839 12.384C11.9967 12.7713 12.0984 13.1587 12.2072 13.2678C12.3161 13.3766 12.7035 13.4786 13.091 13.0911C13.8751 12.307 15.2293 12.0468 16.0968 12.9143C16.7697 13.5873 16.7639 14.5535 16.3615 15.3186C16.5624 15.6108 16.5333 16.014 16.2736 16.2737C16.0147 16.5325 15.6133 16.5622 15.3214 16.3635C14.8645 16.6063 14.3444 16.6969 13.8488 16.595C13.4433 16.5116 13.1826 16.1157 13.2658 15.7102C13.349 15.3046 13.7449 15.0432 14.1505 15.1262C14.3276 15.1626 14.6132 15.1038 14.8585 14.8586C15.246 14.4711 15.1441 14.0837 15.0353 13.9749C14.9258 13.8661 14.5385 13.7646 14.1515 14.1516C13.3674 14.9357 12.0141 15.1959 11.1466 14.3284C10.4738 13.6555 10.4795 12.6903 10.882 11.9251C10.6808 11.633 10.7101 11.2298 10.9699 10.97C11.2288 10.7111 11.6301 10.6814 11.922 10.8801C12.2618 10.6996 12.6349 10.6032 13.007 10.6067ZM6.66225 6.93482C7.73619 5.86088 9.47796 5.86088 10.5519 6.93482C11.6255 8.00869 11.6254 9.74965 10.5519 10.8235C9.47796 11.8975 7.73619 11.8975 6.66225 10.8235C5.58861 9.74964 5.58857 8.0087 6.66225 6.93482ZM9.49135 7.99537C9.00319 7.50721 8.21095 7.50721 7.7228 7.99537C7.23491 8.48345 7.23496 9.27483 7.7228 9.76295C8.21095 10.2511 9.00319 10.2511 9.49135 9.76295C9.97912 9.27484 9.97917 8.48344 9.49135 7.99537Z" fill="#48465C"/>
</svg>
