<svg width="24" height="24" viewBox="0 0 24 24" fill="none" xmlns="http://www.w3.org/2000/svg">
<path d="M11.0418 1.31128C11.7589 1.21652 12.3879 1.21926 13.0223 1.40112C13.657 1.58314 14.1919 1.91517 14.7499 2.37573C15.2894 2.82096 15.891 3.42107 16.6415 4.17163L18.537 6.06812C19.8473 7.37843 20.885 8.41566 21.5877 9.33667C22.3108 10.2844 22.7499 11.1972 22.7499 12.2625C22.7498 13.3276 22.3108 14.2395 21.5877 15.1873C20.885 16.1084 19.8475 17.1462 18.537 18.4568L18.4569 18.5369C17.1463 19.8474 16.1085 20.8849 15.1874 21.5876C14.2396 22.3107 13.3277 22.7497 12.2626 22.7498C11.1973 22.7498 10.2845 22.3107 9.33677 21.5876C8.41569 20.8849 7.37771 19.8473 6.06724 18.5369L4.17173 16.6414C3.42118 15.8909 2.82106 15.2893 2.37583 14.7498C1.91527 14.1918 1.58324 13.6569 1.40122 13.0222C1.21936 12.3878 1.21662 11.7588 1.31138 11.0417C1.40302 10.3484 1.59419 9.52033 1.83286 8.48608L2.13364 7.18335C2.33281 6.32024 2.49555 5.61614 2.68833 5.05444C2.88966 4.46789 3.14348 3.97527 3.55943 3.55933C3.97537 3.14338 4.46799 2.88956 5.05454 2.68823C5.61624 2.49545 6.32033 2.33272 7.18345 2.13355L8.48618 1.83276C9.52042 1.59409 10.3485 1.40292 11.0418 1.31128ZM12.6092 2.84351C12.2413 2.73798 11.8363 2.71952 11.2381 2.79858C10.6242 2.87974 9.86551 3.05458 8.78696 3.30347L7.55943 3.58667C6.64848 3.79688 6.02103 3.94273 5.54185 4.10718C5.07922 4.26596 4.81746 4.42237 4.61997 4.61987C4.42247 4.81736 4.26606 5.07912 4.10728 5.54175C3.94283 6.02093 3.79698 6.64838 3.58677 7.55933L3.30357 8.78687C3.05467 9.86541 2.87984 10.6241 2.79868 11.238C2.71962 11.8362 2.73808 12.2412 2.84361 12.6091C2.94914 12.9771 3.148 13.3304 3.53208 13.7957C3.92628 14.2733 4.47609 14.8236 5.25864 15.6062L7.08872 17.4363C8.44806 18.7956 9.41532 19.7607 10.2469 20.3953C11.0613 21.0166 11.6572 21.2498 12.2626 21.2498C12.8679 21.2497 13.4631 21.0163 14.2772 20.3953C15.1089 19.7607 16.0769 18.7958 17.4364 17.4363C18.7959 16.0768 19.7608 15.1088 20.3954 14.2771C21.0164 13.463 21.2498 12.8678 21.2499 12.2625C21.2499 11.6571 21.0167 11.0612 20.3954 10.2468C19.7608 9.41522 18.7957 8.44796 17.4364 7.08862L15.6063 5.25855C14.8237 4.47599 14.2734 3.92619 13.7958 3.53198C13.3305 3.1479 12.9772 2.94904 12.6092 2.84351ZM17.9901 10.99C18.2829 10.6972 18.7577 10.6974 19.0506 10.99C19.3435 11.2829 19.3435 11.7576 19.0506 12.0505L12.0721 19.03C11.7793 19.3229 11.3045 19.3228 11.0116 19.03C10.7187 18.7371 10.7187 18.2624 11.0116 17.9695L17.9901 10.99ZM6.66294 6.93433C7.73689 5.86064 9.47775 5.86049 10.5516 6.93433C11.6255 8.00828 11.6255 9.75 10.5516 10.824C9.47781 11.8975 7.73684 11.8973 6.66294 10.824C5.589 9.75 5.589 8.00828 6.66294 6.93433ZM9.49107 7.99487C9.00299 7.50683 8.21166 7.50697 7.72349 7.99487C7.23535 8.48303 7.23536 9.2743 7.72349 9.76245C8.21165 10.2506 9.00291 10.2506 9.49107 9.76245C9.97897 9.27428 9.97914 8.48295 9.49107 7.99487Z" fill="#48465C"/>
</svg>
