<svg width="24" height="24" viewBox="0 0 24 24" fill="none" xmlns="http://www.w3.org/2000/svg">
<path fill-rule="evenodd" clip-rule="evenodd" d="M11.0418 1.31232C11.7591 1.21752 12.3887 1.22015 13.0233 1.40216C13.6577 1.5842 14.192 1.91541 14.7498 2.37579C15.2893 2.82102 15.8909 3.42112 16.6414 4.17169L18.5369 6.06818C19.8472 7.37848 20.885 8.41573 21.5877 9.33673C22.3108 10.2845 22.7498 11.1972 22.7498 12.2625C22.7498 13.3277 22.3108 14.2396 21.5877 15.1873C20.8849 16.1085 19.8475 17.1463 18.5369 18.4568L18.4568 18.5369C17.1463 19.8475 16.1085 20.8849 15.1873 21.5877C14.2396 22.3108 13.3277 22.7498 12.2625 22.7498C11.1972 22.7498 10.2845 22.3108 9.33673 21.5877C8.41573 20.885 7.37849 19.8472 6.06818 18.5369L4.17169 16.6414C3.42113 15.8909 2.82102 15.2893 2.37579 14.7498C1.91541 14.192 1.5842 13.6577 1.40216 13.0233C1.22015 12.3887 1.21752 11.7591 1.31232 11.0418C1.40396 10.3484 1.59416 9.52035 1.83282 8.48614L2.13361 7.18341C2.33278 6.3203 2.49551 5.6162 2.68829 5.0545C2.88962 4.46798 3.14345 3.97531 3.55939 3.55939C3.97531 3.14345 4.46798 2.88962 5.0545 2.68829C5.6162 2.49551 6.32029 2.33278 7.18341 2.13361L8.48614 1.83282C9.52034 1.59416 10.3484 1.40396 11.0418 1.31232ZM12.6092 2.84357C12.2413 2.73806 11.8362 2.71959 11.2381 2.79864C10.6242 2.8798 9.86621 3.05469 8.7879 3.30353L7.55939 3.58673C6.6484 3.79695 6.021 3.94279 5.54181 4.10724C5.07918 4.26602 4.81742 4.42243 4.61993 4.61993C4.42243 4.81742 4.26602 5.07918 4.10724 5.54181C3.94279 6.021 3.79695 6.6484 3.58673 7.55939L3.30353 8.7879C3.05469 9.86621 2.8798 10.6242 2.79864 11.2381C2.71959 11.8362 2.73806 12.2413 2.84357 12.6092C2.9491 12.9772 3.14795 13.3304 3.53204 13.7957C3.92623 14.2733 4.47604 14.8236 5.25861 15.6063L7.08868 17.4363C8.44801 18.7957 9.41528 19.7607 10.2469 20.3953C11.0613 21.0166 11.6571 21.2498 12.2625 21.2498C12.868 21.2498 13.4639 21.0166 14.2781 20.3953C15.1098 19.7607 16.077 18.7956 17.4363 17.4363C18.7956 16.077 19.7607 15.1098 20.3953 14.2781C21.0166 13.4639 21.2498 12.868 21.2498 12.2625C21.2498 11.6571 21.0166 11.0613 20.3953 10.2469C19.7607 9.41528 18.7957 8.44801 17.4363 7.08868L15.6063 5.25861C14.8236 4.47604 14.2733 3.92623 13.7957 3.53204C13.3304 3.14795 12.9772 2.9491 12.6092 2.84357ZM17.9901 10.9901C18.283 10.6972 18.7587 10.6972 19.0516 10.9901C19.3443 11.2828 19.3441 11.7577 19.0516 12.0506L12.0721 19.0301C11.7792 19.323 11.3044 19.323 11.0115 19.0301C10.7186 18.7372 10.7186 18.2624 11.0115 17.9695L17.9901 10.9901ZM6.6629 6.93439C7.73682 5.86073 9.4777 5.86066 10.5516 6.93439C11.6255 8.00834 11.6255 9.75006 10.5516 10.824C9.47773 11.8976 7.73679 11.8975 6.6629 10.824C5.58896 9.75006 5.58896 8.00834 6.6629 6.93439ZM9.49103 7.99493C9.00294 7.50699 8.21159 7.50707 7.72345 7.99493C7.23534 8.48305 7.23543 9.27435 7.72345 9.76251C8.21161 10.2507 9.00287 10.2507 9.49103 9.76251C9.97893 9.27434 9.9791 8.48301 9.49103 7.99493Z" fill="#48465C"/>
</svg>
