<svg width="24" height="24" viewBox="0 0 24 24" fill="none" xmlns="http://www.w3.org/2000/svg">
<path d="M15.284 10.0004C15.7141 10.0004 15.9296 10.0007 16.1033 10.0316C16.3248 10.071 16.5329 10.1459 16.7215 10.2504H18.9998C21.0709 10.2504 22.7498 11.9293 22.7498 14.0004C22.7497 16.0714 21.0709 17.7504 18.9998 17.7504H16.8348C16.4377 18.6319 15.8119 19.4031 15.0086 19.9759C14.0742 20.6421 12.955 21.0003 11.8074 21.0004H8.19315C7.04552 21.0003 5.92644 20.6421 4.99198 19.9759C3.72379 19.0717 2.89749 17.6733 2.71659 16.1263L2.31522 12.6976C2.26533 12.2708 2.24029 12.0572 2.25077 11.8812C2.30585 10.9581 2.98691 10.1936 3.89725 10.0316C4.07094 10.0007 4.28647 10.0004 4.71659 10.0004H15.284ZM17.7488 11.8812C17.7593 12.0573 17.7352 12.2708 17.6853 12.6976L17.284 16.1263C17.2791 16.1677 17.2741 16.2092 17.2683 16.2504H18.9998C20.2424 16.2504 21.2497 15.2429 21.2498 14.0004C21.2498 12.7578 20.2424 11.7504 18.9998 11.7504H17.7371C17.7426 11.7935 17.7462 11.8372 17.7488 11.8812ZM4.96952 2.97008C5.26237 2.67723 5.73717 2.67731 6.03007 2.97008C6.32296 3.26297 6.32296 3.73774 6.03007 4.03063L5.91483 4.14684C5.67158 4.39009 5.64398 4.77495 5.85038 5.05016C6.50463 5.92254 6.41734 7.14335 5.64628 7.91441L5.53007 8.03063C5.23716 8.32329 4.76233 8.32344 4.46952 8.03063C4.17683 7.7378 4.1769 7.26295 4.46952 6.97008L4.58573 6.85387C4.82892 6.61068 4.85641 6.22574 4.65018 5.95055C3.99598 5.07828 4.08252 3.85739 4.85331 3.08629L4.96952 2.97008ZM14.4695 2.97008C14.7624 2.67722 15.2372 2.67729 15.5301 2.97008C15.823 3.26297 15.823 3.73774 15.5301 4.03063L15.4139 4.14684C15.1709 4.3901 15.1441 4.77506 15.3504 5.05016C16.0046 5.92254 15.9174 7.14335 15.1463 7.91441L15.0301 8.03063C14.7371 8.32331 14.2623 8.32345 13.9695 8.03063C13.6768 7.7378 13.6769 7.26294 13.9695 6.97008L14.0857 6.85387C14.3289 6.61068 14.3564 6.22574 14.1502 5.95055C13.496 5.07829 13.5825 3.85739 14.3533 3.08629L14.4695 2.97008ZM9.4705 1.47008C9.7634 1.17734 10.2382 1.17724 10.531 1.47008C10.8236 1.76294 10.8237 2.23781 10.531 2.53063C10.2716 2.79002 10.2716 3.21069 10.531 3.47008C11.3759 4.31523 11.376 5.68552 10.531 6.53063C10.2382 6.82343 9.76341 6.82326 9.4705 6.53063C9.17761 6.23774 9.17761 5.76297 9.4705 5.47008C9.72964 5.21076 9.72958 4.78998 9.4705 4.53063C8.62532 3.68545 8.62532 2.31526 9.4705 1.47008Z" fill="#48465C"/>
</svg>
