<svg width="24" height="24" viewBox="0 0 24 24" fill="none" xmlns="http://www.w3.org/2000/svg">
<path d="M15.3527 9.25019C15.7154 9.25003 15.994 9.24941 16.2345 9.29218C16.896 9.40989 17.4694 9.75968 17.8742 10.2502H19.0002C21.0712 10.2502 22.7502 11.9291 22.7502 14.0002C22.75 16.0711 21.0711 17.7501 19.0002 17.7502H17.6476C17.2095 18.8798 16.4486 19.8695 15.4435 20.5861C14.382 21.3429 13.1106 21.7502 11.8068 21.7502H8.19352C6.88981 21.7502 5.61834 21.3429 4.5568 20.5861C3.11607 19.5589 2.17635 17.9705 1.97086 16.2131L1.57047 12.7844C1.56779 12.7614 1.56527 12.7383 1.56266 12.716C1.52043 12.356 1.48756 12.0799 1.50211 11.8361C1.57785 10.5669 2.51398 9.51486 3.76578 9.29218C4.00632 9.24941 4.28496 9.25003 4.64762 9.25019H15.3527ZM4.71598 10.7502C4.25253 10.7502 4.12032 10.7524 4.02848 10.7687C3.45958 10.8699 3.03377 11.3483 2.99918 11.925C2.99363 12.0182 3.00687 12.15 3.0607 12.6105L3.46109 16.0383C3.6173 17.3748 4.33138 18.5831 5.42692 19.3644C6.2343 19.94 7.20195 20.2502 8.19352 20.2502H11.8068C12.7984 20.2502 13.765 19.94 14.5724 19.3644C15.3508 18.8094 15.9376 18.0393 16.2677 17.1603C16.2565 17.1087 16.2502 17.0552 16.2502 17.0002C16.2502 16.7939 16.3331 16.6065 16.4679 16.4709C16.498 16.3286 16.5221 16.184 16.5392 16.0383L16.9396 12.6105C16.9935 12.1501 17.0058 12.0182 17.0002 11.925C16.9656 11.3484 16.5407 10.87 15.9718 10.7687C15.8801 10.7524 15.7476 10.7502 15.2843 10.7502H4.71598ZM18.4982 11.8361C18.5128 12.0799 18.4799 12.3561 18.4377 12.716C18.4351 12.7383 18.4325 12.7614 18.4298 12.7844L18.0285 16.2131C18.0271 16.2254 18.0261 16.2379 18.0246 16.2502H19.0002C20.2426 16.2501 21.25 15.2426 21.2502 14.0002C21.2502 12.7576 20.2427 11.7502 19.0002 11.7502H18.4914C18.4941 11.7787 18.4965 11.8073 18.4982 11.8361ZM4.96988 2.96991C5.26278 2.67702 5.73754 2.67702 6.03043 2.96991C6.32313 3.26282 6.32326 3.73764 6.03043 4.03046L5.91422 4.14667C5.67117 4.38991 5.64348 4.77486 5.84977 5.04999C6.50406 5.92238 6.41773 7.14317 5.64664 7.91425L5.53043 8.03046C5.2376 8.32318 4.76277 8.32311 4.46988 8.03046C4.17703 7.7376 4.17709 7.26281 4.46988 6.96991L4.58609 6.8537C4.82934 6.61045 4.85598 6.22461 4.64957 5.9494C3.99577 5.07712 4.08292 3.85706 4.85367 3.08612L4.96988 2.96991ZM14.4699 2.96991C14.7628 2.67702 15.2375 2.67702 15.5304 2.96991C15.8231 3.26282 15.8233 3.73764 15.5304 4.03046L15.4142 4.14667C15.1712 4.38991 15.1435 4.77485 15.3498 5.04999C16.0041 5.92237 15.9177 7.14317 15.1466 7.91425L15.0304 8.03046C14.7376 8.3232 14.2628 8.32313 13.9699 8.03046C13.677 7.73761 13.6771 7.26281 13.9699 6.96991L14.0861 6.8537C14.3293 6.61045 14.356 6.22461 14.1496 5.9494C13.4958 5.07713 13.5829 3.85706 14.3537 3.08612L14.4699 2.96991ZM9.46988 1.46991C9.76278 1.17702 10.2375 1.17702 10.5304 1.46991C10.8232 1.76281 10.8233 2.23761 10.5304 2.53046C10.2712 2.78986 10.2711 3.21058 10.5304 3.46991C11.3755 4.3151 11.3756 5.68532 10.5304 6.53046C10.2376 6.82312 9.76273 6.82316 9.46988 6.53046C9.17705 6.23763 9.17717 5.76282 9.46988 5.46991C9.72924 5.21057 9.72915 4.78986 9.46988 4.53046C8.62477 3.68534 8.62489 2.31511 9.46988 1.46991Z" fill="#48465C"/>
</svg>
