<svg width="24" height="24" viewBox="0 0 24 24" fill="none" xmlns="http://www.w3.org/2000/svg">
<path d="M12.0874 6.51943C12.2141 6.78242 12.3912 7.07981 12.5913 7.41591L13.8051 9.45595C13.9883 9.76382 14.1514 10.039 14.309 10.2636L12.7622 11.1298L16.9389 20.9188C17.1079 21.3154 16.9187 21.7724 16.517 21.9393C16.1153 22.106 15.653 21.9197 15.4838 21.5233L12.0004 13.3593L8.51704 21.5233C8.34784 21.9197 7.88555 22.1061 7.48384 21.9393C7.0821 21.7724 6.89301 21.3154 7.06196 20.9188L10.7592 12.2518C10.357 12.4769 10.0899 12.6239 9.87641 12.7089C9.66611 12.7925 9.58016 12.7848 9.52583 12.7704C9.47145 12.756 9.39319 12.7202 9.25337 12.5438C9.10403 12.3554 8.93844 12.0784 8.68305 11.6493L8.0561 10.5956C7.7938 10.1548 7.62493 9.86907 7.52876 9.64247C7.4385 9.42976 7.44565 9.34333 7.4604 9.28896C7.47517 9.2346 7.51286 9.15609 7.69868 9.0165C7.89676 8.86772 8.18777 8.70335 8.63813 8.45107L12.0874 6.51943ZM6.62739 10.1962C6.75413 10.459 6.93047 10.7559 7.13032 11.0917L7.79243 12.205C7.97579 12.5131 8.13955 12.7879 8.29731 13.0126L4.92036 14.9042C4.45694 15.1638 4.15405 15.3327 3.91352 15.4286C3.68754 15.5186 3.58843 15.5134 3.52094 15.496C3.45428 15.4786 3.36731 15.4361 3.21919 15.2499C3.06104 15.0511 2.88619 14.7591 2.6186 14.3095C2.35092 13.8596 2.17787 13.5668 2.07954 13.3349C1.98719 13.1169 1.99421 13.0265 2.0102 12.9686C2.02643 12.9098 2.06816 12.8268 2.26216 12.6815C2.46774 12.5276 2.76861 12.3571 3.23188 12.0976L6.62739 10.1962ZM19.3764 2.01064C19.4431 2.02804 19.5292 2.07162 19.6772 2.25771C19.8354 2.45661 20.0111 2.74822 20.2788 3.19814L21.3823 5.05263C21.65 5.50262 21.823 5.79521 21.9213 6.02724C22.0136 6.24524 22.0066 6.33558 21.9907 6.39345C21.9743 6.45219 21.9327 6.53538 21.7387 6.68056C21.5331 6.83447 21.2314 7.00397 20.768 7.26357L16.8364 9.46669C16.3978 9.71233 16.1139 9.86942 15.8891 9.95888C15.6786 10.0426 15.5929 10.0358 15.5385 10.0214C15.4841 10.007 15.406 9.97115 15.2661 9.79482C15.1168 9.60645 14.9511 9.32942 14.6957 8.90029L13.5161 6.91884C13.2539 6.47826 13.0858 6.19225 12.9897 5.96572C12.8994 5.75305 12.9057 5.66657 12.9204 5.6122C12.9352 5.55784 12.9736 5.47941 13.1596 5.33974C13.3576 5.191 13.6489 5.0265 14.0991 4.77431L17.976 2.60243C18.4394 2.34285 18.7424 2.17492 18.9829 2.079C19.2094 1.98868 19.3088 1.99309 19.3764 2.01064Z" fill="#48465C"/>
</svg>
