<svg width="24" height="24" viewBox="0 0 24 24" fill="none" xmlns="http://www.w3.org/2000/svg">
<path d="M18.1648 1.41693C18.5083 1.27816 18.8968 1.18892 19.325 1.3017C19.7542 1.41476 20.0475 1.68423 20.2762 1.97552C20.4838 2.24001 20.6914 2.5933 20.9187 2.98041L20.9422 3.01947L22.0135 4.84466C22.2408 5.23158 22.4485 5.58499 22.5779 5.89447C22.7202 6.23461 22.8147 6.62567 22.6971 7.05756C22.5796 7.48818 22.3003 7.77813 22.0066 8.00091C21.7383 8.20445 21.3803 8.40815 20.9861 8.63177L17.1727 10.7958C16.8015 11.0065 16.4606 11.1999 16.1619 11.3203C15.8329 11.453 15.4551 11.5404 15.0379 11.4286L15.0174 11.4228L12.8728 12.6406L16.6912 21.7089C16.852 22.0907 16.6726 22.5306 16.2908 22.6913C15.9091 22.8521 15.4691 22.6727 15.3084 22.291L11.9998 14.4326L8.69121 22.291C8.53047 22.6728 8.09055 22.8521 7.70879 22.6913C7.32706 22.5306 7.14766 22.0907 7.30839 21.7089L10.5955 13.9033C10.5461 13.9258 10.4973 13.9468 10.45 13.9658C10.1208 14.0985 9.7433 14.1859 9.32597 14.0742L9.30644 14.0693L5.85234 16.0302C5.45782 16.2542 5.09915 16.4574 4.78593 16.5839C4.44249 16.7227 4.05394 16.8119 3.62578 16.6992C3.19639 16.5861 2.90337 16.3157 2.67461 16.0244C2.46693 15.7599 2.25939 15.4067 2.03203 15.0195L1.98613 14.9413C1.75883 14.5544 1.55107 14.2009 1.42168 13.8915C1.27946 13.5514 1.18577 13.1604 1.30351 12.7285C1.42096 12.2978 1.69928 12.0079 1.99297 11.7851C2.26131 11.5816 2.61934 11.3778 3.01347 11.1542L3.05351 11.1318L6.48125 9.18646C6.59651 8.76273 6.86897 8.47727 7.15605 8.25873C7.41807 8.05929 7.76762 7.86098 8.14922 7.64447L8.18925 7.62201L11.6687 5.6474C11.7841 5.22394 12.0566 4.93811 12.3436 4.71966C12.6056 4.52021 12.955 4.32193 13.3367 4.10541L17.0994 1.97064C17.4937 1.74679 17.8517 1.54346 18.1648 1.41693ZM3.79375 12.4365C3.34725 12.6899 3.07814 12.8447 2.89922 12.9804C2.81735 13.0426 2.77952 13.0829 2.7625 13.1044C2.75562 13.1132 2.75138 13.1189 2.75078 13.1201L2.7498 13.123V13.1249C2.74976 13.126 2.74942 13.1315 2.75078 13.1415C2.75423 13.1668 2.76627 13.2197 2.80547 13.3134C2.89078 13.5174 3.04469 13.7816 3.30254 14.2206C3.56049 14.6597 3.71687 14.9235 3.85429 15.0986C3.91738 15.1789 3.95867 15.2162 3.98125 15.2333C3.99775 15.2459 4.00425 15.2472 4.00761 15.248L4.00859 15.249C4.0122 15.2499 4.01972 15.2519 4.04179 15.249C4.07168 15.2451 4.12783 15.2323 4.22441 15.1933C4.43385 15.1087 4.70409 14.9562 5.15019 14.7031L8.12675 13.0146C8.01881 12.8436 7.90811 12.6553 7.79277 12.4589L7.17461 11.4062L7.15214 11.3671C7.02153 11.1448 6.89681 10.9334 6.79082 10.7353L3.79375 12.4365ZM8.92949 8.9267C8.49533 9.1731 8.23584 9.32148 8.06425 9.45209C7.98601 9.51166 7.95106 9.54941 7.93632 9.5683C7.93293 9.57265 7.93066 9.57622 7.92949 9.57806L7.92851 9.58002V9.58295C7.92861 9.58514 7.92875 9.58927 7.92949 9.59466C7.93284 9.61841 7.94441 9.66837 7.98222 9.75873C8.06552 9.9576 8.21579 10.216 8.46855 10.6464L9.06425 11.6611C9.31036 12.0802 9.45853 12.329 9.58769 12.4941C9.6465 12.5692 9.68337 12.6029 9.70195 12.6171C9.70624 12.6204 9.70988 12.6228 9.71172 12.624L9.71367 12.6259H9.7166C9.71878 12.6258 9.72296 12.6247 9.72832 12.624C9.7515 12.6209 9.80078 12.6109 9.88945 12.5751C10.0838 12.4967 10.3362 12.3549 10.7586 12.1152L11.533 11.6757L12.2869 11.248L13.8377 10.3671C13.73 10.1964 13.6198 10.0085 13.5047 9.81244L12.3396 7.82904C12.2089 7.60644 12.0844 7.39456 11.9783 7.19623L8.92949 8.9267ZM18.909 2.75189C18.879 2.75589 18.8233 2.76881 18.7273 2.80756C18.5179 2.89219 18.2467 3.04362 17.8006 3.29681L14.117 5.38763C13.6829 5.63403 13.4234 5.78241 13.2518 5.91302C13.1731 5.97291 13.1384 6.0114 13.1238 6.03021L13.1199 6.03607L13.117 6.039L13.116 6.04193V6.04388C13.1161 6.04606 13.1163 6.05014 13.117 6.0556C13.1203 6.07929 13.1316 6.12962 13.1697 6.22064C13.253 6.41953 13.4033 6.67794 13.6561 7.10834L14.7762 9.01459C15.0224 9.43373 15.1704 9.68347 15.2996 9.84857C15.3586 9.92385 15.3954 9.95753 15.4139 9.97162C15.4181 9.97488 15.4218 9.97632 15.4236 9.97748L15.4256 9.97943H15.4334L15.4402 9.97845C15.4633 9.97542 15.5127 9.96442 15.6014 9.92865C15.7958 9.8502 16.0482 9.7084 16.4705 9.46869L20.2059 7.34955C20.6524 7.09615 20.9215 6.94132 21.1004 6.8056C21.1829 6.74305 21.2212 6.70216 21.2381 6.6806C21.2455 6.67111 21.2488 6.66498 21.2488 6.66498L21.2498 6.66302V6.66107C21.2498 6.66107 21.2503 6.65545 21.2488 6.64447C21.2454 6.61916 21.2333 6.56633 21.1941 6.47259C21.1088 6.26858 20.955 6.00366 20.6971 5.56439L19.6482 3.77924C19.3904 3.34025 19.2338 3.07731 19.0965 2.90228C19.0333 2.82184 18.9921 2.78366 18.9695 2.76654C18.954 2.75478 18.9476 2.75278 18.9441 2.75189H18.909Z" fill="#48465C"/>
</svg>
