<svg width="24" height="24" viewBox="0 0 24 24" fill="none" xmlns="http://www.w3.org/2000/svg">
<path fill-rule="evenodd" clip-rule="evenodd" d="M18.1645 1.41688C18.5079 1.27813 18.8966 1.18897 19.3246 1.30165C19.754 1.41475 20.0481 1.68406 20.2768 1.97547C20.4845 2.24002 20.692 2.59315 20.9194 2.98036L20.9418 3.01942L22.0141 4.84461C22.2413 5.23143 22.4482 5.58501 22.5776 5.89442C22.7199 6.2346 22.8144 6.62555 22.6967 7.05751C22.5793 7.48814 22.2999 7.77808 22.0063 8.00086C21.7379 8.20438 21.3799 8.40812 20.9858 8.63172L17.1723 10.7958C16.8012 11.0064 16.4602 11.1998 16.1616 11.3202C15.8325 11.4529 15.4548 11.5404 15.0375 11.4286L15.018 11.4227L12.8725 12.6405L16.6909 21.7089C16.8517 22.0907 16.6723 22.5306 16.2905 22.6913C15.9088 22.8519 15.4697 22.6726 15.309 22.2909L11.9994 14.4325L8.69086 22.2909C8.53012 22.6727 8.09019 22.8521 7.70843 22.6913C7.32687 22.5305 7.14832 22.0906 7.30902 21.7089L10.5952 13.9032C10.5458 13.9257 10.4969 13.9467 10.4496 13.9657C10.1205 14.0985 9.74296 14.1859 9.32562 14.0741L9.30707 14.0692L5.85199 16.0302C5.45751 16.2541 5.09877 16.4574 4.78558 16.5839C4.44218 16.7226 4.05352 16.8119 3.62543 16.6991C3.19617 16.586 2.90297 16.3156 2.67425 16.0243C2.46662 15.7598 2.25899 15.4065 2.03168 15.0194L1.98578 14.9413C1.75848 14.5544 1.55071 14.2009 1.42132 13.8915C1.27915 13.5514 1.18544 13.1603 1.30316 12.7284C1.42061 12.2977 1.69894 12.0078 1.99261 11.785C2.26103 11.5814 2.61982 11.3779 3.0141 11.1542L3.05316 11.1317L6.48089 9.18641C6.59614 8.76275 6.86866 8.4772 7.1557 8.25868C7.4178 8.05918 7.76811 7.86101 8.14984 7.64442L8.1889 7.62196L11.6684 5.64735C11.7838 5.22392 12.0562 4.93806 12.3432 4.71961C12.6053 4.52011 12.9555 4.32194 13.3373 4.10536L17.0991 1.97059C17.4934 1.74675 17.8514 1.54343 18.1645 1.41688ZM3.79339 12.4364C3.34689 12.6898 3.07778 12.8447 2.89886 12.9804C2.81699 13.0425 2.77914 13.0828 2.76214 13.1044C2.75446 13.1142 2.7514 13.121 2.7514 13.121L2.74945 13.1249C2.74941 13.1258 2.75001 13.1312 2.7514 13.1415C2.75485 13.1668 2.76591 13.2197 2.80511 13.3134C2.8904 13.5174 3.04433 13.7815 3.30218 14.2206C3.56012 14.6597 3.71653 14.9234 3.85394 15.0985C3.91708 15.1789 3.9583 15.2162 3.98089 15.2333C3.99736 15.2459 4.00385 15.2471 4.00726 15.2479L4.00824 15.2489C4.01175 15.2498 4.01902 15.2519 4.04144 15.2489C4.07131 15.245 4.12753 15.2322 4.22406 15.1932C4.43356 15.1086 4.7045 14.9563 5.15082 14.703L8.1264 13.0145C8.01849 12.8436 7.9087 12.6552 7.79339 12.4589L7.17523 11.4061L7.15179 11.3671C7.02121 11.1448 6.8974 10.9333 6.79144 10.7352L3.79339 12.4364ZM8.92914 8.92665C8.49525 9.17289 8.23647 9.32149 8.06488 9.45204C7.98618 9.51194 7.95061 9.5504 7.93597 9.56922C7.93292 9.57317 7.93127 9.57622 7.93011 9.57801L7.92816 9.57997V9.5829C7.92825 9.58508 7.92839 9.58914 7.92914 9.59461C7.93247 9.61836 7.94383 9.66884 7.98187 9.75965C8.06518 9.95848 8.21557 10.2162 8.4682 10.6464L9.0639 11.661C9.31003 12.0801 9.45818 12.3289 9.58734 12.494C9.64598 12.569 9.68295 12.6028 9.7016 12.6171C9.70589 12.6204 9.70952 12.6227 9.71136 12.6239L9.71332 12.6259H9.71722C9.71944 12.6257 9.72293 12.6246 9.72797 12.6239C9.75105 12.6209 9.80014 12.611 9.8891 12.5751C10.0835 12.4967 10.3366 12.355 10.7592 12.1151L11.5336 11.6757L12.2866 11.2479L13.8383 10.3671C13.7306 10.1965 13.6204 10.0093 13.5053 9.81336L12.3393 7.82899C12.2085 7.60635 12.0841 7.39454 11.978 7.19618L8.92914 8.92665ZM18.9096 2.75184C18.8797 2.75578 18.8235 2.76853 18.727 2.80751C18.5175 2.89215 18.2464 3.04352 17.8002 3.29676L14.1166 5.38758C13.6825 5.63398 13.424 5.78334 13.2524 5.91395C13.1737 5.97385 13.1381 6.01135 13.1235 6.03016L13.1157 6.04188V6.04383C13.1158 6.04601 13.1159 6.05009 13.1166 6.05555C13.1199 6.07919 13.1322 6.12942 13.1703 6.22059C13.2537 6.41945 13.403 6.67803 13.6557 7.10829L14.7758 9.01454C15.022 9.43368 15.1701 9.68342 15.2993 9.84852C15.3582 9.9237 15.395 9.95739 15.4135 9.97157C15.4178 9.9748 15.4215 9.97626 15.4233 9.97743L15.4252 9.97938H15.434L15.4399 9.9784C15.4629 9.97541 15.512 9.96449 15.601 9.9286C15.7954 9.85017 16.0478 9.70837 16.4702 9.46864L20.2055 7.3495C20.652 7.09613 20.9211 6.94126 21.1 6.80555C21.1823 6.74316 21.2208 6.70313 21.2377 6.68153C21.2454 6.67175 21.2485 6.66493 21.2485 6.66493L21.2494 6.66297V6.66102C21.2494 6.66102 21.25 6.65548 21.2485 6.64442C21.2451 6.61911 21.233 6.56628 21.1938 6.47254C21.1085 6.26858 20.9545 6.0044 20.6967 5.56532L19.6489 3.77919C19.391 3.34031 19.2344 3.07729 19.0971 2.90223C19.0343 2.82226 18.9928 2.78472 18.9702 2.76747C18.9538 2.75508 18.9472 2.75272 18.9438 2.75184H18.9096Z" fill="#48465C"/>
</svg>
