<svg width="24" height="24" viewBox="0 0 24 24" fill="none" xmlns="http://www.w3.org/2000/svg">
<path d="M12.4511 2.01053C12.4498 2.04486 12.4432 2.16552 12.4423 2.22537C12.4407 2.34552 12.4418 2.51698 12.4511 2.73416C12.4697 3.16871 12.5216 3.78746 12.6552 4.54373C12.9225 6.05635 13.515 8.1244 14.8153 10.3767C16.1158 12.6292 17.6107 14.1761 18.787 15.1639C19.375 15.6576 19.8839 16.0125 20.2509 16.2459C20.4345 16.3626 20.5835 16.449 20.6884 16.5076L20.8749 16.616C20.0263 18.2516 18.7159 19.6723 17.0019 20.6619C15.2875 21.6517 13.4015 22.076 11.5605 21.993V21.7771C11.5621 21.657 11.561 21.4854 11.5517 21.2683C11.5331 20.8338 11.4812 20.2151 11.3476 19.4588C11.0803 17.9462 10.4867 15.8791 9.18644 13.6267C7.88599 11.3743 6.39209 9.82642 5.21574 8.83866C4.62761 8.34482 4.11793 7.99001 3.75089 7.75662C3.56755 7.64006 3.41919 7.55354 3.31437 7.49491L3.12589 7.39139C3.97446 5.75383 5.28609 4.33121 7.00187 3.34061C8.71864 2.34955 10.6077 1.92592 12.4511 2.01053ZM2.94621 9.02225C3.26333 9.2239 3.71855 9.54012 4.25089 9.98709C5.3157 10.8812 6.68812 12.2982 7.88761 14.3758C9.08705 16.4533 9.62808 18.3503 9.87003 19.7195C9.99096 20.404 10.0375 20.9563 10.0536 21.3318C10.0616 21.5195 10.0608 21.7178 10.0595 21.8113C7.3311 21.2701 4.84176 19.5988 3.34171 17.0008C1.84173 14.4027 1.63966 11.4115 2.53507 8.77811C2.61668 8.82376 2.78785 8.92157 2.94621 9.02225ZM13.9433 2.19119C16.6717 2.73243 19.162 4.4026 20.662 7.00077C22.1621 9.59902 22.3633 12.5908 21.4677 15.2244C21.3861 15.1787 21.2149 15.08 21.0566 14.9793C20.7394 14.7776 20.2842 14.4615 19.7519 14.0144C18.687 13.1202 17.3146 11.7034 16.1152 9.62577C14.9156 7.54809 14.3746 5.65128 14.1327 4.28202C14.0117 3.59737 13.9652 3.04522 13.9491 2.66971C13.9412 2.48222 13.9421 2.28477 13.9433 2.19119Z" fill="#48465C"/>
</svg>
