<svg width="24" height="24" viewBox="0 0 24 24" fill="none" xmlns="http://www.w3.org/2000/svg">
<path fill-rule="evenodd" clip-rule="evenodd" d="M6.62538 2.69052C8.72046 1.48093 11.0557 1.05585 13.2865 1.32626C16.5263 1.71898 19.5512 3.57888 21.31 6.62509C23.0686 9.67123 23.1667 13.2207 21.8871 16.2227C21.0058 18.2898 19.4705 20.1001 17.3754 21.3097C12.2338 24.2781 5.6594 22.5166 2.69081 17.3751C-0.277684 12.2335 1.48385 5.65909 6.62538 2.69052ZM12.4506 2.75985C10.7344 2.67447 8.9751 3.06575 7.37538 3.98934C5.77636 4.91255 4.55717 6.24143 3.77284 7.77059C4.13793 8.004 4.63839 8.3535 5.21425 8.837C6.3906 9.82475 7.88548 11.3727 9.18593 13.6251C10.4863 15.8775 11.0789 17.9454 11.3461 19.4581C11.4769 20.1989 11.5296 20.8074 11.5492 21.2403C13.2657 21.3257 15.0263 20.9341 16.6254 20.0108C18.2252 19.0872 19.4438 17.7587 20.2279 16.2296C19.8627 15.9961 19.3618 15.646 18.7855 15.1622C17.6092 14.1745 16.1151 12.6273 14.8148 10.3751C13.5143 8.12267 12.9209 6.05472 12.6537 4.54208C12.5228 3.80127 12.4701 3.19283 12.4506 2.75985ZM3.18984 9.18173C2.42439 11.5775 2.63306 14.2754 3.98964 16.6251C5.34623 18.9747 7.57808 20.5042 10.0355 21.0391C10.0105 20.6901 9.96215 20.2432 9.86952 19.7188C9.6276 18.3496 9.08567 16.4528 7.88612 14.3751C6.68671 12.2977 5.31518 10.8805 4.25038 9.98641C3.84255 9.64396 3.47969 9.37787 3.18984 9.18173ZM13.9652 2.96102C13.9901 3.31013 14.0387 3.75685 14.1312 4.28134C14.3731 5.65059 14.9142 7.54744 16.1137 9.62509C17.3132 11.7027 18.6855 13.1196 19.7504 14.0138C20.1582 14.3562 20.521 14.6214 20.8109 14.8175C21.5767 12.4207 21.3674 9.72425 20.0111 7.37509C18.6548 5.02578 16.424 3.4962 13.9652 2.96102Z" fill="#48465C"/>
</svg>
