<svg width="24" height="24" viewBox="0 0 24 24" fill="none" xmlns="http://www.w3.org/2000/svg">
<path d="M6.62565 2.69002C8.72069 1.48049 11.056 1.05536 13.2868 1.32576C16.5264 1.71857 19.5515 3.57848 21.3102 6.62459C23.0689 9.67077 23.166 13.2202 21.8864 16.2222C21.0051 18.2892 19.4706 20.0996 17.3757 21.3092C12.234 24.2777 5.65864 22.5163 2.6901 17.3746C-0.278307 12.233 1.48405 5.65852 6.62565 2.69002ZM12.4508 2.75936C10.7346 2.67392 8.9754 3.06529 7.37565 3.98885C5.7766 4.91206 4.55745 6.24092 3.77311 7.7701C4.13828 8.00357 4.63858 8.35388 5.21452 8.83748C6.39082 9.82522 7.88486 11.3724 9.18522 13.6246C10.4857 15.8771 11.0792 17.9449 11.3464 19.4576C11.4772 20.1984 11.5299 20.8069 11.5495 21.2398C13.266 21.3252 15.0266 20.9336 16.6257 20.0103C18.2253 19.0867 19.4441 17.7581 20.2282 16.2291C19.863 15.9956 19.3621 15.6456 18.7858 15.1617C17.6095 14.174 16.1154 12.6269 14.8151 10.3746C13.5146 8.12217 12.9212 6.05422 12.654 4.54158C12.5231 3.80074 12.4703 3.19234 12.4508 2.75936ZM3.1901 9.18123C2.42465 11.577 2.63333 14.2749 3.98991 16.6246C5.3465 18.9742 7.57838 20.5037 10.0358 21.0387C10.0108 20.6896 9.96147 20.2428 9.86881 19.7183C9.62689 18.3491 9.08594 16.4523 7.88639 14.3746C6.68685 12.297 5.31452 10.88 4.24967 9.98592C3.84189 9.64351 3.47993 9.37735 3.1901 9.18123ZM13.9645 2.96053C13.9894 3.30966 14.0389 3.75629 14.1315 4.28084C14.3734 5.6501 14.9144 7.54693 16.1139 9.62459C17.3135 11.7022 18.6858 13.1191 19.7507 14.0133C20.1584 14.3557 20.5204 14.6219 20.8102 14.8179C21.5762 12.4211 21.3677 9.72389 20.0114 7.37459C18.655 5.02523 16.4233 3.49568 13.9645 2.96053Z" fill="#48465C"/>
</svg>
