<svg width="24" height="24" viewBox="0 0 24 24" fill="none" xmlns="http://www.w3.org/2000/svg">
<path d="M16.0654 2C16.9519 1.99995 17.7164 1.99979 18.3281 2.08203C18.9835 2.17018 19.6116 2.36933 20.1211 2.87891C20.6307 3.38849 20.8297 4.01649 20.918 4.67188C21.0002 5.28355 21.0001 6.04807 21 6.93457V7.9502C20.9999 8.5024 20.5522 8.9502 20 8.9502C19.4478 8.9502 19.0001 8.5024 19 7.9502V7C19 6.02893 18.9977 5.40099 18.9355 4.93848C18.8772 4.50494 18.7831 4.36908 18.707 4.29297C18.6309 4.21686 18.495 4.12278 18.0615 4.06446C17.599 4.00228 16.9711 4 16 4H13V20H17C17.5523 20 18 20.4477 18 21C18 21.5523 17.5523 22 17 22H7C6.44772 22 6 21.5523 6 21C6 20.4477 6.44772 20 7 20H11V4H8C7.02894 4 6.40099 4.00228 5.93848 4.06446C5.50494 4.12278 5.36908 4.21686 5.29297 4.29297C5.21686 4.36908 5.12278 4.50494 5.06446 4.93848C5.00228 5.40099 5 6.02893 5 7V7.9502C4.9999 8.5024 4.55223 8.9502 4 8.9502C3.44779 8.9502 3.00011 8.5024 3 7.9502V6.93457C2.99995 6.04808 2.99979 5.28354 3.08203 4.67188C3.17019 4.01648 3.36933 3.3885 3.87891 2.87891C4.3885 2.36933 5.01648 2.17019 5.67188 2.08203C6.28354 1.99979 7.04809 1.99995 7.93457 2H16.0654Z" fill="#48465C"/>
</svg>
