<svg width="24" height="24" viewBox="0 0 24 24" fill="none" xmlns="http://www.w3.org/2000/svg">
<path d="M13.5928 3.64947C15.4588 1.7835 18.4847 1.78352 20.3506 3.64947C22.2166 5.51544 22.2166 8.54126 20.3506 10.4073L11.4082 19.3497C10.5981 20.1596 9.46365 20.5572 8.32519 20.4307L7.52636 20.3419C7.1447 20.2995 6.76371 20.4326 6.49218 20.7042L6.10937 21.0879C5.22657 21.9707 3.79489 21.9707 2.9121 21.0879C2.02933 20.2051 2.02931 18.7735 2.9121 17.8907L3.29589 17.5079C3.56742 17.2364 3.70061 16.8553 3.6582 16.4737L3.56933 15.6749C3.44284 14.5363 3.84132 13.4019 4.65136 12.5919L13.5928 3.64947ZM19.29 4.71002C18.0099 3.42998 15.9345 3.43016 14.6543 4.71002L5.71191 13.6524C5.22416 14.1401 4.98451 14.8233 5.06054 15.5088L5.14941 16.3086C5.24203 17.1432 4.95011 17.9748 4.35644 18.5684L3.97265 18.9522C3.67588 19.2492 3.67573 19.7305 3.97265 20.0274C4.26957 20.3244 4.75081 20.3242 5.04784 20.0274L5.43163 19.6436C6.0253 19.05 6.85696 18.758 7.6914 18.8506L8.4912 18.9395C9.17678 19.0156 9.85991 18.776 10.3476 18.2881L10.9268 17.709L10.1562 16.9395C9.86349 16.6467 9.86369 16.1719 10.1562 15.879C10.4491 15.5861 10.9239 15.5861 11.2168 15.879L11.9873 16.6485L14.1357 14.5001L13.3652 13.7295C13.0728 13.4367 13.0726 12.9618 13.3652 12.669C13.6581 12.3761 14.1339 12.3761 14.4268 12.669L15.1963 13.4395L17.335 11.3008L16.5654 10.5303C16.2725 10.2374 16.2725 9.76267 16.5654 9.46978C16.8583 9.17706 17.3331 9.17695 17.626 9.46978L18.3955 10.2403L19.29 9.34576C20.5698 8.06555 20.57 5.9901 19.29 4.71002ZM14.9697 7.96978C15.2626 7.67692 15.7374 7.67691 16.0303 7.96978C16.3231 8.26265 16.3231 8.73743 16.0303 9.03033L9.53027 15.5303C9.23738 15.8232 8.76261 15.8232 8.46972 15.5303C8.17684 15.2374 8.17683 14.7627 8.46972 14.4698L14.9697 7.96978Z" fill="#48465C"/>
</svg>
