<svg width="24" height="24" viewBox="0 0 24 24" fill="none" xmlns="http://www.w3.org/2000/svg">
<path d="M14.124 4.17968C15.6971 2.60685 18.2473 2.6067 19.8203 4.17968C21.3933 5.75267 21.3931 8.30287 19.8203 9.87597L18.9267 10.7705L17.626 9.46972C17.3331 9.17683 16.8583 9.17683 16.5654 9.46972C16.2726 9.76261 16.2725 10.2374 16.5654 10.5303L17.8662 11.831L15.7275 13.9697L14.4267 12.6689C14.1339 12.3761 13.6591 12.3762 13.3662 12.6689C13.0734 12.9618 13.0734 13.4366 13.3662 13.7295L14.666 15.0303L12.5176 17.1787L11.2177 15.8779C10.925 15.5852 10.4501 15.5855 10.1572 15.8779C9.86429 16.1708 9.86429 16.6465 10.1572 16.9394L11.457 18.2392L10.8779 18.8184C10.2291 19.4672 9.32024 19.7869 8.40818 19.6855L7.60935 19.5967C7.00125 19.5291 6.39452 19.7412 5.96189 20.1738L5.57908 20.5576C4.98917 21.1475 4.03226 21.1475 3.44236 20.5576C2.85248 19.9677 2.85246 19.0108 3.44236 18.4209L3.82615 18.0381C4.25878 17.6055 4.47086 16.9987 4.40329 16.3906L4.31443 15.5918C4.21316 14.6798 4.53272 13.7709 5.18161 13.1221L14.124 4.17968ZM16.0302 7.96972C15.7373 7.67683 15.2626 7.67683 14.9697 7.96972L8.4697 14.4697C8.17683 14.7626 8.17682 15.2374 8.4697 15.5303C8.76258 15.8231 9.23735 15.8231 9.53025 15.5303L16.0302 9.03027C16.3231 8.73738 16.3231 8.26261 16.0302 7.96972Z" fill="#48465C"/>
</svg>
