<svg width="24" height="24" viewBox="0 0 24 24" fill="none" xmlns="http://www.w3.org/2000/svg">
<path fill-rule="evenodd" clip-rule="evenodd" d="M14.1241 4.17968C15.6972 2.60685 18.2473 2.6067 19.8203 4.17968C21.3934 5.75267 21.3932 8.30287 19.8203 9.87597L18.9268 10.7705L17.626 9.46972C17.3331 9.17683 16.8584 9.17683 16.5655 9.46972C16.2726 9.76261 16.2726 10.2374 16.5655 10.5303L17.8662 11.831L15.7276 13.9697L14.4268 12.6689C14.134 12.3761 13.6592 12.3762 13.3662 12.6689C13.0735 12.9618 13.0735 13.4366 13.3662 13.7295L14.6661 15.0303L12.5176 17.1787L11.2178 15.8779C10.9251 15.5852 10.4502 15.5855 10.1573 15.8779C9.86435 16.1708 9.86435 16.6465 10.1573 16.9394L11.4571 18.2392L10.878 18.8184C10.2291 19.4672 9.32031 19.7869 8.40824 19.6855L7.60941 19.5967C7.00131 19.5291 6.39458 19.7412 5.96195 20.1738L5.57914 20.5576C4.98923 21.1475 4.03232 21.1475 3.44242 20.5576C2.85254 19.9677 2.85252 19.0108 3.44242 18.4209L3.82621 18.0381C4.25884 17.6055 4.47093 16.9987 4.40336 16.3906L4.31449 15.5918C4.21322 14.6798 4.53278 13.7709 5.18168 13.1221L14.1241 4.17968ZM16.0303 7.96972C15.7374 7.67683 15.2627 7.67683 14.9698 7.96972L8.46976 14.4697C8.17689 14.7626 8.17688 15.2374 8.46976 15.5303C8.76264 15.8231 9.23742 15.8231 9.53031 15.5303L16.0303 9.03027C16.3232 8.73738 16.3232 8.26261 16.0303 7.96972Z" fill="#48465C"/>
</svg>
