<svg width="24" height="24" viewBox="0 0 24 24" fill="none" xmlns="http://www.w3.org/2000/svg">
<path fill-rule="evenodd" clip-rule="evenodd" d="M13.5928 3.64947C15.4587 1.7835 18.4847 1.78352 20.3506 3.64947C22.2166 5.51544 22.2166 8.54126 20.3506 10.4073L11.4082 19.3497C10.5981 20.1596 9.46364 20.5572 8.32517 20.4307L7.52634 20.3419C7.14468 20.2995 6.7637 20.4326 6.49217 20.7042L6.10935 21.0879C5.22655 21.9707 3.79488 21.9707 2.91209 21.0879C2.02931 20.2051 2.0293 18.7735 2.91209 17.8907L3.29588 17.5079C3.56741 17.2364 3.70059 16.8553 3.65818 16.4737L3.56931 15.6749C3.44283 14.5363 3.8413 13.4019 4.65134 12.5919L13.5928 3.64947ZM19.29 4.71002C18.0099 3.42998 15.9345 3.43016 14.6543 4.71002L5.71189 13.6524C5.22414 14.1401 4.98449 14.8233 5.06052 15.5088L5.14939 16.3086C5.24202 17.1432 4.9501 17.9748 4.35642 18.5684L3.97263 18.9522C3.67587 19.2492 3.67571 19.7305 3.97263 20.0274C4.26955 20.3244 4.7508 20.3242 5.04783 20.0274L5.43162 19.6436C6.02529 19.05 6.85695 18.758 7.69138 18.8506L8.49119 18.9395C9.17676 19.0156 9.85989 18.776 10.3476 18.2881L10.9267 17.709L10.1562 16.9395C9.86348 16.6467 9.86367 16.1719 10.1562 15.879C10.4491 15.5861 10.9239 15.5861 11.2168 15.879L11.9873 16.6485L14.1357 14.5001L13.3652 13.7295C13.0728 13.4367 13.0726 12.9618 13.3652 12.669C13.6581 12.3761 14.1338 12.3761 14.4267 12.669L15.1963 13.4395L17.3349 11.3008L16.5654 10.5303C16.2725 10.2374 16.2725 9.76267 16.5654 9.46978C16.8583 9.17706 17.3331 9.17695 17.626 9.46978L18.3955 10.2403L19.29 9.34576C20.5698 8.06555 20.57 5.9901 19.29 4.71002ZM14.9697 7.96978C15.2626 7.67692 15.7374 7.67691 16.0303 7.96978C16.3231 8.26265 16.3231 8.73743 16.0303 9.03033L9.53025 15.5303C9.23736 15.8232 8.76259 15.8232 8.4697 15.5303C8.17682 15.2374 8.17682 14.7627 8.4697 14.4698L14.9697 7.96978Z" fill="#48465C"/>
</svg>
