<svg width="24" height="24" viewBox="0 0 24 24" fill="none" xmlns="http://www.w3.org/2000/svg">
<path d="M15.2688 4.5166C15.2688 3.81879 15.8429 3.2514 16.5471 3.26953L17.3254 3.29883C19.0801 3.39058 20.4066 3.66958 21.3801 4.64063C22.4096 5.66763 22.6596 7.08189 22.7385 8.95801C22.7457 9.12945 22.7538 9.30627 22.7473 9.4541C22.7407 9.60398 22.7176 9.82034 22.5979 10.0342C22.5151 10.1821 22.4042 10.2845 22.3303 10.3457C22.2502 10.4121 22.1613 10.4729 22.0764 10.5264C21.9087 10.6321 21.68 10.7587 21.4123 10.9082C21.0267 11.1236 20.7698 11.533 20.7697 12C20.7697 12.467 21.0267 12.8764 21.4123 13.0918C21.68 13.2413 21.9087 13.3679 22.0764 13.4736C22.1613 13.5271 22.2502 13.5879 22.3303 13.6543C22.3857 13.7002 22.4619 13.7693 22.5315 13.8633L22.5979 13.9658L22.6711 14.125C22.7286 14.2833 22.7423 14.4334 22.7473 14.5459C22.7538 14.6938 22.7457 14.8706 22.7385 15.042C22.6596 16.9182 22.4096 18.3324 21.3801 19.3594C20.3531 20.3839 18.9401 20.6347 17.0656 20.7139C16.8521 20.7229 16.6123 20.7347 16.4104 20.7148C16.1826 20.6924 15.8976 20.6216 15.6535 20.3877C15.407 20.1513 15.3264 19.8654 15.2951 19.6396C15.2671 19.4374 15.2688 19.1953 15.2688 18.9766V17C15.2688 16.8637 15.157 16.75 15.0158 16.75C14.8748 16.7502 14.7639 16.8638 14.7639 17V17.002L14.758 19.0049C14.7574 19.2188 14.7578 19.455 14.7307 19.6523C14.7006 19.8711 14.6243 20.1499 14.3889 20.3848C14.1533 20.6197 13.8735 20.6962 13.6545 20.7256C13.4573 20.752 13.2217 20.75 13.008 20.75H9.99534C8.12617 20.75 6.64875 20.7514 5.49534 20.5967C4.32066 20.4391 3.37019 20.1072 2.62034 19.3594C1.59079 18.3324 1.33984 16.9182 1.26096 15.042C1.25375 14.8706 1.24567 14.6938 1.25217 14.5459C1.25876 14.3961 1.28205 14.1796 1.40159 13.9658L1.46799 13.8633C1.53752 13.7693 1.61371 13.7002 1.66916 13.6543C1.7493 13.5879 1.83919 13.5271 1.92405 13.4736C2.09164 13.3679 2.31975 13.2412 2.58713 13.0918C2.97283 12.8764 3.22971 12.467 3.22971 12C3.22971 11.533 2.97283 11.1236 2.58713 10.9082C2.31975 10.7588 2.09165 10.6321 1.92405 10.5264C1.8392 10.4729 1.74931 10.4121 1.66916 10.3457C1.59525 10.2845 1.4843 10.1819 1.40159 10.0342C1.28205 9.82043 1.25876 9.60392 1.25217 9.4541C1.24567 9.30629 1.25375 9.12943 1.26096 8.95801C1.33984 7.08189 1.59079 5.66763 2.62034 4.64063C3.37019 3.89272 4.32065 3.56087 5.49534 3.40332C6.64875 3.24863 8.12617 3.25 9.99534 3.25H13.5051C14.1929 3.25 14.7539 3.80554 14.7561 4.49609L14.7639 6.99805V7C14.7639 7.13618 14.8748 7.24978 15.0158 7.25C15.157 7.25 15.2688 7.13631 15.2688 7V4.5166ZM15.0002 9.25C15.9667 9.25006 16.7502 10.0335 16.7502 11V13C16.7502 13.9665 15.9667 14.7499 15.0002 14.75C14.0337 14.75 13.2502 13.9665 13.2502 13V11C13.2502 10.0335 14.0337 9.25 15.0002 9.25ZM15.0002 10.75C14.8621 10.75 14.7502 10.8619 14.7502 11V13C14.7502 13.1381 14.8621 13.25 15.0002 13.25C15.1383 13.2499 15.2502 13.138 15.2502 13V11C15.2502 10.862 15.1383 10.7501 15.0002 10.75ZM16.7688 7C16.7688 7.96826 15.9819 8.75 15.0158 8.75C14.0506 8.74978 13.2649 7.96917 13.2639 7.00195L13.2571 4.75H9.99534C8.08387 4.75 6.72507 4.75145 5.69455 4.88965C4.68552 5.02499 4.10349 5.27864 3.67893 5.70215C3.09119 6.28843 2.83804 7.1648 2.75998 9.02051C2.75601 9.11482 2.75284 9.18995 2.75119 9.25391C2.75103 9.26031 2.75132 9.2665 2.75119 9.27246C2.87583 9.34944 3.05412 9.45095 3.31858 9.59863C4.15842 10.0676 4.72971 10.9664 4.72971 12C4.72971 13.0336 4.15842 13.9324 3.31858 14.4014C3.0544 14.5488 2.87581 14.6496 2.75119 14.7266C2.75133 14.7328 2.75102 14.7393 2.75119 14.7461C2.75284 14.81 2.75602 14.8844 2.75998 14.9785C2.83801 16.8346 3.09114 17.7116 3.67893 18.2979C4.10349 18.7214 4.68554 18.9751 5.69455 19.1104C6.72507 19.2486 8.08387 19.25 9.99534 19.25H13.008C13.1063 19.25 13.1861 19.2491 13.2551 19.248C13.2564 19.1791 13.2577 19.0993 13.258 19.001L13.2639 16.998C13.2649 16.0308 14.0506 15.2502 15.0158 15.25C15.9819 15.25 16.7688 16.0317 16.7688 17V18.9766C16.7688 19.0735 16.7687 19.1529 16.7697 19.2217C16.8351 19.2198 16.9105 19.2187 17.0022 19.2148C18.856 19.1366 19.7333 18.8833 20.3205 18.2979C20.9083 17.7116 21.1625 16.8346 21.2405 14.9785C21.2443 14.8845 21.2476 14.81 21.2492 14.7461C21.2494 14.7393 21.2491 14.7328 21.2492 14.7266C21.1246 14.6496 20.9454 14.549 20.6809 14.4014C19.8412 13.9323 19.2697 13.0335 19.2697 12C19.2698 10.9665 19.8412 10.0676 20.6809 9.59863C20.9457 9.45077 21.1246 9.34949 21.2492 9.27246C21.2491 9.2665 21.2494 9.26031 21.2492 9.25391C21.2476 9.18995 21.2444 9.11482 21.2405 9.02051C21.1624 7.16479 20.9083 6.28843 20.3205 5.70215C19.7036 5.08708 18.7753 4.8468 16.7688 4.77832V7Z" fill="#48465C"/>
</svg>
