<svg width="24" height="24" viewBox="0 0 24 24" fill="none" xmlns="http://www.w3.org/2000/svg">
<path fill-rule="evenodd" clip-rule="evenodd" d="M15.269 4.5166C15.269 3.81877 15.8431 3.25137 16.5473 3.26953L17.3256 3.29883C19.0801 3.3906 20.4069 3.66966 21.3803 4.64063C22.4096 5.66761 22.6598 7.08202 22.7387 8.95801C22.7459 9.12944 22.754 9.30628 22.7475 9.4541C22.7409 9.60394 22.7177 9.8204 22.5981 10.0342C22.5154 10.1819 22.4044 10.2845 22.3305 10.3457C22.2504 10.4121 22.1615 10.4729 22.0766 10.5264C21.9089 10.6321 21.6803 10.7587 21.4125 10.9082C21.0268 11.1236 20.77 11.533 20.77 12C20.77 12.467 21.0268 12.8764 21.4125 13.0918C21.6803 13.2413 21.9089 13.3679 22.0766 13.4736C22.1615 13.5271 22.2504 13.5879 22.3305 13.6543C22.3859 13.7002 22.4621 13.7693 22.5317 13.8633L22.5981 13.9658L22.6713 14.125C22.7287 14.2832 22.7426 14.4334 22.7475 14.5459C22.754 14.6938 22.7459 14.8706 22.7387 15.042C22.6598 16.9181 22.4096 18.3324 21.3803 19.3594C20.3532 20.384 18.9395 20.6347 17.0649 20.7139C16.8515 20.7229 16.6124 20.7347 16.4106 20.7148C16.1828 20.6924 15.8979 20.6217 15.6538 20.3877C15.4072 20.1513 15.3257 19.8654 15.2944 19.6396C15.2664 19.4374 15.269 19.1953 15.269 18.9766V17C15.269 16.8637 15.1572 16.75 15.0161 16.75C14.8749 16.75 14.7631 16.8637 14.7631 17V17.002L14.7573 19.0049C14.7567 19.2188 14.758 19.455 14.7309 19.6523C14.7008 19.871 14.6243 20.1499 14.3891 20.3848C14.1535 20.6197 13.8737 20.6962 13.6547 20.7256C13.4574 20.7521 13.2211 20.75 13.0073 20.75H9.99457C8.12574 20.75 6.64885 20.7513 5.49555 20.5967C4.32076 20.4391 3.36946 20.1074 2.61957 19.3594C1.59011 18.3324 1.34005 16.9181 1.26117 15.042C1.25397 14.8706 1.24588 14.6938 1.25239 14.5459C1.25897 14.396 1.28218 14.1797 1.4018 13.9658L1.46821 13.8633C1.5378 13.7693 1.61394 13.7002 1.66938 13.6543C1.74952 13.5879 1.83842 13.5271 1.92328 13.4736C2.09098 13.3679 2.31961 13.2414 2.58735 13.0918C2.97305 12.8764 3.22992 12.467 3.22992 12C3.22992 11.533 2.97305 11.1236 2.58735 10.9082C2.31961 10.7587 2.09099 10.6321 1.92328 10.5264C1.83843 10.4729 1.74953 10.4121 1.66938 10.3457C1.59547 10.2845 1.48461 10.182 1.4018 10.0342C1.28218 9.82037 1.25897 9.60396 1.25239 9.4541C1.24588 9.30628 1.25397 9.12945 1.26117 8.95801C1.34005 7.08195 1.59011 5.66762 2.61957 4.64063C3.36946 3.8926 4.32076 3.56088 5.49555 3.40332C6.64885 3.24869 8.12574 3.25 9.99457 3.25H13.5053C14.15 3.25014 14.6835 3.73829 14.7495 4.36816L14.7563 4.49609L14.7631 6.99805V7C14.7631 7.13631 14.8749 7.25 15.0161 7.25C15.1572 7.24999 15.269 7.1363 15.269 7V4.5166ZM14.9995 9.25C15.966 9.25 16.7495 10.0335 16.7495 11V13C16.7495 13.9665 15.966 14.75 14.9995 14.75C14.0331 14.7498 13.2495 13.9664 13.2495 13V11C13.2495 10.0336 14.0331 9.25023 14.9995 9.25ZM14.9995 10.75C14.8616 10.7502 14.7495 10.8621 14.7495 11V13C14.7495 13.1379 14.8616 13.2498 14.9995 13.25C15.1375 13.25 15.2495 13.1381 15.2495 13V11C15.2495 10.8619 15.1375 10.75 14.9995 10.75ZM16.769 7C16.769 7.96825 15.9821 8.74999 15.0161 8.75C14.0506 8.75 13.2642 7.96931 13.2631 7.00195L13.2573 4.75H9.99457C8.08341 4.75 6.72521 4.75149 5.69477 4.88965C4.68581 5.02496 4.10371 5.27875 3.67914 5.70215C3.0914 6.28843 2.83825 7.16481 2.7602 9.02051C2.75623 9.11482 2.75306 9.18995 2.75141 9.25391C2.75124 9.26032 2.75056 9.26649 2.75043 9.27246C2.87513 9.3495 3.05391 9.45072 3.31879 9.59863C4.1586 10.0676 4.72992 10.9664 4.72992 12C4.72992 13.0336 4.15859 13.9324 3.31879 14.4014C3.0542 14.5491 2.87511 14.6496 2.75043 14.7266C2.75057 14.7328 2.75123 14.7393 2.75141 14.7461C2.75306 14.81 2.75624 14.8844 2.7602 14.9785C2.83823 16.8346 3.09135 17.7116 3.67914 18.2979C4.10371 18.7213 4.68582 18.9751 5.69477 19.1104C6.72521 19.2485 8.08341 19.25 9.99457 19.25H13.0073C13.1058 19.25 13.1862 19.2491 13.2553 19.248C13.2566 19.1791 13.2569 19.0993 13.2573 19.001L13.2631 16.998C13.2642 16.0306 14.0506 15.25 15.0161 15.25C15.9821 15.25 16.769 16.0317 16.769 17V18.9766C16.769 19.0735 16.7689 19.1529 16.77 19.2217C16.8351 19.2198 16.9102 19.2187 17.0014 19.2148C18.8556 19.1365 19.7335 18.8835 20.3207 18.2979C20.9085 17.7116 21.1617 16.8346 21.2397 14.9785C21.2436 14.8844 21.2469 14.81 21.2485 14.7461C21.2487 14.7393 21.2483 14.7328 21.2485 14.7266C21.1239 14.6496 20.9453 14.5488 20.6811 14.4014C19.8413 13.9324 19.27 13.0336 19.27 12C19.27 10.9664 19.8413 10.0676 20.6811 9.59863C20.9456 9.45096 21.1239 9.34944 21.2485 9.27246C21.2483 9.2665 21.2486 9.26031 21.2485 9.25391C21.2469 9.18995 21.2436 9.11482 21.2397 9.02051C21.1617 7.1648 20.9085 6.28843 20.3207 5.70215C19.7039 5.08696 18.7754 4.84683 16.769 4.77832V7Z" fill="#48465C"/>
</svg>
