<svg width="24" height="24" viewBox="0 0 24 24" fill="none" xmlns="http://www.w3.org/2000/svg">
<path d="M19.9941 13.7502C19.9665 16.386 19.8025 17.854 18.8281 18.8283C18.4941 19.1623 18.1023 19.4017 17.625 19.5724L18.6709 21.6652C18.856 22.0355 18.7062 22.4856 18.3359 22.6711C17.9655 22.8562 17.5144 22.7065 17.3291 22.3361L16.1055 19.8878C15.0571 20.0001 13.726 20.0002 12 20.0002C10.2742 20.0002 8.94285 20.0001 7.89453 19.8878L6.6709 22.3361C6.48562 22.7064 6.03545 22.8561 5.66504 22.6711C5.29462 22.4858 5.144 22.0356 5.3291 21.6652L6.37598 19.5724C5.89841 19.4017 5.50607 19.1625 5.17188 18.8283C4.19761 17.854 4.03348 16.386 4.00586 13.7502H19.9941ZM7 15.2502C6.58585 15.2502 6.25008 15.586 6.25 16.0002C6.25 16.4143 6.5858 16.7501 7 16.7502H8.5C8.91421 16.7502 9.25 16.4144 9.25 16.0002C9.24992 15.586 8.91416 15.2502 8.5 15.2502H7ZM15.5 15.2502C15.0859 15.2502 14.7501 15.586 14.75 16.0002C14.75 16.4143 15.0858 16.7501 15.5 16.7502H17C17.4142 16.7502 17.75 16.4144 17.75 16.0002C17.7499 15.586 17.4141 15.2502 17 15.2502H15.5ZM14.4922 2.01871C16.6688 2.07357 17.9493 2.29345 18.8281 3.17203C19.9997 4.3436 20 6.22989 20 10.0011V12.2511H4V10.0011C4 6.22989 4.00031 4.3436 5.17188 3.17203C6.05076 2.2934 7.33186 2.07355 9.50879 2.01871C9.77869 2.01215 10 2.23109 10 2.50113C10.0002 3.60553 10.8955 4.50113 12 4.50113C13.1045 4.50113 13.9998 3.60553 14 2.50113C14 2.23094 14.2221 2.0119 14.4922 2.01871Z" fill="#48465C"/>
</svg>
