<svg width="24" height="24" viewBox="0 0 24 24" fill="none" xmlns="http://www.w3.org/2000/svg">
<path d="M20 13.25C20.2974 13.25 20.5668 13.426 20.6865 13.6982C20.8062 13.9705 20.7537 14.2877 20.5527 14.5068L15.0527 20.5068C14.8438 20.7347 14.5167 20.8111 14.2285 20.6992C13.9403 20.5871 13.75 20.3093 13.75 20V14.75H4C3.58578 14.75 3.25 14.4142 3.25 14C3.25004 13.5858 3.5858 13.25 4 13.25H20ZM8.94727 3.49315C9.15614 3.26539 9.48341 3.18894 9.77148 3.30077C10.0597 3.41288 10.25 3.69074 10.25 3.99999V9.24999H20C20.4142 9.24999 20.75 9.58584 20.75 9.99999C20.75 10.4142 20.4142 10.75 20 10.75H4C3.70258 10.75 3.43324 10.574 3.31348 10.3017C3.19387 10.0296 3.24635 9.71232 3.44727 9.49315L8.94727 3.49315Z" fill="#48465C"/>
</svg>
