<svg width="24" height="24" viewBox="0 0 24 24" fill="none" xmlns="http://www.w3.org/2000/svg">
<path d="M10 3.25C10.4142 3.25005 10.75 3.58582 10.75 4V20C10.75 20.2974 10.574 20.5668 10.3018 20.6865C10.0295 20.8062 9.7124 20.7537 9.49319 20.5527L3.49319 15.0527C3.1879 14.7728 3.16742 14.2985 3.44729 13.9932C3.72721 13.688 4.20157 13.6675 4.50686 13.9473L9.25003 18.2949V4C9.25004 3.58579 9.58581 3.25 10 3.25ZM13.6983 3.31348C13.9704 3.19388 14.2876 3.24636 14.5069 3.44727L20.5069 8.94727C20.812 9.22717 20.8326 9.70155 20.5528 10.0068C20.2729 10.3121 19.7985 10.3326 19.4932 10.0527L14.75 5.70508V20C14.75 20.4142 14.4142 20.75 14 20.75C13.5858 20.75 13.25 20.4142 13.25 20V4C13.25 3.70258 13.4261 3.43324 13.6983 3.31348Z" fill="#48465C"/>
</svg>
