<svg width="24" height="24" viewBox="0 0 24 24" fill="none" xmlns="http://www.w3.org/2000/svg">
<path fill-rule="evenodd" clip-rule="evenodd" d="M10 3.25C10.4142 3.25 10.75 3.58578 10.75 4V20C10.75 20.2974 10.5741 20.5668 10.3018 20.6865C10.0297 20.8062 9.71239 20.7537 9.49321 20.5527L3.49321 15.0527C3.26545 14.8438 3.189 14.5166 3.30083 14.2285C3.41294 13.9403 3.69079 13.75 4.00005 13.75H9.25005V4C9.25005 3.5858 9.5859 3.25003 10 3.25ZM13.6983 3.31348C13.9706 3.19381 14.2877 3.24633 14.5069 3.44727L20.5069 8.94727C20.7347 9.15615 20.8111 9.48336 20.6993 9.77148C20.5872 10.0598 20.3093 10.25 20 10.25H14.75V20C14.75 20.4142 14.4142 20.75 14 20.75C13.5859 20.75 13.25 20.4142 13.25 20V4C13.2501 3.70258 13.4261 3.43324 13.6983 3.31348Z" fill="#48465C"/>
</svg>
