<svg width="24" height="24" viewBox="0 0 24 24" fill="none" xmlns="http://www.w3.org/2000/svg">
<path fill-rule="evenodd" clip-rule="evenodd" d="M9.99993 3.25C10.4141 3.25005 10.7499 3.58582 10.7499 4V20C10.7499 20.2974 10.5739 20.5668 10.3017 20.6865C10.0294 20.8062 9.7123 20.7537 9.49309 20.5527L3.49309 15.0527C3.1878 14.7728 3.16732 14.2985 3.44719 13.9932C3.72711 13.688 4.20147 13.6675 4.50676 13.9473L9.24993 18.2949V4C9.24994 3.58579 9.58571 3.25 9.99993 3.25ZM13.6982 3.31348C13.9703 3.19388 14.2875 3.24636 14.5068 3.44727L20.5068 8.94727C20.8119 9.22717 20.8325 9.70155 20.5527 10.0068C20.2728 10.3121 19.7984 10.3326 19.4931 10.0527L14.7499 5.70508V20C14.7499 20.4142 14.4141 20.75 13.9999 20.75C13.5857 20.75 13.2499 20.4142 13.2499 20V4C13.2499 3.70258 13.426 3.43324 13.6982 3.31348Z" fill="#48465C"/>
</svg>
