<svg width="24" height="24" viewBox="0 0 24 24" fill="none" xmlns="http://www.w3.org/2000/svg">
<path fill-rule="evenodd" clip-rule="evenodd" d="M20 13.25C20.2974 13.25 20.5668 13.426 20.6865 13.6982C20.8062 13.9705 20.7537 14.2877 20.5527 14.5068L15.0527 20.5068C14.7728 20.812 14.2985 20.8326 13.9932 20.5527C13.6879 20.2728 13.6674 19.7984 13.9473 19.4932L18.2949 14.75H4C3.58582 14.75 3.25004 14.4142 3.25 14C3.25 13.5858 3.58579 13.25 4 13.25H20ZM8.94727 3.49316C9.22716 3.18786 9.70152 3.16738 10.0068 3.44726C10.312 3.72717 10.3326 4.20154 10.0527 4.50683L5.70508 9.25H20C20.4142 9.25 20.75 9.58579 20.75 10C20.75 10.4142 20.4142 10.75 20 10.75H4C3.70258 10.75 3.43324 10.5739 3.31348 10.3018C3.1938 10.0296 3.24632 9.71237 3.44727 9.49316L8.94727 3.49316Z" fill="#48465C"/>
</svg>
