<svg width="24" height="24" viewBox="0 0 24 24" fill="none" xmlns="http://www.w3.org/2000/svg">
<path d="M15.876 8.31642C17.4086 8.31642 18.1751 8.31588 18.6289 8.81545C19.0828 9.31511 19.0321 10.1037 18.9316 11.6807L18.665 15.8682C18.4799 18.7745 18.388 20.2284 17.4834 21.1143C16.5788 22.0002 15.187 22 12.4043 22H11.5957C8.81299 22 7.42124 22.0002 6.5166 21.1143C5.61208 20.2284 5.52006 18.7745 5.33496 15.8682L5.06836 11.6807C4.96792 10.1037 4.91727 9.31511 5.37109 8.81545C5.82494 8.3159 6.59138 8.31642 8.12402 8.31642H15.876ZM9.42578 11.4815C9.01362 11.5249 8.7127 11.9119 8.75391 12.3457L9.25391 17.6094C9.29534 18.0428 9.66237 18.3586 10.0742 18.3154C10.4863 18.2721 10.7871 17.8858 10.7461 17.4522L10.2461 12.1885C10.2048 11.7549 9.83772 11.4383 9.42578 11.4815ZM14.5742 11.4815C14.1623 11.4383 13.7952 11.7549 13.7539 12.1885L13.2539 17.4522C13.2129 17.8858 13.5137 18.2721 13.9258 18.3154C14.3376 18.3586 14.7047 18.0428 14.7461 17.6094L15.2461 12.3457C15.2873 11.9119 14.9864 11.5249 14.5742 11.4815ZM13.7393 2.00002C13.9618 1.99986 14.1558 1.99998 14.3389 2.03322C15.0621 2.16462 15.6881 2.67738 16.0264 3.41603C16.1121 3.60304 16.173 3.8126 16.2432 4.05275L16.3584 4.44435C16.3778 4.51051 16.383 4.52913 16.3877 4.54396C16.5679 5.11017 17.1279 5.49355 17.6572 5.50881H20.2285C20.6544 5.50881 20.9999 5.90143 21 6.38576C21 6.87022 20.6545 7.26271 20.2285 7.26271H3.77148C3.34543 7.26271 3 6.87022 3 6.38576C3.00012 5.90143 3.34551 5.50881 3.77148 5.50881H6.43555C6.9649 5.49355 7.43218 5.11017 7.6123 4.54396C7.61702 4.52912 7.6222 4.51054 7.6416 4.44435L7.75684 4.05275C7.82709 3.8126 7.88798 3.60304 7.97363 3.41603C8.31193 2.6774 8.93793 2.16467 9.66113 2.03322C9.84413 1.99999 10.0383 1.99986 10.2607 2.00002H13.7393Z" fill="#48465C"/>
</svg>
