<svg width="24" height="24" viewBox="0 0 24 24" fill="none" xmlns="http://www.w3.org/2000/svg">
<path d="M15.7715 8.66701C17.2628 8.66701 18.0086 8.6665 18.4502 9.15334C18.8917 9.64019 18.8428 10.4089 18.7451 11.9453L18.4854 16.0254C18.3053 18.8573 18.2152 20.2735 17.335 21.1367C16.4548 21.9998 15.1009 22 12.3936 22H11.6064C8.89915 22 7.54519 21.9999 6.66504 21.1367C5.78495 20.2735 5.69474 18.8572 5.51465 16.0254L5.25586 11.9453C5.15814 10.4088 5.10922 9.64019 5.55078 9.15334C5.99237 8.66667 6.73834 8.66701 8.22949 8.66701H15.7715ZM13.4893 2.00002C13.7118 1.99987 13.9058 1.99969 14.0889 2.03127C14.8122 2.15609 15.4381 2.6439 15.7764 3.34572C15.862 3.52333 15.923 3.72218 15.9932 3.95022L16.1084 4.32229C16.1279 4.38534 16.133 4.4029 16.1377 4.41701C16.3179 4.95492 16.8779 5.31854 17.4072 5.33303H19.9785C20.4045 5.33303 20.75 5.70678 20.75 6.16701C20.7498 6.62712 20.4044 7.00002 19.9785 7.00002H3.52148C3.09553 7.00002 2.75015 6.62712 2.75 6.16701C2.75 5.70678 3.09543 5.33303 3.52148 5.33303H6.18555C6.7149 5.31854 7.18218 4.95492 7.3623 4.41701C7.36704 4.40289 7.37214 4.38536 7.3916 4.32229L7.50684 3.95022C7.57705 3.72221 7.63806 3.52332 7.72363 3.34572C8.06192 2.64396 8.68788 2.15614 9.41113 2.03127C9.59413 1.9997 9.78827 1.99987 10.0107 2.00002H13.4893Z" fill="#48465C"/>
</svg>
