<svg width="24" height="24" viewBox="0 0 24 24" fill="none" xmlns="http://www.w3.org/2000/svg">
<path d="M1.46881 6.4707C1.7611 6.17733 2.23589 6.17651 2.52936 6.46875L6.4483 10.3711C6.96183 10.8825 7.295 11.212 7.57233 11.4228C7.83207 11.6202 7.9537 11.6425 8.03424 11.6426C8.11481 11.6427 8.2369 11.6203 8.49713 11.4228C8.77465 11.2122 9.10811 10.8832 9.62213 10.3721L9.89654 10.0996C10.3653 9.63339 10.7688 9.2307 11.1358 8.95215C11.5292 8.65355 11.9667 8.42779 12.5049 8.42773C13.0431 8.42768 13.4807 8.65363 13.8741 8.95215C14.2411 9.23062 14.6454 9.63256 15.1143 10.0986L21.2501 16.1973V12.4541C21.2501 12.0399 21.5859 11.7041 22.0001 11.7041C22.4142 11.7042 22.7501 12.04 22.7501 12.4541V18C22.75 18.4141 22.4141 18.7499 22.0001 18.75H16.418C16.0039 18.75 15.6681 18.4141 15.668 18C15.668 17.5858 16.0038 17.25 16.418 17.25H20.1817L14.0919 11.1973C13.578 10.6866 13.2442 10.3579 12.9669 10.1475C12.7069 9.95032 12.5855 9.92772 12.5049 9.92773C12.4244 9.92777 12.3029 9.9503 12.043 10.1475C11.7658 10.3579 11.4326 10.6866 10.919 11.1973L10.6446 11.4707C10.1754 11.9372 9.77061 12.3395 9.40338 12.6182C9.00983 12.9168 8.57252 13.1427 8.03424 13.1426C7.49565 13.1424 7.05762 12.9163 6.66412 12.6172C6.29704 12.3382 5.89279 11.9357 5.42389 11.4687C5.41237 11.4572 5.40132 11.4451 5.38971 11.4336L1.47076 7.53125C1.17727 7.23897 1.17653 6.76421 1.46881 6.4707Z" fill="#48465C"/>
</svg>
