<svg width="24" height="24" viewBox="0 0 24 24" fill="none" xmlns="http://www.w3.org/2000/svg">
<path fill-rule="evenodd" clip-rule="evenodd" d="M1.46893 6.4707C1.76122 6.17733 2.23601 6.17651 2.52948 6.46875L6.44842 10.3711C6.96195 10.8825 7.29512 11.212 7.57245 11.4228C7.83219 11.6202 7.95382 11.6425 8.03436 11.6426C8.11493 11.6427 8.23702 11.6203 8.49725 11.4228C8.77478 11.2122 9.10823 10.8832 9.62225 10.3721L9.89667 10.0996C10.3654 9.63339 10.769 9.2307 11.1359 8.95215C11.5293 8.65355 11.9669 8.42779 12.5051 8.42773C13.0432 8.42768 13.4808 8.65363 13.8742 8.95215C14.2413 9.23062 14.6455 9.63256 15.1144 10.0986L21.2502 16.1973V12.4541C21.2502 12.0399 21.586 11.7041 22.0002 11.7041C22.4143 11.7042 22.7502 12.04 22.7502 12.4541V18C22.7501 18.4141 22.4143 18.7499 22.0002 18.75H16.4182C16.004 18.75 15.6682 18.4141 15.6682 18C15.6682 17.5858 16.004 17.25 16.4182 17.25H20.1818L14.092 11.1973C13.5781 10.6866 13.2443 10.3579 12.967 10.1475C12.707 9.95032 12.5856 9.92772 12.5051 9.92773C12.4246 9.92777 12.303 9.9503 12.0432 10.1475C11.7659 10.3579 11.4327 10.6866 10.9191 11.1973L10.6447 11.4707C10.1755 11.9372 9.77073 12.3395 9.4035 12.6182C9.00995 12.9168 8.57264 13.1427 8.03436 13.1426C7.49577 13.1424 7.05774 12.9163 6.66424 12.6172C6.29716 12.3382 5.89291 11.9357 5.42401 11.4687C5.41249 11.4572 5.40144 11.4451 5.38983 11.4336L1.47089 7.53125C1.17739 7.23897 1.17665 6.76421 1.46893 6.4707Z" fill="#48465C"/>
</svg>
