<svg width="24" height="24" viewBox="0 0 24 24" fill="none" xmlns="http://www.w3.org/2000/svg">
<path d="M14.4307 2.51169C14.7003 2.19736 15.1738 2.16111 15.4883 2.43063C15.8026 2.70023 15.8389 3.17381 15.5693 3.48825L13.416 5.99997H15V22H8C5.17157 22 3.75759 21.9998 2.87891 21.1211C2.00025 20.2425 2 18.8283 2 16V12C2 9.1716 2.00023 7.75755 2.87891 6.87888C3.75759 6.00023 5.17161 5.99997 8 5.99997H10.584L8.43066 3.48825C8.16115 3.17381 8.19738 2.70023 8.51172 2.43063C8.82617 2.16111 9.29975 2.19733 9.56934 2.51169L12 5.34763L14.4307 2.51169ZM16.5 5.99997C18.9983 6.00302 20.2958 6.05358 21.1211 6.87888C21.9998 7.75756 22 9.17157 22 12V16C22 18.8284 21.9998 20.2425 21.1211 21.1211C20.2958 21.9464 18.9983 21.997 16.5 22V5.99997ZM19 15C18.4477 15 18 15.4477 18 16C18.0001 16.5522 18.4477 17 19 17C19.5523 17 19.9999 16.5522 20 16C20 15.4477 19.5523 15 19 15ZM19 11C18.4477 11 18 11.4477 18 12C18.0001 12.5522 18.4477 13 19 13C19.5523 13 19.9999 12.5522 20 12C20 11.4477 19.5523 11 19 11Z" fill="#48465C"/>
</svg>
