<svg width="24" height="24" viewBox="0 0 24 24" fill="none" xmlns="http://www.w3.org/2000/svg">
<path d="M6.46973 3.46973C6.76262 3.17684 7.23739 3.17684 7.53028 3.46973C7.8231 3.76262 7.82314 4.23741 7.53028 4.53028L5.81055 6.25H15C18.1756 6.25004 20.75 8.82438 20.75 12C20.75 15.1756 18.1756 17.75 15 17.75H8C7.5858 17.75 7.25004 17.4142 7.25 17C7.25 16.5858 7.58578 16.25 8 16.25H15C17.3472 16.25 19.25 14.3472 19.25 12C19.25 9.65281 17.3472 7.75004 15 7.75H5.81055L7.53028 9.46973C7.8231 9.76262 7.82314 10.2374 7.53028 10.5303C7.23741 10.8231 6.76262 10.8231 6.46973 10.5303L3.46973 7.53028C3.17684 7.23739 3.17684 6.76262 3.46973 6.46973L6.46973 3.46973Z" fill="#48465C"/>
</svg>
