<svg width="24" height="24" viewBox="0 0 24 24" fill="none" xmlns="http://www.w3.org/2000/svg">
<path d="M6.46973 3.46973C6.76262 3.17684 7.23739 3.17684 7.53028 3.46973C7.8231 3.76262 7.82314 4.23741 7.53028 4.53028L5.81055 6.25H15.0361C15.9402 6.24999 16.6696 6.2504 17.2578 6.30371C17.864 6.35868 18.3939 6.4742 18.875 6.75196C19.4451 7.08106 19.918 7.555 20.2471 8.125C20.5248 8.60621 20.6413 9.13591 20.6963 9.74219C20.7496 10.3304 20.75 11.0597 20.75 11.9639V12.0361C20.75 12.9402 20.7496 13.6696 20.6963 14.2578C20.6414 14.864 20.5249 15.3938 20.2471 15.875C19.918 16.4449 19.4449 16.918 18.875 17.2471C18.3939 17.5248 17.8641 17.6413 17.2578 17.6963C16.6696 17.7496 15.9402 17.75 15.0361 17.75H8C7.5858 17.75 7.25004 17.4142 7.25 17C7.25 16.5858 7.58578 16.25 8 16.25H15C15.9483 16.25 16.6095 16.2496 17.1221 16.2031C17.6244 16.1576 17.9101 16.0722 18.125 15.9482C18.467 15.7508 18.7508 15.4669 18.9482 15.125C19.0722 14.9101 19.1576 14.6244 19.2031 14.1221C19.2496 13.6095 19.25 12.9483 19.25 12C19.25 11.0517 19.2496 10.3905 19.2031 9.87793C19.1576 9.37562 19.0722 9.08991 18.9482 8.875C18.7508 8.53307 18.4669 8.24922 18.125 8.05176C17.9101 7.92769 17.6244 7.84241 17.1221 7.79688C16.6095 7.75043 15.9483 7.75 15 7.75H5.81055L7.53028 9.46973C7.8231 9.76262 7.82314 10.2374 7.53028 10.5303C7.23741 10.8231 6.76262 10.8231 6.46973 10.5303L3.46973 7.53028C3.17684 7.23739 3.17684 6.76262 3.46973 6.46973L6.46973 3.46973Z" fill="#48465C"/>
</svg>
