<svg width="24" height="24" viewBox="0 0 24 24" fill="none" xmlns="http://www.w3.org/2000/svg">
<path fill-rule="evenodd" clip-rule="evenodd" d="M6.46967 3.46973C6.76256 3.17684 7.23732 3.17684 7.53021 3.46973C7.82304 3.76262 7.82308 4.23741 7.53021 4.53028L5.81049 6.25H14.9999C18.1755 6.25004 20.7499 8.82438 20.7499 12C20.7499 15.1756 18.1755 17.75 14.9999 17.75H7.99994C7.58574 17.75 7.24997 17.4142 7.24994 17C7.24994 16.5858 7.58572 16.25 7.99994 16.25H14.9999C17.3471 16.25 19.2499 14.3472 19.2499 12C19.2499 9.65281 17.3471 7.75004 14.9999 7.75H5.81049L7.53021 9.46973C7.82304 9.76262 7.82308 10.2374 7.53021 10.5303C7.23735 10.8231 6.76256 10.8231 6.46967 10.5303L3.46967 7.53028C3.17678 7.23739 3.17678 6.76262 3.46967 6.46973L6.46967 3.46973Z" fill="#48465C"/>
</svg>
