<svg width="24" height="24" viewBox="0 0 24 24" fill="none" xmlns="http://www.w3.org/2000/svg">
<path d="M6.46271 2.47767C6.75145 2.18068 7.22627 2.1733 7.52326 2.46204C7.82005 2.75073 7.82642 3.22563 7.53791 3.52259L3.77521 7.39271H15.7879C16.9242 7.3927 17.8297 7.39322 18.5574 7.46107C19.304 7.5307 19.9379 7.67654 20.5076 8.01478C21.1925 8.42145 21.7586 9.00493 22.1512 9.70423C22.4761 10.2832 22.6172 10.927 22.6844 11.6896C22.7501 12.4352 22.7498 13.3641 22.7498 14.5353V14.6076C22.7498 15.7787 22.7501 16.7076 22.6844 17.4533C22.6172 18.2159 22.4761 18.8597 22.1512 19.4386C21.7586 20.138 21.1925 20.7214 20.5076 21.1281C19.938 21.4663 19.3041 21.6121 18.5574 21.6818C17.8297 21.7496 16.9242 21.7501 15.7879 21.7501H6.99982C6.58573 21.75 6.24989 21.4142 6.24982 21.0001C6.24982 20.586 6.58569 20.2502 6.99982 20.2501H15.7498C16.9323 20.2501 17.7677 20.2492 18.4178 20.1886C19.0567 20.129 19.4416 20.0163 19.742 19.838C20.1972 19.5676 20.5779 19.1775 20.8436 18.7042C21.0209 18.3883 21.1318 17.9839 21.1903 17.3214C21.2495 16.6493 21.2498 15.7865 21.2498 14.5714C21.2498 13.3564 21.2495 12.4935 21.1903 11.8214C21.1318 11.159 21.0209 10.7547 20.8436 10.4386C20.5779 9.96537 20.1972 9.57515 19.742 9.30482C19.4416 9.12647 19.0567 9.01379 18.4178 8.95423C17.7677 8.89364 16.9323 8.89271 15.7498 8.89271H3.77521L7.53791 12.7628C7.82651 13.0597 7.81994 13.5346 7.52326 13.8234C7.22638 14.112 6.75148 14.1054 6.46271 13.8087L1.46271 8.66614C1.17971 8.37504 1.17971 7.91134 1.46271 7.62025L6.46271 2.47767Z" fill="#48465C"/>
</svg>
