<svg width="24" height="24" viewBox="0 0 24 24" fill="none" xmlns="http://www.w3.org/2000/svg">
<path fill-rule="evenodd" clip-rule="evenodd" d="M16.4775 2.46206C16.7745 2.17359 17.2495 2.17985 17.5381 2.47671L22.5381 7.62026C22.8208 7.91122 22.8207 8.37417 22.5381 8.66518L17.5381 13.8087C17.2494 14.1057 16.7745 14.112 16.4775 13.8234C16.1806 13.5346 16.1733 13.0598 16.4619 12.7628L20.2246 8.89272H8.25C7.06754 8.89272 6.23205 8.89365 5.58203 8.95425C4.94326 9.01381 4.55811 9.1265 4.25781 9.30483C3.80269 9.57517 3.42187 9.96545 3.15625 10.4386C2.97894 10.7547 2.86795 11.1591 2.80957 11.8214C2.75034 12.4935 2.75 13.3564 2.75 14.5714C2.75 15.7865 2.75034 16.6493 2.80957 17.3214C2.86795 17.9838 2.97891 18.3883 3.15625 18.7042C3.42187 19.1775 3.80269 19.5676 4.25781 19.838C4.55811 20.0163 4.94326 20.129 5.58203 20.1886C6.23206 20.2491 7.06754 20.2501 8.25 20.2501H17C17.4142 20.2501 17.75 20.5859 17.75 21.0001C17.7499 21.4143 17.4141 21.7501 17 21.7501H8.21289C7.07659 21.7501 6.17112 21.7496 5.44336 21.6818C4.69648 21.6121 4.06202 21.4664 3.49219 21.1281C2.80736 20.7214 2.24122 20.138 1.84863 19.4386C1.52366 18.8597 1.38265 18.2159 1.31543 17.4533C1.24973 16.7077 1.24999 15.7787 1.25 14.6076V14.5353C1.24999 13.3641 1.24973 12.4352 1.31543 11.6896C1.38266 10.927 1.52366 10.2832 1.84863 9.70425C2.24122 9.0049 2.80734 8.42149 3.49219 8.01479C4.06203 7.67642 4.69648 7.53071 5.44336 7.46108C6.17111 7.39326 7.07661 7.39272 8.21289 7.39272H20.2246L16.4619 3.52261C16.1735 3.2256 16.1806 2.75072 16.4775 2.46206Z" fill="#48465C"/>
</svg>
