<svg width="24" height="24" viewBox="0 0 24 24" fill="none" xmlns="http://www.w3.org/2000/svg">
<path fill-rule="evenodd" clip-rule="evenodd" d="M6.46272 2.47671C6.7515 2.18015 7.22642 2.17346 7.52327 2.46206C7.82009 2.75076 7.82647 3.22564 7.53791 3.52261L3.77522 7.39272H15.7498C19.6356 7.39272 22.7498 10.6269 22.7498 14.5714C22.7498 18.516 19.6356 21.7501 15.7498 21.7501H6.99983C6.58578 21.75 6.24992 21.4142 6.24983 21.0001C6.24983 20.586 6.58572 20.2503 6.99983 20.2501H15.7498C18.7676 20.2501 21.2498 17.7277 21.2498 14.5714C21.2498 11.4152 18.7676 8.89272 15.7498 8.89272H3.77522L7.53791 12.7628C7.82654 13.0598 7.82 13.5346 7.52327 13.8234C7.22639 14.112 6.75149 14.1054 6.46272 13.8087L1.46272 8.66518C1.17976 8.37409 1.17973 7.91134 1.46272 7.62026L6.46272 2.47671Z" fill="#48465C"/>
</svg>
