<svg width="24" height="24" viewBox="0 0 24 24" fill="none" xmlns="http://www.w3.org/2000/svg">
<path fill-rule="evenodd" clip-rule="evenodd" d="M6.46967 3.46973C6.76256 3.17684 7.23732 3.17684 7.53021 3.46973C7.82304 3.76262 7.82308 4.23741 7.53021 4.53028L5.81049 6.25H15.0361C15.9401 6.24999 16.6695 6.2504 17.2578 6.30371C17.864 6.35868 18.3939 6.4742 18.8749 6.75196C19.445 7.08106 19.9179 7.555 20.247 8.125C20.5248 8.60621 20.6412 9.13591 20.6962 9.74219C20.7495 10.3304 20.7499 11.0597 20.7499 11.9639V12.0361C20.7499 12.9402 20.7495 13.6696 20.6962 14.2578C20.6413 14.864 20.5249 15.3938 20.247 15.875C19.918 16.4449 19.4448 16.918 18.8749 17.2471C18.3938 17.5248 17.864 17.6413 17.2578 17.6963C16.6695 17.7496 15.9401 17.75 15.0361 17.75H7.99994C7.58574 17.75 7.24997 17.4142 7.24994 17C7.24994 16.5858 7.58572 16.25 7.99994 16.25H14.9999C15.9482 16.25 16.6094 16.2496 17.122 16.2031C17.6243 16.1576 17.91 16.0722 18.1249 15.9482C18.4669 15.7508 18.7507 15.4669 18.9482 15.125C19.0722 14.9101 19.1576 14.6244 19.2031 14.1221C19.2496 13.6095 19.2499 12.9483 19.2499 12C19.2499 11.0517 19.2495 10.3905 19.2031 9.87793C19.1576 9.37562 19.0722 9.08991 18.9482 8.875C18.7507 8.53307 18.4668 8.24922 18.1249 8.05176C17.91 7.92769 17.6243 7.84241 17.122 7.79688C16.6094 7.75043 15.9483 7.75 14.9999 7.75H5.81049L7.53021 9.46973C7.82304 9.76262 7.82308 10.2374 7.53021 10.5303C7.23735 10.8231 6.76256 10.8231 6.46967 10.5303L3.46967 7.53028C3.17678 7.23739 3.17678 6.76262 3.46967 6.46973L6.46967 3.46973Z" fill="#48465C"/>
</svg>
