<svg width="24" height="24" viewBox="0 0 24 24" fill="none" xmlns="http://www.w3.org/2000/svg">
<path fill-rule="evenodd" clip-rule="evenodd" d="M16.4775 2.46206C16.7745 2.17359 17.2495 2.17985 17.5381 2.47671L22.5381 7.62026C22.8207 7.91123 22.8207 8.37417 22.5381 8.66518L17.5381 13.8087C17.2494 14.1057 16.7745 14.112 16.4775 13.8234C16.1806 13.5346 16.1733 13.0599 16.4619 12.7628L20.2246 8.89272H8.25C5.23221 8.89273 2.75 11.4152 2.75 14.5714C2.75003 17.7277 5.23223 20.2501 8.25 20.2501H17C17.4142 20.2501 17.75 20.5859 17.75 21.0001C17.7499 21.4143 17.4141 21.7501 17 21.7501H8.25C4.36425 21.7501 1.25003 18.516 1.25 14.5714C1.25001 10.6269 4.36423 7.39273 8.25 7.39272H20.2246L16.4619 3.52261C16.1734 3.2256 16.1806 2.75071 16.4775 2.46206Z" fill="#48465C"/>
</svg>
