<svg width="24" height="24" viewBox="0 0 24 24" fill="none" xmlns="http://www.w3.org/2000/svg">
<path d="M6.46272 2.47767C6.75146 2.18068 7.22627 2.1733 7.52326 2.46204C7.82006 2.75073 7.82642 3.22563 7.53791 3.52259L3.77522 7.39271H15.7498C19.6356 7.39271 22.7498 10.6269 22.7498 14.5714C22.7498 18.516 19.6356 21.7501 15.7498 21.7501H6.99982C6.58573 21.75 6.2499 21.4142 6.24982 21.0001C6.24982 20.586 6.58569 20.2502 6.99982 20.2501H15.7498C18.7676 20.2501 21.2498 17.7277 21.2498 14.5714C21.2498 11.4152 18.7676 8.89271 15.7498 8.89271H3.77522L7.53791 12.7628C7.82651 13.0597 7.81995 13.5346 7.52326 13.8234C7.22639 14.112 6.75149 14.1054 6.46272 13.8087L1.46272 8.66614C1.17972 8.37505 1.17972 7.91134 1.46272 7.62025L6.46272 2.47767Z" fill="#48465C"/>
</svg>
