<svg width="24" height="24" viewBox="0 0 24 24" fill="none" xmlns="http://www.w3.org/2000/svg">
<path fill-rule="evenodd" clip-rule="evenodd" d="M6.46272 2.47671C6.7515 2.18015 7.22642 2.17346 7.52326 2.46206C7.82009 2.75077 7.82648 3.22565 7.53791 3.52261L3.77522 7.39273H15.7879C16.9243 7.39272 17.8297 7.39324 18.5574 7.46109C19.304 7.53072 19.9379 7.67657 20.5076 8.0148C21.1925 8.42147 21.7586 9.00495 22.1512 9.70425C22.4761 10.2832 22.6172 10.927 22.6844 11.6896C22.7501 12.4352 22.7498 13.3641 22.7498 14.5353V14.6076C22.7498 15.7787 22.7501 16.7077 22.6844 17.4533C22.6172 18.2159 22.4761 18.8597 22.1512 19.4386C21.7586 20.138 21.1925 20.7214 20.5076 21.1281C19.938 21.4663 19.3041 21.6121 18.5574 21.6818C17.8297 21.7496 16.9243 21.7501 15.7879 21.7501H6.99983C6.58578 21.75 6.24992 21.4142 6.24983 21.0001C6.24983 20.586 6.58572 20.2503 6.99983 20.2501H15.7498C16.9323 20.2501 17.7677 20.2492 18.4178 20.1886C19.0567 20.129 19.4416 20.0163 19.742 19.838C20.1972 19.5676 20.5779 19.1775 20.8436 18.7043C21.021 18.3883 21.1319 17.9839 21.1903 17.3214C21.2495 16.6493 21.2498 15.7865 21.2498 14.5714C21.2498 13.3564 21.2495 12.4935 21.1903 11.8214C21.1319 11.159 21.0209 10.7547 20.8436 10.4386C20.5779 9.96538 20.1972 9.57518 19.742 9.30484C19.4416 9.12649 19.0567 9.01381 18.4178 8.95425C17.7677 8.89367 16.9323 8.89273 15.7498 8.89273H3.77522L7.53791 12.7628C7.82655 13.0598 7.82 13.5346 7.52326 13.8234C7.22638 14.112 6.75149 14.1054 6.46272 13.8087L1.46272 8.66519C1.17976 8.37409 1.17973 7.91134 1.46272 7.62027L6.46272 2.47671Z" fill="#48465C"/>
</svg>
