<svg width="24" height="24" viewBox="0 0 24 24" fill="none" xmlns="http://www.w3.org/2000/svg">
<path d="M16.4775 2.46282C16.7745 2.17408 17.2494 2.18048 17.5381 2.47747L22.5381 7.62005C22.821 7.91111 22.821 8.3749 22.5381 8.66595L17.5381 13.8085C17.2494 14.1055 16.7745 14.1119 16.4775 13.8232C16.1806 13.5344 16.1731 13.0596 16.4619 12.7626L20.2246 8.89251H8.25C5.2323 8.89252 2.75015 11.4152 2.75 14.5712C2.75 17.7275 5.23221 20.2499 8.25 20.2499H17C17.4141 20.2499 17.7499 20.5858 17.75 20.9999C17.75 21.4141 17.4142 21.7499 17 21.7499H8.25C4.36423 21.7499 1.25 18.5158 1.25 14.5712C1.25016 10.6268 4.36433 7.39252 8.25 7.39251H20.2246L16.4619 3.52337C16.1731 3.2264 16.1806 2.75157 16.4775 2.46282Z" fill="#48465C"/>
</svg>
