<svg width="24" height="24" viewBox="0 0 24 24" fill="none" xmlns="http://www.w3.org/2000/svg">
<path d="M16.4775 2.46282C16.7745 2.17408 17.2494 2.18048 17.5381 2.47747L22.5381 7.62005C22.821 7.91111 22.821 8.37489 22.5381 8.66595L17.5381 13.8085C17.2494 14.1055 16.7745 14.1119 16.4775 13.8232C16.1806 13.5344 16.1732 13.0596 16.4619 12.7626L20.2246 8.89251H8.25C7.06754 8.89251 6.23205 8.89343 5.58203 8.95403C4.94324 9.0136 4.55811 9.12629 4.25781 9.30462C3.80264 9.57494 3.4219 9.96522 3.15625 10.4384C2.97886 10.7545 2.86796 11.1596 2.80957 11.8222C2.75038 12.4942 2.75 13.3566 2.75 14.5712C2.75 15.7863 2.75035 16.6491 2.80957 17.3212C2.86793 17.9836 2.97898 18.3881 3.15625 18.704C3.42192 19.1773 3.80257 19.5684 4.25781 19.8388C4.5581 20.0171 4.9433 20.1288 5.58203 20.1884C6.23206 20.2489 7.06754 20.2499 8.25 20.2499H17C17.4141 20.2499 17.7499 20.5858 17.75 20.9999C17.75 21.4141 17.4142 21.7499 17 21.7499H8.21289C7.07662 21.7499 6.17111 21.7503 5.44336 21.6825C4.69644 21.6128 4.06205 21.4663 3.49219 21.1279C2.80731 20.7212 2.24121 20.1379 1.84863 19.4384C1.52363 18.8594 1.38264 18.2158 1.31543 17.4531C1.24972 16.7074 1.24999 15.7786 1.25 14.6074V14.5361C1.24999 13.3648 1.24975 12.436 1.31543 11.6904C1.38265 10.9276 1.52361 10.2831 1.84863 9.70403C2.24121 9.0048 2.80742 8.42123 3.49219 8.01458C4.06199 7.67627 4.69654 7.53049 5.44336 7.46087C6.1711 7.39305 7.07662 7.39251 8.21289 7.39251H20.2246L16.4619 3.52337C16.1732 3.2264 16.1806 2.75157 16.4775 2.46282Z" fill="#48465C"/>
</svg>
