<svg width="24" height="24" viewBox="0 0 24 24" fill="none" xmlns="http://www.w3.org/2000/svg">
<path fill-rule="evenodd" clip-rule="evenodd" d="M10.0001 12.25C12.3134 12.25 14.4451 12.7757 16.0245 13.6641C17.5805 14.5393 18.7501 15.8661 18.7501 17.5V17.6016C18.7512 18.7634 18.7527 20.2221 17.4737 21.2637C16.8443 21.7762 15.9639 22.1411 14.7745 22.3818C13.5814 22.6233 12.0259 22.75 10.0001 22.75C7.97451 22.75 6.41961 22.6233 5.22663 22.3818C4.03689 22.141 3.15591 21.7763 2.52644 21.2637C1.24752 20.2221 1.24894 18.7633 1.25007 17.6016V17.5C1.25007 15.8661 2.41968 14.5393 3.97565 13.6641C5.55507 12.7756 7.68664 12.25 10.0001 12.25ZM10.0001 13.75C7.89542 13.75 6.02691 14.2315 4.71101 14.9717C3.37159 15.7252 2.75007 16.6487 2.75007 17.5C2.75007 18.8078 2.79043 19.5442 3.4737 20.1006C3.84423 20.4024 4.46421 20.6965 5.52448 20.9111C6.58136 21.125 8.02617 21.25 10.0001 21.25C11.9743 21.25 13.4197 21.125 14.4766 20.9111C15.5366 20.6966 16.1559 20.4023 16.5264 20.1006C17.2097 19.5442 17.2501 18.8078 17.2501 17.5C17.2501 16.6487 16.6285 15.7252 15.2891 14.9717C13.9731 14.2316 12.1046 13.75 10.0001 13.75ZM10.0001 1.25C12.6234 1.25 14.7501 3.37665 14.7501 6C14.7501 8.62336 12.6234 10.75 10.0001 10.75C7.37674 10.75 5.25007 8.62334 5.25007 6C5.25007 3.37667 7.37674 1.25004 10.0001 1.25ZM18.3575 1.61426C18.5706 1.25921 19.0307 1.14438 19.3858 1.35742H19.3878L19.3887 1.3584L19.3926 1.36133L19.4024 1.36719C19.4098 1.37175 19.4188 1.37771 19.4298 1.38477C19.4518 1.399 19.4815 1.41776 19.5167 1.44238C19.587 1.4916 19.6818 1.56257 19.793 1.65527C20.0151 1.84036 20.3056 2.1172 20.5948 2.49316C21.1775 3.25089 21.75 4.40758 21.7501 6C21.7501 7.59266 21.1776 8.75007 20.5948 9.50781C20.3057 9.8836 20.0151 10.1597 19.793 10.3447C19.6819 10.4374 19.5869 10.5084 19.5167 10.5576C19.4815 10.5822 19.4517 10.601 19.4298 10.6152C19.4188 10.6224 19.4098 10.6292 19.4024 10.6338L19.3926 10.6396L19.3887 10.6416L19.3878 10.6426C19.3874 10.6428 19.386 10.6431 19.0001 10L19.3858 10.6436C19.0307 10.8563 18.5705 10.7408 18.3575 10.3857C18.1453 10.0321 18.258 9.57368 18.6094 9.35938L18.6153 9.35645C18.6226 9.35174 18.6368 9.34275 18.6563 9.3291C18.6954 9.30176 18.7569 9.25587 18.8331 9.19238C18.9859 9.06498 19.1949 8.86639 19.4053 8.59277C19.8225 8.05051 20.2501 7.20735 20.2501 6C20.25 4.79272 19.8225 3.94947 19.4053 3.40723C19.1949 3.13361 18.9859 2.93499 18.8331 2.80762C18.7571 2.7443 18.6954 2.69924 18.6563 2.67188L18.6094 2.64062C18.258 2.42626 18.1454 1.96784 18.3575 1.61426ZM10.0001 2.75C8.20517 2.75004 6.75007 4.2051 6.75007 6C6.75007 7.79491 8.20517 9.24996 10.0001 9.25C11.795 9.25 13.2501 7.79493 13.2501 6C13.2501 4.20508 11.795 2.75 10.0001 2.75ZM16.3575 3.61426C16.5706 3.25921 17.0307 3.14438 17.3858 3.35742L17.0001 4C17.386 3.35689 17.3875 3.35722 17.3878 3.35742L17.3887 3.3584L17.3917 3.36035L17.3995 3.36523L17.419 3.37695C17.4337 3.38645 17.4521 3.399 17.4737 3.41406C17.5166 3.44413 17.5725 3.48642 17.6368 3.54004C17.765 3.64698 17.9307 3.80427 18.0948 4.01758C18.4276 4.4503 18.75 5.10741 18.7501 6C18.7501 6.89265 18.4276 7.54968 18.0948 7.98242C17.9305 8.19596 17.7651 8.35398 17.6368 8.46094C17.5726 8.5145 17.5166 8.55588 17.4737 8.58594C17.4521 8.60097 17.4337 8.61356 17.419 8.62305L17.3995 8.63477L17.3917 8.63965L17.3887 8.6416L17.3878 8.64258L17.3858 8.64355C17.0307 8.85635 16.5705 8.74079 16.3575 8.38574C16.1462 8.03358 16.2574 7.57775 16.6055 7.3623L16.6133 7.35742C16.6251 7.34922 16.6475 7.33302 16.6768 7.30859C16.736 7.2593 16.8197 7.17874 16.9053 7.06738C17.0725 6.85012 17.2501 6.50728 17.2501 6C17.25 5.49272 17.0725 5.14986 16.9053 4.93262C16.8199 4.82153 16.736 4.7417 16.6768 4.69238C16.6475 4.66795 16.625 4.65078 16.6133 4.64258L16.6055 4.6377L16.3575 3.61426Z" fill="#48465C"/>
</svg>
