<svg width="24" height="24" viewBox="0 0 24 24" fill="none" xmlns="http://www.w3.org/2000/svg">
<path fill-rule="evenodd" clip-rule="evenodd" d="M18.0001 11.25C20.6235 11.25 22.7501 13.3766 22.7501 16C22.7501 17.7601 21.7925 19.2966 20.3702 20.1172C19.9971 20.9265 19.2989 21.57 18.1202 22.0088C16.8105 22.4964 14.8682 22.75 12.0001 22.75C9.97452 22.75 8.41962 22.6232 7.22663 22.3818C6.0369 22.1409 5.15591 21.7763 4.52644 21.2637C3.24748 20.2222 3.24894 18.7633 3.25007 17.6016V17.5C3.25007 15.8661 4.41968 14.5394 5.97565 13.6641C7.55509 12.7757 9.68663 12.25 12.0001 12.25C12.9684 12.25 13.9018 12.342 14.7745 12.5127C15.6214 11.7289 16.755 11.25 18.0001 11.25ZM12.0001 13.75C9.89543 13.75 8.02693 14.2315 6.71101 14.9717C5.37159 15.7251 4.75007 16.6487 4.75007 17.5C4.75007 18.8078 4.79043 19.5442 5.4737 20.1006C5.84423 20.4024 6.46422 20.6965 7.52448 20.9111C8.58137 21.125 10.0262 21.25 12.0001 21.25C14.5778 21.25 16.2399 21.0363 17.3106 20.7002C15.0141 20.3662 13.2501 18.3891 13.2501 16C13.2501 15.2323 13.4325 14.5071 13.7559 13.8652C13.1942 13.7902 12.6062 13.75 12.0001 13.75ZM18.0001 12.75C16.2053 12.7501 14.7501 14.2052 14.7501 16C14.7501 17.7948 16.2053 19.2499 18.0001 19.25C19.795 19.25 21.2501 17.7949 21.2501 16C21.2501 14.2051 19.795 12.75 18.0001 12.75ZM18.8038 14.1367C19.0967 13.844 19.5715 13.8439 19.8643 14.1367C20.1569 14.4296 20.1569 14.9044 19.8643 15.1973L19.0606 16.001L19.8633 16.8037C20.1562 17.0966 20.1562 17.5714 19.8633 17.8643C19.5704 18.1568 19.0955 18.157 18.8028 17.8643L18.0001 17.0615L17.1973 17.8643C16.9045 18.1569 16.4297 18.1568 16.1368 17.8643C15.8439 17.5714 15.844 17.0966 16.1368 16.8037L16.9395 16.001L16.1368 15.1973C15.8439 14.9044 15.8439 14.4296 16.1368 14.1367C16.4297 13.844 16.9046 13.8439 17.1973 14.1367L18.0001 14.9395L18.8038 14.1367ZM12.0001 1.25C14.6235 1.25 16.7501 3.37665 16.7501 6C16.7501 8.62335 14.6235 10.75 12.0001 10.75C9.37676 10.75 7.25007 8.62333 7.25007 6C7.25007 3.37667 9.37676 1.25003 12.0001 1.25ZM12.0001 2.75C10.2052 2.75003 8.75007 4.20509 8.75007 6C8.75007 7.79491 10.2052 9.24997 12.0001 9.25C13.795 9.25 15.2501 7.79493 15.2501 6C15.2501 4.20507 13.795 2.75 12.0001 2.75Z" fill="#48465C"/>
</svg>
