<svg width="24" height="24" viewBox="0 0 24 24" fill="none" xmlns="http://www.w3.org/2000/svg">
<path fill-rule="evenodd" clip-rule="evenodd" d="M12.0001 12.25C14.3135 12.25 16.445 12.7758 18.0245 13.6641C19.5804 14.5394 20.7501 15.8661 20.7501 17.5V17.6016C20.7512 18.7634 20.7527 20.2222 19.4737 21.2637C18.8443 21.7761 17.9639 22.141 16.7745 22.3818C15.5815 22.6232 14.0259 22.75 12.0001 22.75C9.97452 22.75 8.41962 22.6232 7.22663 22.3818C6.0369 22.1409 5.15591 21.7763 4.52644 21.2637C3.24748 20.2222 3.24894 18.7633 3.25007 17.6016V17.5C3.25007 15.8661 4.41969 14.5394 5.97565 13.6641C7.55509 12.7757 9.68663 12.25 12.0001 12.25ZM12.0001 13.75C9.89543 13.75 8.02693 14.2315 6.71101 14.9717C5.37159 15.7251 4.75007 16.6487 4.75007 17.5C4.75007 18.8078 4.79043 19.5442 5.4737 20.1006C5.84423 20.4024 6.46422 20.6965 7.52448 20.9111C8.58137 21.125 10.0262 21.25 12.0001 21.25C13.9743 21.25 15.4197 21.125 16.4766 20.9111C17.5366 20.6966 18.1559 20.4023 18.5264 20.1006C19.2097 19.5442 19.2501 18.8078 19.2501 17.5C19.2501 16.6487 18.6285 15.7251 17.2891 14.9717C15.9731 14.2316 14.1046 13.75 12.0001 13.75ZM12.0001 1.25C14.6235 1.25 16.7501 3.37665 16.7501 6C16.7501 8.62335 14.6235 10.75 12.0001 10.75C9.37676 10.75 7.25007 8.62333 7.25007 6C7.25007 3.37667 9.37676 1.25003 12.0001 1.25ZM12.0001 2.75C10.2052 2.75003 8.75007 4.20509 8.75007 6C8.75007 7.79491 10.2052 9.24997 12.0001 9.25C13.795 9.25 15.2501 7.79493 15.2501 6C15.2501 4.20507 13.795 2.75 12.0001 2.75Z" fill="#48465C"/>
</svg>
