<svg width="24" height="24" viewBox="0 0 24 24" fill="none" xmlns="http://www.w3.org/2000/svg">
<path d="M10 12.9997C14.4183 12.9997 18 15.0144 18 17.4997C18 19.985 18 21.9997 10 21.9997C2.00001 21.9997 2 19.985 2 17.4997C2 15.0144 5.58172 12.9997 10 12.9997ZM18.3564 1.61394C18.5695 1.25876 19.0305 1.14399 19.3857 1.3571H19.3877L19.3887 1.35808L19.3926 1.36101L19.4023 1.36687C19.4097 1.37142 19.4188 1.37744 19.4297 1.38445C19.4516 1.39862 19.4807 1.41762 19.5156 1.44206C19.5859 1.49128 19.6817 1.56219 19.793 1.65495C20.015 1.84004 20.3055 2.11695 20.5947 2.49284C21.1774 3.25057 21.75 4.40732 21.75 5.99968C21.75 7.59234 21.1775 8.74975 20.5947 9.50749C20.3056 9.88327 20.015 10.1593 19.793 10.3444C19.6817 10.4372 19.5859 10.5081 19.5156 10.5573C19.4807 10.5817 19.4516 10.6008 19.4297 10.6149C19.4244 10.6184 19.4195 10.6219 19.415 10.6247C19.4106 10.6276 19.4059 10.6303 19.4023 10.6325L19.3926 10.6393L19.3887 10.6413L19.3877 10.6423C19.3873 10.6425 19.3859 10.6428 19 9.99968L19.3857 10.6432C19.0306 10.8561 18.5695 10.7405 18.3564 10.3854C18.1446 10.0318 18.2579 9.57328 18.6094 9.35906L18.6152 9.35613C18.6225 9.35142 18.6367 9.34243 18.6562 9.32878C18.6953 9.30144 18.7559 9.25547 18.832 9.19206C18.9849 9.06466 19.1946 8.86637 19.4053 8.59245C19.8225 8.05019 20.25 7.20703 20.25 5.99968C20.25 4.7924 19.8225 3.94915 19.4053 3.40691C19.1946 3.13306 18.9849 2.93468 18.832 2.8073C18.7562 2.74412 18.6953 2.69891 18.6562 2.67156L18.6094 2.64031C18.2579 2.42602 18.1444 1.96755 18.3564 1.61394ZM10 1.99968C12.2091 1.99968 14 3.79054 14 5.99968C14 8.20882 12.2091 9.99968 10 9.99968C7.79086 9.99968 6 8.20882 6 5.99968C6 3.79054 7.79086 1.99968 10 1.99968ZM16.3564 3.61394C16.5695 3.25876 17.0305 3.14399 17.3857 3.3571L17 3.99968C17.3683 3.38585 17.3856 3.35814 17.3867 3.3571L17.3887 3.35808L17.3916 3.36003L17.3994 3.36492L17.4189 3.37663C17.4335 3.38607 17.4513 3.39884 17.4727 3.41374C17.5156 3.44382 17.5723 3.48603 17.6367 3.53972C17.765 3.64668 17.9306 3.80397 18.0947 4.01726C18.4275 4.44998 18.75 5.10708 18.75 5.99968C18.75 6.89227 18.4275 7.54936 18.0947 7.9821C17.9305 8.19561 17.765 8.35366 17.6367 8.46062C17.5723 8.51432 17.5156 8.55554 17.4727 8.58562C17.4513 8.60052 17.4336 8.61329 17.4189 8.62273L17.3994 8.63445L17.3916 8.63933L17.3887 8.64128L17.3867 8.64226L17.3857 8.64324C17.0306 8.85614 16.5695 8.74052 16.3564 8.38542C16.1454 8.0333 16.2575 7.57736 16.6055 7.36199L16.6133 7.3571C16.625 7.3489 16.6468 7.33247 16.6758 7.30827C16.735 7.25899 16.8196 7.17851 16.9053 7.06706C17.0724 6.84979 17.25 6.50689 17.25 5.99968C17.25 5.49243 17.0725 5.14955 16.9053 4.9323C16.8196 4.82085 16.735 4.74038 16.6758 4.69109C16.6467 4.66688 16.6249 4.65043 16.6133 4.64226L16.6055 4.63738L16.3564 3.61394Z" fill="#48465C"/>
</svg>
