<svg width="24" height="24" viewBox="0 0 24 24" fill="none" xmlns="http://www.w3.org/2000/svg">
<path fill-rule="evenodd" clip-rule="evenodd" d="M18.0001 11.25C20.6235 11.25 22.7501 13.3766 22.7501 16C22.7501 17.7601 21.7926 19.2966 20.3702 20.1172C19.9972 20.9265 19.2989 21.57 18.1202 22.0088C16.8105 22.4964 14.8682 22.75 12.0001 22.75C9.97451 22.75 8.41961 22.6232 7.22663 22.3818C6.03689 22.1409 5.15591 21.7763 4.52644 21.2637C3.24747 20.2222 3.24894 18.7633 3.25007 17.6016V17.5C3.25007 15.8661 4.41968 14.5394 5.97565 13.6641C7.55507 12.7757 9.68662 12.25 12.0001 12.25C12.9684 12.25 13.9019 12.3419 14.7745 12.5127C15.6215 11.7289 16.755 11.2501 18.0001 11.25ZM12.0001 13.75C9.89542 13.75 8.02691 14.2315 6.71101 14.9717C5.37159 15.7251 4.75007 16.6487 4.75007 17.5C4.75007 18.8078 4.79043 19.5442 5.4737 20.1006C5.84423 20.4024 6.46421 20.6965 7.52448 20.9111C8.58136 21.125 10.0262 21.25 12.0001 21.25C14.5778 21.25 16.2399 21.0363 17.3106 20.7002C15.0141 20.3662 13.2501 18.3891 13.2501 16C13.2501 15.2323 13.4325 14.5071 13.7559 13.8652C13.1942 13.7902 12.6062 13.75 12.0001 13.75ZM18.0001 12.75C16.2053 12.7501 14.7501 14.2052 14.7501 16C14.7501 17.7948 16.2053 19.2499 18.0001 19.25C19.795 19.25 21.2501 17.7949 21.2501 16C21.2501 14.2051 19.795 12.75 18.0001 12.75ZM19.0001 15.25C19.4143 15.25 19.7501 15.5858 19.7501 16C19.7501 16.4142 19.4143 16.75 19.0001 16.75H17.0001C16.5859 16.75 16.2501 16.4142 16.2501 16C16.2501 15.5858 16.5859 15.25 17.0001 15.25H19.0001ZM12.0001 1.25C14.6234 1.25 16.7501 3.37665 16.7501 6C16.7501 8.62335 14.6234 10.75 12.0001 10.75C9.37674 10.75 7.25007 8.62333 7.25007 6C7.25007 3.37667 9.37674 1.25004 12.0001 1.25ZM12.0001 2.75C10.2052 2.75004 8.75007 4.20509 8.75007 6C8.75007 7.79491 10.2052 9.24996 12.0001 9.25C13.795 9.25 15.2501 7.79493 15.2501 6C15.2501 4.20507 13.795 2.75 12.0001 2.75Z" fill="#48465C"/>
</svg>
