<svg width="24" height="24" viewBox="0 0 24 24" fill="none" xmlns="http://www.w3.org/2000/svg">
<path fill-rule="evenodd" clip-rule="evenodd" d="M10 13.0003C14.4183 13.0003 18 15.015 18 17.5003C18 19.9855 17.9997 22.0003 10 22.0003C2.00034 22.0003 2 19.9855 2 17.5003C2 15.015 5.58172 13.0003 10 13.0003ZM18.3564 1.61457C18.5695 1.25945 19.0306 1.1438 19.3857 1.35676L19.3877 1.35773L19.3887 1.35871L19.3926 1.36066L19.4023 1.36652C19.4097 1.37108 19.4188 1.37704 19.4297 1.3841C19.4516 1.3983 19.4805 1.41814 19.5156 1.44269C19.5859 1.49191 19.6817 1.56283 19.793 1.65559C20.015 1.84066 20.3056 2.11673 20.5947 2.4925C21.1775 3.25024 21.75 4.40766 21.75 6.00031C21.75 7.59267 21.1774 8.74944 20.5947 9.50715C20.3055 9.88308 20.015 10.1599 19.793 10.345C19.6817 10.4378 19.5859 10.5087 19.5156 10.5579C19.4807 10.5824 19.4516 10.6014 19.4297 10.6155C19.4243 10.619 19.4195 10.6225 19.415 10.6253C19.4106 10.6282 19.406 10.6309 19.4023 10.6331L19.3926 10.639L19.3887 10.6409L19.3877 10.6419C19.3873 10.6421 19.3858 10.6432 19 10.0003L19.3857 10.6429C19.0305 10.856 18.5695 10.7413 18.3564 10.3861C18.1444 10.0324 18.2579 9.57399 18.6094 9.35969L18.6562 9.32844C18.6953 9.30109 18.7562 9.25587 18.832 9.19269C18.9849 9.06532 19.1946 8.8669 19.4053 8.59309C19.8224 8.05086 20.25 7.20755 20.25 6.00031C20.25 4.79297 19.8225 3.9498 19.4053 3.40754C19.1946 3.13359 18.9849 2.93534 18.832 2.80793C18.7559 2.74452 18.6954 2.69856 18.6562 2.67121C18.6367 2.65756 18.6225 2.64859 18.6152 2.64387L18.6094 2.64094C18.2578 2.42674 18.1446 1.96819 18.3564 1.61457ZM10 2.00031C12.2091 2.00031 14 3.79117 14 6.00031C13.9998 8.20931 12.209 10.0003 10 10.0003C7.79097 10.0003 6.00017 8.20931 6 6.00031C6 3.79117 7.79086 2.00031 10 2.00031ZM16.3564 3.61457C16.5695 3.25946 17.0306 3.14381 17.3857 3.35676L17 4.00031C17.3597 3.40086 17.3847 3.36026 17.3867 3.35773L17.3887 3.35871L17.3916 3.36066L17.3994 3.36555L17.4189 3.37726C17.4336 3.38671 17.4513 3.39947 17.4727 3.41437C17.5156 3.44445 17.5723 3.48568 17.6367 3.53937C17.765 3.64634 17.9305 3.8044 18.0947 4.01789C18.4275 4.45063 18.75 5.10777 18.75 6.00031C18.75 6.89287 18.4275 7.55003 18.0947 7.98273C17.9306 8.19601 17.7649 8.35333 17.6367 8.46027C17.5723 8.51397 17.5156 8.55617 17.4727 8.58625C17.4515 8.60101 17.4335 8.613 17.4189 8.62238L17.3994 8.63508L17.3916 8.63996L17.3887 8.64191L17.3867 8.64289H17.3857C17.0305 8.856 16.5695 8.74123 16.3564 8.38605C16.1453 8.0339 16.2574 7.57804 16.6055 7.36262L16.6133 7.35676C16.6251 7.34846 16.6469 7.33205 16.6758 7.30793C16.735 7.25865 16.8196 7.17913 16.9053 7.06769C17.0725 6.85046 17.25 6.50755 17.25 6.00031C17.25 5.49297 17.0725 5.14921 16.9053 4.93195C16.8197 4.8207 16.7349 4.74095 16.6758 4.69172C16.6468 4.66755 16.625 4.65111 16.6133 4.64289L16.6055 4.63801L16.3564 3.61457Z" fill="#48465C"/>
</svg>
