<svg width="24" height="24" viewBox="0 0 24 24" fill="none" xmlns="http://www.w3.org/2000/svg">
<path d="M18 11.25C19.3114 11.25 20.5007 11.7829 21.3594 12.6416C22.2179 13.5004 22.75 14.6887 22.75 16C22.75 17.7601 21.7925 19.2966 20.3701 20.1172C19.9971 20.9265 19.2989 21.57 18.1201 22.0088C16.8104 22.4964 14.8681 22.75 12 22.75C9.97444 22.75 8.41955 22.6232 7.22657 22.3818C6.03683 22.1409 5.15584 21.7763 4.52637 21.2637C3.24741 20.2222 3.24888 18.7633 3.25001 17.6016V17.5C3.25001 15.8661 4.41962 14.5394 5.97559 13.6641C7.55501 12.7757 9.68656 12.25 12 12.25C12.9684 12.25 13.9018 12.3419 14.7744 12.5127C15.6215 11.7289 16.755 11.2501 18 11.25ZM12 13.75C9.89536 13.75 8.02685 14.2315 6.71094 14.9717C5.37153 15.7251 4.75001 16.6487 4.75001 17.5C4.75001 18.8078 4.79037 19.5442 5.47364 20.1006C5.84417 20.4024 6.46415 20.6965 7.52442 20.9111C8.5813 21.125 10.0261 21.25 12 21.25C14.5781 21.25 16.2407 21.0365 17.3115 20.7002C16.2754 20.5495 15.3471 20.064 14.6416 19.3584C13.7829 18.4997 13.25 17.3114 13.25 16C13.25 15.2323 13.4324 14.5071 13.7559 13.8652C13.1942 13.7902 12.6061 13.75 12 13.75ZM16.294 18.7666C16.7899 19.0732 17.374 19.25 18 19.25C19.7949 19.25 21.25 17.7949 21.25 16C21.25 15.3739 21.0732 14.7899 20.7666 14.2939L16.294 18.7666ZM18 12.75C16.2052 12.7501 14.75 14.2052 14.75 16C14.75 16.626 14.9268 17.2102 15.2334 17.7061L19.7061 13.2334C19.2102 12.9268 18.626 12.75 18 12.75ZM12 1.25C14.6233 1.25 16.75 3.37665 16.75 6C16.75 8.62335 14.6233 10.75 12 10.75C9.37668 10.75 7.25001 8.62333 7.25001 6C7.25001 3.37667 9.37668 1.25004 12 1.25ZM12 2.75C10.2051 2.75004 8.75001 4.20509 8.75001 6C8.75001 7.79491 10.2051 9.24996 12 9.25C13.7949 9.25 15.25 7.79493 15.25 6C15.25 4.20507 13.7949 2.75 12 2.75Z" fill="#48465C"/>
</svg>
