<svg width="24" height="24" viewBox="0 0 24 24" fill="none" xmlns="http://www.w3.org/2000/svg">
<path fill-rule="evenodd" clip-rule="evenodd" d="M10.0001 12.25C12.3135 12.25 14.445 12.7758 16.0245 13.6641C17.5804 14.5394 18.7501 15.8661 18.7501 17.5V17.6016C18.7512 18.7634 18.7527 20.2222 17.4737 21.2637C16.8443 21.7761 15.9639 22.141 14.7745 22.3818C13.5815 22.6232 12.0259 22.75 10.0001 22.75C7.97452 22.75 6.41962 22.6232 5.22663 22.3818C4.0369 22.1409 3.15591 21.7763 2.52644 21.2637C1.24747 20.2222 1.24894 18.7633 1.25007 17.6016V17.5C1.25007 15.8661 2.41969 14.5394 3.97565 13.6641C5.55509 12.7757 7.68663 12.25 10.0001 12.25ZM10.0001 13.75C7.89543 13.75 6.02693 14.2315 4.71101 14.9717C3.37159 15.7251 2.75007 16.6487 2.75007 17.5C2.75007 18.8078 2.79043 19.5442 3.4737 20.1006C3.84423 20.4024 4.46422 20.6965 5.52448 20.9111C6.58137 21.125 8.02619 21.25 10.0001 21.25C11.9743 21.25 13.4197 21.125 14.4766 20.9111C15.5366 20.6966 16.1559 20.4023 16.5264 20.1006C17.2097 19.5442 17.2501 18.8078 17.2501 17.5C17.2501 16.6487 16.6285 15.7251 15.2891 14.9717C13.9731 14.2316 12.1046 13.75 10.0001 13.75ZM16.6905 7.44629C17.4111 7.12743 18.248 7.18832 19.0001 7.67871C19.7522 7.18836 20.589 7.12753 21.3096 7.44629C22.1646 7.82467 22.75 8.69881 22.7501 9.69922C22.7501 10.6474 22.3361 11.3613 21.8399 11.9023C21.4526 12.3246 20.9732 12.6813 20.5948 12.9629C20.5135 13.0234 20.4364 13.0803 20.3663 13.1338L20.3643 13.1357C20.2157 13.2492 20.0231 13.3962 19.8204 13.5107C19.6165 13.6261 19.3343 13.75 19.0001 13.75C18.666 13.75 18.3836 13.6261 18.1798 13.5107C17.977 13.3962 17.7845 13.2492 17.6358 13.1357L17.6339 13.1338C17.5639 13.0803 17.4875 13.0232 17.4063 12.9629C17.0279 12.6812 16.5485 12.3246 16.1612 11.9023C15.6648 11.3612 15.2501 10.6476 15.2501 9.69922C15.2501 8.69881 15.8354 7.82467 16.6905 7.44629ZM20.7032 8.81836C20.437 8.70055 20.0129 8.68843 19.5323 9.17188C19.3915 9.31347 19.1998 9.39355 19.0001 9.39355C18.8004 9.39354 18.6086 9.31346 18.4678 9.17188C17.9874 8.6887 17.5641 8.70069 17.2979 8.81836C16.9904 8.95442 16.7501 9.28727 16.7501 9.69922C16.7501 10.1632 16.9385 10.532 17.2657 10.8887C17.5477 11.1962 17.885 11.4476 18.2569 11.7256C18.3504 11.7955 18.4462 11.8668 18.544 11.9414C18.7065 12.0654 18.8188 12.149 18.918 12.2051C18.9581 12.2277 18.9848 12.2394 19.0001 12.2451C19.0154 12.2394 19.0421 12.2278 19.0821 12.2051C19.1814 12.149 19.2946 12.0654 19.4571 11.9414C19.5547 11.8668 19.6508 11.7955 19.7442 11.7256C20.1161 11.4477 20.4525 11.1961 20.7344 10.8887C21.0616 10.532 21.2501 10.1632 21.2501 9.69922C21.25 9.28743 21.0105 8.95453 20.7032 8.81836ZM10.0001 1.25C12.6235 1.25 14.7501 3.37665 14.7501 6C14.7501 8.62335 12.6235 10.75 10.0001 10.75C7.37676 10.75 5.25007 8.62333 5.25007 6C5.25007 3.37667 7.37676 1.25003 10.0001 1.25ZM10.0001 2.75C8.20518 2.75003 6.75007 4.20509 6.75007 6C6.75007 7.79491 8.20518 9.24997 10.0001 9.25C11.795 9.25 13.2501 7.79493 13.2501 6C13.2501 4.20507 11.795 2.75 10.0001 2.75Z" fill="#48465C"/>
</svg>
