<svg width="24" height="24" viewBox="0 0 24 24" fill="none" xmlns="http://www.w3.org/2000/svg">
<path fill-rule="evenodd" clip-rule="evenodd" d="M16.7499 22H14.2499V14H16.7499V22ZM12.7499 21.9912C11.664 21.9636 11.0248 21.8529 10.5859 21.4141C10.0835 20.9118 10.0121 20.1469 10.0019 18.75H12.7499V21.9912ZM20.998 18.75C20.9878 20.1469 20.9164 20.9118 20.414 21.4141C19.9751 21.853 19.3359 21.9636 18.2499 21.9912V18.75H20.998ZM2.46967 12.4697C2.76256 12.1769 3.23734 12.1768 3.53021 12.4697L4.53021 13.4697C4.82308 13.7626 4.82308 14.2374 4.53021 14.5303C4.31974 14.7407 4.01527 14.8001 3.75189 14.708C3.75404 14.9959 3.75859 15.2921 3.7685 15.5674C3.77773 15.8241 3.79071 16.0515 3.80951 16.2305C3.82448 16.3729 3.83953 16.4465 3.84467 16.4717C3.847 16.4832 3.84728 16.4848 3.84467 16.4785C3.97154 16.7847 4.21514 17.0285 4.52143 17.1553C4.59858 17.1873 4.71632 17.216 4.95697 17.2324C5.2044 17.2493 5.52395 17.25 5.99994 17.25C6.41412 17.25 6.74994 17.5858 6.74994 18C6.74994 18.4142 6.41412 18.75 5.99994 18.75H5.97455C5.53012 18.75 5.15903 18.7503 4.85443 18.7295C4.53736 18.7079 4.23758 18.6613 3.94721 18.541C3.2735 18.2619 2.73804 17.7264 2.45893 17.0527C2.37446 16.8488 2.33932 16.5876 2.3183 16.3877C2.2943 16.1594 2.27925 15.8931 2.26947 15.6211C2.25881 15.3249 2.2541 15.0085 2.25189 14.707C1.98767 14.801 1.68118 14.7417 1.46967 14.5303C1.17678 14.2374 1.17678 13.7626 1.46967 13.4697L2.46967 12.4697ZM12.7499 17.25H10.0019C10.0121 15.8532 10.0835 15.0882 10.5859 14.5859C11.0248 14.1471 11.664 14.0374 12.7499 14.0098V17.25ZM18.2499 14.0098C19.3359 14.0374 19.9751 14.1471 20.414 14.5859C20.9164 15.0882 20.9878 15.8531 20.998 17.25H18.2499V14.0098ZM18.0253 5.25C18.4697 5.24999 18.8409 5.24973 19.1454 5.27051C19.4625 5.29214 19.7623 5.33872 20.0527 5.45898C20.7263 5.7381 21.2619 6.27359 21.541 6.94727C21.6254 7.15119 21.6605 7.41234 21.6816 7.6123C21.7056 7.84056 21.7206 8.10694 21.7304 8.37891C21.741 8.67507 21.7458 8.99146 21.748 9.29297C22.0122 9.19903 22.3187 9.25823 22.5302 9.46973C22.8231 9.76261 22.8231 10.2374 22.5302 10.5303L21.5302 11.5303C21.2373 11.8232 20.7626 11.8231 20.4697 11.5303L19.4697 10.5303C19.1768 10.2374 19.1768 9.76262 19.4697 9.46973C19.6802 9.25922 19.9846 9.19989 20.248 9.29199C20.2459 9.00417 20.2413 8.70792 20.2314 8.43262C20.2221 8.17587 20.2082 7.94857 20.1894 7.76953C20.1744 7.62707 20.1603 7.55355 20.1552 7.52832C20.1529 7.51682 20.1525 7.51517 20.1552 7.52148C20.0283 7.21519 19.7847 6.9716 19.4785 6.84473C19.4013 6.81277 19.2836 6.784 19.0429 6.76758C18.7955 6.75072 18.4759 6.75 17.9999 6.75C17.5857 6.75 17.2499 6.41421 17.2499 6C17.2499 5.58579 17.5857 5.25 17.9999 5.25H18.0253ZM10.2499 10H6.74994V2H10.2499V10ZM5.24994 9.99805C3.85302 9.98786 3.08823 9.9164 2.58588 9.41406C2.08352 8.91171 2.01208 8.14694 2.00189 6.75H5.24994V9.99805ZM14.998 6.75C14.9878 8.14691 14.9164 8.91171 14.414 9.41406C13.9117 9.91642 13.1468 9.98786 11.7499 9.99805V6.75H14.998ZM5.24994 5.25H2.00189C2.01208 3.85315 2.0836 3.08829 2.58588 2.58594C3.08823 2.08358 3.853 2.01214 5.24994 2.00195V5.25ZM11.7499 2.00195C13.1468 2.01214 13.9117 2.08359 14.414 2.58594C14.9163 3.08829 14.9878 3.8532 14.998 5.25H11.7499V2.00195Z" fill="#48465C"/>
</svg>
