<svg width="24" height="24" viewBox="0 0 24 24" fill="none" xmlns="http://www.w3.org/2000/svg">
<path fill-rule="evenodd" clip-rule="evenodd" d="M11.4844 3.55917C12.3104 3.15791 13.1242 2.93524 13.9424 3.21445C14.2142 3.30721 14.476 3.43996 14.7109 3.60507C15.417 4.10123 15.716 4.88544 15.8779 5.78476C16.0371 6.66911 16.0914 7.84147 16.1592 9.30136L16.1621 9.35898C16.2139 10.4736 16.25 11.4466 16.25 11.9986C16.25 12.5506 16.2139 13.5243 16.1621 14.6393L16.1592 14.6969C16.0914 16.1565 16.0371 17.3282 15.8779 18.2125C15.716 19.1118 15.4169 19.896 14.7109 20.3922C14.476 20.5574 14.2143 20.691 13.9424 20.7838C13.1242 21.063 12.3104 20.8394 11.4844 20.4381C10.6709 20.0429 9.68374 19.3921 8.45312 18.5807L8.18652 18.4049C7.73861 18.1095 7.58415 18.0113 7.4248 17.941C7.25433 17.8658 7.07533 17.8119 6.8916 17.7809C6.71984 17.7519 6.53652 17.7486 6 17.7486H5.83887C4.62217 17.7493 3.77693 17.7496 3.02539 17.4019C2.33059 17.0805 1.66098 16.4519 1.29785 15.7779C0.905285 15.0493 0.859442 14.2872 0.793945 13.2037C0.791347 13.1608 0.788815 13.1168 0.786133 13.0728C0.763694 12.7046 0.75 12.3401 0.75 11.9986C0.750011 11.6573 0.763712 11.2934 0.786133 10.9254C0.788815 10.8814 0.791347 10.8374 0.793945 10.7945C0.859444 9.71107 0.905348 8.94893 1.29785 8.22031C1.66098 7.54635 2.33059 6.91677 3.02539 6.59531C3.77686 6.24779 4.62231 6.24799 5.83887 6.24863C5.89181 6.24866 5.94564 6.24863 6 6.24863C6.53652 6.24863 6.71984 6.24639 6.8916 6.21738C7.07531 6.18633 7.25435 6.13244 7.4248 6.05722C7.58414 5.9869 7.73868 5.88864 8.18652 5.59335L8.45312 5.41757C9.68388 4.60606 10.6708 3.95439 11.4844 3.55917ZM13.458 4.63437C13.2089 4.54934 12.8527 4.56293 12.1406 4.90878C11.4265 5.25572 10.5211 5.85048 9.23145 6.70078L9.01172 6.84531C8.99523 6.85619 8.97895 6.86694 8.96289 6.87753C8.58294 7.12816 8.31957 7.30196 8.03125 7.42929C7.74689 7.55478 7.4471 7.64512 7.14062 7.69687C6.82988 7.74929 6.51459 7.74873 6.05957 7.74863H6C4.55699 7.74863 4.06946 7.76517 3.65527 7.95664C3.25492 8.14187 2.82838 8.54387 2.61914 8.93222C2.40097 9.33727 2.36024 9.75227 2.2832 11.0162C2.26206 11.363 2.25001 11.6954 2.25 11.9986C2.25 12.3018 2.26205 12.6351 2.2832 12.982C2.36024 14.246 2.4009 14.661 2.61914 15.066C2.82838 15.4544 3.25492 15.8554 3.65527 16.0406C4.06953 16.2322 4.55666 16.2486 6 16.2486C6.01996 16.2486 6.04013 16.2487 6.05957 16.2486C6.51461 16.2486 6.82987 16.249 7.14062 16.3014C7.4471 16.3532 7.74689 16.4425 8.03125 16.568C8.31965 16.6953 8.58288 16.869 8.96289 17.1197C8.97906 17.1304 8.99511 17.142 9.01172 17.1529L9.23145 17.2965C10.5212 18.147 11.4264 18.7424 12.1406 19.0894C12.8526 19.4352 13.209 19.4488 13.458 19.3639C13.5953 19.317 13.7299 19.2491 13.8486 19.1656C14.0652 19.0133 14.2625 18.7183 14.4014 17.9469C14.5408 17.1721 14.592 16.1003 14.6631 14.5699C14.7152 13.4504 14.75 12.5103 14.75 11.9986C14.75 11.4867 14.7152 10.5475 14.6631 9.42832C14.592 7.89763 14.5409 6.82524 14.4014 6.05039C14.2625 5.27944 14.0652 4.98483 13.8486 4.83261C13.7299 4.7492 13.5953 4.68125 13.458 4.63437ZM19.5811 5.37656C19.8962 5.16396 20.3276 5.22082 20.5762 5.51914L20.5771 5.52011L20.5781 5.52207L20.582 5.52597L20.5889 5.53476C20.5946 5.54186 20.602 5.55131 20.6104 5.5621C20.627 5.58364 20.6487 5.61263 20.6748 5.64902C20.727 5.72214 20.7971 5.82577 20.8779 5.96054C21.0398 6.23035 21.2465 6.62539 21.4502 7.15488C21.8584 8.21625 22.25 9.808 22.25 11.9996C22.25 14.1908 21.8584 15.782 21.4502 16.8434C21.2464 17.3732 21.0398 17.7688 20.8779 18.0387C20.7971 18.1733 20.727 18.2761 20.6748 18.3492C20.6486 18.3858 20.6271 18.4155 20.6104 18.4371C20.6055 18.4433 20.6007 18.4486 20.5967 18.4537C20.594 18.4571 20.5912 18.4607 20.5889 18.4635L20.582 18.4732L20.5781 18.4762L20.5771 18.4781C20.5764 18.4776 20.5554 18.4624 20 17.9996L20.5762 18.4791C20.311 18.7973 19.8377 18.841 19.5195 18.5758C19.2029 18.3119 19.1593 17.8422 19.4199 17.524L19.4297 16.7975L19.4238 17.5191C19.4292 17.5122 19.4395 17.4985 19.4541 17.4781C19.4838 17.4364 19.531 17.3657 19.5908 17.2662C19.7101 17.0674 19.8787 16.7504 20.0498 16.3053C20.3916 15.4167 20.75 14.0078 20.75 11.9996C20.75 9.99113 20.3916 8.58159 20.0498 7.69296C19.8787 7.248 19.7101 6.93089 19.5908 6.73203C19.5819 6.7171 19.5719 6.70364 19.5635 6.69003L19.5811 5.37656ZM19.5635 6.69003L19.4297 16.7975L19.5098 6.60703C19.5258 6.63139 19.5441 6.65873 19.5635 6.69003ZM17.6357 8.34335C17.9978 8.14224 18.4542 8.27328 18.6553 8.63535L18.6572 8.6373L18.6592 8.64121L18.6631 8.64804L18.6719 8.6666C18.679 8.68059 18.6881 8.69803 18.6982 8.71933C18.7187 8.76236 18.745 8.8206 18.7744 8.89414C18.8332 9.04122 18.906 9.24996 18.9766 9.52499C19.1179 10.0759 19.25 10.8895 19.25 11.9996C19.25 13.1095 19.1178 13.9224 18.9766 14.4732C18.906 14.7483 18.8332 14.957 18.7744 15.1041C18.745 15.1776 18.7187 15.2359 18.6982 15.2789C18.6881 15.3004 18.6791 15.3186 18.6719 15.3326L18.6592 15.358L18.6572 15.3609L18.6562 15.3619C18.6541 15.3609 18.6184 15.3426 18.0273 15.0143L18.6553 15.3639C18.454 15.7256 17.9977 15.8559 17.6357 15.6549C17.2768 15.4554 17.1451 15.0047 17.3389 14.6441L17.3447 14.6344C17.3516 14.62 17.3644 14.591 17.3818 14.5475C17.4167 14.4603 17.469 14.3125 17.5234 14.1002C17.6321 13.6761 17.75 12.9891 17.75 11.9996C17.75 11.0097 17.6321 10.3221 17.5234 9.89804C17.469 9.68576 17.4167 9.53799 17.3818 9.45078C17.3646 9.40782 17.3517 9.37936 17.3447 9.36484L17.3389 9.3541C17.1453 8.99356 17.2768 8.54276 17.6357 8.34335ZM19.5098 6.60703C19.4865 6.57157 19.4691 6.5421 19.4541 6.52109C19.4393 6.50032 19.4291 6.48596 19.4238 6.4791C19.4225 6.47731 19.4204 6.47582 19.4199 6.47519C19.1591 6.15718 19.2032 5.6874 19.5195 5.42343L19.5098 6.60703Z" fill="#48465C"/>
</svg>
