<svg width="24" height="24" viewBox="0 0 24 24" fill="none" xmlns="http://www.w3.org/2000/svg">
<path d="M14.9844 3.55992C15.8104 3.15866 16.6242 2.93503 17.4424 3.21421C17.7143 3.30699 17.9759 3.44063 18.2109 3.60581C18.917 4.10203 19.216 4.88607 19.3779 5.7855C19.5371 6.66984 19.5914 7.84226 19.6592 9.3021L19.6621 9.35874C19.7139 10.4737 19.75 11.4474 19.75 11.9994C19.75 12.5514 19.7139 13.525 19.6621 14.64L19.6592 14.6966C19.5914 16.1565 19.5371 17.3288 19.3779 18.2132C19.216 19.1126 18.917 19.8967 18.2109 20.3929C17.9759 20.5581 17.7143 20.6917 17.4424 20.7845C16.6242 21.0637 15.8104 20.8401 14.9844 20.4388C14.1708 20.0436 13.1838 19.3929 11.9531 18.5814L11.6865 18.4056C11.2386 18.1102 11.0842 18.0111 10.9248 17.9408C10.7544 17.8656 10.5753 17.8116 10.3916 17.7806C10.2199 17.7516 10.0365 17.7494 9.5 17.7494H9.33887C8.12225 17.7501 7.27689 17.7503 6.52539 17.4027C5.83059 17.0813 5.16098 16.4517 4.79785 15.7777C4.40548 15.0491 4.35943 14.2868 4.29395 13.2035C4.29136 13.1607 4.2888 13.1174 4.28613 13.0736C4.26368 12.7053 4.25 12.3409 4.25 11.9994C4.25 11.6578 4.26368 11.2934 4.28613 10.9252C4.2888 10.8813 4.29136 10.838 4.29395 10.7953C4.35943 9.71196 4.4055 8.94958 4.79785 8.22105C5.16098 7.54709 5.83059 6.91751 6.52539 6.59605C7.2769 6.24846 8.12223 6.24873 9.33887 6.24937C9.39181 6.2494 9.44564 6.24937 9.5 6.24937C10.0365 6.24937 10.2199 6.24713 10.3916 6.21812C10.5753 6.18708 10.7544 6.13316 10.9248 6.05796C11.0842 5.98763 11.2386 5.88845 11.6865 5.59312L11.9531 5.41734C13.1837 4.60588 14.1708 3.95514 14.9844 3.55992ZM16.958 4.63413C16.7089 4.5491 16.3528 4.5636 15.6406 4.90953C14.9265 5.25648 14.0212 5.85116 12.7314 6.70152L12.5117 6.84605C12.4952 6.85692 12.479 6.86769 12.4629 6.87828C12.0829 7.12895 11.8196 7.3027 11.5312 7.43003C11.2469 7.55552 10.9471 7.64488 10.6406 7.69663C10.3298 7.74907 10.0146 7.74947 9.55957 7.74937H9.5C8.05682 7.74937 7.5695 7.76585 7.15527 7.95738C6.755 8.14257 6.32842 8.54371 6.11914 8.93199C5.90086 9.33711 5.86025 9.75276 5.7832 11.0169C5.76207 11.3638 5.75 11.6962 5.75 11.9994C5.75 12.3025 5.76206 12.635 5.7832 12.9818C5.86025 14.246 5.90086 14.6617 6.11914 15.0668C6.32843 15.4551 6.75501 15.8562 7.15527 16.0414C7.56949 16.2329 8.05683 16.2494 9.5 16.2494C9.51996 16.2494 9.54013 16.2495 9.55957 16.2494C10.0146 16.2494 10.3298 16.2497 10.6406 16.3021C10.9471 16.3539 11.2469 16.4432 11.5312 16.5687C11.8196 16.6961 12.0829 16.8698 12.4629 17.1205C12.4789 17.131 12.4952 17.1418 12.5117 17.1527L12.7314 17.2972C14.0211 18.1476 14.9265 18.7422 15.6406 19.0892C16.3528 19.4351 16.7089 19.4496 16.958 19.3646C17.0954 19.3177 17.2299 19.2489 17.3486 19.1654C17.5651 19.013 17.7625 18.7186 17.9014 17.9476C18.0409 17.1727 18.092 16.1005 18.1631 14.5697C18.2152 13.4503 18.25 12.511 18.25 11.9994C18.25 11.4876 18.2152 10.5484 18.1631 9.42906C18.092 7.89831 18.0409 6.82601 17.9014 6.05113C17.7625 5.28012 17.5651 4.98564 17.3486 4.83335C17.2299 4.7499 17.0954 4.68101 16.958 4.63413Z" fill="#48465C"/>
</svg>
