<svg width="24" height="24" viewBox="0 0 24 24" fill="none" xmlns="http://www.w3.org/2000/svg">
<path d="M9.64844 6.19165C11.9868 4.54762 13.1563 3.72546 14.1377 4.08227C14.3257 4.15071 14.5083 4.24953 14.6709 4.37134C15.5193 5.00716 15.584 6.48693 15.7129 9.44555C15.7607 10.5411 15.793 11.4788 15.793 12.0002C15.793 12.5218 15.7607 13.4595 15.7129 14.5549C15.584 17.5133 15.5192 18.9923 14.6709 19.6282C14.5082 19.7501 14.3258 19.8497 14.1377 19.9182C13.1563 20.2749 11.9867 19.4528 9.64844 17.8088C9.05567 17.392 8.75917 17.1838 8.42871 17.0627C8.36015 17.0376 8.29092 17.0146 8.2207 16.9954C7.88237 16.9025 7.52711 16.9026 6.81738 16.9026C4.83051 16.9026 3.83649 16.9029 3.08398 16.2678C2.94663 16.1518 2.78259 15.9801 2.6709 15.8362C2.05915 15.0476 2.04027 14.1264 2.00293 12.2844C2.00097 12.1878 2 12.0929 2 12.0002C2 11.9076 2.00098 11.8126 2.00293 11.7161C2.04027 9.87382 2.05897 8.95185 2.6709 8.16333C2.78258 8.01945 2.94672 7.84856 3.08398 7.73266C3.8365 7.09749 4.83043 7.0979 6.81738 7.0979C7.52711 7.0979 7.88237 7.098 8.2207 7.00513C8.29092 6.98585 8.36015 6.96285 8.42871 6.93774C8.75917 6.81667 9.05567 6.60841 9.64844 6.19165ZM19.6055 5.46899C19.888 5.30729 20.2477 5.37378 20.4609 5.64673L20.4619 5.6477L20.4629 5.64966L20.4658 5.65259L20.4727 5.66235C20.4778 5.66929 20.4845 5.67822 20.4922 5.68872C20.5076 5.70984 20.5279 5.73797 20.5518 5.77368C20.5998 5.84539 20.6639 5.94714 20.7383 6.07934C20.8871 6.34385 21.0774 6.73113 21.2646 7.25024C21.6399 8.2909 22 9.85151 22 12.0002C22 14.149 21.6399 15.7095 21.2646 16.7502C21.0772 17.2696 20.8872 17.6575 20.7383 17.9221C20.664 18.0541 20.5997 18.1551 20.5518 18.2268C20.5278 18.2626 20.5076 18.2916 20.4922 18.3127C20.4845 18.3233 20.4778 18.3322 20.4727 18.3391L20.4658 18.3479L20.4629 18.3518L20.4619 18.3528C20.4616 18.3531 20.4604 18.3548 19.9307 17.884L20.4609 18.3547C20.2171 18.6666 19.7818 18.7084 19.4893 18.4485C19.1982 18.1897 19.1577 17.7292 19.3975 17.4172C19.398 17.4166 19.3991 17.4152 19.4004 17.4133C19.4053 17.4067 19.4151 17.3927 19.4287 17.3723C19.4561 17.3314 19.5008 17.2629 19.5557 17.1653C19.6654 16.9702 19.8191 16.6584 19.9766 16.2219C20.2908 15.3506 20.6211 13.9694 20.6211 12.0002C20.6211 10.0311 20.2909 8.64985 19.9766 7.77856C19.8192 7.34245 19.6653 7.03124 19.5557 6.83618C19.5008 6.73871 19.4561 6.67006 19.4287 6.62915C19.415 6.6087 19.4053 6.59484 19.4004 6.58813C19.3989 6.58605 19.398 6.58399 19.3975 6.58325L19.6055 5.46899ZM17.7568 8.41626C18.0898 8.21904 18.5104 8.34648 18.6953 8.70141V8.70337L18.6963 8.70434L18.6982 8.70727L18.7012 8.71411L18.71 8.73266C18.7166 8.74638 18.7251 8.76352 18.7344 8.78442C18.7532 8.82661 18.7777 8.88419 18.8047 8.9563C18.8588 9.10051 18.9254 9.30511 18.9902 9.57446C19.1201 10.1147 19.2412 10.9119 19.2412 12.0002C19.2412 13.0887 19.1201 13.8858 18.9902 14.426C18.9253 14.6959 18.8589 14.9009 18.8047 15.0452C18.7777 15.1172 18.7532 15.1739 18.7344 15.2161C18.725 15.2372 18.7167 15.255 18.71 15.2688L18.7012 15.2864L18.6982 15.2932L18.6963 15.2961L18.6953 15.2981C18.6925 15.2969 18.654 15.2747 18.0918 14.9416L18.6953 15.2991C18.5104 15.6542 18.0898 15.7825 17.7568 15.5852C17.4268 15.3897 17.3062 14.9475 17.4844 14.594L17.4893 14.5842C17.4955 14.5702 17.5074 14.5418 17.5234 14.4993C17.5555 14.4138 17.6043 14.269 17.6543 14.0608C17.7543 13.645 17.8623 12.9708 17.8623 12.0002C17.8623 11.0298 17.7543 10.3555 17.6543 9.9397C17.6043 9.73179 17.5555 9.58766 17.5234 9.5022C17.5074 9.4596 17.4956 9.43141 17.4893 9.41723L17.4844 9.40649C17.3065 9.05314 17.4271 8.61183 17.7568 8.41626Z" fill="#48465C"/>
</svg>
