<svg width="24" height="24" viewBox="0 0 24 24" fill="none" xmlns="http://www.w3.org/2000/svg">
<path fill-rule="evenodd" clip-rule="evenodd" d="M11.4844 3.55917C12.3104 3.15791 13.1242 2.93524 13.9424 3.21445C14.2142 3.30721 14.476 3.43996 14.7109 3.60507C15.417 4.10123 15.716 4.88544 15.8779 5.78476C16.0371 6.66911 16.0914 7.84147 16.1592 9.30136L16.1621 9.35898C16.2139 10.4736 16.25 11.4466 16.25 11.9986C16.25 12.5506 16.2139 13.5243 16.1621 14.6393L16.1592 14.6969C16.0914 16.1565 16.0371 17.3282 15.8779 18.2125C15.716 19.1118 15.4169 19.896 14.7109 20.3922C14.476 20.5574 14.2143 20.691 13.9424 20.7838C13.1242 21.063 12.3104 20.8394 11.4844 20.4381C10.6709 20.0429 9.68374 19.3921 8.45312 18.5807L8.18652 18.4049C7.73861 18.1095 7.58415 18.0113 7.4248 17.941C7.25433 17.8658 7.07533 17.8119 6.8916 17.7809C6.71984 17.7519 6.53652 17.7486 6 17.7486H5.83887C4.62217 17.7493 3.77693 17.7496 3.02539 17.4019C2.33059 17.0805 1.66098 16.4519 1.29785 15.7779C0.905285 15.0493 0.859442 14.2872 0.793945 13.2037C0.791347 13.1608 0.788815 13.1168 0.786133 13.0728C0.763694 12.7046 0.75 12.3401 0.75 11.9986C0.750011 11.6573 0.763712 11.2934 0.786133 10.9254C0.788815 10.8814 0.791347 10.8374 0.793945 10.7945C0.859444 9.71107 0.905348 8.94893 1.29785 8.22031C1.66098 7.54635 2.33059 6.91677 3.02539 6.59531C3.77686 6.24779 4.62231 6.24799 5.83887 6.24863C5.89181 6.24866 5.94564 6.24863 6 6.24863C6.53652 6.24863 6.71984 6.24639 6.8916 6.21738C7.07531 6.18633 7.25435 6.13244 7.4248 6.05722C7.58414 5.9869 7.73868 5.88864 8.18652 5.59335L8.45312 5.41757C9.68388 4.60606 10.6708 3.95439 11.4844 3.55917ZM13.458 4.63437C13.2089 4.54934 12.8527 4.56293 12.1406 4.90878C11.4265 5.25572 10.5211 5.85048 9.23145 6.70078L9.01172 6.84531C8.99523 6.85619 8.97895 6.86694 8.96289 6.87753C8.58294 7.12816 8.31957 7.30196 8.03125 7.42929C7.74689 7.55478 7.4471 7.64512 7.14062 7.69687C6.82988 7.74929 6.51459 7.74873 6.05957 7.74863H6C4.55699 7.74863 4.06946 7.76517 3.65527 7.95664C3.25492 8.14187 2.82838 8.54387 2.61914 8.93222C2.40097 9.33727 2.36024 9.75227 2.2832 11.0162C2.26206 11.363 2.25001 11.6954 2.25 11.9986C2.25 12.3018 2.26205 12.6351 2.2832 12.982C2.36024 14.246 2.4009 14.661 2.61914 15.066C2.82838 15.4544 3.25492 15.8554 3.65527 16.0406C4.06953 16.2322 4.55666 16.2486 6 16.2486C6.01996 16.2486 6.04013 16.2487 6.05957 16.2486C6.51461 16.2486 6.82987 16.249 7.14062 16.3014C7.4471 16.3532 7.74689 16.4425 8.03125 16.568C8.31965 16.6953 8.58288 16.869 8.96289 17.1197C8.97906 17.1304 8.99511 17.142 9.01172 17.1529L9.23145 17.2965C10.5212 18.147 11.4264 18.7424 12.1406 19.0894C12.8526 19.4352 13.209 19.4488 13.458 19.3639C13.5953 19.317 13.7299 19.2491 13.8486 19.1656C14.0652 19.0133 14.2625 18.7183 14.4014 17.9469C14.5408 17.1721 14.592 16.1003 14.6631 14.5699C14.7152 13.4504 14.75 12.5103 14.75 11.9986C14.75 11.4867 14.7152 10.5475 14.6631 9.42832C14.592 7.89763 14.5409 6.82524 14.4014 6.05039C14.2625 5.27944 14.0652 4.98483 13.8486 4.83261C13.7299 4.7492 13.5953 4.68125 13.458 4.63437ZM17.6357 8.34335C17.9978 8.14219 18.4552 8.27424 18.6562 8.63632C18.6637 8.65076 18.6881 8.69796 18.6982 8.71933C18.7187 8.76235 18.745 8.82059 18.7744 8.89414C18.8332 9.04127 18.906 9.24998 18.9766 9.52499C19.1179 10.0759 19.25 10.8885 19.25 11.9986C19.25 13.1086 19.1178 13.9214 18.9766 14.4723C18.906 14.7476 18.8332 14.9569 18.7744 15.1041C18.745 15.1775 18.7187 15.2359 18.6982 15.2789C18.6882 15.3 18.68 15.3177 18.6729 15.3316C18.4717 15.6937 17.9978 15.8559 17.6357 15.6549C17.2768 15.4554 17.1461 15.0046 17.3398 14.6441L17.3818 14.5465C17.4167 14.4593 17.4691 14.3122 17.5234 14.1002C17.6321 13.6761 17.75 12.9884 17.75 11.9986C17.75 11.0091 17.6321 10.3221 17.5234 9.89804C17.469 9.68576 17.4167 9.53799 17.3818 9.45078C17.3645 9.40756 17.3469 9.36882 17.3398 9.3541C17.1461 8.99359 17.2769 8.54286 17.6357 8.34335Z" fill="#48465C"/>
</svg>
