<svg width="24" height="24" viewBox="0 0 24 24" fill="none" xmlns="http://www.w3.org/2000/svg">
<path d="M10.9854 6.19132C13.4265 4.54731 14.6472 3.72582 15.6719 4.08292C15.8683 4.15139 16.0587 4.25008 16.2285 4.37198C17.1141 5.00784 17.1818 6.487 17.3164 9.44523C17.3662 10.5406 17.3994 11.4784 17.3994 11.9999C17.3994 12.5214 17.3662 13.4592 17.3164 14.5546C17.1818 17.5132 17.1143 18.993 16.2285 19.6288C16.0587 19.7507 15.8683 19.8494 15.6719 19.9179C14.6472 20.2748 13.4266 19.4525 10.9854 17.8085C10.3666 17.3918 10.0568 17.1835 9.71191 17.0624C9.64029 17.0372 9.56747 17.0153 9.49414 16.996C9.14092 16.9031 8.77027 16.9032 8.0293 16.9032C5.95492 16.9032 4.91746 16.9026 4.13184 16.2675C3.98845 16.1515 3.8168 15.9807 3.7002 15.8368C3.06138 15.0483 3.0419 14.127 3.00293 12.2851C3.00088 12.1884 3 12.0927 3 11.9999C3 11.9072 3.00088 11.8123 3.00293 11.7157C3.04191 9.87366 3.06151 8.95245 3.7002 8.16398C3.8168 8.02005 3.98845 7.84927 4.13184 7.73331C4.91749 7.09798 5.95476 7.09757 8.0293 7.09757C8.77027 7.09757 9.14092 7.09767 9.49414 7.0048C9.56751 6.9855 9.64026 6.96353 9.71191 6.93839C10.0569 6.81732 10.3665 6.60806 10.9854 6.19132ZM19.4502 8.41593C19.7978 8.21874 20.2366 8.34705 20.4297 8.70206V8.70304L20.4307 8.70402L20.4326 8.70792L20.4355 8.71476L20.4453 8.73234C20.4522 8.74614 20.4609 8.76398 20.4707 8.78507C20.4904 8.82721 20.5149 8.88408 20.543 8.95597C20.5995 9.10027 20.6696 9.30525 20.7373 9.57511C20.873 10.1153 21 10.9126 21 12.0009C21 13.0889 20.873 13.8856 20.7373 14.4257C20.6696 14.6955 20.5995 14.9005 20.543 15.0448C20.5148 15.1169 20.4904 15.1745 20.4707 15.2167C20.461 15.2376 20.4522 15.2548 20.4453 15.2685L20.4355 15.287L20.4326 15.2939L20.4307 15.2968L20.4297 15.2978C20.4258 15.2958 20.3781 15.2704 19.7998 14.9423L20.4297 15.2987C20.2366 15.6538 19.7978 15.7822 19.4502 15.5849C19.1056 15.3894 18.9799 14.9473 19.166 14.5937L19.1709 14.5839C19.1775 14.5698 19.1895 14.5414 19.2061 14.4989C19.2396 14.4134 19.2905 14.2687 19.3428 14.0605C19.4471 13.6447 19.5595 12.971 19.5596 12.0009C19.5596 11.0305 19.4472 10.3562 19.3428 9.94034C19.2905 9.7322 19.2396 9.58738 19.2061 9.50187C19.1894 9.45928 19.1775 9.43098 19.1709 9.41691L19.166 9.40714C18.9799 9.05359 19.1056 8.6115 19.4502 8.41593Z" fill="#48465C"/>
</svg>
