<svg width="24" height="24" viewBox="0 0 24 24" fill="none" xmlns="http://www.w3.org/2000/svg">
<path fill-rule="evenodd" clip-rule="evenodd" d="M14.9844 3.55917C15.8104 3.15791 16.6242 2.93524 17.4424 3.21445C17.7142 3.30721 17.976 3.43996 18.2109 3.60507C18.917 4.10123 19.216 4.88544 19.3779 5.78476C19.5371 6.66911 19.5914 7.84147 19.6592 9.30136L19.6621 9.35898C19.7139 10.4736 19.75 11.4466 19.75 11.9986C19.75 12.5506 19.7139 13.5243 19.6621 14.6393L19.6592 14.6969C19.5914 16.1565 19.5371 17.3282 19.3779 18.2125C19.216 19.1118 18.9169 19.896 18.2109 20.3922C17.976 20.5574 17.7143 20.691 17.4424 20.7838C16.6242 21.063 15.8104 20.8394 14.9844 20.4381C14.1709 20.0429 13.1837 19.3921 11.9531 18.5807L11.6865 18.4049C11.2386 18.1095 11.0842 18.0113 10.9248 17.941C10.7543 17.8658 10.5753 17.8119 10.3916 17.7809C10.2199 17.7519 10.0365 17.7486 9.5 17.7486H9.33887C8.12217 17.7493 7.27693 17.7496 6.52539 17.4019C5.83059 17.0805 5.16098 16.4519 4.79785 15.7779C4.40528 15.0493 4.35944 14.2872 4.29395 13.2037C4.29135 13.1608 4.28881 13.1168 4.28613 13.0728C4.26369 12.7046 4.25 12.3401 4.25 11.9986C4.25001 11.6573 4.26371 11.2934 4.28613 10.9254C4.28881 10.8814 4.29135 10.8374 4.29395 10.7945C4.35944 9.71107 4.40535 8.94893 4.79785 8.22031C5.16098 7.54635 5.83059 6.91677 6.52539 6.59531C7.27686 6.24779 8.12231 6.24799 9.33887 6.24863C9.39181 6.24866 9.44564 6.24863 9.5 6.24863C10.0365 6.24863 10.2199 6.24639 10.3916 6.21738C10.5753 6.18633 10.7544 6.13244 10.9248 6.05722C11.0842 5.9869 11.2387 5.88863 11.6865 5.59335L11.9531 5.41757C13.1838 4.60606 14.1708 3.95439 14.9844 3.55917ZM16.958 4.63437C16.7089 4.54934 16.3527 4.56293 15.6406 4.90878C14.9265 5.25572 14.0211 5.85048 12.7314 6.70078L12.5117 6.84531C12.4952 6.85618 12.479 6.86695 12.4629 6.87753C12.0829 7.12817 11.8195 7.30196 11.5312 7.42929C11.2469 7.55478 10.9471 7.64512 10.6406 7.69687C10.3299 7.74929 10.0145 7.74873 9.55957 7.74863H9.5C8.05699 7.74863 7.56946 7.76517 7.15527 7.95664C6.75492 8.14187 6.32838 8.54387 6.11914 8.93222C5.90097 9.33727 5.86024 9.75227 5.7832 11.0162C5.76206 11.363 5.75001 11.6954 5.75 11.9986C5.75 12.3018 5.76205 12.6351 5.7832 12.982C5.86024 14.246 5.9009 14.661 6.11914 15.066C6.32838 15.4544 6.75492 15.8554 7.15527 16.0406C7.56953 16.2322 8.05666 16.2486 9.5 16.2486C9.51996 16.2486 9.54013 16.2487 9.55957 16.2486C10.0146 16.2486 10.3299 16.249 10.6406 16.3014C10.9471 16.3532 11.2469 16.4425 11.5312 16.568C11.8196 16.6953 12.0829 16.869 12.4629 17.1197C12.479 17.1304 12.4951 17.142 12.5117 17.1529L12.7314 17.2965C14.0212 18.147 14.9264 18.7424 15.6406 19.0894C16.3526 19.4352 16.709 19.4488 16.958 19.3639C17.0953 19.317 17.2299 19.2491 17.3486 19.1656C17.5652 19.0133 17.7625 18.7183 17.9014 17.9469C18.0408 17.1721 18.092 16.1003 18.1631 14.5699C18.2152 13.4504 18.25 12.5103 18.25 11.9986C18.25 11.4867 18.2152 10.5475 18.1631 9.42832C18.092 7.89763 18.0409 6.82524 17.9014 6.05039C17.7625 5.27944 17.5652 4.98483 17.3486 4.83261C17.2299 4.7492 17.0953 4.68125 16.958 4.63437Z" fill="#48465C"/>
</svg>
