<svg width="24" height="24" viewBox="0 0 24 24" fill="none" xmlns="http://www.w3.org/2000/svg">
<path d="M12.7637 6.19126C15.1372 4.54724 16.3242 3.72477 17.3203 4.08189C17.5113 4.15036 17.6961 4.25003 17.8613 4.37192C18.7221 5.00787 18.7882 6.48699 18.9189 9.44517C18.9674 10.5406 19 11.4783 19 11.9999C19 12.5214 18.9674 13.459 18.9189 14.5545C18.7881 17.5131 18.7224 18.993 17.8613 19.6288C17.6962 19.7506 17.5113 19.8493 17.3203 19.9178C16.3242 20.2749 15.1372 19.4525 12.7637 17.8084C12.1622 17.3917 11.8608 17.1835 11.5254 17.0624C11.4557 17.0372 11.3848 17.0143 11.3135 16.995C10.9701 16.9022 10.6098 16.9022 9.88965 16.9022C7.87307 16.9022 6.86436 16.9024 6.10059 16.2674C5.96121 16.1515 5.79403 15.9806 5.68066 15.8368C5.05955 15.0482 5.04082 14.1262 5.00293 12.284C5.00094 12.1875 5 12.0925 5 11.9999C5 11.9072 5.00093 11.8123 5.00293 11.7157C5.04081 9.87373 5.05985 8.95235 5.68066 8.16392C5.79403 8.01999 5.96118 7.84824 6.10059 7.73228C6.86435 7.09734 7.87314 7.09751 9.88965 7.09751C10.6098 7.09751 10.9701 7.09754 11.3135 7.00474C11.3848 6.98544 11.4557 6.9625 11.5254 6.93735C11.8608 6.81627 12.1622 6.60794 12.7637 6.19126Z" fill="#48465C"/>
</svg>
