<svg width="24" height="24" viewBox="0 0 24 24" fill="none" xmlns="http://www.w3.org/2000/svg">
<path d="M11.4844 3.55992C12.3104 3.15866 13.1242 2.93503 13.9424 3.21421C14.2143 3.30699 14.4759 3.44063 14.7109 3.60581C15.417 4.10203 15.716 4.88607 15.8779 5.7855C16.0371 6.66984 16.0914 7.84226 16.1592 9.3021L16.1621 9.35874C16.2139 10.4737 16.25 11.4474 16.25 11.9994C16.25 12.5514 16.2139 13.525 16.1621 14.64L16.1592 14.6966C16.0914 16.1565 16.0371 17.3288 15.8779 18.2132C15.716 19.1126 15.417 19.8967 14.7109 20.3929C14.4759 20.5581 14.2143 20.6917 13.9424 20.7845C13.1242 21.0637 12.3104 20.8401 11.4844 20.4388C10.6708 20.0436 9.68382 19.3929 8.45312 18.5814L8.18652 18.4056C7.73861 18.1102 7.58415 18.0111 7.4248 17.9408C7.25436 17.8656 7.07528 17.8116 6.8916 17.7806C6.71984 17.7516 6.53652 17.7494 6 17.7494H5.83887C4.62225 17.7501 3.77689 17.7503 3.02539 17.4027C2.33059 17.0813 1.66098 16.4517 1.29785 15.7777C0.905479 15.0491 0.859437 14.2868 0.793945 13.2035C0.791358 13.1607 0.788804 13.1174 0.786133 13.0736C0.763687 12.7053 0.75 12.3409 0.75 11.9994C0.750001 11.6578 0.763687 11.2934 0.786133 10.9252C0.788804 10.8813 0.791358 10.838 0.793945 10.7953C0.859435 9.71196 0.905499 8.94958 1.29785 8.22105C1.66098 7.54709 2.33059 6.91751 3.02539 6.59605C3.7769 6.24846 4.62223 6.24873 5.83887 6.24937C5.89181 6.2494 5.94564 6.24937 6 6.24937C6.53652 6.24937 6.71984 6.24713 6.8916 6.21812C7.07528 6.18708 7.25437 6.13315 7.4248 6.05796C7.58415 5.98763 7.73861 5.88845 8.18652 5.59312L8.45312 5.41734C9.6838 4.60588 10.6708 3.95514 11.4844 3.55992ZM13.458 4.63413C13.2089 4.5491 12.8528 4.5636 12.1406 4.90953C11.4265 5.25648 10.5212 5.85116 9.23145 6.70152L9.01172 6.84605C8.99523 6.85693 8.97895 6.86768 8.96289 6.87828C8.58288 7.12894 8.31962 7.3027 8.03125 7.43003C7.74689 7.55552 7.4471 7.64488 7.14062 7.69663C6.82985 7.74908 6.51463 7.74947 6.05957 7.74937H6C4.55682 7.74937 4.0695 7.76585 3.65527 7.95738C3.255 8.14257 2.82842 8.54371 2.61914 8.93199C2.40086 9.33711 2.36025 9.75276 2.2832 11.0169C2.26207 11.3638 2.25 11.6962 2.25 11.9994C2.25 12.3025 2.26206 12.635 2.2832 12.9818C2.36025 14.246 2.40086 14.6617 2.61914 15.0668C2.82843 15.4551 3.25501 15.8562 3.65527 16.0414C4.06949 16.2329 4.55683 16.2494 6 16.2494C6.01996 16.2494 6.04013 16.2495 6.05957 16.2494C6.51464 16.2494 6.82985 16.2497 7.14062 16.3021C7.4471 16.3539 7.74689 16.4432 8.03125 16.5687C8.31962 16.6961 8.58289 16.8698 8.96289 17.1205C8.97895 17.1311 8.99523 17.1418 9.01172 17.1527L9.23145 17.2972C10.5211 18.1476 11.4265 18.7422 12.1406 19.0892C12.8528 19.4351 13.2089 19.4496 13.458 19.3646C13.5954 19.3177 13.7299 19.2489 13.8486 19.1654C14.0651 19.013 14.2625 18.7186 14.4014 17.9476C14.5409 17.1727 14.592 16.1005 14.6631 14.5697C14.7152 13.4503 14.75 12.511 14.75 11.9994C14.75 11.4876 14.7152 10.5484 14.6631 9.42906C14.592 7.89831 14.5409 6.82601 14.4014 6.05113C14.2625 5.28012 14.0651 4.98564 13.8486 4.83335C13.7299 4.7499 13.5954 4.68101 13.458 4.63413ZM17.6357 8.34312C17.9978 8.14202 18.4551 8.27414 18.6562 8.63609C18.6635 8.65006 18.6879 8.69736 18.6982 8.7191C18.7187 8.76208 18.745 8.82044 18.7744 8.8939C18.8332 9.04106 18.906 9.25052 18.9766 9.52574C19.1178 10.0767 19.25 10.8894 19.25 11.9994C19.25 13.1094 19.1179 13.9221 18.9766 14.473C18.906 14.7481 18.8332 14.9567 18.7744 15.1039C18.745 15.1774 18.7187 15.2357 18.6982 15.2787C18.6881 15.3001 18.68 15.3183 18.6729 15.3324C18.4717 15.6945 17.9978 15.8557 17.6357 15.6546C17.2769 15.4551 17.1461 15.0043 17.3398 14.6439L17.3818 14.5472C17.4167 14.46 17.469 14.3123 17.5234 14.1C17.6321 13.6759 17.75 12.9888 17.75 11.9994C17.75 11.0095 17.6321 10.3219 17.5234 9.89781C17.4691 9.68586 17.4167 9.53875 17.3818 9.45152C17.3643 9.40787 17.3467 9.36825 17.3398 9.35386C17.1461 8.99329 17.2767 8.54257 17.6357 8.34312Z" fill="#48465C"/>
</svg>
