<svg width="24" height="24" viewBox="0 0 24 24" fill="none" xmlns="http://www.w3.org/2000/svg">
<path d="M21.4697 1.46967C21.7626 1.17678 22.2374 1.17678 22.5303 1.46967C22.8231 1.76256 22.8232 2.23734 22.5303 2.53021L2.53027 22.5302C2.23739 22.8231 1.76261 22.8231 1.46973 22.5302C1.17684 22.2373 1.17685 21.7626 1.46973 21.4697L5.19141 17.748C4.30839 17.7385 3.63585 17.6856 3.02539 17.4033C2.33059 17.0819 1.66098 16.4522 1.29785 15.7783C0.905484 15.0497 0.859436 14.2874 0.793945 13.204C0.791358 13.1612 0.788804 13.118 0.786133 13.0742C0.763688 12.7059 0.750002 12.3415 0.75 11.9999C0.75 11.6584 0.763687 11.294 0.786133 10.9257C0.788802 10.8819 0.79136 10.8386 0.793945 10.7958C0.859435 9.71261 0.905501 8.95014 1.29785 8.22162C1.66098 7.54766 2.33059 6.91808 3.02539 6.59662C3.7769 6.24904 4.62223 6.24929 5.83887 6.24994C5.8918 6.24996 5.94564 6.24994 6 6.24994C6.53652 6.24994 6.71984 6.24769 6.8916 6.21869C7.07528 6.18766 7.25437 6.13372 7.4248 6.05853C7.58415 5.9882 7.73861 5.88902 8.18652 5.59369L8.45312 5.41791C9.68382 4.60644 10.6708 3.95571 11.4844 3.56049C12.3104 3.15923 13.1242 2.9356 13.9424 3.21478C14.2143 3.30756 14.4759 3.44121 14.7109 3.60639C15.3502 4.05567 15.6553 4.74099 15.8271 5.52924C15.9147 5.93144 15.9746 6.39535 16.0205 6.91889L21.4697 1.46967ZM15.5 11.2499C15.9142 11.2499 16.25 11.5857 16.25 11.9999C16.25 12.552 16.2139 13.5257 16.1621 14.6406L16.1592 14.6972C16.0914 16.1571 16.0371 17.3295 15.8779 18.2138C15.716 19.1133 15.417 19.8973 14.7109 20.3935C14.4759 20.5587 14.2143 20.6923 13.9424 20.7851C13.2005 21.0382 12.4629 20.877 11.7207 20.5488C10.9878 20.2246 10.1276 19.6806 9.08887 18.9999C8.74247 18.7729 8.64605 18.3083 8.87305 17.9619C9.10005 17.6155 9.56469 17.518 9.91113 17.7451C10.9698 18.4388 11.7264 18.9109 12.3271 19.1767C12.9186 19.4384 13.2326 19.4422 13.458 19.3652C13.5954 19.3184 13.7299 19.2493 13.8486 19.166C14.0651 19.0136 14.2625 18.7191 14.4014 17.9482C14.5409 17.1733 14.592 16.1011 14.6631 14.5703C14.7152 13.4508 14.75 12.5117 14.75 11.9999C14.75 11.5857 15.0858 11.2499 15.5 11.2499ZM20.2646 6.31635C20.6421 6.14607 21.0866 6.31381 21.2568 6.69135C21.7239 7.72649 22.25 9.45953 22.25 11.9999C22.25 14.1912 21.8583 15.7824 21.4502 16.8437C21.2464 17.3734 21.0398 17.7692 20.8779 18.039C20.797 18.1738 20.727 18.2773 20.6748 18.3505C20.6487 18.3869 20.627 18.4159 20.6104 18.4374C20.602 18.4482 20.5946 18.4567 20.5889 18.4638L20.582 18.4736L20.5771 18.4785C20.5744 18.4765 20.5361 18.4466 20 17.9999L20.5762 18.4804C20.3109 18.7984 19.8376 18.8411 19.5195 18.5761C19.203 18.3122 19.1592 17.8425 19.4199 17.5244C19.4199 17.5244 19.4221 17.5217 19.4238 17.5195C19.4292 17.5125 19.4395 17.4989 19.4541 17.4785C19.4838 17.4368 19.5312 17.3668 19.5908 17.2675C19.7101 17.0685 19.8786 16.7508 20.0498 16.3056C20.3916 15.4169 20.75 14.0083 20.75 11.9999C20.75 9.67385 20.2697 8.15109 19.8896 7.30853C19.7192 6.93097 19.887 6.48671 20.2646 6.31635ZM13.458 4.63471C13.2089 4.54968 12.8528 4.56416 12.1406 4.9101C11.4265 5.25705 10.5212 5.85173 9.23145 6.70209L9.01172 6.84662C8.99522 6.85749 8.97896 6.86825 8.96289 6.87885C8.58288 7.12952 8.31962 7.30327 8.03125 7.43061C7.74689 7.5561 7.4471 7.64546 7.14062 7.69721C6.82985 7.74965 6.51464 7.75003 6.05957 7.74994H6C4.55681 7.74994 4.0695 7.76642 3.65527 7.95795C3.255 8.14314 2.82842 8.54428 2.61914 8.93256C2.40086 9.33767 2.36025 9.75331 2.2832 11.0175C2.26207 11.3643 2.25 11.6968 2.25 11.9999C2.25 12.3031 2.26207 12.6355 2.2832 12.9824C2.36025 14.2466 2.40086 14.6622 2.61914 15.0673C2.82843 15.4555 3.25501 15.8567 3.65527 16.0419C4.0695 16.2335 4.55682 16.2499 6 16.2499H6.05957C6.29908 16.2499 6.49985 16.2501 6.68164 16.2578L14.6104 8.32904C14.5528 7.22808 14.4888 6.43411 14.3613 5.84857C14.2254 5.22535 14.0443 4.97159 13.8486 4.83393C13.7299 4.75049 13.5954 4.6816 13.458 4.63471ZM18.1641 9.26557C18.5696 9.1814 18.9666 9.44206 19.0508 9.8476C19.1609 10.378 19.25 11.0889 19.25 11.9999C19.25 13.1099 19.1178 13.9226 18.9766 14.4736C18.906 14.7488 18.8332 14.9582 18.7744 15.1054C18.7451 15.1787 18.7187 15.2363 18.6982 15.2792C18.688 15.3007 18.6791 15.3188 18.6719 15.3329L18.6631 15.3515L18.6592 15.3583L18.6572 15.3613L18.6562 15.3632C18.6562 15.3632 18.6492 15.3611 18.0273 15.0156L18.6553 15.3642C18.4541 15.7261 17.9978 15.8564 17.6357 15.6552C17.2769 15.4558 17.1451 15.005 17.3389 14.6445L17.3447 14.6347C17.3516 14.6203 17.3644 14.5913 17.3818 14.5478C17.4167 14.4606 17.4691 14.3135 17.5234 14.1015C17.6321 13.6775 17.75 12.9898 17.75 11.9999C17.75 11.1872 17.6705 10.5785 17.582 10.1523C17.4979 9.74671 17.7585 9.34976 18.1641 9.26557Z" fill="#48465C"/>
</svg>
