<svg width="24" height="24" viewBox="0 0 24 24" fill="none" xmlns="http://www.w3.org/2000/svg">
<path d="M20.7197 2.46967C21.0126 2.17678 21.4874 2.17678 21.7803 2.46967C22.0731 2.76256 22.0732 3.23734 21.7803 3.53021L3.78027 21.5302C3.48739 21.8231 3.01261 21.8231 2.71973 21.5302C2.42684 21.2373 2.42685 20.7626 2.71973 20.4697L5.44141 17.748C4.55839 17.7385 3.88585 17.6856 3.27539 17.4033C2.58059 17.0819 1.91098 16.4522 1.54785 15.7783C1.15548 15.0497 1.10943 14.2874 1.04395 13.204L1.03613 13.0742C1.01368 12.7059 1 12.3415 1 11.9999C1 11.6584 1.01368 11.294 1.03613 10.9257L1.04395 10.7958C1.10943 9.71261 1.1555 8.95014 1.54785 8.22162C1.91098 7.54766 2.58059 6.91808 3.27539 6.59662C4.0269 6.24904 4.87223 6.24929 6.08887 6.24994H6.25C6.78652 6.24994 6.96984 6.24769 7.1416 6.21869C7.32528 6.18766 7.50437 6.13372 7.6748 6.05853C7.83415 5.9882 7.98861 5.88902 8.43652 5.59369L8.70312 5.41791C9.93382 4.60644 10.9208 3.95571 11.7344 3.56049C12.5604 3.15923 13.3742 2.9356 14.1924 3.21478C14.4643 3.30756 14.7259 3.44121 14.9609 3.60639C15.6002 4.05567 15.9053 4.74099 16.0771 5.52924C16.1647 5.93144 16.2246 6.39535 16.2705 6.91889L20.7197 2.46967ZM15.75 11.2499C16.1642 11.2499 16.5 11.5857 16.5 11.9999C16.5 12.552 16.4639 13.5256 16.4121 14.6406L16.4092 14.6972C16.3414 16.1571 16.2871 17.3295 16.1279 18.2138C15.966 19.1133 15.667 19.8973 14.9609 20.3935C14.726 20.5587 14.4642 20.6913 14.1924 20.7841C13.4504 21.0373 12.7129 20.877 11.9707 20.5488C11.2378 20.2245 10.3776 19.6806 9.33887 18.9999C8.90956 18.7439 8.8294 18.1552 9.1748 17.7939L15.1738 11.5204L15.2451 11.4453C15.3784 11.3238 15.5556 11.25 15.75 11.2499ZM20.5146 6.31635C20.8921 6.14612 21.3365 6.3139 21.5068 6.69135C21.9739 7.72648 22.5 9.45957 22.5 11.9999C22.5 14.1915 22.1084 15.7834 21.7002 16.8447C21.4965 17.3742 21.2898 17.7693 21.1279 18.039C21.047 18.1738 20.977 18.2773 20.9248 18.3505C20.8987 18.3869 20.877 18.4159 20.8604 18.4374C20.852 18.4482 20.8446 18.4577 20.8389 18.4648L20.832 18.4736L20.8271 18.4785C20.8238 18.476 20.7816 18.4429 20.25 17.9999L20.8262 18.4804C20.5609 18.7984 20.0877 18.8412 19.7695 18.5761C19.4531 18.3122 19.4091 17.8424 19.6699 17.5244C19.6702 17.524 19.6723 17.5224 19.6738 17.5204C19.6791 17.5136 19.6892 17.4994 19.7041 17.4785C19.7338 17.4368 19.7811 17.3668 19.8408 17.2675C19.9601 17.0685 20.1286 16.7508 20.2998 16.3056C20.6416 15.4169 21 14.0082 21 11.9999C21 9.67378 20.5197 8.15105 20.1396 7.30853C19.9692 6.93097 20.137 6.48671 20.5146 6.31635ZM18.4141 9.26557C18.8196 9.18142 19.2166 9.44207 19.3008 9.8476C19.4109 10.378 19.5 11.0889 19.5 11.9999C19.5 13.1099 19.3678 13.9226 19.2266 14.4736C19.156 14.7488 19.0832 14.9582 19.0244 15.1054C18.9951 15.1789 18.9687 15.2373 18.9482 15.2802C18.9381 15.3015 18.929 15.319 18.9219 15.3329L18.9121 15.3515L18.9092 15.3583L18.9072 15.3613L18.9062 15.3632C18.9062 15.3632 18.8988 15.3604 18.25 14.9999L18.9053 15.3642C18.7041 15.7262 18.2478 15.8564 17.8857 15.6552C17.5271 15.4558 17.3955 15.0059 17.5889 14.6454L17.5947 14.6347C17.6017 14.6202 17.6144 14.5912 17.6318 14.5478C17.6667 14.4606 17.7191 14.3135 17.7734 14.1015C17.8821 13.6775 18 12.9898 18 11.9999C18 11.1873 17.9205 10.5785 17.832 10.1523C17.748 9.74676 18.0085 9.34975 18.4141 9.26557Z" fill="#48465C"/>
</svg>
