<svg width="24" height="24" viewBox="0 0 24 24" fill="none" xmlns="http://www.w3.org/2000/svg">
<path d="M9.37555 17.084C9.60524 16.7394 10.071 16.6465 10.4156 16.876C10.7602 17.1057 10.8534 17.5714 10.6236 17.916L7.6236 22.416C7.39377 22.7605 6.92813 22.8538 6.58356 22.624C6.23923 22.3943 6.14602 21.9285 6.37555 21.584L9.37555 17.084ZM13.6353 9.25684C14.7492 9.33675 15.7046 10.0824 16.0523 11.1436C16.0831 11.2378 16.1083 11.3408 16.1412 11.4727L16.147 11.4971C16.203 11.7211 16.2204 11.7846 16.2359 11.8291C16.4461 12.4351 17.0805 12.7836 17.7047 12.6357C17.7505 12.6249 17.8135 12.6052 18.0328 12.5322L18.7632 12.2881C19.1561 12.1574 19.5805 12.37 19.7115 12.7627C19.8425 13.1557 19.6299 13.5809 19.2369 13.7119L18.4752 13.9658C18.3033 14.0232 18.1712 14.0672 18.0513 14.0957C16.6782 14.4213 15.2806 13.6545 14.8179 12.3213C14.7775 12.2048 14.7446 12.0695 14.7007 11.8936C14.698 11.8828 14.6948 11.8716 14.692 11.8604C14.6503 11.6941 14.6384 11.6476 14.6265 11.6113C14.4685 11.1289 14.0343 10.7892 13.5279 10.7529C13.4898 10.7502 13.4421 10.75 13.2701 10.75H12.1783L12.0875 11.6611C11.9134 13.4012 11.853 14.101 12.0084 14.7627C12.1639 15.4244 12.5296 16.0241 13.4605 17.5049L16.0357 21.6006C16.2562 21.9513 16.1501 22.4143 15.7994 22.6348C15.4487 22.8551 14.9857 22.75 14.7652 22.3994L12.191 18.3027C12.1665 18.2639 12.1417 18.2256 12.1177 18.1875C11.2831 16.8601 10.768 16.0409 10.5484 15.1064C10.3289 14.1719 10.4253 13.2087 10.5816 11.6484C10.5861 11.6038 10.5907 11.5584 10.5953 11.5127L10.6714 10.751C10.1703 10.7536 9.79887 10.7635 9.49957 10.7998C9.12267 10.8456 8.94641 10.9246 8.82184 11.0244C8.69724 11.1244 8.58213 11.2795 8.45563 11.6377C8.32231 12.0153 8.20659 12.5259 8.03571 13.2949L7.732 14.6631C7.64197 15.0671 7.24162 15.3222 6.83746 15.2324C6.43311 15.1426 6.17827 14.7413 6.26813 14.3369L6.5816 12.9258C6.74005 12.2127 6.87346 11.6122 7.04059 11.1387C7.21802 10.6362 7.45957 10.1944 7.88336 9.85449C8.30705 9.51464 8.79006 9.37477 9.31891 9.31055C9.8174 9.25005 10.4329 9.24997 11.1636 9.25H13.2945C13.4305 9.24997 13.5364 9.24975 13.6353 9.25684ZM12.4996 1.25C14.2945 1.25 15.7496 2.70507 15.7496 4.5C15.7496 6.29493 14.2945 7.75 12.4996 7.75C10.7049 7.74974 9.24957 6.29477 9.24957 4.5C9.24957 2.70523 10.7049 1.25026 12.4996 1.25ZM12.4996 2.75C11.5333 2.75026 10.7496 3.53366 10.7496 4.5C10.7496 5.46634 11.5333 6.24974 12.4996 6.25C13.4661 6.25 14.2496 5.4665 14.2496 4.5C14.2496 3.5335 13.4661 2.75 12.4996 2.75Z" fill="#48465C"/>
</svg>
