<svg width="24" height="24" viewBox="0 0 24 24" fill="none" xmlns="http://www.w3.org/2000/svg">
<path d="M8.37664 17.084C8.60646 16.7395 9.07211 16.6462 9.41668 16.876C9.76105 17.1057 9.85424 17.5715 9.62469 17.916L6.62469 22.416C6.39498 22.7606 5.92927 22.8536 5.58465 22.624C5.24001 22.3943 5.14688 21.9286 5.37664 21.584L8.37664 17.084ZM12.6354 9.25684C13.7493 9.3367 14.7048 10.0824 15.0524 11.1436C15.0833 11.2377 15.1083 11.3407 15.1413 11.4727L15.1471 11.4971C15.2031 11.7211 15.2205 11.7846 15.236 11.8291C15.4462 12.4351 16.0807 12.7836 16.7048 12.6357C16.7505 12.6249 16.8137 12.6052 17.0329 12.5322L17.7634 12.2881C18.1561 12.1573 18.5806 12.37 18.7116 12.7627C18.8425 13.1557 18.63 13.5809 18.237 13.7119L17.4753 13.9658C17.3034 14.0232 17.1713 14.0672 17.0514 14.0957C15.6783 14.4213 14.2818 13.6544 13.819 12.3213C13.7786 12.2048 13.7449 12.0694 13.7009 11.8936C13.6982 11.8827 13.6949 11.8716 13.6921 11.8604C13.6504 11.694 13.6385 11.6476 13.6266 11.6113C13.4685 11.1289 13.0343 10.7892 12.528 10.7529C12.4899 10.7502 12.4421 10.75 12.2702 10.75H11.1794L11.0876 11.6611C10.9136 13.4011 10.8532 14.101 11.0085 14.7627C11.164 15.4244 11.5298 16.0241 12.4606 17.5049L15.0358 21.6006C15.2562 21.9513 15.1502 22.4143 14.7995 22.6348C14.4488 22.8551 13.9857 22.75 13.7653 22.3994L11.1911 18.3027C11.1666 18.2639 11.1418 18.2256 11.1179 18.1875C10.2831 16.8601 9.76813 16.0409 9.54851 15.1064C9.32893 14.1719 9.42543 13.2087 9.58172 11.6484C9.58618 11.6038 9.59082 11.5584 9.59539 11.5127L9.67156 10.751C9.17062 10.7536 8.79989 10.7635 8.50066 10.7998C8.12344 10.8456 7.94657 10.9255 7.82195 11.0254C7.69755 11.1254 7.58206 11.28 7.45574 11.6377C7.32243 12.0153 7.20765 12.526 7.0368 13.2949L6.73211 14.6631C6.64207 15.0671 6.24175 15.3222 5.83758 15.2324C5.43323 15.1426 5.17838 14.7413 5.26824 14.3369L5.58172 12.9258C5.74016 12.2127 5.87358 11.6122 6.0407 11.1387C6.21813 10.6362 6.45971 10.1944 6.88348 9.85449C7.30714 9.51464 7.79019 9.37477 8.31902 9.31055C8.81751 9.25005 9.43308 9.24997 10.1637 9.25H12.2946C12.4307 9.24997 12.5365 9.24975 12.6354 9.25684ZM11.4997 2C12.8805 2 13.9997 3.11929 13.9997 4.5C13.9997 5.88071 12.8805 7 11.4997 7C10.1192 6.99981 8.99969 5.88059 8.99969 4.5C8.99969 3.11941 10.1192 2.00019 11.4997 2Z" fill="#48465C"/>
</svg>
