<svg width="24" height="24" viewBox="0 0 24 24" fill="none" xmlns="http://www.w3.org/2000/svg">
<path fill-rule="evenodd" clip-rule="evenodd" d="M9.37667 17.084C9.60648 16.7395 10.0722 16.6462 10.4167 16.876C10.761 17.1057 10.8543 17.5715 10.6247 17.916L7.62472 22.416C7.39501 22.7606 6.9293 22.8536 6.58468 22.624C6.24004 22.3943 6.14691 21.9286 6.37667 21.584L9.37667 17.084ZM13.6355 9.25684C14.7494 9.33672 15.7047 10.0824 16.0525 11.1436C16.0833 11.2378 16.1084 11.3408 16.1413 11.4727L16.1472 11.4971C16.2032 11.7211 16.2206 11.7846 16.236 11.8291C16.4462 12.4351 17.0807 12.7836 17.7048 12.6357C17.7507 12.6249 17.8137 12.6052 18.0329 12.5322L18.7634 12.2881C19.1562 12.1574 19.5806 12.37 19.7116 12.7627C19.8426 13.1557 19.63 13.5809 19.237 13.7119L18.4753 13.9658C18.3034 14.0232 18.1713 14.0672 18.0515 14.0957C16.6784 14.4213 15.2818 13.6543 14.8191 12.3213C14.7787 12.2048 14.7448 12.0695 14.7009 11.8936C14.6982 11.8828 14.6949 11.8716 14.6921 11.8604C14.6505 11.6941 14.6385 11.6476 14.6267 11.6113C14.4687 11.1289 14.0344 10.7892 13.528 10.7529C13.49 10.7502 13.4422 10.75 13.2702 10.75H12.1794L12.0876 11.6611C11.9135 13.4011 11.8531 14.101 12.0085 14.7627C12.164 15.4244 12.5298 16.0241 13.4607 17.5049L16.0358 21.6006C16.2563 21.9513 16.1502 22.4143 15.7995 22.6348C15.4488 22.8551 14.9858 22.75 14.7653 22.3994L12.1911 18.3027C12.1666 18.2639 12.1419 18.2256 12.1179 18.1875C11.2832 16.8601 10.7682 16.0409 10.5485 15.1064C10.3291 14.1719 10.4255 13.2087 10.5817 11.6484C10.5862 11.6038 10.5908 11.5584 10.5954 11.5127L10.6716 10.751C10.1707 10.7536 9.79992 10.7635 9.50069 10.7998C9.12347 10.8456 8.9466 10.9245 8.82198 11.0244C8.6974 11.1244 8.58226 11.2795 8.45577 11.6377C8.32246 12.0153 8.20768 12.526 8.03683 13.2949L7.73214 14.6631C7.6421 15.0671 7.24178 15.3222 6.83761 15.2324C6.43326 15.1426 6.17841 14.7413 6.26827 14.3369L6.58175 12.9258C6.74019 12.2127 6.8736 11.6122 7.04073 11.1387C7.21816 10.6362 7.45973 10.1944 7.88351 9.85449C8.30717 9.51464 8.79022 9.37477 9.31905 9.31055C9.81752 9.25005 10.4331 9.24997 11.1638 9.25H13.2946C13.4306 9.24997 13.5366 9.24975 13.6355 9.25684ZM12.5007 1.25C14.2954 1.25021 15.7507 2.7052 15.7507 4.5C15.7507 6.2948 14.2954 7.74979 12.5007 7.75C10.7058 7.75 9.25069 6.29493 9.25069 4.5C9.25069 2.70507 10.7058 1.25 12.5007 1.25ZM12.5007 2.75C11.5342 2.75 10.7507 3.5335 10.7507 4.5C10.7507 5.4665 11.5342 6.25 12.5007 6.25C13.467 6.24979 14.2507 5.46637 14.2507 4.5C14.2507 3.53363 13.467 2.75021 12.5007 2.75Z" fill="#48465C"/>
</svg>
