<svg width="24" height="24" viewBox="0 0 24 24" fill="none" xmlns="http://www.w3.org/2000/svg">
<path d="M12.416 5.00014C14.1873 5.00012 15.5905 5.00077 16.6885 5.14955C17.8184 5.30268 18.7329 5.62486 19.4541 6.3517C19.9468 6.84826 20.2538 7.43814 20.4473 8.13002C20.4862 8.2694 20.3779 8.40411 20.2344 8.40053H17.8018C15.0676 8.40053 12.6573 10.5771 12.6572 13.5001C12.6572 16.4232 15.0676 18.6007 17.8018 18.6007H20.2344C20.3779 18.5972 20.4862 18.7308 20.4473 18.8703C20.2538 19.5623 19.9468 20.1519 19.4541 20.6486C18.7329 21.3755 17.8185 21.6986 16.6885 21.8517C15.5905 22.0005 14.1873 22.0001 12.416 22.0001H10.3799C8.60876 22.0001 7.20539 22.0004 6.10742 21.8517C4.97737 21.6986 4.06213 21.3756 3.34082 20.6486C2.6197 19.9217 2.2994 19.0001 2.14746 17.8615C1.99983 16.7548 1.99999 15.3401 2 13.5548V13.4454C1.99998 11.6603 1.99987 10.2464 2.14746 9.13978C2.29939 8.00086 2.61951 7.07869 3.34082 6.3517C4.06213 5.62472 4.97737 5.30267 6.10742 5.14955C7.2054 5.00081 8.60871 5.00013 10.3799 5.00014H12.416ZM20.4102 9.86049C21.2197 9.912 21.9359 10.5508 21.9961 11.4425C22.0001 11.501 22 11.5639 22 11.6222V15.3781C22 15.4364 22.0001 15.4993 21.9961 15.5578C21.9359 16.4496 21.2197 17.0883 20.4102 17.1398C20.3556 17.1433 20.2959 17.1427 20.2344 17.1427H17.8018C15.8089 17.1427 14.1035 15.5619 14.1035 13.5001C14.1035 11.4383 15.8089 9.85756 17.8018 9.85756H20.2344C20.2959 9.85753 20.3556 9.85703 20.4102 9.86049ZM17.5869 12.5285C17.0739 12.5286 16.6582 12.9637 16.6582 13.5001C16.6582 14.0365 17.0739 14.4717 17.5869 14.4718C18.0999 14.4718 18.5166 14.0366 18.5166 13.5001C18.5166 12.9636 18.0999 12.5285 17.5869 12.5285ZM5.61426 8.88588C5.21518 8.88599 4.89172 9.21218 4.8916 9.61439C4.8916 10.0167 5.21511 10.3428 5.61426 10.3429H9.46973C9.86897 10.3429 10.1924 10.0168 10.1924 9.61439C10.1923 9.21211 9.8689 8.88588 9.46973 8.88588H5.61426ZM9.73535 2.58119C10.7872 1.80629 12.2128 1.80625 13.2646 2.58119L15.2334 4.03236C14.4101 4.00035 13.4904 4.00012 12.4824 4.00014H10.3125C9.39143 4.00012 8.54379 4.00012 7.77637 4.02455L9.73535 2.58119Z" fill="#48465C"/>
</svg>
