<svg width="24" height="24" viewBox="0 0 24 24" fill="none" xmlns="http://www.w3.org/2000/svg">
<path d="M9.32129 2.89853C10.6245 2.03447 12.3755 2.03448 13.6787 2.89853L17.4141 5.37509C17.425 5.38233 17.4359 5.38986 17.4463 5.39755L17.4893 5.40341C18.6615 5.56106 19.6101 5.89341 20.3584 6.64169C21.2827 7.56608 21.5776 8.80378 21.6846 10.4102C21.6807 10.4085 21.6767 10.407 21.6729 10.4054C22.2559 10.6573 22.6977 11.1968 22.7461 11.8819C22.7504 11.9421 22.75 12.0074 22.75 12.0675V15.9327C22.75 15.9928 22.7504 16.0581 22.7461 16.1183C22.6977 16.8032 22.2557 17.3419 21.6729 17.5938C21.6766 17.5922 21.6808 17.5916 21.6846 17.5899C21.5776 19.1964 21.2827 20.4341 20.3584 21.3585C19.6101 22.1067 18.6615 22.4391 17.4893 22.5968C16.3501 22.7499 14.8943 22.7501 13.0566 22.7501H9.94336C8.10571 22.7501 6.6499 22.7499 5.51074 22.5968C4.33845 22.4391 3.38992 22.1067 2.6416 21.3585C1.89332 20.6102 1.56095 19.6616 1.40332 18.4894C1.25016 17.3502 1.24998 15.8944 1.25 14.0567V13.9435C1.24998 12.1058 1.25016 10.65 1.40332 9.51083C1.56096 8.33854 1.8933 7.39001 2.6416 6.64169C3.38992 5.89339 4.33845 5.56106 5.51074 5.40341L5.55371 5.39755C5.56411 5.38987 5.57504 5.38233 5.58594 5.37509L9.32129 2.89853ZM10 6.75009C8.09324 6.75009 6.73859 6.75158 5.71094 6.88974C4.70485 7.025 4.12536 7.27904 3.70215 7.70224C3.27894 8.12545 3.02491 8.70494 2.88965 9.71103C2.75149 10.7387 2.75 12.0934 2.75 14.0001C2.75 15.9068 2.7515 17.2615 2.88965 18.2892C3.02491 19.2951 3.27894 19.8747 3.70215 20.2979C4.12536 20.7211 4.70485 20.9752 5.71094 21.1104C6.73859 21.2486 8.09324 21.2501 10 21.2501H13C14.9067 21.2501 16.2614 21.2486 17.2891 21.1104C18.2951 20.9752 18.8747 20.7211 19.2979 20.2979C19.7963 19.7994 20.0542 19.0916 20.168 17.7501H18.2305C16.0854 17.7499 14.25 16.1224 14.25 14.0001C14.25 11.8778 16.0854 10.2503 18.2305 10.2501H20.168C20.0542 8.90864 19.7964 8.20077 19.2979 7.70224C18.8747 7.27904 18.2951 7.025 17.2891 6.88974C16.2614 6.75159 14.9067 6.75009 13 6.75009H10ZM18.2305 11.7501C16.8072 11.7503 15.75 12.8089 15.75 14.0001C15.75 15.1913 16.8072 16.2499 18.2305 16.2501H20.9238C20.9428 16.2499 20.9482 16.2491 20.9482 16.2491C21.1541 16.2365 21.2422 16.0974 21.249 16.0138C21.2491 16.0126 21.2499 16.007 21.25 15.9991V12.0011C21.2499 11.9932 21.2491 11.9875 21.249 11.9864C21.2422 11.9028 21.1541 11.7637 20.9482 11.7511C20.9482 11.7511 20.9431 11.7503 20.9238 11.7501H18.2305ZM18 13.0001C18.5523 13.0001 19 13.4478 19 14.0001C19 14.5524 18.5523 15.0001 18 15.0001C17.4477 15.0001 17 14.5524 17 14.0001C17 13.4478 17.4477 13.0001 18 13.0001ZM10 9.25009C10.4142 9.25009 10.75 9.58589 10.75 10.0001C10.75 10.4143 10.4142 10.7501 10 10.7501H6C5.58579 10.7501 5.25 10.4143 5.25 10.0001C5.25001 9.58589 5.5858 9.25009 6 9.25009H10ZM12.8506 4.14853C12.0498 3.61762 10.9511 3.6177 10.1504 4.14853L8.4834 5.25302C8.94086 5.24962 9.42703 5.25008 9.94336 5.25009H13.0566C13.573 5.25008 14.0591 5.24962 14.5166 5.25302L12.8506 4.14853Z" fill="#48465C"/>
</svg>
