<svg width="24" height="24" viewBox="0 0 24 24" fill="none" xmlns="http://www.w3.org/2000/svg">
<path fill-rule="evenodd" clip-rule="evenodd" d="M13.0547 1.25C14.4222 1.24998 15.5247 1.24968 16.3916 1.36621C17.2917 1.48723 18.0495 1.74674 18.6514 2.34863C19.0516 2.74883 19.3007 3.2179 19.458 3.75195C19.6694 3.75524 19.8463 3.7643 20.0088 3.79004C21.3992 4.01042 22.4897 5.10087 22.71 6.49121C22.7502 6.7451 22.7501 7.03385 22.75 7.43555V16.5645C22.7501 16.9662 22.7502 17.2549 22.71 17.5088C22.4897 18.8992 21.3992 19.9895 20.0088 20.21C19.8463 20.2356 19.6694 20.2448 19.458 20.248C19.3007 20.7821 19.0516 21.2511 18.6514 21.6514C18.0495 22.2533 17.2917 22.5128 16.3916 22.6338C15.5247 22.7503 14.4222 22.75 13.0547 22.75H10.9453C9.57776 22.75 8.47536 22.7503 7.60841 22.6338C6.7083 22.5128 5.95056 22.2533 5.34864 21.6514C4.94847 21.2511 4.69923 20.7821 4.542 20.248C4.33066 20.2448 4.15373 20.2356 3.99122 20.21C2.60089 19.9895 1.51042 18.8992 1.29005 17.5088C1.24983 17.2549 1.2499 16.9662 1.25001 16.5645V7.43555C1.2499 7.03385 1.24983 6.7451 1.29005 6.49121C1.51041 5.10087 2.60089 4.01043 3.99122 3.79004C4.15373 3.76431 4.33066 3.75524 4.542 3.75195C4.69923 3.21791 4.94845 2.74883 5.34864 2.34863C5.95056 1.74671 6.7083 1.48723 7.60841 1.36621C8.47536 1.24967 9.57787 1.24998 10.9453 1.25H13.0547ZM8.03419 14.0684C7.68416 13.6582 7.18539 13.649 6.82814 14.0156L5.75001 15.1211V16C5.75001 17.4354 5.75198 18.437 5.85353 19.1924C5.95219 19.9258 6.13251 20.3141 6.40919 20.5908C6.68596 20.8676 7.07483 21.0478 7.8086 21.1465C8.56391 21.2479 9.56487 21.25 11 21.25H13C14.4354 21.25 15.4371 21.248 16.1924 21.1465C16.9259 21.0478 17.3141 20.8676 17.5908 20.5908C17.7428 20.4388 17.8656 20.2532 17.9619 19.9951L16.0801 18.0088C15.5767 17.478 14.881 17.4415 14.3516 17.8779L14.1318 18.0596C13.2158 18.8142 11.9548 18.6658 11.1953 17.7754L8.03419 14.0684ZM4.22657 5.27148C3.47776 5.39008 2.8901 5.97775 2.7715 6.72656C2.75232 6.84786 2.75001 7.00729 2.75001 7.5V16.5C2.75001 16.9927 2.75233 17.1521 2.7715 17.2734C2.8901 18.0222 3.47776 18.6099 4.22657 18.7285C4.24959 18.7321 4.274 18.7348 4.30177 18.7373C4.24986 17.989 4.25 17.0991 4.25001 16.0547V7.94531C4.25 6.90091 4.24986 6.01101 4.30177 5.2627C4.27401 5.26522 4.24959 5.26785 4.22657 5.27148ZM19.6983 5.2627C19.7502 6.01101 19.75 6.9009 19.75 7.94531V16.0547C19.75 17.0991 19.7502 17.989 19.6983 18.7373C19.726 18.7348 19.7504 18.7321 19.7734 18.7285C20.5222 18.6099 21.1099 18.0222 21.2285 17.2734C21.2477 17.1521 21.25 16.9927 21.25 16.5V7.5C21.25 7.00727 21.2477 6.84786 21.2285 6.72656C21.1099 5.97775 20.5222 5.39008 19.7734 5.27148C19.7504 5.26785 19.726 5.26522 19.6983 5.2627ZM11 2.75C9.56487 2.75 8.56391 2.75201 7.8086 2.85352C7.07483 2.95217 6.68596 3.13242 6.40919 3.40918C6.13244 3.68594 5.95217 4.07484 5.85353 4.80859C5.75203 5.5639 5.75001 6.56485 5.75001 8V12.9717L5.75392 12.9678C6.73952 11.957 8.26417 12.0267 9.17579 13.0957L12.3369 16.8018C12.5901 17.0985 12.9233 17.1118 13.1787 16.9014L13.3984 16.7207C14.555 15.7677 16.1404 15.8922 17.169 16.9775L18.2295 18.0957C18.2498 17.5187 18.25 16.8324 18.25 16V8C18.25 6.56484 18.2479 5.5639 18.1465 4.80859C18.0478 4.07482 17.8676 3.68594 17.5908 3.40918C17.3141 3.13249 16.9259 2.95218 16.1924 2.85352C15.4371 2.75196 14.4354 2.75 13 2.75H11ZM14.5 4.25C15.7427 4.25 16.75 5.25736 16.75 6.5C16.75 7.74264 15.7427 8.75 14.5 8.75C13.2574 8.74999 12.25 7.74264 12.25 6.5C12.25 5.25737 13.2574 4.25001 14.5 4.25ZM14.5 5.75C14.0858 5.75001 13.75 6.08579 13.75 6.5C13.75 6.91421 14.0858 7.24999 14.5 7.25C14.9142 7.25 15.25 6.91421 15.25 6.5C15.25 6.08579 14.9142 5.75 14.5 5.75Z" fill="#48465C"/>
</svg>
