<svg width="24" height="24" viewBox="0 0 24 24" fill="none" xmlns="http://www.w3.org/2000/svg">
<path fill-rule="evenodd" clip-rule="evenodd" d="M9.32129 2.89787C10.6243 2.03404 12.3756 2.03405 13.6787 2.89787L17.4141 5.37541C17.425 5.38269 17.4358 5.39013 17.4463 5.39787L17.4893 5.40275C18.6614 5.56037 19.6101 5.89294 20.3584 6.64103C21.2827 7.56542 21.5776 8.80409 21.6846 10.4106C22.2618 10.6646 22.6981 11.2018 22.7461 11.8822C22.7504 11.9423 22.75 12.0069 22.75 12.0668V15.933C22.75 15.9931 22.7504 16.0584 22.7461 16.1186C22.6976 16.8034 22.2557 17.3423 21.6729 17.5942C21.6766 17.5925 21.6808 17.5919 21.6846 17.5903C21.5776 19.1966 21.2826 20.4345 20.3584 21.3588C19.6101 22.1069 18.6614 22.4394 17.4893 22.5971C16.3501 22.7502 14.8943 22.7504 13.0566 22.7504H9.94336C8.10571 22.7504 6.6499 22.7502 5.51074 22.5971C4.33851 22.4394 3.3899 22.1069 2.6416 21.3588C1.89324 20.6104 1.56094 19.6611 1.40332 18.4887C1.25019 17.3495 1.24998 15.8937 1.25 14.0561V13.9438C1.24998 12.106 1.25017 10.6504 1.40332 9.51115C1.56094 8.33873 1.89324 7.3894 2.6416 6.64103C3.38989 5.89292 4.33856 5.56037 5.51074 5.40275L5.55371 5.39787C5.56417 5.39013 5.57498 5.38269 5.58594 5.37541L9.32129 2.89787ZM10 6.75041C8.09321 6.75041 6.73859 6.75189 5.71094 6.89006C4.70508 7.02528 4.12533 7.27854 3.70215 7.70158C3.27894 8.12479 3.02491 8.70525 2.88965 9.71134C2.75154 10.7389 2.75 12.0939 2.75 14.0004C2.75 15.907 2.75149 17.2618 2.88965 18.2895C3.02492 19.2953 3.27897 19.8751 3.70215 20.2983C4.12534 20.7213 4.705 20.9746 5.71094 21.1098C6.73859 21.248 8.0932 21.2504 10 21.2504H13C14.9068 21.2504 16.2614 21.248 17.2891 21.1098C18.2949 20.9746 18.8747 20.7213 19.2979 20.2983C19.7963 19.7998 20.0542 19.0917 20.168 17.7504H18.2305C16.0855 17.7502 14.2502 16.1225 14.25 14.0004C14.25 11.8781 16.0854 10.2506 18.2305 10.2504H20.168C20.0542 8.90895 19.7964 8.20011 19.2979 7.70158C18.8747 7.27854 18.2948 7.02528 17.2891 6.89006C16.2614 6.7519 14.9067 6.75041 13 6.75041H10ZM21.4355 17.6772C21.36 17.6985 21.2834 17.7171 21.2051 17.7289C21.2834 17.7171 21.36 17.6985 21.4355 17.6772ZM18.2305 11.7504C16.8072 11.7506 15.75 12.8092 15.75 14.0004C15.7502 15.1915 16.8074 16.2502 18.2305 16.2504H20.833C20.8763 16.2504 20.9035 16.2496 20.9238 16.2494C20.9428 16.2492 20.9482 16.2494 20.9482 16.2494C21.1539 16.2369 21.2421 16.0978 21.249 16.0141C21.249 16.0141 21.2499 16.0076 21.25 15.9985V12.0014C21.2499 11.9924 21.249 11.9858 21.249 11.9858C21.242 11.9021 21.1538 11.763 20.9482 11.7504H18.2305ZM18 13.0004C18.0346 13.0004 18.0688 13.0019 18.1025 13.0053C18.6067 13.0566 19 13.4827 19 14.0004C18.9998 14.5179 18.6065 14.9432 18.1025 14.9945C18.0688 14.998 18.0346 15.0004 18 15.0004C17.9654 15.0004 17.9312 14.998 17.8975 14.9945C17.3935 14.9432 17.0002 14.5179 17 14.0004C17 13.4827 17.3933 13.0566 17.8975 13.0053C17.9312 13.0019 17.9654 13.0004 18 13.0004ZM10 9.25041C10.4142 9.25041 10.75 9.5862 10.75 10.0004C10.7498 10.4144 10.4141 10.7504 10 10.7504H6C5.58592 10.7504 5.25021 10.4144 5.25 10.0004C5.25 9.5862 5.58579 9.25041 6 9.25041H10ZM21.5674 10.3647C21.551 10.3587 21.5351 10.3516 21.5186 10.3461C21.5351 10.3516 21.551 10.3587 21.5674 10.3647ZM21.0391 10.2533C21.1266 10.2587 21.213 10.2713 21.2979 10.2885C21.213 10.2713 21.1266 10.2587 21.0391 10.2533ZM12.8506 4.14787C12.0499 3.61701 10.9511 3.61721 10.1504 4.14787L8.4834 5.25334C8.94086 5.24994 9.42702 5.2504 9.94336 5.25041H13.0566C13.573 5.2504 14.0591 5.24994 14.5166 5.25334L12.8506 4.14787Z" fill="#48465C"/>
</svg>
