<svg width="24" height="24" viewBox="0 0 24 24" fill="none" xmlns="http://www.w3.org/2000/svg">
<path d="M9.90332 2.42077C11.2473 1.85974 12.7527 1.85974 14.0967 2.42077C18.2714 4.16346 20.9999 8.31614 21 12.9276V13.1923C21 18.0563 17.1446 21.9998 12.3887 21.9999H11.6113C6.8554 21.9998 3 18.0563 3 13.1923V12.9276C3.0001 8.31614 5.72868 4.16346 9.90332 2.42077ZM12.0664 5.96081C11.8924 5.58509 11.4462 5.42177 11.0703 5.59558C9.10571 6.50431 7.59136 8.31083 6.89941 10.4969C6.77441 10.8918 6.99376 11.3134 7.38867 11.4384C7.78339 11.5631 8.20503 11.3448 8.33008 10.9501C8.90756 9.1256 10.1549 7.67165 11.7002 6.95691C12.0762 6.78305 12.2402 6.33677 12.0664 5.96081Z" fill="#48465C"/>
</svg>
