<svg width="24" height="24" viewBox="0 0 24 24" fill="none" xmlns="http://www.w3.org/2000/svg">
<path d="M4.58166 16.0101C5.2725 14.9946 6.71573 15.0327 7.44397 15.9095C8.42593 17.0915 9.81052 18.2503 12.0006 18.2503C14.2281 18.2502 15.5915 17.3197 16.5192 16.1536C17.2407 15.2468 18.7778 15.1012 19.5338 16.177C20.1523 17.057 20.8284 17.7583 22.1627 18.054C22.5668 18.1437 22.8215 18.5434 22.7321 18.9476C22.6425 19.352 22.2419 19.6075 21.8375 19.5179C19.9967 19.1098 19.039 18.082 18.3063 17.0393C18.2577 16.9702 18.1706 16.9189 18.0397 16.9212C17.9039 16.9237 17.7735 16.9862 17.693 17.0872C16.5178 18.5647 14.7414 19.7502 12.0006 19.7503C9.17776 19.7503 7.4108 18.2172 6.28967 16.8675C6.22445 16.7891 6.12746 16.7483 6.02893 16.7503C5.93359 16.7522 5.86402 16.7919 5.8219 16.8538C5.07577 17.9509 4.11864 19.0843 2.16272 19.5179C1.75832 19.6075 1.35781 19.352 1.26819 18.9476C1.17884 18.5434 1.4335 18.1438 1.83752 18.054C3.24943 17.7411 3.92605 16.9741 4.58166 16.0101ZM4.58166 11.0101C5.2725 9.99459 6.71572 10.0327 7.44397 10.9095C8.42593 12.0915 9.81052 13.2503 12.0006 13.2503C14.2281 13.2502 15.5915 12.3197 16.5192 11.1536C17.2407 10.2468 18.7778 10.1012 19.5338 11.177C20.1523 12.057 20.8284 12.7583 22.1627 13.054C22.5668 13.1437 22.8215 13.5434 22.7321 13.9476C22.6425 14.352 22.2419 14.6075 21.8375 14.5179C19.9967 14.1098 19.039 13.082 18.3063 12.0393C18.2577 11.9702 18.1706 11.9189 18.0397 11.9212C17.9039 11.9237 17.7735 11.9862 17.693 12.0872C16.5178 13.5647 14.7414 14.7502 12.0006 14.7503C9.17776 14.7503 7.4108 13.2172 6.28967 11.8675C6.22445 11.7891 6.12746 11.7483 6.02893 11.7503C5.93359 11.7522 5.86402 11.7919 5.8219 11.8538C5.07577 12.9509 4.11864 14.0843 2.16272 14.5179C1.75832 14.6075 1.35781 14.352 1.26819 13.9476C1.17884 13.5434 1.4335 13.1438 1.83752 13.054C3.24943 12.7411 3.92605 11.9741 4.58166 11.0101ZM4.58166 6.01005C5.27249 4.9946 6.71572 5.03275 7.44397 5.90946C8.42593 7.09156 9.81053 8.25029 12.0006 8.25029C14.2281 8.25016 15.5915 7.31977 16.5192 6.15361C17.2407 5.24688 18.7778 5.10125 19.5338 6.17704C20.1523 7.05696 20.8284 7.75831 22.1627 8.054C22.5669 8.14377 22.8217 8.54424 22.7321 8.94853C22.6422 9.35263 22.2417 9.60744 21.8375 9.51786C19.9967 9.10982 19.039 8.08201 18.3063 7.03935C18.2577 6.97024 18.1706 6.91884 18.0397 6.92118C17.9039 6.92369 17.7735 6.98622 17.693 7.0872C16.5178 8.56472 14.7414 9.75015 12.0006 9.75029C9.17776 9.75029 7.4108 8.21718 6.28967 6.86747C6.22444 6.78911 6.12746 6.74832 6.02893 6.75029C5.9336 6.75221 5.86402 6.79189 5.8219 6.8538C5.07577 7.95088 4.11864 9.08431 2.16272 9.51786C1.75849 9.60744 1.35803 9.35264 1.26819 8.94853C1.1786 8.54428 1.43337 8.14381 1.83752 8.054C3.24943 7.74111 3.92605 6.97403 4.58166 6.01005Z" fill="#48465C"/>
</svg>
