<svg width="24" height="24" viewBox="0 0 24 24" fill="none" xmlns="http://www.w3.org/2000/svg">
<path fill-rule="evenodd" clip-rule="evenodd" d="M4.73828 13.2344C5.43221 12.5026 6.56779 12.5026 7.26172 13.2344C8.43393 14.4713 9.99977 16.3933 10 17.8331C10 20.1343 8.20914 22.0001 6 22.0001C3.79086 22.0001 2 20.1343 2 17.8331C2.00023 16.3933 3.56607 14.4713 4.73828 13.2344ZM16.7383 13.2344C17.4322 12.5026 18.5678 12.5026 19.2617 13.2344C20.4339 14.4713 21.9998 16.3933 22 17.8331C22 20.1343 20.2091 22.0001 18 22.0001C15.7909 22.0001 14 20.1343 14 17.8331C14.0002 16.3933 15.5661 14.4713 16.7383 13.2344ZM10.7383 3.23443C11.4322 2.50258 12.5678 2.50258 13.2617 3.23443C14.4339 4.47127 15.9998 6.39328 16 7.83307C16 10.1343 14.2091 12.0001 12 12.0001C9.79086 12.0001 8 10.1343 8 7.83307C8.00022 6.39328 9.56609 4.47127 10.7383 3.23443Z" fill="#48465C"/>
</svg>
