<svg width="24" height="24" viewBox="0 0 24 24" fill="none" xmlns="http://www.w3.org/2000/svg">
<path fill-rule="evenodd" clip-rule="evenodd" d="M4.19434 12.7187C5.18409 11.6746 6.81591 11.6746 7.80566 12.7187C8.40631 13.3525 9.1242 14.1782 9.69629 15.0448C10.2497 15.8832 10.75 16.8807 10.75 17.8329C10.75 20.5191 8.65191 22.7499 6 22.7499C3.34809 22.7499 1.25 20.5191 1.25 17.8329C1.25 16.8807 1.75032 15.8832 2.30371 15.0448C2.8758 14.1782 3.59369 13.3525 4.19434 12.7187ZM16.1943 12.7187C17.1841 11.6746 18.8159 11.6746 19.8057 12.7187C20.4064 13.3525 21.1242 14.1782 21.6963 15.0448C22.2497 15.8832 22.75 16.8807 22.75 17.8329C22.75 20.5191 20.6519 22.7499 18 22.7499C15.3481 22.7499 13.25 20.5191 13.25 17.8329C13.25 16.8807 13.7503 15.8832 14.3037 15.0448C14.8758 14.1782 15.5936 13.3525 16.1943 12.7187ZM6.71777 13.7509C6.31958 13.3307 5.68042 13.3307 5.28223 13.7509C4.71067 14.3539 4.0595 15.1077 3.55566 15.871C3.03308 16.6626 2.75 17.3454 2.75 17.8329C2.75 19.749 4.23364 21.2499 6 21.2499C7.76636 21.2499 9.25 19.749 9.25 17.8329C9.25 17.3454 8.96692 16.6626 8.44434 15.871C7.9405 15.1077 7.28933 14.3539 6.71777 13.7509ZM18.7178 13.7509C18.3196 13.3307 17.6804 13.3307 17.2822 13.7509C16.7106 14.3539 16.0595 15.1077 15.5557 15.871C15.0331 16.6626 14.75 17.3454 14.75 17.8329C14.75 19.749 16.2336 21.2499 18 21.2499C19.7664 21.2499 21.25 19.749 21.25 17.8329C21.25 17.3454 20.9669 16.6626 20.4443 15.871C19.9405 15.1077 19.2894 14.3539 18.7178 13.7509ZM10.1943 2.71866C11.1841 1.67451 12.8159 1.67451 13.8057 2.71866C14.4064 3.35242 15.1242 4.17821 15.6963 5.04483C16.2497 5.88318 16.75 6.88068 16.75 7.83292C16.75 10.5191 14.6519 12.7499 12 12.7499C9.34809 12.7499 7.25 10.5191 7.25 7.83292C7.25 6.88068 7.75032 5.88318 8.30371 5.04483C8.8758 4.17821 9.59366 3.35242 10.1943 2.71866ZM12.7178 3.74991C12.3196 3.32984 11.6804 3.32984 11.2822 3.74991C10.7105 4.35307 10.0596 5.10758 9.55566 5.871C9.03309 6.66264 8.75 7.34543 8.75 7.83292C8.75 9.74903 10.2336 11.2499 12 11.2499C13.7664 11.2499 15.25 9.74903 15.25 7.83292C15.25 7.34543 14.9669 6.66264 14.4443 5.871C13.9403 5.10758 13.2895 4.35307 12.7178 3.74991Z" fill="#48465C"/>
</svg>
