<svg width="24" height="24" viewBox="0 0 24 24" fill="none" xmlns="http://www.w3.org/2000/svg">
<path fill-rule="evenodd" clip-rule="evenodd" d="M4.58166 16.0099C5.27247 14.9947 6.71472 15.0328 7.44299 15.9093C8.42492 17.0913 9.80963 18.25 11.9996 18.2501C14.2274 18.2501 15.5906 17.3196 16.5182 16.1534C17.2396 15.2464 18.7777 15.101 19.5338 16.1769C20.1522 17.0568 20.8285 17.7581 22.1627 18.0538C22.5668 18.1436 22.8216 18.5441 22.7321 18.9483C22.6423 19.3525 22.2418 19.6072 21.8375 19.5177C19.9967 19.1096 19.039 18.0818 18.3063 17.0392C18.2577 16.97 18.1706 16.9187 18.0397 16.921C17.9037 16.9234 17.7726 16.9858 17.692 17.087C16.5167 18.5646 14.7407 19.7501 11.9996 19.7501C9.17701 19.75 7.41076 18.2169 6.28967 16.8673C6.22448 16.789 6.12741 16.7482 6.02893 16.7501C5.93366 16.752 5.86403 16.7918 5.8219 16.8536C5.07579 17.9507 4.11853 19.0841 2.16272 19.5177C1.75848 19.6072 1.35802 19.3525 1.26819 18.9483C1.17859 18.544 1.43329 18.1435 1.83752 18.0538C3.24943 17.7409 3.92605 16.9739 4.58166 16.0099ZM4.58166 11.0099C5.27247 9.99464 6.71472 10.0328 7.44299 10.9093C8.42492 12.0913 9.80963 13.25 11.9996 13.2501C14.2274 13.2501 15.5906 12.3196 16.5182 11.1534C17.2396 10.2464 18.7777 10.101 19.5338 11.1769C20.1522 12.0568 20.8285 12.7581 22.1627 13.0538C22.5668 13.1436 22.8216 13.5441 22.7321 13.9483C22.6423 14.3525 22.2418 14.6072 21.8375 14.5177C19.9967 14.1096 19.039 13.0818 18.3063 12.0392C18.2577 11.97 18.1706 11.9187 18.0397 11.921C17.9037 11.9234 17.7726 11.9858 17.692 12.087C16.5167 13.5646 14.7407 14.7501 11.9996 14.7501C9.17701 14.75 7.41076 13.2169 6.28967 11.8673C6.22448 11.789 6.12741 11.7482 6.02893 11.7501C5.93366 11.752 5.86403 11.7918 5.8219 11.8536C5.07579 12.9507 4.11853 14.0841 2.16272 14.5177C1.75848 14.6072 1.35802 14.3525 1.26819 13.9483C1.17859 13.544 1.43329 13.1435 1.83752 13.0538C3.24943 12.7409 3.92605 11.9739 4.58166 11.0099ZM4.58166 6.00986C5.27247 4.99465 6.71472 5.03282 7.44299 5.90928C8.42492 7.0914 9.80963 8.24998 11.9996 8.2501C14.2274 8.2501 15.5906 7.31963 16.5182 6.15342C17.2396 5.24645 18.7777 5.10095 19.5338 6.17685C20.1522 7.05678 20.8285 7.75812 22.1627 8.05381C22.5668 8.14365 22.8216 8.54411 22.7321 8.94834C22.6423 9.35251 22.2418 9.60726 21.8375 9.51767C19.9967 9.10964 19.039 8.08184 18.3063 7.03916C18.2577 6.97004 18.1706 6.91866 18.0397 6.92099C17.9036 6.92348 17.7726 6.98582 17.692 7.08701C16.5167 8.56461 14.7407 9.7501 11.9996 9.7501C9.17701 9.74998 7.41076 8.21694 6.28967 6.86728C6.22449 6.78896 6.12741 6.74818 6.02893 6.7501C5.93368 6.75202 5.86403 6.79178 5.8219 6.85361C5.07579 7.95066 4.11853 9.0841 2.16272 9.51767C1.75847 9.60726 1.35801 9.35249 1.26819 8.94834C1.17859 8.54403 1.43328 8.14355 1.83752 8.05381C3.24943 7.74092 3.92605 6.97384 4.58166 6.00986Z" fill="#48465C"/>
</svg>
