<svg width="24" height="24" viewBox="0 0 24 24" fill="none" xmlns="http://www.w3.org/2000/svg">
<path fill-rule="evenodd" clip-rule="evenodd" d="M9.61426 1.72865C11.1431 1.09045 12.8569 1.09045 14.3857 1.72865C18.8468 3.59088 21.75 8.0224 21.75 12.9288V13.1935C21.7498 18.4555 17.5745 22.75 12.3887 22.7501H11.6113C6.42553 22.75 2.25022 18.4555 2.25 13.1935V12.9288C2.25 8.02239 5.15321 3.59087 9.61426 1.72865ZM13.8076 3.11342C12.6486 2.6296 11.3514 2.6296 10.1924 3.11342C6.30394 4.73661 3.75 8.61214 3.75 12.9288V13.1935C3.75022 17.6591 7.28554 21.25 11.6113 21.2501H12.3887C16.7145 21.25 20.2498 17.6591 20.25 13.1935V12.9288C20.25 8.61214 17.696 4.73661 13.8076 3.11342ZM11.0713 5.59584C11.4472 5.42225 11.8927 5.58621 12.0664 5.96205C12.2403 6.338 12.0762 6.78331 11.7002 6.95717C10.1549 7.67186 8.90762 9.12588 8.33008 10.9503C8.20513 11.3451 7.78347 11.5643 7.38867 11.4396C6.99389 11.3146 6.77467 10.893 6.89941 10.4982C7.59141 8.31186 9.10639 6.5045 11.0713 5.59584Z" fill="#48465C"/>
</svg>
