<svg width="24" height="24" viewBox="0 0 24 24" fill="none" xmlns="http://www.w3.org/2000/svg">
<path d="M4.58166 16.0107C5.27243 14.995 6.71567 15.0323 7.44397 15.9091C8.42588 17.0911 9.80975 18.2498 11.9996 18.2499C14.2274 18.2499 15.5906 17.3194 16.5182 16.1532C17.2396 15.2462 18.7777 15.1008 19.5338 16.1767C20.1522 17.0567 20.8284 17.7579 22.1627 18.0536C22.5669 18.1434 22.8216 18.5439 22.7321 18.9482C22.6423 19.3524 22.2418 19.6071 21.8375 19.5175C19.9968 19.1094 19.039 18.0816 18.3063 17.039C18.2576 16.9699 18.1705 16.9195 18.0397 16.9218C17.9037 16.9243 17.7735 16.9866 17.693 17.0878C16.5177 18.5654 14.7407 19.7499 11.9996 19.7499C9.17722 19.7498 7.41076 18.2177 6.28967 16.8681C6.22447 16.7896 6.12751 16.748 6.02893 16.7499C5.93368 16.7518 5.86403 16.7917 5.8219 16.8534C5.07578 17.9505 4.11854 19.0839 2.16272 19.5175C1.75844 19.6071 1.35797 19.3523 1.26819 18.9482C1.17859 18.5439 1.4333 18.1434 1.83752 18.0536C3.24932 17.7408 3.9261 16.9746 4.58166 16.0107ZM4.58166 11.0107C5.27243 9.99495 6.71567 10.0323 7.44397 10.9091C8.42588 12.0911 9.80975 13.2498 11.9996 13.2499C14.2274 13.2499 15.5906 12.3194 16.5182 11.1532C17.2396 10.2462 18.7777 10.1008 19.5338 11.1767C20.1522 12.0567 20.8284 12.7579 22.1627 13.0536C22.5669 13.1434 22.8216 13.5439 22.7321 13.9482C22.6423 14.3524 22.2418 14.6071 21.8375 14.5175C19.9968 14.1094 19.039 13.0816 18.3063 12.039C18.2576 11.9699 18.1705 11.9195 18.0397 11.9218C17.9037 11.9243 17.7735 11.9866 17.693 12.0878C16.5177 13.5654 14.7407 14.7499 11.9996 14.7499C9.17722 14.7498 7.41076 13.2177 6.28967 11.8681C6.22447 11.7896 6.12751 11.748 6.02893 11.7499C5.93368 11.7518 5.86403 11.7917 5.8219 11.8534C5.07578 12.9505 4.11854 14.0839 2.16272 14.5175C1.75844 14.6071 1.35797 14.3523 1.26819 13.9482C1.17859 13.5439 1.4333 13.1434 1.83752 13.0536C3.24932 12.7408 3.9261 11.9746 4.58166 11.0107ZM4.58166 6.01066C5.27243 4.99498 6.71567 5.03232 7.44397 5.9091C8.42588 7.09115 9.80976 8.24978 11.9996 8.24992C14.2274 8.24992 15.5906 7.31947 16.5182 6.15324C17.2396 5.24627 18.7777 5.10077 19.5338 6.17667C20.1522 7.05664 20.8284 7.75793 22.1627 8.05363C22.5669 8.14344 22.8216 8.5439 22.7321 8.94816C22.6423 9.35239 22.2418 9.60709 21.8375 9.51749C19.9968 9.10945 19.039 8.08164 18.3063 7.03898C18.2576 6.96991 18.1705 6.91945 18.0397 6.92179C17.9039 6.92429 17.7736 6.98596 17.693 7.08683C16.5177 8.56443 14.7407 9.74992 11.9996 9.74992C9.17721 9.74978 7.41076 8.21767 6.28967 6.86808C6.22447 6.78959 6.12752 6.74798 6.02893 6.74992C5.9337 6.75184 5.86403 6.79163 5.8219 6.85343C5.07578 7.95049 4.11854 9.08392 2.16272 9.51749C1.75843 9.60709 1.35796 9.35237 1.26819 8.94816C1.17859 8.54386 1.43329 8.14338 1.83752 8.05363C3.24931 7.74076 3.92611 6.97452 4.58166 6.01066Z" fill="#48465C"/>
</svg>
