<svg width="24" height="24" viewBox="0 0 24 24" fill="none" xmlns="http://www.w3.org/2000/svg">
<path fill-rule="evenodd" clip-rule="evenodd" d="M4.58166 16.01C5.27251 14.9946 6.71574 15.0327 7.44396 15.9094C8.42585 17.0914 9.8098 18.2501 11.9996 18.2503C14.2274 18.2503 15.5915 17.3198 16.5192 16.1536C17.2407 15.2469 18.7778 15.1012 19.5338 16.177C20.1523 17.0569 20.8284 17.7583 22.1627 18.054C22.5669 18.1437 22.8217 18.5442 22.732 18.9485C22.6422 19.3526 22.2418 19.6074 21.8375 19.5178C19.9967 19.1098 19.039 18.082 18.3063 17.0393C18.2576 16.9702 18.1706 16.9189 18.0397 16.9212C17.9039 16.9236 17.7735 16.9862 17.693 17.0872C16.5177 18.5648 14.7407 19.7503 11.9996 19.7503C9.17706 19.7501 7.41073 18.2171 6.28967 16.8674C6.22445 16.7891 6.12743 16.7483 6.02892 16.7503C5.93362 16.7522 5.86402 16.7919 5.82189 16.8538C5.07577 17.9509 4.1186 19.0843 2.16271 19.5178C1.75847 19.6074 1.35801 19.3526 1.26818 18.9485C1.17859 18.5442 1.43334 18.1437 1.83752 18.054C3.24943 17.7411 3.92605 16.974 4.58166 16.01ZM4.58166 11.01C5.27251 9.99462 6.71574 10.0327 7.44396 10.9094C8.42585 12.0914 9.8098 13.2501 11.9996 13.2503C14.2274 13.2503 15.5915 12.3198 16.5192 11.1536C17.2407 10.2469 18.7778 10.1012 19.5338 11.177C20.1523 12.0569 20.8284 12.7583 22.1627 13.054C22.5669 13.1437 22.8217 13.5442 22.732 13.9485C22.6422 14.3526 22.2418 14.6074 21.8375 14.5178C19.9967 14.1098 19.039 13.082 18.3063 12.0393C18.2576 11.9702 18.1706 11.9189 18.0397 11.9211C17.9039 11.9236 17.7735 11.9862 17.693 12.0872C16.5177 13.5648 14.7407 14.7503 11.9996 14.7503C9.17706 14.7501 7.41073 13.2171 6.28967 11.8674C6.22445 11.7891 6.12743 11.7483 6.02892 11.7503C5.93362 11.7522 5.86402 11.7919 5.82189 11.8538C5.07577 12.9509 4.1186 14.0843 2.16271 14.5178C1.75847 14.6074 1.35801 14.3526 1.26818 13.9485C1.17859 13.5442 1.43334 13.1437 1.83752 13.054C3.24943 12.7411 3.92605 11.974 4.58166 11.01ZM4.58166 6.01002C5.2725 4.99463 6.71573 5.03273 7.44396 5.90943C8.42585 7.09145 9.80982 8.25008 11.9996 8.25025C14.2274 8.25025 15.5915 7.31981 16.5192 6.15357C17.2407 5.2469 18.7778 5.10124 19.5338 6.17701C20.1523 7.05694 20.8284 7.75828 22.1627 8.05396C22.5669 8.14374 22.8217 8.54422 22.732 8.94849C22.6423 9.35264 22.2418 9.60742 21.8375 9.51783C19.9967 9.10979 19.039 8.08198 18.3063 7.03931C18.2576 6.97022 18.1706 6.91881 18.0397 6.92115C17.9039 6.92364 17.7735 6.98622 17.693 7.08717C16.5177 8.56477 14.7407 9.75025 11.9996 9.75025C9.17706 9.75008 7.41073 8.21707 6.28967 6.86744C6.22444 6.78911 6.12743 6.7483 6.02892 6.75025C5.93363 6.75218 5.86402 6.79189 5.82189 6.85377C5.07577 7.95084 4.1186 9.08427 2.16271 9.51783C1.75846 9.60742 1.358 9.35264 1.26818 8.94849C1.17859 8.54423 1.43334 8.14376 1.83752 8.05396C3.24943 7.74107 3.92605 6.974 4.58166 6.01002Z" fill="#48465C"/>
</svg>
