<svg width="24" height="24" viewBox="0 0 24 24" fill="none" xmlns="http://www.w3.org/2000/svg">
<path d="M11.2334 3.65318C13.9916 0.895321 18.4776 0.32062 21.0781 2.92076C23.6788 5.52137 23.104 10.0083 20.3457 12.7665C18.9558 14.1561 16.9431 15.1979 14.9746 15.6044C14.4216 15.7185 13.8549 15.7855 13.2959 15.7909L7.38965 21.6962C5.98501 23.1006 3.70835 23.1006 2.30371 21.6962C0.899028 20.2916 0.899028 18.0138 2.30371 16.6092L8.20801 10.7049C8.2133 10.1455 8.2803 9.57871 8.39453 9.02525C8.80091 7.05665 9.84343 5.04312 11.2334 3.65318ZM3.36426 17.6708C2.54545 18.4897 2.54541 19.8168 3.36426 20.6356C4.18311 21.4543 5.51025 21.4543 6.3291 20.6356L11.4219 15.5438C10.7225 15.3336 10.0808 14.9801 9.5498 14.4491C9.01917 13.9185 8.66626 13.277 8.45605 12.578L3.36426 17.6708ZM21.126 6.04771C20.9997 6.31538 20.8552 6.58335 20.7002 6.84459C19.9241 8.15211 18.7718 9.50934 17.8574 10.4237C16.9444 11.3367 15.3948 12.6805 13.9023 13.6512C13.5509 13.8797 13.1927 14.0952 12.8389 14.2801C13.4005 14.3187 14.0179 14.2703 14.6709 14.1356C16.3746 13.7839 18.1178 12.8723 19.2852 11.7049C20.9257 10.0643 21.5323 7.8591 21.126 6.04771ZM20.0176 3.98131C19.972 3.93595 19.8393 3.847 19.4316 3.93053C19.0283 4.01319 18.5099 4.24003 17.9209 4.58971C16.7524 5.28345 15.4929 6.3469 14.6367 7.20299C13.7792 8.06043 12.5069 9.53008 11.6055 10.9159C11.1513 11.6139 10.8202 12.2468 10.668 12.745C10.5922 12.9932 10.5738 13.1679 10.582 13.2782C10.5858 13.3297 10.5953 13.3581 10.6006 13.371C10.605 13.3817 10.6077 13.3858 10.6103 13.3885C10.613 13.3912 10.617 13.3947 10.6279 13.3993C10.6408 13.4046 10.6699 13.4131 10.7217 13.4169C10.8321 13.425 11.0068 13.4067 11.2549 13.3309C11.7531 13.1788 12.3861 12.8482 13.084 12.3944C14.4699 11.4931 15.9394 10.2205 16.7969 9.36314C17.6529 8.5071 18.7165 7.24758 19.4102 6.07896C19.7597 5.48993 19.9867 4.97155 20.0693 4.56822C20.153 4.15948 20.0629 4.02659 20.0176 3.98131ZM17.9521 2.87389C16.1407 2.46747 13.9347 3.07318 12.2939 4.71373C11.1265 5.88111 10.2149 7.62433 9.86328 9.32799C9.72842 9.98127 9.68111 10.5992 9.71972 11.161C9.90477 10.8072 10.1191 10.4489 10.3477 10.0975C11.3185 8.60504 12.6631 7.05556 13.5762 6.14244C14.4906 5.22814 15.8479 4.07585 17.1553 3.29967C17.4166 3.14455 17.6844 3.00019 17.9521 2.87389Z" fill="#48465C"/>
</svg>
