<svg width="24" height="24" viewBox="0 0 24 24" fill="none" xmlns="http://www.w3.org/2000/svg">
<path fill-rule="evenodd" clip-rule="evenodd" d="M11.2334 3.65318C13.9917 0.895321 18.4776 0.32062 21.0782 2.92076C23.6789 5.52137 23.104 10.0083 20.3457 12.7665C18.9558 14.1561 16.9431 15.1979 14.9747 15.6044C14.4217 15.7185 13.8549 15.7855 13.2959 15.7909L7.38969 21.6962C5.98505 23.1006 3.70839 23.1006 2.30375 21.6962C0.899074 20.2916 0.899074 18.0138 2.30375 16.6092L8.20805 10.7049C8.21335 10.1455 8.28034 9.57871 8.39457 9.02525C8.80095 7.05665 9.84347 5.04312 11.2334 3.65318ZM3.3643 17.6708C2.5455 18.4897 2.54545 19.8168 3.3643 20.6356C4.18315 21.4543 5.51029 21.4543 6.32914 20.6356L11.4219 15.5438C10.7225 15.3336 10.0808 14.9801 9.54985 14.4491C9.01922 13.9185 8.66631 13.277 8.4561 12.578L3.3643 17.6708ZM21.126 6.04771C20.9997 6.31538 20.8552 6.58335 20.7002 6.84459C19.9241 8.15211 18.7718 9.50934 17.8575 10.4237C16.9444 11.3367 15.3949 12.6805 13.9024 13.6512C13.551 13.8797 13.1927 14.0952 12.8389 14.2801C13.4005 14.3187 14.0179 14.2703 14.6709 14.1356C16.3746 13.7839 18.1178 12.8723 19.2852 11.7049C20.9258 10.0643 21.5323 7.8591 21.126 6.04771ZM20.0176 3.98131C19.972 3.93595 19.8393 3.847 19.4317 3.93053C19.0284 4.01319 18.5099 4.24003 17.9209 4.58971C16.7524 5.28345 15.4929 6.3469 14.6368 7.20299C13.7793 8.06043 12.5069 9.53008 11.6055 10.9159C11.1514 11.6139 10.8202 12.2468 10.668 12.745C10.5922 12.9932 10.5739 13.1679 10.5821 13.2782C10.5859 13.3297 10.5953 13.3581 10.6006 13.371C10.605 13.3817 10.6077 13.3858 10.6104 13.3885C10.6131 13.3912 10.617 13.3947 10.628 13.3993C10.6409 13.4046 10.6699 13.4131 10.7217 13.4169C10.8321 13.425 11.0068 13.4067 11.2549 13.3309C11.7531 13.1788 12.3861 12.8482 13.084 12.3944C14.4699 11.4931 15.9395 10.2205 16.7969 9.36314C17.653 8.5071 18.7165 7.24758 19.4102 6.07896C19.7598 5.48993 19.9868 4.97155 20.0694 4.56822C20.1531 4.15948 20.0629 4.02659 20.0176 3.98131ZM17.9522 2.87389C16.1407 2.46747 13.9348 3.07318 12.294 4.71373C11.1265 5.88111 10.215 7.62433 9.86332 9.32799C9.72847 9.98127 9.68116 10.5992 9.71977 11.161C9.90482 10.8072 10.1191 10.4489 10.3477 10.0975C11.3186 8.60504 12.6631 7.05556 13.5762 6.14244C14.4906 5.22814 15.8479 4.07585 17.1553 3.29967C17.4166 3.14455 17.6845 3.00019 17.9522 2.87389Z" fill="#48465C"/>
</svg>
