<svg width="24" height="24" viewBox="0 0 24 24" fill="none" xmlns="http://www.w3.org/2000/svg">
<path d="M11.2334 3.65338C13.9918 0.895364 18.4785 0.320462 21.0791 2.92096C23.6797 5.52158 23.104 10.0085 20.3457 12.7667C18.498 14.614 15.5113 15.878 12.9619 15.7872C12.7382 15.7792 12.5148 15.7607 12.2949 15.7305L6.85937 21.1661C5.74762 22.2777 3.94571 22.2777 2.83398 21.1661C1.72223 20.0544 1.72228 18.2524 2.83398 17.1407L8.26855 11.7051C8.23842 11.4855 8.21992 11.2627 8.21191 11.0391C8.12049 8.48935 9.38543 5.50131 11.2334 3.65338ZM21.126 6.04791C20.9997 6.31558 20.8552 6.58355 20.7002 6.84479C19.9241 8.15227 18.7727 9.50955 17.8584 10.4239C16.9452 11.337 15.3951 12.6815 13.9023 13.6524C13.5512 13.8806 13.1932 14.0945 12.8398 14.2794C12.8974 14.2832 12.9557 14.286 13.0146 14.2881C15.1118 14.363 17.7052 13.2858 19.2851 11.7061C20.9258 10.0654 21.5323 7.85936 21.126 6.04791ZM20.0176 3.98151C19.9719 3.93612 19.839 3.84722 19.4316 3.93072C19.0283 4.01339 18.5106 4.24039 17.9219 4.5899C16.7533 5.28362 15.4939 6.34705 14.6377 7.20319C13.7803 8.06059 12.507 9.5301 11.6055 10.9161C11.1513 11.6141 10.82 12.247 10.668 12.7452C10.5921 12.9934 10.5738 13.1681 10.582 13.2784C10.5858 13.3299 10.5953 13.3583 10.6006 13.3712C10.6052 13.3822 10.6086 13.3859 10.6113 13.3887C10.614 13.3914 10.6174 13.3951 10.6279 13.3995C10.6408 13.4048 10.6699 13.4133 10.7217 13.4171C10.8321 13.4252 11.0067 13.4069 11.2549 13.3311C11.7531 13.179 12.386 12.8484 13.084 12.3946C14.4701 11.4932 15.9404 10.2207 16.7978 9.36334C17.654 8.50731 18.7165 7.24775 19.4101 6.07916C19.7597 5.49014 19.9867 4.97174 20.0693 4.56842C20.1531 4.15968 20.0629 4.02679 20.0176 3.98151ZM17.9521 2.87408C16.1406 2.46766 13.9347 3.07333 12.2939 4.71393C10.7138 6.29401 9.63573 8.88807 9.71093 10.9854C9.71305 11.0444 9.71581 11.1035 9.71972 11.1612C9.9047 10.8075 10.1192 10.449 10.3476 10.0977C11.3185 8.60527 12.6631 7.05577 13.5762 6.14264C14.4905 5.22837 15.8478 4.07604 17.1553 3.29986C17.4165 3.14474 17.6844 3.00038 17.9521 2.87408Z" fill="#48465C"/>
</svg>
