<svg width="24" height="24" viewBox="0 0 24 24" fill="none" xmlns="http://www.w3.org/2000/svg">
<path fill-rule="evenodd" clip-rule="evenodd" d="M22 12C22 16.714 21.9997 19.0708 20.5352 20.5352C19.0708 21.9996 16.714 22 12 22C11.1815 22 10.4341 21.9999 9.75002 21.9922V10.25H21.9971C22.0005 10.7944 22 11.3766 22 12ZM8.25002 21.9561C5.90966 21.8589 4.47507 21.5454 3.46486 20.5352C2.00039 19.0708 2.00002 16.714 2.00002 12C2.00002 11.3766 1.99956 10.7944 2.00295 10.25H8.25002V21.9561ZM12 2C16.714 2 19.0708 2.00037 20.5352 3.46484C21.6155 4.54509 21.8993 6.11064 21.9737 8.75H2.02639C2.10074 6.11065 2.38461 4.54509 3.46486 3.46484C4.92932 2.00038 7.28598 2 12 2ZM6.00002 5C5.44775 5.00001 5.00002 5.44773 5.00002 6C5.00002 6.55227 5.44775 6.99999 6.00002 7C6.5523 7 7.00002 6.55228 7.00002 6C7.00002 5.44772 6.5523 5 6.00002 5ZM9.00002 5C8.44775 5.00001 8.00002 5.44773 8.00002 6C8.00002 6.55227 8.44775 6.99999 9.00002 7C9.5523 7 10 6.55228 10 6C10 5.44772 9.5523 5 9.00002 5ZM12 5C11.4477 5.00001 11 5.44773 11 6C11 6.55227 11.4477 6.99999 12 7C12.5523 7 13 6.55228 13 6C13 5.44772 12.5523 5 12 5Z" fill="#48465C"/>
</svg>
