<svg width="24" height="24" viewBox="0 0 24 24" fill="none" xmlns="http://www.w3.org/2000/svg">
<path d="M22 12C22 16.714 21.9996 19.0708 20.5351 20.5352C19.0707 21.9996 16.714 22 12 22C11.1815 22 10.4341 21.9999 9.74999 21.9922V10.25H21.9971C22.0005 10.7944 22 11.3766 22 12ZM8.24999 21.9561C5.90963 21.8589 4.47504 21.5454 3.46483 20.5352C2.00036 19.0708 1.99999 16.714 1.99999 12C1.99999 11.3766 1.99953 10.7944 2.00292 10.25H8.24999V21.9561ZM12 2C16.714 2 19.0707 2.00037 20.5351 3.46484C21.6154 4.54509 21.8992 6.11064 21.9736 8.75H2.02636C2.10071 6.11065 2.38458 4.54509 3.46483 3.46484C4.92929 2.00038 7.28595 2 12 2ZM5.99999 5C5.44772 5.00001 4.99999 5.44773 4.99999 6C4.99999 6.55227 5.44772 6.99999 5.99999 7C6.55227 7 6.99999 6.55228 6.99999 6C6.99999 5.44772 6.55227 5 5.99999 5ZM8.99999 5C8.44772 5.00001 7.99999 5.44773 7.99999 6C7.99999 6.55227 8.44772 6.99999 8.99999 7C9.55227 7 9.99999 6.55228 9.99999 6C9.99999 5.44772 9.55227 5 8.99999 5ZM12 5C11.4477 5.00001 11 5.44773 11 6C11 6.55227 11.4477 6.99999 12 7C12.5523 7 13 6.55228 13 6C13 5.44772 12.5523 5 12 5Z" fill="#48465C"/>
</svg>
