<svg width="24" height="24" viewBox="0 0 24 24" fill="none" xmlns="http://www.w3.org/2000/svg">
<path d="M19.2993 2.25C21.4547 2.25021 22.5693 4.8375 21.0522 6.38867L12.7495 14.877V20.25H16.2436C16.6578 20.25 16.9936 20.5858 16.9936 21C16.9936 21.4142 16.6578 21.75 16.2436 21.75H7.75632C7.3421 21.75 7.00632 21.4142 7.00632 21C7.00632 20.5858 7.3421 20.25 7.75632 20.25H11.2495V14.877L2.94773 6.38867C1.43065 4.83749 2.54511 2.25018 4.70066 2.25H19.2993ZM11.9995 13.499L14.9331 10.5H9.06687L11.9995 13.499ZM4.70066 3.75C3.85478 3.75017 3.44473 4.75166 4.01999 5.33984L7.60007 9H16.3999L19.98 5.33984C20.5552 4.75166 20.1451 3.75021 19.2993 3.75H4.70066Z" fill="#48465C"/>
</svg>
