<svg width="24" height="24" viewBox="0 0 24 24" fill="none" xmlns="http://www.w3.org/2000/svg">
<path d="M17.8857 5.23156C17.9864 5.22981 18.0864 5.24855 18.1797 5.28625C18.273 5.32392 18.3575 5.38018 18.4287 5.45128C18.4998 5.52236 18.556 5.60714 18.5937 5.70031C18.6315 5.7937 18.6502 5.89453 18.6484 5.99523C18.6466 6.09582 18.6249 6.19532 18.584 6.28722C18.543 6.37912 18.4838 6.46178 18.4102 6.53039L12.9404 12.0001L18.4102 17.4708C18.4837 17.5394 18.543 17.6221 18.584 17.714C18.6249 17.8059 18.6467 17.9053 18.6484 18.006C18.6502 18.1066 18.6315 18.2066 18.5937 18.2999C18.556 18.3932 18.4999 18.4778 18.4287 18.5489C18.3575 18.6202 18.2731 18.6772 18.1797 18.715C18.0864 18.7526 17.9863 18.7704 17.8857 18.7687C17.7851 18.7669 17.6857 18.7452 17.5937 18.7042C17.5018 18.6632 17.4183 18.6041 17.3496 18.5304L11.8799 13.0607L6.41016 18.5304C6.26802 18.6628 6.07998 18.7349 5.88574 18.7316C5.69144 18.7281 5.50558 18.6492 5.36816 18.5118C5.23097 18.3745 5.15194 18.1893 5.14844 17.9952C5.14501 17.8011 5.21741 17.6129 5.34961 17.4708L10.8203 12.0001L5.34961 6.53039C5.2173 6.38827 5.14504 6.20012 5.14844 6.00597C5.15187 5.81167 5.23075 5.62581 5.36816 5.48839C5.50557 5.351 5.69145 5.27307 5.88574 5.26964C6.07998 5.26626 6.26802 5.33837 6.41016 5.47082L11.8799 10.9405L17.3496 5.47082C17.4183 5.39713 17.5018 5.33798 17.5937 5.29699C17.6857 5.256 17.785 5.23333 17.8857 5.23156Z" fill="#48465C"/>
</svg>
